%FSAX42Y42*%
%MOMM*%
G71*
G01*
G75*
%ADD10C,0.30*%
%ADD11C,1.30*%
%ADD12R,1.00X1.70*%
%ADD13R,1.50X1.50*%
%ADD14R,2.35X0.50*%
%ADD15R,2.50X2.35*%
%ADD16R,1.70X1.00*%
%ADD17O,0.55X1.75*%
%ADD18O,1.75X0.55*%
%ADD19R,0.90X1.55*%
%ADD20R,2.10X1.40*%
%ADD21R,1.55X0.90*%
%ADD22O,2.40X0.35*%
%ADD23R,1.50X1.50*%
%ADD24O,2.50X1.80*%
%ADD25R,2.50X1.80*%
%ADD26C,1.50*%
%ADD27C,1.40*%
%ADD28R,2.50X2.50*%
%ADD29C,2.50*%
%ADD30R,2.50X2.50*%
%ADD31C,1.30*%
%ADD32R,1.30X1.30*%
%ADD33C,1.57*%
%ADD34R,1.57X1.57*%
%ADD35R,1.57X1.57*%
%ADD36C,6.50*%
%ADD37C,1.27*%
%ADD38C,0.80*%
%ADD39C,0.25*%
%ADD40C,0.25*%
%ADD41C,0.60*%
%ADD42C,0.15*%
%ADD43C,0.20*%
%ADD44C,0.30*%
%ADD45R,1.90X0.80*%
%ADD46R,1.20X1.90*%
%ADD47R,1.70X1.70*%
%ADD48R,2.55X0.70*%
%ADD49R,2.70X2.55*%
%ADD50R,1.90X1.20*%
%ADD51O,0.75X1.95*%
%ADD52O,1.95X0.75*%
%ADD53R,1.10X1.75*%
%ADD54R,2.30X1.60*%
%ADD55R,1.75X1.10*%
%ADD56O,2.60X0.55*%
%ADD57R,1.70X1.70*%
%ADD58O,2.70X2.00*%
%ADD59R,2.70X2.00*%
%ADD60C,1.70*%
%ADD61C,1.60*%
%ADD62R,2.70X2.70*%
%ADD63C,2.70*%
%ADD64R,2.70X2.70*%
%ADD65C,1.50*%
%ADD66R,1.50X1.50*%
%ADD67C,1.78*%
%ADD68R,1.78X1.78*%
%ADD69R,1.78X1.78*%
%ADD70C,6.70*%
%ADD71C,1.47*%
%ADD72C,0.10*%
%ADD73C,0.15*%
%ADD74R,9.50X8.00*%
%ADD75C,0.13*%
%ADD76C,0.17*%
D75*
X017870Y012090D02*
X017970D01*
X017920Y012040D02*
Y012140D01*
X017870Y011836D02*
X017970D01*
X017920Y011786D02*
Y011886D01*
X017870Y011582D02*
X017970D01*
X017920Y011532D02*
Y011632D01*
X016097Y010375D02*
X016187D01*
X016142Y010330D02*
Y010420D01*
X016097Y009665D02*
X016187D01*
X016142Y009620D02*
Y009710D01*
X016338Y010375D02*
X016428D01*
X016383Y010330D02*
Y010420D01*
X016338Y009665D02*
X016428D01*
X016383Y009620D02*
Y009710D01*
X017608Y010375D02*
X017698D01*
X017653Y010330D02*
Y010420D01*
X017608Y009665D02*
X017698D01*
X017653Y009620D02*
Y009710D01*
X017849Y010375D02*
X017939D01*
X017894Y010330D02*
Y010420D01*
X017849Y009665D02*
X017939D01*
X017894Y009620D02*
Y009710D01*
X017852Y010655D02*
X017937D01*
X017894Y010613D02*
Y010698D01*
X017090Y010655D02*
X017175D01*
X017132Y010613D02*
Y010698D01*
X016074Y010655D02*
X016159D01*
X016116Y010613D02*
Y010698D01*
X016836Y010655D02*
X016921D01*
X016878Y010613D02*
Y010698D01*
X015855Y009665D02*
X015945D01*
X015900Y009620D02*
Y009710D01*
X015855Y010375D02*
X015945D01*
X015900Y010330D02*
Y010420D01*
X016579Y009665D02*
X016669D01*
X016624Y009620D02*
Y009710D01*
X016579Y010375D02*
X016669D01*
X016624Y010330D02*
Y010420D01*
X017341Y009665D02*
X017431D01*
X017386Y009620D02*
Y009710D01*
X017341Y010375D02*
X017431D01*
X017386Y010330D02*
Y010420D01*
X018103Y009665D02*
X018193D01*
X018148Y009620D02*
Y009710D01*
X018103Y010375D02*
X018193D01*
X018148Y010330D02*
Y010420D01*
X018574Y011280D02*
X018714D01*
X018644Y011210D02*
Y011350D01*
X018574Y011630D02*
X018714D01*
X018644Y011560D02*
Y011700D01*
X014614Y009398D02*
X014754D01*
X014684Y009328D02*
Y009468D01*
X014964Y009398D02*
X015104D01*
X015034Y009328D02*
Y009468D01*
X013462Y010516D02*
X013532D01*
X013497Y010481D02*
Y010551D01*
X013662Y010516D02*
X013732D01*
X013697Y010481D02*
Y010551D01*
X013862Y010516D02*
X013932D01*
X013897Y010481D02*
Y010551D01*
X014062Y010516D02*
X014132D01*
X014097Y010481D02*
Y010551D01*
X013462Y010033D02*
X013532D01*
X013497Y009998D02*
Y010068D01*
X013662Y010033D02*
X013732D01*
X013697Y009998D02*
Y010068D01*
X013862Y010033D02*
X013932D01*
X013897Y009998D02*
Y010068D01*
X014062Y010033D02*
X014132D01*
X014097Y009998D02*
Y010068D01*
X012198Y010706D02*
X012288D01*
X012243Y010661D02*
Y010751D01*
X011944Y010706D02*
X012034D01*
X011989Y010661D02*
Y010751D01*
X011690Y010706D02*
X011780D01*
X011735Y010661D02*
Y010751D01*
X015271Y011989D02*
X015361D01*
X015316Y011944D02*
Y012034D01*
X015017Y011989D02*
X015107D01*
X015062Y011944D02*
Y012034D01*
X014763Y011989D02*
X014853D01*
X014808Y011944D02*
Y012034D01*
X017430Y012332D02*
X017520D01*
X017475Y012287D02*
Y012377D01*
X017176Y012332D02*
X017266D01*
X017221Y012287D02*
Y012377D01*
X016922Y012332D02*
X017012D01*
X016967Y012287D02*
Y012377D01*
X016668Y012332D02*
X016758D01*
X016713Y012287D02*
Y012377D01*
X016414Y012332D02*
X016504D01*
X016459Y012287D02*
Y012377D01*
X016160Y012332D02*
X016250D01*
X016205Y012287D02*
Y012377D01*
X019099Y009652D02*
X019179D01*
X019139Y009612D02*
Y009692D01*
X018591Y009652D02*
X018671D01*
X018631Y009612D02*
Y009692D01*
X014794Y012586D02*
X014874D01*
X014834Y012546D02*
Y012626D01*
X014540Y012586D02*
X014620D01*
X014580Y012546D02*
Y012626D01*
X014578Y013500D02*
X014658D01*
X014618Y013460D02*
Y013540D01*
X014578Y013246D02*
X014658D01*
X014618Y013206D02*
Y013286D01*
X012190Y010071D02*
X012270D01*
X012230Y010031D02*
Y010111D01*
X011682Y010071D02*
X011762D01*
X011722Y010031D02*
Y010111D01*
X011706Y009411D02*
X011846D01*
X011776Y009341D02*
Y009481D01*
X012056Y009411D02*
X012196D01*
X012126Y009341D02*
Y009481D01*
X011695Y011633D02*
X011775D01*
X011735Y011593D02*
Y011673D01*
X012203Y011633D02*
X012283D01*
X012243Y011593D02*
Y011673D01*
X011870Y013246D02*
X011960D01*
X011915Y013201D02*
Y013291D01*
X012124Y013246D02*
X012214D01*
X012169Y013201D02*
Y013291D01*
X012378Y013246D02*
X012468D01*
X012423Y013201D02*
Y013291D01*
X011870Y012946D02*
X011960D01*
X011915Y012901D02*
Y012991D01*
X012124Y012946D02*
X012214D01*
X012169Y012901D02*
Y012991D01*
X012378Y012946D02*
X012468D01*
X012423Y012901D02*
Y012991D01*
X011870Y012645D02*
X011960D01*
X011915Y012600D02*
Y012690D01*
X012124Y012645D02*
X012214D01*
X012169Y012600D02*
Y012690D01*
X012378Y012645D02*
X012468D01*
X012423Y012600D02*
Y012690D01*
X011870Y012344D02*
X011960D01*
X011915Y012299D02*
Y012389D01*
X012124Y012344D02*
X012214D01*
X012169Y012299D02*
Y012389D01*
X012378Y012344D02*
X012468D01*
X012423Y012299D02*
Y012389D01*
X015007Y010579D02*
X015092D01*
X015049Y010537D02*
Y010622D01*
X015007Y010071D02*
X015092D01*
X015049Y010029D02*
Y010114D01*
X015271Y011379D02*
X015361D01*
X015316Y011334D02*
Y011424D01*
X015017Y011379D02*
X015107D01*
X015062Y011334D02*
Y011424D01*
X014763Y011379D02*
X014853D01*
X014808Y011334D02*
Y011424D01*
X015271Y011684D02*
X015361D01*
X015316Y011639D02*
Y011729D01*
X015017Y011684D02*
X015107D01*
X015062Y011639D02*
Y011729D01*
X014763Y011684D02*
X014853D01*
X014808Y011639D02*
Y011729D01*
X014065Y013475D02*
X014155D01*
X014110Y013430D02*
Y013520D01*
X014065Y013221D02*
X014155D01*
X014110Y013176D02*
Y013266D01*
X014065Y012967D02*
X014155D01*
X014110Y012922D02*
Y013012D01*
X013735Y013475D02*
X013824D01*
X013779Y013430D02*
Y013520D01*
X013735Y013221D02*
X013824D01*
X013779Y013176D02*
Y013266D01*
X013735Y012967D02*
X013824D01*
X013779Y012922D02*
Y013012D01*
X013404Y013475D02*
X013494D01*
X013449Y013430D02*
Y013520D01*
X013404Y013221D02*
X013494D01*
X013449Y013176D02*
Y013266D01*
X013404Y012967D02*
X013494D01*
X013449Y012922D02*
Y013012D01*
X013074Y013475D02*
X013164D01*
X013119Y013430D02*
Y013520D01*
X013074Y013221D02*
X013164D01*
X013119Y013176D02*
Y013266D01*
X013074Y012967D02*
X013164D01*
X013119Y012922D02*
Y013012D01*
X017862Y009373D02*
X017952D01*
X017907Y009328D02*
Y009418D01*
X016973Y008865D02*
X017063D01*
X017018Y008820D02*
Y008910D01*
X016846Y009373D02*
X016936D01*
X016891Y009328D02*
Y009418D01*
X016719Y008865D02*
X016809D01*
X016764Y008820D02*
Y008910D01*
X016592Y009373D02*
X016682D01*
X016637Y009328D02*
Y009418D01*
X017735Y008865D02*
X017825D01*
X017780Y008820D02*
Y008910D01*
X017608Y009373D02*
X017698D01*
X017653Y009328D02*
Y009418D01*
X017481Y008865D02*
X017571D01*
X017526Y008820D02*
Y008910D01*
X017354Y009373D02*
X017444D01*
X017399Y009328D02*
Y009418D01*
X017227Y008865D02*
X017317D01*
X017272Y008820D02*
Y008910D01*
X017100Y009373D02*
X017190D01*
X017145Y009328D02*
Y009418D01*
X016465Y008865D02*
X016555D01*
X016510Y008820D02*
Y008910D01*
X016338Y009373D02*
X016428D01*
X016383Y009328D02*
Y009418D01*
X016211Y008865D02*
X016301D01*
X016256Y008820D02*
Y008910D01*
X016084Y009373D02*
X016174D01*
X016129Y009328D02*
Y009418D01*
X018715Y010452D02*
X019055D01*
X018885Y010282D02*
Y010622D01*
X012809Y009411D02*
X013149D01*
X012979Y009241D02*
Y009581D01*
X017783Y012967D02*
X017854D01*
X017818Y012931D02*
Y013002D01*
X018621Y010935D02*
X018692D01*
X018656Y010899D02*
Y010970D01*
X017465Y013449D02*
X017536D01*
X017501Y013414D02*
Y013485D01*
X013947Y010858D02*
X014018D01*
X013983Y010823D02*
Y010894D01*
X018006Y013127D02*
X018077D01*
X018041Y013092D02*
Y013163D01*
X013731Y011989D02*
X013802D01*
X013767Y011953D02*
Y012024D01*
M02*
