%FSLAX42Y42*%
%MOMM*%
G71*
G01*
G75*
G04 Layer_Physical_Order=1*
G04 Layer_Color=255*
%ADD10C,0.30*%
%ADD11C,1.30*%
%ADD12R,1.00X1.70*%
%ADD13R,1.50X1.50*%
%ADD14R,2.35X0.50*%
%ADD15R,2.50X2.35*%
%ADD16R,1.70X1.00*%
%ADD17O,0.55X1.75*%
%ADD18O,1.75X0.55*%
%ADD19R,0.90X1.55*%
%ADD20R,2.10X1.40*%
%ADD21R,1.55X0.90*%
%ADD22O,2.40X0.35*%
%ADD23R,1.50X1.50*%
%ADD24O,2.50X1.80*%
%ADD25R,2.50X1.80*%
%ADD26C,1.50*%
%ADD27C,1.40*%
%ADD28R,2.50X2.50*%
%ADD29C,2.50*%
%ADD30R,2.50X2.50*%
%ADD31C,1.30*%
%ADD32R,1.30X1.30*%
%ADD33C,1.57*%
%ADD34R,1.57X1.57*%
%ADD35R,1.57X1.57*%
%ADD36C,6.50*%
%ADD37C,1.27*%
G36*
X19108Y12117D02*
X19108Y12115D01*
X19105Y12084D01*
X19096Y12053D01*
X19081Y12025D01*
X19060Y12000D01*
X19035Y11979D01*
X19006Y11964D01*
X18979Y11955D01*
X18969Y11963D01*
Y12155D01*
X19108D01*
Y12117D01*
D02*
G37*
G36*
X17205Y10570D02*
X17201Y10542D01*
X17201Y10539D01*
X17201Y10536D01*
Y9732D01*
X17201D01*
X17204Y9685D01*
X17215Y9639D01*
X17233Y9596D01*
X17248Y9572D01*
X17245Y9569D01*
X17233Y9570D01*
X17213Y9594D01*
X17193Y9630D01*
X17182Y9669D01*
X17178Y9708D01*
X17178Y9710D01*
Y10566D01*
X17183Y10568D01*
X17194Y10577D01*
X17205Y10570D01*
D02*
G37*
G36*
X17421Y10961D02*
X17525Y10948D01*
X17626Y10925D01*
X17726Y10894D01*
X17822Y10854D01*
X17915Y10806D01*
X18002Y10750D01*
X18085Y10686D01*
X18160Y10618D01*
X18161Y10615D01*
X18161Y10615D01*
X18163Y10614D01*
X18188Y10584D01*
X18207Y10548D01*
X18219Y10509D01*
X18221Y10490D01*
X18212Y10480D01*
X18043D01*
Y10270D01*
X18224D01*
X18227Y9752D01*
X18216Y9746D01*
X18201Y9757D01*
X18176Y9768D01*
X18148Y9771D01*
X18121Y9768D01*
X18095Y9757D01*
X18073Y9740D01*
X18057Y9718D01*
X18054Y9711D01*
X17999D01*
Y9770D01*
X17789D01*
Y9619D01*
X17770Y9588D01*
X17758Y9591D01*
Y9770D01*
X17548D01*
Y9711D01*
X17481D01*
X17478Y9718D01*
X17461Y9740D01*
X17439Y9757D01*
X17414Y9768D01*
X17386Y9771D01*
X17359Y9768D01*
X17333Y9757D01*
X17311Y9740D01*
X17305Y9731D01*
X17292Y9735D01*
Y10270D01*
X17491D01*
Y10480D01*
X17292D01*
Y10532D01*
X17305Y10615D01*
X17305Y10618D01*
X17305Y10622D01*
X17305D01*
X17301Y10664D01*
X17289Y10706D01*
X17268Y10744D01*
X17241Y10777D01*
X17241Y10777D01*
X17183Y10835D01*
X17183Y10835D01*
X17129Y10883D01*
X17069Y10923D01*
X17008Y10953D01*
X17011Y10965D01*
X17317D01*
X17320Y10966D01*
X17421Y10961D01*
D02*
G37*
G36*
X18659Y11952D02*
X18544D01*
Y12155D01*
X18659D01*
Y11952D01*
D02*
G37*
G36*
X13798Y11898D02*
X13854Y11859D01*
X13914Y11826D01*
X13978Y11799D01*
X14043Y11780D01*
X14068Y11776D01*
X14073Y11765D01*
X14065Y11753D01*
X14063Y11744D01*
X14179D01*
Y11718D01*
X14063D01*
X14065Y11709D01*
X14077Y11691D01*
X14065Y11673D01*
X14061Y11651D01*
X14065Y11629D01*
X14071Y11620D01*
X14067Y11608D01*
X14049Y11601D01*
X14024Y11581D01*
X14004Y11555D01*
X13992Y11525D01*
X13987Y11493D01*
X13988D01*
Y11394D01*
X13991Y11377D01*
X13994Y11372D01*
X13992Y11361D01*
X13981Y11354D01*
X13970Y11357D01*
X13965Y11368D01*
X13948Y11392D01*
X13924Y11409D01*
X13897Y11421D01*
X13868Y11424D01*
Y11424D01*
X13189D01*
X13185Y11425D01*
X13168Y11422D01*
X13166Y11422D01*
X13164Y11433D01*
X13152Y11451D01*
X13164Y11469D01*
X13168Y11491D01*
X13164Y11513D01*
X13152Y11531D01*
X13164Y11549D01*
X13168Y11571D01*
X13164Y11593D01*
X13152Y11611D01*
X13164Y11629D01*
X13168Y11651D01*
X13164Y11673D01*
X13160Y11679D01*
X13165Y11691D01*
X13261Y11703D01*
X13364Y11726D01*
X13466Y11758D01*
X13564Y11799D01*
X13658Y11848D01*
X13739Y11899D01*
X13742Y11898D01*
X13767Y11894D01*
X13791Y11898D01*
X13797Y11900D01*
X13798Y11898D01*
D02*
G37*
G36*
X13919Y11006D02*
Y11006D01*
X13919D01*
X13921Y11007D01*
X13951Y11004D01*
X13981Y10995D01*
X14009Y10980D01*
X14032Y10960D01*
X14033Y10959D01*
D01*
X14033D01*
Y10959D01*
X14033Y10959D01*
X14079Y10919D01*
X14132Y10887D01*
X14189Y10863D01*
X14249Y10849D01*
X14310Y10844D01*
Y10844D01*
X15720D01*
X15722Y10832D01*
X15621Y10803D01*
X15511Y10763D01*
X15404Y10714D01*
X15302Y10656D01*
X15204Y10591D01*
X15169Y10563D01*
X15164Y10566D01*
X14941D01*
X14944Y10551D01*
X14955Y10524D01*
X14972Y10502D01*
X14995Y10484D01*
X15021Y10473D01*
X15043Y10470D01*
X15047Y10458D01*
X15031Y10444D01*
Y10444D01*
X15031Y10444D01*
X15026Y10439D01*
D01*
X15026Y10439D01*
X15026Y10439D01*
D01*
X15024Y10436D01*
X14935Y10353D01*
X14838Y10275D01*
X14735Y10203D01*
X14628Y10140D01*
X14516Y10084D01*
X14401Y10036D01*
X14282Y9997D01*
X14202Y9976D01*
X14192Y9984D01*
Y10128D01*
X14002D01*
Y10060D01*
X13990Y10058D01*
X13980Y10081D01*
X13965Y10101D01*
X13945Y10116D01*
X13922Y10126D01*
X13910Y10127D01*
Y10033D01*
X13884D01*
Y10127D01*
X13872Y10126D01*
X13872Y10125D01*
X13865Y10136D01*
X13991Y10262D01*
X13992Y10263D01*
X14012Y10279D01*
X14037Y10289D01*
X14062Y10292D01*
X14063Y10292D01*
X14063D01*
Y10292D01*
X14106Y10296D01*
X14147Y10308D01*
X14185Y10329D01*
X14218Y10356D01*
X14219Y10356D01*
X14240Y10383D01*
X14253Y10416D01*
X14257Y10450D01*
X14257D01*
Y10569D01*
X14257D01*
X14253Y10603D01*
X14240Y10635D01*
X14219Y10663D01*
X14219Y10663D01*
X14179Y10695D01*
X14133Y10720D01*
X14084Y10735D01*
X14033Y10740D01*
Y10739D01*
X13694D01*
X13693Y10739D01*
X13672Y10742D01*
X13651Y10750D01*
X13635Y10763D01*
X13634Y10764D01*
X13633Y10765D01*
X13611Y10792D01*
X13608Y10796D01*
X13615Y10807D01*
X13627D01*
Y10922D01*
X13652D01*
Y10807D01*
X13720D01*
Y10807D01*
X13720D01*
X13720Y10807D01*
X13725D01*
Y10807D01*
X13885D01*
Y10818D01*
X13897Y10820D01*
X13901Y10811D01*
X13916Y10792D01*
X13936Y10777D01*
X13958Y10767D01*
X13970Y10766D01*
Y10858D01*
Y10951D01*
X13958Y10950D01*
X13936Y10940D01*
X13916Y10925D01*
X13901Y10906D01*
X13897Y10897D01*
X13885Y10899D01*
Y10979D01*
X13885Y10980D01*
X13889Y10998D01*
X13889Y10999D01*
X13897Y11009D01*
X13919Y11006D01*
D02*
G37*
G36*
X17082Y10568D02*
X17086Y10566D01*
Y9710D01*
X17086D01*
X17090Y9663D01*
X17101Y9617D01*
X17119Y9574D01*
X17144Y9534D01*
X17174Y9498D01*
X17174Y9498D01*
X17176Y9497D01*
X17188Y9482D01*
X17180Y9472D01*
X17172Y9475D01*
X17145Y9479D01*
X17118Y9475D01*
X17110Y9472D01*
X17086Y9501D01*
X17066Y9537D01*
X17055Y9576D01*
X17051Y9615D01*
X17051Y9617D01*
Y10577D01*
X17063Y10583D01*
X17082Y10568D01*
D02*
G37*
G36*
X18987Y13217D02*
X19015Y13209D01*
X19041Y13195D01*
X19064Y13176D01*
X19083Y13153D01*
X19097Y13127D01*
X19106Y13099D01*
X19108Y13070D01*
X19108Y13069D01*
Y13016D01*
X18969D01*
Y13210D01*
X18978Y13218D01*
X18987Y13217D01*
D02*
G37*
G36*
X13519Y10769D02*
X13541Y10732D01*
X13569Y10699D01*
X13569Y10699D01*
X13570Y10699D01*
X13596Y10677D01*
X13626Y10661D01*
X13659Y10651D01*
X13693Y10648D01*
X13694Y10648D01*
X14033D01*
X14034Y10648D01*
X14066Y10645D01*
X14098Y10635D01*
X14121Y10623D01*
X14118Y10611D01*
X14002D01*
Y10543D01*
X13990Y10540D01*
X13980Y10564D01*
X13965Y10583D01*
X13945Y10599D01*
X13922Y10608D01*
X13910Y10610D01*
Y10516D01*
Y10421D01*
X13922Y10423D01*
X13945Y10433D01*
X13965Y10448D01*
X13980Y10468D01*
X13990Y10491D01*
X14002Y10488D01*
Y10421D01*
X14134D01*
X14138Y10409D01*
X14127Y10400D01*
X14096Y10387D01*
X14065Y10383D01*
X14063Y10384D01*
X14063D01*
Y10384D01*
X14025Y10380D01*
X13989Y10369D01*
X13955Y10351D01*
X13926Y10327D01*
X13926Y10327D01*
X13926Y10327D01*
X13724Y10125D01*
X13722Y10126D01*
X13697Y10129D01*
X13672Y10126D01*
X13649Y10116D01*
X13629Y10101D01*
X13614Y10081D01*
X13604Y10058D01*
X13603Y10049D01*
X13591D01*
X13590Y10058D01*
X13580Y10081D01*
X13565Y10101D01*
X13545Y10116D01*
X13522Y10126D01*
X13497Y10129D01*
X13472Y10126D01*
X13470Y10125D01*
X13401Y10194D01*
X13399Y10195D01*
X13375Y10225D01*
X13356Y10261D01*
X13344Y10300D01*
X13340Y10339D01*
X13340Y10341D01*
Y10430D01*
X13353Y10433D01*
X13355Y10429D01*
X13374Y10405D01*
X13398Y10386D01*
X13425Y10372D01*
X13454Y10363D01*
X13483Y10360D01*
X13484Y10360D01*
X13522D01*
X13539Y10363D01*
X13545Y10367D01*
X13575Y10374D01*
X13618Y10392D01*
X13657Y10416D01*
X13668Y10425D01*
X13672Y10423D01*
X13697Y10420D01*
X13722Y10423D01*
X13745Y10433D01*
X13765Y10448D01*
X13780Y10468D01*
X13790Y10491D01*
X13791Y10499D01*
X13803D01*
X13804Y10491D01*
X13814Y10468D01*
X13829Y10448D01*
X13849Y10433D01*
X13872Y10423D01*
X13884Y10421D01*
Y10516D01*
Y10610D01*
X13872Y10608D01*
X13849Y10599D01*
X13829Y10583D01*
X13814Y10564D01*
X13804Y10540D01*
X13803Y10532D01*
X13791D01*
X13790Y10540D01*
X13780Y10564D01*
X13765Y10583D01*
X13745Y10599D01*
X13722Y10608D01*
X13697Y10611D01*
X13672Y10608D01*
X13649Y10599D01*
X13629Y10583D01*
X13614Y10564D01*
X13604Y10540D01*
X13603Y10532D01*
X13591D01*
X13590Y10540D01*
X13580Y10564D01*
X13565Y10583D01*
X13545Y10599D01*
X13522Y10608D01*
X13500Y10611D01*
Y10781D01*
X13513Y10783D01*
X13519Y10769D01*
D02*
G37*
G36*
X18234Y13016D02*
X18159D01*
X18147Y13014D01*
X18137Y13007D01*
X18131Y12997D01*
X18128Y12986D01*
Y12801D01*
X18087D01*
Y13045D01*
X18089Y13046D01*
X18108Y13061D01*
X18123Y13080D01*
X18133Y13103D01*
X18136Y13127D01*
X18133Y13152D01*
X18123Y13174D01*
X18108Y13194D01*
X18090Y13208D01*
X18094Y13220D01*
X18234D01*
Y13016D01*
D02*
G37*
G36*
X12785Y12659D02*
X12796Y12613D01*
X12814Y12570D01*
X12838Y12530D01*
X12869Y12494D01*
X12869Y12494D01*
X12869Y12494D01*
X13082Y12281D01*
X13077Y12270D01*
X12989D01*
X12967Y12265D01*
X12948Y12252D01*
X12935Y12233D01*
X12931Y12211D01*
X12933Y12198D01*
X12924Y12190D01*
X12917Y12192D01*
X12881Y12211D01*
X12850Y12236D01*
X12849Y12238D01*
X12849Y12238D01*
X12847Y12239D01*
X12808Y12284D01*
X12774Y12336D01*
X12746Y12391D01*
X12726Y12450D01*
X12714Y12511D01*
X12710Y12570D01*
X12711Y12572D01*
Y12663D01*
X12711D01*
X12711Y12666D01*
X12719Y12676D01*
X12719Y12676D01*
X12719Y12676D01*
X12720Y12676D01*
X12783D01*
X12785Y12659D01*
D02*
G37*
G36*
X15095Y13388D02*
X15098Y13369D01*
X15108Y13355D01*
X15098Y13341D01*
X15095Y13323D01*
X15098Y13304D01*
X15108Y13290D01*
X15098Y13276D01*
X15095Y13258D01*
X15098Y13239D01*
X15096Y13232D01*
X15047Y13223D01*
X14989Y13203D01*
X14935Y13176D01*
X14884Y13142D01*
X14838Y13102D01*
X14838Y13102D01*
X14838Y13102D01*
X14085Y12349D01*
X14073Y12354D01*
Y12433D01*
X14078Y12446D01*
X14099Y12472D01*
X14101Y12474D01*
X14940Y13313D01*
X14941Y13315D01*
X14978Y13346D01*
X15021Y13372D01*
X15067Y13392D01*
X15086Y13396D01*
X15095Y13388D01*
D02*
G37*
G36*
X18659Y13016D02*
X18544D01*
Y13220D01*
X18659D01*
Y13016D01*
D02*
G37*
G36*
X13752Y12262D02*
X13774Y12257D01*
X13797Y12262D01*
X13814Y12274D01*
X13832Y12262D01*
X13854Y12257D01*
X13877Y12262D01*
X13877Y12262D01*
X13889Y12258D01*
X13897Y12239D01*
X13911Y12222D01*
X13928Y12209D01*
X13948Y12201D01*
X13967Y12198D01*
X13969Y12198D01*
X14044D01*
X14062Y12201D01*
X14063Y12201D01*
X14065Y12189D01*
X14077Y12171D01*
X14065Y12153D01*
X14061Y12131D01*
X14065Y12109D01*
X14077Y12091D01*
X14065Y12073D01*
X14061Y12051D01*
X14065Y12029D01*
X14077Y12011D01*
X14065Y11993D01*
X14061Y11971D01*
X14065Y11949D01*
X14077Y11931D01*
X14065Y11913D01*
X14061Y11891D01*
X14063Y11881D01*
X14054Y11872D01*
X14045Y11874D01*
X13980Y11896D01*
X13919Y11926D01*
X13863Y11964D01*
X13858Y11968D01*
X13861Y11989D01*
X13858Y12013D01*
X13848Y12036D01*
X13833Y12055D01*
X13814Y12070D01*
X13791Y12080D01*
X13767Y12083D01*
X13752Y12081D01*
X13729Y12116D01*
X13699Y12177D01*
X13677Y12241D01*
X13675Y12250D01*
X13684Y12259D01*
X13694Y12257D01*
X13717Y12262D01*
X13734Y12274D01*
X13752Y12262D01*
D02*
G37*
G36*
X13547Y12260D02*
X13557Y12262D01*
X13568Y12269D01*
X13580Y12264D01*
X13584Y12240D01*
X13603Y12174D01*
X13629Y12111D01*
X13662Y12051D01*
X13681Y12025D01*
X13676Y12013D01*
X13672Y11989D01*
X13675Y11967D01*
X13612Y11927D01*
X13525Y11882D01*
X13434Y11844D01*
X13341Y11815D01*
X13245Y11793D01*
X13173Y11784D01*
X13164Y11793D01*
X13165Y11798D01*
X13049D01*
Y11824D01*
X13165D01*
X13164Y11833D01*
X13152Y11851D01*
X13164Y11869D01*
X13168Y11891D01*
X13164Y11913D01*
X13152Y11931D01*
X13164Y11949D01*
X13168Y11971D01*
X13164Y11993D01*
X13152Y12011D01*
X13164Y12029D01*
X13168Y12051D01*
X13164Y12073D01*
X13152Y12091D01*
X13164Y12109D01*
X13168Y12131D01*
X13164Y12153D01*
X13152Y12171D01*
X13164Y12189D01*
X13166Y12201D01*
X13167Y12201D01*
X13184Y12198D01*
X13404D01*
X13406Y12198D01*
X13427Y12201D01*
X13449Y12210D01*
X13467Y12224D01*
X13481Y12242D01*
X13490Y12263D01*
X13490Y12264D01*
X13501Y12269D01*
X13512Y12262D01*
X13522Y12260D01*
Y12376D01*
X13547D01*
Y12260D01*
D02*
G37*
G36*
X17548Y9560D02*
X17607D01*
Y9467D01*
X17600Y9464D01*
X17578Y9447D01*
X17561Y9426D01*
X17551Y9400D01*
X17547Y9373D01*
X17551Y9345D01*
X17561Y9320D01*
X17578Y9298D01*
X17600Y9281D01*
X17626Y9270D01*
X17653Y9267D01*
X17680Y9270D01*
X17706Y9281D01*
X17723Y9294D01*
X17734Y9288D01*
Y8959D01*
X17727Y8956D01*
X17705Y8939D01*
X17688Y8918D01*
X17678Y8892D01*
X17674Y8865D01*
X17678Y8837D01*
X17688Y8812D01*
X17705Y8790D01*
X17722Y8777D01*
X17718Y8765D01*
X17588D01*
X17584Y8777D01*
X17601Y8790D01*
X17618Y8812D01*
X17628Y8837D01*
X17632Y8865D01*
X17628Y8892D01*
X17618Y8918D01*
X17601Y8939D01*
X17579Y8956D01*
X17553Y8967D01*
X17526Y8971D01*
X17499Y8967D01*
X17473Y8956D01*
X17451Y8939D01*
X17434Y8918D01*
X17424Y8892D01*
X17420Y8865D01*
X17424Y8837D01*
X17434Y8812D01*
X17451Y8790D01*
X17468Y8777D01*
X17464Y8765D01*
X17334D01*
X17330Y8777D01*
X17347Y8790D01*
X17364Y8812D01*
X17374Y8837D01*
X17378Y8865D01*
X17374Y8892D01*
X17364Y8918D01*
X17347Y8939D01*
X17325Y8956D01*
X17318Y8959D01*
Y9288D01*
X17329Y9294D01*
X17346Y9281D01*
X17372Y9270D01*
X17399Y9267D01*
X17426Y9270D01*
X17452Y9281D01*
X17474Y9298D01*
X17491Y9320D01*
X17501Y9345D01*
X17505Y9373D01*
X17501Y9400D01*
X17491Y9426D01*
X17474Y9447D01*
X17452Y9464D01*
X17426Y9475D01*
X17425Y9475D01*
X17413Y9505D01*
X17389Y9544D01*
X17386Y9548D01*
X17390Y9560D01*
X17414Y9563D01*
X17439Y9574D01*
X17461Y9590D01*
X17478Y9612D01*
X17481Y9619D01*
X17548D01*
Y9560D01*
D02*
G37*
G36*
X16747Y13465D02*
X16818Y13451D01*
X16887Y13428D01*
X16953Y13395D01*
X17013Y13355D01*
X17016Y13353D01*
X17011Y13341D01*
X16943D01*
Y13279D01*
X16904D01*
Y13338D01*
X16694D01*
Y13128D01*
X16904D01*
Y13188D01*
X16943D01*
Y13126D01*
X17093D01*
Y13126D01*
X17093D01*
X17093Y13126D01*
X17098D01*
Y13126D01*
X17127D01*
Y13074D01*
X17102D01*
X17102Y13074D01*
Y13074D01*
X17098Y13074D01*
X17096D01*
X17093D01*
X17089Y13074D01*
X17089Y13074D01*
Y13074D01*
X16943D01*
Y13013D01*
X16904D01*
Y13072D01*
X16694D01*
Y12862D01*
X16904D01*
Y12921D01*
X16943D01*
Y12859D01*
X17089D01*
X17089Y12859D01*
Y12859D01*
X17093Y12859D01*
X17096D01*
X17098D01*
X17102Y12859D01*
X17102Y12859D01*
Y12859D01*
X17248D01*
Y13074D01*
X17219D01*
Y13126D01*
X17248D01*
Y13220D01*
X17863D01*
Y13191D01*
X17958D01*
X17964Y13179D01*
X17960Y13174D01*
X17950Y13152D01*
X17947Y13127D01*
X17950Y13103D01*
X17960Y13080D01*
X17975Y13061D01*
X17994Y13046D01*
X17996Y13045D01*
Y12801D01*
X17894D01*
Y12721D01*
X17894D01*
Y12719D01*
X17641D01*
Y12852D01*
X17641Y12852D01*
D01*
D01*
X17641Y12856D01*
Y12857D01*
Y12859D01*
X17641Y12861D01*
D01*
X17641Y12865D01*
X17641Y12865D01*
X17641D01*
Y12929D01*
X17411D01*
Y12865D01*
X17411Y12865D01*
X17411D01*
X17411Y12861D01*
Y12859D01*
Y12856D01*
X17411Y12852D01*
X17411Y12852D01*
X17411D01*
Y12784D01*
X16103D01*
X16097Y12790D01*
X15797D01*
X15798Y12784D01*
X15808Y12770D01*
X15798Y12756D01*
X15795Y12738D01*
X15798Y12719D01*
X15808Y12705D01*
X15798Y12691D01*
X15795Y12673D01*
X15798Y12654D01*
X15808Y12640D01*
X15798Y12626D01*
X15795Y12608D01*
X15798Y12589D01*
X15809Y12573D01*
X15825Y12563D01*
X15843Y12559D01*
X15931D01*
X15940Y12553D01*
X15958Y12550D01*
X17894D01*
Y12531D01*
Y12518D01*
X18041D01*
Y12493D01*
X17894D01*
Y12451D01*
Y12371D01*
X18128D01*
Y12186D01*
X18131Y12174D01*
X18137Y12164D01*
X18147Y12157D01*
X18159Y12155D01*
X18234D01*
Y11962D01*
X18225Y11953D01*
X18204Y11955D01*
X18156Y11966D01*
X18111Y11985D01*
X18069Y12011D01*
X18054Y12023D01*
X18060Y12030D01*
X18072Y12059D01*
X18076Y12090D01*
X18072Y12122D01*
X18060Y12151D01*
X18040Y12176D01*
X18015Y12195D01*
X17986Y12207D01*
X17955Y12211D01*
X17902D01*
X17658Y12455D01*
X17658Y12455D01*
X17657Y12456D01*
X17632Y12476D01*
X17603Y12492D01*
X17572Y12501D01*
X17539Y12504D01*
X17539Y12505D01*
X17453D01*
Y12505D01*
X17406Y12501D01*
X17361Y12490D01*
X17317Y12472D01*
X17277Y12447D01*
X17257Y12430D01*
X17249Y12434D01*
X17221Y12438D01*
X17194Y12434D01*
X17168Y12423D01*
X17146Y12407D01*
X17129Y12385D01*
X17119Y12359D01*
X17115Y12332D01*
X17119Y12304D01*
X17129Y12279D01*
X17146Y12257D01*
X17168Y12240D01*
X17175Y12237D01*
Y12198D01*
X17144D01*
Y11983D01*
X17294D01*
Y11983D01*
X17294D01*
X17294Y11983D01*
X17299D01*
Y11983D01*
X17328D01*
X17335Y11972D01*
X17317Y11941D01*
X17270Y11873D01*
X17215Y11812D01*
X17153Y11757D01*
X17086Y11709D01*
X17014Y11669D01*
X16938Y11638D01*
X16859Y11615D01*
X16791Y11604D01*
X16781Y11612D01*
Y11651D01*
X16511D01*
Y11610D01*
X15781D01*
Y11651D01*
X15511D01*
Y11610D01*
X15406D01*
X15400Y11621D01*
X15408Y11631D01*
X15418Y11657D01*
X15422Y11684D01*
X15418Y11711D01*
X15408Y11737D01*
X15391Y11759D01*
X15369Y11776D01*
X15344Y11786D01*
X15316Y11790D01*
X15289Y11786D01*
X15263Y11776D01*
X15241Y11759D01*
X15224Y11737D01*
X15214Y11711D01*
X15210Y11684D01*
X15214Y11657D01*
X15224Y11631D01*
X15232Y11621D01*
X15226Y11610D01*
X15152D01*
X15146Y11621D01*
X15154Y11631D01*
X15164Y11657D01*
X15166Y11671D01*
X14958D01*
X14960Y11657D01*
X14970Y11631D01*
X14978Y11621D01*
X14972Y11610D01*
X14913D01*
Y11789D01*
X14768D01*
X14628Y11929D01*
X14628Y11929D01*
X14628Y11929D01*
Y11929D01*
X14628Y11929D01*
X14592Y11960D01*
X14552Y11984D01*
X14532Y11993D01*
X14534Y12005D01*
X14703D01*
Y11884D01*
X14913D01*
Y12085D01*
X14995D01*
X15000Y12073D01*
X14987Y12064D01*
X14970Y12042D01*
X14960Y12016D01*
X14958Y12001D01*
X15166D01*
X15164Y12016D01*
X15154Y12042D01*
X15137Y12064D01*
X15125Y12073D01*
X15129Y12085D01*
X15249D01*
X15254Y12073D01*
X15241Y12064D01*
X15224Y12042D01*
X15214Y12016D01*
X15210Y11989D01*
X15214Y11961D01*
X15224Y11936D01*
X15241Y11914D01*
X15263Y11897D01*
X15289Y11887D01*
X15316Y11883D01*
X15344Y11887D01*
X15369Y11897D01*
X15391Y11914D01*
X15408Y11936D01*
X15418Y11961D01*
X15422Y11989D01*
X15418Y12016D01*
X15408Y12042D01*
X15391Y12064D01*
X15379Y12073D01*
X15383Y12085D01*
X15511D01*
Y12014D01*
X15781D01*
Y12085D01*
X16229D01*
X16229Y12085D01*
Y12085D01*
X16311Y12089D01*
X16391Y12103D01*
X16470Y12126D01*
X16546Y12157D01*
X16618Y12197D01*
X16672Y12235D01*
X16686Y12229D01*
X16713Y12226D01*
X16741Y12229D01*
X16766Y12240D01*
X16788Y12257D01*
X16805Y12279D01*
X16815Y12304D01*
X16819Y12332D01*
X16815Y12359D01*
X16805Y12385D01*
X16788Y12407D01*
X16766Y12423D01*
X16741Y12434D01*
X16713Y12438D01*
X16686Y12434D01*
X16660Y12423D01*
X16638Y12407D01*
X16621Y12385D01*
X16611Y12359D01*
X16607Y12332D01*
X16611Y12304D01*
X16611Y12304D01*
X16569Y12274D01*
X16559Y12269D01*
X16551Y12278D01*
X16551Y12279D01*
X16561Y12304D01*
X16565Y12332D01*
X16561Y12359D01*
X16551Y12385D01*
X16534Y12407D01*
X16512Y12423D01*
X16487Y12434D01*
X16459Y12438D01*
X16432Y12434D01*
X16406Y12423D01*
X16384Y12407D01*
X16367Y12385D01*
X16357Y12359D01*
X16353Y12332D01*
X16357Y12304D01*
X16358Y12301D01*
X16356Y12299D01*
X16312Y12275D01*
X16307Y12274D01*
X16299Y12284D01*
X16307Y12304D01*
X16311Y12332D01*
X16307Y12359D01*
X16297Y12385D01*
X16280Y12407D01*
X16258Y12423D01*
X16233Y12434D01*
X16205Y12438D01*
X16178Y12434D01*
X16152Y12423D01*
X16130Y12407D01*
X16113Y12385D01*
X16103Y12359D01*
X16099Y12332D01*
X16103Y12304D01*
X16113Y12279D01*
X16122Y12268D01*
X16116Y12257D01*
X14274D01*
X14262Y12265D01*
X14239Y12270D01*
X14152D01*
X14147Y12281D01*
X14459Y12593D01*
X14470Y12587D01*
X14470Y12586D01*
X14474Y12557D01*
X14485Y12531D01*
X14502Y12508D01*
X14525Y12491D01*
X14551Y12480D01*
X14567Y12478D01*
Y12586D01*
X14580D01*
Y12598D01*
X14688D01*
X14686Y12614D01*
X14675Y12641D01*
X14657Y12663D01*
X14634Y12681D01*
X14608Y12692D01*
X14580Y12695D01*
X14578Y12695D01*
X14572Y12707D01*
X14903Y13037D01*
X14903Y13037D01*
X14903Y13037D01*
X14904Y13039D01*
X14947Y13076D01*
X14997Y13107D01*
X15052Y13129D01*
X15086Y13137D01*
X15095Y13129D01*
X15095Y13128D01*
X15098Y13109D01*
X15108Y13095D01*
X15098Y13081D01*
X15097Y13075D01*
X15394D01*
X15393Y13081D01*
X15384Y13095D01*
X15393Y13109D01*
X15397Y13128D01*
X15393Y13146D01*
X15384Y13160D01*
X15393Y13174D01*
X15397Y13193D01*
X15393Y13211D01*
X15392Y13212D01*
X15396Y13224D01*
X15401Y13227D01*
X15424Y13244D01*
X15442Y13267D01*
X15453Y13294D01*
X15457Y13322D01*
X15456D01*
Y13469D01*
X15788D01*
X15796Y13460D01*
X15795Y13453D01*
X15798Y13434D01*
X15808Y13420D01*
X15798Y13406D01*
X15795Y13388D01*
X15798Y13369D01*
X15808Y13355D01*
X15798Y13341D01*
X15797Y13335D01*
X16094D01*
X16093Y13341D01*
X16084Y13355D01*
X16093Y13369D01*
X16097Y13388D01*
X16093Y13406D01*
X16084Y13420D01*
X16093Y13434D01*
X16097Y13453D01*
X16095Y13460D01*
X16103Y13469D01*
X16674D01*
X16677Y13470D01*
X16747Y13465D01*
D02*
G37*
G36*
X18057Y9612D02*
X18073Y9590D01*
X18095Y9574D01*
X18121Y9563D01*
X18148Y9559D01*
X18176Y9563D01*
X18201Y9574D01*
X18217Y9585D01*
X18228Y9580D01*
X18229Y9370D01*
X18226Y9365D01*
X18222Y9347D01*
X18222D01*
X18223Y9347D01*
X18218Y9275D01*
X18204Y9204D01*
X18181Y9135D01*
X18149Y9070D01*
X18109Y9010D01*
X18063Y8957D01*
X18060Y8956D01*
X17930Y8826D01*
X17929Y8824D01*
X17899Y8799D01*
X17863Y8780D01*
X17859Y8785D01*
X17855Y8790D01*
X17872Y8812D01*
X17882Y8837D01*
X17886Y8865D01*
X17882Y8892D01*
X17872Y8918D01*
X17855Y8939D01*
X17833Y8956D01*
X17826Y8959D01*
Y9268D01*
X17894D01*
Y9373D01*
Y9478D01*
X17837D01*
X17837Y9478D01*
X17830Y9488D01*
X17841Y9526D01*
X17860Y9560D01*
X17999D01*
Y9619D01*
X18054D01*
X18057Y9612D01*
D02*
G37*
G36*
X14988Y13457D02*
X14960Y13443D01*
X14916Y13413D01*
X14875Y13378D01*
X14875Y13378D01*
X14739Y13242D01*
X14727Y13246D01*
X14724Y13274D01*
X14713Y13301D01*
X14695Y13324D01*
X14673Y13341D01*
X14646Y13352D01*
X14630Y13354D01*
Y13246D01*
X14618D01*
Y13233D01*
X14510D01*
X14512Y13218D01*
X14523Y13191D01*
X14540Y13169D01*
X14563Y13151D01*
X14589Y13140D01*
X14618Y13136D01*
X14622Y13124D01*
X14036Y12539D01*
X14036Y12539D01*
X14007Y12504D01*
X14001Y12492D01*
X13992Y12490D01*
X13974Y12478D01*
X13957Y12490D01*
X13934Y12495D01*
X13920Y12492D01*
X13911Y12501D01*
X13919Y12546D01*
X13942Y12629D01*
X13975Y12708D01*
X14017Y12783D01*
X14066Y12853D01*
X14074Y12862D01*
X14215D01*
Y13072D01*
X14005D01*
Y12921D01*
X14003Y12919D01*
X13953Y12851D01*
X13909Y12779D01*
X13874Y12703D01*
X13845Y12624D01*
X13833Y12575D01*
X13820Y12577D01*
Y12862D01*
X13885D01*
Y13072D01*
X13674D01*
Y12862D01*
X13729D01*
Y12735D01*
X13716Y12732D01*
X13708Y12753D01*
X13683Y12793D01*
X13652Y12828D01*
X13652Y12828D01*
X13554Y12927D01*
Y13072D01*
X13375D01*
Y13131D01*
X13387Y13136D01*
X13396Y13129D01*
X13422Y13118D01*
X13437Y13116D01*
Y13221D01*
Y13325D01*
X13422Y13323D01*
X13397Y13313D01*
X13388Y13321D01*
X13390Y13329D01*
X13410Y13365D01*
X13417Y13374D01*
X13422Y13372D01*
X13449Y13369D01*
X13477Y13372D01*
X13502Y13383D01*
X13524Y13400D01*
X13541Y13422D01*
X13544Y13429D01*
X13685D01*
X13688Y13422D01*
X13705Y13400D01*
X13727Y13383D01*
X13752Y13372D01*
X13779Y13369D01*
X13807Y13372D01*
X13832Y13383D01*
X13854Y13400D01*
X13871Y13422D01*
X13874Y13429D01*
X14015D01*
X14018Y13422D01*
X14035Y13400D01*
X14057Y13383D01*
X14082Y13372D01*
X14110Y13369D01*
X14137Y13372D01*
X14163Y13383D01*
X14185Y13400D01*
X14201Y13422D01*
X14212Y13447D01*
X14215Y13469D01*
X14509D01*
Y13391D01*
X14726D01*
Y13469D01*
X14985D01*
X14988Y13457D01*
D02*
G37*
G36*
X19227Y13598D02*
X19275Y13584D01*
X19319Y13560D01*
X19357Y13528D01*
X19389Y13489D01*
X19413Y13445D01*
X19427Y13397D01*
X19432Y13348D01*
X19431Y9703D01*
Y8877D01*
X19431D01*
X19432Y8876D01*
X19427Y8828D01*
X19413Y8780D01*
X19389Y8736D01*
X19357Y8697D01*
X19319Y8665D01*
X19275Y8641D01*
X19227Y8627D01*
X19177Y8622D01*
X17920Y8622D01*
X17917Y8635D01*
X17944Y8646D01*
X17984Y8670D01*
X18020Y8701D01*
X18020Y8701D01*
X18175Y8856D01*
X18175Y8856D01*
X18176Y8856D01*
X18229Y8916D01*
X18275Y8981D01*
X18314Y9051D01*
X18345Y9125D01*
X18367Y9202D01*
X18380Y9282D01*
X18385Y9362D01*
X18385D01*
Y10453D01*
X18385D01*
X18380Y10511D01*
X18367Y10568D01*
X18344Y10622D01*
X18314Y10671D01*
X18276Y10716D01*
X18276Y10715D01*
X18266Y10726D01*
X18266Y10726D01*
X18188Y10798D01*
X18105Y10863D01*
X18017Y10922D01*
X17925Y10974D01*
X17829Y11018D01*
X17729Y11054D01*
X17628Y11083D01*
X17524Y11104D01*
X17419Y11116D01*
X17313Y11120D01*
Y11120D01*
X14740D01*
X14738Y11120D01*
X14653Y11124D01*
X14567Y11137D01*
X14482Y11158D01*
X14400Y11187D01*
X14321Y11225D01*
X14247Y11269D01*
X14177Y11321D01*
X14155Y11341D01*
X14160Y11352D01*
X14239D01*
X14262Y11357D01*
X14274Y11365D01*
X14703D01*
Y11274D01*
X14913D01*
Y11484D01*
X14703D01*
Y11457D01*
X14299D01*
X14293Y11468D01*
X14294Y11469D01*
X14298Y11491D01*
X14294Y11513D01*
X14282Y11531D01*
X14294Y11549D01*
X14298Y11571D01*
X14311Y11574D01*
X14324Y11558D01*
X14338Y11547D01*
Y11477D01*
X14440D01*
Y11557D01*
X14453D01*
Y11570D01*
X14568D01*
Y11637D01*
D01*
Y11637D01*
X14568Y11637D01*
Y11642D01*
X14568D01*
Y11741D01*
X14580Y11744D01*
X14595Y11717D01*
X14607Y11678D01*
X14610Y11639D01*
X14610Y11637D01*
X14610D01*
X14614Y11606D01*
X14626Y11577D01*
X14645Y11553D01*
X14669Y11534D01*
X14698Y11522D01*
X14729Y11518D01*
Y11518D01*
X15511D01*
Y11451D01*
X15781D01*
Y11518D01*
X16511D01*
Y11451D01*
X16781D01*
Y11510D01*
X16856Y11521D01*
X16935Y11541D01*
X17011Y11568D01*
X17084Y11603D01*
X17154Y11645D01*
X17219Y11693D01*
X17279Y11747D01*
X17334Y11808D01*
X17382Y11873D01*
X17424Y11942D01*
X17443Y11983D01*
X17449D01*
Y11995D01*
X17458Y12016D01*
X17486Y12092D01*
X17505Y12171D01*
X17514Y12227D01*
X17580D01*
Y12386D01*
X17592Y12392D01*
X17593Y12391D01*
X17593Y12390D01*
X17593D01*
X17593Y12390D01*
X17593Y12390D01*
X17800Y12184D01*
X17799Y12176D01*
X17780Y12151D01*
X17768Y12122D01*
X17764Y12090D01*
X17768Y12059D01*
X17780Y12030D01*
X17799Y12005D01*
X17824Y11986D01*
X17853Y11973D01*
X17882Y11970D01*
Y11957D01*
X17853Y11953D01*
X17824Y11941D01*
X17799Y11922D01*
X17780Y11897D01*
X17768Y11868D01*
X17765Y11849D01*
X18074D01*
X18072Y11868D01*
X18062Y11891D01*
X18068Y11902D01*
X18070Y11903D01*
X18128Y11879D01*
X18189Y11864D01*
X18252Y11859D01*
Y11860D01*
X18943D01*
Y11859D01*
X18993Y11864D01*
X19042Y11879D01*
X19086Y11903D01*
X19125Y11935D01*
X19157Y11974D01*
X19181Y12018D01*
X19195Y12066D01*
X19200Y12117D01*
X19200D01*
Y13069D01*
X19200D01*
X19196Y13117D01*
X19182Y13162D01*
X19159Y13204D01*
X19129Y13241D01*
X19092Y13271D01*
X19050Y13293D01*
X19005Y13307D01*
X18958Y13312D01*
Y13312D01*
X18682D01*
Y13312D01*
Y13319D01*
X18682Y13321D01*
X18682Y13321D01*
X18682D01*
Y13411D01*
X18472D01*
Y13321D01*
X18472Y13321D01*
X18472D01*
X18472Y13319D01*
X18465Y13312D01*
X18332D01*
Y13312D01*
Y13319D01*
X18332Y13321D01*
X18332Y13321D01*
X18332D01*
Y13529D01*
X18122D01*
Y13467D01*
X18078D01*
Y13496D01*
X17863D01*
Y13350D01*
X17863Y13350D01*
X17863D01*
X17863Y13346D01*
Y13343D01*
Y13341D01*
X17863Y13337D01*
X17863Y13337D01*
X17863D01*
Y13312D01*
X17248D01*
Y13341D01*
X17163D01*
X17133Y13371D01*
X17133Y13371D01*
X17078Y13420D01*
X17019Y13462D01*
X16955Y13497D01*
X16888Y13525D01*
X16818Y13545D01*
X16746Y13557D01*
X16674Y13561D01*
Y13561D01*
X15418D01*
Y13561D01*
X15417Y13561D01*
X14726D01*
Y13593D01*
Y13593D01*
X14735Y13602D01*
X18885Y13602D01*
X19177D01*
Y13602D01*
X19178Y13603D01*
X19227Y13598D01*
D02*
G37*
G36*
X14509Y13602D02*
Y13561D01*
X14207D01*
Y13561D01*
X14174Y13558D01*
X14163Y13566D01*
X14137Y13577D01*
X14110Y13581D01*
X14082Y13577D01*
X14057Y13566D01*
X14035Y13550D01*
X14018Y13528D01*
X14015Y13521D01*
X13874D01*
X13871Y13528D01*
X13854Y13550D01*
X13832Y13566D01*
X13807Y13577D01*
X13779Y13581D01*
X13752Y13577D01*
X13727Y13566D01*
X13705Y13550D01*
X13688Y13528D01*
X13685Y13521D01*
X13544D01*
X13541Y13528D01*
X13524Y13550D01*
X13502Y13566D01*
X13477Y13577D01*
X13449Y13581D01*
X13422Y13577D01*
X13396Y13566D01*
X13374Y13550D01*
X13358Y13528D01*
X13347Y13502D01*
X13343Y13475D01*
X13347Y13447D01*
X13351Y13438D01*
X13341Y13426D01*
X13316Y13386D01*
X13298Y13342D01*
X13287Y13296D01*
X13283Y13249D01*
X13283D01*
Y12880D01*
X13272Y12876D01*
X13252Y12898D01*
X13252Y12898D01*
X13224Y12927D01*
Y13072D01*
X13014D01*
Y12862D01*
X13159D01*
X13188Y12833D01*
X13189Y12832D01*
X13214Y12802D01*
X13233Y12766D01*
X13245Y12727D01*
X13249Y12688D01*
X13249Y12686D01*
Y12496D01*
X13237Y12490D01*
X13237Y12490D01*
X13214Y12495D01*
X13192Y12490D01*
X13173Y12477D01*
X13160Y12458D01*
X13156Y12436D01*
Y12354D01*
X13144Y12349D01*
X12934Y12559D01*
X12934Y12559D01*
X12934Y12559D01*
X12932Y12560D01*
X12907Y12590D01*
X12888Y12626D01*
X12876Y12665D01*
X12876Y12666D01*
X12885Y12676D01*
X12935D01*
Y12822D01*
X12935Y12822D01*
D01*
D01*
X12935Y12826D01*
Y12826D01*
Y12828D01*
X12935Y12831D01*
D01*
X12935Y12835D01*
X12935Y12835D01*
X12935D01*
Y12981D01*
X12873D01*
Y13004D01*
X12932D01*
Y13214D01*
X12722D01*
Y13004D01*
X12781D01*
Y12981D01*
X12719D01*
Y12835D01*
X12719Y12835D01*
X12719D01*
X12719Y12831D01*
Y12828D01*
Y12826D01*
X12719Y12822D01*
X12719Y12822D01*
X12719D01*
Y12746D01*
X12707Y12746D01*
X12707Y12748D01*
X12694Y12833D01*
X12673Y12916D01*
X12645Y12996D01*
X12608Y13073D01*
X12564Y13147D01*
X12528Y13195D01*
Y13351D01*
X12318D01*
Y13141D01*
X12455D01*
X12500Y13078D01*
X12509Y13061D01*
X12503Y13051D01*
X12318D01*
Y12841D01*
X12452D01*
X12483Y12795D01*
X12500Y12761D01*
X12493Y12750D01*
X12318D01*
Y12540D01*
X12460D01*
X12464Y12535D01*
X12483Y12500D01*
X12494Y12462D01*
X12494Y12459D01*
X12486Y12449D01*
X12318D01*
Y12239D01*
X12463D01*
X12755Y11948D01*
X12755Y11948D01*
X12755Y11948D01*
X12797Y11912D01*
X12844Y11883D01*
X12877Y11869D01*
X12875Y11857D01*
X12701D01*
Y11904D01*
X12598D01*
Y11824D01*
X12586D01*
Y11811D01*
X12471D01*
Y11744D01*
X12471Y11744D01*
X12471Y11739D01*
X12471D01*
Y11579D01*
X12643D01*
X12646Y11567D01*
X12617Y11546D01*
X12559Y11494D01*
X12559Y11494D01*
X12129Y11064D01*
X12117Y11068D01*
Y11080D01*
X12002D01*
X11994Y11090D01*
X11999Y11115D01*
X12018Y11184D01*
X12046Y11251D01*
X12081Y11314D01*
X12122Y11372D01*
X12168Y11424D01*
X12170Y11425D01*
X12170D01*
D01*
X12170Y11425D01*
X12270Y11524D01*
X12352D01*
Y11742D01*
X12134D01*
Y11660D01*
X12035Y11561D01*
X12035D01*
X12035D01*
X11980Y11501D01*
X11931Y11435D01*
X11889Y11365D01*
X11855Y11291D01*
X11827Y11214D01*
X11807Y11135D01*
X11795Y11054D01*
X11791Y10973D01*
X11791D01*
X11795Y10948D01*
X11804Y10925D01*
X11812Y10914D01*
Y10865D01*
X11954D01*
X11961Y10855D01*
X11958Y10846D01*
X11947Y10802D01*
X11936Y10798D01*
X11914Y10781D01*
X11897Y10759D01*
X11887Y10734D01*
X11883Y10706D01*
X11887Y10679D01*
X11897Y10653D01*
X11914Y10631D01*
X11936Y10614D01*
X11961Y10604D01*
X11989Y10600D01*
X12016Y10604D01*
X12042Y10614D01*
X12064Y10631D01*
X12081Y10653D01*
X12091Y10679D01*
X12095Y10706D01*
X12091Y10734D01*
X12081Y10759D01*
X12064Y10781D01*
X12042Y10798D01*
X12040Y10799D01*
X12050Y10833D01*
X12067Y10865D01*
X12117D01*
Y10922D01*
X12624Y11429D01*
X12625Y11431D01*
X12674Y11474D01*
X12729Y11513D01*
X12788Y11546D01*
X12851Y11572D01*
X12915Y11591D01*
X12924Y11592D01*
X12933Y11583D01*
X12931Y11571D01*
X12935Y11549D01*
X12947Y11531D01*
X12935Y11513D01*
X12931Y11491D01*
X12935Y11469D01*
X12947Y11451D01*
X12935Y11433D01*
X12931Y11411D01*
X12935Y11389D01*
X12948Y11370D01*
X12967Y11357D01*
X12989Y11352D01*
X13089D01*
X13097Y11343D01*
X13096Y11336D01*
Y10478D01*
X13096Y10478D01*
X13096D01*
X13100Y10395D01*
X13112Y10313D01*
X13132Y10233D01*
X13160Y10155D01*
X13195Y10080D01*
X13238Y10009D01*
X13287Y9943D01*
X13343Y9882D01*
X13343Y9882D01*
X13343Y9882D01*
X13352Y9873D01*
X13359Y9863D01*
X13359Y9863D01*
X13395Y9832D01*
X13435Y9807D01*
X13478Y9789D01*
X13524Y9778D01*
X13571Y9775D01*
Y9775D01*
X13796D01*
Y9774D01*
X13931Y9779D01*
X14064Y9794D01*
X14197Y9817D01*
X14327Y9851D01*
X14455Y9893D01*
X14579Y9945D01*
X14699Y10005D01*
X14815Y10074D01*
X14926Y10150D01*
X14929Y10153D01*
X14941Y10148D01*
Y9962D01*
X15158D01*
Y10180D01*
X14981D01*
X14977Y10192D01*
X15030Y10235D01*
X15129Y10326D01*
X15129Y10327D01*
X15129Y10327D01*
X15129Y10327D01*
D01*
X15129Y10327D01*
X15130Y10329D01*
X15206Y10399D01*
X15290Y10466D01*
X15379Y10525D01*
X15472Y10577D01*
X15569Y10622D01*
X15669Y10659D01*
X15772Y10688D01*
X15876Y10708D01*
X15982Y10721D01*
X16027Y10723D01*
X16033Y10711D01*
X16029Y10706D01*
X16019Y10681D01*
X16017Y10668D01*
X16215D01*
X16214Y10681D01*
X16204Y10706D01*
X16198Y10713D01*
X16204Y10724D01*
X16658D01*
X16660Y10725D01*
X16699Y10721D01*
X16738Y10709D01*
X16774Y10690D01*
X16782Y10684D01*
X16781Y10681D01*
X16777Y10655D01*
X16781Y10629D01*
X16791Y10605D01*
X16807Y10584D01*
X16828Y10568D01*
X16832Y10566D01*
Y9719D01*
X16833Y9717D01*
X16829Y9678D01*
X16817Y9639D01*
X16798Y9603D01*
X16773Y9573D01*
X16771Y9571D01*
X16672Y9472D01*
X16664Y9475D01*
X16637Y9479D01*
X16610Y9475D01*
X16584Y9464D01*
X16562Y9447D01*
X16545Y9426D01*
X16535Y9400D01*
X16531Y9373D01*
X16535Y9345D01*
X16545Y9320D01*
X16562Y9298D01*
X16584Y9281D01*
X16610Y9270D01*
X16637Y9267D01*
X16664Y9270D01*
X16690Y9281D01*
X16712Y9298D01*
X16729Y9320D01*
X16739Y9345D01*
X16743Y9373D01*
X16739Y9400D01*
X16737Y9407D01*
X16836Y9507D01*
X16836Y9507D01*
X16867Y9542D01*
X16892Y9582D01*
X16910Y9626D01*
X16921Y9672D01*
X16924Y9719D01*
X16924D01*
Y10566D01*
X16929Y10568D01*
X16948Y10583D01*
X16959Y10577D01*
Y9617D01*
X16959D01*
X16963Y9570D01*
X16974Y9524D01*
X16992Y9481D01*
X17017Y9441D01*
X17046Y9407D01*
X17043Y9400D01*
X17039Y9373D01*
X17043Y9345D01*
X17053Y9320D01*
X17070Y9298D01*
X17092Y9281D01*
X17118Y9270D01*
X17145Y9267D01*
X17172Y9270D01*
X17198Y9281D01*
X17215Y9294D01*
X17226Y9288D01*
Y8959D01*
X17219Y8956D01*
X17197Y8939D01*
X17180Y8918D01*
X17170Y8892D01*
X17166Y8865D01*
X17170Y8837D01*
X17180Y8812D01*
X17197Y8790D01*
X17214Y8777D01*
X17210Y8765D01*
X17080D01*
X17076Y8777D01*
X17093Y8790D01*
X17110Y8812D01*
X17120Y8837D01*
X17122Y8852D01*
X16914D01*
X16916Y8837D01*
X16926Y8812D01*
X16943Y8790D01*
X16956Y8779D01*
X16952Y8768D01*
X16948Y8768D01*
X16909Y8780D01*
X16873Y8799D01*
X16856Y8813D01*
X16866Y8837D01*
X16870Y8865D01*
X16866Y8892D01*
X16856Y8918D01*
X16839Y8939D01*
X16817Y8956D01*
X16791Y8967D01*
X16764Y8971D01*
X16737Y8967D01*
X16711Y8956D01*
X16689Y8939D01*
X16672Y8918D01*
X16662Y8892D01*
X16658Y8865D01*
X16662Y8837D01*
X16672Y8812D01*
X16689Y8790D01*
X16711Y8773D01*
X16737Y8762D01*
X16764Y8759D01*
X16777Y8760D01*
X16813Y8730D01*
X16835Y8717D01*
X16831Y8705D01*
X16795D01*
X16793Y8704D01*
X16754Y8708D01*
X16715Y8720D01*
X16679Y8739D01*
X16649Y8764D01*
X16648Y8766D01*
X16602Y8812D01*
X16612Y8837D01*
X16616Y8865D01*
X16612Y8892D01*
X16602Y8918D01*
X16585Y8939D01*
X16563Y8956D01*
X16537Y8967D01*
X16510Y8971D01*
X16483Y8967D01*
X16457Y8956D01*
X16435Y8939D01*
X16418Y8918D01*
X16408Y8892D01*
X16404Y8865D01*
X16408Y8837D01*
X16418Y8812D01*
X16435Y8790D01*
X16457Y8773D01*
X16483Y8762D01*
X16510Y8759D01*
X16523Y8760D01*
X16583Y8701D01*
X16583Y8701D01*
X16619Y8670D01*
X16659Y8645D01*
X16684Y8635D01*
X16682Y8622D01*
X11493Y8623D01*
Y13157D01*
Y13348D01*
X11493D01*
X11492Y13349D01*
X11497Y13397D01*
X11512Y13445D01*
X11535Y13489D01*
X11567Y13528D01*
X11606Y13560D01*
X11650Y13584D01*
X11698Y13598D01*
X11747Y13603D01*
X14509Y13602D01*
D02*
G37*
%LPC*%
G36*
X18075Y11702D02*
X17765D01*
Y11462D01*
X18075D01*
Y11702D01*
D02*
G37*
G36*
X16215Y10643D02*
X16129D01*
Y10556D01*
X16142Y10558D01*
X16167Y10568D01*
X16188Y10584D01*
X16204Y10605D01*
X16214Y10629D01*
X16215Y10643D01*
D02*
G37*
G36*
X15075Y11483D02*
Y11392D01*
X15166D01*
X15164Y11407D01*
X15154Y11432D01*
X15137Y11454D01*
X15115Y11471D01*
X15090Y11481D01*
X15075Y11483D01*
D02*
G37*
G36*
X17882Y10643D02*
X17795D01*
X17797Y10629D01*
X17807Y10605D01*
X17823Y10584D01*
X17844Y10568D01*
X17868Y10558D01*
X17882Y10556D01*
Y10643D01*
D02*
G37*
G36*
X15166Y11367D02*
X15075D01*
Y11275D01*
X15090Y11277D01*
X15115Y11287D01*
X15137Y11304D01*
X15154Y11326D01*
X15164Y11352D01*
X15166Y11367D01*
D02*
G37*
G36*
X15049Y11483D02*
X15035Y11481D01*
X15009Y11471D01*
X14987Y11454D01*
X14970Y11432D01*
X14960Y11407D01*
X14958Y11392D01*
X15049D01*
Y11483D01*
D02*
G37*
G36*
X16104Y10643D02*
X16017D01*
X16019Y10629D01*
X16029Y10605D01*
X16045Y10584D01*
X16066Y10568D01*
X16090Y10558D01*
X16104Y10556D01*
Y10643D01*
D02*
G37*
G36*
X17640Y10480D02*
X17626Y10478D01*
X17600Y10467D01*
X17578Y10450D01*
X17561Y10428D01*
X17551Y10403D01*
X17549Y10388D01*
X17640D01*
Y10480D01*
D02*
G37*
G36*
X16370D02*
X16356Y10478D01*
X16330Y10467D01*
X16308Y10450D01*
X16291Y10428D01*
X16281Y10403D01*
X16279Y10388D01*
X16370D01*
Y10480D01*
D02*
G37*
G36*
X16396D02*
Y10388D01*
X16487D01*
X16485Y10403D01*
X16475Y10428D01*
X16458Y10450D01*
X16436Y10467D01*
X16410Y10478D01*
X16396Y10480D01*
D02*
G37*
G36*
X17666D02*
Y10388D01*
X17757D01*
X17755Y10403D01*
X17745Y10428D01*
X17728Y10450D01*
X17706Y10467D01*
X17680Y10478D01*
X17666Y10480D01*
D02*
G37*
G36*
X18631Y11618D02*
X18489D01*
X18491Y11600D01*
X18500Y11571D01*
X18514Y11544D01*
X18533Y11520D01*
X18557Y11501D01*
X18584Y11487D01*
X18613Y11478D01*
X18631Y11476D01*
Y11618D01*
D02*
G37*
G36*
X17907Y10480D02*
Y10388D01*
X17999D01*
X17997Y10403D01*
X17986Y10428D01*
X17969Y10450D01*
X17947Y10467D01*
X17922Y10478D01*
X17907Y10480D01*
D02*
G37*
G36*
X17882D02*
X17867Y10478D01*
X17841Y10467D01*
X17819Y10450D01*
X17803Y10428D01*
X17792Y10403D01*
X17790Y10388D01*
X17882D01*
Y10480D01*
D02*
G37*
G36*
X17993Y10643D02*
X17907D01*
Y10556D01*
X17920Y10558D01*
X17945Y10568D01*
X17966Y10584D01*
X17982Y10605D01*
X17992Y10629D01*
X17993Y10643D01*
D02*
G37*
G36*
X12256Y10810D02*
Y10719D01*
X12347D01*
X12345Y10734D01*
X12335Y10759D01*
X12318Y10781D01*
X12296Y10798D01*
X12270Y10808D01*
X12256Y10810D01*
D02*
G37*
G36*
X18644Y11027D02*
X18632Y11026D01*
X18609Y11016D01*
X18590Y11001D01*
X18575Y10982D01*
X18565Y10959D01*
X18564Y10947D01*
X18644D01*
Y11027D01*
D02*
G37*
G36*
X18669D02*
Y10947D01*
X18749D01*
X18747Y10959D01*
X18738Y10982D01*
X18723Y11001D01*
X18703Y11016D01*
X18681Y11026D01*
X18669Y11027D01*
D02*
G37*
G36*
X12230Y10810D02*
X12215Y10808D01*
X12190Y10798D01*
X12168Y10781D01*
X12151Y10759D01*
X12141Y10734D01*
X12139Y10719D01*
X12230D01*
Y10810D01*
D02*
G37*
G36*
X18749Y10922D02*
X18669D01*
Y10842D01*
X18681Y10844D01*
X18703Y10853D01*
X18723Y10868D01*
X18738Y10888D01*
X18747Y10910D01*
X18749Y10922D01*
D02*
G37*
G36*
X13995Y10951D02*
Y10871D01*
X14075D01*
X14074Y10883D01*
X14064Y10906D01*
X14049Y10925D01*
X14030Y10940D01*
X14007Y10950D01*
X13995Y10951D01*
D02*
G37*
G36*
X14075Y10846D02*
X13995D01*
Y10766D01*
X14007Y10767D01*
X14030Y10777D01*
X14049Y10792D01*
X14064Y10811D01*
X14074Y10834D01*
X14075Y10846D01*
D02*
G37*
G36*
X18644Y10922D02*
X18564D01*
X18565Y10910D01*
X18575Y10888D01*
X18590Y10868D01*
X18609Y10853D01*
X18632Y10844D01*
X18644Y10842D01*
Y10922D01*
D02*
G37*
G36*
X17907Y10754D02*
Y10668D01*
X17993D01*
X17992Y10681D01*
X17982Y10706D01*
X17966Y10727D01*
X17945Y10743D01*
X17920Y10753D01*
X17907Y10754D01*
D02*
G37*
G36*
X12230Y10693D02*
X12139D01*
X12141Y10679D01*
X12151Y10653D01*
X12168Y10631D01*
X12190Y10614D01*
X12215Y10604D01*
X12230Y10602D01*
Y10693D01*
D02*
G37*
G36*
X12347D02*
X12256D01*
Y10602D01*
X12270Y10604D01*
X12296Y10614D01*
X12318Y10631D01*
X12335Y10653D01*
X12345Y10679D01*
X12347Y10693D01*
D02*
G37*
G36*
X15037Y10687D02*
X15021Y10685D01*
X14995Y10674D01*
X14972Y10657D01*
X14955Y10634D01*
X14944Y10607D01*
X14941Y10592D01*
X15037D01*
Y10687D01*
D02*
G37*
G36*
X15062D02*
Y10592D01*
X15158D01*
X15155Y10607D01*
X15144Y10634D01*
X15127Y10657D01*
X15104Y10674D01*
X15078Y10685D01*
X15062Y10687D01*
D02*
G37*
G36*
X15316Y11485D02*
X15289Y11481D01*
X15263Y11471D01*
X15241Y11454D01*
X15224Y11432D01*
X15214Y11407D01*
X15210Y11379D01*
X15214Y11352D01*
X15224Y11326D01*
X15241Y11304D01*
X15263Y11287D01*
X15289Y11277D01*
X15316Y11273D01*
X15344Y11277D01*
X15369Y11287D01*
X15391Y11304D01*
X15408Y11326D01*
X15418Y11352D01*
X15422Y11379D01*
X15418Y11407D01*
X15408Y11432D01*
X15391Y11454D01*
X15369Y11471D01*
X15344Y11481D01*
X15316Y11485D01*
D02*
G37*
G36*
X18799Y11435D02*
X18489D01*
Y11125D01*
X18799D01*
Y11435D01*
D02*
G37*
G36*
X17882Y10754D02*
X17868Y10753D01*
X17844Y10743D01*
X17823Y10727D01*
X17807Y10706D01*
X17797Y10681D01*
X17795Y10668D01*
X17882D01*
Y10754D01*
D02*
G37*
G36*
X15049Y11367D02*
X14958D01*
X14960Y11352D01*
X14970Y11326D01*
X14987Y11304D01*
X15009Y11287D01*
X15035Y11277D01*
X15049Y11275D01*
Y11367D01*
D02*
G37*
G36*
X16154Y10480D02*
Y10388D01*
X16246D01*
X16244Y10403D01*
X16233Y10428D01*
X16217Y10450D01*
X16195Y10467D01*
X16169Y10478D01*
X16154Y10480D01*
D02*
G37*
G36*
X18012Y9478D02*
X17920D01*
Y9385D01*
X18012D01*
Y9478D01*
D02*
G37*
G36*
X15021Y9552D02*
X15004Y9551D01*
X14974Y9542D01*
X14947Y9528D01*
X14924Y9508D01*
X14904Y9485D01*
X14890Y9458D01*
X14881Y9428D01*
X14880Y9411D01*
X15021D01*
Y9552D01*
D02*
G37*
G36*
X16116Y9477D02*
X16102Y9475D01*
X16076Y9464D01*
X16054Y9447D01*
X16037Y9426D01*
X16027Y9400D01*
X16025Y9385D01*
X16116D01*
Y9477D01*
D02*
G37*
G36*
X18012Y9360D02*
X17920D01*
Y9268D01*
X18012D01*
Y9360D01*
D02*
G37*
G36*
X16116D02*
X16025D01*
X16027Y9345D01*
X16037Y9320D01*
X16054Y9298D01*
X16076Y9281D01*
X16102Y9270D01*
X16116Y9268D01*
Y9360D01*
D02*
G37*
G36*
X18740Y9761D02*
X18522D01*
Y9543D01*
X18740D01*
Y9761D01*
D02*
G37*
G36*
X19126Y9639D02*
X19031D01*
X19033Y9624D01*
X19044Y9597D01*
X19061Y9574D01*
X19084Y9557D01*
X19111Y9546D01*
X19126Y9544D01*
Y9639D01*
D02*
G37*
G36*
X12138Y9565D02*
Y9423D01*
X12280D01*
X12278Y9441D01*
X12270Y9470D01*
X12255Y9497D01*
X12236Y9521D01*
X12212Y9540D01*
X12185Y9555D01*
X12156Y9563D01*
X12138Y9565D01*
D02*
G37*
G36*
X15047Y9552D02*
Y9411D01*
X15188D01*
X15187Y9428D01*
X15178Y9458D01*
X15164Y9485D01*
X15144Y9508D01*
X15121Y9528D01*
X15094Y9542D01*
X15064Y9551D01*
X15047Y9552D01*
D02*
G37*
G36*
X12113Y9565D02*
X12095Y9563D01*
X12066Y9555D01*
X12039Y9540D01*
X12016Y9521D01*
X11996Y9497D01*
X11982Y9470D01*
X11973Y9441D01*
X11971Y9423D01*
X12113D01*
Y9565D01*
D02*
G37*
G36*
X14839Y9553D02*
X14529D01*
Y9243D01*
X14839D01*
Y9553D01*
D02*
G37*
G36*
X15021Y9385D02*
X14880D01*
X14881Y9368D01*
X14890Y9338D01*
X14904Y9311D01*
X14924Y9288D01*
X14947Y9268D01*
X14974Y9254D01*
X15004Y9245D01*
X15021Y9244D01*
Y9385D01*
D02*
G37*
G36*
X12979Y9767D02*
X12924Y9762D01*
X12869Y9749D01*
X12818Y9728D01*
X12770Y9699D01*
X12728Y9662D01*
X12691Y9620D01*
X12662Y9572D01*
X12641Y9521D01*
X12628Y9466D01*
X12623Y9411D01*
X12628Y9355D01*
X12641Y9301D01*
X12662Y9249D01*
X12691Y9201D01*
X12728Y9159D01*
X12770Y9123D01*
X12818Y9093D01*
X12869Y9072D01*
X12924Y9059D01*
X12979Y9055D01*
X13035Y9059D01*
X13089Y9072D01*
X13141Y9093D01*
X13189Y9123D01*
X13231Y9159D01*
X13267Y9201D01*
X13297Y9249D01*
X13318Y9301D01*
X13331Y9355D01*
X13335Y9411D01*
X13331Y9466D01*
X13318Y9521D01*
X13297Y9572D01*
X13267Y9620D01*
X13231Y9662D01*
X13189Y9699D01*
X13141Y9728D01*
X13089Y9749D01*
X13035Y9762D01*
X12979Y9767D01*
D02*
G37*
G36*
X17005Y8969D02*
X16991Y8967D01*
X16965Y8956D01*
X16943Y8939D01*
X16926Y8918D01*
X16916Y8892D01*
X16914Y8877D01*
X17005D01*
Y8969D01*
D02*
G37*
G36*
X17031D02*
Y8877D01*
X17122D01*
X17120Y8892D01*
X17110Y8918D01*
X17093Y8939D01*
X17071Y8956D01*
X17045Y8967D01*
X17031Y8969D01*
D02*
G37*
G36*
X12280Y9398D02*
X12138D01*
Y9256D01*
X12156Y9258D01*
X12185Y9267D01*
X12212Y9281D01*
X12236Y9301D01*
X12255Y9324D01*
X12270Y9351D01*
X12278Y9380D01*
X12280Y9398D01*
D02*
G37*
G36*
X16891Y9479D02*
X16864Y9475D01*
X16838Y9464D01*
X16816Y9447D01*
X16799Y9426D01*
X16789Y9400D01*
X16785Y9373D01*
X16789Y9345D01*
X16799Y9320D01*
X16816Y9298D01*
X16838Y9281D01*
X16864Y9270D01*
X16891Y9267D01*
X16918Y9270D01*
X16944Y9281D01*
X16966Y9298D01*
X16983Y9320D01*
X16993Y9345D01*
X16997Y9373D01*
X16993Y9400D01*
X16983Y9426D01*
X16966Y9447D01*
X16944Y9464D01*
X16918Y9475D01*
X16891Y9479D01*
D02*
G37*
G36*
X12113Y9398D02*
X11971D01*
X11973Y9380D01*
X11982Y9351D01*
X11996Y9324D01*
X12016Y9301D01*
X12039Y9281D01*
X12066Y9267D01*
X12095Y9258D01*
X12113Y9256D01*
Y9398D01*
D02*
G37*
G36*
X15188Y9385D02*
X15047D01*
Y9244D01*
X15064Y9245D01*
X15094Y9254D01*
X15121Y9268D01*
X15144Y9288D01*
X15164Y9311D01*
X15178Y9338D01*
X15187Y9368D01*
X15188Y9385D01*
D02*
G37*
G36*
X11840Y10811D02*
X11630D01*
Y10601D01*
X11639D01*
Y10180D01*
X11613D01*
Y9962D01*
X11626D01*
Y9566D01*
X11621D01*
Y9256D01*
X11931D01*
Y9566D01*
X11818D01*
Y9962D01*
X11831D01*
Y10180D01*
X11831D01*
Y10601D01*
X11840D01*
Y10811D01*
D02*
G37*
G36*
X16370Y10363D02*
X16279D01*
X16281Y10348D01*
X16291Y10322D01*
X16308Y10300D01*
X16330Y10284D01*
X16356Y10273D01*
X16370Y10271D01*
Y10363D01*
D02*
G37*
G36*
X16487D02*
X16396D01*
Y10271D01*
X16410Y10273D01*
X16436Y10284D01*
X16458Y10300D01*
X16475Y10322D01*
X16485Y10348D01*
X16487Y10363D01*
D02*
G37*
G36*
X16246D02*
X16154D01*
Y10271D01*
X16169Y10273D01*
X16195Y10284D01*
X16217Y10300D01*
X16233Y10322D01*
X16244Y10348D01*
X16246Y10363D01*
D02*
G37*
G36*
X16729Y10480D02*
X16519D01*
Y10270D01*
X16729D01*
Y10480D01*
D02*
G37*
G36*
X16129Y10363D02*
X16037D01*
X16039Y10348D01*
X16050Y10322D01*
X16067Y10300D01*
X16089Y10284D01*
X16114Y10273D01*
X16129Y10271D01*
Y10363D01*
D02*
G37*
G36*
X17999D02*
X17907D01*
Y10271D01*
X17922Y10273D01*
X17947Y10284D01*
X17969Y10300D01*
X17986Y10322D01*
X17997Y10348D01*
X17999Y10363D01*
D02*
G37*
G36*
X16129Y10480D02*
X16114Y10478D01*
X16089Y10467D01*
X16067Y10450D01*
X16050Y10428D01*
X16039Y10403D01*
X16037Y10388D01*
X16129D01*
Y10480D01*
D02*
G37*
G36*
X17882Y10363D02*
X17790D01*
X17792Y10348D01*
X17803Y10322D01*
X17819Y10300D01*
X17841Y10284D01*
X17867Y10273D01*
X17882Y10271D01*
Y10363D01*
D02*
G37*
G36*
X17640D02*
X17549D01*
X17551Y10348D01*
X17561Y10322D01*
X17578Y10300D01*
X17600Y10284D01*
X17626Y10273D01*
X17640Y10271D01*
Y10363D01*
D02*
G37*
G36*
X17757D02*
X17666D01*
Y10271D01*
X17680Y10273D01*
X17706Y10284D01*
X17728Y10300D01*
X17745Y10322D01*
X17755Y10348D01*
X17757Y10363D01*
D02*
G37*
G36*
X16624Y9771D02*
X16597Y9768D01*
X16571Y9757D01*
X16549Y9740D01*
X16533Y9718D01*
X16530Y9711D01*
X16488D01*
Y9770D01*
X16278D01*
Y9591D01*
X16266Y9588D01*
X16247Y9619D01*
Y9770D01*
X16037D01*
Y9711D01*
X15995D01*
X15992Y9718D01*
X15975Y9740D01*
X15953Y9757D01*
X15928Y9768D01*
X15900Y9771D01*
X15873Y9768D01*
X15847Y9757D01*
X15826Y9740D01*
X15809Y9718D01*
X15798Y9693D01*
X15794Y9665D01*
X15798Y9638D01*
X15809Y9612D01*
X15826Y9590D01*
X15847Y9574D01*
X15873Y9563D01*
X15900Y9559D01*
X15928Y9563D01*
X15953Y9574D01*
X15975Y9590D01*
X15992Y9612D01*
X15995Y9619D01*
X16037D01*
Y9560D01*
X16176D01*
X16195Y9526D01*
X16207Y9487D01*
X16210Y9458D01*
X16198Y9452D01*
X16182Y9464D01*
X16156Y9475D01*
X16142Y9477D01*
Y9373D01*
Y9268D01*
X16156Y9270D01*
X16182Y9281D01*
X16199Y9294D01*
X16210Y9288D01*
Y8959D01*
X16203Y8956D01*
X16181Y8939D01*
X16164Y8918D01*
X16154Y8892D01*
X16150Y8865D01*
X16154Y8837D01*
X16164Y8812D01*
X16181Y8790D01*
X16203Y8773D01*
X16229Y8762D01*
X16256Y8759D01*
X16283Y8762D01*
X16309Y8773D01*
X16331Y8790D01*
X16348Y8812D01*
X16358Y8837D01*
X16362Y8865D01*
X16358Y8892D01*
X16348Y8918D01*
X16331Y8939D01*
X16309Y8956D01*
X16302Y8959D01*
Y9288D01*
X16313Y9294D01*
X16330Y9281D01*
X16356Y9270D01*
X16383Y9267D01*
X16410Y9270D01*
X16436Y9281D01*
X16458Y9298D01*
X16475Y9320D01*
X16485Y9345D01*
X16489Y9373D01*
X16485Y9400D01*
X16475Y9426D01*
X16458Y9447D01*
X16436Y9464D01*
X16429Y9467D01*
Y9560D01*
X16488D01*
Y9619D01*
X16530D01*
X16533Y9612D01*
X16549Y9590D01*
X16571Y9574D01*
X16597Y9563D01*
X16624Y9559D01*
X16652Y9563D01*
X16677Y9574D01*
X16699Y9590D01*
X16716Y9612D01*
X16727Y9638D01*
X16730Y9665D01*
X16727Y9693D01*
X16716Y9718D01*
X16699Y9740D01*
X16677Y9757D01*
X16652Y9768D01*
X16624Y9771D01*
D02*
G37*
G36*
X12217Y10058D02*
X12122D01*
X12124Y10043D01*
X12135Y10016D01*
X12153Y9994D01*
X12175Y9976D01*
X12202Y9965D01*
X12217Y9963D01*
Y10058D01*
D02*
G37*
G36*
X19152Y9760D02*
Y9665D01*
X19247D01*
X19245Y9680D01*
X19234Y9707D01*
X19216Y9730D01*
X19194Y9747D01*
X19167Y9758D01*
X19152Y9760D01*
D02*
G37*
G36*
X19247Y9639D02*
X19152D01*
Y9544D01*
X19167Y9546D01*
X19194Y9557D01*
X19216Y9574D01*
X19234Y9597D01*
X19245Y9624D01*
X19247Y9639D01*
D02*
G37*
G36*
X19126Y9760D02*
X19111Y9758D01*
X19084Y9747D01*
X19061Y9730D01*
X19044Y9707D01*
X19033Y9680D01*
X19031Y9665D01*
X19126D01*
Y9760D01*
D02*
G37*
G36*
X18885Y10808D02*
X18829Y10804D01*
X18775Y10791D01*
X18723Y10769D01*
X18676Y10740D01*
X18633Y10704D01*
X18597Y10661D01*
X18568Y10614D01*
X18546Y10562D01*
X18533Y10508D01*
X18529Y10452D01*
X18533Y10396D01*
X18546Y10342D01*
X18568Y10290D01*
X18597Y10243D01*
X18633Y10200D01*
X18676Y10164D01*
X18723Y10135D01*
X18775Y10113D01*
X18829Y10100D01*
X18885Y10096D01*
X18941Y10100D01*
X18995Y10113D01*
X19047Y10135D01*
X19094Y10164D01*
X19137Y10200D01*
X19173Y10243D01*
X19202Y10290D01*
X19224Y10342D01*
X19237Y10396D01*
X19241Y10452D01*
X19237Y10508D01*
X19224Y10562D01*
X19202Y10614D01*
X19173Y10661D01*
X19137Y10704D01*
X19094Y10740D01*
X19047Y10769D01*
X18995Y10791D01*
X18941Y10804D01*
X18885Y10808D01*
D02*
G37*
G36*
X16005Y10480D02*
X15795D01*
Y10270D01*
X16005D01*
Y10480D01*
D02*
G37*
G36*
X12243Y10179D02*
Y10084D01*
X12338D01*
X12336Y10099D01*
X12325Y10126D01*
X12308Y10149D01*
X12285Y10166D01*
X12258Y10177D01*
X12243Y10179D01*
D02*
G37*
G36*
X12338Y10058D02*
X12243D01*
Y9963D01*
X12258Y9965D01*
X12285Y9976D01*
X12308Y9994D01*
X12325Y10016D01*
X12336Y10043D01*
X12338Y10058D01*
D02*
G37*
G36*
X12217Y10179D02*
X12202Y10177D01*
X12175Y10166D01*
X12153Y10149D01*
X12135Y10126D01*
X12124Y10099D01*
X12122Y10084D01*
X12217D01*
Y10179D01*
D02*
G37*
G36*
X18798Y11618D02*
X18656D01*
Y11476D01*
X18674Y11478D01*
X18703Y11487D01*
X18730Y11501D01*
X18754Y11520D01*
X18773Y11544D01*
X18787Y11571D01*
X18796Y11600D01*
X18798Y11618D01*
D02*
G37*
G36*
X14214Y13208D02*
X14122D01*
Y13116D01*
X14137Y13118D01*
X14163Y13129D01*
X14185Y13146D01*
X14201Y13168D01*
X14212Y13193D01*
X14214Y13208D01*
D02*
G37*
G36*
X11915Y13352D02*
X11888Y13348D01*
X11862Y13338D01*
X11840Y13321D01*
X11824Y13299D01*
X11813Y13274D01*
X11809Y13246D01*
X11813Y13219D01*
X11824Y13193D01*
X11840Y13171D01*
X11862Y13154D01*
X11888Y13144D01*
X11915Y13140D01*
X11943Y13144D01*
X11968Y13154D01*
X11990Y13171D01*
X12007Y13193D01*
X12018Y13219D01*
X12021Y13246D01*
X12018Y13274D01*
X12007Y13299D01*
X11990Y13321D01*
X11968Y13338D01*
X11943Y13348D01*
X11915Y13352D01*
D02*
G37*
G36*
X14097Y13208D02*
X14005D01*
X14007Y13193D01*
X14018Y13168D01*
X14035Y13146D01*
X14057Y13129D01*
X14082Y13118D01*
X14097Y13116D01*
Y13208D01*
D02*
G37*
G36*
X13767D02*
X13675D01*
X13677Y13193D01*
X13688Y13168D01*
X13705Y13146D01*
X13727Y13129D01*
X13752Y13118D01*
X13767Y13116D01*
Y13208D01*
D02*
G37*
G36*
X13884D02*
X13792D01*
Y13116D01*
X13807Y13118D01*
X13832Y13129D01*
X13854Y13146D01*
X13871Y13168D01*
X13882Y13193D01*
X13884Y13208D01*
D02*
G37*
G36*
X13106Y13325D02*
X13092Y13323D01*
X13066Y13312D01*
X13044Y13296D01*
X13027Y13274D01*
X13017Y13248D01*
X13015Y13233D01*
X13106D01*
Y13325D01*
D02*
G37*
G36*
X13132D02*
Y13233D01*
X13223D01*
X13221Y13248D01*
X13211Y13274D01*
X13194Y13296D01*
X13172Y13312D01*
X13147Y13323D01*
X13132Y13325D01*
D02*
G37*
G36*
X16554Y13338D02*
X16344D01*
Y13203D01*
X16318Y13189D01*
X16279Y13177D01*
X16240Y13173D01*
X16238Y13174D01*
X16103D01*
X16095Y13183D01*
X16097Y13193D01*
X16093Y13211D01*
X16084Y13225D01*
X16093Y13239D01*
X16094Y13245D01*
X15797D01*
X15798Y13239D01*
X15808Y13225D01*
X15798Y13211D01*
X15795Y13193D01*
X15798Y13174D01*
X15808Y13160D01*
X15798Y13146D01*
X15795Y13128D01*
X15798Y13109D01*
X15808Y13095D01*
X15798Y13081D01*
X15795Y13063D01*
X15798Y13044D01*
X15808Y13030D01*
X15798Y13016D01*
X15797Y13010D01*
X16097D01*
X16103Y13017D01*
X16248D01*
X16250Y13017D01*
X16289Y13013D01*
X16328Y13002D01*
X16344Y12993D01*
Y12862D01*
X16554D01*
Y13072D01*
X16391D01*
X16384Y13076D01*
X16348Y13091D01*
Y13104D01*
X16375Y13114D01*
X16397Y13128D01*
X16554D01*
Y13338D01*
D02*
G37*
G36*
X12157Y13233D02*
X12065D01*
X12067Y13219D01*
X12078Y13193D01*
X12094Y13171D01*
X12116Y13154D01*
X12142Y13144D01*
X12157Y13142D01*
Y13233D01*
D02*
G37*
G36*
X12274D02*
X12182D01*
Y13142D01*
X12197Y13144D01*
X12222Y13154D01*
X12244Y13171D01*
X12261Y13193D01*
X12272Y13219D01*
X12274Y13233D01*
D02*
G37*
G36*
X12157Y13050D02*
X12142Y13048D01*
X12116Y13037D01*
X12094Y13020D01*
X12078Y12998D01*
X12067Y12973D01*
X12065Y12958D01*
X12157D01*
Y13050D01*
D02*
G37*
G36*
X12182D02*
Y12958D01*
X12274D01*
X12272Y12973D01*
X12261Y12998D01*
X12244Y13020D01*
X12222Y13037D01*
X12197Y13048D01*
X12182Y13050D01*
D02*
G37*
G36*
X17641Y13021D02*
X17539D01*
Y12954D01*
X17641D01*
Y13021D01*
D02*
G37*
G36*
X17911Y12954D02*
X17831D01*
Y12874D01*
X17843Y12876D01*
X17865Y12885D01*
X17885Y12900D01*
X17900Y12920D01*
X17909Y12942D01*
X17911Y12954D01*
D02*
G37*
G36*
X17513Y13021D02*
X17411D01*
Y12954D01*
X17513D01*
Y13021D01*
D02*
G37*
G36*
X13223Y13208D02*
X13132D01*
Y13116D01*
X13147Y13118D01*
X13172Y13129D01*
X13194Y13146D01*
X13211Y13168D01*
X13221Y13193D01*
X13223Y13208D01*
D02*
G37*
G36*
X13554D02*
X13462D01*
Y13116D01*
X13477Y13118D01*
X13502Y13129D01*
X13524Y13146D01*
X13541Y13168D01*
X13552Y13193D01*
X13554Y13208D01*
D02*
G37*
G36*
X13106D02*
X13015D01*
X13017Y13193D01*
X13027Y13168D01*
X13044Y13146D01*
X13066Y13129D01*
X13092Y13118D01*
X13106Y13116D01*
Y13208D01*
D02*
G37*
G36*
X17805Y13059D02*
X17794Y13058D01*
X17771Y13048D01*
X17751Y13033D01*
X17736Y13014D01*
X17727Y12991D01*
X17725Y12979D01*
X17805D01*
Y13059D01*
D02*
G37*
G36*
X17831D02*
Y12979D01*
X17911D01*
X17909Y12991D01*
X17900Y13014D01*
X17885Y13033D01*
X17865Y13048D01*
X17843Y13058D01*
X17831Y13059D01*
D02*
G37*
G36*
X13119Y13581D02*
X13092Y13577D01*
X13066Y13566D01*
X13044Y13550D01*
X13027Y13528D01*
X13017Y13502D01*
X13013Y13475D01*
X13017Y13447D01*
X13027Y13422D01*
X13044Y13400D01*
X13066Y13383D01*
X13092Y13372D01*
X13119Y13369D01*
X13147Y13372D01*
X13172Y13383D01*
X13194Y13400D01*
X13211Y13422D01*
X13221Y13447D01*
X13225Y13475D01*
X13221Y13502D01*
X13211Y13528D01*
X13194Y13550D01*
X13172Y13566D01*
X13147Y13577D01*
X13119Y13581D01*
D02*
G37*
G36*
X18565Y13529D02*
X18472D01*
Y13437D01*
X18565D01*
Y13529D01*
D02*
G37*
G36*
X17593Y13437D02*
X17513D01*
Y13357D01*
X17525Y13358D01*
X17548Y13368D01*
X17567Y13383D01*
X17582Y13402D01*
X17592Y13425D01*
X17593Y13437D01*
D02*
G37*
G36*
X12932Y13446D02*
X12840D01*
Y13354D01*
X12932D01*
Y13446D01*
D02*
G37*
G36*
X17488Y13437D02*
X17408D01*
X17410Y13425D01*
X17419Y13402D01*
X17434Y13383D01*
X17453Y13368D01*
X17476Y13358D01*
X17488Y13357D01*
Y13437D01*
D02*
G37*
G36*
X12814Y13564D02*
X12722D01*
Y13472D01*
X12814D01*
Y13564D01*
D02*
G37*
G36*
X12932D02*
X12840D01*
Y13472D01*
X12932D01*
Y13564D01*
D02*
G37*
G36*
X17513Y13542D02*
Y13462D01*
X17593D01*
X17592Y13474D01*
X17582Y13496D01*
X17567Y13516D01*
X17548Y13531D01*
X17525Y13540D01*
X17513Y13542D01*
D02*
G37*
G36*
X18682Y13529D02*
X18590D01*
Y13437D01*
X18682D01*
Y13529D01*
D02*
G37*
G36*
X17488Y13542D02*
X17476Y13540D01*
X17453Y13531D01*
X17434Y13516D01*
X17419Y13496D01*
X17410Y13474D01*
X17408Y13462D01*
X17488D01*
Y13542D01*
D02*
G37*
G36*
X14097Y13325D02*
X14082Y13323D01*
X14057Y13312D01*
X14035Y13296D01*
X14018Y13274D01*
X14007Y13248D01*
X14005Y13233D01*
X14097D01*
Y13325D01*
D02*
G37*
G36*
X14122D02*
Y13233D01*
X14214D01*
X14212Y13248D01*
X14201Y13274D01*
X14185Y13296D01*
X14163Y13312D01*
X14137Y13323D01*
X14122Y13325D01*
D02*
G37*
G36*
X13792D02*
Y13233D01*
X13884D01*
X13882Y13248D01*
X13871Y13274D01*
X13854Y13296D01*
X13832Y13312D01*
X13807Y13323D01*
X13792Y13325D01*
D02*
G37*
G36*
X13462D02*
Y13233D01*
X13554D01*
X13552Y13248D01*
X13541Y13274D01*
X13524Y13296D01*
X13502Y13312D01*
X13477Y13323D01*
X13462Y13325D01*
D02*
G37*
G36*
X13767D02*
X13752Y13323D01*
X13727Y13312D01*
X13705Y13296D01*
X13688Y13274D01*
X13677Y13248D01*
X13675Y13233D01*
X13767D01*
Y13325D01*
D02*
G37*
G36*
X16094Y13310D02*
X15797D01*
X15798Y13304D01*
X15808Y13290D01*
X15798Y13276D01*
X15797Y13270D01*
X16094D01*
X16093Y13276D01*
X16084Y13290D01*
X16093Y13304D01*
X16094Y13310D01*
D02*
G37*
G36*
X12814Y13446D02*
X12722D01*
Y13354D01*
X12814D01*
Y13446D01*
D02*
G37*
G36*
X14605Y13354D02*
X14589Y13352D01*
X14563Y13341D01*
X14540Y13324D01*
X14523Y13301D01*
X14512Y13274D01*
X14510Y13259D01*
X14605D01*
Y13354D01*
D02*
G37*
G36*
X12157Y13350D02*
X12142Y13348D01*
X12116Y13338D01*
X12094Y13321D01*
X12078Y13299D01*
X12067Y13274D01*
X12065Y13259D01*
X12157D01*
Y13350D01*
D02*
G37*
G36*
X12182D02*
Y13259D01*
X12274D01*
X12272Y13274D01*
X12261Y13299D01*
X12244Y13321D01*
X12222Y13338D01*
X12197Y13348D01*
X12182Y13350D01*
D02*
G37*
G36*
X15166Y11976D02*
X15075D01*
Y11885D01*
X15090Y11887D01*
X15115Y11897D01*
X15137Y11914D01*
X15154Y11936D01*
X15164Y11961D01*
X15166Y11976D01*
D02*
G37*
G36*
X15634Y11989D02*
X15511D01*
Y11901D01*
X15634D01*
Y11989D01*
D02*
G37*
G36*
X15049Y11976D02*
X14958D01*
X14960Y11961D01*
X14970Y11936D01*
X14987Y11914D01*
X15009Y11897D01*
X15035Y11887D01*
X15049Y11885D01*
Y11976D01*
D02*
G37*
G36*
X18074Y11824D02*
X17932D01*
Y11715D01*
X17955D01*
X17986Y11719D01*
X18015Y11732D01*
X18040Y11751D01*
X18060Y11776D01*
X18072Y11805D01*
X18074Y11824D01*
D02*
G37*
G36*
X12573Y11904D02*
X12471D01*
Y11836D01*
X12573D01*
Y11904D01*
D02*
G37*
G36*
X16634Y12101D02*
X16511D01*
Y12014D01*
X16634D01*
Y12101D01*
D02*
G37*
G36*
X16781D02*
X16659D01*
Y12014D01*
X16781D01*
Y12101D01*
D02*
G37*
G36*
Y11989D02*
X16659D01*
Y11901D01*
X16781D01*
Y11989D01*
D02*
G37*
G36*
X15781D02*
X15659D01*
Y11901D01*
X15781D01*
Y11989D01*
D02*
G37*
G36*
X16634D02*
X16511D01*
Y11901D01*
X16634D01*
Y11989D01*
D02*
G37*
G36*
X18631Y11785D02*
X18613Y11783D01*
X18584Y11774D01*
X18557Y11760D01*
X18533Y11741D01*
X18514Y11717D01*
X18500Y11690D01*
X18491Y11661D01*
X18489Y11643D01*
X18631D01*
Y11785D01*
D02*
G37*
G36*
X18656D02*
Y11643D01*
X18798D01*
X18796Y11661D01*
X18787Y11690D01*
X18773Y11717D01*
X18754Y11741D01*
X18730Y11760D01*
X18703Y11774D01*
X18674Y11783D01*
X18656Y11785D01*
D02*
G37*
G36*
X11843Y11621D02*
X11747D01*
Y11525D01*
X11763Y11527D01*
X11790Y11538D01*
X11812Y11556D01*
X11830Y11578D01*
X11841Y11605D01*
X11843Y11621D01*
D02*
G37*
G36*
X14568Y11544D02*
X14465D01*
Y11477D01*
X14568D01*
Y11544D01*
D02*
G37*
G36*
X11722Y11621D02*
X11627D01*
X11629Y11605D01*
X11640Y11578D01*
X11657Y11556D01*
X11680Y11538D01*
X11706Y11527D01*
X11722Y11525D01*
Y11621D01*
D02*
G37*
G36*
X15075Y11788D02*
Y11697D01*
X15166D01*
X15164Y11711D01*
X15154Y11737D01*
X15137Y11759D01*
X15115Y11776D01*
X15090Y11786D01*
X15075Y11788D01*
D02*
G37*
G36*
X17907Y11824D02*
X17765D01*
X17768Y11805D01*
X17780Y11776D01*
X17799Y11751D01*
X17824Y11732D01*
X17853Y11719D01*
X17885Y11715D01*
X17907D01*
Y11824D01*
D02*
G37*
G36*
X15049Y11788D02*
X15035Y11786D01*
X15009Y11776D01*
X14987Y11759D01*
X14970Y11737D01*
X14960Y11711D01*
X14958Y11697D01*
X15049D01*
Y11788D01*
D02*
G37*
G36*
X11722Y11741D02*
X11706Y11739D01*
X11680Y11728D01*
X11657Y11711D01*
X11640Y11688D01*
X11629Y11662D01*
X11627Y11646D01*
X11722D01*
Y11741D01*
D02*
G37*
G36*
X11747D02*
Y11646D01*
X11843D01*
X11841Y11662D01*
X11830Y11688D01*
X11812Y11711D01*
X11790Y11728D01*
X11763Y11739D01*
X11747Y11741D01*
D02*
G37*
G36*
X12157Y12749D02*
X12142Y12747D01*
X12116Y12737D01*
X12094Y12720D01*
X12078Y12698D01*
X12067Y12672D01*
X12065Y12658D01*
X12157D01*
Y12749D01*
D02*
G37*
G36*
X12182D02*
Y12658D01*
X12274D01*
X12272Y12672D01*
X12261Y12698D01*
X12244Y12720D01*
X12222Y12737D01*
X12197Y12747D01*
X12182Y12749D01*
D02*
G37*
G36*
X12274Y12632D02*
X12182D01*
Y12541D01*
X12197Y12543D01*
X12222Y12553D01*
X12244Y12570D01*
X12261Y12592D01*
X12272Y12618D01*
X12274Y12632D01*
D02*
G37*
G36*
X11915Y12751D02*
X11888Y12747D01*
X11862Y12737D01*
X11840Y12720D01*
X11824Y12698D01*
X11813Y12672D01*
X11809Y12645D01*
X11813Y12618D01*
X11824Y12592D01*
X11840Y12570D01*
X11862Y12553D01*
X11888Y12543D01*
X11915Y12539D01*
X11943Y12543D01*
X11968Y12553D01*
X11990Y12570D01*
X12007Y12592D01*
X12018Y12618D01*
X12021Y12645D01*
X12018Y12672D01*
X12007Y12698D01*
X11990Y12720D01*
X11968Y12737D01*
X11943Y12747D01*
X11915Y12751D01*
D02*
G37*
G36*
X12157Y12632D02*
X12065D01*
X12067Y12618D01*
X12078Y12592D01*
X12094Y12570D01*
X12116Y12553D01*
X12142Y12543D01*
X12157Y12541D01*
Y12632D01*
D02*
G37*
G36*
X12274Y12933D02*
X12182D01*
Y12841D01*
X12197Y12843D01*
X12222Y12854D01*
X12244Y12871D01*
X12261Y12893D01*
X12272Y12918D01*
X12274Y12933D01*
D02*
G37*
G36*
X17805Y12954D02*
X17725D01*
X17727Y12942D01*
X17736Y12920D01*
X17751Y12900D01*
X17771Y12885D01*
X17794Y12876D01*
X17805Y12874D01*
Y12954D01*
D02*
G37*
G36*
X12157Y12933D02*
X12065D01*
X12067Y12918D01*
X12078Y12893D01*
X12094Y12871D01*
X12116Y12854D01*
X12142Y12843D01*
X12157Y12841D01*
Y12933D01*
D02*
G37*
G36*
X15394Y13050D02*
X15097D01*
X15098Y13044D01*
X15108Y13030D01*
X15098Y13016D01*
X15095Y12998D01*
X15098Y12979D01*
X15108Y12965D01*
X15098Y12951D01*
X15095Y12933D01*
X15098Y12914D01*
X15108Y12900D01*
X15098Y12886D01*
X15095Y12868D01*
X15098Y12849D01*
X15108Y12835D01*
X15098Y12821D01*
X15095Y12803D01*
X15098Y12784D01*
X15108Y12770D01*
X15098Y12756D01*
X15095Y12738D01*
X15098Y12719D01*
X15108Y12705D01*
X15098Y12691D01*
X15095Y12673D01*
X15098Y12654D01*
X15108Y12640D01*
X15098Y12626D01*
X15095Y12608D01*
X15098Y12589D01*
X15109Y12573D01*
X15125Y12563D01*
X15143Y12559D01*
X15257D01*
X15258Y12556D01*
X15250Y12546D01*
X15214Y12542D01*
X15212Y12543D01*
X15048D01*
X15045Y12542D01*
X14998Y12547D01*
X14949Y12562D01*
X14942Y12565D01*
Y12694D01*
X14725D01*
Y12477D01*
X14918D01*
X14940Y12468D01*
X14994Y12455D01*
X15048Y12451D01*
Y12451D01*
X15212D01*
X15212Y12451D01*
Y12451D01*
X15263Y12455D01*
X15313Y12467D01*
X15361Y12487D01*
X15405Y12514D01*
X15444Y12547D01*
X15444Y12547D01*
X15723Y12826D01*
X15724Y12828D01*
X15754Y12852D01*
X15784Y12868D01*
X15796Y12863D01*
X15798Y12849D01*
X15808Y12835D01*
X15798Y12821D01*
X15797Y12815D01*
X16094D01*
X16093Y12821D01*
X16084Y12835D01*
X16093Y12849D01*
X16097Y12868D01*
X16093Y12886D01*
X16084Y12900D01*
X16093Y12914D01*
X16097Y12933D01*
X16093Y12951D01*
X16084Y12965D01*
X16093Y12979D01*
X16094Y12985D01*
X15797D01*
X15798Y12979D01*
X15794Y12968D01*
X15777Y12964D01*
X15734Y12946D01*
X15694Y12921D01*
X15658Y12891D01*
X15658Y12891D01*
X15400Y12633D01*
X15392Y12634D01*
X15387Y12645D01*
X15393Y12654D01*
X15397Y12673D01*
X15393Y12691D01*
X15384Y12705D01*
X15393Y12719D01*
X15397Y12738D01*
X15393Y12756D01*
X15384Y12770D01*
X15393Y12784D01*
X15397Y12803D01*
X15393Y12821D01*
X15384Y12835D01*
X15393Y12849D01*
X15397Y12868D01*
X15393Y12886D01*
X15384Y12900D01*
X15393Y12914D01*
X15397Y12933D01*
X15393Y12951D01*
X15384Y12965D01*
X15393Y12979D01*
X15397Y12998D01*
X15393Y13016D01*
X15384Y13030D01*
X15393Y13044D01*
X15394Y13050D01*
D02*
G37*
G36*
X11915Y13051D02*
X11888Y13048D01*
X11862Y13037D01*
X11840Y13020D01*
X11824Y12998D01*
X11813Y12973D01*
X11809Y12946D01*
X11813Y12918D01*
X11824Y12893D01*
X11840Y12871D01*
X11862Y12854D01*
X11888Y12843D01*
X11915Y12840D01*
X11943Y12843D01*
X11968Y12854D01*
X11990Y12871D01*
X12007Y12893D01*
X12018Y12918D01*
X12021Y12946D01*
X12018Y12973D01*
X12007Y12998D01*
X11990Y13020D01*
X11968Y13037D01*
X11943Y13048D01*
X11915Y13051D01*
D02*
G37*
G36*
X12157Y12332D02*
X12065D01*
X12067Y12317D01*
X12078Y12291D01*
X12094Y12270D01*
X12116Y12253D01*
X12142Y12242D01*
X12157Y12240D01*
Y12332D01*
D02*
G37*
G36*
X12274D02*
X12182D01*
Y12240D01*
X12197Y12242D01*
X12222Y12253D01*
X12244Y12270D01*
X12261Y12291D01*
X12272Y12317D01*
X12274Y12332D01*
D02*
G37*
G36*
X11915Y12450D02*
X11888Y12447D01*
X11862Y12436D01*
X11840Y12419D01*
X11824Y12397D01*
X11813Y12372D01*
X11809Y12344D01*
X11813Y12317D01*
X11824Y12291D01*
X11840Y12270D01*
X11862Y12253D01*
X11888Y12242D01*
X11915Y12238D01*
X11943Y12242D01*
X11968Y12253D01*
X11990Y12270D01*
X12007Y12291D01*
X12018Y12317D01*
X12021Y12344D01*
X12018Y12372D01*
X12007Y12397D01*
X11990Y12419D01*
X11968Y12436D01*
X11943Y12447D01*
X11915Y12450D01*
D02*
G37*
G36*
X16954Y12319D02*
X16863D01*
X16865Y12304D01*
X16875Y12279D01*
X16892Y12257D01*
X16914Y12240D01*
X16940Y12229D01*
X16954Y12227D01*
Y12319D01*
D02*
G37*
G36*
X17071D02*
X16980D01*
Y12227D01*
X16995Y12229D01*
X17020Y12240D01*
X17042Y12257D01*
X17059Y12279D01*
X17069Y12304D01*
X17071Y12319D01*
D02*
G37*
G36*
X12182Y12449D02*
Y12357D01*
X12274D01*
X12272Y12372D01*
X12261Y12397D01*
X12244Y12419D01*
X12222Y12436D01*
X12197Y12447D01*
X12182Y12449D01*
D02*
G37*
G36*
X14688Y12573D02*
X14592D01*
Y12478D01*
X14608Y12480D01*
X14634Y12491D01*
X14657Y12508D01*
X14675Y12531D01*
X14686Y12557D01*
X14688Y12573D01*
D02*
G37*
G36*
X12157Y12449D02*
X12142Y12447D01*
X12116Y12436D01*
X12094Y12419D01*
X12078Y12397D01*
X12067Y12372D01*
X12065Y12357D01*
X12157D01*
Y12449D01*
D02*
G37*
G36*
X16954Y12436D02*
X16940Y12434D01*
X16914Y12423D01*
X16892Y12407D01*
X16875Y12385D01*
X16865Y12359D01*
X16863Y12344D01*
X16954D01*
Y12436D01*
D02*
G37*
G36*
X16980D02*
Y12344D01*
X17071D01*
X17069Y12359D01*
X17059Y12385D01*
X17042Y12407D01*
X17020Y12423D01*
X16995Y12434D01*
X16980Y12436D01*
D02*
G37*
%LPD*%
D10*
X14834Y12586D02*
G03*
X15048Y12497I215J215D01*
G01*
X15870Y12933D02*
G03*
X15690Y12858I0J-254D01*
G01*
X15212Y12497D02*
G03*
X15412Y12580I0J283D01*
G01*
X13049Y11651D02*
G03*
X12592Y11461I0J-647D01*
G01*
X12063Y10933D02*
G03*
X11989Y10753I180J-180D01*
G01*
X18000Y12010D02*
G03*
X18252Y11906I252J252D01*
G01*
X17920Y12090D02*
G03*
X17893Y12155I-92J0D01*
G01*
X18943Y11906D02*
G03*
X19154Y12117I0J211D01*
G01*
X17625Y12423D02*
G03*
X17539Y12459I-87J-87D01*
G01*
X14438Y11737D02*
G03*
X14258Y11811I-180J-180D01*
G01*
X13049Y11731D02*
G03*
X13768Y11978I0J1171D01*
G01*
X13614Y12376D02*
G03*
X14179Y11811I565J0D01*
G01*
X14207Y13515D02*
G03*
X14110Y13475I0J-138D01*
G01*
X14186Y10630D02*
G03*
X14033Y10693I-153J-153D01*
G01*
X17399Y9372D02*
G03*
X17327Y9546I-246J0D01*
G01*
X17272Y9373D02*
G03*
X17207Y9530I-223J0D01*
G01*
X16804Y9539D02*
G03*
X16878Y9719I-180J180D01*
G01*
X13214Y10450D02*
G03*
X13419Y9955I700J0D01*
G01*
X13294Y10341D02*
G03*
X13369Y10161I254J0D01*
G01*
X13522Y10408D02*
G03*
X13660Y10478I-37J245D01*
G01*
X13374Y10516D02*
G03*
X13484Y10406I110J0D01*
G01*
X14063Y10338D02*
G03*
X13958Y10294I0J-148D01*
G01*
X14063Y10338D02*
G03*
X14186Y10389I0J173D01*
G01*
D02*
G03*
X14211Y10450I-61J61D01*
G01*
Y10569D02*
G03*
X14186Y10630I-87J0D01*
G01*
X13602Y10732D02*
G03*
X13694Y10693I92J92D01*
G01*
X13534Y10894D02*
G03*
X13602Y10732I230J0D01*
G01*
X13694Y11146D02*
G03*
X13843Y10998I149J0D01*
G01*
X16256Y9446D02*
G03*
X16182Y9625I-254J0D01*
G01*
X17854D02*
G03*
X17780Y9446I180J-180D01*
G01*
X13454Y10546D02*
G03*
X13484Y10516I30J0D01*
G01*
X13614Y10947D02*
G03*
X13640Y10922I25J0D01*
G01*
X13934Y11312D02*
G03*
X13868Y11379I-66J0D01*
G01*
X19154Y13069D02*
G03*
X18958Y13266I-196J0D01*
G01*
X17100Y13339D02*
G03*
X16674Y13515I-426J-426D01*
G01*
X16238Y13128D02*
G03*
X16418Y13202I0J254D01*
G01*
X16428Y12988D02*
G03*
X16248Y13063I-180J-180D01*
G01*
X14068Y12506D02*
G03*
X14014Y12376I130J-130D01*
G01*
X15166Y13453D02*
G03*
X14908Y13345I0J-366D01*
G01*
X15418Y13515D02*
G03*
X15411Y13508I0J-7D01*
G01*
X13294Y12686D02*
G03*
X13220Y12866I-254J0D01*
G01*
X13331Y12869D02*
G03*
X13392Y12807I61J0D01*
G01*
X13404Y13429D02*
G03*
X13329Y13249I180J-180D01*
G01*
X13694Y12616D02*
G03*
X13620Y12796I-254J0D01*
G01*
X14092Y12949D02*
G03*
X13854Y12376I573J-573D01*
G01*
X12827Y12706D02*
G03*
X12901Y12526I254J0D01*
G01*
X13404Y12244D02*
G03*
X13447Y12286I0J42D01*
G01*
X14596Y11897D02*
G03*
X14416Y11971I-180J-180D01*
G01*
X14323Y11671D02*
G03*
X14437Y11557I114J0D01*
G01*
X14323Y11671D02*
G03*
X14263Y11731I-60J0D01*
G01*
X14656Y11637D02*
G03*
X14402Y11891I-254J0D01*
G01*
X16214Y12211D02*
G03*
X16426Y12299I0J300D01*
G01*
X16229Y12131D02*
G03*
X16713Y12332I0J685D01*
G01*
X12760Y11731D02*
G03*
X12586Y11659I0J-247D01*
G01*
X13934Y12376D02*
G03*
X13932Y12374I0J-3D01*
G01*
X15168Y13193D02*
G03*
X14870Y13070I0J-420D01*
G01*
X13932Y12281D02*
G03*
X13969Y12244I37J0D01*
G01*
X13543Y12657D02*
G03*
X13392Y12807I-151J0D01*
G01*
X13614Y12532D02*
G03*
X13576Y12624I-130J0D01*
G01*
X16810Y8793D02*
G03*
X16989Y8719I180J180D01*
G01*
X17783D02*
G03*
X17962Y8793I0J254D01*
G01*
X18093Y8923D02*
G03*
X18268Y9347I-424J424D01*
G01*
X16616Y8733D02*
G03*
X16795Y8659I180J180D01*
G01*
X17807D02*
G03*
X17988Y8734I0J256D01*
G01*
X14111Y11571D02*
G03*
X14034Y11493I0J-77D01*
G01*
X18143Y8889D02*
G03*
X18339Y9362I-473J473D01*
G01*
X12787Y11981D02*
G03*
X13003Y11891I216J216D01*
G01*
X12807Y12045D02*
G03*
X12987Y11971I180J180D01*
G01*
X12543Y12422D02*
G03*
X12470Y12598I-249J0D01*
G01*
X12543Y12414D02*
G03*
X12618Y12235I254J0D01*
G01*
X12775Y12162D02*
G03*
X13044Y12051I268J268D01*
G01*
X12605Y12507D02*
G03*
X12728Y12209I422J0D01*
G01*
X12605Y12507D02*
G03*
X12423Y12946I-620J0D01*
G01*
X12817Y12205D02*
G03*
X12996Y12131I180J180D01*
G01*
X12665Y12572D02*
G03*
X12817Y12205I519J0D01*
G01*
X12665Y12663D02*
G03*
X12423Y13246I-825J0D01*
G01*
X13391Y9895D02*
G03*
X13571Y9821I180J180D01*
G01*
X13142Y10478D02*
G03*
X13375Y9914I797J0D01*
G01*
X16838Y10696D02*
G03*
X16658Y10770I-180J-180D01*
G01*
X16089Y10770D02*
G03*
X15096Y10359I0J-1404D01*
G01*
X13796Y9821D02*
G03*
X15096Y10359I0J1838D01*
G01*
X17005Y10668D02*
G03*
X16987Y10711I-61J0D01*
G01*
X17005Y9617D02*
G03*
X17080Y9437I254J0D01*
G01*
X13419Y9955D02*
G03*
X13599Y9881I180J180D01*
G01*
X16943Y10756D02*
G03*
X16763Y10830I-180J-180D01*
G01*
X16082Y10830D02*
G03*
X15058Y10406I0J-1448D01*
G01*
X13790Y9881D02*
G03*
X15058Y10406I0J1795D01*
G01*
X17132Y9710D02*
G03*
X17207Y9530I254J0D01*
G01*
X13774Y11197D02*
G03*
X13872Y11060I145J0D01*
G01*
D02*
G03*
X13919Y11052I47J137D01*
G01*
X14065Y10992D02*
G03*
X13919Y11052I-146J-146D01*
G01*
X16985Y10802D02*
G03*
X16773Y10890I-212J-212D01*
G01*
X14065Y10992D02*
G03*
X14310Y10890I245J245D01*
G01*
X14077Y11069D02*
G03*
X13966Y11115I-111J-111D01*
G01*
X17150Y10802D02*
G03*
X16793Y10950I-357J-357D01*
G01*
X14077Y11069D02*
G03*
X14362Y10950I286J286D01*
G01*
X13854Y11191D02*
G03*
X13932Y11114I77J0D01*
G01*
X18268Y10468D02*
G03*
X18194Y10648I-254J0D01*
G01*
X18194Y10648D02*
G03*
X17317Y11011I-877J-877D01*
G01*
X14014Y11246D02*
G03*
X14582Y11011I568J568D01*
G01*
X13963Y11114D02*
G03*
X13966Y11115I0J4D01*
G01*
X18339Y10453D02*
G03*
X18244Y10683I-325J0D01*
G01*
X18233Y10693D02*
G03*
X17313Y11074I-920J-920D01*
G01*
X14080Y11348D02*
G03*
X14740Y11074I660J660D01*
G01*
X17259Y10622D02*
G03*
X17209Y10744I-173J0D01*
G01*
X17247Y9732D02*
G03*
X17321Y9552I254J0D01*
G01*
X14656Y11637D02*
G03*
X14729Y11564I73J0D01*
G01*
X16695Y11551D02*
G03*
X17475Y12332I0J780D01*
G01*
X17219Y12090D02*
G03*
X17221Y12093I0J3D01*
G01*
X17453Y12459D02*
G03*
X17274Y12384I0J-254D01*
G01*
X15346Y13258D02*
G03*
X15411Y13322I0J65D01*
G01*
X15412Y12580D02*
X15690Y12858D01*
X15870Y12933D02*
X15946D01*
X18041Y12746D02*
Y13127D01*
X15048Y12497D02*
X15212D01*
X12063Y10933D02*
X12592Y11461D01*
X17920Y12090D02*
X18000Y12010D01*
X17453Y12459D02*
X17539D01*
X18252Y11906D02*
X18943D01*
X17625Y12423D02*
X17893Y12155D01*
X17625Y12423D02*
X17625Y12423D01*
X12760Y11731D02*
X13049D01*
X13047Y11729D02*
X13049Y11731D01*
X13614Y12376D02*
Y12532D01*
X14179Y11811D02*
X14258D01*
X15246Y13258D02*
X15346D01*
X14207Y13515D02*
X15418D01*
X13779Y13475D02*
X14110D01*
X17321Y9552D02*
X17327Y9546D01*
X16878Y9719D02*
Y10655D01*
X17080Y9437D02*
X17145Y9372D01*
X14034Y11394D02*
X14080Y11348D01*
X14111Y11571D02*
X14179D01*
X13214Y10450D02*
Y11246D01*
X13369Y10161D02*
X13497Y10033D01*
X13294Y10341D02*
Y11246D01*
X13660Y10478D02*
X13697Y10516D01*
X13374D02*
Y11246D01*
X13484Y10406D02*
X13522D01*
X14211Y10450D02*
Y10569D01*
X13694Y10693D02*
X14033D01*
X13697Y10033D02*
X13958Y10294D01*
X13534Y10894D02*
Y11246D01*
X13694Y11146D02*
Y11246D01*
X17272Y8865D02*
Y9373D01*
X16637Y9372D02*
X16804Y9539D01*
X16256Y8865D02*
Y9446D01*
X17780Y8865D02*
Y9446D01*
X17894Y9665D02*
X18148D01*
X17386D02*
X17653D01*
Y9372D02*
Y9665D01*
X16383Y9372D02*
Y9665D01*
X16624D01*
X15900D02*
X16142D01*
X13454Y10546D02*
Y11246D01*
X13614Y10947D02*
Y11246D01*
X13185Y11379D02*
X13868D01*
X13934Y11246D02*
Y11312D01*
X13142Y11336D02*
X13185Y11379D01*
X13142Y10478D02*
Y11336D01*
X13214Y11246D02*
X13222Y11239D01*
X13774Y11246D02*
X13782Y11239D01*
X13854Y11246D02*
X13862Y11239D01*
X13289Y11240D02*
X13294Y11246D01*
X16799Y12967D02*
X17018D01*
X16799Y13233D02*
X17018D01*
X15946Y12738D02*
X17487D01*
X13774Y12376D02*
Y12967D01*
X13447Y12368D02*
X13454Y12376D01*
X14179Y12051D02*
X14746D01*
X14179Y11411D02*
X14776D01*
X14172Y11564D02*
X14179Y11571D01*
X15946Y12673D02*
X18034D01*
X15958Y12596D02*
X18031D01*
X14776Y11411D02*
X14808Y11379D01*
X14746Y12051D02*
X14808Y11989D01*
X12827Y12906D02*
Y13109D01*
X13044Y11646D02*
X13049Y11651D01*
X12598Y11811D02*
X13049D01*
X17173Y12967D02*
Y13233D01*
X13449Y13475D02*
X13779D01*
X19154Y12117D02*
Y13069D01*
X17189Y13250D02*
X17205Y13266D01*
X17100Y13339D02*
X17189Y13250D01*
X15946Y13128D02*
X16238D01*
X15946Y13063D02*
X16248D01*
X17205Y13266D02*
X18958D01*
X15168Y13193D02*
X15246D01*
X15166Y13453D02*
X15246D01*
X14068Y12506D02*
X14908Y13345D01*
X15411Y13322D02*
Y13508D01*
X15418Y13515D02*
X16674D01*
X13294Y12376D02*
Y12686D01*
X13119Y12967D02*
X13220Y12866D01*
X13404Y13429D02*
X13449Y13475D01*
X13329Y12869D02*
Y13249D01*
X13694Y12376D02*
Y12616D01*
X13449Y12967D02*
X13620Y12796D01*
X14092Y12949D02*
X14110Y12967D01*
X12901Y12526D02*
X13184Y12244D01*
X13447Y12286D02*
Y12368D01*
X13184Y12244D02*
X13404D01*
X12586Y11659D02*
X12624D01*
X14179Y11971D02*
X14416D01*
X14596Y11897D02*
X14808Y11684D01*
X14415Y11557D02*
X14437D01*
X14453D01*
X14179Y11891D02*
X14402D01*
X14179Y12211D02*
X16214D01*
X16426Y12299D02*
X16459Y12332D01*
X14179Y12131D02*
X16229D01*
X16713Y12332D02*
X16713Y12332D01*
X13534Y12376D02*
Y12462D01*
X13411Y12586D02*
X13534Y12462D01*
X13576Y12624D02*
Y12663D01*
X13969Y12244D02*
X14044D01*
X14870Y13070D01*
X13934Y12376D02*
X13942Y12368D01*
X13932Y12281D02*
Y12374D01*
X14063Y10338D02*
X14063D01*
X16764Y8839D02*
X16810Y8793D01*
X16989Y8719D02*
X17783D01*
X17962Y8793D02*
X18093Y8923D01*
X16510Y8839D02*
X16616Y8733D01*
X17988Y8734D02*
X18143Y8889D01*
X14034Y11394D02*
Y11493D01*
X16795Y8659D02*
X17807D01*
X18339Y9360D02*
Y10453D01*
X13003Y11891D02*
X13049D01*
X12423Y12344D02*
X12787Y11981D01*
X13021Y11971D02*
X13049D01*
X12543Y12414D02*
Y12422D01*
X12423Y12645D02*
X12470Y12598D01*
X12618Y12235D02*
X12807Y12045D01*
X13044Y12051D02*
X13049D01*
X12423Y12946D02*
X12423Y12946D01*
X12728Y12209D02*
X12775Y12162D01*
X12990Y12131D02*
X12996D01*
X13049D01*
X12423Y13246D02*
X12423Y13246D01*
X12665Y12572D02*
Y12663D01*
X12987Y11971D02*
X12987D01*
X16838Y10696D02*
X16878Y10655D01*
X13375Y9914D02*
X13386Y9903D01*
X16089Y10770D02*
X16658D01*
X15096Y10359D02*
X15096Y10359D01*
X13571Y9821D02*
X13796D01*
X17005Y9617D02*
Y10668D01*
X13599Y9881D02*
X13790D01*
X16082Y10830D02*
X16763D01*
X15058Y10406D02*
X15058Y10406D01*
X17132Y9710D02*
Y10655D01*
X16985Y10802D02*
X17132Y10655D01*
X13774Y11197D02*
Y11246D01*
X14310Y10890D02*
X16773D01*
X14362Y10950D02*
X16793D01*
X14077Y11069D02*
X14077Y11069D01*
X13854Y11191D02*
Y11246D01*
X18194Y10648D02*
X18194Y10648D01*
X18268Y10468D02*
X18275Y9347D01*
X14582Y11011D02*
X17317D01*
X13919Y11052D02*
X13919D01*
X13932Y11114D02*
X13963D01*
X16943Y10756D02*
X16987Y10711D01*
X18233Y10693D02*
X18244Y10683D01*
X14740Y11074D02*
X17313D01*
X17247Y9732D02*
Y10536D01*
X17259Y10622D01*
X17150Y10802D02*
X17209Y10744D01*
X18227Y13421D02*
Y13424D01*
X17971Y13421D02*
X18227D01*
X16646Y11551D02*
X16695D01*
X14729Y11564D02*
X16646D01*
X17221Y12093D02*
Y12332D01*
X17274Y12384D01*
D11*
X12103Y11493D02*
G03*
X11887Y10973I520J-520D01*
G01*
X11722Y9540D02*
G03*
X11776Y9411I183J0D01*
G01*
X12103Y11493D02*
X12243Y11633D01*
X11722Y9540D02*
Y10071D01*
X11735Y10084D02*
Y10706D01*
D12*
X13805Y10922D02*
D03*
X13640D02*
D03*
X13576Y12624D02*
D03*
X13411D02*
D03*
D13*
X12827Y13459D02*
D03*
Y13109D02*
D03*
X16142Y9665D02*
D03*
X16383D02*
D03*
X17653D02*
D03*
X17894D02*
D03*
X15900Y10375D02*
D03*
X16624D02*
D03*
X17386D02*
D03*
X18148D02*
D03*
X14110Y12967D02*
D03*
X13779D02*
D03*
X13449D02*
D03*
X13119D02*
D03*
D14*
X18041Y12506D02*
D03*
Y12426D02*
D03*
Y12586D02*
D03*
Y12666D02*
D03*
X18041Y12746D02*
D03*
D15*
X18389Y12068D02*
D03*
Y13103D02*
D03*
X18814Y12068D02*
D03*
Y13103D02*
D03*
D16*
X17526Y12776D02*
D03*
Y12941D02*
D03*
X12586Y11659D02*
D03*
Y11824D02*
D03*
X14453Y11722D02*
D03*
Y11557D02*
D03*
D17*
X13214Y11246D02*
D03*
X13294D02*
D03*
X13374D02*
D03*
X13454D02*
D03*
X13534D02*
D03*
X13614D02*
D03*
X13694D02*
D03*
X13774D02*
D03*
X13854D02*
D03*
X13934D02*
D03*
X14014D02*
D03*
Y12376D02*
D03*
X13934D02*
D03*
X13854D02*
D03*
X13774D02*
D03*
X13694D02*
D03*
X13614D02*
D03*
X13534D02*
D03*
X13454D02*
D03*
X13374D02*
D03*
X13294D02*
D03*
X13214D02*
D03*
D18*
X14179Y11411D02*
D03*
Y11491D02*
D03*
Y11571D02*
D03*
Y11651D02*
D03*
Y11731D02*
D03*
Y11811D02*
D03*
Y11891D02*
D03*
Y11971D02*
D03*
Y12051D02*
D03*
Y12131D02*
D03*
Y12211D02*
D03*
X13049D02*
D03*
Y12131D02*
D03*
Y12051D02*
D03*
Y11971D02*
D03*
Y11891D02*
D03*
Y11811D02*
D03*
Y11731D02*
D03*
Y11651D02*
D03*
Y11571D02*
D03*
Y11491D02*
D03*
Y11411D02*
D03*
D19*
X12042Y10973D02*
D03*
X11887D02*
D03*
X17173Y12967D02*
D03*
X17018D02*
D03*
X17173Y13233D02*
D03*
X17018D02*
D03*
X17219Y12090D02*
D03*
X17374D02*
D03*
D20*
X16646Y12001D02*
D03*
Y11551D02*
D03*
X15646D02*
D03*
Y12001D02*
D03*
D21*
X12827Y12906D02*
D03*
Y12751D02*
D03*
X17971Y13421D02*
D03*
Y13266D02*
D03*
D22*
X15946Y12608D02*
D03*
Y12673D02*
D03*
Y12738D02*
D03*
Y12803D02*
D03*
Y12868D02*
D03*
Y12933D02*
D03*
Y12998D02*
D03*
Y13063D02*
D03*
Y13128D02*
D03*
Y13193D02*
D03*
Y13258D02*
D03*
Y13323D02*
D03*
Y13388D02*
D03*
Y13453D02*
D03*
X15246Y12608D02*
D03*
Y12673D02*
D03*
Y12738D02*
D03*
Y12803D02*
D03*
Y12868D02*
D03*
Y12933D02*
D03*
Y12998D02*
D03*
Y13063D02*
D03*
Y13128D02*
D03*
Y13193D02*
D03*
Y13258D02*
D03*
Y13323D02*
D03*
Y13388D02*
D03*
Y13453D02*
D03*
D23*
X16449Y12967D02*
D03*
X16799D02*
D03*
X16449Y13233D02*
D03*
X16799D02*
D03*
X18577Y13424D02*
D03*
X18227D02*
D03*
X11735Y10706D02*
D03*
X14808Y11989D02*
D03*
X17475Y12332D02*
D03*
X12423Y13246D02*
D03*
Y12946D02*
D03*
Y12645D02*
D03*
Y12344D02*
D03*
X14808Y11379D02*
D03*
Y11684D02*
D03*
X17907Y9373D02*
D03*
D24*
X17920Y12090D02*
D03*
Y11836D02*
D03*
D25*
Y11582D02*
D03*
D26*
X16142Y10375D02*
D03*
X16383D02*
D03*
X17653D02*
D03*
X17894D02*
D03*
X15900Y9665D02*
D03*
X16624D02*
D03*
X17386D02*
D03*
X18148D02*
D03*
X12243Y10706D02*
D03*
X11989D02*
D03*
X15316Y11989D02*
D03*
X15062D02*
D03*
X17221Y12332D02*
D03*
X16967D02*
D03*
X16713D02*
D03*
X16459D02*
D03*
X16205D02*
D03*
X11915Y13246D02*
D03*
X12169D02*
D03*
X11915Y12946D02*
D03*
X12169D02*
D03*
X11915Y12645D02*
D03*
X12169D02*
D03*
X11915Y12344D02*
D03*
X12169D02*
D03*
X15316Y11379D02*
D03*
X15062D02*
D03*
X15316Y11684D02*
D03*
X15062D02*
D03*
X14110Y13475D02*
D03*
Y13221D02*
D03*
X13779Y13475D02*
D03*
Y13221D02*
D03*
X13449Y13475D02*
D03*
Y13221D02*
D03*
X13119Y13475D02*
D03*
Y13221D02*
D03*
X17018Y8865D02*
D03*
X16891Y9373D02*
D03*
X16764Y8865D02*
D03*
X16637Y9373D02*
D03*
X17780Y8865D02*
D03*
X17653Y9373D02*
D03*
X17526Y8865D02*
D03*
X17399Y9373D02*
D03*
X17272Y8865D02*
D03*
X17145Y9373D02*
D03*
X16510Y8865D02*
D03*
X16383Y9373D02*
D03*
X16256Y8865D02*
D03*
X16129Y9373D02*
D03*
D27*
X17894Y10655D02*
D03*
X17132D02*
D03*
X16116D02*
D03*
X16878D02*
D03*
D28*
X18644Y11280D02*
D03*
D29*
Y11630D02*
D03*
X15034Y9398D02*
D03*
X12126Y9411D02*
D03*
D30*
X14684Y9398D02*
D03*
X11776Y9411D02*
D03*
D31*
X13497Y10516D02*
D03*
X13697D02*
D03*
X13897D02*
D03*
X13497Y10033D02*
D03*
X13697D02*
D03*
X13897D02*
D03*
D32*
X14097Y10516D02*
D03*
Y10033D02*
D03*
D33*
X19139Y9652D02*
D03*
X14580Y12586D02*
D03*
X14618Y13246D02*
D03*
X12230Y10071D02*
D03*
X11735Y11633D02*
D03*
X15049Y10579D02*
D03*
D34*
X18631Y9652D02*
D03*
X14834Y12586D02*
D03*
X11722Y10071D02*
D03*
X12243Y11633D02*
D03*
D35*
X14618Y13500D02*
D03*
X15049Y10071D02*
D03*
D36*
X18885Y10452D02*
D03*
X12979Y9411D02*
D03*
D37*
X17818Y12967D02*
D03*
X18656Y10935D02*
D03*
X17501Y13449D02*
D03*
X13983Y10858D02*
D03*
X18041Y13127D02*
D03*
X13767Y11989D02*
D03*
M02*
