M48
;Layer_Color=9474304
;FILE_FORMAT=4:4
METRIC,LZ
;TYPE=PLATED
T1F00S00C0.7000
T2F00S00C0.7112
T3F00S00C0.8000
T4F00S00C0.8500
T5F00S00C0.9000
T6F00S00C1.0000
T7F00S00C1.4000
T8F00S00C4.2000
%
T01
X0134589Y0098298
X0136589
X0138589
X0140589
Y0104267
X0138589
X0136589
X0134589
T02
X0125857Y0112776
X018034Y0128778
X015621Y0127381
T03
X0117475Y0105664
X0122555
X0148082Y0095504
Y0090424
X0172212Y0106299
Y0111379
X017272Y011684
X0179451
Y011938
X017272
T04
X013335Y008636
X013843
X0155067Y0084201
Y0091821
Y0094361
Y0101981
T05
X0117602Y0112903
X0120142
X0122682
X0148082Y0113792
X0150622
X0153162
Y011684
X0150622
X0148082
X0157867Y0104521
Y0101981
Y0099568
Y0096901
Y0089281
Y0086868
Y0084455
Y0082042
X0164967
Y0084455
Y0086868
Y0089281
X0167899Y0089408
Y0091948
Y0094488
Y0097028
Y0099568
X0167899Y0102108
X0164967Y0101981
Y0099568
Y0096901
X0170439Y0095758
X0170439Y0098298
Y0100838
Y0093218
Y0090678
Y0088138
Y0085598
X0167899Y0086868
Y0084328
X0164967Y0104521
X0164592Y0123317
X0162052
X0167132
X0169672
X0172212
X0174752
X0153162Y0119888
X0150622
X0148082
X0141097Y0129667
Y0132207
Y0134747
X0137795
Y0132207
Y0129667
X0134493
Y0132207
Y0134747
X0131191
Y0132207
Y0129667
X0122709Y0128397
X0120169
Y01253913
X0122709
Y01223857
X0120169
Y011938
X0122709
X0117629
Y01223857
Y01253913
Y0128397
T06
X0181102Y0106934
Y0109474
Y0112014
T07
X0122936Y0082832
Y0086332
Y0093246
Y0096746
X0186436Y010874
Y011224
T08
X0188209Y0093218
M30
