%FSAX42Y42*%
%MOMM*%
G71*
G01*
G75*
G04 Layer_Color=65535*
%ADD10C,0.30*%
%ADD11C,1.30*%
%ADD12R,1.00X1.70*%
%ADD13R,1.50X1.50*%
%ADD14R,2.35X0.50*%
%ADD15R,2.50X2.35*%
%ADD16R,1.70X1.00*%
%ADD17O,0.55X1.75*%
%ADD18O,1.75X0.55*%
%ADD19R,0.90X1.55*%
%ADD20R,2.10X1.40*%
%ADD21R,1.55X0.90*%
%ADD22O,2.40X0.35*%
%ADD23R,1.50X1.50*%
%ADD24O,2.50X1.80*%
%ADD25R,2.50X1.80*%
%ADD26C,1.50*%
%ADD27C,1.40*%
%ADD28R,2.50X2.50*%
%ADD29C,2.50*%
%ADD30R,2.50X2.50*%
%ADD31C,1.30*%
%ADD32R,1.30X1.30*%
%ADD33C,1.57*%
%ADD34R,1.57X1.57*%
%ADD35R,1.57X1.57*%
%ADD36C,6.50*%
%ADD37C,1.27*%
%ADD38C,0.80*%
%ADD39C,0.25*%
%ADD40C,0.25*%
%ADD41C,0.60*%
%ADD42C,0.15*%
%ADD43C,0.20*%
%ADD44C,0.30*%
%ADD45R,1.90X0.80*%
D39*
X018423Y010975D02*
G03*
X018423Y010975I-000010J000000D01*
G01*
X014389Y009629D02*
G03*
X014389Y009629I-000010J000000D01*
G01*
X019335Y009652D02*
G03*
X019335Y009652I-000450J000000D01*
G01*
X012426Y010071D02*
G03*
X012426Y010071I-000450J000000D01*
G01*
X011481Y009642D02*
G03*
X011481Y009642I-000010J000000D01*
G01*
X012439Y011633D02*
G03*
X012439Y011633I-000450J000000D01*
G01*
X015699Y010325D02*
G03*
X015699Y010325I-000650J000000D01*
G01*
X015901Y012032D02*
G03*
X015901Y012032I-000005J000000D01*
G01*
X017666Y011328D02*
X018174D01*
X017666Y012344D02*
X018174D01*
X017666Y011328D02*
Y012344D01*
X018174Y011328D02*
Y012344D01*
X017720Y011328D02*
Y012344D01*
X018491Y011862D02*
Y011913D01*
X019431D01*
Y010998D02*
Y011913D01*
X018491Y010998D02*
X019431D01*
X018491Y011430D02*
Y011557D01*
X015265Y009550D02*
X015316D01*
Y008611D02*
Y009550D01*
X014402Y008611D02*
X015316D01*
X014402D02*
Y009550D01*
X014834D02*
X014961D01*
X013997Y010346D02*
X014297D01*
Y010796D01*
X013297Y010346D02*
Y010796D01*
Y010346D02*
X013597D01*
X013297Y010796D02*
X014297D01*
X013997Y009863D02*
X014297D01*
Y010313D01*
X013297Y009863D02*
Y010313D01*
Y009863D02*
X013597D01*
X013297Y010313D02*
X014297D01*
X012357Y009563D02*
X012408D01*
Y008623D02*
Y009563D01*
X011493Y008623D02*
X012408D01*
X011493D02*
Y009563D01*
X011925D02*
X012052D01*
X015846Y011476D02*
Y012076D01*
Y011476D02*
X016446D01*
Y012076D01*
X015846D02*
X016446D01*
X011623Y010945D02*
Y011046D01*
X011674Y011097D01*
X011725Y011046D01*
Y010945D01*
Y011021D01*
X011623D01*
X011775Y011097D02*
X011877Y010945D01*
Y011097D02*
X011775Y010945D01*
X011928D02*
X011979D01*
X011953D01*
Y011097D01*
X011928Y011072D01*
X012156Y010945D02*
X012055D01*
X012156Y011046D01*
Y011072D01*
X012131Y011097D01*
X012080D01*
X012055Y011072D01*
X012207Y010919D02*
X012309D01*
X012359Y011097D02*
Y010945D01*
X012436D01*
X012461Y010970D01*
Y010996D01*
X012436Y011021D01*
X012359D01*
X012436D01*
X012461Y011046D01*
Y011072D01*
X012436Y011097D01*
X012359D01*
X015037Y009563D02*
X015011Y009588D01*
X014961D01*
X014935Y009563D01*
Y009461D01*
X014961Y009436D01*
X015011D01*
X015037Y009461D01*
X015088Y009436D02*
X015138D01*
X015113D01*
Y009588D01*
X015088Y009563D01*
X011963Y012319D02*
X011938Y012344D01*
X011887D01*
X011862Y012319D01*
Y012217D01*
X011887Y012192D01*
X011938D01*
X011963Y012217D01*
X012116Y012192D02*
X012014D01*
X012116Y012294D01*
Y012319D01*
X012090Y012344D01*
X012040D01*
X012014Y012319D01*
X012649Y010122D02*
X012624Y010147D01*
X012573D01*
X012548Y010122D01*
Y010020D01*
X012573Y009995D01*
X012624D01*
X012649Y010020D01*
X012700Y010122D02*
X012725Y010147D01*
X012776D01*
X012802Y010122D01*
Y010096D01*
X012776Y010071D01*
X012751D01*
X012776D01*
X012802Y010046D01*
Y010020D01*
X012776Y009995D01*
X012725D01*
X012700Y010020D01*
X017554Y013205D02*
X017529Y013231D01*
X017478D01*
X017452Y013205D01*
Y013104D01*
X017478Y013078D01*
X017529D01*
X017554Y013104D01*
X017681Y013078D02*
Y013231D01*
X017605Y013155D01*
X017706D01*
X018872Y009080D02*
X018847Y009106D01*
X018796D01*
X018771Y009080D01*
Y008979D01*
X018796Y008954D01*
X018847D01*
X018872Y008979D01*
X019025Y009106D02*
X018923D01*
Y009030D01*
X018974Y009055D01*
X018999D01*
X019025Y009030D01*
Y008979D01*
X018999Y008954D01*
X018948D01*
X018923Y008979D01*
X012725Y011303D02*
X012700Y011278D01*
Y011227D01*
X012725Y011201D01*
X012827D01*
X012852Y011227D01*
Y011278D01*
X012827Y011303D01*
X012700Y011455D02*
X012852D01*
Y011379D01*
X012827Y011354D01*
X012776D01*
X012751Y011379D01*
Y011455D01*
X012852Y011582D02*
Y011531D01*
X012827Y011506D01*
X012776D01*
X012751Y011531D01*
Y011582D01*
X012776Y011608D01*
X012802D01*
Y011506D01*
X012751Y011760D02*
Y011684D01*
X012776Y011658D01*
X012827D01*
X012852Y011684D01*
Y011760D01*
Y011836D02*
Y011887D01*
X012827Y011912D01*
X012776D01*
X012751Y011887D01*
Y011836D01*
X012776Y011811D01*
X012827D01*
X012852Y011836D01*
X012751Y011963D02*
X012827D01*
X012852Y011989D01*
Y012065D01*
X012751D01*
X012903Y012116D02*
X012751D01*
Y012192D01*
X012776Y012217D01*
X012827D01*
X012852Y012192D01*
Y012116D01*
Y012344D02*
X012700D01*
X012776Y012268D01*
Y012369D01*
X013830Y012675D02*
X013805Y012700D01*
X013754D01*
X013729Y012675D01*
Y012573D01*
X013754Y012548D01*
X013805D01*
X013830Y012573D01*
X013983Y012700D02*
Y012548D01*
X013906D01*
X013881Y012573D01*
Y012624D01*
X013906Y012649D01*
X013983D01*
X014110Y012548D02*
X014059D01*
X014033Y012573D01*
Y012624D01*
X014059Y012649D01*
X014110D01*
X014135Y012624D01*
Y012598D01*
X014033D01*
X016104Y013322D02*
X016256D01*
Y013398D01*
X016231Y013424D01*
X016129D01*
X016104Y013398D01*
Y013322D01*
X016129Y013475D02*
X016104Y013500D01*
Y013551D01*
X016129Y013576D01*
X016154D01*
X016180Y013551D01*
Y013525D01*
Y013551D01*
X016205Y013576D01*
X016231D01*
X016256Y013551D01*
Y013500D01*
X016231Y013475D01*
X016102Y013017D02*
X016254D01*
Y013093D01*
X016229Y013118D01*
X016127D01*
X016102Y013093D01*
Y013017D01*
X016254Y013245D02*
X016102D01*
X016178Y013169D01*
Y013271D01*
X018796Y013513D02*
Y013360D01*
X018872D01*
X018898Y013386D01*
Y013487D01*
X018872Y013513D01*
X018796D01*
X018948Y013360D02*
X018999D01*
X018974D01*
Y013513D01*
X018948Y013487D01*
X019075Y013360D02*
X019126D01*
X019101D01*
Y013513D01*
X019075Y013487D01*
X013411Y011036D02*
X013310D01*
Y010884D01*
X013411D01*
X013310Y010960D02*
X013360D01*
X013462Y010884D02*
Y010985D01*
X013538D01*
X013564Y010960D01*
Y010884D01*
X013716Y010985D02*
X013640D01*
X013614Y010960D01*
Y010909D01*
X013640Y010884D01*
X013716D01*
X013792D02*
X013843D01*
X013868Y010909D01*
Y010960D01*
X013843Y010985D01*
X013792D01*
X013767Y010960D01*
Y010909D01*
X013792Y010884D01*
X014021Y011036D02*
Y010884D01*
X013944D01*
X013919Y010909D01*
Y010960D01*
X013944Y010985D01*
X014021D01*
X014148Y010884D02*
X014097D01*
X014071Y010909D01*
Y010960D01*
X014097Y010985D01*
X014148D01*
X014173Y010960D01*
Y010935D01*
X014071D01*
X014224Y010985D02*
Y010909D01*
X014249Y010884D01*
X014325D01*
Y010985D01*
X014376D02*
Y010884D01*
Y010935D01*
X014401Y010960D01*
X014427Y010985D01*
X014452D01*
X014630Y010884D02*
X014528D01*
X014630Y010985D01*
Y011011D01*
X014605Y011036D01*
X014554D01*
X014528Y011011D01*
X014696Y012355D02*
Y012202D01*
X014798D01*
X014874Y012304D02*
X014925D01*
X014950Y012278D01*
Y012202D01*
X014874D01*
X014849Y012228D01*
X014874Y012253D01*
X014950D01*
X015001Y012202D02*
X015052D01*
X015027D01*
Y012304D01*
X015001D01*
X015128Y012202D02*
X015204D01*
X015230Y012228D01*
X015204Y012253D01*
X015153D01*
X015128Y012278D01*
X015153Y012304D01*
X015230D01*
X015280Y012202D02*
X015357D01*
X015382Y012228D01*
X015357Y012253D01*
X015306D01*
X015280Y012278D01*
X015306Y012304D01*
X015382D01*
X015509Y012202D02*
X015458D01*
X015433Y012228D01*
Y012278D01*
X015458Y012304D01*
X015509D01*
X015534Y012278D01*
Y012253D01*
X015433D01*
X015687Y012329D02*
X015661Y012355D01*
X015611D01*
X015585Y012329D01*
Y012228D01*
X015611Y012202D01*
X015661D01*
X015687Y012228D01*
X015763Y012202D02*
X015814D01*
X015839Y012228D01*
Y012278D01*
X015814Y012304D01*
X015763D01*
X015738Y012278D01*
Y012228D01*
X015763Y012202D01*
X015890D02*
Y012304D01*
X015966D01*
X015991Y012278D01*
Y012202D01*
X011557Y013183D02*
Y013335D01*
X011633D01*
X011659Y013310D01*
Y013259D01*
X011633Y013233D01*
X011557D01*
X011709Y013183D02*
X011760D01*
X011735D01*
Y013335D01*
X011709Y013310D01*
X014351Y011265D02*
Y011417D01*
X014427D01*
X014453Y011392D01*
Y011341D01*
X014427Y011316D01*
X014351D01*
X014580Y011265D02*
Y011417D01*
X014503Y011341D01*
X014605D01*
X011506Y012852D02*
Y013005D01*
X011582D01*
X011608Y012979D01*
Y012929D01*
X011582Y012903D01*
X011506D01*
X011760Y013005D02*
X011659D01*
Y012929D01*
X011709Y012954D01*
X011735D01*
X011760Y012929D01*
Y012878D01*
X011735Y012852D01*
X011684D01*
X011659Y012878D01*
X011506Y012573D02*
Y012725D01*
X011582D01*
X011608Y012700D01*
Y012649D01*
X011582Y012624D01*
X011506D01*
X011760Y012725D02*
X011709Y012700D01*
X011659Y012649D01*
Y012598D01*
X011684Y012573D01*
X011735D01*
X011760Y012598D01*
Y012624D01*
X011735Y012649D01*
X011659D01*
X011506Y012294D02*
Y012446D01*
X011582D01*
X011608Y012421D01*
Y012370D01*
X011582Y012344D01*
X011506D01*
X011659Y012446D02*
X011760D01*
Y012421D01*
X011659Y012319D01*
Y012294D01*
X014668Y012713D02*
Y012865D01*
X014745D01*
X014770Y012840D01*
Y012789D01*
X014745Y012763D01*
X014668D01*
X014821Y012840D02*
X014846Y012865D01*
X014897D01*
X014922Y012840D01*
Y012814D01*
X014897Y012789D01*
X014922Y012763D01*
Y012738D01*
X014897Y012713D01*
X014846D01*
X014821Y012738D01*
Y012763D01*
X014846Y012789D01*
X014821Y012814D01*
Y012840D01*
X014846Y012789D02*
X014897D01*
X014681Y012941D02*
Y013094D01*
X014757D01*
X014783Y013068D01*
Y013017D01*
X014757Y012992D01*
X014681D01*
X014834Y012967D02*
X014859Y012941D01*
X014910D01*
X014935Y012967D01*
Y013068D01*
X014910Y013094D01*
X014859D01*
X014834Y013068D01*
Y013043D01*
X014859Y013017D01*
X014935D01*
X014618Y013195D02*
Y013348D01*
X014694D01*
X014719Y013322D01*
Y013271D01*
X014694Y013246D01*
X014618D01*
X014770Y013195D02*
X014821D01*
X014795D01*
Y013348D01*
X014770Y013322D01*
X014897D02*
X014922Y013348D01*
X014973D01*
X014999Y013322D01*
Y013221D01*
X014973Y013195D01*
X014922D01*
X014897Y013221D01*
Y013322D01*
X012649Y008788D02*
X012497D01*
Y008865D01*
X012522Y008890D01*
X012573D01*
X012598Y008865D01*
Y008788D01*
X012649Y008941D02*
Y008992D01*
Y008966D01*
X012497D01*
X012522Y008941D01*
Y009068D02*
X012497Y009093D01*
Y009144D01*
X012522Y009169D01*
X012624D01*
X012649Y009144D01*
Y009093D01*
X012624Y009068D01*
X012522D01*
X012497Y009220D02*
X012598D01*
X012649Y009271D01*
X012598Y009322D01*
X012497D01*
X015469Y011697D02*
Y011849D01*
X015545D01*
X015570Y011824D01*
Y011773D01*
X015545Y011747D01*
X015469D01*
X015621Y011697D02*
X015672D01*
X015646D01*
Y011849D01*
X015621Y011824D01*
X015748Y011697D02*
X015799D01*
X015773D01*
Y011849D01*
X015748Y011824D01*
X014381Y009728D02*
Y009881D01*
X014458D01*
X014483Y009855D01*
Y009804D01*
X014458Y009779D01*
X014381D01*
X014534Y009728D02*
Y009830D01*
X014559D01*
X014585Y009804D01*
Y009728D01*
Y009804D01*
X014610Y009830D01*
X014635Y009804D01*
Y009728D01*
X014712D02*
X014762D01*
X014788Y009754D01*
Y009804D01*
X014762Y009830D01*
X014712D01*
X014686Y009804D01*
Y009754D01*
X014712Y009728D01*
X014864Y009855D02*
Y009830D01*
X014839D01*
X014889D01*
X014864D01*
Y009754D01*
X014889Y009728D01*
X017076Y010818D02*
Y010970D01*
X017153D01*
X017178Y010945D01*
Y010894D01*
X017153Y010869D01*
X017076D01*
X017127D02*
X017178Y010818D01*
X017229D02*
X017280D01*
X017254D01*
Y010970D01*
X017229Y010945D01*
X017399Y013335D02*
X017247D01*
Y013411D01*
X017272Y013437D01*
X017323D01*
X017348Y013411D01*
Y013335D01*
Y013386D02*
X017399Y013437D01*
Y013589D02*
Y013487D01*
X017297Y013589D01*
X017272D01*
X017247Y013564D01*
Y013513D01*
X017272Y013487D01*
X016060Y010818D02*
Y010970D01*
X016137D01*
X016162Y010945D01*
Y010894D01*
X016137Y010869D01*
X016060D01*
X016111D02*
X016162Y010818D01*
X016289D02*
Y010970D01*
X016213Y010894D01*
X016314D01*
X017602Y013360D02*
Y013513D01*
X017678D01*
X017704Y013487D01*
Y013437D01*
X017678Y013411D01*
X017602D01*
X017653D02*
X017704Y013360D01*
X017856Y013513D02*
X017755D01*
Y013437D01*
X017805Y013462D01*
X017831D01*
X017856Y013437D01*
Y013386D01*
X017831Y013360D01*
X017780D01*
X017755Y013386D01*
X016827Y011900D02*
Y011798D01*
Y011849D01*
X016853Y011874D01*
X016878Y011900D01*
X016904D01*
X017056Y011798D02*
X017005D01*
X016980Y011824D01*
Y011874D01*
X017005Y011900D01*
X017056D01*
X017081Y011874D01*
Y011849D01*
X016980D01*
X017132Y011798D02*
X017208D01*
X017234Y011824D01*
X017208Y011849D01*
X017158D01*
X017132Y011874D01*
X017158Y011900D01*
X017234D01*
X017361Y011798D02*
X017310D01*
X017285Y011824D01*
Y011874D01*
X017310Y011900D01*
X017361D01*
X017386Y011874D01*
Y011849D01*
X017285D01*
X017462Y011925D02*
Y011900D01*
X017437D01*
X017488D01*
X017462D01*
Y011824D01*
X017488Y011798D01*
X017628Y012192D02*
Y012344D01*
X017704D01*
X017729Y012319D01*
Y012268D01*
X017704Y012243D01*
X017628D01*
X017678D02*
X017729Y012192D01*
X017780Y012141D02*
Y012294D01*
X017856D01*
X017882Y012268D01*
Y012217D01*
X017856Y012192D01*
X017780D01*
X017932D02*
X017983D01*
X017958D01*
Y012344D01*
X017932Y012319D01*
X017411Y013021D02*
X017259D01*
Y013097D01*
X017284Y013123D01*
X017335D01*
X017360Y013097D01*
Y013021D01*
Y013072D02*
X017411Y013123D01*
X017284Y013174D02*
X017259Y013199D01*
Y013250D01*
X017284Y013275D01*
X017309D01*
X017335Y013250D01*
Y013224D01*
Y013250D01*
X017360Y013275D01*
X017386D01*
X017411Y013250D01*
Y013199D01*
X017386Y013174D01*
X012959Y012720D02*
Y012593D01*
X012984Y012568D01*
X013035D01*
X013061Y012593D01*
Y012720D01*
X013111Y012695D02*
X013137Y012720D01*
X013188D01*
X013213Y012695D01*
Y012669D01*
X013188Y012644D01*
X013162D01*
X013188D01*
X013213Y012619D01*
Y012593D01*
X013188Y012568D01*
X013137D01*
X013111Y012593D01*
X016002Y011341D02*
X016104D01*
Y011316D01*
X016002Y011214D01*
Y011189D01*
X016154D02*
Y011341D01*
X016231D01*
X016256Y011316D01*
Y011265D01*
X016231Y011239D01*
X016154D01*
X016205D02*
X016256Y011189D01*
X016332D02*
X016383D01*
X016408Y011214D01*
Y011265D01*
X016383Y011290D01*
X016332D01*
X016307Y011265D01*
Y011214D01*
X016332Y011189D01*
X016459Y011341D02*
Y011189D01*
X016535D01*
X016561Y011214D01*
Y011239D01*
Y011265D01*
X016535Y011290D01*
X016459D01*
X016611Y011189D02*
X016662D01*
X016637D01*
Y011290D01*
X016611D01*
X016738Y011189D02*
Y011290D01*
X016815D01*
X016840Y011265D01*
Y011189D01*
X016992Y011290D02*
X016916D01*
X016891Y011265D01*
Y011214D01*
X016916Y011189D01*
X016992D01*
X017043Y011341D02*
Y011189D01*
Y011265D01*
X017068Y011290D01*
X017119D01*
X017145Y011265D01*
Y011189D01*
X012851Y008941D02*
X012852Y008788D01*
X012852Y008839D01*
X012953Y008942D01*
X012877Y008865D01*
X012954Y008789D01*
X013105Y008943D02*
X013003Y008942D01*
X013005Y008790D01*
X013106Y008791D01*
X013004Y008866D02*
X013055Y008867D01*
X013157Y008791D02*
X013156Y008944D01*
X013259Y008792D01*
X013257Y008945D01*
X013461Y008870D02*
X013563Y008871D01*
X013766Y008797D02*
X013765Y008949D01*
X013868Y008798D01*
X013867Y008950D01*
X013917Y008951D02*
X013968Y008951D01*
X013943Y008951D01*
X013944Y008799D01*
X013919Y008799D01*
X013970Y008799D01*
X014046Y008800D02*
X014044Y008952D01*
X014096Y008902D01*
X014146Y008953D01*
X014147Y008801D01*
X013678Y009271D02*
X013576D01*
X013678Y009373D01*
Y009398D01*
X013652Y009423D01*
X013602D01*
X013576Y009398D01*
X013729D02*
X013754Y009423D01*
X013805D01*
X013830Y009398D01*
Y009296D01*
X013805Y009271D01*
X013754D01*
X013729Y009296D01*
Y009398D01*
X013881Y009271D02*
X013932D01*
X013906D01*
Y009423D01*
X013881Y009398D01*
X014008D02*
X014033Y009423D01*
X014084D01*
X014110Y009398D01*
Y009373D01*
X014084Y009347D01*
X014059D01*
X014084D01*
X014110Y009322D01*
Y009296D01*
X014084Y009271D01*
X014033D01*
X014008Y009296D01*
D40*
X018054Y012826D02*
G03*
X018054Y012826I-000012J000000D01*
G01*
X013144Y011246D02*
G03*
X013144Y011246I-000012J000000D01*
G01*
X015258Y013525D02*
G03*
X015258Y013525I-000012J000000D01*
G01*
D41*
X013309Y011476D02*
G03*
X013309Y011476I-000030J000000D01*
G01*
X015536Y013455D02*
G03*
X015536Y013455I-000030J000000D01*
G01*
D42*
X015007Y012586D02*
G03*
X015007Y012586I-000300J000000D01*
G01*
X014918Y013373D02*
G03*
X014918Y013373I-000300J000000D01*
G01*
X014834Y012713D02*
Y012814D01*
X014783Y012764D02*
X014884D01*
X014389Y013500D02*
X014491D01*
X014440Y013449D02*
Y013551D01*
X011960Y011049D02*
X011968D01*
X011960Y010897D02*
X011968D01*
X012751Y012824D02*
Y012832D01*
X012903Y012824D02*
Y012832D01*
X017091Y013043D02*
X017099D01*
X017091Y012890D02*
X017099D01*
X017091Y013310D02*
X017099D01*
X017091Y013157D02*
X017099D01*
X017894Y013339D02*
Y013347D01*
X018047Y013339D02*
Y013347D01*
X017293Y012014D02*
X017301D01*
X017293Y012167D02*
X017301D01*
X017930Y009635D02*
X017880D01*
X017905D01*
Y009485D01*
X017930Y009510D01*
X016224Y009635D02*
X016174D01*
X016199D01*
Y009485D01*
X016224Y009510D01*
X015999Y009485D02*
X016099D01*
Y009560D01*
X016049Y009535D01*
X016024D01*
X015999Y009560D01*
Y009610D01*
X016024Y009635D01*
X016074D01*
X016099Y009610D01*
D43*
X016047Y009825D02*
Y010215D01*
X016237Y009825D02*
Y010215D01*
X016047D02*
X016237D01*
X016288Y009825D02*
Y010215D01*
X016478Y009825D02*
Y010215D01*
X016288D02*
X016478D01*
X017558Y009825D02*
Y010215D01*
X017748Y009825D02*
Y010215D01*
X017558D02*
X017748D01*
X017799Y009825D02*
Y010215D01*
X017989Y009825D02*
Y010215D01*
X017799D02*
X017989D01*
X017236Y010655D02*
X017259D01*
X017767D02*
X017790D01*
X017259D02*
Y010732D01*
X017767D01*
Y010579D02*
Y010732D01*
X017259Y010579D02*
X017767D01*
X017259D02*
Y010655D01*
X016751D02*
X016774D01*
X016220D02*
X016243D01*
X016751Y010579D02*
Y010655D01*
X016243Y010579D02*
X016751D01*
X016243D02*
Y010732D01*
X016751D01*
Y010655D02*
Y010732D01*
X015995Y009825D02*
Y010215D01*
X015805Y009825D02*
Y010215D01*
Y009825D02*
X015995D01*
X016719D02*
Y010215D01*
X016529Y009825D02*
Y010215D01*
Y009825D02*
X016719D01*
X017481D02*
Y010215D01*
X017291Y009825D02*
Y010215D01*
Y009825D02*
X017481D01*
X018243D02*
Y010215D01*
X018053Y009825D02*
Y010215D01*
Y009825D02*
X018243D01*
X013720Y010833D02*
X013725D01*
X013720Y011011D02*
X013725D01*
X012942Y012994D02*
Y013184D01*
X012712Y012994D02*
Y013184D01*
Y012994D02*
X012942D01*
X012752Y013604D02*
X012902D01*
X012942Y013384D02*
Y013554D01*
X012712D02*
X012752Y013604D01*
X012902D02*
X012942Y013554D01*
X012712Y013384D02*
Y013554D01*
X011608Y010579D02*
Y010833D01*
X012370D01*
Y010579D02*
Y010833D01*
X011608Y010579D02*
X012370D01*
X014681Y011862D02*
Y012116D01*
X015443D01*
Y011862D02*
Y012116D01*
X014681Y011862D02*
X015443D01*
X017602Y012459D02*
Y012586D01*
X016078D02*
X017602D01*
X016078Y012459D02*
Y012586D01*
X017518D02*
Y012924D01*
X017475Y012967D02*
X017518Y012924D01*
X017433D02*
X017475Y012967D01*
X017433Y012586D02*
Y012924D01*
X017264Y012586D02*
Y012924D01*
X017221Y012967D02*
X017264Y012924D01*
X017179D02*
X017221Y012967D01*
X017179Y012586D02*
Y012924D01*
X017010Y012586D02*
Y012924D01*
X016967Y012967D02*
X017010Y012924D01*
X016925D02*
X016967Y012967D01*
X016925Y012586D02*
Y012924D01*
X016756Y012586D02*
Y012924D01*
X016713Y012967D02*
X016756Y012924D01*
X016671D02*
X016713Y012967D01*
X016671Y012586D02*
Y012924D01*
X016502Y012586D02*
Y012924D01*
X016459Y012967D02*
X016502Y012924D01*
X016417D02*
X016459Y012967D01*
X016417Y012586D02*
Y012924D01*
X016248Y012586D02*
Y012924D01*
X016205Y012967D02*
X016248Y012924D01*
X016163D02*
X016205Y012967D01*
X016163Y012586D02*
Y012924D01*
X017560Y012459D02*
X017602Y012501D01*
X016078Y012459D02*
X017602D01*
X017437Y012856D02*
Y012861D01*
X017615Y012856D02*
Y012861D01*
X013179Y011376D02*
X014049D01*
X013179Y012246D02*
X014049D01*
X013179Y011376D02*
Y012246D01*
X014049Y011376D02*
Y012246D01*
X012497Y011739D02*
Y011744D01*
X012675Y011739D02*
Y011744D01*
X012550Y013119D02*
Y013373D01*
X011788Y013119D02*
X012550D01*
X011788D02*
Y013373D01*
X012550D01*
Y012819D02*
Y013073D01*
X011788Y012819D02*
X012550D01*
X011788D02*
Y013073D01*
X012550D01*
Y012518D02*
Y012772D01*
X011788Y012518D02*
X012550D01*
X011788D02*
Y012772D01*
X012550D01*
Y012217D02*
Y012471D01*
X011788Y012217D02*
X012550D01*
X011788D02*
Y012471D01*
X012550D01*
X014541Y011637D02*
Y011642D01*
X014364Y011637D02*
Y011642D01*
X014681Y011252D02*
Y011506D01*
X015443D01*
Y011252D02*
Y011506D01*
X014681Y011252D02*
X015443D01*
X014681Y011557D02*
Y011811D01*
X015443D01*
Y011557D02*
Y011811D01*
X014681Y011557D02*
X015443D01*
X013491Y012535D02*
X013496D01*
X013491Y012713D02*
X013496D01*
X013983Y012840D02*
X014237D01*
X013983D02*
Y013602D01*
X014237D01*
Y012840D02*
Y013602D01*
X013652Y012840D02*
X013907D01*
X013652D02*
Y013602D01*
X013907D01*
Y012840D02*
Y013602D01*
X013322Y012840D02*
X013576D01*
X013322D02*
Y013602D01*
X013576D01*
Y012840D02*
Y013602D01*
X012992Y012840D02*
X013246D01*
X012992D02*
Y013602D01*
X013246D01*
Y012840D02*
Y013602D01*
X015406Y012505D02*
X015786D01*
X015406Y013555D02*
X015786D01*
Y012505D02*
Y013555D01*
X015406Y012505D02*
Y013555D01*
X016724Y013082D02*
X016914D01*
X016724Y012852D02*
X016914D01*
Y013082D01*
X016304Y012892D02*
Y013042D01*
X016354Y013082D02*
X016524D01*
X016304Y012892D02*
X016354Y012852D01*
X016304Y013042D02*
X016354Y013082D01*
X016354Y012852D02*
X016524D01*
X016724Y013348D02*
X016914D01*
X016724Y013118D02*
X016914D01*
Y013348D01*
X016304Y013158D02*
Y013308D01*
X016354Y013348D02*
X016524D01*
X016304Y013158D02*
X016354Y013118D01*
X016304Y013308D02*
X016354Y013348D01*
X016354Y013118D02*
X016524D01*
X018112Y013309D02*
X018302D01*
X018112Y013539D02*
X018302D01*
X018112Y013309D02*
Y013539D01*
X018722Y013349D02*
Y013499D01*
X018502Y013309D02*
X018672D01*
Y013539D02*
X018722Y013499D01*
X018672Y013309D02*
X018722Y013349D01*
X018502Y013539D02*
X018672D01*
X016018Y008460D02*
X018018D01*
Y008410D02*
Y008910D01*
X017932D02*
X018018D01*
X016018Y008410D02*
X018018D01*
X016018D02*
Y008910D01*
X016104D01*
D44*
X018628Y009307D02*
Y009525D01*
X018519Y009416D02*
X018740D01*
X011720Y009726D02*
Y009944D01*
X011610Y009835D02*
X011831D01*
X012245Y011760D02*
Y011979D01*
X012134Y011869D02*
X012355D01*
X015176Y010069D02*
X015430D01*
X015304Y009942D02*
Y010196D01*
D45*
X016142Y009855D02*
D03*
X016383D02*
D03*
X017653D02*
D03*
X017894D02*
D03*
X015900Y010185D02*
D03*
X016624D02*
D03*
X017386D02*
D03*
X018148D02*
D03*
M02*
