%FSLAX42Y42*%
%MOMM*%
G71*
G01*
G75*
%ADD10C,0.30*%
%ADD11C,1.30*%
%ADD12R,0.90X1.55*%
%ADD13R,1.55X0.90*%
%ADD14R,1.50X1.50*%
%ADD15O,2.40X0.35*%
%ADD16R,1.00X1.70*%
%ADD17R,1.70X1.00*%
%ADD18R,2.10X1.40*%
%ADD19O,1.75X0.55*%
%ADD20O,0.55X1.75*%
%ADD21R,2.35X0.50*%
%ADD22R,2.50X2.35*%
%ADD23R,1.50X1.50*%
%ADD24C,1.50*%
%ADD25R,1.57X1.57*%
%ADD26C,1.57*%
%ADD27R,1.57X1.57*%
%ADD28C,2.50*%
%ADD29R,2.50X2.50*%
%ADD30R,1.30X1.30*%
%ADD31C,1.30*%
%ADD32R,2.50X2.50*%
%ADD33C,6.90*%
%ADD34C,1.40*%
%ADD35R,2.50X1.80*%
%ADD36O,2.50X1.80*%
%ADD37C,1.27*%
%ADD38C,0.25*%
%ADD39C,0.60*%
%ADD40C,0.25*%
%ADD41C,0.15*%
%ADD42C,0.20*%
%ADD43C,0.30*%
%ADD44R,1.90X0.80*%
%ADD45R,1.10X1.75*%
%ADD46R,1.75X1.10*%
%ADD47R,1.70X1.70*%
%ADD48O,2.60X0.55*%
%ADD49R,1.20X1.90*%
%ADD50R,1.90X1.20*%
%ADD51R,2.30X1.60*%
%ADD52O,1.95X0.75*%
%ADD53O,0.75X1.95*%
%ADD54R,2.55X0.70*%
%ADD55R,2.70X2.55*%
%ADD56R,1.70X1.70*%
%ADD57C,1.70*%
%ADD58R,1.78X1.78*%
%ADD59C,1.78*%
%ADD60R,1.78X1.78*%
%ADD61C,2.70*%
%ADD62R,2.70X2.70*%
%ADD63R,1.50X1.50*%
%ADD64C,1.50*%
%ADD65R,2.70X2.70*%
%ADD66C,7.10*%
%ADD67C,1.60*%
%ADD68R,2.70X2.00*%
%ADD69O,2.70X2.00*%
%ADD70C,1.47*%
%ADD71C,0.10*%
%ADD72C,0.15*%
%ADD73R,9.50X8.00*%
%ADD74C,0.13*%
%ADD75C,0.17*%
D74*
X13074Y12967D02*
X13164D01*
X13119Y12922D02*
Y13012D01*
X13074Y13221D02*
X13164D01*
X13119Y13176D02*
Y13266D01*
X13074Y13475D02*
X13164D01*
X13119Y13430D02*
Y13520D01*
X13404Y12967D02*
X13494D01*
X13449Y12922D02*
Y13012D01*
X13404Y13221D02*
X13494D01*
X13449Y13176D02*
Y13266D01*
X13404Y13475D02*
X13494D01*
X13449Y13430D02*
Y13520D01*
X13735Y12967D02*
X13824D01*
X13779Y12922D02*
Y13012D01*
X13735Y13221D02*
X13824D01*
X13779Y13176D02*
Y13266D01*
X13735Y13475D02*
X13824D01*
X13779Y13430D02*
Y13520D01*
X14065Y12967D02*
X14155D01*
X14110Y12922D02*
Y13012D01*
X14065Y13221D02*
X14155D01*
X14110Y13176D02*
Y13266D01*
X14065Y13475D02*
X14155D01*
X14110Y13430D02*
Y13520D01*
X14763Y11684D02*
X14853D01*
X14808Y11639D02*
Y11729D01*
X15017Y11684D02*
X15107D01*
X15062Y11639D02*
Y11729D01*
X15271Y11684D02*
X15361D01*
X15316Y11639D02*
Y11729D01*
X14763Y11379D02*
X14853D01*
X14808Y11334D02*
Y11424D01*
X15017Y11379D02*
X15107D01*
X15062Y11334D02*
Y11424D01*
X15271Y11379D02*
X15361D01*
X15316Y11334D02*
Y11424D01*
X15007Y10071D02*
X15092D01*
X15049Y10029D02*
Y10114D01*
X15007Y10579D02*
X15092D01*
X15049Y10537D02*
Y10622D01*
X12378Y12344D02*
X12468D01*
X12423Y12299D02*
Y12389D01*
X12124Y12344D02*
X12214D01*
X12169Y12299D02*
Y12389D01*
X11870Y12344D02*
X11960D01*
X11915Y12299D02*
Y12389D01*
X12378Y12645D02*
X12468D01*
X12423Y12600D02*
Y12690D01*
X12124Y12645D02*
X12214D01*
X12169Y12600D02*
Y12690D01*
X11870Y12645D02*
X11960D01*
X11915Y12600D02*
Y12690D01*
X12378Y12946D02*
X12468D01*
X12423Y12901D02*
Y12991D01*
X12124Y12946D02*
X12214D01*
X12169Y12901D02*
Y12991D01*
X11870Y12946D02*
X11960D01*
X11915Y12901D02*
Y12991D01*
X12378Y13246D02*
X12468D01*
X12423Y13201D02*
Y13291D01*
X12124Y13246D02*
X12214D01*
X12169Y13201D02*
Y13291D01*
X11870Y13246D02*
X11960D01*
X11915Y13201D02*
Y13291D01*
X13270Y9207D02*
X13350D01*
X13310Y9168D02*
Y9247D01*
X12762Y9207D02*
X12842D01*
X12802Y9168D02*
Y9247D01*
X12224Y9325D02*
X12364D01*
X12294Y9255D02*
Y9395D01*
X12224Y9675D02*
X12364D01*
X12294Y9605D02*
Y9745D01*
X11707Y10566D02*
X11788D01*
X11747Y10526D02*
Y10606D01*
X12215Y10566D02*
X12296D01*
X12256Y10526D02*
Y10606D01*
X17283Y11265D02*
X17363D01*
X17323Y11225D02*
Y11305D01*
X17283Y11519D02*
X17363D01*
X17323Y11479D02*
Y11559D01*
X19086Y10592D02*
X19166D01*
X19126Y10552D02*
Y10632D01*
X18832Y10592D02*
X18912D01*
X18872Y10552D02*
Y10632D01*
X18565Y9525D02*
X18646D01*
X18605Y9485D02*
Y9565D01*
X19074Y9525D02*
X19154D01*
X19113Y9485D02*
Y9565D01*
X16160Y12332D02*
X16250D01*
X16205Y12287D02*
Y12377D01*
X16414Y12332D02*
X16504D01*
X16459Y12287D02*
Y12377D01*
X16668Y12332D02*
X16758D01*
X16713Y12287D02*
Y12377D01*
X16922Y12332D02*
X17012D01*
X16967Y12287D02*
Y12377D01*
X17176Y12332D02*
X17266D01*
X17221Y12287D02*
Y12377D01*
X17430Y12332D02*
X17520D01*
X17475Y12287D02*
Y12377D01*
X14763Y11989D02*
X14853D01*
X14808Y11944D02*
Y12034D01*
X15017Y11989D02*
X15107D01*
X15062Y11944D02*
Y12034D01*
X15271Y11989D02*
X15361D01*
X15316Y11944D02*
Y12034D01*
X11715Y11290D02*
X11805D01*
X11760Y11245D02*
Y11335D01*
X11969Y11290D02*
X12059D01*
X12014Y11245D02*
Y11335D01*
X12223Y11290D02*
X12313D01*
X12268Y11245D02*
Y11335D01*
X14062Y10033D02*
X14132D01*
X14097Y9998D02*
Y10068D01*
X13862Y10033D02*
X13932D01*
X13897Y9998D02*
Y10068D01*
X13662Y10033D02*
X13732D01*
X13697Y9998D02*
Y10068D01*
X13462Y10033D02*
X13532D01*
X13497Y9998D02*
Y10068D01*
X14062Y10516D02*
X14132D01*
X14097Y10481D02*
Y10551D01*
X13862Y10516D02*
X13932D01*
X13897Y10481D02*
Y10551D01*
X13662Y10516D02*
X13732D01*
X13697Y10481D02*
Y10551D01*
X13462Y10516D02*
X13532D01*
X13497Y10481D02*
Y10551D01*
X14215Y9398D02*
X14355D01*
X14285Y9328D02*
Y9468D01*
X13865Y9398D02*
X14005D01*
X13935Y9328D02*
Y9468D01*
X18574Y11630D02*
X18714D01*
X18644Y11560D02*
Y11700D01*
X18574Y11280D02*
X18714D01*
X18644Y11210D02*
Y11350D01*
X18103Y10375D02*
X18193D01*
X18148Y10330D02*
Y10420D01*
X18103Y9665D02*
X18193D01*
X18148Y9620D02*
Y9710D01*
X17341Y10375D02*
X17431D01*
X17386Y10330D02*
Y10420D01*
X17341Y9665D02*
X17431D01*
X17386Y9620D02*
Y9710D01*
X16579Y10375D02*
X16669D01*
X16624Y10330D02*
Y10420D01*
X16579Y9665D02*
X16669D01*
X16624Y9620D02*
Y9710D01*
X15855Y10375D02*
X15945D01*
X15900Y10330D02*
Y10420D01*
X15855Y9665D02*
X15945D01*
X15900Y9620D02*
Y9710D01*
X17862Y9372D02*
X17952D01*
X17907Y9327D02*
Y9417D01*
X17735Y9118D02*
X17825D01*
X17780Y9073D02*
Y9163D01*
X17608Y9372D02*
X17698D01*
X17653Y9327D02*
Y9417D01*
X17481Y9118D02*
X17571D01*
X17526Y9073D02*
Y9163D01*
X17354Y9372D02*
X17444D01*
X17399Y9327D02*
Y9417D01*
X17227Y9118D02*
X17317D01*
X17272Y9073D02*
Y9163D01*
X17100Y9372D02*
X17190D01*
X17145Y9327D02*
Y9417D01*
X16973Y9118D02*
X17063D01*
X17018Y9073D02*
Y9163D01*
X16846Y9372D02*
X16936D01*
X16891Y9327D02*
Y9417D01*
X16719Y9118D02*
X16809D01*
X16764Y9073D02*
Y9163D01*
X16592Y9372D02*
X16682D01*
X16637Y9327D02*
Y9417D01*
X16465Y9118D02*
X16555D01*
X16510Y9073D02*
Y9163D01*
X16338Y9372D02*
X16428D01*
X16383Y9327D02*
Y9417D01*
X16211Y9118D02*
X16301D01*
X16256Y9073D02*
Y9163D01*
X16084Y9372D02*
X16174D01*
X16129Y9327D02*
Y9417D01*
X16808Y7341D02*
X17228D01*
X17018Y7131D02*
Y7551D01*
X16836Y10655D02*
X16921D01*
X16878Y10613D02*
Y10698D01*
X16074Y10655D02*
X16159D01*
X16116Y10613D02*
Y10698D01*
X17090Y10655D02*
X17175D01*
X17132Y10613D02*
Y10698D01*
X17852Y10655D02*
X17937D01*
X17894Y10613D02*
Y10698D01*
X17849Y9665D02*
X17939D01*
X17894Y9620D02*
Y9710D01*
X17849Y10375D02*
X17939D01*
X17894Y10330D02*
Y10420D01*
X17608Y9665D02*
X17698D01*
X17653Y9620D02*
Y9710D01*
X17608Y10375D02*
X17698D01*
X17653Y10330D02*
Y10420D01*
X16338Y9665D02*
X16428D01*
X16383Y9620D02*
Y9710D01*
X16338Y10375D02*
X16428D01*
X16383Y10330D02*
Y10420D01*
X16097Y9665D02*
X16187D01*
X16142Y9620D02*
Y9710D01*
X16097Y10375D02*
X16187D01*
X16142Y10330D02*
Y10420D01*
X17908Y11392D02*
X18008D01*
X17958Y11342D02*
Y11442D01*
X17908Y11646D02*
X18008D01*
X17958Y11596D02*
Y11696D01*
X17908Y11900D02*
X18008D01*
X17958Y11850D02*
Y11950D01*
X16081Y11798D02*
X16152D01*
X16116Y11763D02*
Y11834D01*
X17744Y9944D02*
X17816D01*
X17780Y9909D02*
Y9980D01*
X13350Y12014D02*
X13421D01*
X13386Y11979D02*
Y12050D01*
X13655Y11671D02*
X13726D01*
X13691Y11636D02*
Y11707D01*
X11725Y11608D02*
X11796D01*
X11760Y11572D02*
Y11643D01*
X14379Y13221D02*
X14450D01*
X14415Y13185D02*
Y13256D01*
X14773Y12535D02*
X14844D01*
X14808Y12499D02*
Y12570D01*
X15560Y13068D02*
X15631D01*
X15596Y13033D02*
Y13104D01*
X17478Y13462D02*
X17549D01*
X17513Y13426D02*
Y13498D01*
X17783Y13043D02*
X17854D01*
X17818Y13007D02*
Y13078D01*
X15916Y12332D02*
X15987D01*
X15951Y12296D02*
Y12367D01*
X12550Y11278D02*
X12621D01*
X12586Y11242D02*
Y11313D01*
X17998Y12878D02*
X18070D01*
X18034Y12842D02*
Y12913D01*
M02*
