%FSLAX42Y42*%
%MOMM*%
G71*
G01*
G75*
G04 Layer_Color=16711935*
%ADD10C,0.30*%
%ADD11C,1.30*%
%ADD12R,1.00X1.70*%
%ADD13R,1.50X1.50*%
%ADD14R,2.35X0.50*%
%ADD15R,2.50X2.35*%
%ADD16R,1.70X1.00*%
%ADD17O,0.55X1.75*%
%ADD18O,1.75X0.55*%
%ADD19R,0.90X1.55*%
%ADD20R,2.10X1.40*%
%ADD21R,1.55X0.90*%
%ADD22O,2.40X0.35*%
%ADD23R,1.50X1.50*%
%ADD24O,2.50X1.80*%
%ADD25R,2.50X1.80*%
%ADD26C,1.50*%
%ADD27C,1.40*%
%ADD28R,2.50X2.50*%
%ADD29C,2.50*%
%ADD30R,2.50X2.50*%
%ADD31C,1.30*%
%ADD32R,1.30X1.30*%
%ADD33C,1.57*%
%ADD34R,1.57X1.57*%
%ADD35R,1.57X1.57*%
%ADD36C,6.50*%
%ADD37C,1.27*%
%ADD38C,0.80*%
%ADD39C,0.25*%
%ADD40C,0.25*%
%ADD41C,0.60*%
%ADD42C,0.15*%
%ADD43C,0.20*%
%ADD44C,0.30*%
%ADD45R,1.90X0.80*%
%ADD46R,1.20X1.90*%
%ADD47R,1.70X1.70*%
%ADD48R,2.55X0.70*%
%ADD49R,2.70X2.55*%
%ADD50R,1.90X1.20*%
%ADD51O,0.75X1.95*%
%ADD52O,1.95X0.75*%
%ADD53R,1.10X1.75*%
%ADD54R,2.30X1.60*%
%ADD55R,1.75X1.10*%
%ADD56O,2.60X0.55*%
%ADD57R,1.70X1.70*%
%ADD58O,2.70X2.00*%
%ADD59R,2.70X2.00*%
%ADD60C,1.70*%
%ADD61C,1.60*%
%ADD62R,2.70X2.70*%
%ADD63C,2.70*%
%ADD64R,2.70X2.70*%
%ADD65C,1.50*%
%ADD66R,1.50X1.50*%
%ADD67C,1.78*%
%ADD68R,1.78X1.78*%
%ADD69R,1.78X1.78*%
%ADD70C,6.70*%
%ADD71C,1.47*%
D47*
X16142Y9665D02*
D03*
X16383D02*
D03*
X17653D02*
D03*
X17894D02*
D03*
X15900Y10375D02*
D03*
X16624D02*
D03*
X17386D02*
D03*
X18148D02*
D03*
X14110Y12967D02*
D03*
X13779D02*
D03*
X13449D02*
D03*
X13119D02*
D03*
D57*
X11735Y10706D02*
D03*
X14808Y11989D02*
D03*
X17475Y12332D02*
D03*
X12423Y13246D02*
D03*
Y12946D02*
D03*
Y12645D02*
D03*
Y12344D02*
D03*
X14808Y11379D02*
D03*
Y11684D02*
D03*
X17907Y9373D02*
D03*
D58*
X17920Y12090D02*
D03*
Y11836D02*
D03*
D59*
Y11582D02*
D03*
D60*
X16142Y10375D02*
D03*
X16383D02*
D03*
X17653D02*
D03*
X17894D02*
D03*
X15900Y9665D02*
D03*
X16624D02*
D03*
X17386D02*
D03*
X18148D02*
D03*
X12243Y10706D02*
D03*
X11989D02*
D03*
X15316Y11989D02*
D03*
X15062D02*
D03*
X17221Y12332D02*
D03*
X16967D02*
D03*
X16713D02*
D03*
X16459D02*
D03*
X16205D02*
D03*
X11915Y13246D02*
D03*
X12169D02*
D03*
X11915Y12946D02*
D03*
X12169D02*
D03*
X11915Y12645D02*
D03*
X12169D02*
D03*
X11915Y12344D02*
D03*
X12169D02*
D03*
X15316Y11379D02*
D03*
X15062D02*
D03*
X15316Y11684D02*
D03*
X15062D02*
D03*
X14110Y13475D02*
D03*
Y13221D02*
D03*
X13779Y13475D02*
D03*
Y13221D02*
D03*
X13449Y13475D02*
D03*
Y13221D02*
D03*
X13119Y13475D02*
D03*
Y13221D02*
D03*
X17018Y8865D02*
D03*
X16891Y9373D02*
D03*
X16764Y8865D02*
D03*
X16637Y9373D02*
D03*
X17780Y8865D02*
D03*
X17653Y9373D02*
D03*
X17526Y8865D02*
D03*
X17399Y9373D02*
D03*
X17272Y8865D02*
D03*
X17145Y9373D02*
D03*
X16510Y8865D02*
D03*
X16383Y9373D02*
D03*
X16256Y8865D02*
D03*
X16129Y9373D02*
D03*
D61*
X17894Y10655D02*
D03*
X17132D02*
D03*
X16116D02*
D03*
X16878D02*
D03*
D62*
X18644Y11280D02*
D03*
D63*
Y11630D02*
D03*
X15034Y9398D02*
D03*
X12126Y9411D02*
D03*
D64*
X14684Y9398D02*
D03*
X11776Y9411D02*
D03*
D65*
X13497Y10516D02*
D03*
X13697D02*
D03*
X13897D02*
D03*
X13497Y10033D02*
D03*
X13697D02*
D03*
X13897D02*
D03*
D66*
X14097Y10516D02*
D03*
Y10033D02*
D03*
D67*
X19139Y9652D02*
D03*
X14580Y12586D02*
D03*
X14618Y13246D02*
D03*
X12230Y10071D02*
D03*
X11735Y11633D02*
D03*
X15049Y10579D02*
D03*
D68*
X18631Y9652D02*
D03*
X14834Y12586D02*
D03*
X11722Y10071D02*
D03*
X12243Y11633D02*
D03*
D69*
X14618Y13500D02*
D03*
X15049Y10071D02*
D03*
D70*
X18885Y10452D02*
D03*
X12979Y9411D02*
D03*
D71*
X17818Y12967D02*
D03*
X18656Y10935D02*
D03*
X17501Y13449D02*
D03*
X13983Y10858D02*
D03*
X18041Y13127D02*
D03*
X13767Y11989D02*
D03*
M02*
