%FSAX42Y42*%
%MOMM*%
G71*
G01*
G75*
G04 Layer_Physical_Order=1*
G04 Layer_Color=255*
%ADD10C,0.30*%
%ADD11C,1.30*%
%ADD12R,1.00X1.70*%
%ADD13R,1.50X1.50*%
%ADD14R,2.35X0.50*%
%ADD15R,2.50X2.35*%
%ADD16R,1.70X1.00*%
%ADD17O,0.55X1.75*%
%ADD18O,1.75X0.55*%
%ADD19R,0.90X1.55*%
%ADD20R,2.10X1.40*%
%ADD21R,1.55X0.90*%
%ADD22O,2.40X0.35*%
%ADD23R,1.50X1.50*%
%ADD24O,2.50X1.80*%
%ADD25R,2.50X1.80*%
%ADD26C,1.50*%
%ADD27C,1.40*%
%ADD28R,2.50X2.50*%
%ADD29C,2.50*%
%ADD30R,2.50X2.50*%
%ADD31C,1.30*%
%ADD32R,1.30X1.30*%
%ADD33C,1.57*%
%ADD34R,1.57X1.57*%
%ADD35R,1.57X1.57*%
%ADD36C,6.50*%
%ADD37C,1.27*%
G36*
X019108Y012117D02*
X019108Y012115D01*
X019105Y012084D01*
X019096Y012053D01*
X019081Y012025D01*
X019060Y012000D01*
X019035Y011979D01*
X019006Y011964D01*
X018979Y011955D01*
X018969Y011963D01*
Y012155D01*
X019108D01*
Y012117D01*
D02*
G37*
G36*
X017205Y010570D02*
X017201Y010542D01*
X017201Y010539D01*
X017201Y010536D01*
Y009732D01*
X017201D01*
X017204Y009685D01*
X017215Y009639D01*
X017233Y009596D01*
X017248Y009572D01*
X017245Y009569D01*
X017233Y009570D01*
X017213Y009594D01*
X017193Y009630D01*
X017182Y009669D01*
X017178Y009708D01*
X017178Y009710D01*
Y010566D01*
X017183Y010568D01*
X017194Y010577D01*
X017205Y010570D01*
D02*
G37*
G36*
X017421Y010961D02*
X017525Y010948D01*
X017626Y010925D01*
X017726Y010894D01*
X017822Y010854D01*
X017915Y010806D01*
X018002Y010750D01*
X018085Y010686D01*
X018160Y010618D01*
X018161Y010615D01*
X018161Y010615D01*
X018163Y010614D01*
X018188Y010584D01*
X018207Y010548D01*
X018219Y010509D01*
X018221Y010490D01*
X018212Y010480D01*
X018043D01*
Y010270D01*
X018224D01*
X018227Y009752D01*
X018216Y009746D01*
X018201Y009757D01*
X018176Y009768D01*
X018148Y009771D01*
X018121Y009768D01*
X018095Y009757D01*
X018073Y009740D01*
X018057Y009718D01*
X018054Y009711D01*
X017999D01*
Y009770D01*
X017789D01*
Y009619D01*
X017770Y009588D01*
X017758Y009591D01*
Y009770D01*
X017548D01*
Y009711D01*
X017481D01*
X017478Y009718D01*
X017461Y009740D01*
X017439Y009757D01*
X017414Y009768D01*
X017386Y009771D01*
X017359Y009768D01*
X017333Y009757D01*
X017311Y009740D01*
X017305Y009731D01*
X017292Y009735D01*
Y010270D01*
X017491D01*
Y010480D01*
X017292D01*
Y010532D01*
X017305Y010615D01*
X017305Y010618D01*
X017305Y010622D01*
X017305D01*
X017301Y010664D01*
X017289Y010706D01*
X017268Y010744D01*
X017241Y010777D01*
X017241Y010777D01*
X017183Y010835D01*
X017183Y010835D01*
X017129Y010883D01*
X017069Y010923D01*
X017008Y010953D01*
X017011Y010965D01*
X017317D01*
X017320Y010966D01*
X017421Y010961D01*
D02*
G37*
G36*
X018659Y011952D02*
X018544D01*
Y012155D01*
X018659D01*
Y011952D01*
D02*
G37*
G36*
X013798Y011898D02*
X013854Y011859D01*
X013914Y011826D01*
X013978Y011799D01*
X014043Y011780D01*
X014068Y011776D01*
X014073Y011765D01*
X014065Y011753D01*
X014063Y011744D01*
X014179D01*
Y011718D01*
X014063D01*
X014065Y011709D01*
X014077Y011691D01*
X014065Y011673D01*
X014061Y011651D01*
X014065Y011629D01*
X014071Y011620D01*
X014067Y011608D01*
X014049Y011601D01*
X014024Y011581D01*
X014004Y011555D01*
X013992Y011525D01*
X013987Y011493D01*
X013988D01*
Y011394D01*
X013991Y011377D01*
X013994Y011372D01*
X013992Y011361D01*
X013981Y011354D01*
X013970Y011357D01*
X013965Y011368D01*
X013948Y011392D01*
X013924Y011409D01*
X013897Y011421D01*
X013868Y011424D01*
Y011424D01*
X013189D01*
X013185Y011425D01*
X013168Y011422D01*
X013166Y011422D01*
X013164Y011433D01*
X013152Y011451D01*
X013164Y011469D01*
X013168Y011491D01*
X013164Y011513D01*
X013152Y011531D01*
X013164Y011549D01*
X013168Y011571D01*
X013164Y011593D01*
X013152Y011611D01*
X013164Y011629D01*
X013168Y011651D01*
X013164Y011673D01*
X013160Y011679D01*
X013165Y011691D01*
X013261Y011703D01*
X013364Y011726D01*
X013466Y011758D01*
X013564Y011799D01*
X013658Y011848D01*
X013739Y011899D01*
X013742Y011898D01*
X013767Y011894D01*
X013791Y011898D01*
X013797Y011900D01*
X013798Y011898D01*
D02*
G37*
G36*
X013919Y011006D02*
Y011006D01*
X013919D01*
X013921Y011007D01*
X013951Y011004D01*
X013981Y010995D01*
X014009Y010980D01*
X014032Y010960D01*
X014033Y010959D01*
D01*
X014033D01*
Y010959D01*
X014033Y010959D01*
X014079Y010919D01*
X014132Y010887D01*
X014189Y010863D01*
X014249Y010849D01*
X014310Y010844D01*
Y010844D01*
X015720D01*
X015722Y010832D01*
X015621Y010803D01*
X015511Y010763D01*
X015404Y010714D01*
X015302Y010656D01*
X015204Y010591D01*
X015169Y010563D01*
X015164Y010566D01*
X014941D01*
X014944Y010551D01*
X014955Y010524D01*
X014972Y010502D01*
X014995Y010484D01*
X015021Y010473D01*
X015043Y010470D01*
X015047Y010458D01*
X015031Y010444D01*
Y010444D01*
X015031Y010444D01*
X015026Y010439D01*
D01*
X015026Y010439D01*
X015026Y010439D01*
D01*
X015024Y010436D01*
X014935Y010353D01*
X014838Y010275D01*
X014735Y010203D01*
X014628Y010140D01*
X014516Y010084D01*
X014401Y010036D01*
X014282Y009997D01*
X014202Y009976D01*
X014192Y009984D01*
Y010128D01*
X014002D01*
Y010060D01*
X013990Y010058D01*
X013980Y010081D01*
X013965Y010101D01*
X013945Y010116D01*
X013922Y010126D01*
X013910Y010127D01*
Y010033D01*
X013884D01*
Y010127D01*
X013872Y010126D01*
X013872Y010125D01*
X013865Y010136D01*
X013991Y010262D01*
X013992Y010263D01*
X014012Y010279D01*
X014037Y010289D01*
X014062Y010292D01*
X014063Y010292D01*
X014063D01*
Y010292D01*
X014106Y010296D01*
X014147Y010308D01*
X014185Y010329D01*
X014218Y010356D01*
X014219Y010356D01*
X014240Y010383D01*
X014253Y010416D01*
X014257Y010450D01*
X014257D01*
Y010569D01*
X014257D01*
X014253Y010603D01*
X014240Y010635D01*
X014219Y010663D01*
X014219Y010663D01*
X014179Y010695D01*
X014133Y010720D01*
X014084Y010735D01*
X014033Y010740D01*
Y010739D01*
X013694D01*
X013693Y010739D01*
X013672Y010742D01*
X013651Y010750D01*
X013635Y010763D01*
X013634Y010764D01*
X013633Y010765D01*
X013611Y010792D01*
X013608Y010796D01*
X013615Y010807D01*
X013627D01*
Y010922D01*
X013652D01*
Y010807D01*
X013720D01*
Y010807D01*
X013720D01*
X013720Y010807D01*
X013725D01*
Y010807D01*
X013885D01*
Y010818D01*
X013897Y010820D01*
X013901Y010811D01*
X013916Y010792D01*
X013936Y010777D01*
X013958Y010767D01*
X013970Y010766D01*
Y010858D01*
Y010951D01*
X013958Y010950D01*
X013936Y010940D01*
X013916Y010925D01*
X013901Y010906D01*
X013897Y010897D01*
X013885Y010899D01*
Y010979D01*
X013885Y010980D01*
X013889Y010998D01*
X013889Y010999D01*
X013897Y011009D01*
X013919Y011006D01*
D02*
G37*
G36*
X017082Y010568D02*
X017086Y010566D01*
Y009710D01*
X017086D01*
X017090Y009663D01*
X017101Y009617D01*
X017119Y009574D01*
X017144Y009534D01*
X017174Y009498D01*
X017174Y009498D01*
X017176Y009497D01*
X017188Y009482D01*
X017180Y009472D01*
X017172Y009475D01*
X017145Y009479D01*
X017118Y009475D01*
X017110Y009472D01*
X017086Y009501D01*
X017066Y009537D01*
X017055Y009576D01*
X017051Y009615D01*
X017051Y009617D01*
Y010577D01*
X017063Y010583D01*
X017082Y010568D01*
D02*
G37*
G36*
X018987Y013217D02*
X019015Y013209D01*
X019041Y013195D01*
X019064Y013176D01*
X019083Y013153D01*
X019097Y013127D01*
X019106Y013099D01*
X019108Y013070D01*
X019108Y013069D01*
Y013016D01*
X018969D01*
Y013210D01*
X018978Y013218D01*
X018987Y013217D01*
D02*
G37*
G36*
X013519Y010769D02*
X013541Y010732D01*
X013569Y010699D01*
X013569Y010699D01*
X013570Y010699D01*
X013596Y010677D01*
X013626Y010661D01*
X013659Y010651D01*
X013693Y010648D01*
X013694Y010648D01*
X014033D01*
X014034Y010648D01*
X014066Y010645D01*
X014098Y010635D01*
X014121Y010623D01*
X014118Y010611D01*
X014002D01*
Y010543D01*
X013990Y010540D01*
X013980Y010564D01*
X013965Y010583D01*
X013945Y010599D01*
X013922Y010608D01*
X013910Y010610D01*
Y010516D01*
Y010421D01*
X013922Y010423D01*
X013945Y010433D01*
X013965Y010448D01*
X013980Y010468D01*
X013990Y010491D01*
X014002Y010488D01*
Y010421D01*
X014134D01*
X014138Y010409D01*
X014127Y010400D01*
X014096Y010387D01*
X014065Y010383D01*
X014063Y010384D01*
X014063D01*
Y010384D01*
X014025Y010380D01*
X013989Y010369D01*
X013955Y010351D01*
X013926Y010327D01*
X013926Y010327D01*
X013926Y010327D01*
X013724Y010125D01*
X013722Y010126D01*
X013697Y010129D01*
X013672Y010126D01*
X013649Y010116D01*
X013629Y010101D01*
X013614Y010081D01*
X013604Y010058D01*
X013603Y010049D01*
X013591D01*
X013590Y010058D01*
X013580Y010081D01*
X013565Y010101D01*
X013545Y010116D01*
X013522Y010126D01*
X013497Y010129D01*
X013472Y010126D01*
X013470Y010125D01*
X013401Y010194D01*
X013399Y010195D01*
X013375Y010225D01*
X013356Y010261D01*
X013344Y010300D01*
X013340Y010339D01*
X013340Y010341D01*
Y010430D01*
X013353Y010433D01*
X013355Y010429D01*
X013374Y010405D01*
X013398Y010386D01*
X013425Y010372D01*
X013454Y010363D01*
X013483Y010360D01*
X013484Y010360D01*
X013522D01*
X013539Y010363D01*
X013545Y010367D01*
X013575Y010374D01*
X013618Y010392D01*
X013657Y010416D01*
X013668Y010425D01*
X013672Y010423D01*
X013697Y010420D01*
X013722Y010423D01*
X013745Y010433D01*
X013765Y010448D01*
X013780Y010468D01*
X013790Y010491D01*
X013791Y010499D01*
X013803D01*
X013804Y010491D01*
X013814Y010468D01*
X013829Y010448D01*
X013849Y010433D01*
X013872Y010423D01*
X013884Y010421D01*
Y010516D01*
Y010610D01*
X013872Y010608D01*
X013849Y010599D01*
X013829Y010583D01*
X013814Y010564D01*
X013804Y010540D01*
X013803Y010532D01*
X013791D01*
X013790Y010540D01*
X013780Y010564D01*
X013765Y010583D01*
X013745Y010599D01*
X013722Y010608D01*
X013697Y010611D01*
X013672Y010608D01*
X013649Y010599D01*
X013629Y010583D01*
X013614Y010564D01*
X013604Y010540D01*
X013603Y010532D01*
X013591D01*
X013590Y010540D01*
X013580Y010564D01*
X013565Y010583D01*
X013545Y010599D01*
X013522Y010608D01*
X013500Y010611D01*
Y010781D01*
X013513Y010783D01*
X013519Y010769D01*
D02*
G37*
G36*
X018234Y013016D02*
X018159D01*
X018147Y013014D01*
X018137Y013007D01*
X018131Y012997D01*
X018128Y012986D01*
Y012801D01*
X018087D01*
Y013045D01*
X018089Y013046D01*
X018108Y013061D01*
X018123Y013080D01*
X018133Y013103D01*
X018136Y013127D01*
X018133Y013152D01*
X018123Y013174D01*
X018108Y013194D01*
X018090Y013208D01*
X018094Y013220D01*
X018234D01*
Y013016D01*
D02*
G37*
G36*
X012785Y012659D02*
X012796Y012613D01*
X012814Y012570D01*
X012838Y012530D01*
X012869Y012494D01*
X012869Y012494D01*
X012869Y012494D01*
X013082Y012281D01*
X013077Y012270D01*
X012989D01*
X012967Y012265D01*
X012948Y012252D01*
X012935Y012233D01*
X012931Y012211D01*
X012933Y012198D01*
X012924Y012190D01*
X012917Y012192D01*
X012881Y012211D01*
X012850Y012236D01*
X012849Y012238D01*
X012849Y012238D01*
X012847Y012239D01*
X012808Y012284D01*
X012774Y012336D01*
X012746Y012391D01*
X012726Y012450D01*
X012714Y012511D01*
X012710Y012570D01*
X012711Y012572D01*
Y012663D01*
X012711D01*
X012711Y012666D01*
X012719Y012676D01*
X012719Y012676D01*
X012719Y012676D01*
X012720Y012676D01*
X012783D01*
X012785Y012659D01*
D02*
G37*
G36*
X015095Y013388D02*
X015098Y013369D01*
X015108Y013355D01*
X015098Y013341D01*
X015095Y013323D01*
X015098Y013304D01*
X015108Y013290D01*
X015098Y013276D01*
X015095Y013258D01*
X015098Y013239D01*
X015096Y013232D01*
X015047Y013223D01*
X014989Y013203D01*
X014935Y013176D01*
X014884Y013142D01*
X014838Y013102D01*
X014838Y013102D01*
X014838Y013102D01*
X014085Y012349D01*
X014073Y012354D01*
Y012433D01*
X014078Y012446D01*
X014099Y012472D01*
X014101Y012474D01*
X014940Y013313D01*
X014941Y013315D01*
X014978Y013346D01*
X015021Y013372D01*
X015067Y013392D01*
X015086Y013396D01*
X015095Y013388D01*
D02*
G37*
G36*
X018659Y013016D02*
X018544D01*
Y013220D01*
X018659D01*
Y013016D01*
D02*
G37*
G36*
X013752Y012262D02*
X013774Y012257D01*
X013797Y012262D01*
X013814Y012274D01*
X013832Y012262D01*
X013854Y012257D01*
X013877Y012262D01*
X013877Y012262D01*
X013889Y012258D01*
X013897Y012239D01*
X013911Y012222D01*
X013928Y012209D01*
X013948Y012201D01*
X013967Y012198D01*
X013969Y012198D01*
X014044D01*
X014062Y012201D01*
X014063Y012201D01*
X014065Y012189D01*
X014077Y012171D01*
X014065Y012153D01*
X014061Y012131D01*
X014065Y012109D01*
X014077Y012091D01*
X014065Y012073D01*
X014061Y012051D01*
X014065Y012029D01*
X014077Y012011D01*
X014065Y011993D01*
X014061Y011971D01*
X014065Y011949D01*
X014077Y011931D01*
X014065Y011913D01*
X014061Y011891D01*
X014063Y011881D01*
X014054Y011872D01*
X014045Y011874D01*
X013980Y011896D01*
X013919Y011926D01*
X013863Y011964D01*
X013858Y011968D01*
X013861Y011989D01*
X013858Y012013D01*
X013848Y012036D01*
X013833Y012055D01*
X013814Y012070D01*
X013791Y012080D01*
X013767Y012083D01*
X013752Y012081D01*
X013729Y012116D01*
X013699Y012177D01*
X013677Y012241D01*
X013675Y012250D01*
X013684Y012259D01*
X013694Y012257D01*
X013717Y012262D01*
X013734Y012274D01*
X013752Y012262D01*
D02*
G37*
G36*
X013547Y012260D02*
X013557Y012262D01*
X013568Y012269D01*
X013580Y012264D01*
X013584Y012240D01*
X013603Y012174D01*
X013629Y012111D01*
X013662Y012051D01*
X013681Y012025D01*
X013676Y012013D01*
X013672Y011989D01*
X013675Y011967D01*
X013612Y011927D01*
X013525Y011882D01*
X013434Y011844D01*
X013341Y011815D01*
X013245Y011793D01*
X013173Y011784D01*
X013164Y011793D01*
X013165Y011798D01*
X013049D01*
Y011824D01*
X013165D01*
X013164Y011833D01*
X013152Y011851D01*
X013164Y011869D01*
X013168Y011891D01*
X013164Y011913D01*
X013152Y011931D01*
X013164Y011949D01*
X013168Y011971D01*
X013164Y011993D01*
X013152Y012011D01*
X013164Y012029D01*
X013168Y012051D01*
X013164Y012073D01*
X013152Y012091D01*
X013164Y012109D01*
X013168Y012131D01*
X013164Y012153D01*
X013152Y012171D01*
X013164Y012189D01*
X013166Y012201D01*
X013167Y012201D01*
X013184Y012198D01*
X013404D01*
X013406Y012198D01*
X013427Y012201D01*
X013449Y012210D01*
X013467Y012224D01*
X013481Y012242D01*
X013490Y012263D01*
X013490Y012264D01*
X013501Y012269D01*
X013512Y012262D01*
X013522Y012260D01*
Y012376D01*
X013547D01*
Y012260D01*
D02*
G37*
G36*
X017548Y009560D02*
X017607D01*
Y009467D01*
X017600Y009464D01*
X017578Y009447D01*
X017561Y009426D01*
X017551Y009400D01*
X017547Y009373D01*
X017551Y009345D01*
X017561Y009320D01*
X017578Y009298D01*
X017600Y009281D01*
X017626Y009270D01*
X017653Y009267D01*
X017680Y009270D01*
X017706Y009281D01*
X017723Y009294D01*
X017734Y009288D01*
Y008959D01*
X017727Y008956D01*
X017705Y008939D01*
X017688Y008918D01*
X017678Y008892D01*
X017674Y008865D01*
X017678Y008837D01*
X017688Y008812D01*
X017705Y008790D01*
X017722Y008777D01*
X017718Y008765D01*
X017588D01*
X017584Y008777D01*
X017601Y008790D01*
X017618Y008812D01*
X017628Y008837D01*
X017632Y008865D01*
X017628Y008892D01*
X017618Y008918D01*
X017601Y008939D01*
X017579Y008956D01*
X017553Y008967D01*
X017526Y008971D01*
X017499Y008967D01*
X017473Y008956D01*
X017451Y008939D01*
X017434Y008918D01*
X017424Y008892D01*
X017420Y008865D01*
X017424Y008837D01*
X017434Y008812D01*
X017451Y008790D01*
X017468Y008777D01*
X017464Y008765D01*
X017334D01*
X017330Y008777D01*
X017347Y008790D01*
X017364Y008812D01*
X017374Y008837D01*
X017378Y008865D01*
X017374Y008892D01*
X017364Y008918D01*
X017347Y008939D01*
X017325Y008956D01*
X017318Y008959D01*
Y009288D01*
X017329Y009294D01*
X017346Y009281D01*
X017372Y009270D01*
X017399Y009267D01*
X017426Y009270D01*
X017452Y009281D01*
X017474Y009298D01*
X017491Y009320D01*
X017501Y009345D01*
X017505Y009373D01*
X017501Y009400D01*
X017491Y009426D01*
X017474Y009447D01*
X017452Y009464D01*
X017426Y009475D01*
X017425Y009475D01*
X017413Y009505D01*
X017389Y009544D01*
X017386Y009548D01*
X017390Y009560D01*
X017414Y009563D01*
X017439Y009574D01*
X017461Y009590D01*
X017478Y009612D01*
X017481Y009619D01*
X017548D01*
Y009560D01*
D02*
G37*
G36*
X016747Y013465D02*
X016818Y013451D01*
X016887Y013428D01*
X016953Y013395D01*
X017013Y013355D01*
X017016Y013353D01*
X017011Y013341D01*
X016943D01*
Y013279D01*
X016904D01*
Y013338D01*
X016694D01*
Y013128D01*
X016904D01*
Y013188D01*
X016943D01*
Y013126D01*
X017093D01*
Y013126D01*
X017093D01*
X017093Y013126D01*
X017098D01*
Y013126D01*
X017127D01*
Y013074D01*
X017102D01*
X017102Y013074D01*
Y013074D01*
X017098Y013074D01*
X017096D01*
X017093D01*
X017089Y013074D01*
X017089Y013074D01*
Y013074D01*
X016943D01*
Y013013D01*
X016904D01*
Y013072D01*
X016694D01*
Y012862D01*
X016904D01*
Y012921D01*
X016943D01*
Y012859D01*
X017089D01*
X017089Y012859D01*
Y012859D01*
X017093Y012859D01*
X017096D01*
X017098D01*
X017102Y012859D01*
X017102Y012859D01*
Y012859D01*
X017248D01*
Y013074D01*
X017219D01*
Y013126D01*
X017248D01*
Y013220D01*
X017863D01*
Y013191D01*
X017958D01*
X017964Y013179D01*
X017960Y013174D01*
X017950Y013152D01*
X017947Y013127D01*
X017950Y013103D01*
X017960Y013080D01*
X017975Y013061D01*
X017994Y013046D01*
X017996Y013045D01*
Y012801D01*
X017894D01*
Y012721D01*
X017894D01*
Y012719D01*
X017641D01*
Y012852D01*
X017641Y012852D01*
D01*
D01*
X017641Y012856D01*
Y012857D01*
Y012859D01*
X017641Y012861D01*
D01*
X017641Y012865D01*
X017641Y012865D01*
X017641D01*
Y012929D01*
X017411D01*
Y012865D01*
X017411Y012865D01*
X017411D01*
X017411Y012861D01*
Y012859D01*
Y012856D01*
X017411Y012852D01*
X017411Y012852D01*
X017411D01*
Y012784D01*
X016103D01*
X016097Y012790D01*
X015797D01*
X015798Y012784D01*
X015808Y012770D01*
X015798Y012756D01*
X015795Y012738D01*
X015798Y012719D01*
X015808Y012705D01*
X015798Y012691D01*
X015795Y012673D01*
X015798Y012654D01*
X015808Y012640D01*
X015798Y012626D01*
X015795Y012608D01*
X015798Y012589D01*
X015809Y012573D01*
X015825Y012563D01*
X015843Y012559D01*
X015931D01*
X015940Y012553D01*
X015958Y012550D01*
X017894D01*
Y012531D01*
Y012518D01*
X018041D01*
Y012493D01*
X017894D01*
Y012451D01*
Y012371D01*
X018128D01*
Y012186D01*
X018131Y012174D01*
X018137Y012164D01*
X018147Y012157D01*
X018159Y012155D01*
X018234D01*
Y011962D01*
X018225Y011953D01*
X018204Y011955D01*
X018156Y011966D01*
X018111Y011985D01*
X018069Y012011D01*
X018054Y012023D01*
X018060Y012030D01*
X018072Y012059D01*
X018076Y012090D01*
X018072Y012122D01*
X018060Y012151D01*
X018040Y012176D01*
X018015Y012195D01*
X017986Y012207D01*
X017955Y012211D01*
X017902D01*
X017658Y012455D01*
X017658Y012455D01*
X017657Y012456D01*
X017632Y012476D01*
X017603Y012492D01*
X017572Y012501D01*
X017539Y012504D01*
X017539Y012505D01*
X017453D01*
Y012505D01*
X017406Y012501D01*
X017361Y012490D01*
X017317Y012472D01*
X017277Y012447D01*
X017257Y012430D01*
X017249Y012434D01*
X017221Y012438D01*
X017194Y012434D01*
X017168Y012423D01*
X017146Y012407D01*
X017129Y012385D01*
X017119Y012359D01*
X017115Y012332D01*
X017119Y012304D01*
X017129Y012279D01*
X017146Y012257D01*
X017168Y012240D01*
X017175Y012237D01*
Y012198D01*
X017144D01*
Y011983D01*
X017294D01*
Y011983D01*
X017294D01*
X017294Y011983D01*
X017299D01*
Y011983D01*
X017328D01*
X017335Y011972D01*
X017317Y011941D01*
X017270Y011873D01*
X017215Y011812D01*
X017153Y011757D01*
X017086Y011709D01*
X017014Y011669D01*
X016938Y011638D01*
X016859Y011615D01*
X016791Y011604D01*
X016781Y011612D01*
Y011651D01*
X016511D01*
Y011610D01*
X015781D01*
Y011651D01*
X015511D01*
Y011610D01*
X015406D01*
X015400Y011621D01*
X015408Y011631D01*
X015418Y011657D01*
X015422Y011684D01*
X015418Y011711D01*
X015408Y011737D01*
X015391Y011759D01*
X015369Y011776D01*
X015344Y011786D01*
X015316Y011790D01*
X015289Y011786D01*
X015263Y011776D01*
X015241Y011759D01*
X015224Y011737D01*
X015214Y011711D01*
X015210Y011684D01*
X015214Y011657D01*
X015224Y011631D01*
X015232Y011621D01*
X015226Y011610D01*
X015152D01*
X015146Y011621D01*
X015154Y011631D01*
X015164Y011657D01*
X015166Y011671D01*
X014958D01*
X014960Y011657D01*
X014970Y011631D01*
X014978Y011621D01*
X014972Y011610D01*
X014913D01*
Y011789D01*
X014768D01*
X014628Y011929D01*
X014628Y011929D01*
X014628Y011929D01*
Y011929D01*
X014628Y011929D01*
X014592Y011960D01*
X014552Y011984D01*
X014532Y011993D01*
X014534Y012005D01*
X014703D01*
Y011884D01*
X014913D01*
Y012085D01*
X014995D01*
X015000Y012073D01*
X014987Y012064D01*
X014970Y012042D01*
X014960Y012016D01*
X014958Y012001D01*
X015166D01*
X015164Y012016D01*
X015154Y012042D01*
X015137Y012064D01*
X015125Y012073D01*
X015129Y012085D01*
X015249D01*
X015254Y012073D01*
X015241Y012064D01*
X015224Y012042D01*
X015214Y012016D01*
X015210Y011989D01*
X015214Y011961D01*
X015224Y011936D01*
X015241Y011914D01*
X015263Y011897D01*
X015289Y011887D01*
X015316Y011883D01*
X015344Y011887D01*
X015369Y011897D01*
X015391Y011914D01*
X015408Y011936D01*
X015418Y011961D01*
X015422Y011989D01*
X015418Y012016D01*
X015408Y012042D01*
X015391Y012064D01*
X015379Y012073D01*
X015383Y012085D01*
X015511D01*
Y012014D01*
X015781D01*
Y012085D01*
X016229D01*
X016229Y012085D01*
Y012085D01*
X016311Y012089D01*
X016391Y012103D01*
X016470Y012126D01*
X016546Y012157D01*
X016618Y012197D01*
X016672Y012235D01*
X016686Y012229D01*
X016713Y012226D01*
X016741Y012229D01*
X016766Y012240D01*
X016788Y012257D01*
X016805Y012279D01*
X016815Y012304D01*
X016819Y012332D01*
X016815Y012359D01*
X016805Y012385D01*
X016788Y012407D01*
X016766Y012423D01*
X016741Y012434D01*
X016713Y012438D01*
X016686Y012434D01*
X016660Y012423D01*
X016638Y012407D01*
X016621Y012385D01*
X016611Y012359D01*
X016607Y012332D01*
X016611Y012304D01*
X016611Y012304D01*
X016569Y012274D01*
X016559Y012269D01*
X016551Y012278D01*
X016551Y012279D01*
X016561Y012304D01*
X016565Y012332D01*
X016561Y012359D01*
X016551Y012385D01*
X016534Y012407D01*
X016512Y012423D01*
X016487Y012434D01*
X016459Y012438D01*
X016432Y012434D01*
X016406Y012423D01*
X016384Y012407D01*
X016367Y012385D01*
X016357Y012359D01*
X016353Y012332D01*
X016357Y012304D01*
X016358Y012301D01*
X016356Y012299D01*
X016312Y012275D01*
X016307Y012274D01*
X016299Y012284D01*
X016307Y012304D01*
X016311Y012332D01*
X016307Y012359D01*
X016297Y012385D01*
X016280Y012407D01*
X016258Y012423D01*
X016233Y012434D01*
X016205Y012438D01*
X016178Y012434D01*
X016152Y012423D01*
X016130Y012407D01*
X016113Y012385D01*
X016103Y012359D01*
X016099Y012332D01*
X016103Y012304D01*
X016113Y012279D01*
X016122Y012268D01*
X016116Y012257D01*
X014274D01*
X014262Y012265D01*
X014239Y012270D01*
X014152D01*
X014147Y012281D01*
X014459Y012593D01*
X014470Y012587D01*
X014470Y012586D01*
X014474Y012557D01*
X014485Y012531D01*
X014502Y012508D01*
X014525Y012491D01*
X014551Y012480D01*
X014567Y012478D01*
Y012586D01*
X014580D01*
Y012598D01*
X014688D01*
X014686Y012614D01*
X014675Y012641D01*
X014657Y012663D01*
X014634Y012681D01*
X014608Y012692D01*
X014580Y012695D01*
X014578Y012695D01*
X014572Y012707D01*
X014903Y013037D01*
X014903Y013037D01*
X014903Y013037D01*
X014904Y013039D01*
X014947Y013076D01*
X014997Y013107D01*
X015052Y013129D01*
X015086Y013137D01*
X015095Y013129D01*
X015095Y013128D01*
X015098Y013109D01*
X015108Y013095D01*
X015098Y013081D01*
X015097Y013075D01*
X015394D01*
X015393Y013081D01*
X015384Y013095D01*
X015393Y013109D01*
X015397Y013128D01*
X015393Y013146D01*
X015384Y013160D01*
X015393Y013174D01*
X015397Y013193D01*
X015393Y013211D01*
X015392Y013212D01*
X015396Y013224D01*
X015401Y013227D01*
X015424Y013244D01*
X015442Y013267D01*
X015453Y013294D01*
X015457Y013322D01*
X015456D01*
Y013469D01*
X015788D01*
X015796Y013460D01*
X015795Y013453D01*
X015798Y013434D01*
X015808Y013420D01*
X015798Y013406D01*
X015795Y013388D01*
X015798Y013369D01*
X015808Y013355D01*
X015798Y013341D01*
X015797Y013335D01*
X016094D01*
X016093Y013341D01*
X016084Y013355D01*
X016093Y013369D01*
X016097Y013388D01*
X016093Y013406D01*
X016084Y013420D01*
X016093Y013434D01*
X016097Y013453D01*
X016095Y013460D01*
X016103Y013469D01*
X016674D01*
X016677Y013470D01*
X016747Y013465D01*
D02*
G37*
G36*
X018057Y009612D02*
X018073Y009590D01*
X018095Y009574D01*
X018121Y009563D01*
X018148Y009559D01*
X018176Y009563D01*
X018201Y009574D01*
X018217Y009585D01*
X018228Y009580D01*
X018229Y009370D01*
X018226Y009365D01*
X018222Y009347D01*
X018222D01*
X018223Y009347D01*
X018218Y009275D01*
X018204Y009204D01*
X018181Y009135D01*
X018149Y009070D01*
X018109Y009010D01*
X018063Y008957D01*
X018060Y008956D01*
X017930Y008826D01*
X017929Y008824D01*
X017899Y008799D01*
X017863Y008780D01*
X017859Y008785D01*
X017855Y008790D01*
X017872Y008812D01*
X017882Y008837D01*
X017886Y008865D01*
X017882Y008892D01*
X017872Y008918D01*
X017855Y008939D01*
X017833Y008956D01*
X017826Y008959D01*
Y009268D01*
X017894D01*
Y009373D01*
Y009478D01*
X017837D01*
X017837Y009478D01*
X017830Y009488D01*
X017841Y009526D01*
X017860Y009560D01*
X017999D01*
Y009619D01*
X018054D01*
X018057Y009612D01*
D02*
G37*
G36*
X014988Y013457D02*
X014960Y013443D01*
X014916Y013413D01*
X014875Y013378D01*
X014875Y013378D01*
X014739Y013242D01*
X014727Y013246D01*
X014724Y013274D01*
X014713Y013301D01*
X014695Y013324D01*
X014673Y013341D01*
X014646Y013352D01*
X014630Y013354D01*
Y013246D01*
X014618D01*
Y013233D01*
X014510D01*
X014512Y013218D01*
X014523Y013191D01*
X014540Y013169D01*
X014563Y013151D01*
X014589Y013140D01*
X014618Y013136D01*
X014622Y013124D01*
X014036Y012539D01*
X014036Y012539D01*
X014007Y012504D01*
X014001Y012492D01*
X013992Y012490D01*
X013974Y012478D01*
X013957Y012490D01*
X013934Y012495D01*
X013920Y012492D01*
X013911Y012501D01*
X013919Y012546D01*
X013942Y012629D01*
X013975Y012708D01*
X014017Y012783D01*
X014066Y012853D01*
X014074Y012862D01*
X014215D01*
Y013072D01*
X014005D01*
Y012921D01*
X014003Y012919D01*
X013953Y012851D01*
X013909Y012779D01*
X013874Y012703D01*
X013845Y012624D01*
X013833Y012575D01*
X013820Y012577D01*
Y012862D01*
X013885D01*
Y013072D01*
X013674D01*
Y012862D01*
X013729D01*
Y012735D01*
X013716Y012732D01*
X013708Y012753D01*
X013683Y012793D01*
X013652Y012828D01*
X013652Y012828D01*
X013554Y012927D01*
Y013072D01*
X013375D01*
Y013131D01*
X013387Y013136D01*
X013396Y013129D01*
X013422Y013118D01*
X013437Y013116D01*
Y013221D01*
Y013325D01*
X013422Y013323D01*
X013397Y013313D01*
X013388Y013321D01*
X013390Y013329D01*
X013410Y013365D01*
X013417Y013374D01*
X013422Y013372D01*
X013449Y013369D01*
X013477Y013372D01*
X013502Y013383D01*
X013524Y013400D01*
X013541Y013422D01*
X013544Y013429D01*
X013685D01*
X013688Y013422D01*
X013705Y013400D01*
X013727Y013383D01*
X013752Y013372D01*
X013779Y013369D01*
X013807Y013372D01*
X013832Y013383D01*
X013854Y013400D01*
X013871Y013422D01*
X013874Y013429D01*
X014015D01*
X014018Y013422D01*
X014035Y013400D01*
X014057Y013383D01*
X014082Y013372D01*
X014110Y013369D01*
X014137Y013372D01*
X014163Y013383D01*
X014185Y013400D01*
X014201Y013422D01*
X014212Y013447D01*
X014215Y013469D01*
X014509D01*
Y013391D01*
X014726D01*
Y013469D01*
X014985D01*
X014988Y013457D01*
D02*
G37*
G36*
X019227Y013598D02*
X019275Y013584D01*
X019319Y013560D01*
X019357Y013528D01*
X019389Y013489D01*
X019413Y013445D01*
X019427Y013397D01*
X019432Y013348D01*
X019431Y009703D01*
Y008877D01*
X019431D01*
X019432Y008876D01*
X019427Y008828D01*
X019413Y008780D01*
X019389Y008736D01*
X019357Y008697D01*
X019319Y008665D01*
X019275Y008641D01*
X019227Y008627D01*
X019177Y008622D01*
X017920Y008622D01*
X017917Y008635D01*
X017944Y008646D01*
X017984Y008670D01*
X018020Y008701D01*
X018020Y008701D01*
X018175Y008856D01*
X018175Y008856D01*
X018176Y008856D01*
X018229Y008916D01*
X018275Y008981D01*
X018314Y009051D01*
X018345Y009125D01*
X018367Y009202D01*
X018380Y009282D01*
X018385Y009362D01*
X018385D01*
Y010453D01*
X018385D01*
X018380Y010511D01*
X018367Y010568D01*
X018344Y010622D01*
X018314Y010671D01*
X018276Y010716D01*
X018276Y010715D01*
X018266Y010726D01*
X018266Y010726D01*
X018188Y010798D01*
X018105Y010863D01*
X018017Y010922D01*
X017925Y010974D01*
X017829Y011018D01*
X017729Y011054D01*
X017628Y011083D01*
X017524Y011104D01*
X017419Y011116D01*
X017313Y011120D01*
Y011120D01*
X014740D01*
X014738Y011120D01*
X014653Y011124D01*
X014567Y011137D01*
X014482Y011158D01*
X014400Y011187D01*
X014321Y011225D01*
X014247Y011269D01*
X014177Y011321D01*
X014155Y011341D01*
X014160Y011352D01*
X014239D01*
X014262Y011357D01*
X014274Y011365D01*
X014703D01*
Y011274D01*
X014913D01*
Y011484D01*
X014703D01*
Y011457D01*
X014299D01*
X014293Y011468D01*
X014294Y011469D01*
X014298Y011491D01*
X014294Y011513D01*
X014282Y011531D01*
X014294Y011549D01*
X014298Y011571D01*
X014311Y011574D01*
X014324Y011558D01*
X014338Y011547D01*
Y011477D01*
X014440D01*
Y011557D01*
X014453D01*
Y011570D01*
X014568D01*
Y011637D01*
D01*
Y011637D01*
X014568Y011637D01*
Y011642D01*
X014568D01*
Y011741D01*
X014580Y011744D01*
X014595Y011717D01*
X014607Y011678D01*
X014610Y011639D01*
X014610Y011637D01*
X014610D01*
X014614Y011606D01*
X014626Y011577D01*
X014645Y011553D01*
X014669Y011534D01*
X014698Y011522D01*
X014729Y011518D01*
Y011518D01*
X015511D01*
Y011451D01*
X015781D01*
Y011518D01*
X016511D01*
Y011451D01*
X016781D01*
Y011510D01*
X016856Y011521D01*
X016935Y011541D01*
X017011Y011568D01*
X017084Y011603D01*
X017154Y011645D01*
X017219Y011693D01*
X017279Y011747D01*
X017334Y011808D01*
X017382Y011873D01*
X017424Y011942D01*
X017443Y011983D01*
X017449D01*
Y011995D01*
X017458Y012016D01*
X017486Y012092D01*
X017505Y012171D01*
X017514Y012227D01*
X017580D01*
Y012386D01*
X017592Y012392D01*
X017593Y012391D01*
X017593Y012390D01*
X017593D01*
X017593Y012390D01*
X017593Y012390D01*
X017800Y012184D01*
X017799Y012176D01*
X017780Y012151D01*
X017768Y012122D01*
X017764Y012090D01*
X017768Y012059D01*
X017780Y012030D01*
X017799Y012005D01*
X017824Y011986D01*
X017853Y011973D01*
X017882Y011970D01*
Y011957D01*
X017853Y011953D01*
X017824Y011941D01*
X017799Y011922D01*
X017780Y011897D01*
X017768Y011868D01*
X017765Y011849D01*
X018074D01*
X018072Y011868D01*
X018062Y011891D01*
X018068Y011902D01*
X018070Y011903D01*
X018128Y011879D01*
X018189Y011864D01*
X018252Y011859D01*
Y011860D01*
X018943D01*
Y011859D01*
X018993Y011864D01*
X019042Y011879D01*
X019086Y011903D01*
X019125Y011935D01*
X019157Y011974D01*
X019181Y012018D01*
X019195Y012066D01*
X019200Y012117D01*
X019200D01*
Y013069D01*
X019200D01*
X019196Y013117D01*
X019182Y013162D01*
X019159Y013204D01*
X019129Y013241D01*
X019092Y013271D01*
X019050Y013293D01*
X019005Y013307D01*
X018958Y013312D01*
Y013312D01*
X018682D01*
Y013312D01*
Y013319D01*
X018682Y013321D01*
X018682Y013321D01*
X018682D01*
Y013411D01*
X018472D01*
Y013321D01*
X018472Y013321D01*
X018472D01*
X018472Y013319D01*
X018465Y013312D01*
X018332D01*
Y013312D01*
Y013319D01*
X018332Y013321D01*
X018332Y013321D01*
X018332D01*
Y013529D01*
X018122D01*
Y013467D01*
X018078D01*
Y013496D01*
X017863D01*
Y013350D01*
X017863Y013350D01*
X017863D01*
X017863Y013346D01*
Y013343D01*
Y013341D01*
X017863Y013337D01*
X017863Y013337D01*
X017863D01*
Y013312D01*
X017248D01*
Y013341D01*
X017163D01*
X017133Y013371D01*
X017133Y013371D01*
X017078Y013420D01*
X017019Y013462D01*
X016955Y013497D01*
X016888Y013525D01*
X016818Y013545D01*
X016746Y013557D01*
X016674Y013561D01*
Y013561D01*
X015418D01*
Y013561D01*
X015417Y013561D01*
X014726D01*
Y013593D01*
Y013593D01*
X014735Y013602D01*
X018885Y013602D01*
X019177D01*
Y013602D01*
X019178Y013603D01*
X019227Y013598D01*
D02*
G37*
G36*
X014509Y013602D02*
Y013561D01*
X014207D01*
Y013561D01*
X014174Y013558D01*
X014163Y013566D01*
X014137Y013577D01*
X014110Y013581D01*
X014082Y013577D01*
X014057Y013566D01*
X014035Y013550D01*
X014018Y013528D01*
X014015Y013521D01*
X013874D01*
X013871Y013528D01*
X013854Y013550D01*
X013832Y013566D01*
X013807Y013577D01*
X013779Y013581D01*
X013752Y013577D01*
X013727Y013566D01*
X013705Y013550D01*
X013688Y013528D01*
X013685Y013521D01*
X013544D01*
X013541Y013528D01*
X013524Y013550D01*
X013502Y013566D01*
X013477Y013577D01*
X013449Y013581D01*
X013422Y013577D01*
X013396Y013566D01*
X013374Y013550D01*
X013358Y013528D01*
X013347Y013502D01*
X013343Y013475D01*
X013347Y013447D01*
X013351Y013438D01*
X013341Y013426D01*
X013316Y013386D01*
X013298Y013342D01*
X013287Y013296D01*
X013283Y013249D01*
X013283D01*
Y012880D01*
X013272Y012876D01*
X013252Y012898D01*
X013252Y012898D01*
X013224Y012927D01*
Y013072D01*
X013014D01*
Y012862D01*
X013159D01*
X013188Y012833D01*
X013189Y012832D01*
X013214Y012802D01*
X013233Y012766D01*
X013245Y012727D01*
X013249Y012688D01*
X013249Y012686D01*
Y012496D01*
X013237Y012490D01*
X013237Y012490D01*
X013214Y012495D01*
X013192Y012490D01*
X013173Y012477D01*
X013160Y012458D01*
X013156Y012436D01*
Y012354D01*
X013144Y012349D01*
X012934Y012559D01*
X012934Y012559D01*
X012934Y012559D01*
X012932Y012560D01*
X012907Y012590D01*
X012888Y012626D01*
X012876Y012665D01*
X012876Y012666D01*
X012885Y012676D01*
X012935D01*
Y012822D01*
X012935Y012822D01*
D01*
D01*
X012935Y012826D01*
Y012826D01*
Y012828D01*
X012935Y012831D01*
D01*
X012935Y012835D01*
X012935Y012835D01*
X012935D01*
Y012981D01*
X012873D01*
Y013004D01*
X012932D01*
Y013214D01*
X012722D01*
Y013004D01*
X012781D01*
Y012981D01*
X012719D01*
Y012835D01*
X012719Y012835D01*
X012719D01*
X012719Y012831D01*
Y012828D01*
Y012826D01*
X012719Y012822D01*
X012719Y012822D01*
X012719D01*
Y012746D01*
X012707Y012746D01*
X012707Y012748D01*
X012694Y012833D01*
X012673Y012916D01*
X012645Y012996D01*
X012608Y013073D01*
X012564Y013147D01*
X012528Y013195D01*
Y013351D01*
X012318D01*
Y013141D01*
X012455D01*
X012500Y013078D01*
X012509Y013061D01*
X012503Y013051D01*
X012318D01*
Y012841D01*
X012452D01*
X012483Y012795D01*
X012500Y012761D01*
X012493Y012750D01*
X012318D01*
Y012540D01*
X012460D01*
X012464Y012535D01*
X012483Y012500D01*
X012494Y012462D01*
X012494Y012459D01*
X012486Y012449D01*
X012318D01*
Y012239D01*
X012463D01*
X012755Y011948D01*
X012755Y011948D01*
X012755Y011948D01*
X012797Y011912D01*
X012844Y011883D01*
X012877Y011869D01*
X012875Y011857D01*
X012701D01*
Y011904D01*
X012598D01*
Y011824D01*
X012586D01*
Y011811D01*
X012471D01*
Y011744D01*
X012471Y011744D01*
X012471Y011739D01*
X012471D01*
Y011579D01*
X012643D01*
X012646Y011567D01*
X012617Y011546D01*
X012559Y011494D01*
X012559Y011494D01*
X012129Y011064D01*
X012117Y011068D01*
Y011080D01*
X012002D01*
X011994Y011090D01*
X011999Y011115D01*
X012018Y011184D01*
X012046Y011251D01*
X012081Y011314D01*
X012122Y011372D01*
X012168Y011424D01*
X012170Y011425D01*
X012170D01*
D01*
X012170Y011425D01*
X012270Y011524D01*
X012352D01*
Y011742D01*
X012134D01*
Y011660D01*
X012035Y011561D01*
X012035D01*
X012035D01*
X011980Y011501D01*
X011931Y011435D01*
X011889Y011365D01*
X011855Y011291D01*
X011827Y011214D01*
X011807Y011135D01*
X011795Y011054D01*
X011791Y010973D01*
X011791D01*
X011795Y010948D01*
X011804Y010925D01*
X011812Y010914D01*
Y010865D01*
X011954D01*
X011961Y010855D01*
X011958Y010846D01*
X011947Y010802D01*
X011936Y010798D01*
X011914Y010781D01*
X011897Y010759D01*
X011887Y010734D01*
X011883Y010706D01*
X011887Y010679D01*
X011897Y010653D01*
X011914Y010631D01*
X011936Y010614D01*
X011961Y010604D01*
X011989Y010600D01*
X012016Y010604D01*
X012042Y010614D01*
X012064Y010631D01*
X012081Y010653D01*
X012091Y010679D01*
X012095Y010706D01*
X012091Y010734D01*
X012081Y010759D01*
X012064Y010781D01*
X012042Y010798D01*
X012040Y010799D01*
X012050Y010833D01*
X012067Y010865D01*
X012117D01*
Y010922D01*
X012624Y011429D01*
X012625Y011431D01*
X012674Y011474D01*
X012729Y011513D01*
X012788Y011546D01*
X012851Y011572D01*
X012915Y011591D01*
X012924Y011592D01*
X012933Y011583D01*
X012931Y011571D01*
X012935Y011549D01*
X012947Y011531D01*
X012935Y011513D01*
X012931Y011491D01*
X012935Y011469D01*
X012947Y011451D01*
X012935Y011433D01*
X012931Y011411D01*
X012935Y011389D01*
X012948Y011370D01*
X012967Y011357D01*
X012989Y011352D01*
X013089D01*
X013097Y011343D01*
X013096Y011336D01*
Y010478D01*
X013096Y010478D01*
X013096D01*
X013100Y010395D01*
X013112Y010313D01*
X013132Y010233D01*
X013160Y010155D01*
X013195Y010080D01*
X013238Y010009D01*
X013287Y009943D01*
X013343Y009882D01*
X013343Y009882D01*
X013343Y009882D01*
X013352Y009873D01*
X013359Y009863D01*
X013359Y009863D01*
X013395Y009832D01*
X013435Y009807D01*
X013478Y009789D01*
X013524Y009778D01*
X013571Y009775D01*
Y009775D01*
X013796D01*
Y009774D01*
X013931Y009779D01*
X014064Y009794D01*
X014197Y009817D01*
X014327Y009851D01*
X014455Y009893D01*
X014579Y009945D01*
X014699Y010005D01*
X014815Y010074D01*
X014926Y010150D01*
X014929Y010153D01*
X014941Y010148D01*
Y009962D01*
X015158D01*
Y010180D01*
X014981D01*
X014977Y010192D01*
X015030Y010235D01*
X015129Y010326D01*
X015129Y010327D01*
X015129Y010327D01*
X015129Y010327D01*
D01*
X015129Y010327D01*
X015130Y010329D01*
X015206Y010399D01*
X015290Y010466D01*
X015379Y010525D01*
X015472Y010577D01*
X015569Y010622D01*
X015669Y010659D01*
X015772Y010688D01*
X015876Y010708D01*
X015982Y010721D01*
X016027Y010723D01*
X016033Y010711D01*
X016029Y010706D01*
X016019Y010681D01*
X016017Y010668D01*
X016215D01*
X016214Y010681D01*
X016204Y010706D01*
X016198Y010713D01*
X016204Y010724D01*
X016658D01*
X016660Y010725D01*
X016699Y010721D01*
X016738Y010709D01*
X016774Y010690D01*
X016782Y010684D01*
X016781Y010681D01*
X016777Y010655D01*
X016781Y010629D01*
X016791Y010605D01*
X016807Y010584D01*
X016828Y010568D01*
X016832Y010566D01*
Y009719D01*
X016833Y009717D01*
X016829Y009678D01*
X016817Y009639D01*
X016798Y009603D01*
X016773Y009573D01*
X016771Y009571D01*
X016672Y009472D01*
X016664Y009475D01*
X016637Y009479D01*
X016610Y009475D01*
X016584Y009464D01*
X016562Y009447D01*
X016545Y009426D01*
X016535Y009400D01*
X016531Y009373D01*
X016535Y009345D01*
X016545Y009320D01*
X016562Y009298D01*
X016584Y009281D01*
X016610Y009270D01*
X016637Y009267D01*
X016664Y009270D01*
X016690Y009281D01*
X016712Y009298D01*
X016729Y009320D01*
X016739Y009345D01*
X016743Y009373D01*
X016739Y009400D01*
X016737Y009407D01*
X016836Y009507D01*
X016836Y009507D01*
X016867Y009542D01*
X016892Y009582D01*
X016910Y009626D01*
X016921Y009672D01*
X016924Y009719D01*
X016924D01*
Y010566D01*
X016929Y010568D01*
X016948Y010583D01*
X016959Y010577D01*
Y009617D01*
X016959D01*
X016963Y009570D01*
X016974Y009524D01*
X016992Y009481D01*
X017017Y009441D01*
X017046Y009407D01*
X017043Y009400D01*
X017039Y009373D01*
X017043Y009345D01*
X017053Y009320D01*
X017070Y009298D01*
X017092Y009281D01*
X017118Y009270D01*
X017145Y009267D01*
X017172Y009270D01*
X017198Y009281D01*
X017215Y009294D01*
X017226Y009288D01*
Y008959D01*
X017219Y008956D01*
X017197Y008939D01*
X017180Y008918D01*
X017170Y008892D01*
X017166Y008865D01*
X017170Y008837D01*
X017180Y008812D01*
X017197Y008790D01*
X017214Y008777D01*
X017210Y008765D01*
X017080D01*
X017076Y008777D01*
X017093Y008790D01*
X017110Y008812D01*
X017120Y008837D01*
X017122Y008852D01*
X016914D01*
X016916Y008837D01*
X016926Y008812D01*
X016943Y008790D01*
X016956Y008779D01*
X016952Y008768D01*
X016948Y008768D01*
X016909Y008780D01*
X016873Y008799D01*
X016856Y008813D01*
X016866Y008837D01*
X016870Y008865D01*
X016866Y008892D01*
X016856Y008918D01*
X016839Y008939D01*
X016817Y008956D01*
X016791Y008967D01*
X016764Y008971D01*
X016737Y008967D01*
X016711Y008956D01*
X016689Y008939D01*
X016672Y008918D01*
X016662Y008892D01*
X016658Y008865D01*
X016662Y008837D01*
X016672Y008812D01*
X016689Y008790D01*
X016711Y008773D01*
X016737Y008762D01*
X016764Y008759D01*
X016777Y008760D01*
X016813Y008730D01*
X016835Y008717D01*
X016831Y008705D01*
X016795D01*
X016793Y008704D01*
X016754Y008708D01*
X016715Y008720D01*
X016679Y008739D01*
X016649Y008764D01*
X016648Y008766D01*
X016602Y008812D01*
X016612Y008837D01*
X016616Y008865D01*
X016612Y008892D01*
X016602Y008918D01*
X016585Y008939D01*
X016563Y008956D01*
X016537Y008967D01*
X016510Y008971D01*
X016483Y008967D01*
X016457Y008956D01*
X016435Y008939D01*
X016418Y008918D01*
X016408Y008892D01*
X016404Y008865D01*
X016408Y008837D01*
X016418Y008812D01*
X016435Y008790D01*
X016457Y008773D01*
X016483Y008762D01*
X016510Y008759D01*
X016523Y008760D01*
X016583Y008701D01*
X016583Y008701D01*
X016619Y008670D01*
X016659Y008645D01*
X016684Y008635D01*
X016682Y008622D01*
X011493Y008623D01*
Y013157D01*
Y013348D01*
X011493D01*
X011492Y013349D01*
X011497Y013397D01*
X011512Y013445D01*
X011535Y013489D01*
X011567Y013528D01*
X011606Y013560D01*
X011650Y013584D01*
X011698Y013598D01*
X011747Y013603D01*
X014509Y013602D01*
D02*
G37*
%LPC*%
G36*
X018075Y011702D02*
X017765D01*
Y011462D01*
X018075D01*
Y011702D01*
D02*
G37*
G36*
X016215Y010643D02*
X016129D01*
Y010556D01*
X016142Y010558D01*
X016167Y010568D01*
X016188Y010584D01*
X016204Y010605D01*
X016214Y010629D01*
X016215Y010643D01*
D02*
G37*
G36*
X015075Y011483D02*
Y011392D01*
X015166D01*
X015164Y011407D01*
X015154Y011432D01*
X015137Y011454D01*
X015115Y011471D01*
X015090Y011481D01*
X015075Y011483D01*
D02*
G37*
G36*
X017882Y010643D02*
X017795D01*
X017797Y010629D01*
X017807Y010605D01*
X017823Y010584D01*
X017844Y010568D01*
X017868Y010558D01*
X017882Y010556D01*
Y010643D01*
D02*
G37*
G36*
X015166Y011367D02*
X015075D01*
Y011275D01*
X015090Y011277D01*
X015115Y011287D01*
X015137Y011304D01*
X015154Y011326D01*
X015164Y011352D01*
X015166Y011367D01*
D02*
G37*
G36*
X015049Y011483D02*
X015035Y011481D01*
X015009Y011471D01*
X014987Y011454D01*
X014970Y011432D01*
X014960Y011407D01*
X014958Y011392D01*
X015049D01*
Y011483D01*
D02*
G37*
G36*
X016104Y010643D02*
X016017D01*
X016019Y010629D01*
X016029Y010605D01*
X016045Y010584D01*
X016066Y010568D01*
X016090Y010558D01*
X016104Y010556D01*
Y010643D01*
D02*
G37*
G36*
X017640Y010480D02*
X017626Y010478D01*
X017600Y010467D01*
X017578Y010450D01*
X017561Y010428D01*
X017551Y010403D01*
X017549Y010388D01*
X017640D01*
Y010480D01*
D02*
G37*
G36*
X016370D02*
X016356Y010478D01*
X016330Y010467D01*
X016308Y010450D01*
X016291Y010428D01*
X016281Y010403D01*
X016279Y010388D01*
X016370D01*
Y010480D01*
D02*
G37*
G36*
X016396D02*
Y010388D01*
X016487D01*
X016485Y010403D01*
X016475Y010428D01*
X016458Y010450D01*
X016436Y010467D01*
X016410Y010478D01*
X016396Y010480D01*
D02*
G37*
G36*
X017666D02*
Y010388D01*
X017757D01*
X017755Y010403D01*
X017745Y010428D01*
X017728Y010450D01*
X017706Y010467D01*
X017680Y010478D01*
X017666Y010480D01*
D02*
G37*
G36*
X018631Y011618D02*
X018489D01*
X018491Y011600D01*
X018500Y011571D01*
X018514Y011544D01*
X018533Y011520D01*
X018557Y011501D01*
X018584Y011487D01*
X018613Y011478D01*
X018631Y011476D01*
Y011618D01*
D02*
G37*
G36*
X017907Y010480D02*
Y010388D01*
X017999D01*
X017997Y010403D01*
X017986Y010428D01*
X017969Y010450D01*
X017947Y010467D01*
X017922Y010478D01*
X017907Y010480D01*
D02*
G37*
G36*
X017882D02*
X017867Y010478D01*
X017841Y010467D01*
X017819Y010450D01*
X017803Y010428D01*
X017792Y010403D01*
X017790Y010388D01*
X017882D01*
Y010480D01*
D02*
G37*
G36*
X017993Y010643D02*
X017907D01*
Y010556D01*
X017920Y010558D01*
X017945Y010568D01*
X017966Y010584D01*
X017982Y010605D01*
X017992Y010629D01*
X017993Y010643D01*
D02*
G37*
G36*
X012256Y010810D02*
Y010719D01*
X012347D01*
X012345Y010734D01*
X012335Y010759D01*
X012318Y010781D01*
X012296Y010798D01*
X012270Y010808D01*
X012256Y010810D01*
D02*
G37*
G36*
X018644Y011027D02*
X018632Y011026D01*
X018609Y011016D01*
X018590Y011001D01*
X018575Y010982D01*
X018565Y010959D01*
X018564Y010947D01*
X018644D01*
Y011027D01*
D02*
G37*
G36*
X018669D02*
Y010947D01*
X018749D01*
X018747Y010959D01*
X018738Y010982D01*
X018723Y011001D01*
X018703Y011016D01*
X018681Y011026D01*
X018669Y011027D01*
D02*
G37*
G36*
X012230Y010810D02*
X012215Y010808D01*
X012190Y010798D01*
X012168Y010781D01*
X012151Y010759D01*
X012141Y010734D01*
X012139Y010719D01*
X012230D01*
Y010810D01*
D02*
G37*
G36*
X018749Y010922D02*
X018669D01*
Y010842D01*
X018681Y010844D01*
X018703Y010853D01*
X018723Y010868D01*
X018738Y010888D01*
X018747Y010910D01*
X018749Y010922D01*
D02*
G37*
G36*
X013995Y010951D02*
Y010871D01*
X014075D01*
X014074Y010883D01*
X014064Y010906D01*
X014049Y010925D01*
X014030Y010940D01*
X014007Y010950D01*
X013995Y010951D01*
D02*
G37*
G36*
X014075Y010846D02*
X013995D01*
Y010766D01*
X014007Y010767D01*
X014030Y010777D01*
X014049Y010792D01*
X014064Y010811D01*
X014074Y010834D01*
X014075Y010846D01*
D02*
G37*
G36*
X018644Y010922D02*
X018564D01*
X018565Y010910D01*
X018575Y010888D01*
X018590Y010868D01*
X018609Y010853D01*
X018632Y010844D01*
X018644Y010842D01*
Y010922D01*
D02*
G37*
G36*
X017907Y010754D02*
Y010668D01*
X017993D01*
X017992Y010681D01*
X017982Y010706D01*
X017966Y010727D01*
X017945Y010743D01*
X017920Y010753D01*
X017907Y010754D01*
D02*
G37*
G36*
X012230Y010693D02*
X012139D01*
X012141Y010679D01*
X012151Y010653D01*
X012168Y010631D01*
X012190Y010614D01*
X012215Y010604D01*
X012230Y010602D01*
Y010693D01*
D02*
G37*
G36*
X012347D02*
X012256D01*
Y010602D01*
X012270Y010604D01*
X012296Y010614D01*
X012318Y010631D01*
X012335Y010653D01*
X012345Y010679D01*
X012347Y010693D01*
D02*
G37*
G36*
X015037Y010687D02*
X015021Y010685D01*
X014995Y010674D01*
X014972Y010657D01*
X014955Y010634D01*
X014944Y010607D01*
X014941Y010592D01*
X015037D01*
Y010687D01*
D02*
G37*
G36*
X015062D02*
Y010592D01*
X015158D01*
X015155Y010607D01*
X015144Y010634D01*
X015127Y010657D01*
X015104Y010674D01*
X015078Y010685D01*
X015062Y010687D01*
D02*
G37*
G36*
X015316Y011485D02*
X015289Y011481D01*
X015263Y011471D01*
X015241Y011454D01*
X015224Y011432D01*
X015214Y011407D01*
X015210Y011379D01*
X015214Y011352D01*
X015224Y011326D01*
X015241Y011304D01*
X015263Y011287D01*
X015289Y011277D01*
X015316Y011273D01*
X015344Y011277D01*
X015369Y011287D01*
X015391Y011304D01*
X015408Y011326D01*
X015418Y011352D01*
X015422Y011379D01*
X015418Y011407D01*
X015408Y011432D01*
X015391Y011454D01*
X015369Y011471D01*
X015344Y011481D01*
X015316Y011485D01*
D02*
G37*
G36*
X018799Y011435D02*
X018489D01*
Y011125D01*
X018799D01*
Y011435D01*
D02*
G37*
G36*
X017882Y010754D02*
X017868Y010753D01*
X017844Y010743D01*
X017823Y010727D01*
X017807Y010706D01*
X017797Y010681D01*
X017795Y010668D01*
X017882D01*
Y010754D01*
D02*
G37*
G36*
X015049Y011367D02*
X014958D01*
X014960Y011352D01*
X014970Y011326D01*
X014987Y011304D01*
X015009Y011287D01*
X015035Y011277D01*
X015049Y011275D01*
Y011367D01*
D02*
G37*
G36*
X016154Y010480D02*
Y010388D01*
X016246D01*
X016244Y010403D01*
X016233Y010428D01*
X016217Y010450D01*
X016195Y010467D01*
X016169Y010478D01*
X016154Y010480D01*
D02*
G37*
G36*
X018012Y009478D02*
X017920D01*
Y009385D01*
X018012D01*
Y009478D01*
D02*
G37*
G36*
X015021Y009552D02*
X015004Y009551D01*
X014974Y009542D01*
X014947Y009528D01*
X014924Y009508D01*
X014904Y009485D01*
X014890Y009458D01*
X014881Y009428D01*
X014880Y009411D01*
X015021D01*
Y009552D01*
D02*
G37*
G36*
X016116Y009477D02*
X016102Y009475D01*
X016076Y009464D01*
X016054Y009447D01*
X016037Y009426D01*
X016027Y009400D01*
X016025Y009385D01*
X016116D01*
Y009477D01*
D02*
G37*
G36*
X018012Y009360D02*
X017920D01*
Y009268D01*
X018012D01*
Y009360D01*
D02*
G37*
G36*
X016116D02*
X016025D01*
X016027Y009345D01*
X016037Y009320D01*
X016054Y009298D01*
X016076Y009281D01*
X016102Y009270D01*
X016116Y009268D01*
Y009360D01*
D02*
G37*
G36*
X018740Y009761D02*
X018522D01*
Y009543D01*
X018740D01*
Y009761D01*
D02*
G37*
G36*
X019126Y009639D02*
X019031D01*
X019033Y009624D01*
X019044Y009597D01*
X019061Y009574D01*
X019084Y009557D01*
X019111Y009546D01*
X019126Y009544D01*
Y009639D01*
D02*
G37*
G36*
X012138Y009565D02*
Y009423D01*
X012280D01*
X012278Y009441D01*
X012270Y009470D01*
X012255Y009497D01*
X012236Y009521D01*
X012212Y009540D01*
X012185Y009555D01*
X012156Y009563D01*
X012138Y009565D01*
D02*
G37*
G36*
X015047Y009552D02*
Y009411D01*
X015188D01*
X015187Y009428D01*
X015178Y009458D01*
X015164Y009485D01*
X015144Y009508D01*
X015121Y009528D01*
X015094Y009542D01*
X015064Y009551D01*
X015047Y009552D01*
D02*
G37*
G36*
X012113Y009565D02*
X012095Y009563D01*
X012066Y009555D01*
X012039Y009540D01*
X012016Y009521D01*
X011996Y009497D01*
X011982Y009470D01*
X011973Y009441D01*
X011971Y009423D01*
X012113D01*
Y009565D01*
D02*
G37*
G36*
X014839Y009553D02*
X014529D01*
Y009243D01*
X014839D01*
Y009553D01*
D02*
G37*
G36*
X015021Y009385D02*
X014880D01*
X014881Y009368D01*
X014890Y009338D01*
X014904Y009311D01*
X014924Y009288D01*
X014947Y009268D01*
X014974Y009254D01*
X015004Y009245D01*
X015021Y009244D01*
Y009385D01*
D02*
G37*
G36*
X012979Y009767D02*
X012924Y009762D01*
X012869Y009749D01*
X012818Y009728D01*
X012770Y009699D01*
X012728Y009662D01*
X012691Y009620D01*
X012662Y009572D01*
X012641Y009521D01*
X012628Y009466D01*
X012623Y009411D01*
X012628Y009355D01*
X012641Y009301D01*
X012662Y009249D01*
X012691Y009201D01*
X012728Y009159D01*
X012770Y009123D01*
X012818Y009093D01*
X012869Y009072D01*
X012924Y009059D01*
X012979Y009055D01*
X013035Y009059D01*
X013089Y009072D01*
X013141Y009093D01*
X013189Y009123D01*
X013231Y009159D01*
X013267Y009201D01*
X013297Y009249D01*
X013318Y009301D01*
X013331Y009355D01*
X013335Y009411D01*
X013331Y009466D01*
X013318Y009521D01*
X013297Y009572D01*
X013267Y009620D01*
X013231Y009662D01*
X013189Y009699D01*
X013141Y009728D01*
X013089Y009749D01*
X013035Y009762D01*
X012979Y009767D01*
D02*
G37*
G36*
X017005Y008969D02*
X016991Y008967D01*
X016965Y008956D01*
X016943Y008939D01*
X016926Y008918D01*
X016916Y008892D01*
X016914Y008877D01*
X017005D01*
Y008969D01*
D02*
G37*
G36*
X017031D02*
Y008877D01*
X017122D01*
X017120Y008892D01*
X017110Y008918D01*
X017093Y008939D01*
X017071Y008956D01*
X017045Y008967D01*
X017031Y008969D01*
D02*
G37*
G36*
X012280Y009398D02*
X012138D01*
Y009256D01*
X012156Y009258D01*
X012185Y009267D01*
X012212Y009281D01*
X012236Y009301D01*
X012255Y009324D01*
X012270Y009351D01*
X012278Y009380D01*
X012280Y009398D01*
D02*
G37*
G36*
X016891Y009479D02*
X016864Y009475D01*
X016838Y009464D01*
X016816Y009447D01*
X016799Y009426D01*
X016789Y009400D01*
X016785Y009373D01*
X016789Y009345D01*
X016799Y009320D01*
X016816Y009298D01*
X016838Y009281D01*
X016864Y009270D01*
X016891Y009267D01*
X016918Y009270D01*
X016944Y009281D01*
X016966Y009298D01*
X016983Y009320D01*
X016993Y009345D01*
X016997Y009373D01*
X016993Y009400D01*
X016983Y009426D01*
X016966Y009447D01*
X016944Y009464D01*
X016918Y009475D01*
X016891Y009479D01*
D02*
G37*
G36*
X012113Y009398D02*
X011971D01*
X011973Y009380D01*
X011982Y009351D01*
X011996Y009324D01*
X012016Y009301D01*
X012039Y009281D01*
X012066Y009267D01*
X012095Y009258D01*
X012113Y009256D01*
Y009398D01*
D02*
G37*
G36*
X015188Y009385D02*
X015047D01*
Y009244D01*
X015064Y009245D01*
X015094Y009254D01*
X015121Y009268D01*
X015144Y009288D01*
X015164Y009311D01*
X015178Y009338D01*
X015187Y009368D01*
X015188Y009385D01*
D02*
G37*
G36*
X011840Y010811D02*
X011630D01*
Y010601D01*
X011639D01*
Y010180D01*
X011613D01*
Y009962D01*
X011626D01*
Y009566D01*
X011621D01*
Y009256D01*
X011931D01*
Y009566D01*
X011818D01*
Y009962D01*
X011831D01*
Y010180D01*
X011831D01*
Y010601D01*
X011840D01*
Y010811D01*
D02*
G37*
G36*
X016370Y010363D02*
X016279D01*
X016281Y010348D01*
X016291Y010322D01*
X016308Y010300D01*
X016330Y010284D01*
X016356Y010273D01*
X016370Y010271D01*
Y010363D01*
D02*
G37*
G36*
X016487D02*
X016396D01*
Y010271D01*
X016410Y010273D01*
X016436Y010284D01*
X016458Y010300D01*
X016475Y010322D01*
X016485Y010348D01*
X016487Y010363D01*
D02*
G37*
G36*
X016246D02*
X016154D01*
Y010271D01*
X016169Y010273D01*
X016195Y010284D01*
X016217Y010300D01*
X016233Y010322D01*
X016244Y010348D01*
X016246Y010363D01*
D02*
G37*
G36*
X016729Y010480D02*
X016519D01*
Y010270D01*
X016729D01*
Y010480D01*
D02*
G37*
G36*
X016129Y010363D02*
X016037D01*
X016039Y010348D01*
X016050Y010322D01*
X016067Y010300D01*
X016089Y010284D01*
X016114Y010273D01*
X016129Y010271D01*
Y010363D01*
D02*
G37*
G36*
X017999D02*
X017907D01*
Y010271D01*
X017922Y010273D01*
X017947Y010284D01*
X017969Y010300D01*
X017986Y010322D01*
X017997Y010348D01*
X017999Y010363D01*
D02*
G37*
G36*
X016129Y010480D02*
X016114Y010478D01*
X016089Y010467D01*
X016067Y010450D01*
X016050Y010428D01*
X016039Y010403D01*
X016037Y010388D01*
X016129D01*
Y010480D01*
D02*
G37*
G36*
X017882Y010363D02*
X017790D01*
X017792Y010348D01*
X017803Y010322D01*
X017819Y010300D01*
X017841Y010284D01*
X017867Y010273D01*
X017882Y010271D01*
Y010363D01*
D02*
G37*
G36*
X017640D02*
X017549D01*
X017551Y010348D01*
X017561Y010322D01*
X017578Y010300D01*
X017600Y010284D01*
X017626Y010273D01*
X017640Y010271D01*
Y010363D01*
D02*
G37*
G36*
X017757D02*
X017666D01*
Y010271D01*
X017680Y010273D01*
X017706Y010284D01*
X017728Y010300D01*
X017745Y010322D01*
X017755Y010348D01*
X017757Y010363D01*
D02*
G37*
G36*
X016624Y009771D02*
X016597Y009768D01*
X016571Y009757D01*
X016549Y009740D01*
X016533Y009718D01*
X016530Y009711D01*
X016488D01*
Y009770D01*
X016278D01*
Y009591D01*
X016266Y009588D01*
X016247Y009619D01*
Y009770D01*
X016037D01*
Y009711D01*
X015995D01*
X015992Y009718D01*
X015975Y009740D01*
X015953Y009757D01*
X015928Y009768D01*
X015900Y009771D01*
X015873Y009768D01*
X015847Y009757D01*
X015826Y009740D01*
X015809Y009718D01*
X015798Y009693D01*
X015794Y009665D01*
X015798Y009638D01*
X015809Y009612D01*
X015826Y009590D01*
X015847Y009574D01*
X015873Y009563D01*
X015900Y009559D01*
X015928Y009563D01*
X015953Y009574D01*
X015975Y009590D01*
X015992Y009612D01*
X015995Y009619D01*
X016037D01*
Y009560D01*
X016176D01*
X016195Y009526D01*
X016207Y009487D01*
X016210Y009458D01*
X016198Y009452D01*
X016182Y009464D01*
X016156Y009475D01*
X016142Y009477D01*
Y009373D01*
Y009268D01*
X016156Y009270D01*
X016182Y009281D01*
X016199Y009294D01*
X016210Y009288D01*
Y008959D01*
X016203Y008956D01*
X016181Y008939D01*
X016164Y008918D01*
X016154Y008892D01*
X016150Y008865D01*
X016154Y008837D01*
X016164Y008812D01*
X016181Y008790D01*
X016203Y008773D01*
X016229Y008762D01*
X016256Y008759D01*
X016283Y008762D01*
X016309Y008773D01*
X016331Y008790D01*
X016348Y008812D01*
X016358Y008837D01*
X016362Y008865D01*
X016358Y008892D01*
X016348Y008918D01*
X016331Y008939D01*
X016309Y008956D01*
X016302Y008959D01*
Y009288D01*
X016313Y009294D01*
X016330Y009281D01*
X016356Y009270D01*
X016383Y009267D01*
X016410Y009270D01*
X016436Y009281D01*
X016458Y009298D01*
X016475Y009320D01*
X016485Y009345D01*
X016489Y009373D01*
X016485Y009400D01*
X016475Y009426D01*
X016458Y009447D01*
X016436Y009464D01*
X016429Y009467D01*
Y009560D01*
X016488D01*
Y009619D01*
X016530D01*
X016533Y009612D01*
X016549Y009590D01*
X016571Y009574D01*
X016597Y009563D01*
X016624Y009559D01*
X016652Y009563D01*
X016677Y009574D01*
X016699Y009590D01*
X016716Y009612D01*
X016727Y009638D01*
X016730Y009665D01*
X016727Y009693D01*
X016716Y009718D01*
X016699Y009740D01*
X016677Y009757D01*
X016652Y009768D01*
X016624Y009771D01*
D02*
G37*
G36*
X012217Y010058D02*
X012122D01*
X012124Y010043D01*
X012135Y010016D01*
X012153Y009994D01*
X012175Y009976D01*
X012202Y009965D01*
X012217Y009963D01*
Y010058D01*
D02*
G37*
G36*
X019152Y009760D02*
Y009665D01*
X019247D01*
X019245Y009680D01*
X019234Y009707D01*
X019216Y009730D01*
X019194Y009747D01*
X019167Y009758D01*
X019152Y009760D01*
D02*
G37*
G36*
X019247Y009639D02*
X019152D01*
Y009544D01*
X019167Y009546D01*
X019194Y009557D01*
X019216Y009574D01*
X019234Y009597D01*
X019245Y009624D01*
X019247Y009639D01*
D02*
G37*
G36*
X019126Y009760D02*
X019111Y009758D01*
X019084Y009747D01*
X019061Y009730D01*
X019044Y009707D01*
X019033Y009680D01*
X019031Y009665D01*
X019126D01*
Y009760D01*
D02*
G37*
G36*
X018885Y010808D02*
X018829Y010804D01*
X018775Y010791D01*
X018723Y010769D01*
X018676Y010740D01*
X018633Y010704D01*
X018597Y010661D01*
X018568Y010614D01*
X018546Y010562D01*
X018533Y010508D01*
X018529Y010452D01*
X018533Y010396D01*
X018546Y010342D01*
X018568Y010290D01*
X018597Y010243D01*
X018633Y010200D01*
X018676Y010164D01*
X018723Y010135D01*
X018775Y010113D01*
X018829Y010100D01*
X018885Y010096D01*
X018941Y010100D01*
X018995Y010113D01*
X019047Y010135D01*
X019094Y010164D01*
X019137Y010200D01*
X019173Y010243D01*
X019202Y010290D01*
X019224Y010342D01*
X019237Y010396D01*
X019241Y010452D01*
X019237Y010508D01*
X019224Y010562D01*
X019202Y010614D01*
X019173Y010661D01*
X019137Y010704D01*
X019094Y010740D01*
X019047Y010769D01*
X018995Y010791D01*
X018941Y010804D01*
X018885Y010808D01*
D02*
G37*
G36*
X016005Y010480D02*
X015795D01*
Y010270D01*
X016005D01*
Y010480D01*
D02*
G37*
G36*
X012243Y010179D02*
Y010084D01*
X012338D01*
X012336Y010099D01*
X012325Y010126D01*
X012308Y010149D01*
X012285Y010166D01*
X012258Y010177D01*
X012243Y010179D01*
D02*
G37*
G36*
X012338Y010058D02*
X012243D01*
Y009963D01*
X012258Y009965D01*
X012285Y009976D01*
X012308Y009994D01*
X012325Y010016D01*
X012336Y010043D01*
X012338Y010058D01*
D02*
G37*
G36*
X012217Y010179D02*
X012202Y010177D01*
X012175Y010166D01*
X012153Y010149D01*
X012135Y010126D01*
X012124Y010099D01*
X012122Y010084D01*
X012217D01*
Y010179D01*
D02*
G37*
G36*
X018798Y011618D02*
X018656D01*
Y011476D01*
X018674Y011478D01*
X018703Y011487D01*
X018730Y011501D01*
X018754Y011520D01*
X018773Y011544D01*
X018787Y011571D01*
X018796Y011600D01*
X018798Y011618D01*
D02*
G37*
G36*
X014214Y013208D02*
X014122D01*
Y013116D01*
X014137Y013118D01*
X014163Y013129D01*
X014185Y013146D01*
X014201Y013168D01*
X014212Y013193D01*
X014214Y013208D01*
D02*
G37*
G36*
X011915Y013352D02*
X011888Y013348D01*
X011862Y013338D01*
X011840Y013321D01*
X011824Y013299D01*
X011813Y013274D01*
X011809Y013246D01*
X011813Y013219D01*
X011824Y013193D01*
X011840Y013171D01*
X011862Y013154D01*
X011888Y013144D01*
X011915Y013140D01*
X011943Y013144D01*
X011968Y013154D01*
X011990Y013171D01*
X012007Y013193D01*
X012018Y013219D01*
X012021Y013246D01*
X012018Y013274D01*
X012007Y013299D01*
X011990Y013321D01*
X011968Y013338D01*
X011943Y013348D01*
X011915Y013352D01*
D02*
G37*
G36*
X014097Y013208D02*
X014005D01*
X014007Y013193D01*
X014018Y013168D01*
X014035Y013146D01*
X014057Y013129D01*
X014082Y013118D01*
X014097Y013116D01*
Y013208D01*
D02*
G37*
G36*
X013767D02*
X013675D01*
X013677Y013193D01*
X013688Y013168D01*
X013705Y013146D01*
X013727Y013129D01*
X013752Y013118D01*
X013767Y013116D01*
Y013208D01*
D02*
G37*
G36*
X013884D02*
X013792D01*
Y013116D01*
X013807Y013118D01*
X013832Y013129D01*
X013854Y013146D01*
X013871Y013168D01*
X013882Y013193D01*
X013884Y013208D01*
D02*
G37*
G36*
X013106Y013325D02*
X013092Y013323D01*
X013066Y013312D01*
X013044Y013296D01*
X013027Y013274D01*
X013017Y013248D01*
X013015Y013233D01*
X013106D01*
Y013325D01*
D02*
G37*
G36*
X013132D02*
Y013233D01*
X013223D01*
X013221Y013248D01*
X013211Y013274D01*
X013194Y013296D01*
X013172Y013312D01*
X013147Y013323D01*
X013132Y013325D01*
D02*
G37*
G36*
X016554Y013338D02*
X016344D01*
Y013203D01*
X016318Y013189D01*
X016279Y013177D01*
X016240Y013173D01*
X016238Y013174D01*
X016103D01*
X016095Y013183D01*
X016097Y013193D01*
X016093Y013211D01*
X016084Y013225D01*
X016093Y013239D01*
X016094Y013245D01*
X015797D01*
X015798Y013239D01*
X015808Y013225D01*
X015798Y013211D01*
X015795Y013193D01*
X015798Y013174D01*
X015808Y013160D01*
X015798Y013146D01*
X015795Y013128D01*
X015798Y013109D01*
X015808Y013095D01*
X015798Y013081D01*
X015795Y013063D01*
X015798Y013044D01*
X015808Y013030D01*
X015798Y013016D01*
X015797Y013010D01*
X016097D01*
X016103Y013017D01*
X016248D01*
X016250Y013017D01*
X016289Y013013D01*
X016328Y013002D01*
X016344Y012993D01*
Y012862D01*
X016554D01*
Y013072D01*
X016391D01*
X016384Y013076D01*
X016348Y013091D01*
Y013104D01*
X016375Y013114D01*
X016397Y013128D01*
X016554D01*
Y013338D01*
D02*
G37*
G36*
X012157Y013233D02*
X012065D01*
X012067Y013219D01*
X012078Y013193D01*
X012094Y013171D01*
X012116Y013154D01*
X012142Y013144D01*
X012157Y013142D01*
Y013233D01*
D02*
G37*
G36*
X012274D02*
X012182D01*
Y013142D01*
X012197Y013144D01*
X012222Y013154D01*
X012244Y013171D01*
X012261Y013193D01*
X012272Y013219D01*
X012274Y013233D01*
D02*
G37*
G36*
X012157Y013050D02*
X012142Y013048D01*
X012116Y013037D01*
X012094Y013020D01*
X012078Y012998D01*
X012067Y012973D01*
X012065Y012958D01*
X012157D01*
Y013050D01*
D02*
G37*
G36*
X012182D02*
Y012958D01*
X012274D01*
X012272Y012973D01*
X012261Y012998D01*
X012244Y013020D01*
X012222Y013037D01*
X012197Y013048D01*
X012182Y013050D01*
D02*
G37*
G36*
X017641Y013021D02*
X017539D01*
Y012954D01*
X017641D01*
Y013021D01*
D02*
G37*
G36*
X017911Y012954D02*
X017831D01*
Y012874D01*
X017843Y012876D01*
X017865Y012885D01*
X017885Y012900D01*
X017900Y012920D01*
X017909Y012942D01*
X017911Y012954D01*
D02*
G37*
G36*
X017513Y013021D02*
X017411D01*
Y012954D01*
X017513D01*
Y013021D01*
D02*
G37*
G36*
X013223Y013208D02*
X013132D01*
Y013116D01*
X013147Y013118D01*
X013172Y013129D01*
X013194Y013146D01*
X013211Y013168D01*
X013221Y013193D01*
X013223Y013208D01*
D02*
G37*
G36*
X013554D02*
X013462D01*
Y013116D01*
X013477Y013118D01*
X013502Y013129D01*
X013524Y013146D01*
X013541Y013168D01*
X013552Y013193D01*
X013554Y013208D01*
D02*
G37*
G36*
X013106D02*
X013015D01*
X013017Y013193D01*
X013027Y013168D01*
X013044Y013146D01*
X013066Y013129D01*
X013092Y013118D01*
X013106Y013116D01*
Y013208D01*
D02*
G37*
G36*
X017805Y013059D02*
X017794Y013058D01*
X017771Y013048D01*
X017751Y013033D01*
X017736Y013014D01*
X017727Y012991D01*
X017725Y012979D01*
X017805D01*
Y013059D01*
D02*
G37*
G36*
X017831D02*
Y012979D01*
X017911D01*
X017909Y012991D01*
X017900Y013014D01*
X017885Y013033D01*
X017865Y013048D01*
X017843Y013058D01*
X017831Y013059D01*
D02*
G37*
G36*
X013119Y013581D02*
X013092Y013577D01*
X013066Y013566D01*
X013044Y013550D01*
X013027Y013528D01*
X013017Y013502D01*
X013013Y013475D01*
X013017Y013447D01*
X013027Y013422D01*
X013044Y013400D01*
X013066Y013383D01*
X013092Y013372D01*
X013119Y013369D01*
X013147Y013372D01*
X013172Y013383D01*
X013194Y013400D01*
X013211Y013422D01*
X013221Y013447D01*
X013225Y013475D01*
X013221Y013502D01*
X013211Y013528D01*
X013194Y013550D01*
X013172Y013566D01*
X013147Y013577D01*
X013119Y013581D01*
D02*
G37*
G36*
X018565Y013529D02*
X018472D01*
Y013437D01*
X018565D01*
Y013529D01*
D02*
G37*
G36*
X017593Y013437D02*
X017513D01*
Y013357D01*
X017525Y013358D01*
X017548Y013368D01*
X017567Y013383D01*
X017582Y013402D01*
X017592Y013425D01*
X017593Y013437D01*
D02*
G37*
G36*
X012932Y013446D02*
X012840D01*
Y013354D01*
X012932D01*
Y013446D01*
D02*
G37*
G36*
X017488Y013437D02*
X017408D01*
X017410Y013425D01*
X017419Y013402D01*
X017434Y013383D01*
X017453Y013368D01*
X017476Y013358D01*
X017488Y013357D01*
Y013437D01*
D02*
G37*
G36*
X012814Y013564D02*
X012722D01*
Y013472D01*
X012814D01*
Y013564D01*
D02*
G37*
G36*
X012932D02*
X012840D01*
Y013472D01*
X012932D01*
Y013564D01*
D02*
G37*
G36*
X017513Y013542D02*
Y013462D01*
X017593D01*
X017592Y013474D01*
X017582Y013496D01*
X017567Y013516D01*
X017548Y013531D01*
X017525Y013540D01*
X017513Y013542D01*
D02*
G37*
G36*
X018682Y013529D02*
X018590D01*
Y013437D01*
X018682D01*
Y013529D01*
D02*
G37*
G36*
X017488Y013542D02*
X017476Y013540D01*
X017453Y013531D01*
X017434Y013516D01*
X017419Y013496D01*
X017410Y013474D01*
X017408Y013462D01*
X017488D01*
Y013542D01*
D02*
G37*
G36*
X014097Y013325D02*
X014082Y013323D01*
X014057Y013312D01*
X014035Y013296D01*
X014018Y013274D01*
X014007Y013248D01*
X014005Y013233D01*
X014097D01*
Y013325D01*
D02*
G37*
G36*
X014122D02*
Y013233D01*
X014214D01*
X014212Y013248D01*
X014201Y013274D01*
X014185Y013296D01*
X014163Y013312D01*
X014137Y013323D01*
X014122Y013325D01*
D02*
G37*
G36*
X013792D02*
Y013233D01*
X013884D01*
X013882Y013248D01*
X013871Y013274D01*
X013854Y013296D01*
X013832Y013312D01*
X013807Y013323D01*
X013792Y013325D01*
D02*
G37*
G36*
X013462D02*
Y013233D01*
X013554D01*
X013552Y013248D01*
X013541Y013274D01*
X013524Y013296D01*
X013502Y013312D01*
X013477Y013323D01*
X013462Y013325D01*
D02*
G37*
G36*
X013767D02*
X013752Y013323D01*
X013727Y013312D01*
X013705Y013296D01*
X013688Y013274D01*
X013677Y013248D01*
X013675Y013233D01*
X013767D01*
Y013325D01*
D02*
G37*
G36*
X016094Y013310D02*
X015797D01*
X015798Y013304D01*
X015808Y013290D01*
X015798Y013276D01*
X015797Y013270D01*
X016094D01*
X016093Y013276D01*
X016084Y013290D01*
X016093Y013304D01*
X016094Y013310D01*
D02*
G37*
G36*
X012814Y013446D02*
X012722D01*
Y013354D01*
X012814D01*
Y013446D01*
D02*
G37*
G36*
X014605Y013354D02*
X014589Y013352D01*
X014563Y013341D01*
X014540Y013324D01*
X014523Y013301D01*
X014512Y013274D01*
X014510Y013259D01*
X014605D01*
Y013354D01*
D02*
G37*
G36*
X012157Y013350D02*
X012142Y013348D01*
X012116Y013338D01*
X012094Y013321D01*
X012078Y013299D01*
X012067Y013274D01*
X012065Y013259D01*
X012157D01*
Y013350D01*
D02*
G37*
G36*
X012182D02*
Y013259D01*
X012274D01*
X012272Y013274D01*
X012261Y013299D01*
X012244Y013321D01*
X012222Y013338D01*
X012197Y013348D01*
X012182Y013350D01*
D02*
G37*
G36*
X015166Y011976D02*
X015075D01*
Y011885D01*
X015090Y011887D01*
X015115Y011897D01*
X015137Y011914D01*
X015154Y011936D01*
X015164Y011961D01*
X015166Y011976D01*
D02*
G37*
G36*
X015634Y011989D02*
X015511D01*
Y011901D01*
X015634D01*
Y011989D01*
D02*
G37*
G36*
X015049Y011976D02*
X014958D01*
X014960Y011961D01*
X014970Y011936D01*
X014987Y011914D01*
X015009Y011897D01*
X015035Y011887D01*
X015049Y011885D01*
Y011976D01*
D02*
G37*
G36*
X018074Y011824D02*
X017932D01*
Y011715D01*
X017955D01*
X017986Y011719D01*
X018015Y011732D01*
X018040Y011751D01*
X018060Y011776D01*
X018072Y011805D01*
X018074Y011824D01*
D02*
G37*
G36*
X012573Y011904D02*
X012471D01*
Y011836D01*
X012573D01*
Y011904D01*
D02*
G37*
G36*
X016634Y012101D02*
X016511D01*
Y012014D01*
X016634D01*
Y012101D01*
D02*
G37*
G36*
X016781D02*
X016659D01*
Y012014D01*
X016781D01*
Y012101D01*
D02*
G37*
G36*
Y011989D02*
X016659D01*
Y011901D01*
X016781D01*
Y011989D01*
D02*
G37*
G36*
X015781D02*
X015659D01*
Y011901D01*
X015781D01*
Y011989D01*
D02*
G37*
G36*
X016634D02*
X016511D01*
Y011901D01*
X016634D01*
Y011989D01*
D02*
G37*
G36*
X018631Y011785D02*
X018613Y011783D01*
X018584Y011774D01*
X018557Y011760D01*
X018533Y011741D01*
X018514Y011717D01*
X018500Y011690D01*
X018491Y011661D01*
X018489Y011643D01*
X018631D01*
Y011785D01*
D02*
G37*
G36*
X018656D02*
Y011643D01*
X018798D01*
X018796Y011661D01*
X018787Y011690D01*
X018773Y011717D01*
X018754Y011741D01*
X018730Y011760D01*
X018703Y011774D01*
X018674Y011783D01*
X018656Y011785D01*
D02*
G37*
G36*
X011843Y011621D02*
X011747D01*
Y011525D01*
X011763Y011527D01*
X011790Y011538D01*
X011812Y011556D01*
X011830Y011578D01*
X011841Y011605D01*
X011843Y011621D01*
D02*
G37*
G36*
X014568Y011544D02*
X014465D01*
Y011477D01*
X014568D01*
Y011544D01*
D02*
G37*
G36*
X011722Y011621D02*
X011627D01*
X011629Y011605D01*
X011640Y011578D01*
X011657Y011556D01*
X011680Y011538D01*
X011706Y011527D01*
X011722Y011525D01*
Y011621D01*
D02*
G37*
G36*
X015075Y011788D02*
Y011697D01*
X015166D01*
X015164Y011711D01*
X015154Y011737D01*
X015137Y011759D01*
X015115Y011776D01*
X015090Y011786D01*
X015075Y011788D01*
D02*
G37*
G36*
X017907Y011824D02*
X017765D01*
X017768Y011805D01*
X017780Y011776D01*
X017799Y011751D01*
X017824Y011732D01*
X017853Y011719D01*
X017885Y011715D01*
X017907D01*
Y011824D01*
D02*
G37*
G36*
X015049Y011788D02*
X015035Y011786D01*
X015009Y011776D01*
X014987Y011759D01*
X014970Y011737D01*
X014960Y011711D01*
X014958Y011697D01*
X015049D01*
Y011788D01*
D02*
G37*
G36*
X011722Y011741D02*
X011706Y011739D01*
X011680Y011728D01*
X011657Y011711D01*
X011640Y011688D01*
X011629Y011662D01*
X011627Y011646D01*
X011722D01*
Y011741D01*
D02*
G37*
G36*
X011747D02*
Y011646D01*
X011843D01*
X011841Y011662D01*
X011830Y011688D01*
X011812Y011711D01*
X011790Y011728D01*
X011763Y011739D01*
X011747Y011741D01*
D02*
G37*
G36*
X012157Y012749D02*
X012142Y012747D01*
X012116Y012737D01*
X012094Y012720D01*
X012078Y012698D01*
X012067Y012672D01*
X012065Y012658D01*
X012157D01*
Y012749D01*
D02*
G37*
G36*
X012182D02*
Y012658D01*
X012274D01*
X012272Y012672D01*
X012261Y012698D01*
X012244Y012720D01*
X012222Y012737D01*
X012197Y012747D01*
X012182Y012749D01*
D02*
G37*
G36*
X012274Y012632D02*
X012182D01*
Y012541D01*
X012197Y012543D01*
X012222Y012553D01*
X012244Y012570D01*
X012261Y012592D01*
X012272Y012618D01*
X012274Y012632D01*
D02*
G37*
G36*
X011915Y012751D02*
X011888Y012747D01*
X011862Y012737D01*
X011840Y012720D01*
X011824Y012698D01*
X011813Y012672D01*
X011809Y012645D01*
X011813Y012618D01*
X011824Y012592D01*
X011840Y012570D01*
X011862Y012553D01*
X011888Y012543D01*
X011915Y012539D01*
X011943Y012543D01*
X011968Y012553D01*
X011990Y012570D01*
X012007Y012592D01*
X012018Y012618D01*
X012021Y012645D01*
X012018Y012672D01*
X012007Y012698D01*
X011990Y012720D01*
X011968Y012737D01*
X011943Y012747D01*
X011915Y012751D01*
D02*
G37*
G36*
X012157Y012632D02*
X012065D01*
X012067Y012618D01*
X012078Y012592D01*
X012094Y012570D01*
X012116Y012553D01*
X012142Y012543D01*
X012157Y012541D01*
Y012632D01*
D02*
G37*
G36*
X012274Y012933D02*
X012182D01*
Y012841D01*
X012197Y012843D01*
X012222Y012854D01*
X012244Y012871D01*
X012261Y012893D01*
X012272Y012918D01*
X012274Y012933D01*
D02*
G37*
G36*
X017805Y012954D02*
X017725D01*
X017727Y012942D01*
X017736Y012920D01*
X017751Y012900D01*
X017771Y012885D01*
X017794Y012876D01*
X017805Y012874D01*
Y012954D01*
D02*
G37*
G36*
X012157Y012933D02*
X012065D01*
X012067Y012918D01*
X012078Y012893D01*
X012094Y012871D01*
X012116Y012854D01*
X012142Y012843D01*
X012157Y012841D01*
Y012933D01*
D02*
G37*
G36*
X015394Y013050D02*
X015097D01*
X015098Y013044D01*
X015108Y013030D01*
X015098Y013016D01*
X015095Y012998D01*
X015098Y012979D01*
X015108Y012965D01*
X015098Y012951D01*
X015095Y012933D01*
X015098Y012914D01*
X015108Y012900D01*
X015098Y012886D01*
X015095Y012868D01*
X015098Y012849D01*
X015108Y012835D01*
X015098Y012821D01*
X015095Y012803D01*
X015098Y012784D01*
X015108Y012770D01*
X015098Y012756D01*
X015095Y012738D01*
X015098Y012719D01*
X015108Y012705D01*
X015098Y012691D01*
X015095Y012673D01*
X015098Y012654D01*
X015108Y012640D01*
X015098Y012626D01*
X015095Y012608D01*
X015098Y012589D01*
X015109Y012573D01*
X015125Y012563D01*
X015143Y012559D01*
X015257D01*
X015258Y012556D01*
X015250Y012546D01*
X015214Y012542D01*
X015212Y012543D01*
X015048D01*
X015045Y012542D01*
X014998Y012547D01*
X014949Y012562D01*
X014942Y012565D01*
Y012694D01*
X014725D01*
Y012477D01*
X014918D01*
X014940Y012468D01*
X014994Y012455D01*
X015048Y012451D01*
Y012451D01*
X015212D01*
X015212Y012451D01*
Y012451D01*
X015263Y012455D01*
X015313Y012467D01*
X015361Y012487D01*
X015405Y012514D01*
X015444Y012547D01*
X015444Y012547D01*
X015723Y012826D01*
X015724Y012828D01*
X015754Y012852D01*
X015784Y012868D01*
X015796Y012863D01*
X015798Y012849D01*
X015808Y012835D01*
X015798Y012821D01*
X015797Y012815D01*
X016094D01*
X016093Y012821D01*
X016084Y012835D01*
X016093Y012849D01*
X016097Y012868D01*
X016093Y012886D01*
X016084Y012900D01*
X016093Y012914D01*
X016097Y012933D01*
X016093Y012951D01*
X016084Y012965D01*
X016093Y012979D01*
X016094Y012985D01*
X015797D01*
X015798Y012979D01*
X015794Y012968D01*
X015777Y012964D01*
X015734Y012946D01*
X015694Y012921D01*
X015658Y012891D01*
X015658Y012891D01*
X015400Y012633D01*
X015392Y012634D01*
X015387Y012645D01*
X015393Y012654D01*
X015397Y012673D01*
X015393Y012691D01*
X015384Y012705D01*
X015393Y012719D01*
X015397Y012738D01*
X015393Y012756D01*
X015384Y012770D01*
X015393Y012784D01*
X015397Y012803D01*
X015393Y012821D01*
X015384Y012835D01*
X015393Y012849D01*
X015397Y012868D01*
X015393Y012886D01*
X015384Y012900D01*
X015393Y012914D01*
X015397Y012933D01*
X015393Y012951D01*
X015384Y012965D01*
X015393Y012979D01*
X015397Y012998D01*
X015393Y013016D01*
X015384Y013030D01*
X015393Y013044D01*
X015394Y013050D01*
D02*
G37*
G36*
X011915Y013051D02*
X011888Y013048D01*
X011862Y013037D01*
X011840Y013020D01*
X011824Y012998D01*
X011813Y012973D01*
X011809Y012946D01*
X011813Y012918D01*
X011824Y012893D01*
X011840Y012871D01*
X011862Y012854D01*
X011888Y012843D01*
X011915Y012840D01*
X011943Y012843D01*
X011968Y012854D01*
X011990Y012871D01*
X012007Y012893D01*
X012018Y012918D01*
X012021Y012946D01*
X012018Y012973D01*
X012007Y012998D01*
X011990Y013020D01*
X011968Y013037D01*
X011943Y013048D01*
X011915Y013051D01*
D02*
G37*
G36*
X012157Y012332D02*
X012065D01*
X012067Y012317D01*
X012078Y012291D01*
X012094Y012270D01*
X012116Y012253D01*
X012142Y012242D01*
X012157Y012240D01*
Y012332D01*
D02*
G37*
G36*
X012274D02*
X012182D01*
Y012240D01*
X012197Y012242D01*
X012222Y012253D01*
X012244Y012270D01*
X012261Y012291D01*
X012272Y012317D01*
X012274Y012332D01*
D02*
G37*
G36*
X011915Y012450D02*
X011888Y012447D01*
X011862Y012436D01*
X011840Y012419D01*
X011824Y012397D01*
X011813Y012372D01*
X011809Y012344D01*
X011813Y012317D01*
X011824Y012291D01*
X011840Y012270D01*
X011862Y012253D01*
X011888Y012242D01*
X011915Y012238D01*
X011943Y012242D01*
X011968Y012253D01*
X011990Y012270D01*
X012007Y012291D01*
X012018Y012317D01*
X012021Y012344D01*
X012018Y012372D01*
X012007Y012397D01*
X011990Y012419D01*
X011968Y012436D01*
X011943Y012447D01*
X011915Y012450D01*
D02*
G37*
G36*
X016954Y012319D02*
X016863D01*
X016865Y012304D01*
X016875Y012279D01*
X016892Y012257D01*
X016914Y012240D01*
X016940Y012229D01*
X016954Y012227D01*
Y012319D01*
D02*
G37*
G36*
X017071D02*
X016980D01*
Y012227D01*
X016995Y012229D01*
X017020Y012240D01*
X017042Y012257D01*
X017059Y012279D01*
X017069Y012304D01*
X017071Y012319D01*
D02*
G37*
G36*
X012182Y012449D02*
Y012357D01*
X012274D01*
X012272Y012372D01*
X012261Y012397D01*
X012244Y012419D01*
X012222Y012436D01*
X012197Y012447D01*
X012182Y012449D01*
D02*
G37*
G36*
X014688Y012573D02*
X014592D01*
Y012478D01*
X014608Y012480D01*
X014634Y012491D01*
X014657Y012508D01*
X014675Y012531D01*
X014686Y012557D01*
X014688Y012573D01*
D02*
G37*
G36*
X012157Y012449D02*
X012142Y012447D01*
X012116Y012436D01*
X012094Y012419D01*
X012078Y012397D01*
X012067Y012372D01*
X012065Y012357D01*
X012157D01*
Y012449D01*
D02*
G37*
G36*
X016954Y012436D02*
X016940Y012434D01*
X016914Y012423D01*
X016892Y012407D01*
X016875Y012385D01*
X016865Y012359D01*
X016863Y012344D01*
X016954D01*
Y012436D01*
D02*
G37*
G36*
X016980D02*
Y012344D01*
X017071D01*
X017069Y012359D01*
X017059Y012385D01*
X017042Y012407D01*
X017020Y012423D01*
X016995Y012434D01*
X016980Y012436D01*
D02*
G37*
%LPD*%
D10*
X014834Y012586D02*
G03*
X015048Y012497I000215J000215D01*
G01*
X015870Y012933D02*
G03*
X015690Y012858I000000J-000254D01*
G01*
X015212Y012497D02*
G03*
X015412Y012580I000000J000283D01*
G01*
X013049Y011651D02*
G03*
X012592Y011461I000000J-000647D01*
G01*
X012063Y010933D02*
G03*
X011989Y010753I000180J-000180D01*
G01*
X018000Y012010D02*
G03*
X018252Y011906I000252J000252D01*
G01*
X017920Y012090D02*
G03*
X017893Y012155I-000092J000000D01*
G01*
X018943Y011906D02*
G03*
X019154Y012117I000000J000211D01*
G01*
X017625Y012423D02*
G03*
X017539Y012459I-000087J-000087D01*
G01*
X014438Y011737D02*
G03*
X014258Y011811I-000180J-000180D01*
G01*
X013049Y011731D02*
G03*
X013768Y011978I000000J001171D01*
G01*
X013614Y012376D02*
G03*
X014179Y011811I000565J000000D01*
G01*
X014207Y013515D02*
G03*
X014110Y013475I000000J-000138D01*
G01*
X014186Y010630D02*
G03*
X014033Y010693I-000153J-000153D01*
G01*
X017399Y009372D02*
G03*
X017327Y009546I-000246J000000D01*
G01*
X017272Y009373D02*
G03*
X017207Y009530I-000223J000000D01*
G01*
X016804Y009539D02*
G03*
X016878Y009719I-000180J000180D01*
G01*
X013214Y010450D02*
G03*
X013419Y009955I000700J000000D01*
G01*
X013294Y010341D02*
G03*
X013369Y010161I000254J000000D01*
G01*
X013522Y010408D02*
G03*
X013660Y010478I-000037J000245D01*
G01*
X013374Y010516D02*
G03*
X013484Y010406I000110J000000D01*
G01*
X014063Y010338D02*
G03*
X013958Y010294I000000J-000148D01*
G01*
X014063Y010338D02*
G03*
X014186Y010389I000000J000173D01*
G01*
D02*
G03*
X014211Y010450I-000061J000061D01*
G01*
Y010569D02*
G03*
X014186Y010630I-000087J000000D01*
G01*
X013602Y010732D02*
G03*
X013694Y010693I000092J000092D01*
G01*
X013534Y010894D02*
G03*
X013602Y010732I000230J000000D01*
G01*
X013694Y011146D02*
G03*
X013843Y010998I000149J000000D01*
G01*
X016256Y009446D02*
G03*
X016182Y009625I-000254J000000D01*
G01*
X017854D02*
G03*
X017780Y009446I000180J-000180D01*
G01*
X013454Y010546D02*
G03*
X013484Y010516I000030J000000D01*
G01*
X013614Y010947D02*
G03*
X013640Y010922I000025J000000D01*
G01*
X013934Y011312D02*
G03*
X013868Y011379I-000066J000000D01*
G01*
X019154Y013069D02*
G03*
X018958Y013266I-000196J000000D01*
G01*
X017100Y013339D02*
G03*
X016674Y013515I-000426J-000426D01*
G01*
X016238Y013128D02*
G03*
X016418Y013202I000000J000254D01*
G01*
X016428Y012988D02*
G03*
X016248Y013063I-000180J-000180D01*
G01*
X014068Y012506D02*
G03*
X014014Y012376I000130J-000130D01*
G01*
X015166Y013453D02*
G03*
X014908Y013345I000000J-000366D01*
G01*
X015418Y013515D02*
G03*
X015411Y013508I000000J-000007D01*
G01*
X013294Y012686D02*
G03*
X013220Y012866I-000254J000000D01*
G01*
X013331Y012869D02*
G03*
X013392Y012807I000061J000000D01*
G01*
X013404Y013429D02*
G03*
X013329Y013249I000180J-000180D01*
G01*
X013694Y012616D02*
G03*
X013620Y012796I-000254J000000D01*
G01*
X014092Y012949D02*
G03*
X013854Y012376I000573J-000573D01*
G01*
X012827Y012706D02*
G03*
X012901Y012526I000254J000000D01*
G01*
X013404Y012244D02*
G03*
X013447Y012286I000000J000042D01*
G01*
X014596Y011897D02*
G03*
X014416Y011971I-000180J-000180D01*
G01*
X014323Y011671D02*
G03*
X014437Y011557I000114J000000D01*
G01*
X014323Y011671D02*
G03*
X014263Y011731I-000060J000000D01*
G01*
X014656Y011637D02*
G03*
X014402Y011891I-000254J000000D01*
G01*
X016214Y012211D02*
G03*
X016426Y012299I000000J000300D01*
G01*
X016229Y012131D02*
G03*
X016713Y012332I000000J000685D01*
G01*
X012760Y011731D02*
G03*
X012586Y011659I000000J-000247D01*
G01*
X013934Y012376D02*
G03*
X013932Y012374I000000J-000003D01*
G01*
X015168Y013193D02*
G03*
X014870Y013070I000000J-000420D01*
G01*
X013932Y012281D02*
G03*
X013969Y012244I000037J000000D01*
G01*
X013543Y012657D02*
G03*
X013392Y012807I-000151J000000D01*
G01*
X013614Y012532D02*
G03*
X013576Y012624I-000130J000000D01*
G01*
X016810Y008793D02*
G03*
X016989Y008719I000180J000180D01*
G01*
X017783D02*
G03*
X017962Y008793I000000J000254D01*
G01*
X018093Y008923D02*
G03*
X018268Y009347I-000424J000424D01*
G01*
X016616Y008733D02*
G03*
X016795Y008659I000180J000180D01*
G01*
X017807D02*
G03*
X017988Y008734I000000J000256D01*
G01*
X014111Y011571D02*
G03*
X014034Y011493I000000J-000077D01*
G01*
X018143Y008889D02*
G03*
X018339Y009362I-000473J000473D01*
G01*
X012787Y011981D02*
G03*
X013003Y011891I000216J000216D01*
G01*
X012807Y012045D02*
G03*
X012987Y011971I000180J000180D01*
G01*
X012543Y012422D02*
G03*
X012470Y012598I-000249J000000D01*
G01*
X012543Y012414D02*
G03*
X012618Y012235I000254J000000D01*
G01*
X012775Y012162D02*
G03*
X013044Y012051I000268J000268D01*
G01*
X012605Y012507D02*
G03*
X012728Y012209I000422J000000D01*
G01*
X012605Y012507D02*
G03*
X012423Y012946I-000620J000000D01*
G01*
X012817Y012205D02*
G03*
X012996Y012131I000180J000180D01*
G01*
X012665Y012572D02*
G03*
X012817Y012205I000519J000000D01*
G01*
X012665Y012663D02*
G03*
X012423Y013246I-000825J000000D01*
G01*
X013391Y009895D02*
G03*
X013571Y009821I000180J000180D01*
G01*
X013142Y010478D02*
G03*
X013375Y009914I000797J000000D01*
G01*
X016838Y010696D02*
G03*
X016658Y010770I-000180J-000180D01*
G01*
X016089Y010770D02*
G03*
X015096Y010359I000000J-001404D01*
G01*
X013796Y009821D02*
G03*
X015096Y010359I000000J001838D01*
G01*
X017005Y010668D02*
G03*
X016987Y010711I-000061J000000D01*
G01*
X017005Y009617D02*
G03*
X017080Y009437I000254J000000D01*
G01*
X013419Y009955D02*
G03*
X013599Y009881I000180J000180D01*
G01*
X016943Y010756D02*
G03*
X016763Y010830I-000180J-000180D01*
G01*
X016082Y010830D02*
G03*
X015058Y010406I000000J-001448D01*
G01*
X013790Y009881D02*
G03*
X015058Y010406I000000J001795D01*
G01*
X017132Y009710D02*
G03*
X017207Y009530I000254J000000D01*
G01*
X013774Y011197D02*
G03*
X013872Y011060I000145J000000D01*
G01*
D02*
G03*
X013919Y011052I000047J000137D01*
G01*
X014065Y010992D02*
G03*
X013919Y011052I-000146J-000146D01*
G01*
X016985Y010802D02*
G03*
X016773Y010890I-000212J-000212D01*
G01*
X014065Y010992D02*
G03*
X014310Y010890I000245J000245D01*
G01*
X014077Y011069D02*
G03*
X013966Y011115I-000111J-000111D01*
G01*
X017150Y010802D02*
G03*
X016793Y010950I-000357J-000357D01*
G01*
X014077Y011069D02*
G03*
X014362Y010950I000286J000286D01*
G01*
X013854Y011191D02*
G03*
X013932Y011114I000077J000000D01*
G01*
X018268Y010468D02*
G03*
X018194Y010648I-000254J000000D01*
G01*
X018194Y010648D02*
G03*
X017317Y011011I-000877J-000877D01*
G01*
X014014Y011246D02*
G03*
X014582Y011011I000568J000568D01*
G01*
X013963Y011114D02*
G03*
X013966Y011115I000000J000004D01*
G01*
X018339Y010453D02*
G03*
X018244Y010683I-000325J000000D01*
G01*
X018233Y010693D02*
G03*
X017313Y011074I-000920J-000920D01*
G01*
X014080Y011348D02*
G03*
X014740Y011074I000660J000660D01*
G01*
X017259Y010622D02*
G03*
X017209Y010744I-000173J000000D01*
G01*
X017247Y009732D02*
G03*
X017321Y009552I000254J000000D01*
G01*
X014656Y011637D02*
G03*
X014729Y011564I000073J000000D01*
G01*
X016695Y011551D02*
G03*
X017475Y012332I000000J000780D01*
G01*
X017219Y012090D02*
G03*
X017221Y012093I000000J000003D01*
G01*
X017453Y012459D02*
G03*
X017274Y012384I000000J-000254D01*
G01*
X015346Y013258D02*
G03*
X015411Y013322I000000J000065D01*
G01*
X015412Y012580D02*
X015690Y012858D01*
X015870Y012933D02*
X015946D01*
X018041Y012746D02*
Y013127D01*
X015048Y012497D02*
X015212D01*
X012063Y010933D02*
X012592Y011461D01*
X017920Y012090D02*
X018000Y012010D01*
X017453Y012459D02*
X017539D01*
X018252Y011906D02*
X018943D01*
X017625Y012423D02*
X017893Y012155D01*
X017625Y012423D02*
X017625Y012423D01*
X012760Y011731D02*
X013049D01*
X013047Y011729D02*
X013049Y011731D01*
X013614Y012376D02*
Y012532D01*
X014179Y011811D02*
X014258D01*
X015246Y013258D02*
X015346D01*
X014207Y013515D02*
X015418D01*
X013779Y013475D02*
X014110D01*
X017321Y009552D02*
X017327Y009546D01*
X016878Y009719D02*
Y010655D01*
X017080Y009437D02*
X017145Y009372D01*
X014034Y011394D02*
X014080Y011348D01*
X014111Y011571D02*
X014179D01*
X013214Y010450D02*
Y011246D01*
X013369Y010161D02*
X013497Y010033D01*
X013294Y010341D02*
Y011246D01*
X013660Y010478D02*
X013697Y010516D01*
X013374D02*
Y011246D01*
X013484Y010406D02*
X013522D01*
X014211Y010450D02*
Y010569D01*
X013694Y010693D02*
X014033D01*
X013697Y010033D02*
X013958Y010294D01*
X013534Y010894D02*
Y011246D01*
X013694Y011146D02*
Y011246D01*
X017272Y008865D02*
Y009373D01*
X016637Y009372D02*
X016804Y009539D01*
X016256Y008865D02*
Y009446D01*
X017780Y008865D02*
Y009446D01*
X017894Y009665D02*
X018148D01*
X017386D02*
X017653D01*
Y009372D02*
Y009665D01*
X016383Y009372D02*
Y009665D01*
X016624D01*
X015900D02*
X016142D01*
X013454Y010546D02*
Y011246D01*
X013614Y010947D02*
Y011246D01*
X013185Y011379D02*
X013868D01*
X013934Y011246D02*
Y011312D01*
X013142Y011336D02*
X013185Y011379D01*
X013142Y010478D02*
Y011336D01*
X013214Y011246D02*
X013222Y011239D01*
X013774Y011246D02*
X013782Y011239D01*
X013854Y011246D02*
X013862Y011239D01*
X013289Y011240D02*
X013294Y011246D01*
X016799Y012967D02*
X017018D01*
X016799Y013233D02*
X017018D01*
X015946Y012738D02*
X017487D01*
X013774Y012376D02*
Y012967D01*
X013447Y012368D02*
X013454Y012376D01*
X014179Y012051D02*
X014746D01*
X014179Y011411D02*
X014776D01*
X014172Y011564D02*
X014179Y011571D01*
X015946Y012673D02*
X018034D01*
X015958Y012596D02*
X018031D01*
X014776Y011411D02*
X014808Y011379D01*
X014746Y012051D02*
X014808Y011989D01*
X012827Y012906D02*
Y013109D01*
X013044Y011646D02*
X013049Y011651D01*
X012598Y011811D02*
X013049D01*
X017173Y012967D02*
Y013233D01*
X013449Y013475D02*
X013779D01*
X019154Y012117D02*
Y013069D01*
X017189Y013250D02*
X017205Y013266D01*
X017100Y013339D02*
X017189Y013250D01*
X015946Y013128D02*
X016238D01*
X015946Y013063D02*
X016248D01*
X017205Y013266D02*
X018958D01*
X015168Y013193D02*
X015246D01*
X015166Y013453D02*
X015246D01*
X014068Y012506D02*
X014908Y013345D01*
X015411Y013322D02*
Y013508D01*
X015418Y013515D02*
X016674D01*
X013294Y012376D02*
Y012686D01*
X013119Y012967D02*
X013220Y012866D01*
X013404Y013429D02*
X013449Y013475D01*
X013329Y012869D02*
Y013249D01*
X013694Y012376D02*
Y012616D01*
X013449Y012967D02*
X013620Y012796D01*
X014092Y012949D02*
X014110Y012967D01*
X012901Y012526D02*
X013184Y012244D01*
X013447Y012286D02*
Y012368D01*
X013184Y012244D02*
X013404D01*
X012586Y011659D02*
X012624D01*
X014179Y011971D02*
X014416D01*
X014596Y011897D02*
X014808Y011684D01*
X014415Y011557D02*
X014437D01*
X014453D01*
X014179Y011891D02*
X014402D01*
X014179Y012211D02*
X016214D01*
X016426Y012299D02*
X016459Y012332D01*
X014179Y012131D02*
X016229D01*
X016713Y012332D02*
X016713Y012332D01*
X013534Y012376D02*
Y012462D01*
X013411Y012586D02*
X013534Y012462D01*
X013576Y012624D02*
Y012663D01*
X013969Y012244D02*
X014044D01*
X014870Y013070D01*
X013934Y012376D02*
X013942Y012368D01*
X013932Y012281D02*
Y012374D01*
X014063Y010338D02*
X014063D01*
X016764Y008839D02*
X016810Y008793D01*
X016989Y008719D02*
X017783D01*
X017962Y008793D02*
X018093Y008923D01*
X016510Y008839D02*
X016616Y008733D01*
X017988Y008734D02*
X018143Y008889D01*
X014034Y011394D02*
Y011493D01*
X016795Y008659D02*
X017807D01*
X018339Y009360D02*
Y010453D01*
X013003Y011891D02*
X013049D01*
X012423Y012344D02*
X012787Y011981D01*
X013021Y011971D02*
X013049D01*
X012543Y012414D02*
Y012422D01*
X012423Y012645D02*
X012470Y012598D01*
X012618Y012235D02*
X012807Y012045D01*
X013044Y012051D02*
X013049D01*
X012423Y012946D02*
X012423Y012946D01*
X012728Y012209D02*
X012775Y012162D01*
X012990Y012131D02*
X012996D01*
X013049D01*
X012423Y013246D02*
X012423Y013246D01*
X012665Y012572D02*
Y012663D01*
X012987Y011971D02*
X012987D01*
X016838Y010696D02*
X016878Y010655D01*
X013375Y009914D02*
X013386Y009903D01*
X016089Y010770D02*
X016658D01*
X015096Y010359D02*
X015096Y010359D01*
X013571Y009821D02*
X013796D01*
X017005Y009617D02*
Y010668D01*
X013599Y009881D02*
X013790D01*
X016082Y010830D02*
X016763D01*
X015058Y010406D02*
X015058Y010406D01*
X017132Y009710D02*
Y010655D01*
X016985Y010802D02*
X017132Y010655D01*
X013774Y011197D02*
Y011246D01*
X014310Y010890D02*
X016773D01*
X014362Y010950D02*
X016793D01*
X014077Y011069D02*
X014077Y011069D01*
X013854Y011191D02*
Y011246D01*
X018194Y010648D02*
X018194Y010648D01*
X018268Y010468D02*
X018275Y009347D01*
X014582Y011011D02*
X017317D01*
X013919Y011052D02*
X013919D01*
X013932Y011114D02*
X013963D01*
X016943Y010756D02*
X016987Y010711D01*
X018233Y010693D02*
X018244Y010683D01*
X014740Y011074D02*
X017313D01*
X017247Y009732D02*
Y010536D01*
X017259Y010622D01*
X017150Y010802D02*
X017209Y010744D01*
X018227Y013421D02*
Y013424D01*
X017971Y013421D02*
X018227D01*
X016646Y011551D02*
X016695D01*
X014729Y011564D02*
X016646D01*
X017221Y012093D02*
Y012332D01*
X017274Y012384D01*
D11*
X012103Y011493D02*
G03*
X011887Y010973I000520J-000520D01*
G01*
X011722Y009540D02*
G03*
X011776Y009411I000183J000000D01*
G01*
X012103Y011493D02*
X012243Y011633D01*
X011722Y009540D02*
Y010071D01*
X011735Y010084D02*
Y010706D01*
D12*
X013805Y010922D02*
D03*
X013640D02*
D03*
X013576Y012624D02*
D03*
X013411D02*
D03*
D13*
X012827Y013459D02*
D03*
Y013109D02*
D03*
X016142Y009665D02*
D03*
X016383D02*
D03*
X017653D02*
D03*
X017894D02*
D03*
X015900Y010375D02*
D03*
X016624D02*
D03*
X017386D02*
D03*
X018148D02*
D03*
X014110Y012967D02*
D03*
X013779D02*
D03*
X013449D02*
D03*
X013119D02*
D03*
D14*
X018041Y012506D02*
D03*
Y012426D02*
D03*
Y012586D02*
D03*
Y012666D02*
D03*
X018041Y012746D02*
D03*
D15*
X018389Y012068D02*
D03*
Y013103D02*
D03*
X018814Y012068D02*
D03*
Y013103D02*
D03*
D16*
X017526Y012776D02*
D03*
Y012941D02*
D03*
X012586Y011659D02*
D03*
Y011824D02*
D03*
X014453Y011722D02*
D03*
Y011557D02*
D03*
D17*
X013214Y011246D02*
D03*
X013294D02*
D03*
X013374D02*
D03*
X013454D02*
D03*
X013534D02*
D03*
X013614D02*
D03*
X013694D02*
D03*
X013774D02*
D03*
X013854D02*
D03*
X013934D02*
D03*
X014014D02*
D03*
Y012376D02*
D03*
X013934D02*
D03*
X013854D02*
D03*
X013774D02*
D03*
X013694D02*
D03*
X013614D02*
D03*
X013534D02*
D03*
X013454D02*
D03*
X013374D02*
D03*
X013294D02*
D03*
X013214D02*
D03*
D18*
X014179Y011411D02*
D03*
Y011491D02*
D03*
Y011571D02*
D03*
Y011651D02*
D03*
Y011731D02*
D03*
Y011811D02*
D03*
Y011891D02*
D03*
Y011971D02*
D03*
Y012051D02*
D03*
Y012131D02*
D03*
Y012211D02*
D03*
X013049D02*
D03*
Y012131D02*
D03*
Y012051D02*
D03*
Y011971D02*
D03*
Y011891D02*
D03*
Y011811D02*
D03*
Y011731D02*
D03*
Y011651D02*
D03*
Y011571D02*
D03*
Y011491D02*
D03*
Y011411D02*
D03*
D19*
X012042Y010973D02*
D03*
X011887D02*
D03*
X017173Y012967D02*
D03*
X017018D02*
D03*
X017173Y013233D02*
D03*
X017018D02*
D03*
X017219Y012090D02*
D03*
X017374D02*
D03*
D20*
X016646Y012001D02*
D03*
Y011551D02*
D03*
X015646D02*
D03*
Y012001D02*
D03*
D21*
X012827Y012906D02*
D03*
Y012751D02*
D03*
X017971Y013421D02*
D03*
Y013266D02*
D03*
D22*
X015946Y012608D02*
D03*
Y012673D02*
D03*
Y012738D02*
D03*
Y012803D02*
D03*
Y012868D02*
D03*
Y012933D02*
D03*
Y012998D02*
D03*
Y013063D02*
D03*
Y013128D02*
D03*
Y013193D02*
D03*
Y013258D02*
D03*
Y013323D02*
D03*
Y013388D02*
D03*
Y013453D02*
D03*
X015246Y012608D02*
D03*
Y012673D02*
D03*
Y012738D02*
D03*
Y012803D02*
D03*
Y012868D02*
D03*
Y012933D02*
D03*
Y012998D02*
D03*
Y013063D02*
D03*
Y013128D02*
D03*
Y013193D02*
D03*
Y013258D02*
D03*
Y013323D02*
D03*
Y013388D02*
D03*
Y013453D02*
D03*
D23*
X016449Y012967D02*
D03*
X016799D02*
D03*
X016449Y013233D02*
D03*
X016799D02*
D03*
X018577Y013424D02*
D03*
X018227D02*
D03*
X011735Y010706D02*
D03*
X014808Y011989D02*
D03*
X017475Y012332D02*
D03*
X012423Y013246D02*
D03*
Y012946D02*
D03*
Y012645D02*
D03*
Y012344D02*
D03*
X014808Y011379D02*
D03*
Y011684D02*
D03*
X017907Y009373D02*
D03*
D24*
X017920Y012090D02*
D03*
Y011836D02*
D03*
D25*
Y011582D02*
D03*
D26*
X016142Y010375D02*
D03*
X016383D02*
D03*
X017653D02*
D03*
X017894D02*
D03*
X015900Y009665D02*
D03*
X016624D02*
D03*
X017386D02*
D03*
X018148D02*
D03*
X012243Y010706D02*
D03*
X011989D02*
D03*
X015316Y011989D02*
D03*
X015062D02*
D03*
X017221Y012332D02*
D03*
X016967D02*
D03*
X016713D02*
D03*
X016459D02*
D03*
X016205D02*
D03*
X011915Y013246D02*
D03*
X012169D02*
D03*
X011915Y012946D02*
D03*
X012169D02*
D03*
X011915Y012645D02*
D03*
X012169D02*
D03*
X011915Y012344D02*
D03*
X012169D02*
D03*
X015316Y011379D02*
D03*
X015062D02*
D03*
X015316Y011684D02*
D03*
X015062D02*
D03*
X014110Y013475D02*
D03*
Y013221D02*
D03*
X013779Y013475D02*
D03*
Y013221D02*
D03*
X013449Y013475D02*
D03*
Y013221D02*
D03*
X013119Y013475D02*
D03*
Y013221D02*
D03*
X017018Y008865D02*
D03*
X016891Y009373D02*
D03*
X016764Y008865D02*
D03*
X016637Y009373D02*
D03*
X017780Y008865D02*
D03*
X017653Y009373D02*
D03*
X017526Y008865D02*
D03*
X017399Y009373D02*
D03*
X017272Y008865D02*
D03*
X017145Y009373D02*
D03*
X016510Y008865D02*
D03*
X016383Y009373D02*
D03*
X016256Y008865D02*
D03*
X016129Y009373D02*
D03*
D27*
X017894Y010655D02*
D03*
X017132D02*
D03*
X016116D02*
D03*
X016878D02*
D03*
D28*
X018644Y011280D02*
D03*
D29*
Y011630D02*
D03*
X015034Y009398D02*
D03*
X012126Y009411D02*
D03*
D30*
X014684Y009398D02*
D03*
X011776Y009411D02*
D03*
D31*
X013497Y010516D02*
D03*
X013697D02*
D03*
X013897D02*
D03*
X013497Y010033D02*
D03*
X013697D02*
D03*
X013897D02*
D03*
D32*
X014097Y010516D02*
D03*
Y010033D02*
D03*
D33*
X019139Y009652D02*
D03*
X014580Y012586D02*
D03*
X014618Y013246D02*
D03*
X012230Y010071D02*
D03*
X011735Y011633D02*
D03*
X015049Y010579D02*
D03*
D34*
X018631Y009652D02*
D03*
X014834Y012586D02*
D03*
X011722Y010071D02*
D03*
X012243Y011633D02*
D03*
D35*
X014618Y013500D02*
D03*
X015049Y010071D02*
D03*
D36*
X018885Y010452D02*
D03*
X012979Y009411D02*
D03*
D37*
X017818Y012967D02*
D03*
X018656Y010935D02*
D03*
X017501Y013449D02*
D03*
X013983Y010858D02*
D03*
X018041Y013127D02*
D03*
X013767Y011989D02*
D03*
M02*
