%FSLAX42Y42*%
%MOMM*%
G71*
G01*
G75*
G04 Layer_Physical_Order=2*
G04 Layer_Color=16711680*
%ADD10R,1.55X0.90*%
%ADD11R,0.90X1.55*%
%ADD12R,1.50X1.50*%
%ADD13O,2.40X0.35*%
%ADD14R,1.70X1.00*%
%ADD15R,2.35X0.50*%
%ADD16R,2.50X2.35*%
%ADD17R,1.50X1.50*%
%ADD18R,2.10X1.40*%
%ADD19O,1.75X0.55*%
%ADD20O,0.55X1.75*%
%ADD21R,1.00X1.70*%
%ADD22C,0.30*%
%ADD23C,1.30*%
%ADD24C,1.50*%
%ADD25C,1.57*%
%ADD26R,1.57X1.57*%
%ADD27R,1.30X1.30*%
%ADD28C,1.30*%
%ADD29C,2.50*%
%ADD30R,2.50X2.50*%
%ADD31R,1.57X1.57*%
%ADD32C,6.90*%
%ADD33C,1.40*%
%ADD34R,2.50X1.80*%
%ADD35O,2.50X1.80*%
%ADD36C,1.27*%
G36*
X18618Y13589D02*
X18745D01*
X18771Y13564D01*
X18783Y13551D01*
X18860D01*
X18872Y13538D01*
X18898Y13513D01*
X18936D01*
X18974Y13475D01*
X19012D01*
X19215Y13271D01*
X19279Y13208D01*
Y13195D01*
Y13183D01*
X19304Y13157D01*
X19329Y13132D01*
Y13119D01*
Y13094D01*
X19342Y13081D01*
X19368Y13056D01*
Y13018D01*
Y12979D01*
X19393Y12954D01*
X19406Y12941D01*
Y12890D01*
Y12840D01*
X19418Y12827D01*
X19431Y12814D01*
Y12764D01*
Y12700D01*
Y7938D01*
X16806D01*
X16804Y7950D01*
X16807Y7951D01*
X16826Y7966D01*
X18178Y9318D01*
X18193Y9338D01*
X18203Y9361D01*
X18206Y9386D01*
X18206Y9386D01*
X18206Y9386D01*
Y9386D01*
Y10573D01*
X18265D01*
Y10598D01*
X18463D01*
X18488Y10601D01*
X18511Y10610D01*
X18531Y10626D01*
X18531Y10626D01*
X18531Y10626D01*
X18624Y10719D01*
X18799D01*
Y11029D01*
X18489D01*
Y10855D01*
X18423Y10789D01*
X18265D01*
Y10813D01*
X18093D01*
X18086Y10824D01*
X18087Y10826D01*
X18098D01*
Y10947D01*
X18110D01*
Y10960D01*
X18265D01*
X18262Y10979D01*
X18250Y11008D01*
X18231Y11033D01*
X18206Y11052D01*
X18177Y11064D01*
X18148Y11068D01*
Y11081D01*
X18177Y11084D01*
X18206Y11097D01*
X18231Y11116D01*
X18250Y11141D01*
X18262Y11170D01*
X18266Y11201D01*
X18262Y11233D01*
X18250Y11262D01*
X18231Y11287D01*
X18206Y11306D01*
X18177Y11318D01*
X18145Y11322D01*
X18075D01*
X18044Y11318D01*
X18015Y11306D01*
X17990Y11287D01*
X17970Y11262D01*
X17958Y11233D01*
X17954Y11201D01*
X17958Y11170D01*
X17970Y11141D01*
X17990Y11116D01*
X18015Y11097D01*
X18044Y11084D01*
X18072Y11081D01*
Y11068D01*
X18044Y11064D01*
X18015Y11052D01*
X17990Y11033D01*
X17970Y11008D01*
X17958Y10979D01*
X17955Y10957D01*
X17943Y10953D01*
X17368Y11529D01*
Y11575D01*
X17381D01*
Y11657D01*
X18102Y12378D01*
X18116Y12397D01*
X18128Y12393D01*
Y12186D01*
X18131Y12174D01*
X18137Y12164D01*
X18147Y12157D01*
X18159Y12155D01*
X19109D01*
X19121Y12157D01*
X19131Y12164D01*
X19137Y12174D01*
X19140Y12186D01*
Y12986D01*
X19137Y12997D01*
X19131Y13007D01*
X19121Y13014D01*
X19109Y13016D01*
X18159D01*
X18147Y13014D01*
X18137Y13007D01*
X18131Y12997D01*
X18128Y12986D01*
Y12931D01*
X18116Y12926D01*
X18102Y12946D01*
X18082Y12961D01*
X18059Y12970D01*
X18034Y12974D01*
X18009Y12970D01*
X17986Y12961D01*
X17966Y12946D01*
X17951Y12926D01*
X17941Y12903D01*
X17938Y12878D01*
Y12486D01*
X17393Y11940D01*
X17381Y11944D01*
X17378Y11966D01*
X17367Y11993D01*
X17350Y12016D01*
X17327Y12033D01*
X17300Y12044D01*
X17285Y12046D01*
Y11938D01*
X17272D01*
Y11925D01*
X17164D01*
X17166Y11910D01*
X17177Y11883D01*
X17194Y11860D01*
X17217Y11843D01*
X17244Y11832D01*
X17266Y11829D01*
X17270Y11817D01*
X17245Y11793D01*
X17163D01*
Y11780D01*
X15717D01*
Y12738D01*
X15714Y12763D01*
X15704Y12786D01*
X15689Y12806D01*
X15669Y12821D01*
X15646Y12831D01*
X15621Y12834D01*
X15596Y12831D01*
X15573Y12821D01*
X15553Y12806D01*
X15538Y12786D01*
X15528Y12763D01*
X15525Y12738D01*
Y11724D01*
X15279Y11477D01*
X15263Y11471D01*
X15241Y11454D01*
X15224Y11432D01*
X15218Y11417D01*
X15180Y11378D01*
X15168Y11382D01*
X15164Y11407D01*
X15154Y11432D01*
X15137Y11454D01*
X15115Y11471D01*
X15090Y11481D01*
X15075Y11483D01*
Y11379D01*
X15062D01*
Y11367D01*
X14958D01*
X14960Y11352D01*
X14970Y11326D01*
X14987Y11304D01*
X15009Y11287D01*
X15035Y11277D01*
X15059Y11274D01*
X15063Y11262D01*
X14808Y11007D01*
X14364Y11451D01*
X14344Y11466D01*
X14321Y11476D01*
X14296Y11479D01*
X12455D01*
X12310Y11625D01*
X12290Y11640D01*
X12267Y11650D01*
X12242Y11653D01*
X12181D01*
X12014Y11820D01*
X12018Y11832D01*
X12044Y11836D01*
X12070Y11846D01*
X12092Y11863D01*
X12109Y11885D01*
X12119Y11911D01*
X12121Y11925D01*
X12017D01*
Y11938D01*
X12004D01*
Y12042D01*
X11989Y12040D01*
X11964Y12030D01*
X11942Y12013D01*
X11925Y11991D01*
X11915Y11965D01*
X11911Y11939D01*
X11899Y11935D01*
X11863Y11971D01*
X11856Y11988D01*
Y12189D01*
X11865Y12211D01*
X11869Y12239D01*
X11865Y12266D01*
X11856Y12288D01*
Y12490D01*
X11865Y12512D01*
X11869Y12539D01*
X11865Y12567D01*
X11856Y12589D01*
Y12790D01*
X11861Y12802D01*
X11899Y12841D01*
X11911Y12837D01*
X11915Y12812D01*
X11925Y12787D01*
X11942Y12765D01*
X11964Y12748D01*
X11989Y12737D01*
X12004Y12735D01*
Y12840D01*
X12017D01*
Y12852D01*
X12121D01*
X12119Y12867D01*
X12109Y12893D01*
X12092Y12915D01*
X12070Y12931D01*
X12044Y12942D01*
X12020Y12945D01*
X12016Y12957D01*
X12438Y13379D01*
X13076D01*
X13092Y13372D01*
X13119Y13369D01*
X13147Y13372D01*
X13172Y13383D01*
X13194Y13400D01*
X13211Y13422D01*
X13221Y13447D01*
X13225Y13475D01*
X13221Y13502D01*
X13211Y13528D01*
X13194Y13550D01*
X13172Y13566D01*
X13147Y13577D01*
X13119Y13581D01*
X13092Y13577D01*
X13076Y13571D01*
X12398D01*
X12373Y13567D01*
X12360Y13562D01*
X12350Y13558D01*
X12330Y13542D01*
X11726Y12938D01*
X11710Y12931D01*
X11688Y12915D01*
X11671Y12893D01*
X11661Y12867D01*
X11657Y12840D01*
X11661Y12812D01*
X11664Y12803D01*
Y12576D01*
X11661Y12567D01*
X11657Y12539D01*
X11661Y12512D01*
X11664Y12503D01*
Y12275D01*
X11661Y12266D01*
X11657Y12239D01*
X11661Y12211D01*
X11664Y12202D01*
Y11975D01*
X11661Y11965D01*
X11657Y11938D01*
X11661Y11911D01*
X11671Y11885D01*
X11688Y11863D01*
X11710Y11846D01*
X11721Y11842D01*
X12073Y11489D01*
X12093Y11474D01*
X12103Y11470D01*
X12116Y11464D01*
X12141Y11461D01*
X12202D01*
X12257Y11406D01*
X12253Y11394D01*
X12241Y11393D01*
X12215Y11382D01*
X12193Y11365D01*
X12176Y11343D01*
X12166Y11318D01*
X12164Y11303D01*
X12268D01*
Y11290D01*
X12281D01*
Y11186D01*
X12296Y11188D01*
X12321Y11199D01*
X12343Y11215D01*
X12360Y11237D01*
X12370Y11263D01*
X12374Y11287D01*
X12385Y11293D01*
X12391Y11291D01*
X12391Y11291D01*
X12391Y11291D01*
D01*
X12391Y11291D01*
X12391Y11291D01*
X12416Y11287D01*
X12490D01*
Y11278D01*
X12493Y11253D01*
X12503Y11230D01*
X12518Y11210D01*
X12538Y11195D01*
X12561Y11185D01*
X12586Y11182D01*
X12611Y11185D01*
X12634Y11195D01*
X12653Y11210D01*
X12669Y11230D01*
X12678Y11253D01*
X12682Y11278D01*
Y11287D01*
X14256D01*
X14712Y10832D01*
Y10523D01*
X14059D01*
X14053Y10522D01*
X13964D01*
Y10454D01*
X13951Y10452D01*
X13942Y10475D01*
X13927Y10494D01*
X13907Y10510D01*
X13884Y10519D01*
X13872Y10521D01*
Y10427D01*
Y10333D01*
X13884Y10334D01*
X13907Y10344D01*
X13927Y10359D01*
X13942Y10379D01*
X13951Y10402D01*
X13964Y10399D01*
Y10332D01*
X14053D01*
X14059Y10331D01*
X14712D01*
Y9926D01*
X14059D01*
X14053Y9925D01*
X13964D01*
Y9857D01*
X13951Y9855D01*
X13942Y9878D01*
X13927Y9898D01*
X13907Y9913D01*
X13884Y9922D01*
X13872Y9924D01*
Y9830D01*
Y9736D01*
X13884Y9737D01*
X13907Y9747D01*
X13927Y9762D01*
X13942Y9782D01*
X13951Y9805D01*
X13964Y9802D01*
Y9735D01*
X14053D01*
X14059Y9734D01*
X14712D01*
Y9659D01*
X14699D01*
Y9442D01*
X14917D01*
Y9659D01*
X14904D01*
Y10832D01*
X15354Y11281D01*
X15369Y11287D01*
X15391Y11304D01*
X15408Y11326D01*
X15414Y11342D01*
X15661Y11588D01*
X17163D01*
Y11575D01*
X17176D01*
Y11489D01*
X17179Y11464D01*
X17179Y11464D01*
X17179Y11464D01*
X17189Y11441D01*
X17204Y11421D01*
X17955Y10670D01*
Y10573D01*
X18014D01*
Y9425D01*
X17160Y8571D01*
X17148Y8575D01*
X17146Y8587D01*
X17136Y8613D01*
X17119Y8635D01*
X17097Y8652D01*
X17071Y8662D01*
X17044Y8666D01*
X17016Y8662D01*
X16991Y8652D01*
X16969Y8635D01*
X16952Y8613D01*
X16942Y8587D01*
X16938Y8560D01*
X16942Y8532D01*
X16952Y8507D01*
X16969Y8485D01*
X16991Y8468D01*
X17016Y8458D01*
X17029Y8456D01*
X17033Y8444D01*
X16719Y8130D01*
X16586D01*
X16581Y8141D01*
X16588Y8151D01*
X16599Y8177D01*
X16603Y8204D01*
X16599Y8232D01*
X16588Y8257D01*
X16572Y8279D01*
X16550Y8296D01*
X16524Y8306D01*
X16497Y8310D01*
X16469Y8306D01*
X16444Y8296D01*
X16434Y8288D01*
X16423Y8294D01*
Y8340D01*
X16602D01*
Y8550D01*
X16423D01*
Y8582D01*
X16602D01*
Y8792D01*
X16423D01*
Y8838D01*
X16434Y8844D01*
X16444Y8836D01*
X16469Y8826D01*
X16497Y8822D01*
X16524Y8826D01*
X16550Y8836D01*
X16572Y8853D01*
X16588Y8875D01*
X16599Y8901D01*
X16603Y8928D01*
X16599Y8956D01*
X16588Y8981D01*
X16572Y9003D01*
X16550Y9020D01*
X16524Y9030D01*
X16512Y9032D01*
X16508Y9044D01*
X16563Y9099D01*
X16747D01*
X16762Y9093D01*
X16790Y9089D01*
X16817Y9093D01*
X16843Y9103D01*
X16865Y9120D01*
X16882Y9142D01*
X16892Y9167D01*
X16896Y9195D01*
X16892Y9222D01*
X16882Y9248D01*
X16865Y9270D01*
X16843Y9287D01*
X16817Y9297D01*
X16790Y9301D01*
X16762Y9297D01*
X16747Y9291D01*
X16523D01*
X16498Y9287D01*
X16475Y9278D01*
X16455Y9263D01*
X16259Y9066D01*
X16244Y9046D01*
X16234Y9023D01*
X16231Y8999D01*
Y8134D01*
X16234Y8109D01*
X16234Y8109D01*
X16234Y8109D01*
X16244Y8086D01*
X16259Y8066D01*
X16359Y7966D01*
X16378Y7951D01*
X16381Y7950D01*
X16379Y7938D01*
X11493D01*
Y12776D01*
X12319Y13602D01*
X18605D01*
X18618Y13589D01*
D02*
G37*
%LPC*%
G36*
X15774Y9944D02*
X15682D01*
X15684Y9929D01*
X15695Y9904D01*
X15712Y9882D01*
X15734Y9865D01*
X15759Y9855D01*
X15774Y9853D01*
Y9944D01*
D02*
G37*
G36*
X15891D02*
X15799D01*
Y9853D01*
X15814Y9855D01*
X15840Y9865D01*
X15862Y9882D01*
X15878Y9904D01*
X15889Y9929D01*
X15891Y9944D01*
D02*
G37*
G36*
X16602Y10062D02*
X16392D01*
Y9852D01*
X16602D01*
Y10062D01*
D02*
G37*
G36*
X16790Y10063D02*
X16762Y10059D01*
X16737Y10049D01*
X16715Y10032D01*
X16698Y10010D01*
X16688Y9984D01*
X16684Y9957D01*
X16688Y9929D01*
X16698Y9904D01*
X16715Y9882D01*
X16737Y9865D01*
X16762Y9855D01*
X16790Y9851D01*
X16817Y9855D01*
X16843Y9865D01*
X16865Y9882D01*
X16882Y9904D01*
X16892Y9929D01*
X16896Y9957D01*
X16892Y9984D01*
X16882Y10010D01*
X16865Y10032D01*
X16843Y10049D01*
X16817Y10059D01*
X16790Y10063D01*
D02*
G37*
G36*
X15774Y10061D02*
X15759Y10059D01*
X15734Y10049D01*
X15712Y10032D01*
X15695Y10010D01*
X15684Y9984D01*
X15682Y9969D01*
X15774D01*
Y10061D01*
D02*
G37*
G36*
Y10185D02*
X15682D01*
X15684Y10171D01*
X15695Y10145D01*
X15712Y10123D01*
X15734Y10106D01*
X15759Y10096D01*
X15774Y10094D01*
Y10185D01*
D02*
G37*
G36*
X15891D02*
X15799D01*
Y10094D01*
X15814Y10096D01*
X15840Y10106D01*
X15862Y10123D01*
X15878Y10145D01*
X15889Y10171D01*
X15891Y10185D01*
D02*
G37*
G36*
X15799Y10061D02*
Y9969D01*
X15891D01*
X15889Y9984D01*
X15878Y10010D01*
X15862Y10032D01*
X15840Y10049D01*
X15814Y10059D01*
X15799Y10061D01*
D02*
G37*
G36*
X16602Y10303D02*
X16392D01*
Y10093D01*
X16602D01*
Y10303D01*
D02*
G37*
G36*
X12306Y9479D02*
Y9337D01*
X12448D01*
X12446Y9355D01*
X12437Y9384D01*
X12423Y9411D01*
X12404Y9435D01*
X12380Y9454D01*
X12353Y9468D01*
X12324Y9477D01*
X12306Y9479D01*
D02*
G37*
G36*
X16790Y9555D02*
X16762Y9551D01*
X16737Y9541D01*
X16715Y9524D01*
X16698Y9502D01*
X16688Y9476D01*
X16684Y9449D01*
X16688Y9421D01*
X16698Y9396D01*
X16715Y9374D01*
X16737Y9357D01*
X16762Y9347D01*
X16790Y9343D01*
X16817Y9347D01*
X16843Y9357D01*
X16865Y9374D01*
X16882Y9396D01*
X16892Y9421D01*
X16896Y9449D01*
X16892Y9476D01*
X16882Y9502D01*
X16865Y9524D01*
X16843Y9541D01*
X16817Y9551D01*
X16790Y9555D01*
D02*
G37*
G36*
X15507Y9537D02*
X15481Y9534D01*
X15456Y9523D01*
X15435Y9507D01*
X15419Y9487D01*
X15409Y9462D01*
X15406Y9436D01*
X15409Y9410D01*
X15419Y9386D01*
X15435Y9365D01*
X15456Y9349D01*
X15481Y9339D01*
X15507Y9335D01*
X15533Y9339D01*
X15557Y9349D01*
X15578Y9365D01*
X15594Y9386D01*
X15604Y9410D01*
X15608Y9436D01*
X15604Y9462D01*
X15594Y9487D01*
X15578Y9507D01*
X15557Y9523D01*
X15533Y9534D01*
X15507Y9537D01*
D02*
G37*
G36*
X12281Y9479D02*
X12263Y9477D01*
X12234Y9468D01*
X12207Y9454D01*
X12183Y9435D01*
X12164Y9411D01*
X12150Y9384D01*
X12141Y9355D01*
X12139Y9337D01*
X12281D01*
Y9479D01*
D02*
G37*
G36*
X17044Y9682D02*
X17016Y9678D01*
X16991Y9668D01*
X16969Y9651D01*
X16952Y9629D01*
X16942Y9603D01*
X16938Y9576D01*
X16942Y9548D01*
X16952Y9523D01*
X16969Y9501D01*
X16991Y9484D01*
X17016Y9474D01*
X17044Y9470D01*
X17071Y9474D01*
X17097Y9484D01*
X17119Y9501D01*
X17136Y9523D01*
X17146Y9548D01*
X17150Y9576D01*
X17146Y9603D01*
X17136Y9629D01*
X17119Y9651D01*
X17097Y9668D01*
X17071Y9678D01*
X17044Y9682D01*
D02*
G37*
G36*
X16790Y9809D02*
X16762Y9805D01*
X16737Y9795D01*
X16715Y9778D01*
X16698Y9756D01*
X16688Y9730D01*
X16684Y9703D01*
X16688Y9675D01*
X16698Y9650D01*
X16715Y9628D01*
X16737Y9611D01*
X16762Y9601D01*
X16790Y9597D01*
X16817Y9601D01*
X16843Y9611D01*
X16865Y9628D01*
X16882Y9650D01*
X16892Y9675D01*
X16896Y9703D01*
X16892Y9730D01*
X16882Y9756D01*
X16865Y9778D01*
X16843Y9795D01*
X16817Y9805D01*
X16790Y9809D01*
D02*
G37*
G36*
X13659Y9926D02*
X13634Y9922D01*
X13611Y9913D01*
X13591Y9898D01*
X13576Y9878D01*
X13566Y9855D01*
X13565Y9846D01*
X13553D01*
X13551Y9855D01*
X13542Y9878D01*
X13527Y9898D01*
X13507Y9913D01*
X13484Y9922D01*
X13459Y9926D01*
X13434Y9922D01*
X13411Y9913D01*
X13391Y9898D01*
X13376Y9878D01*
X13366Y9855D01*
X13363Y9830D01*
X13366Y9805D01*
X13376Y9782D01*
X13391Y9762D01*
X13411Y9747D01*
X13434Y9737D01*
X13459Y9734D01*
X13484Y9737D01*
X13507Y9747D01*
X13527Y9762D01*
X13542Y9782D01*
X13551Y9805D01*
X13553Y9813D01*
X13565D01*
X13566Y9805D01*
X13576Y9782D01*
X13591Y9762D01*
X13611Y9747D01*
X13634Y9737D01*
X13659Y9734D01*
X13684Y9737D01*
X13707Y9747D01*
X13727Y9762D01*
X13742Y9782D01*
X13751Y9805D01*
X13753Y9813D01*
X13765D01*
X13766Y9805D01*
X13776Y9782D01*
X13791Y9762D01*
X13811Y9747D01*
X13834Y9737D01*
X13846Y9736D01*
Y9830D01*
Y9924D01*
X13834Y9922D01*
X13811Y9913D01*
X13791Y9898D01*
X13776Y9878D01*
X13766Y9855D01*
X13765Y9846D01*
X13753D01*
X13751Y9855D01*
X13742Y9878D01*
X13727Y9898D01*
X13707Y9913D01*
X13684Y9922D01*
X13659Y9926D01*
D02*
G37*
G36*
X12449Y9830D02*
X12139D01*
Y9520D01*
X12449D01*
Y9830D01*
D02*
G37*
G36*
X16497Y9796D02*
X16469Y9792D01*
X16444Y9782D01*
X16422Y9765D01*
X16405Y9743D01*
X16394Y9718D01*
X16391Y9690D01*
X16394Y9663D01*
X16405Y9637D01*
X16422Y9615D01*
X16444Y9598D01*
X16469Y9588D01*
X16497Y9584D01*
X16524Y9588D01*
X16550Y9598D01*
X16572Y9615D01*
X16588Y9637D01*
X16599Y9663D01*
X16603Y9690D01*
X16599Y9718D01*
X16588Y9743D01*
X16572Y9765D01*
X16550Y9782D01*
X16524Y9792D01*
X16497Y9796D01*
D02*
G37*
G36*
X15494Y10185D02*
X15408D01*
X15409Y10172D01*
X15419Y10148D01*
X15435Y10127D01*
X15456Y10111D01*
X15481Y10101D01*
X15494Y10099D01*
Y10185D01*
D02*
G37*
G36*
X12243Y10554D02*
X12147D01*
X12150Y10538D01*
X12161Y10512D01*
X12178Y10489D01*
X12201Y10471D01*
X12227Y10460D01*
X12243Y10458D01*
Y10554D01*
D02*
G37*
G36*
X12364D02*
X12268D01*
Y10458D01*
X12284Y10460D01*
X12310Y10471D01*
X12333Y10489D01*
X12350Y10512D01*
X12361Y10538D01*
X12364Y10554D01*
D02*
G37*
G36*
X13659Y10523D02*
X13634Y10519D01*
X13611Y10510D01*
X13591Y10494D01*
X13576Y10475D01*
X13566Y10451D01*
X13565Y10443D01*
X13553D01*
X13551Y10451D01*
X13542Y10475D01*
X13527Y10494D01*
X13507Y10510D01*
X13484Y10519D01*
X13459Y10523D01*
X13434Y10519D01*
X13411Y10510D01*
X13391Y10494D01*
X13376Y10475D01*
X13366Y10451D01*
X13363Y10427D01*
X13366Y10402D01*
X13376Y10379D01*
X13391Y10359D01*
X13411Y10344D01*
X13434Y10334D01*
X13459Y10331D01*
X13484Y10334D01*
X13507Y10344D01*
X13527Y10359D01*
X13542Y10379D01*
X13551Y10402D01*
X13553Y10410D01*
X13565D01*
X13566Y10402D01*
X13576Y10379D01*
X13591Y10359D01*
X13611Y10344D01*
X13634Y10334D01*
X13659Y10331D01*
X13684Y10334D01*
X13707Y10344D01*
X13727Y10359D01*
X13742Y10379D01*
X13751Y10402D01*
X13753Y10410D01*
X13765D01*
X13766Y10402D01*
X13776Y10379D01*
X13791Y10359D01*
X13811Y10344D01*
X13834Y10334D01*
X13846Y10333D01*
Y10427D01*
Y10521D01*
X13834Y10519D01*
X13811Y10510D01*
X13791Y10494D01*
X13776Y10475D01*
X13766Y10451D01*
X13765Y10443D01*
X13753D01*
X13751Y10451D01*
X13742Y10475D01*
X13727Y10494D01*
X13707Y10510D01*
X13684Y10519D01*
X13659Y10523D01*
D02*
G37*
G36*
X11856Y10675D02*
X11639D01*
Y10458D01*
X11856D01*
Y10675D01*
D02*
G37*
G36*
X17330Y10739D02*
X17112D01*
Y10726D01*
X16167D01*
X16142Y10722D01*
X16119Y10713D01*
X16099Y10698D01*
X15950Y10548D01*
X15892D01*
Y10557D01*
X15682D01*
Y10347D01*
X15892D01*
Y10356D01*
X15906D01*
Y9786D01*
X15892D01*
Y9795D01*
X15682D01*
Y9585D01*
X15892D01*
Y9594D01*
X15906D01*
Y9024D01*
X15892D01*
Y9033D01*
X15682D01*
Y8823D01*
X15892D01*
Y8832D01*
X15906D01*
Y8465D01*
X15896Y8458D01*
X15891Y8460D01*
X15889Y8473D01*
X15878Y8498D01*
X15862Y8520D01*
X15840Y8537D01*
X15814Y8548D01*
X15799Y8550D01*
Y8446D01*
X15787D01*
Y8433D01*
X15682D01*
X15684Y8418D01*
X15695Y8393D01*
X15712Y8371D01*
X15734Y8354D01*
X15759Y8343D01*
X15772Y8341D01*
X15776Y8329D01*
X15756Y8309D01*
X15682D01*
Y8300D01*
X13806D01*
X13444Y8663D01*
Y8745D01*
X13226D01*
Y8729D01*
X12449D01*
Y8788D01*
X12139D01*
Y8478D01*
X12449D01*
Y8537D01*
X13226D01*
Y8527D01*
X13308D01*
X13699Y8136D01*
X13719Y8121D01*
D01*
D01*
Y8121D01*
X13719Y8121D01*
D01*
D01*
X13719D01*
Y8121D01*
D01*
X13719D01*
Y8121D01*
X13742Y8112D01*
X13767Y8108D01*
X15682D01*
Y8099D01*
X15892D01*
Y8174D01*
X16070Y8352D01*
X16085Y8372D01*
X16095Y8395D01*
X16098Y8419D01*
Y8928D01*
Y9690D01*
Y10425D01*
X16207Y10534D01*
X16413D01*
X16419Y10523D01*
X16405Y10505D01*
X16394Y10480D01*
X16391Y10452D01*
X16394Y10425D01*
X16405Y10399D01*
X16422Y10377D01*
X16444Y10360D01*
X16469Y10350D01*
X16497Y10346D01*
X16524Y10350D01*
X16550Y10360D01*
X16572Y10377D01*
X16588Y10399D01*
X16599Y10425D01*
X16603Y10452D01*
X16599Y10480D01*
X16588Y10505D01*
X16575Y10523D01*
X16581Y10534D01*
X17112D01*
Y10521D01*
X17125D01*
Y10168D01*
X17114Y10162D01*
X17097Y10176D01*
X17071Y10186D01*
X17044Y10190D01*
X17016Y10186D01*
X16991Y10176D01*
X16969Y10159D01*
X16952Y10137D01*
X16942Y10111D01*
X16938Y10084D01*
X16942Y10056D01*
X16952Y10031D01*
X16969Y10009D01*
X16991Y9992D01*
X17016Y9982D01*
X17041Y9978D01*
X17045Y9966D01*
X17007Y9928D01*
X16991Y9922D01*
X16969Y9905D01*
X16952Y9883D01*
X16942Y9857D01*
X16938Y9830D01*
X16942Y9802D01*
X16952Y9777D01*
X16969Y9755D01*
X16991Y9738D01*
X17016Y9728D01*
X17044Y9724D01*
X17071Y9728D01*
X17097Y9738D01*
X17119Y9755D01*
X17136Y9777D01*
X17142Y9792D01*
X17289Y9939D01*
X17304Y9959D01*
X17308Y9969D01*
X17314Y9982D01*
X17317Y10007D01*
Y10521D01*
X17330D01*
Y10739D01*
D02*
G37*
G36*
X18265Y10935D02*
X18123D01*
Y10826D01*
X18145D01*
X18177Y10830D01*
X18206Y10843D01*
X18231Y10862D01*
X18250Y10887D01*
X18262Y10916D01*
X18265Y10935D01*
D02*
G37*
G36*
X17209Y11125D02*
X17113D01*
X17115Y11110D01*
X17126Y11083D01*
X17144Y11060D01*
X17166Y11043D01*
X17193Y11032D01*
X17209Y11030D01*
Y11125D01*
D02*
G37*
G36*
X12243Y10674D02*
X12227Y10672D01*
X12201Y10661D01*
X12178Y10644D01*
X12161Y10621D01*
X12150Y10595D01*
X12147Y10579D01*
X12243D01*
Y10674D01*
D02*
G37*
G36*
X12268D02*
Y10579D01*
X12364D01*
X12361Y10595D01*
X12350Y10621D01*
X12333Y10644D01*
X12310Y10661D01*
X12284Y10672D01*
X12268Y10674D01*
D02*
G37*
G36*
X16895Y10198D02*
X16803D01*
Y10106D01*
X16895D01*
Y10198D01*
D02*
G37*
G36*
X15494Y10297D02*
X15481Y10296D01*
X15456Y10285D01*
X15435Y10269D01*
X15419Y10249D01*
X15409Y10224D01*
X15408Y10211D01*
X15494D01*
Y10297D01*
D02*
G37*
G36*
X15606Y10185D02*
X15519D01*
Y10099D01*
X15533Y10101D01*
X15557Y10111D01*
X15578Y10127D01*
X15594Y10148D01*
X15604Y10172D01*
X15606Y10185D01*
D02*
G37*
G36*
X16777Y10198D02*
X16685D01*
Y10106D01*
X16777D01*
Y10198D01*
D02*
G37*
G36*
X15519Y10297D02*
Y10211D01*
X15606D01*
X15604Y10224D01*
X15594Y10249D01*
X15578Y10269D01*
X15557Y10285D01*
X15533Y10296D01*
X15519Y10297D01*
D02*
G37*
G36*
X16777Y10316D02*
X16685D01*
Y10224D01*
X16777D01*
Y10316D01*
D02*
G37*
G36*
X16895D02*
X16803D01*
Y10224D01*
X16895D01*
Y10316D01*
D02*
G37*
G36*
X15774Y10302D02*
X15759Y10300D01*
X15734Y10290D01*
X15712Y10273D01*
X15695Y10251D01*
X15684Y10226D01*
X15682Y10211D01*
X15774D01*
Y10302D01*
D02*
G37*
G36*
X15799D02*
Y10211D01*
X15891D01*
X15889Y10226D01*
X15878Y10251D01*
X15862Y10273D01*
X15840Y10290D01*
X15814Y10300D01*
X15799Y10302D01*
D02*
G37*
G36*
X16803Y8537D02*
Y8446D01*
X16894D01*
X16892Y8460D01*
X16882Y8486D01*
X16865Y8508D01*
X16843Y8525D01*
X16817Y8535D01*
X16803Y8537D01*
D02*
G37*
G36*
X15774Y8550D02*
X15759Y8548D01*
X15734Y8537D01*
X15712Y8520D01*
X15695Y8498D01*
X15684Y8473D01*
X15682Y8458D01*
X15774D01*
Y8550D01*
D02*
G37*
G36*
X15519Y8519D02*
Y8433D01*
X15606D01*
X15604Y8446D01*
X15594Y8471D01*
X15578Y8491D01*
X15557Y8507D01*
X15533Y8518D01*
X15519Y8519D01*
D02*
G37*
G36*
X16777Y8537D02*
X16762Y8535D01*
X16737Y8525D01*
X16715Y8508D01*
X16698Y8486D01*
X16688Y8460D01*
X16686Y8446D01*
X16777D01*
Y8537D01*
D02*
G37*
G36*
X13830Y8623D02*
X13735D01*
X13737Y8608D01*
X13748Y8581D01*
X13765Y8558D01*
X13788Y8541D01*
X13815Y8530D01*
X13830Y8528D01*
Y8623D01*
D02*
G37*
G36*
X15774Y8674D02*
X15682D01*
X15684Y8659D01*
X15695Y8634D01*
X15712Y8612D01*
X15734Y8595D01*
X15759Y8585D01*
X15774Y8583D01*
Y8674D01*
D02*
G37*
G36*
X15891D02*
X15799D01*
Y8583D01*
X15814Y8585D01*
X15840Y8595D01*
X15862Y8612D01*
X15878Y8634D01*
X15889Y8659D01*
X15891Y8674D01*
D02*
G37*
G36*
X13951Y8623D02*
X13856D01*
Y8528D01*
X13871Y8530D01*
X13898Y8541D01*
X13921Y8558D01*
X13938Y8581D01*
X13949Y8608D01*
X13951Y8623D01*
D02*
G37*
G36*
X16790Y8793D02*
X16762Y8789D01*
X16737Y8779D01*
X16715Y8762D01*
X16698Y8740D01*
X16688Y8714D01*
X16684Y8687D01*
X16688Y8659D01*
X16698Y8634D01*
X16715Y8612D01*
X16737Y8595D01*
X16762Y8585D01*
X16790Y8581D01*
X16817Y8585D01*
X16843Y8595D01*
X16865Y8612D01*
X16882Y8634D01*
X16892Y8659D01*
X16896Y8687D01*
X16892Y8714D01*
X16882Y8740D01*
X16865Y8762D01*
X16843Y8779D01*
X16817Y8789D01*
X16790Y8793D01*
D02*
G37*
G36*
X12281Y8438D02*
X12263Y8436D01*
X12234Y8427D01*
X12207Y8413D01*
X12183Y8393D01*
X12164Y8370D01*
X12150Y8343D01*
X12141Y8314D01*
X12139Y8296D01*
X12281D01*
Y8438D01*
D02*
G37*
G36*
X12306D02*
Y8296D01*
X12448D01*
X12446Y8314D01*
X12437Y8343D01*
X12423Y8370D01*
X12404Y8393D01*
X12380Y8413D01*
X12353Y8427D01*
X12324Y8436D01*
X12306Y8438D01*
D02*
G37*
G36*
X12281Y8271D02*
X12139D01*
X12141Y8253D01*
X12150Y8224D01*
X12164Y8197D01*
X12183Y8173D01*
X12207Y8154D01*
X12234Y8139D01*
X12263Y8130D01*
X12281Y8129D01*
Y8271D01*
D02*
G37*
G36*
X12448D02*
X12306D01*
Y8129D01*
X12324Y8130D01*
X12353Y8139D01*
X12380Y8154D01*
X12404Y8173D01*
X12423Y8197D01*
X12437Y8224D01*
X12446Y8253D01*
X12448Y8271D01*
D02*
G37*
G36*
X15494Y8407D02*
X15408D01*
X15409Y8394D01*
X15419Y8370D01*
X15435Y8349D01*
X15456Y8333D01*
X15481Y8323D01*
X15494Y8321D01*
Y8407D01*
D02*
G37*
G36*
X16894Y8420D02*
X16803D01*
Y8329D01*
X16817Y8331D01*
X16843Y8341D01*
X16865Y8358D01*
X16882Y8380D01*
X16892Y8405D01*
X16894Y8420D01*
D02*
G37*
G36*
X15494Y8519D02*
X15481Y8518D01*
X15456Y8507D01*
X15435Y8491D01*
X15419Y8471D01*
X15409Y8446D01*
X15408Y8433D01*
X15494D01*
Y8519D01*
D02*
G37*
G36*
X15606Y8407D02*
X15519D01*
Y8321D01*
X15533Y8323D01*
X15557Y8333D01*
X15578Y8349D01*
X15594Y8370D01*
X15604Y8394D01*
X15606Y8407D01*
D02*
G37*
G36*
X16777Y8420D02*
X16686D01*
X16688Y8405D01*
X16698Y8380D01*
X16715Y8358D01*
X16737Y8341D01*
X16762Y8331D01*
X16777Y8329D01*
Y8420D01*
D02*
G37*
G36*
X13830Y8744D02*
X13815Y8742D01*
X13788Y8731D01*
X13765Y8714D01*
X13748Y8691D01*
X13737Y8664D01*
X13735Y8649D01*
X13830D01*
Y8744D01*
D02*
G37*
G36*
X15507Y9283D02*
X15481Y9280D01*
X15456Y9269D01*
X15435Y9253D01*
X15419Y9233D01*
X15409Y9208D01*
X15406Y9182D01*
X15409Y9156D01*
X15419Y9132D01*
X15435Y9111D01*
X15456Y9095D01*
X15481Y9085D01*
X15507Y9081D01*
X15533Y9085D01*
X15557Y9095D01*
X15578Y9111D01*
X15594Y9132D01*
X15604Y9156D01*
X15608Y9182D01*
X15604Y9208D01*
X15594Y9233D01*
X15578Y9253D01*
X15557Y9269D01*
X15533Y9280D01*
X15507Y9283D01*
D02*
G37*
G36*
X12281Y9312D02*
X12139D01*
X12141Y9294D01*
X12150Y9265D01*
X12164Y9238D01*
X12183Y9214D01*
X12207Y9195D01*
X12234Y9181D01*
X12263Y9172D01*
X12281Y9170D01*
Y9312D01*
D02*
G37*
G36*
X14796Y9150D02*
X14780Y9148D01*
X14753Y9137D01*
X14731Y9120D01*
X14713Y9097D01*
X14702Y9071D01*
X14700Y9055D01*
X14796D01*
Y9150D01*
D02*
G37*
G36*
X14821D02*
Y9055D01*
X14916D01*
X14914Y9071D01*
X14903Y9097D01*
X14886Y9120D01*
X14863Y9137D01*
X14837Y9148D01*
X14821Y9150D01*
D02*
G37*
G36*
X12448Y9312D02*
X12306D01*
Y9170D01*
X12324Y9172D01*
X12353Y9181D01*
X12380Y9195D01*
X12404Y9214D01*
X12423Y9238D01*
X12437Y9265D01*
X12446Y9294D01*
X12448Y9312D01*
D02*
G37*
G36*
X17031Y9426D02*
X17016Y9424D01*
X16991Y9414D01*
X16969Y9397D01*
X16952Y9375D01*
X16942Y9349D01*
X16940Y9335D01*
X17031D01*
Y9426D01*
D02*
G37*
G36*
X17057D02*
Y9335D01*
X17148D01*
X17146Y9349D01*
X17136Y9375D01*
X17119Y9397D01*
X17097Y9414D01*
X17071Y9424D01*
X17057Y9426D01*
D02*
G37*
G36*
X17031Y9309D02*
X16940D01*
X16942Y9294D01*
X16952Y9269D01*
X16969Y9247D01*
X16991Y9230D01*
X17016Y9220D01*
X17031Y9218D01*
Y9309D01*
D02*
G37*
G36*
X17148D02*
X17057D01*
Y9218D01*
X17071Y9220D01*
X17097Y9230D01*
X17119Y9247D01*
X17136Y9269D01*
X17146Y9294D01*
X17148Y9309D01*
D02*
G37*
G36*
X15799Y8791D02*
Y8700D01*
X15891D01*
X15889Y8714D01*
X15878Y8740D01*
X15862Y8762D01*
X15840Y8779D01*
X15814Y8789D01*
X15799Y8791D01*
D02*
G37*
G36*
X17044Y8920D02*
X17016Y8916D01*
X16991Y8906D01*
X16969Y8889D01*
X16952Y8867D01*
X16942Y8841D01*
X16938Y8814D01*
X16942Y8786D01*
X16952Y8761D01*
X16969Y8739D01*
X16991Y8722D01*
X17016Y8712D01*
X17044Y8708D01*
X17071Y8712D01*
X17097Y8722D01*
X17119Y8739D01*
X17136Y8761D01*
X17146Y8786D01*
X17150Y8814D01*
X17146Y8841D01*
X17136Y8867D01*
X17119Y8889D01*
X17097Y8906D01*
X17071Y8916D01*
X17044Y8920D01*
D02*
G37*
G36*
X13856Y8744D02*
Y8649D01*
X13951D01*
X13949Y8664D01*
X13938Y8691D01*
X13921Y8714D01*
X13898Y8731D01*
X13871Y8742D01*
X13856Y8744D01*
D02*
G37*
G36*
X15774Y8791D02*
X15759Y8789D01*
X15734Y8779D01*
X15712Y8762D01*
X15695Y8740D01*
X15684Y8714D01*
X15682Y8700D01*
X15774D01*
Y8791D01*
D02*
G37*
G36*
X16790Y9047D02*
X16762Y9043D01*
X16737Y9033D01*
X16715Y9016D01*
X16698Y8994D01*
X16688Y8968D01*
X16684Y8941D01*
X16688Y8913D01*
X16698Y8888D01*
X16715Y8866D01*
X16737Y8849D01*
X16762Y8839D01*
X16790Y8835D01*
X16817Y8839D01*
X16843Y8849D01*
X16865Y8866D01*
X16882Y8888D01*
X16892Y8913D01*
X16896Y8941D01*
X16892Y8968D01*
X16882Y8994D01*
X16865Y9016D01*
X16843Y9033D01*
X16817Y9043D01*
X16790Y9047D01*
D02*
G37*
G36*
X18821Y9698D02*
X18762Y9693D01*
X18705Y9680D01*
X18650Y9657D01*
X18600Y9626D01*
X18555Y9588D01*
X18517Y9543D01*
X18486Y9493D01*
X18463Y9438D01*
X18449Y9381D01*
X18445Y9322D01*
X18449Y9263D01*
X18463Y9206D01*
X18486Y9151D01*
X18517Y9101D01*
X18555Y9056D01*
X18600Y9017D01*
X18650Y8987D01*
X18705Y8964D01*
X18762Y8950D01*
X18821Y8946D01*
X18880Y8950D01*
X18937Y8964D01*
X18992Y8987D01*
X19042Y9017D01*
X19087Y9056D01*
X19125Y9101D01*
X19156Y9151D01*
X19179Y9206D01*
X19192Y9263D01*
X19197Y9322D01*
X19192Y9381D01*
X19179Y9438D01*
X19156Y9493D01*
X19125Y9543D01*
X19087Y9588D01*
X19042Y9626D01*
X18992Y9657D01*
X18937Y9680D01*
X18880Y9693D01*
X18821Y9698D01*
D02*
G37*
G36*
X17044Y9174D02*
X17016Y9170D01*
X16991Y9160D01*
X16969Y9143D01*
X16952Y9121D01*
X16942Y9095D01*
X16938Y9068D01*
X16942Y9040D01*
X16952Y9015D01*
X16969Y8993D01*
X16991Y8976D01*
X17016Y8966D01*
X17044Y8962D01*
X17071Y8966D01*
X17097Y8976D01*
X17119Y8993D01*
X17136Y9015D01*
X17146Y9040D01*
X17150Y9068D01*
X17146Y9095D01*
X17136Y9121D01*
X17119Y9143D01*
X17097Y9160D01*
X17071Y9170D01*
X17044Y9174D01*
D02*
G37*
G36*
X14796Y9030D02*
X14700D01*
X14702Y9014D01*
X14713Y8988D01*
X14731Y8965D01*
X14753Y8947D01*
X14780Y8936D01*
X14796Y8934D01*
Y9030D01*
D02*
G37*
G36*
X14916D02*
X14821D01*
Y8934D01*
X14837Y8936D01*
X14863Y8947D01*
X14886Y8965D01*
X14903Y8988D01*
X14914Y9014D01*
X14916Y9030D01*
D02*
G37*
G36*
X12004Y12643D02*
X11989Y12641D01*
X11964Y12631D01*
X11942Y12614D01*
X11925Y12592D01*
X11915Y12567D01*
X11913Y12552D01*
X12004D01*
Y12643D01*
D02*
G37*
G36*
X12030D02*
Y12552D01*
X12121D01*
X12119Y12567D01*
X12109Y12592D01*
X12092Y12614D01*
X12070Y12631D01*
X12044Y12641D01*
X12030Y12643D01*
D02*
G37*
G36*
X12004Y12526D02*
X11913D01*
X11915Y12512D01*
X11925Y12486D01*
X11942Y12464D01*
X11964Y12447D01*
X11989Y12437D01*
X12004Y12435D01*
Y12526D01*
D02*
G37*
G36*
X12121D02*
X12030D01*
Y12435D01*
X12044Y12437D01*
X12070Y12447D01*
X12092Y12464D01*
X12109Y12486D01*
X12119Y12512D01*
X12121Y12526D01*
D02*
G37*
G36*
X12376Y12945D02*
X12166D01*
Y12735D01*
X12376D01*
Y12945D01*
D02*
G37*
G36*
X13554Y13072D02*
X13344D01*
Y12862D01*
X13554D01*
Y13072D01*
D02*
G37*
G36*
X13885D02*
X13674D01*
Y12862D01*
X13885D01*
Y13072D01*
D02*
G37*
G36*
X12121Y12827D02*
X12030D01*
Y12735D01*
X12044Y12737D01*
X12070Y12748D01*
X12092Y12765D01*
X12109Y12787D01*
X12119Y12812D01*
X12121Y12827D01*
D02*
G37*
G36*
X13224Y13072D02*
X13014D01*
Y12862D01*
X13224D01*
Y13072D01*
D02*
G37*
G36*
X16954Y12319D02*
X16863D01*
X16865Y12304D01*
X16875Y12279D01*
X16892Y12257D01*
X16914Y12240D01*
X16940Y12229D01*
X16954Y12227D01*
Y12319D01*
D02*
G37*
G36*
X17071D02*
X16980D01*
Y12227D01*
X16995Y12229D01*
X17020Y12240D01*
X17042Y12257D01*
X17059Y12279D01*
X17069Y12304D01*
X17071Y12319D01*
D02*
G37*
G36*
X17221Y12438D02*
X17194Y12434D01*
X17168Y12423D01*
X17146Y12407D01*
X17129Y12385D01*
X17119Y12359D01*
X17115Y12332D01*
X17119Y12304D01*
X17129Y12279D01*
X17146Y12257D01*
X17168Y12240D01*
X17194Y12229D01*
X17221Y12226D01*
X17249Y12229D01*
X17274Y12240D01*
X17296Y12257D01*
X17313Y12279D01*
X17323Y12304D01*
X17327Y12332D01*
X17323Y12359D01*
X17313Y12385D01*
X17296Y12407D01*
X17274Y12423D01*
X17249Y12434D01*
X17221Y12438D01*
D02*
G37*
G36*
X17580Y12437D02*
X17370D01*
Y12227D01*
X17580D01*
Y12437D01*
D02*
G37*
G36*
X12004Y12343D02*
X11989Y12341D01*
X11964Y12330D01*
X11942Y12313D01*
X11925Y12292D01*
X11915Y12266D01*
X11913Y12251D01*
X12004D01*
Y12343D01*
D02*
G37*
G36*
X16980Y12436D02*
Y12344D01*
X17071D01*
X17069Y12359D01*
X17059Y12385D01*
X17042Y12407D01*
X17020Y12423D01*
X16995Y12434D01*
X16980Y12436D01*
D02*
G37*
G36*
X12376Y12644D02*
X12166D01*
Y12434D01*
X12376D01*
Y12644D01*
D02*
G37*
G36*
X12030Y12343D02*
Y12251D01*
X12121D01*
X12119Y12266D01*
X12109Y12292D01*
X12092Y12313D01*
X12070Y12330D01*
X12044Y12341D01*
X12030Y12343D01*
D02*
G37*
G36*
X16954Y12436D02*
X16940Y12434D01*
X16914Y12423D01*
X16892Y12407D01*
X16875Y12385D01*
X16865Y12359D01*
X16863Y12344D01*
X16954D01*
Y12436D01*
D02*
G37*
G36*
X14215Y13072D02*
X14005D01*
Y12862D01*
X14215D01*
Y13072D01*
D02*
G37*
G36*
X13462Y13325D02*
Y13233D01*
X13554D01*
X13552Y13248D01*
X13541Y13274D01*
X13524Y13296D01*
X13502Y13312D01*
X13477Y13323D01*
X13462Y13325D01*
D02*
G37*
G36*
X13767D02*
X13752Y13323D01*
X13727Y13312D01*
X13705Y13296D01*
X13688Y13274D01*
X13677Y13248D01*
X13675Y13233D01*
X13767D01*
Y13325D01*
D02*
G37*
G36*
X13132D02*
Y13233D01*
X13223D01*
X13221Y13248D01*
X13211Y13274D01*
X13194Y13296D01*
X13172Y13312D01*
X13147Y13323D01*
X13132Y13325D01*
D02*
G37*
G36*
X13437D02*
X13422Y13323D01*
X13396Y13312D01*
X13374Y13296D01*
X13358Y13274D01*
X13347Y13248D01*
X13345Y13233D01*
X13437D01*
Y13325D01*
D02*
G37*
G36*
X13792D02*
Y13233D01*
X13884D01*
X13882Y13248D01*
X13871Y13274D01*
X13854Y13296D01*
X13832Y13312D01*
X13807Y13323D01*
X13792Y13325D01*
D02*
G37*
G36*
X13449Y13581D02*
X13422Y13577D01*
X13396Y13566D01*
X13374Y13550D01*
X13358Y13528D01*
X13347Y13502D01*
X13343Y13475D01*
X13347Y13447D01*
X13358Y13422D01*
X13374Y13400D01*
X13396Y13383D01*
X13422Y13372D01*
X13449Y13369D01*
X13477Y13372D01*
X13502Y13383D01*
X13524Y13400D01*
X13541Y13422D01*
X13552Y13447D01*
X13555Y13475D01*
X13552Y13502D01*
X13541Y13528D01*
X13524Y13550D01*
X13502Y13566D01*
X13477Y13577D01*
X13449Y13581D01*
D02*
G37*
G36*
X13779D02*
X13752Y13577D01*
X13727Y13566D01*
X13705Y13550D01*
X13688Y13528D01*
X13677Y13502D01*
X13674Y13475D01*
X13677Y13447D01*
X13688Y13422D01*
X13705Y13400D01*
X13727Y13383D01*
X13752Y13372D01*
X13779Y13369D01*
X13807Y13372D01*
X13832Y13383D01*
X13854Y13400D01*
X13871Y13422D01*
X13882Y13447D01*
X13885Y13475D01*
X13882Y13502D01*
X13871Y13528D01*
X13854Y13550D01*
X13832Y13566D01*
X13807Y13577D01*
X13779Y13581D01*
D02*
G37*
G36*
X14097Y13325D02*
X14082Y13323D01*
X14057Y13312D01*
X14035Y13296D01*
X14018Y13274D01*
X14007Y13248D01*
X14005Y13233D01*
X14097D01*
Y13325D01*
D02*
G37*
G36*
X14122D02*
Y13233D01*
X14214D01*
X14212Y13248D01*
X14201Y13274D01*
X14185Y13296D01*
X14163Y13312D01*
X14137Y13323D01*
X14122Y13325D01*
D02*
G37*
G36*
X13437Y13208D02*
X13345D01*
X13347Y13193D01*
X13358Y13168D01*
X13374Y13146D01*
X13396Y13129D01*
X13422Y13118D01*
X13437Y13116D01*
Y13208D01*
D02*
G37*
G36*
X13554D02*
X13462D01*
Y13116D01*
X13477Y13118D01*
X13502Y13129D01*
X13524Y13146D01*
X13541Y13168D01*
X13552Y13193D01*
X13554Y13208D01*
D02*
G37*
G36*
X13106D02*
X13015D01*
X13017Y13193D01*
X13027Y13168D01*
X13044Y13146D01*
X13066Y13129D01*
X13092Y13118D01*
X13106Y13116D01*
Y13208D01*
D02*
G37*
G36*
X13223D02*
X13132D01*
Y13116D01*
X13147Y13118D01*
X13172Y13129D01*
X13194Y13146D01*
X13211Y13168D01*
X13221Y13193D01*
X13223Y13208D01*
D02*
G37*
G36*
X13767D02*
X13675D01*
X13677Y13193D01*
X13688Y13168D01*
X13705Y13146D01*
X13727Y13129D01*
X13752Y13118D01*
X13767Y13116D01*
Y13208D01*
D02*
G37*
G36*
X14214D02*
X14122D01*
Y13116D01*
X14137Y13118D01*
X14163Y13129D01*
X14185Y13146D01*
X14201Y13168D01*
X14212Y13193D01*
X14214Y13208D01*
D02*
G37*
G36*
X13106Y13325D02*
X13092Y13323D01*
X13066Y13312D01*
X13044Y13296D01*
X13027Y13274D01*
X13017Y13248D01*
X13015Y13233D01*
X13106D01*
Y13325D01*
D02*
G37*
G36*
X13884Y13208D02*
X13792D01*
Y13116D01*
X13807Y13118D01*
X13832Y13129D01*
X13854Y13146D01*
X13871Y13168D01*
X13882Y13193D01*
X13884Y13208D01*
D02*
G37*
G36*
X14097D02*
X14005D01*
X14007Y13193D01*
X14018Y13168D01*
X14035Y13146D01*
X14057Y13129D01*
X14082Y13118D01*
X14097Y13116D01*
Y13208D01*
D02*
G37*
G36*
X15049Y11483D02*
X15035Y11481D01*
X15009Y11471D01*
X14987Y11454D01*
X14970Y11432D01*
X14960Y11407D01*
X14958Y11392D01*
X15049D01*
Y11483D01*
D02*
G37*
G36*
X18054Y11793D02*
X17836D01*
Y11575D01*
X18054D01*
Y11793D01*
D02*
G37*
G36*
X18656Y11378D02*
Y11237D01*
X18798D01*
X18796Y11254D01*
X18787Y11284D01*
X18773Y11311D01*
X18754Y11334D01*
X18730Y11354D01*
X18703Y11368D01*
X18674Y11377D01*
X18656Y11378D01*
D02*
G37*
G36*
X14913Y11484D02*
X14703D01*
Y11274D01*
X14913D01*
Y11484D01*
D02*
G37*
G36*
X14110Y13581D02*
X14082Y13577D01*
X14057Y13566D01*
X14035Y13550D01*
X14018Y13528D01*
X14007Y13502D01*
X14004Y13475D01*
X14007Y13447D01*
X14018Y13422D01*
X14035Y13400D01*
X14057Y13383D01*
X14082Y13372D01*
X14110Y13369D01*
X14137Y13372D01*
X14144Y13375D01*
X15270Y12249D01*
Y12083D01*
X15263Y12081D01*
X15241Y12064D01*
X15224Y12042D01*
X15214Y12016D01*
X15210Y11989D01*
X15214Y11961D01*
X15224Y11936D01*
X15241Y11914D01*
X15263Y11897D01*
X15270Y11894D01*
Y11779D01*
X15263Y11776D01*
X15241Y11759D01*
X15224Y11737D01*
X15214Y11711D01*
X15210Y11684D01*
X15214Y11657D01*
X15224Y11631D01*
X15241Y11609D01*
X15263Y11592D01*
X15289Y11582D01*
X15316Y11578D01*
X15344Y11582D01*
X15369Y11592D01*
X15391Y11609D01*
X15408Y11631D01*
X15418Y11657D01*
X15422Y11684D01*
X15418Y11711D01*
X15408Y11737D01*
X15391Y11759D01*
X15369Y11776D01*
X15362Y11779D01*
Y11894D01*
X15369Y11897D01*
X15391Y11914D01*
X15408Y11936D01*
X15418Y11961D01*
X15422Y11989D01*
X15418Y12016D01*
X15408Y12042D01*
X15391Y12064D01*
X15369Y12081D01*
X15362Y12083D01*
Y12268D01*
X15359Y12286D01*
X15349Y12301D01*
X14209Y13440D01*
X14212Y13447D01*
X14216Y13475D01*
X14212Y13502D01*
X14201Y13528D01*
X14185Y13550D01*
X14163Y13566D01*
X14137Y13577D01*
X14110Y13581D01*
D02*
G37*
G36*
X15166Y11671D02*
X15075D01*
Y11580D01*
X15090Y11582D01*
X15115Y11592D01*
X15137Y11609D01*
X15154Y11631D01*
X15164Y11657D01*
X15166Y11671D01*
D02*
G37*
G36*
X15049Y11788D02*
X15035Y11786D01*
X15009Y11776D01*
X14987Y11759D01*
X14970Y11737D01*
X14960Y11711D01*
X14958Y11697D01*
X15049D01*
Y11788D01*
D02*
G37*
G36*
X14913Y11789D02*
X14703D01*
Y11579D01*
X14913D01*
Y11789D01*
D02*
G37*
G36*
X15049Y11671D02*
X14958D01*
X14960Y11657D01*
X14970Y11631D01*
X14987Y11609D01*
X15009Y11592D01*
X15035Y11582D01*
X15049Y11580D01*
Y11671D01*
D02*
G37*
G36*
X18798Y11211D02*
X18656D01*
Y11070D01*
X18674Y11071D01*
X18703Y11080D01*
X18730Y11094D01*
X18754Y11114D01*
X18773Y11137D01*
X18787Y11164D01*
X18796Y11194D01*
X18798Y11211D01*
D02*
G37*
G36*
X17209Y11246D02*
X17193Y11244D01*
X17166Y11233D01*
X17144Y11215D01*
X17126Y11193D01*
X17115Y11166D01*
X17113Y11151D01*
X17209D01*
Y11246D01*
D02*
G37*
G36*
X17329Y11125D02*
X17234D01*
Y11030D01*
X17250Y11032D01*
X17276Y11043D01*
X17299Y11060D01*
X17316Y11083D01*
X17327Y11110D01*
X17329Y11125D01*
D02*
G37*
G36*
X18631Y11211D02*
X18489D01*
X18491Y11194D01*
X18500Y11164D01*
X18514Y11137D01*
X18533Y11114D01*
X18557Y11094D01*
X18584Y11080D01*
X18613Y11071D01*
X18631Y11070D01*
Y11211D01*
D02*
G37*
G36*
X17234Y11246D02*
Y11151D01*
X17329D01*
X17327Y11166D01*
X17316Y11193D01*
X17299Y11215D01*
X17276Y11233D01*
X17250Y11244D01*
X17234Y11246D01*
D02*
G37*
G36*
X12256Y11278D02*
X12164D01*
X12166Y11263D01*
X12176Y11237D01*
X12193Y11215D01*
X12215Y11199D01*
X12241Y11188D01*
X12256Y11186D01*
Y11278D01*
D02*
G37*
G36*
X18631Y11378D02*
X18613Y11377D01*
X18584Y11368D01*
X18557Y11354D01*
X18533Y11334D01*
X18514Y11311D01*
X18500Y11284D01*
X18491Y11254D01*
X18489Y11237D01*
X18631D01*
Y11378D01*
D02*
G37*
G36*
X12014Y11396D02*
X11987Y11393D01*
X11961Y11382D01*
X11939Y11365D01*
X11922Y11343D01*
X11912Y11318D01*
X11908Y11290D01*
X11912Y11263D01*
X11922Y11237D01*
X11939Y11215D01*
X11961Y11199D01*
X11987Y11188D01*
X12014Y11184D01*
X12042Y11188D01*
X12067Y11199D01*
X12089Y11215D01*
X12106Y11237D01*
X12116Y11263D01*
X12120Y11290D01*
X12116Y11318D01*
X12106Y11343D01*
X12089Y11365D01*
X12067Y11382D01*
X12042Y11393D01*
X12014Y11396D01*
D02*
G37*
G36*
X11865Y11395D02*
X11655D01*
Y11185D01*
X11865D01*
Y11395D01*
D02*
G37*
G36*
X15075Y11788D02*
Y11697D01*
X15166D01*
X15164Y11711D01*
X15154Y11737D01*
X15137Y11759D01*
X15115Y11776D01*
X15090Y11786D01*
X15075Y11788D01*
D02*
G37*
G36*
Y12093D02*
Y12001D01*
X15166D01*
X15164Y12016D01*
X15154Y12042D01*
X15137Y12064D01*
X15115Y12081D01*
X15090Y12091D01*
X15075Y12093D01*
D02*
G37*
G36*
X12376Y12344D02*
X12166D01*
Y12134D01*
X12376D01*
Y12344D01*
D02*
G37*
G36*
X17958Y12046D02*
Y11951D01*
X18053D01*
X18051Y11966D01*
X18040Y11993D01*
X18023Y12016D01*
X18000Y12033D01*
X17973Y12044D01*
X17958Y12046D01*
D02*
G37*
G36*
X15049Y12093D02*
X15035Y12091D01*
X15009Y12081D01*
X14987Y12064D01*
X14970Y12042D01*
X14960Y12016D01*
X14958Y12001D01*
X15049D01*
Y12093D01*
D02*
G37*
G36*
X12004Y12226D02*
X11913D01*
X11915Y12211D01*
X11925Y12186D01*
X11942Y12164D01*
X11964Y12147D01*
X11989Y12136D01*
X12004Y12134D01*
Y12226D01*
D02*
G37*
G36*
X16459Y12438D02*
X16432Y12434D01*
X16406Y12423D01*
X16384Y12407D01*
X16367Y12385D01*
X16357Y12359D01*
X16353Y12332D01*
X16357Y12304D01*
X16367Y12279D01*
X16384Y12257D01*
X16406Y12240D01*
X16432Y12229D01*
X16459Y12226D01*
X16487Y12229D01*
X16512Y12240D01*
X16534Y12257D01*
X16551Y12279D01*
X16561Y12304D01*
X16565Y12332D01*
X16561Y12359D01*
X16551Y12385D01*
X16534Y12407D01*
X16512Y12423D01*
X16487Y12434D01*
X16459Y12438D01*
D02*
G37*
G36*
X16713D02*
X16686Y12434D01*
X16660Y12423D01*
X16638Y12407D01*
X16621Y12385D01*
X16611Y12359D01*
X16607Y12332D01*
X16611Y12304D01*
X16621Y12279D01*
X16638Y12257D01*
X16660Y12240D01*
X16686Y12229D01*
X16713Y12226D01*
X16741Y12229D01*
X16766Y12240D01*
X16788Y12257D01*
X16805Y12279D01*
X16815Y12304D01*
X16819Y12332D01*
X16815Y12359D01*
X16805Y12385D01*
X16788Y12407D01*
X16766Y12423D01*
X16741Y12434D01*
X16713Y12438D01*
D02*
G37*
G36*
X12121Y12226D02*
X12030D01*
Y12134D01*
X12044Y12136D01*
X12070Y12147D01*
X12092Y12164D01*
X12109Y12186D01*
X12119Y12211D01*
X12121Y12226D01*
D02*
G37*
G36*
X16205Y12438D02*
X16178Y12434D01*
X16152Y12423D01*
X16130Y12407D01*
X16113Y12385D01*
X16103Y12359D01*
X16099Y12332D01*
X16103Y12304D01*
X16113Y12279D01*
X16130Y12257D01*
X16152Y12240D01*
X16178Y12229D01*
X16205Y12226D01*
X16233Y12229D01*
X16258Y12240D01*
X16280Y12257D01*
X16297Y12279D01*
X16307Y12304D01*
X16311Y12332D01*
X16307Y12359D01*
X16297Y12385D01*
X16280Y12407D01*
X16258Y12423D01*
X16233Y12434D01*
X16205Y12438D01*
D02*
G37*
G36*
X12376Y12043D02*
X12166D01*
Y11833D01*
X12376D01*
Y12043D01*
D02*
G37*
G36*
X14913Y12094D02*
X14703D01*
Y11884D01*
X14913D01*
Y12094D01*
D02*
G37*
G36*
X17932Y11925D02*
X17837D01*
X17839Y11910D01*
X17850Y11883D01*
X17868Y11860D01*
X17890Y11843D01*
X17917Y11832D01*
X17932Y11830D01*
Y11925D01*
D02*
G37*
G36*
X18053D02*
X17958D01*
Y11830D01*
X17973Y11832D01*
X18000Y11843D01*
X18023Y11860D01*
X18040Y11883D01*
X18051Y11910D01*
X18053Y11925D01*
D02*
G37*
G36*
X15049Y11976D02*
X14958D01*
X14960Y11961D01*
X14970Y11936D01*
X14987Y11914D01*
X15009Y11897D01*
X15035Y11887D01*
X15049Y11885D01*
Y11976D01*
D02*
G37*
G36*
X17259Y12046D02*
X17244Y12044D01*
X17217Y12033D01*
X17194Y12016D01*
X17177Y11993D01*
X17166Y11966D01*
X17164Y11951D01*
X17259D01*
Y12046D01*
D02*
G37*
G36*
X17932D02*
X17917Y12044D01*
X17890Y12033D01*
X17868Y12016D01*
X17850Y11993D01*
X17839Y11966D01*
X17837Y11951D01*
X17932D01*
Y12046D01*
D02*
G37*
G36*
X15166Y11976D02*
X15075D01*
Y11885D01*
X15090Y11887D01*
X15115Y11897D01*
X15137Y11914D01*
X15154Y11936D01*
X15164Y11961D01*
X15166Y11976D01*
D02*
G37*
G36*
X12030Y12042D02*
Y11951D01*
X12121D01*
X12119Y11965D01*
X12109Y11991D01*
X12092Y12013D01*
X12070Y12030D01*
X12044Y12040D01*
X12030Y12042D01*
D02*
G37*
%LPD*%
D12*
X12271Y12840D02*
D03*
X14808Y11379D02*
D03*
X17475Y12332D02*
D03*
X12271Y12539D02*
D03*
Y12239D02*
D03*
X14808Y11989D02*
D03*
X11760Y11290D02*
D03*
X12271Y11938D02*
D03*
X14808Y11684D02*
D03*
X15787Y10452D02*
D03*
Y9690D02*
D03*
Y8928D02*
D03*
Y8204D02*
D03*
X16497Y10198D02*
D03*
Y9957D02*
D03*
Y8687D02*
D03*
Y8446D02*
D03*
D17*
X13119Y12967D02*
D03*
X13449D02*
D03*
X13779D02*
D03*
X14110D02*
D03*
X16790Y10211D02*
D03*
D22*
X15316Y11989D02*
Y12268D01*
Y11684D02*
Y11989D01*
X14110Y13475D02*
X15316Y12268D01*
D23*
X12586Y11383D02*
X14296D01*
X12416D02*
X12586D01*
Y11278D02*
Y11383D01*
X12141Y11557D02*
X12242D01*
X12416Y11383D01*
X11760Y11938D02*
Y12837D01*
Y11938D02*
X12141Y11557D01*
X18068Y10693D02*
X18110D01*
Y9386D02*
Y10693D01*
X16759Y8034D02*
X18110Y9386D01*
X16426Y8034D02*
X16759D01*
X16327Y8134D02*
X16426Y8034D01*
X16327Y8134D02*
Y8999D01*
X16523Y9195D01*
X16790D01*
X15787Y8928D02*
X16002D01*
Y9690D01*
Y8419D02*
Y8928D01*
X15787Y9690D02*
X16002D01*
Y10465D01*
X15787Y10452D02*
X15989D01*
X16167Y10630D02*
X17221D01*
X16002Y10465D02*
X16167Y10630D01*
X15787Y8204D02*
X16002Y8419D01*
X18034Y12446D02*
Y12878D01*
X17272Y11684D02*
X18034Y12446D01*
X15621Y11684D02*
Y12738D01*
X14296Y11383D02*
X14808Y10871D01*
X11763Y12840D02*
X12398Y13475D01*
X11760Y12837D02*
X11763Y12840D01*
X12398Y13475D02*
X13119D01*
X14808Y9550D02*
Y10871D01*
X14059Y9830D02*
X14796D01*
X14059Y10427D02*
X14796D01*
X14808Y10871D02*
X15316Y11379D01*
X15621Y11684D01*
X17272D01*
Y11489D02*
Y11684D01*
Y11489D02*
X18068Y10693D01*
X18463D02*
X18644Y10874D01*
X18110Y10693D02*
X18463D01*
X13767Y8204D02*
X15787D01*
X13338Y8633D02*
X13767Y8204D01*
X12294Y8633D02*
X13338D01*
X17221Y10007D02*
Y10630D01*
X17044Y9830D02*
X17221Y10007D01*
D24*
X12017Y12840D02*
D03*
X11763D02*
D03*
X13119Y13221D02*
D03*
Y13475D02*
D03*
X15062Y11379D02*
D03*
X15316D02*
D03*
X16205Y12332D02*
D03*
X16459D02*
D03*
X16713D02*
D03*
X16967D02*
D03*
X17221D02*
D03*
X12017Y12539D02*
D03*
X11763D02*
D03*
X12017Y12239D02*
D03*
X11763D02*
D03*
X15062Y11989D02*
D03*
X15316D02*
D03*
X12014Y11290D02*
D03*
X12268D02*
D03*
X12017Y11938D02*
D03*
X11763D02*
D03*
X15062Y11684D02*
D03*
X15316D02*
D03*
X13449Y13221D02*
D03*
Y13475D02*
D03*
X13779Y13221D02*
D03*
Y13475D02*
D03*
X14110Y13221D02*
D03*
Y13475D02*
D03*
X16497Y10452D02*
D03*
Y9690D02*
D03*
Y8928D02*
D03*
Y8204D02*
D03*
X17044Y10084D02*
D03*
X16790Y9957D02*
D03*
X17044Y9830D02*
D03*
X16790Y9703D02*
D03*
X17044Y9576D02*
D03*
X16790Y9449D02*
D03*
X17044Y9322D02*
D03*
X16790Y9195D02*
D03*
X17044Y9068D02*
D03*
X16790Y8941D02*
D03*
X17044Y8814D02*
D03*
X16790Y8687D02*
D03*
X17044Y8560D02*
D03*
X16790Y8433D02*
D03*
X15787Y10198D02*
D03*
Y9957D02*
D03*
Y8687D02*
D03*
Y8446D02*
D03*
D25*
X17945Y11938D02*
D03*
X17272D02*
D03*
X13843Y8636D02*
D03*
X14808Y9042D02*
D03*
X12256Y10566D02*
D03*
X17221Y11138D02*
D03*
D26*
X17945Y11684D02*
D03*
X17272D02*
D03*
X14808Y9550D02*
D03*
X17221Y10630D02*
D03*
D27*
X14059Y9830D02*
D03*
Y10427D02*
D03*
D28*
X13859Y9830D02*
D03*
X13659D02*
D03*
X13459D02*
D03*
X13859Y10427D02*
D03*
X13659D02*
D03*
X13459D02*
D03*
D29*
X12294Y8283D02*
D03*
X18644Y11224D02*
D03*
X12294Y9325D02*
D03*
D30*
Y8633D02*
D03*
X18644Y10874D02*
D03*
X12294Y9675D02*
D03*
D31*
X13335Y8636D02*
D03*
X11747Y10566D02*
D03*
D32*
X18821Y9322D02*
D03*
D33*
X15507Y9182D02*
D03*
Y8420D02*
D03*
Y9436D02*
D03*
Y10198D02*
D03*
D34*
X18110Y10693D02*
D03*
D35*
Y10947D02*
D03*
Y11201D02*
D03*
D36*
X12586Y11278D02*
D03*
X18034Y12878D02*
D03*
X15621Y12738D02*
D03*
M02*
