M48
;Layer_Color=9474304
;FILE_FORMAT=4:2
METRIC,LZ
;TYPE=PLATED
T1F00S00C0.70
T2F00S00C0.71
T3F00S00C0.80
T4F00S00C0.85
T5F00S00C0.90
T6F00S00C1.00
T7F00S00C1.40
T8F00S00C3.40
%
T01
X013497Y010033
X013697
X013897
X014097
Y010516
X013897
X013697
X013497
T02
X013983Y010858
X018656Y010935
X018041Y013127
X017818Y012967
X017501Y013449
X013767Y011989
T03
X011722Y010071
X011735Y011633
X012243
X01223Y010071
X018631Y009652
X019139
X014834Y012586
X01458
X014618Y013246
Y0135
T04
X015049Y010071
Y010579
X016116Y010655
X016878
X017132
X017894
T05
X011735Y010706
X011989
X012243
X014808Y011379
X015062
X015316
Y011684
X015062
X014808
X0159Y010375
X016142
X016383
X016624
Y009665
X016383
X016142
X0159
X016129Y009373
X016383
X016637
X016891
X017145
X017399
X017653
X017907
X017894Y009665
X017653
X017386
Y010375
X017653
X017894
X018148
Y009665
X01778Y008865
X017526
X017272
X017018
X016764
X01651
X016256
X016205Y012332
X016459
X016713
X016967
X017221
X017475
X015316Y011989
X015062
X014808
X01411Y012967
Y013221
Y013475
X013779
Y013221
Y012967
X013449
Y013221
Y013475
X013119
Y013221
Y012967
X012423Y012946
X012169
X011915
Y013246
X012169
X012423
Y012645
X012169
X011915
Y012344
X012169
X012423
T06
X01792Y011582
Y011836
Y01209
T07
X011776Y009411
X012126
X014684Y009398
X015034
X018644Y01128
Y01163
T08
X012979Y009411
X018885Y010452
M30
