%FSLAX42Y42*%
%MOMM*%
G71*
G01*
G75*
G04 Layer_Color=8388736*
%ADD10C,0.30*%
%ADD11C,1.30*%
%ADD12R,0.90X1.55*%
%ADD13R,1.55X0.90*%
%ADD14R,1.50X1.50*%
%ADD15O,2.40X0.35*%
%ADD16R,1.00X1.70*%
%ADD17R,1.70X1.00*%
%ADD18R,2.10X1.40*%
%ADD19O,1.75X0.55*%
%ADD20O,0.55X1.75*%
%ADD21R,2.35X0.50*%
%ADD22R,2.50X2.35*%
%ADD23R,1.50X1.50*%
%ADD24C,6.50*%
%ADD25C,1.50*%
%ADD26R,1.57X1.57*%
%ADD27C,1.57*%
%ADD28R,1.57X1.57*%
%ADD29C,2.50*%
%ADD30R,2.50X2.50*%
%ADD31R,1.30X1.30*%
%ADD32C,1.30*%
%ADD33R,2.50X2.50*%
%ADD34C,1.40*%
%ADD35R,2.50X1.80*%
%ADD36O,2.50X1.80*%
%ADD37C,1.27*%
%ADD38C,0.80*%
%ADD39C,0.25*%
%ADD40C,0.60*%
%ADD41C,0.25*%
%ADD42C,0.15*%
%ADD43C,0.20*%
%ADD44C,0.30*%
%ADD45R,1.90X0.80*%
%ADD46R,1.10X1.75*%
%ADD47R,1.75X1.10*%
%ADD48R,1.70X1.70*%
%ADD49O,2.60X0.55*%
%ADD50R,1.20X1.90*%
%ADD51R,1.90X1.20*%
%ADD52R,2.30X1.60*%
%ADD53O,1.95X0.75*%
%ADD54O,0.75X1.95*%
%ADD55R,2.55X0.70*%
%ADD56R,2.70X2.55*%
%ADD57R,1.70X1.70*%
%ADD58C,6.70*%
%ADD59C,1.70*%
%ADD60R,1.78X1.78*%
%ADD61C,1.78*%
%ADD62R,1.78X1.78*%
%ADD63C,2.70*%
%ADD64R,2.70X2.70*%
%ADD65R,1.50X1.50*%
%ADD66C,1.50*%
%ADD67R,2.70X2.70*%
%ADD68C,1.60*%
%ADD69R,2.70X2.00*%
%ADD70O,2.70X2.00*%
%ADD71C,1.47*%
D46*
X17374Y12090D02*
D03*
X17219D02*
D03*
X17018Y13233D02*
D03*
X17173D02*
D03*
X17018Y12967D02*
D03*
X17173D02*
D03*
X11887Y10973D02*
D03*
X12042D02*
D03*
D47*
X17971Y13266D02*
D03*
Y13421D02*
D03*
X12827Y12751D02*
D03*
Y12906D02*
D03*
D48*
X18227Y13424D02*
D03*
X18577D02*
D03*
X16799Y13233D02*
D03*
X16449D02*
D03*
X16799Y12967D02*
D03*
X16449D02*
D03*
X17907Y9373D02*
D03*
X14808Y11684D02*
D03*
Y11379D02*
D03*
X12423Y12344D02*
D03*
Y12645D02*
D03*
Y12946D02*
D03*
Y13246D02*
D03*
X17475Y12332D02*
D03*
X14808Y11989D02*
D03*
X11735Y10706D02*
D03*
D49*
X15246Y13453D02*
D03*
Y13388D02*
D03*
Y13323D02*
D03*
Y13258D02*
D03*
Y13193D02*
D03*
Y13128D02*
D03*
Y13063D02*
D03*
Y12998D02*
D03*
Y12933D02*
D03*
Y12868D02*
D03*
Y12803D02*
D03*
Y12738D02*
D03*
Y12673D02*
D03*
Y12608D02*
D03*
X15946Y13453D02*
D03*
Y13388D02*
D03*
Y13323D02*
D03*
Y13258D02*
D03*
Y13193D02*
D03*
Y13128D02*
D03*
Y13063D02*
D03*
Y12998D02*
D03*
Y12933D02*
D03*
Y12868D02*
D03*
Y12803D02*
D03*
Y12738D02*
D03*
Y12673D02*
D03*
Y12608D02*
D03*
D50*
X13411Y12624D02*
D03*
X13576D02*
D03*
X13640Y10922D02*
D03*
X13805D02*
D03*
D51*
X14453Y11557D02*
D03*
Y11722D02*
D03*
X12586Y11824D02*
D03*
Y11659D02*
D03*
X17526Y12941D02*
D03*
Y12776D02*
D03*
D52*
X15646Y12001D02*
D03*
Y11551D02*
D03*
X16646D02*
D03*
Y12001D02*
D03*
D53*
X13049Y11411D02*
D03*
Y11491D02*
D03*
Y11571D02*
D03*
Y11651D02*
D03*
Y11731D02*
D03*
Y11811D02*
D03*
Y11891D02*
D03*
Y11971D02*
D03*
Y12051D02*
D03*
Y12131D02*
D03*
Y12211D02*
D03*
X14179D02*
D03*
Y12131D02*
D03*
Y12051D02*
D03*
Y11971D02*
D03*
Y11891D02*
D03*
Y11811D02*
D03*
Y11731D02*
D03*
Y11651D02*
D03*
Y11571D02*
D03*
Y11491D02*
D03*
Y11411D02*
D03*
D54*
X13214Y12376D02*
D03*
X13294D02*
D03*
X13374D02*
D03*
X13454D02*
D03*
X13534D02*
D03*
X13614D02*
D03*
X13694D02*
D03*
X13774D02*
D03*
X13854D02*
D03*
X13934D02*
D03*
X14014D02*
D03*
Y11246D02*
D03*
X13934D02*
D03*
X13854D02*
D03*
X13774D02*
D03*
X13694D02*
D03*
X13614D02*
D03*
X13534D02*
D03*
X13454D02*
D03*
X13374D02*
D03*
X13294D02*
D03*
X13214D02*
D03*
D55*
X18041Y12746D02*
D03*
X18041Y12666D02*
D03*
Y12586D02*
D03*
Y12426D02*
D03*
Y12506D02*
D03*
D56*
X18814Y13103D02*
D03*
Y12068D02*
D03*
X18389Y13103D02*
D03*
Y12068D02*
D03*
D57*
X12827Y13109D02*
D03*
Y13459D02*
D03*
X13119Y12967D02*
D03*
X13449D02*
D03*
X13779D02*
D03*
X14110D02*
D03*
X18148Y10375D02*
D03*
X17386D02*
D03*
X16624D02*
D03*
X15900D02*
D03*
X17894Y9665D02*
D03*
X17653D02*
D03*
X16383D02*
D03*
X16142D02*
D03*
D58*
X12979Y9411D02*
D03*
X18885Y10452D02*
D03*
D59*
X16129Y9373D02*
D03*
X16256Y8865D02*
D03*
X16383Y9373D02*
D03*
X16510Y8865D02*
D03*
X17145Y9373D02*
D03*
X17272Y8865D02*
D03*
X17399Y9373D02*
D03*
X17526Y8865D02*
D03*
X17653Y9373D02*
D03*
X17780Y8865D02*
D03*
X16637Y9373D02*
D03*
X16764Y8865D02*
D03*
X16891Y9373D02*
D03*
X17018Y8865D02*
D03*
X13119Y13221D02*
D03*
Y13475D02*
D03*
X13449Y13221D02*
D03*
Y13475D02*
D03*
X13779Y13221D02*
D03*
Y13475D02*
D03*
X14110Y13221D02*
D03*
Y13475D02*
D03*
X15062Y11684D02*
D03*
X15316D02*
D03*
X15062Y11379D02*
D03*
X15316D02*
D03*
X12169Y12344D02*
D03*
X11915D02*
D03*
X12169Y12645D02*
D03*
X11915D02*
D03*
X12169Y12946D02*
D03*
X11915D02*
D03*
X12169Y13246D02*
D03*
X11915D02*
D03*
X16205Y12332D02*
D03*
X16459D02*
D03*
X16713D02*
D03*
X16967D02*
D03*
X17221D02*
D03*
X15062Y11989D02*
D03*
X15316D02*
D03*
X11989Y10706D02*
D03*
X12243D02*
D03*
X18148Y9665D02*
D03*
X17386D02*
D03*
X16624D02*
D03*
X15900D02*
D03*
X17894Y10375D02*
D03*
X17653D02*
D03*
X16383D02*
D03*
X16142D02*
D03*
D60*
X15049Y10071D02*
D03*
X14618Y13500D02*
D03*
D61*
X15049Y10579D02*
D03*
X11735Y11633D02*
D03*
X12230Y10071D02*
D03*
X14618Y13246D02*
D03*
X14580Y12586D02*
D03*
X19139Y9652D02*
D03*
D62*
X12243Y11633D02*
D03*
X11722Y10071D02*
D03*
X14834Y12586D02*
D03*
X18631Y9652D02*
D03*
D63*
X12126Y9411D02*
D03*
X15034Y9398D02*
D03*
X18644Y11630D02*
D03*
D64*
X11776Y9411D02*
D03*
X14684Y9398D02*
D03*
D65*
X14097Y10033D02*
D03*
Y10516D02*
D03*
D66*
X13897Y10033D02*
D03*
X13697D02*
D03*
X13497D02*
D03*
X13897Y10516D02*
D03*
X13697D02*
D03*
X13497D02*
D03*
D67*
X18644Y11280D02*
D03*
D68*
X16878Y10655D02*
D03*
X16116D02*
D03*
X17132D02*
D03*
X17894D02*
D03*
D69*
X17920Y11582D02*
D03*
D70*
Y11836D02*
D03*
Y12090D02*
D03*
D71*
X13767Y11989D02*
D03*
X18041Y13127D02*
D03*
X13983Y10858D02*
D03*
X17501Y13449D02*
D03*
X18656Y10935D02*
D03*
X17818Y12967D02*
D03*
M02*
