%FSLAX42Y42*%
%MOMM*%
G71*
G01*
G75*
G04 Layer_Color=2752767*
%ADD10R,1.55X0.90*%
%ADD11R,0.90X1.55*%
%ADD12R,1.50X1.50*%
%ADD13O,2.40X0.35*%
%ADD14R,1.70X1.00*%
%ADD15R,2.35X0.50*%
%ADD16R,2.50X2.35*%
%ADD17R,1.50X1.50*%
%ADD18R,2.10X1.40*%
%ADD19O,1.75X0.55*%
%ADD20O,0.55X1.75*%
%ADD21R,1.00X1.70*%
%ADD22C,0.30*%
%ADD23C,1.30*%
%ADD24C,1.50*%
%ADD25C,1.57*%
%ADD26R,1.57X1.57*%
%ADD27R,1.30X1.30*%
%ADD28C,1.30*%
%ADD29C,2.50*%
%ADD30R,2.50X2.50*%
%ADD31R,1.57X1.57*%
%ADD32C,6.90*%
%ADD33C,1.40*%
%ADD34R,2.50X1.80*%
%ADD35O,2.50X1.80*%
%ADD36C,1.27*%
%ADD37C,0.15*%
%ADD38C,0.25*%
%ADD39C,0.60*%
%ADD40C,0.25*%
%ADD41C,0.20*%
%ADD42C,0.30*%
%ADD43R,0.80X1.90*%
%ADD44R,1.75X1.10*%
%ADD45R,1.10X1.75*%
%ADD46R,1.70X1.70*%
%ADD47O,2.60X0.55*%
%ADD48R,1.90X1.20*%
%ADD49R,2.55X0.70*%
%ADD50R,2.70X2.55*%
%ADD51R,1.70X1.70*%
%ADD52R,2.30X1.60*%
%ADD53O,1.95X0.75*%
%ADD54O,0.75X1.95*%
%ADD55R,1.20X1.90*%
%ADD56C,1.70*%
%ADD57C,1.78*%
%ADD58R,1.78X1.78*%
%ADD59R,1.50X1.50*%
%ADD60C,1.50*%
%ADD61C,2.70*%
%ADD62R,2.70X2.70*%
%ADD63R,1.78X1.78*%
%ADD64C,7.10*%
%ADD65C,1.60*%
%ADD66R,2.70X2.00*%
%ADD67O,2.70X2.00*%
%ADD68C,1.47*%
%ADD69C,0.10*%
%ADD70R,9.50X8.00*%
%ADD71C,0.13*%
%ADD72C,0.17*%
D71*
X12220Y12789D02*
Y12890D01*
X12322D01*
Y12789D01*
X12220D01*
X11966D02*
Y12890D01*
X12068D01*
Y12789D01*
X11966D01*
X11712D02*
Y12890D01*
X11814D01*
Y12789D01*
X11712D01*
X13068Y12916D02*
Y13018D01*
X13170D01*
Y12916D01*
X13068D01*
Y13170D02*
Y13271D01*
X13170D01*
Y13170D01*
X13068D01*
Y13424D02*
Y13526D01*
X13170D01*
Y13424D01*
X13068D01*
X14757Y11328D02*
Y11430D01*
X14859D01*
Y11328D01*
X14757D01*
X15011D02*
Y11430D01*
X15113D01*
Y11328D01*
X15011D01*
X15265D02*
Y11430D01*
X15367D01*
Y11328D01*
X15265D01*
X16154Y12281D02*
Y12382D01*
X16256D01*
Y12281D01*
X16154D01*
X16408D02*
Y12382D01*
X16510D01*
Y12281D01*
X16408D01*
X16662D02*
Y12382D01*
X16764D01*
Y12281D01*
X16662D01*
X16916D02*
Y12382D01*
X17018D01*
Y12281D01*
X16916D01*
X17170D02*
Y12382D01*
X17272D01*
Y12281D01*
X17170D01*
X17424D02*
Y12382D01*
X17526D01*
Y12281D01*
X17424D01*
X12220Y12488D02*
Y12590D01*
X12322D01*
Y12488D01*
X12220D01*
X11966D02*
Y12590D01*
X12068D01*
Y12488D01*
X11966D01*
X11712D02*
Y12590D01*
X11814D01*
Y12488D01*
X11712D01*
X12220Y12188D02*
Y12289D01*
X12322D01*
Y12188D01*
X12220D01*
X11966D02*
Y12289D01*
X12068D01*
Y12188D01*
X11966D01*
X11712D02*
Y12289D01*
X11814D01*
Y12188D01*
X11712D01*
X14757Y11938D02*
Y12040D01*
X14859D01*
Y11938D01*
X14757D01*
X15011D02*
Y12040D01*
X15113D01*
Y11938D01*
X15011D01*
X15265D02*
Y12040D01*
X15367D01*
Y11938D01*
X15265D01*
X11709Y11239D02*
Y11341D01*
X11811D01*
Y11239D01*
X11709D01*
X11963D02*
Y11341D01*
X12065D01*
Y11239D01*
X11963D01*
X12217D02*
Y11341D01*
X12319D01*
Y11239D01*
X12217D01*
X12220Y11887D02*
Y11989D01*
X12322D01*
Y11887D01*
X12220D01*
X11966D02*
Y11989D01*
X12068D01*
Y11887D01*
X11966D01*
X11712D02*
Y11989D01*
X11814D01*
Y11887D01*
X11712D01*
X14059Y9779D02*
X14008Y9881D01*
X14110D01*
X14059Y9779D01*
X13859D02*
X13808Y9881D01*
X13910D01*
X13859Y9779D01*
X13659D02*
X13608Y9881D01*
X13710D01*
X13659Y9779D01*
X13459D02*
X13408Y9881D01*
X13510D01*
X13459Y9779D01*
X14059Y10376D02*
X14008Y10478D01*
X14110D01*
X14059Y10376D01*
X13859D02*
X13808Y10478D01*
X13910D01*
X13859Y10376D01*
X13659D02*
X13608Y10478D01*
X13710D01*
X13659Y10376D01*
X13459D02*
X13408Y10478D01*
X13510D01*
X13459Y10376D01*
X14757Y11633D02*
Y11735D01*
X14859D01*
Y11633D01*
X14757D01*
X15011D02*
Y11735D01*
X15113D01*
Y11633D01*
X15011D01*
X15265D02*
Y11735D01*
X15367D01*
Y11633D01*
X15265D01*
X13399Y12916D02*
Y13018D01*
X13500D01*
Y12916D01*
X13399D01*
Y13170D02*
Y13271D01*
X13500D01*
Y13170D01*
X13399D01*
Y13424D02*
Y13526D01*
X13500D01*
Y13424D01*
X13399D01*
X13729Y12916D02*
Y13018D01*
X13830D01*
Y12916D01*
X13729D01*
Y13170D02*
Y13271D01*
X13830D01*
Y13170D01*
X13729D01*
Y13424D02*
Y13526D01*
X13830D01*
Y13424D01*
X13729D01*
X14059Y12916D02*
Y13018D01*
X14160D01*
Y12916D01*
X14059D01*
Y13170D02*
Y13271D01*
X14160D01*
Y13170D01*
X14059D01*
Y13424D02*
Y13526D01*
X14160D01*
Y13424D01*
X14059D01*
X12294Y8232D02*
X12319Y8258D01*
X12344D01*
X12319Y8283D01*
X12344Y8309D01*
X12319D01*
X12294Y8334D01*
X12268Y8309D01*
X12243D01*
X12268Y8283D01*
X12243Y8258D01*
X12268D01*
X12294Y8232D01*
Y8582D02*
X12319Y8608D01*
X12344D01*
X12319Y8633D01*
X12344Y8659D01*
X12319D01*
X12294Y8684D01*
X12268Y8659D01*
X12243D01*
X12268Y8633D01*
X12243Y8608D01*
X12268D01*
X12294Y8582D01*
X13284Y8585D02*
X13310Y8636D01*
X13284Y8687D01*
X13335Y8661D01*
X13386Y8687D01*
X13360Y8636D01*
X13386Y8585D01*
X13335Y8611D01*
X13284Y8585D01*
X13792D02*
X13818Y8636D01*
X13792Y8687D01*
X13843Y8661D01*
X13894Y8687D01*
X13868Y8636D01*
X13894Y8585D01*
X13843Y8611D01*
X13792Y8585D01*
X18644Y11173D02*
X18669Y11199D01*
X18694D01*
X18669Y11224D01*
X18694Y11249D01*
X18669D01*
X18644Y11275D01*
X18618Y11249D01*
X18593D01*
X18618Y11224D01*
X18593Y11199D01*
X18618D01*
X18644Y11173D01*
Y10823D02*
X18669Y10849D01*
X18694D01*
X18669Y10874D01*
X18694Y10899D01*
X18669D01*
X18644Y10925D01*
X18618Y10899D01*
X18593D01*
X18618Y10874D01*
X18593Y10849D01*
X18618D01*
X18644Y10823D01*
X12294Y9274D02*
X12319Y9299D01*
X12344D01*
X12319Y9325D01*
X12344Y9350D01*
X12319D01*
X12294Y9375D01*
X12268Y9350D01*
X12243D01*
X12268Y9325D01*
X12243Y9299D01*
X12268D01*
X12294Y9274D01*
Y9624D02*
X12319Y9649D01*
X12344D01*
X12319Y9675D01*
X12344Y9700D01*
X12319D01*
X12294Y9725D01*
X12268Y9700D01*
X12243D01*
X12268Y9675D01*
X12243Y9649D01*
X12268D01*
X12294Y9624D01*
X15736Y10401D02*
Y10503D01*
X15838D01*
Y10401D01*
X15736D01*
X16446D02*
Y10503D01*
X16548D01*
Y10401D01*
X16446D01*
X15736Y9639D02*
Y9741D01*
X15838D01*
Y9639D01*
X15736D01*
X16446D02*
Y9741D01*
X16548D01*
Y9639D01*
X16446D01*
X15736Y8877D02*
Y8979D01*
X15838D01*
Y8877D01*
X15736D01*
X16446D02*
Y8979D01*
X16548D01*
Y8877D01*
X16446D01*
X15736Y8153D02*
Y8255D01*
X15838D01*
Y8153D01*
X15736D01*
X16446D02*
Y8255D01*
X16548D01*
Y8153D01*
X16446D01*
X16739Y10160D02*
Y10262D01*
X16841D01*
Y10160D01*
X16739D01*
X16993Y10033D02*
Y10135D01*
X17095D01*
Y10033D01*
X16993D01*
X16739Y9906D02*
Y10008D01*
X16841D01*
Y9906D01*
X16739D01*
X16993Y9779D02*
Y9881D01*
X17095D01*
Y9779D01*
X16993D01*
X16739Y9652D02*
Y9754D01*
X16841D01*
Y9652D01*
X16739D01*
X16993Y9525D02*
Y9627D01*
X17095D01*
Y9525D01*
X16993D01*
X16739Y9398D02*
Y9500D01*
X16841D01*
Y9398D01*
X16739D01*
X16993Y9271D02*
Y9373D01*
X17095D01*
Y9271D01*
X16993D01*
X16739Y9144D02*
Y9246D01*
X16841D01*
Y9144D01*
X16739D01*
X16993Y9017D02*
Y9119D01*
X17095D01*
Y9017D01*
X16993D01*
X16739Y8890D02*
Y8992D01*
X16841D01*
Y8890D01*
X16739D01*
X16993Y8763D02*
Y8865D01*
X17095D01*
Y8763D01*
X16993D01*
X16739Y8636D02*
Y8738D01*
X16841D01*
Y8636D01*
X16739D01*
X16993Y8509D02*
Y8611D01*
X17095D01*
Y8509D01*
X16993D01*
X16739Y8382D02*
Y8484D01*
X16841D01*
Y8382D01*
X16739D01*
X18796Y9296D02*
Y9271D01*
X18846D01*
Y9296D01*
X18872D01*
Y9347D01*
X18846D01*
Y9373D01*
X18796D01*
Y9347D01*
X18770D01*
Y9296D01*
X18796D01*
X15456Y9131D02*
X15481Y9182D01*
X15456Y9233D01*
X15507Y9207D01*
X15557Y9233D01*
X15532Y9182D01*
X15557Y9131D01*
X15507Y9157D01*
X15456Y9131D01*
Y8369D02*
X15481Y8420D01*
X15456Y8471D01*
X15507Y8446D01*
X15557Y8471D01*
X15532Y8420D01*
X15557Y8369D01*
X15507Y8395D01*
X15456Y8369D01*
Y9385D02*
X15481Y9436D01*
X15456Y9487D01*
X15507Y9461D01*
X15557Y9487D01*
X15532Y9436D01*
X15557Y9385D01*
X15507Y9411D01*
X15456Y9385D01*
Y10147D02*
X15481Y10198D01*
X15456Y10249D01*
X15507Y10224D01*
X15557Y10249D01*
X15532Y10198D01*
X15557Y10147D01*
X15507Y10173D01*
X15456Y10147D01*
X16446D02*
Y10249D01*
X16548D01*
Y10147D01*
X16446D01*
X15736D02*
Y10249D01*
X15838D01*
Y10147D01*
X15736D01*
X16446Y9906D02*
Y10008D01*
X16548D01*
Y9906D01*
X16446D01*
X15736D02*
Y10008D01*
X15838D01*
Y9906D01*
X15736D01*
X16446Y8636D02*
Y8738D01*
X16548D01*
Y8636D01*
X16446D01*
X15736D02*
Y8738D01*
X15838D01*
Y8636D01*
X15736D01*
X16446Y8395D02*
Y8496D01*
X16548D01*
Y8395D01*
X16446D01*
X15736D02*
Y8496D01*
X15838D01*
Y8395D01*
X15736D01*
X18059Y10643D02*
X18085D01*
X18110Y10668D01*
X18136Y10643D01*
X18161D01*
Y10668D01*
X18136Y10693D01*
X18161Y10719D01*
Y10744D01*
X18136D01*
X18110Y10719D01*
X18085Y10744D01*
X18059D01*
Y10719D01*
X18085Y10693D01*
X18059Y10668D01*
Y10643D01*
Y10897D02*
X18085D01*
X18110Y10922D01*
X18136Y10897D01*
X18161D01*
Y10922D01*
X18136Y10947D01*
X18161Y10973D01*
Y10998D01*
X18136D01*
X18110Y10973D01*
X18085Y10998D01*
X18059D01*
Y10973D01*
X18085Y10947D01*
X18059Y10922D01*
Y10897D01*
Y11151D02*
X18085D01*
X18110Y11176D01*
X18136Y11151D01*
X18161D01*
Y11176D01*
X18136Y11201D01*
X18161Y11227D01*
Y11252D01*
X18136D01*
X18110Y11227D01*
X18085Y11252D01*
X18059D01*
Y11227D01*
X18085Y11201D01*
X18059Y11176D01*
Y11151D01*
X12535Y11278D02*
X12586Y11328D01*
X12636Y11278D01*
X12586Y11227D01*
X12535Y11278D01*
X17983Y12878D02*
X18034Y12929D01*
X18085Y12878D01*
X18034Y12827D01*
X17983Y12878D01*
X15570Y12738D02*
X15621Y12789D01*
X15672Y12738D01*
X15621Y12687D01*
X15570Y12738D01*
D72*
X17996Y11938D02*
G03*
X17996Y11938I-51J0D01*
G01*
Y11684D02*
G03*
X17996Y11684I-51J0D01*
G01*
X17323Y11938D02*
G03*
X17323Y11938I-51J0D01*
G01*
Y11684D02*
G03*
X17323Y11684I-51J0D01*
G01*
X14859Y9550D02*
G03*
X14859Y9550I-51J0D01*
G01*
Y9042D02*
G03*
X14859Y9042I-51J0D01*
G01*
X11798Y10566D02*
G03*
X11798Y10566I-51J0D01*
G01*
X12306D02*
G03*
X12306Y10566I-51J0D01*
G01*
X17272Y10630D02*
G03*
X17272Y10630I-51J0D01*
G01*
Y11138D02*
G03*
X17272Y11138I-51J0D01*
G01*
M02*
