%FSLAX42Y42*%
%MOMM*%
G71*
G01*
G75*
G04 Layer_Color=2752767*
%ADD10C,0.30*%
%ADD11C,1.30*%
%ADD12R,0.90X1.55*%
%ADD13R,1.55X0.90*%
%ADD14R,1.50X1.50*%
%ADD15O,2.40X0.35*%
%ADD16R,1.00X1.70*%
%ADD17R,1.70X1.00*%
%ADD18R,2.10X1.40*%
%ADD19O,1.75X0.55*%
%ADD20O,0.55X1.75*%
%ADD21R,2.35X0.50*%
%ADD22R,2.50X2.35*%
%ADD23R,1.50X1.50*%
%ADD24C,6.50*%
%ADD25C,1.50*%
%ADD26R,1.57X1.57*%
%ADD27C,1.57*%
%ADD28R,1.57X1.57*%
%ADD29C,2.50*%
%ADD30R,2.50X2.50*%
%ADD31R,1.30X1.30*%
%ADD32C,1.30*%
%ADD33R,2.50X2.50*%
%ADD34C,1.40*%
%ADD35R,2.50X1.80*%
%ADD36O,2.50X1.80*%
%ADD37C,1.27*%
%ADD38C,0.80*%
%ADD39C,0.25*%
%ADD40C,0.60*%
%ADD41C,0.25*%
%ADD42C,0.15*%
%ADD43C,0.20*%
%ADD44C,0.30*%
%ADD45R,1.90X0.80*%
%ADD46R,1.10X1.75*%
%ADD47R,1.75X1.10*%
%ADD48R,1.70X1.70*%
%ADD49O,2.60X0.55*%
%ADD50R,1.20X1.90*%
%ADD51R,1.90X1.20*%
%ADD52R,2.30X1.60*%
%ADD53O,1.95X0.75*%
%ADD54O,0.75X1.95*%
%ADD55R,2.55X0.70*%
%ADD56R,2.70X2.55*%
%ADD57R,1.70X1.70*%
%ADD58C,6.70*%
%ADD59C,1.70*%
%ADD60R,1.78X1.78*%
%ADD61C,1.78*%
%ADD62R,1.78X1.78*%
%ADD63C,2.70*%
%ADD64R,2.70X2.70*%
%ADD65R,1.50X1.50*%
%ADD66C,1.50*%
%ADD67R,2.70X2.70*%
%ADD68C,1.60*%
%ADD69R,2.70X2.00*%
%ADD70O,2.70X2.00*%
%ADD71C,1.47*%
%ADD72C,0.10*%
%ADD73C,0.15*%
%ADD74R,9.50X8.00*%
%ADD75C,0.13*%
%ADD76C,0.17*%
D75*
X12929Y9360D02*
Y9461D01*
X13030D01*
Y9360D01*
X12929D01*
X18834Y10401D02*
Y10503D01*
X18936D01*
Y10401D01*
X18834D01*
X15049Y10020D02*
X14999Y10122D01*
X15100D01*
X15049Y10020D01*
Y10528D02*
X14999Y10630D01*
X15100D01*
X15049Y10528D01*
X12243Y11582D02*
X12268Y11608D01*
X12294D01*
X12268Y11633D01*
X12294Y11659D01*
X12268D01*
X12243Y11684D01*
X12217Y11659D01*
X12192D01*
X12217Y11633D01*
X12192Y11608D01*
X12217D01*
X12243Y11582D01*
X11735D02*
X11760Y11608D01*
X11786D01*
X11760Y11633D01*
X11786Y11659D01*
X11760D01*
X11735Y11684D01*
X11709Y11659D01*
X11684D01*
X11709Y11633D01*
X11684Y11608D01*
X11709D01*
X11735Y11582D01*
X12075Y9360D02*
X12100Y9411D01*
X12075Y9461D01*
X12126Y9436D01*
X12176Y9461D01*
X12151Y9411D01*
X12176Y9360D01*
X12126Y9385D01*
X12075Y9360D01*
X11725D02*
X11750Y9411D01*
X11725Y9461D01*
X11776Y9436D01*
X11826Y9461D01*
X11801Y9411D01*
X11826Y9360D01*
X11776Y9385D01*
X11725Y9360D01*
X11722Y10020D02*
X11747Y10046D01*
X11773D01*
X11747Y10071D01*
X11773Y10096D01*
X11747D01*
X11722Y10122D01*
X11697Y10096D01*
X11671D01*
X11697Y10071D01*
X11671Y10046D01*
X11697D01*
X11722Y10020D01*
X12230D02*
X12256Y10046D01*
X12281D01*
X12256Y10071D01*
X12281Y10096D01*
X12256D01*
X12230Y10122D01*
X12205Y10096D01*
X12179D01*
X12205Y10071D01*
X12179Y10046D01*
X12205D01*
X12230Y10020D01*
X14618Y13195D02*
X14643Y13221D01*
X14668D01*
X14643Y13246D01*
X14668Y13271D01*
X14643D01*
X14618Y13297D01*
X14592Y13271D01*
X14567D01*
X14592Y13246D01*
X14567Y13221D01*
X14592D01*
X14618Y13195D01*
Y13449D02*
X14643Y13475D01*
X14668D01*
X14643Y13500D01*
X14668Y13526D01*
X14643D01*
X14618Y13551D01*
X14592Y13526D01*
X14567D01*
X14592Y13500D01*
X14567Y13475D01*
X14592D01*
X14618Y13449D01*
X14580Y12535D02*
X14605Y12560D01*
X14630D01*
X14605Y12586D01*
X14630Y12611D01*
X14605D01*
X14580Y12636D01*
X14554Y12611D01*
X14529D01*
X14554Y12586D01*
X14529Y12560D01*
X14554D01*
X14580Y12535D01*
X14834D02*
X14859Y12560D01*
X14884D01*
X14859Y12586D01*
X14884Y12611D01*
X14859D01*
X14834Y12636D01*
X14808Y12611D01*
X14783D01*
X14808Y12586D01*
X14783Y12560D01*
X14808D01*
X14834Y12535D01*
X18631Y9601D02*
X18656Y9627D01*
X18682D01*
X18656Y9652D01*
X18682Y9677D01*
X18656D01*
X18631Y9703D01*
X18605Y9677D01*
X18580D01*
X18605Y9652D01*
X18580Y9627D01*
X18605D01*
X18631Y9601D01*
X19139D02*
X19164Y9627D01*
X19190D01*
X19164Y9652D01*
X19190Y9677D01*
X19164D01*
X19139Y9703D01*
X19113Y9677D01*
X19088D01*
X19113Y9652D01*
X19088Y9627D01*
X19113D01*
X19139Y9601D01*
X14072Y10008D02*
Y9982D01*
X14122D01*
Y10008D01*
X14148D01*
Y10058D01*
X14122D01*
Y10084D01*
X14072D01*
Y10058D01*
X14046D01*
Y10008D01*
X14072D01*
X13872D02*
Y9982D01*
X13922D01*
Y10008D01*
X13948D01*
Y10058D01*
X13922D01*
Y10084D01*
X13872D01*
Y10058D01*
X13846D01*
Y10008D01*
X13872D01*
X13672D02*
Y9982D01*
X13722D01*
Y10008D01*
X13748D01*
Y10058D01*
X13722D01*
Y10084D01*
X13672D01*
Y10058D01*
X13646D01*
Y10008D01*
X13672D01*
X13472D02*
Y9982D01*
X13522D01*
Y10008D01*
X13548D01*
Y10058D01*
X13522D01*
Y10084D01*
X13472D01*
Y10058D01*
X13446D01*
Y10008D01*
X13472D01*
X14072Y10490D02*
Y10465D01*
X14122D01*
Y10490D01*
X14148D01*
Y10541D01*
X14122D01*
Y10566D01*
X14072D01*
Y10541D01*
X14046D01*
Y10490D01*
X14072D01*
X13872D02*
Y10465D01*
X13922D01*
Y10490D01*
X13948D01*
Y10541D01*
X13922D01*
Y10566D01*
X13872D01*
Y10541D01*
X13846D01*
Y10490D01*
X13872D01*
X13672D02*
Y10465D01*
X13722D01*
Y10490D01*
X13748D01*
Y10541D01*
X13722D01*
Y10566D01*
X13672D01*
Y10541D01*
X13646D01*
Y10490D01*
X13672D01*
X13472D02*
Y10465D01*
X13522D01*
Y10490D01*
X13548D01*
Y10541D01*
X13522D01*
Y10566D01*
X13472D01*
Y10541D01*
X13446D01*
Y10490D01*
X13472D01*
X14983Y9347D02*
X15009Y9398D01*
X14983Y9449D01*
X15034Y9423D01*
X15085Y9449D01*
X15059Y9398D01*
X15085Y9347D01*
X15034Y9373D01*
X14983Y9347D01*
X14633D02*
X14659Y9398D01*
X14633Y9449D01*
X14684Y9423D01*
X14735Y9449D01*
X14709Y9398D01*
X14735Y9347D01*
X14684Y9373D01*
X14633Y9347D01*
X18593Y11580D02*
X18618Y11630D01*
X18593Y11681D01*
X18644Y11656D01*
X18694Y11681D01*
X18669Y11630D01*
X18694Y11580D01*
X18644Y11605D01*
X18593Y11580D01*
Y11230D02*
X18618Y11280D01*
X18593Y11331D01*
X18644Y11306D01*
X18694Y11331D01*
X18669Y11280D01*
X18694Y11230D01*
X18644Y11255D01*
X18593Y11230D01*
X16878Y10604D02*
X16827Y10706D01*
X16929D01*
X16878Y10604D01*
X16116D02*
X16065Y10706D01*
X16167D01*
X16116Y10604D01*
X17132D02*
X17082Y10706D01*
X17183D01*
X17132Y10604D01*
X17894D02*
X17843Y10706D01*
X17945D01*
X17894Y10604D01*
X17869Y11532D02*
X17894D01*
X17920Y11557D01*
X17945Y11532D01*
X17971D01*
Y11557D01*
X17945Y11582D01*
X17971Y11608D01*
Y11633D01*
X17945D01*
X17920Y11608D01*
X17894Y11633D01*
X17869D01*
Y11608D01*
X17894Y11582D01*
X17869Y11557D01*
Y11532D01*
Y11786D02*
X17894D01*
X17920Y11811D01*
X17945Y11786D01*
X17971D01*
Y11811D01*
X17945Y11836D01*
X17971Y11862D01*
Y11887D01*
X17945D01*
X17920Y11862D01*
X17894Y11887D01*
X17869D01*
Y11862D01*
X17894Y11836D01*
X17869Y11811D01*
Y11786D01*
Y12040D02*
X17894D01*
X17920Y12065D01*
X17945Y12040D01*
X17971D01*
Y12065D01*
X17945Y12090D01*
X17971Y12116D01*
Y12141D01*
X17945D01*
X17920Y12116D01*
X17894Y12141D01*
X17869D01*
Y12116D01*
X17894Y12090D01*
X17869Y12065D01*
Y12040D01*
X13716Y11989D02*
X13767Y12040D01*
X13818Y11989D01*
X13767Y11938D01*
X13716Y11989D01*
X17991Y13127D02*
X18041Y13178D01*
X18092Y13127D01*
X18041Y13076D01*
X17991Y13127D01*
X13932Y10858D02*
X13983Y10909D01*
X14034Y10858D01*
X13983Y10808D01*
X13932Y10858D01*
X17450Y13449D02*
X17501Y13500D01*
X17551Y13449D01*
X17501Y13399D01*
X17450Y13449D01*
X18605Y10935D02*
X18656Y10986D01*
X18707Y10935D01*
X18656Y10884D01*
X18605Y10935D01*
X17767Y12967D02*
X17818Y13018D01*
X17869Y12967D01*
X17818Y12916D01*
X17767Y12967D01*
D76*
X16180Y9373D02*
G03*
X16180Y9373I-51J0D01*
G01*
X16307Y8865D02*
G03*
X16307Y8865I-51J0D01*
G01*
X16434Y9373D02*
G03*
X16434Y9373I-51J0D01*
G01*
X16561Y8865D02*
G03*
X16561Y8865I-51J0D01*
G01*
X17196Y9373D02*
G03*
X17196Y9373I-51J0D01*
G01*
X17323Y8865D02*
G03*
X17323Y8865I-51J0D01*
G01*
X17450Y9373D02*
G03*
X17450Y9373I-51J0D01*
G01*
X17577Y8865D02*
G03*
X17577Y8865I-51J0D01*
G01*
X17704Y9373D02*
G03*
X17704Y9373I-51J0D01*
G01*
X17831Y8865D02*
G03*
X17831Y8865I-51J0D01*
G01*
X16688Y9373D02*
G03*
X16688Y9373I-51J0D01*
G01*
X16815Y8865D02*
G03*
X16815Y8865I-51J0D01*
G01*
X16942Y9373D02*
G03*
X16942Y9373I-51J0D01*
G01*
X17069Y8865D02*
G03*
X17069Y8865I-51J0D01*
G01*
X17958Y9373D02*
G03*
X17958Y9373I-51J0D01*
G01*
X13170Y12967D02*
G03*
X13170Y12967I-51J0D01*
G01*
Y13221D02*
G03*
X13170Y13221I-51J0D01*
G01*
Y13475D02*
G03*
X13170Y13475I-51J0D01*
G01*
X13500Y12967D02*
G03*
X13500Y12967I-51J0D01*
G01*
Y13221D02*
G03*
X13500Y13221I-51J0D01*
G01*
Y13475D02*
G03*
X13500Y13475I-51J0D01*
G01*
X13830Y12967D02*
G03*
X13830Y12967I-51J0D01*
G01*
Y13221D02*
G03*
X13830Y13221I-51J0D01*
G01*
Y13475D02*
G03*
X13830Y13475I-51J0D01*
G01*
X14160Y12967D02*
G03*
X14160Y12967I-51J0D01*
G01*
Y13221D02*
G03*
X14160Y13221I-51J0D01*
G01*
Y13475D02*
G03*
X14160Y13475I-51J0D01*
G01*
X14859Y11684D02*
G03*
X14859Y11684I-51J0D01*
G01*
X15113D02*
G03*
X15113Y11684I-51J0D01*
G01*
X15367D02*
G03*
X15367Y11684I-51J0D01*
G01*
X14859Y11379D02*
G03*
X14859Y11379I-51J0D01*
G01*
X15113D02*
G03*
X15113Y11379I-51J0D01*
G01*
X15367D02*
G03*
X15367Y11379I-51J0D01*
G01*
X12474Y12344D02*
G03*
X12474Y12344I-51J0D01*
G01*
X12220D02*
G03*
X12220Y12344I-51J0D01*
G01*
X11966D02*
G03*
X11966Y12344I-51J0D01*
G01*
X12474Y12645D02*
G03*
X12474Y12645I-51J0D01*
G01*
X12220D02*
G03*
X12220Y12645I-51J0D01*
G01*
X11966D02*
G03*
X11966Y12645I-51J0D01*
G01*
X12474Y12946D02*
G03*
X12474Y12946I-51J0D01*
G01*
X12220D02*
G03*
X12220Y12946I-51J0D01*
G01*
X11966D02*
G03*
X11966Y12946I-51J0D01*
G01*
X12474Y13246D02*
G03*
X12474Y13246I-51J0D01*
G01*
X12220D02*
G03*
X12220Y13246I-51J0D01*
G01*
X11966D02*
G03*
X11966Y13246I-51J0D01*
G01*
X16256Y12332D02*
G03*
X16256Y12332I-51J0D01*
G01*
X16510D02*
G03*
X16510Y12332I-51J0D01*
G01*
X16764D02*
G03*
X16764Y12332I-51J0D01*
G01*
X17018D02*
G03*
X17018Y12332I-51J0D01*
G01*
X17272D02*
G03*
X17272Y12332I-51J0D01*
G01*
X17526D02*
G03*
X17526Y12332I-51J0D01*
G01*
X14859Y11989D02*
G03*
X14859Y11989I-51J0D01*
G01*
X15113D02*
G03*
X15113Y11989I-51J0D01*
G01*
X15367D02*
G03*
X15367Y11989I-51J0D01*
G01*
X11786Y10706D02*
G03*
X11786Y10706I-51J0D01*
G01*
X12040D02*
G03*
X12040Y10706I-51J0D01*
G01*
X12294D02*
G03*
X12294Y10706I-51J0D01*
G01*
X18199Y10375D02*
G03*
X18199Y10375I-51J0D01*
G01*
Y9665D02*
G03*
X18199Y9665I-51J0D01*
G01*
X17437Y10375D02*
G03*
X17437Y10375I-51J0D01*
G01*
Y9665D02*
G03*
X17437Y9665I-51J0D01*
G01*
X16675Y10375D02*
G03*
X16675Y10375I-51J0D01*
G01*
Y9665D02*
G03*
X16675Y9665I-51J0D01*
G01*
X15951Y10375D02*
G03*
X15951Y10375I-51J0D01*
G01*
Y9665D02*
G03*
X15951Y9665I-51J0D01*
G01*
X17945D02*
G03*
X17945Y9665I-51J0D01*
G01*
Y10375D02*
G03*
X17945Y10375I-51J0D01*
G01*
X17704Y9665D02*
G03*
X17704Y9665I-51J0D01*
G01*
Y10375D02*
G03*
X17704Y10375I-51J0D01*
G01*
X16434Y9665D02*
G03*
X16434Y9665I-51J0D01*
G01*
Y10375D02*
G03*
X16434Y10375I-51J0D01*
G01*
X16193Y9665D02*
G03*
X16193Y9665I-51J0D01*
G01*
Y10375D02*
G03*
X16193Y10375I-51J0D01*
G01*
M02*
