%FSAX42Y42*%
%MOMM*%
G71*
G01*
G75*
G04 Layer_Physical_Order=2*
G04 Layer_Color=16711680*
%ADD10C,0.30*%
%ADD11C,1.30*%
%ADD12R,1.00X1.70*%
%ADD13R,1.50X1.50*%
%ADD14R,2.35X0.50*%
%ADD15R,2.50X2.35*%
%ADD16R,1.70X1.00*%
%ADD17O,0.55X1.75*%
%ADD18O,1.75X0.55*%
%ADD19R,0.90X1.55*%
%ADD20R,2.10X1.40*%
%ADD21R,1.55X0.90*%
%ADD22O,2.40X0.35*%
%ADD23R,1.50X1.50*%
%ADD24O,2.50X1.80*%
%ADD25R,2.50X1.80*%
%ADD26C,1.50*%
%ADD27C,1.40*%
%ADD28R,2.50X2.50*%
%ADD29C,2.50*%
%ADD30R,2.50X2.50*%
%ADD31C,1.30*%
%ADD32R,1.30X1.30*%
%ADD33C,1.57*%
%ADD34R,1.57X1.57*%
%ADD35R,1.57X1.57*%
%ADD36C,6.50*%
%ADD37C,1.27*%
%ADD38C,0.80*%
G36*
X014509Y013602D02*
Y013391D01*
X014726D01*
Y013593D01*
D01*
Y013593D01*
X014735Y013602D01*
X018885Y013602D01*
X019177D01*
Y013602D01*
X019178Y013603D01*
X019227Y013598D01*
X019275Y013584D01*
X019319Y013560D01*
X019357Y013528D01*
X019389Y013489D01*
X019413Y013445D01*
X019427Y013397D01*
X019432Y013348D01*
X019431Y009703D01*
Y008877D01*
X019431D01*
X019432Y008876D01*
X019427Y008828D01*
X019413Y008780D01*
X019389Y008736D01*
X019357Y008697D01*
X019319Y008665D01*
X019275Y008641D01*
X019227Y008627D01*
X019177Y008622D01*
X011493Y008623D01*
Y013157D01*
Y013348D01*
X011493D01*
X011492Y013349D01*
X011497Y013397D01*
X011512Y013445D01*
X011535Y013489D01*
X011567Y013528D01*
X011606Y013560D01*
X011650Y013584D01*
X011698Y013598D01*
X011747Y013603D01*
X014509Y013602D01*
D02*
G37*
%LPC*%
G36*
X017882Y010480D02*
X017867Y010478D01*
X017841Y010467D01*
X017819Y010450D01*
X017803Y010428D01*
X017792Y010403D01*
X017790Y010388D01*
X017882D01*
Y010480D01*
D02*
G37*
G36*
X017907D02*
Y010388D01*
X017999D01*
X017997Y010403D01*
X017986Y010428D01*
X017969Y010450D01*
X017947Y010467D01*
X017922Y010478D01*
X017907Y010480D01*
D02*
G37*
G36*
X017666D02*
Y010388D01*
X017757D01*
X017755Y010403D01*
X017745Y010428D01*
X017728Y010450D01*
X017706Y010467D01*
X017680Y010478D01*
X017666Y010480D01*
D02*
G37*
G36*
X016396D02*
Y010388D01*
X016487D01*
X016485Y010403D01*
X016475Y010428D01*
X016458Y010450D01*
X016436Y010467D01*
X016410Y010478D01*
X016396Y010480D01*
D02*
G37*
G36*
X017640D02*
X017626Y010478D01*
X017600Y010467D01*
X017578Y010450D01*
X017561Y010428D01*
X017551Y010403D01*
X017549Y010388D01*
X017640D01*
Y010480D01*
D02*
G37*
G36*
X017132Y010756D02*
X017106Y010753D01*
X017082Y010743D01*
X017061Y010727D01*
X017045Y010706D01*
X017035Y010681D01*
X017031Y010655D01*
X017035Y010629D01*
X017045Y010605D01*
X017061Y010584D01*
X017082Y010568D01*
X017106Y010558D01*
X017132Y010554D01*
X017158Y010558D01*
X017183Y010568D01*
X017204Y010584D01*
X017220Y010605D01*
X017230Y010629D01*
X017233Y010655D01*
X017230Y010681D01*
X017220Y010706D01*
X017204Y010727D01*
X017183Y010743D01*
X017158Y010753D01*
X017132Y010756D01*
D02*
G37*
G36*
X016104Y010643D02*
X016017D01*
X016019Y010629D01*
X016029Y010605D01*
X016045Y010584D01*
X016066Y010568D01*
X016090Y010558D01*
X016104Y010556D01*
Y010643D01*
D02*
G37*
G36*
X016878Y010756D02*
X016852Y010753D01*
X016828Y010743D01*
X016807Y010727D01*
X016791Y010706D01*
X016781Y010681D01*
X016777Y010655D01*
X016781Y010629D01*
X016791Y010605D01*
X016807Y010584D01*
X016828Y010568D01*
X016852Y010558D01*
X016878Y010554D01*
X016904Y010558D01*
X016929Y010568D01*
X016950Y010584D01*
X016966Y010605D01*
X016976Y010629D01*
X016979Y010655D01*
X016976Y010681D01*
X016966Y010706D01*
X016950Y010727D01*
X016929Y010743D01*
X016904Y010753D01*
X016878Y010756D01*
D02*
G37*
G36*
X015037Y010566D02*
X014941D01*
X014944Y010551D01*
X014955Y010524D01*
X014972Y010502D01*
X014995Y010484D01*
X015021Y010473D01*
X015037Y010471D01*
Y010566D01*
D02*
G37*
G36*
X015158D02*
X015062D01*
Y010471D01*
X015078Y010473D01*
X015104Y010484D01*
X015127Y010502D01*
X015144Y010524D01*
X015155Y010551D01*
X015158Y010566D01*
D02*
G37*
G36*
X013697Y010129D02*
X013672Y010126D01*
X013649Y010116D01*
X013629Y010101D01*
X013614Y010081D01*
X013604Y010058D01*
X013603Y010049D01*
X013591D01*
X013590Y010058D01*
X013580Y010081D01*
X013565Y010101D01*
X013545Y010116D01*
X013522Y010126D01*
X013497Y010129D01*
X013472Y010126D01*
X013449Y010116D01*
X013429Y010101D01*
X013414Y010081D01*
X013404Y010058D01*
X013401Y010033D01*
X013404Y010008D01*
X013414Y009985D01*
X013429Y009965D01*
X013449Y009950D01*
X013472Y009940D01*
X013497Y009937D01*
X013522Y009940D01*
X013545Y009950D01*
X013565Y009965D01*
X013580Y009985D01*
X013590Y010008D01*
X013591Y010017D01*
X013603D01*
X013604Y010008D01*
X013614Y009985D01*
X013629Y009965D01*
X013649Y009950D01*
X013672Y009940D01*
X013697Y009937D01*
X013722Y009940D01*
X013745Y009950D01*
X013765Y009965D01*
X013780Y009985D01*
X013790Y010008D01*
X013791Y010017D01*
X013803D01*
X013804Y010008D01*
X013814Y009985D01*
X013829Y009965D01*
X013849Y009950D01*
X013872Y009940D01*
X013884Y009939D01*
Y010033D01*
Y010127D01*
X013872Y010126D01*
X013849Y010116D01*
X013829Y010101D01*
X013814Y010081D01*
X013804Y010058D01*
X013803Y010049D01*
X013791D01*
X013790Y010058D01*
X013780Y010081D01*
X013765Y010101D01*
X013745Y010116D01*
X013722Y010126D01*
X013697Y010129D01*
D02*
G37*
G36*
X012217Y010179D02*
X012202Y010177D01*
X012175Y010166D01*
X012153Y010149D01*
X012135Y010126D01*
X012124Y010099D01*
X012122Y010084D01*
X012217D01*
Y010179D01*
D02*
G37*
G36*
X012338Y010058D02*
X012243D01*
Y009963D01*
X012258Y009965D01*
X012285Y009976D01*
X012308Y009994D01*
X012325Y010016D01*
X012336Y010043D01*
X012338Y010058D01*
D02*
G37*
G36*
X011831Y010180D02*
X011613D01*
Y009962D01*
X011831D01*
Y010180D01*
D02*
G37*
G36*
X012217Y010058D02*
X012122D01*
X012124Y010043D01*
X012135Y010016D01*
X012153Y009994D01*
X012175Y009976D01*
X012202Y009965D01*
X012217Y009963D01*
Y010058D01*
D02*
G37*
G36*
X016154Y010480D02*
Y010388D01*
X016246D01*
X016244Y010403D01*
X016233Y010428D01*
X016217Y010450D01*
X016195Y010467D01*
X016169Y010478D01*
X016154Y010480D01*
D02*
G37*
G36*
X016370D02*
X016356Y010478D01*
X016330Y010467D01*
X016308Y010450D01*
X016291Y010428D01*
X016281Y010403D01*
X016279Y010388D01*
X016370D01*
Y010480D01*
D02*
G37*
G36*
X016129D02*
X016114Y010478D01*
X016089Y010467D01*
X016067Y010450D01*
X016050Y010428D01*
X016039Y010403D01*
X016037Y010388D01*
X016129D01*
Y010480D01*
D02*
G37*
G36*
X012243Y010179D02*
Y010084D01*
X012338D01*
X012336Y010099D01*
X012325Y010126D01*
X012308Y010149D01*
X012285Y010166D01*
X012258Y010177D01*
X012243Y010179D01*
D02*
G37*
G36*
X018885Y010808D02*
X018829Y010804D01*
X018775Y010791D01*
X018723Y010769D01*
X018676Y010740D01*
X018633Y010704D01*
X018597Y010661D01*
X018568Y010614D01*
X018546Y010562D01*
X018533Y010508D01*
X018529Y010452D01*
X018533Y010396D01*
X018546Y010342D01*
X018568Y010290D01*
X018597Y010243D01*
X018633Y010200D01*
X018676Y010164D01*
X018723Y010135D01*
X018775Y010113D01*
X018829Y010100D01*
X018885Y010096D01*
X018941Y010100D01*
X018995Y010113D01*
X019047Y010135D01*
X019094Y010164D01*
X019137Y010200D01*
X019173Y010243D01*
X019202Y010290D01*
X019224Y010342D01*
X019237Y010396D01*
X019241Y010452D01*
X019237Y010508D01*
X019224Y010562D01*
X019202Y010614D01*
X019173Y010661D01*
X019137Y010704D01*
X019094Y010740D01*
X019047Y010769D01*
X018995Y010791D01*
X018941Y010804D01*
X018885Y010808D01*
D02*
G37*
G36*
X012230Y010810D02*
X012215Y010808D01*
X012190Y010798D01*
X012168Y010781D01*
X012151Y010759D01*
X012141Y010734D01*
X012139Y010719D01*
X012230D01*
Y010810D01*
D02*
G37*
G36*
X012256D02*
Y010719D01*
X012347D01*
X012345Y010734D01*
X012335Y010759D01*
X012318Y010781D01*
X012296Y010798D01*
X012270Y010808D01*
X012256Y010810D01*
D02*
G37*
G36*
X017907Y010754D02*
Y010668D01*
X017993D01*
X017992Y010681D01*
X017982Y010706D01*
X017966Y010727D01*
X017945Y010743D01*
X017920Y010753D01*
X017907Y010754D01*
D02*
G37*
G36*
X016129D02*
Y010668D01*
X016215D01*
X016214Y010681D01*
X016204Y010706D01*
X016188Y010727D01*
X016167Y010743D01*
X016142Y010753D01*
X016129Y010754D01*
D02*
G37*
G36*
X017882D02*
X017868Y010753D01*
X017844Y010743D01*
X017823Y010727D01*
X017807Y010706D01*
X017797Y010681D01*
X017795Y010668D01*
X017882D01*
Y010754D01*
D02*
G37*
G36*
X013995Y010951D02*
Y010871D01*
X014075D01*
X014074Y010883D01*
X014064Y010906D01*
X014049Y010925D01*
X014030Y010940D01*
X014007Y010950D01*
X013995Y010951D01*
D02*
G37*
G36*
X018644Y011027D02*
X018632Y011026D01*
X018609Y011016D01*
X018590Y011001D01*
X018575Y010982D01*
X018565Y010959D01*
X018564Y010947D01*
X018644D01*
Y011027D01*
D02*
G37*
G36*
X013970Y010951D02*
X013958Y010950D01*
X013936Y010940D01*
X013916Y010925D01*
X013901Y010906D01*
X013892Y010883D01*
X013890Y010871D01*
X013970D01*
Y010951D01*
D02*
G37*
G36*
X018644Y010922D02*
X018564D01*
X018565Y010910D01*
X018575Y010888D01*
X018590Y010868D01*
X018609Y010853D01*
X018632Y010844D01*
X018644Y010842D01*
Y010922D01*
D02*
G37*
G36*
X018749D02*
X018669D01*
Y010842D01*
X018681Y010844D01*
X018703Y010853D01*
X018723Y010868D01*
X018738Y010888D01*
X018747Y010910D01*
X018749Y010922D01*
D02*
G37*
G36*
X015037Y010687D02*
X015021Y010685D01*
X014995Y010674D01*
X014972Y010657D01*
X014955Y010634D01*
X014944Y010607D01*
X014941Y010592D01*
X015037D01*
Y010687D01*
D02*
G37*
G36*
X015062D02*
Y010592D01*
X015158D01*
X015155Y010607D01*
X015144Y010634D01*
X015127Y010657D01*
X015104Y010674D01*
X015078Y010685D01*
X015062Y010687D01*
D02*
G37*
G36*
X017993Y010643D02*
X017907D01*
Y010556D01*
X017920Y010558D01*
X017945Y010568D01*
X017966Y010584D01*
X017982Y010605D01*
X017992Y010629D01*
X017993Y010643D01*
D02*
G37*
G36*
X016215D02*
X016129D01*
Y010556D01*
X016142Y010558D01*
X016167Y010568D01*
X016188Y010584D01*
X016204Y010605D01*
X016214Y010629D01*
X016215Y010643D01*
D02*
G37*
G36*
X017882D02*
X017795D01*
X017797Y010629D01*
X017807Y010605D01*
X017823Y010584D01*
X017844Y010568D01*
X017868Y010558D01*
X017882Y010556D01*
Y010643D01*
D02*
G37*
G36*
X012347Y010693D02*
X012256D01*
Y010602D01*
X012270Y010604D01*
X012296Y010614D01*
X012318Y010631D01*
X012335Y010653D01*
X012345Y010679D01*
X012347Y010693D01*
D02*
G37*
G36*
X016104Y010754D02*
X016090Y010753D01*
X016066Y010743D01*
X016045Y010727D01*
X016029Y010706D01*
X016019Y010681D01*
X016017Y010668D01*
X016104D01*
Y010754D01*
D02*
G37*
G36*
X012230Y010693D02*
X012139D01*
X012141Y010679D01*
X012151Y010653D01*
X012168Y010631D01*
X012190Y010614D01*
X012215Y010604D01*
X012230Y010602D01*
Y010693D01*
D02*
G37*
G36*
X011989Y010812D02*
X011961Y010808D01*
X011936Y010798D01*
X011914Y010781D01*
X011897Y010759D01*
X011887Y010734D01*
X011883Y010706D01*
X011887Y010679D01*
X011897Y010653D01*
X011914Y010631D01*
X011936Y010614D01*
X011961Y010604D01*
X011989Y010600D01*
X012016Y010604D01*
X012042Y010614D01*
X012064Y010631D01*
X012081Y010653D01*
X012091Y010679D01*
X012095Y010706D01*
X012091Y010734D01*
X012081Y010759D01*
X012064Y010781D01*
X012042Y010798D01*
X012016Y010808D01*
X011989Y010812D01*
D02*
G37*
G36*
X011840Y010811D02*
X011630D01*
Y010601D01*
X011840D01*
Y010811D01*
D02*
G37*
G36*
X019152Y009760D02*
Y009665D01*
X019247D01*
X019245Y009680D01*
X019234Y009707D01*
X019216Y009730D01*
X019194Y009747D01*
X019167Y009758D01*
X019152Y009760D01*
D02*
G37*
G36*
X016383Y009479D02*
X016356Y009475D01*
X016330Y009464D01*
X016308Y009447D01*
X016291Y009426D01*
X016281Y009400D01*
X016277Y009373D01*
X016281Y009345D01*
X016291Y009320D01*
X016308Y009298D01*
X016330Y009281D01*
X016356Y009270D01*
X016383Y009267D01*
X016410Y009270D01*
X016436Y009281D01*
X016458Y009298D01*
X016475Y009320D01*
X016485Y009345D01*
X016489Y009373D01*
X016485Y009400D01*
X016475Y009426D01*
X016458Y009447D01*
X016436Y009464D01*
X016410Y009475D01*
X016383Y009479D01*
D02*
G37*
G36*
X017145D02*
X017118Y009475D01*
X017092Y009464D01*
X017070Y009447D01*
X017053Y009426D01*
X017043Y009400D01*
X017039Y009373D01*
X017043Y009345D01*
X017053Y009320D01*
X017070Y009298D01*
X017092Y009281D01*
X017118Y009270D01*
X017145Y009267D01*
X017172Y009270D01*
X017198Y009281D01*
X017220Y009298D01*
X017237Y009320D01*
X017247Y009345D01*
X017251Y009373D01*
X017247Y009400D01*
X017237Y009426D01*
X017220Y009447D01*
X017198Y009464D01*
X017172Y009475D01*
X017145Y009479D01*
D02*
G37*
G36*
X012280Y009398D02*
X012138D01*
Y009256D01*
X012156Y009258D01*
X012185Y009267D01*
X012212Y009281D01*
X012236Y009301D01*
X012255Y009324D01*
X012270Y009351D01*
X012278Y009380D01*
X012280Y009398D01*
D02*
G37*
G36*
X011931Y009566D02*
X011621D01*
Y009256D01*
X011931D01*
Y009566D01*
D02*
G37*
G36*
X012113Y009398D02*
X011971D01*
X011973Y009380D01*
X011982Y009351D01*
X011996Y009324D01*
X012016Y009301D01*
X012039Y009281D01*
X012066Y009267D01*
X012095Y009258D01*
X012113Y009256D01*
Y009398D01*
D02*
G37*
G36*
X018012Y009360D02*
X017920D01*
Y009268D01*
X018012D01*
Y009360D01*
D02*
G37*
G36*
X016116D02*
X016025D01*
X016027Y009345D01*
X016037Y009320D01*
X016054Y009298D01*
X016076Y009281D01*
X016102Y009270D01*
X016116Y009268D01*
Y009360D01*
D02*
G37*
G36*
X017894D02*
X017802D01*
Y009268D01*
X017894D01*
Y009360D01*
D02*
G37*
G36*
X017399Y009479D02*
X017372Y009475D01*
X017346Y009464D01*
X017324Y009447D01*
X017307Y009426D01*
X017297Y009400D01*
X017293Y009373D01*
X017297Y009345D01*
X017307Y009320D01*
X017324Y009298D01*
X017346Y009281D01*
X017372Y009270D01*
X017399Y009267D01*
X017426Y009270D01*
X017452Y009281D01*
X017474Y009298D01*
X017491Y009320D01*
X017501Y009345D01*
X017505Y009373D01*
X017501Y009400D01*
X017491Y009426D01*
X017474Y009447D01*
X017452Y009464D01*
X017426Y009475D01*
X017399Y009479D01*
D02*
G37*
G36*
X017653D02*
X017626Y009475D01*
X017600Y009464D01*
X017578Y009447D01*
X017561Y009426D01*
X017551Y009400D01*
X017547Y009373D01*
X017551Y009345D01*
X017561Y009320D01*
X017578Y009298D01*
X017600Y009281D01*
X017626Y009270D01*
X017653Y009267D01*
X017680Y009270D01*
X017706Y009281D01*
X017728Y009298D01*
X017745Y009320D01*
X017755Y009345D01*
X017759Y009373D01*
X017755Y009400D01*
X017745Y009426D01*
X017728Y009447D01*
X017706Y009464D01*
X017680Y009475D01*
X017653Y009479D01*
D02*
G37*
G36*
X017005Y008852D02*
X016914D01*
X016916Y008837D01*
X016926Y008812D01*
X016943Y008790D01*
X016965Y008773D01*
X016991Y008762D01*
X017005Y008760D01*
Y008852D01*
D02*
G37*
G36*
X017122D02*
X017031D01*
Y008760D01*
X017045Y008762D01*
X017071Y008773D01*
X017093Y008790D01*
X017110Y008812D01*
X017120Y008837D01*
X017122Y008852D01*
D02*
G37*
G36*
X017272Y008971D02*
X017245Y008967D01*
X017219Y008956D01*
X017197Y008939D01*
X017180Y008918D01*
X017170Y008892D01*
X017166Y008865D01*
X017170Y008837D01*
X017180Y008812D01*
X017197Y008790D01*
X017219Y008773D01*
X017245Y008762D01*
X017272Y008759D01*
X017299Y008762D01*
X017325Y008773D01*
X017347Y008790D01*
X017364Y008812D01*
X017374Y008837D01*
X017378Y008865D01*
X017374Y008892D01*
X017364Y008918D01*
X017347Y008939D01*
X017325Y008956D01*
X017299Y008967D01*
X017272Y008971D01*
D02*
G37*
G36*
X016510D02*
X016483Y008967D01*
X016457Y008956D01*
X016435Y008939D01*
X016418Y008918D01*
X016408Y008892D01*
X016404Y008865D01*
X016408Y008837D01*
X016418Y008812D01*
X016435Y008790D01*
X016457Y008773D01*
X016483Y008762D01*
X016510Y008759D01*
X016537Y008762D01*
X016563Y008773D01*
X016585Y008790D01*
X016602Y008812D01*
X016612Y008837D01*
X016616Y008865D01*
X016612Y008892D01*
X016602Y008918D01*
X016585Y008939D01*
X016563Y008956D01*
X016537Y008967D01*
X016510Y008971D01*
D02*
G37*
G36*
X016764D02*
X016737Y008967D01*
X016711Y008956D01*
X016689Y008939D01*
X016672Y008918D01*
X016662Y008892D01*
X016658Y008865D01*
X016662Y008837D01*
X016672Y008812D01*
X016689Y008790D01*
X016711Y008773D01*
X016737Y008762D01*
X016764Y008759D01*
X016791Y008762D01*
X016817Y008773D01*
X016839Y008790D01*
X016856Y008812D01*
X016866Y008837D01*
X016870Y008865D01*
X016866Y008892D01*
X016856Y008918D01*
X016839Y008939D01*
X016817Y008956D01*
X016791Y008967D01*
X016764Y008971D01*
D02*
G37*
G36*
X015021Y009385D02*
X014880D01*
X014881Y009368D01*
X014890Y009338D01*
X014904Y009311D01*
X014924Y009288D01*
X014947Y009268D01*
X014974Y009254D01*
X015004Y009245D01*
X015021Y009244D01*
Y009385D01*
D02*
G37*
G36*
X015188D02*
X015047D01*
Y009244D01*
X015064Y009245D01*
X015094Y009254D01*
X015121Y009268D01*
X015144Y009288D01*
X015164Y009311D01*
X015178Y009338D01*
X015187Y009368D01*
X015188Y009385D01*
D02*
G37*
G36*
X012979Y009767D02*
X012924Y009762D01*
X012869Y009749D01*
X012818Y009728D01*
X012770Y009699D01*
X012728Y009662D01*
X012691Y009620D01*
X012662Y009572D01*
X012641Y009521D01*
X012628Y009466D01*
X012623Y009411D01*
X012628Y009355D01*
X012641Y009301D01*
X012662Y009249D01*
X012691Y009201D01*
X012728Y009159D01*
X012770Y009123D01*
X012818Y009093D01*
X012869Y009072D01*
X012924Y009059D01*
X012979Y009055D01*
X013035Y009059D01*
X013089Y009072D01*
X013141Y009093D01*
X013189Y009123D01*
X013231Y009159D01*
X013267Y009201D01*
X013297Y009249D01*
X013318Y009301D01*
X013331Y009355D01*
X013335Y009411D01*
X013331Y009466D01*
X013318Y009521D01*
X013297Y009572D01*
X013267Y009620D01*
X013231Y009662D01*
X013189Y009699D01*
X013141Y009728D01*
X013089Y009749D01*
X013035Y009762D01*
X012979Y009767D01*
D02*
G37*
G36*
X017005Y008969D02*
X016991Y008967D01*
X016965Y008956D01*
X016943Y008939D01*
X016926Y008918D01*
X016916Y008892D01*
X016914Y008877D01*
X017005D01*
Y008969D01*
D02*
G37*
G36*
X017031D02*
Y008877D01*
X017122D01*
X017120Y008892D01*
X017110Y008918D01*
X017093Y008939D01*
X017071Y008956D01*
X017045Y008967D01*
X017031Y008969D01*
D02*
G37*
G36*
X017386Y009771D02*
X017359Y009768D01*
X017333Y009757D01*
X017311Y009740D01*
X017295Y009718D01*
X017284Y009693D01*
X017280Y009665D01*
X017284Y009638D01*
X017295Y009612D01*
X017311Y009590D01*
X017333Y009574D01*
X017359Y009563D01*
X017386Y009559D01*
X017414Y009563D01*
X017439Y009574D01*
X017461Y009590D01*
X017478Y009612D01*
X017489Y009638D01*
X017492Y009665D01*
X017489Y009693D01*
X017478Y009718D01*
X017461Y009740D01*
X017439Y009757D01*
X017414Y009768D01*
X017386Y009771D01*
D02*
G37*
G36*
X018148D02*
X018121Y009768D01*
X018095Y009757D01*
X018073Y009740D01*
X018057Y009718D01*
X018046Y009693D01*
X018042Y009665D01*
X018046Y009638D01*
X018057Y009612D01*
X018073Y009590D01*
X018095Y009574D01*
X018121Y009563D01*
X018148Y009559D01*
X018176Y009563D01*
X018201Y009574D01*
X018223Y009590D01*
X018240Y009612D01*
X018251Y009638D01*
X018254Y009665D01*
X018251Y009693D01*
X018240Y009718D01*
X018223Y009740D01*
X018201Y009757D01*
X018176Y009768D01*
X018148Y009771D01*
D02*
G37*
G36*
X016624D02*
X016597Y009768D01*
X016571Y009757D01*
X016549Y009740D01*
X016533Y009718D01*
X016522Y009693D01*
X016518Y009665D01*
X016522Y009638D01*
X016533Y009612D01*
X016549Y009590D01*
X016571Y009574D01*
X016597Y009563D01*
X016624Y009559D01*
X016652Y009563D01*
X016677Y009574D01*
X016699Y009590D01*
X016716Y009612D01*
X016727Y009638D01*
X016730Y009665D01*
X016727Y009693D01*
X016716Y009718D01*
X016699Y009740D01*
X016677Y009757D01*
X016652Y009768D01*
X016624Y009771D01*
D02*
G37*
G36*
X019247Y009639D02*
X019152D01*
Y009544D01*
X019167Y009546D01*
X019194Y009557D01*
X019216Y009574D01*
X019234Y009597D01*
X019245Y009624D01*
X019247Y009639D01*
D02*
G37*
G36*
X015900Y009771D02*
X015873Y009768D01*
X015847Y009757D01*
X015826Y009740D01*
X015809Y009718D01*
X015798Y009693D01*
X015794Y009665D01*
X015798Y009638D01*
X015809Y009612D01*
X015826Y009590D01*
X015847Y009574D01*
X015873Y009563D01*
X015900Y009559D01*
X015928Y009563D01*
X015953Y009574D01*
X015975Y009590D01*
X015992Y009612D01*
X016003Y009638D01*
X016006Y009665D01*
X016003Y009693D01*
X015992Y009718D01*
X015975Y009740D01*
X015953Y009757D01*
X015928Y009768D01*
X015900Y009771D01*
D02*
G37*
G36*
X017999Y009770D02*
X017789D01*
Y009560D01*
X017999D01*
Y009770D01*
D02*
G37*
G36*
X019126Y009760D02*
X019111Y009758D01*
X019084Y009747D01*
X019061Y009730D01*
X019044Y009707D01*
X019033Y009680D01*
X019031Y009665D01*
X019126D01*
Y009760D01*
D02*
G37*
G36*
X017758Y009770D02*
X017548D01*
Y009560D01*
X017758D01*
Y009770D01*
D02*
G37*
G36*
X016247D02*
X016037D01*
Y009560D01*
X016247D01*
Y009770D01*
D02*
G37*
G36*
X016488D02*
X016278D01*
Y009560D01*
X016488D01*
Y009770D01*
D02*
G37*
G36*
X017894Y009478D02*
X017802D01*
Y009385D01*
X017894D01*
Y009478D01*
D02*
G37*
G36*
X018012D02*
X017920D01*
Y009385D01*
X018012D01*
Y009478D01*
D02*
G37*
G36*
X016142Y009477D02*
Y009385D01*
X016233D01*
X016231Y009400D01*
X016221Y009426D01*
X016204Y009447D01*
X016182Y009464D01*
X016156Y009475D01*
X016142Y009477D01*
D02*
G37*
G36*
X016233Y009360D02*
X016142D01*
Y009268D01*
X016156Y009270D01*
X016182Y009281D01*
X016204Y009298D01*
X016221Y009320D01*
X016231Y009345D01*
X016233Y009360D01*
D02*
G37*
G36*
X016116Y009477D02*
X016102Y009475D01*
X016076Y009464D01*
X016054Y009447D01*
X016037Y009426D01*
X016027Y009400D01*
X016025Y009385D01*
X016116D01*
Y009477D01*
D02*
G37*
G36*
X012138Y009565D02*
Y009423D01*
X012280D01*
X012278Y009441D01*
X012270Y009470D01*
X012255Y009497D01*
X012236Y009521D01*
X012212Y009540D01*
X012185Y009555D01*
X012156Y009563D01*
X012138Y009565D01*
D02*
G37*
G36*
X019126Y009639D02*
X019031D01*
X019033Y009624D01*
X019044Y009597D01*
X019061Y009574D01*
X019084Y009557D01*
X019111Y009546D01*
X019126Y009544D01*
Y009639D01*
D02*
G37*
G36*
X012113Y009565D02*
X012095Y009563D01*
X012066Y009555D01*
X012039Y009540D01*
X012016Y009521D01*
X011996Y009497D01*
X011982Y009470D01*
X011973Y009441D01*
X011971Y009423D01*
X012113D01*
Y009565D01*
D02*
G37*
G36*
X015021Y009552D02*
X015004Y009551D01*
X014974Y009542D01*
X014947Y009528D01*
X014924Y009508D01*
X014904Y009485D01*
X014890Y009458D01*
X014881Y009428D01*
X014880Y009411D01*
X015021D01*
Y009552D01*
D02*
G37*
G36*
X015047D02*
Y009411D01*
X015188D01*
X015187Y009428D01*
X015178Y009458D01*
X015164Y009485D01*
X015144Y009508D01*
X015121Y009528D01*
X015094Y009542D01*
X015064Y009551D01*
X015047Y009552D01*
D02*
G37*
G36*
X013437Y013208D02*
X013345D01*
X013347Y013193D01*
X013358Y013168D01*
X013374Y013146D01*
X013396Y013129D01*
X013422Y013118D01*
X013437Y013116D01*
Y013208D01*
D02*
G37*
G36*
X013554D02*
X013462D01*
Y013116D01*
X013477Y013118D01*
X013502Y013129D01*
X013524Y013146D01*
X013541Y013168D01*
X013552Y013193D01*
X013554Y013208D01*
D02*
G37*
G36*
X013223D02*
X013132D01*
Y013116D01*
X013147Y013118D01*
X013172Y013129D01*
X013194Y013146D01*
X013211Y013168D01*
X013221Y013193D01*
X013223Y013208D01*
D02*
G37*
G36*
X012182Y013050D02*
Y012958D01*
X012274D01*
X012272Y012973D01*
X012261Y012998D01*
X012244Y013020D01*
X012222Y013037D01*
X012197Y013048D01*
X012182Y013050D01*
D02*
G37*
G36*
X013106Y013208D02*
X013015D01*
X013017Y013193D01*
X013027Y013168D01*
X013044Y013146D01*
X013066Y013129D01*
X013092Y013118D01*
X013106Y013116D01*
Y013208D01*
D02*
G37*
G36*
X014214D02*
X014122D01*
Y013116D01*
X014137Y013118D01*
X014163Y013129D01*
X014185Y013146D01*
X014201Y013168D01*
X014212Y013193D01*
X014214Y013208D01*
D02*
G37*
G36*
X014605Y013233D02*
X014510D01*
X014512Y013218D01*
X014523Y013191D01*
X014540Y013169D01*
X014563Y013151D01*
X014589Y013140D01*
X014605Y013138D01*
Y013233D01*
D02*
G37*
G36*
X014097Y013208D02*
X014005D01*
X014007Y013193D01*
X014018Y013168D01*
X014035Y013146D01*
X014057Y013129D01*
X014082Y013118D01*
X014097Y013116D01*
Y013208D01*
D02*
G37*
G36*
X013767D02*
X013675D01*
X013677Y013193D01*
X013688Y013168D01*
X013705Y013146D01*
X013727Y013129D01*
X013752Y013118D01*
X013767Y013116D01*
Y013208D01*
D02*
G37*
G36*
X013884D02*
X013792D01*
Y013116D01*
X013807Y013118D01*
X013832Y013129D01*
X013854Y013146D01*
X013871Y013168D01*
X013882Y013193D01*
X013884Y013208D01*
D02*
G37*
G36*
X013224Y013072D02*
X013014D01*
Y012862D01*
X013224D01*
Y013072D01*
D02*
G37*
G36*
X013554D02*
X013344D01*
Y012862D01*
X013554D01*
Y013072D01*
D02*
G37*
G36*
X012274Y012933D02*
X012182D01*
Y012841D01*
X012197Y012843D01*
X012222Y012854D01*
X012244Y012871D01*
X012261Y012893D01*
X012272Y012918D01*
X012274Y012933D01*
D02*
G37*
G36*
X012528Y013051D02*
X012318D01*
Y012841D01*
X012528D01*
Y013051D01*
D02*
G37*
G36*
X012157Y012933D02*
X012065D01*
X012067Y012918D01*
X012078Y012893D01*
X012094Y012871D01*
X012116Y012854D01*
X012142Y012843D01*
X012157Y012841D01*
Y012933D01*
D02*
G37*
G36*
X017911Y012954D02*
X017831D01*
Y012874D01*
X017843Y012876D01*
X017865Y012885D01*
X017885Y012900D01*
X017900Y012920D01*
X017909Y012942D01*
X017911Y012954D01*
D02*
G37*
G36*
X012157Y013050D02*
X012142Y013048D01*
X012116Y013037D01*
X012094Y013020D01*
X012078Y012998D01*
X012067Y012973D01*
X012065Y012958D01*
X012157D01*
Y013050D01*
D02*
G37*
G36*
X017805Y012954D02*
X017725D01*
X017727Y012942D01*
X017736Y012920D01*
X017751Y012900D01*
X017771Y012885D01*
X017794Y012876D01*
X017805Y012874D01*
Y012954D01*
D02*
G37*
G36*
X013885Y013072D02*
X013674D01*
Y012862D01*
X013885D01*
Y013072D01*
D02*
G37*
G36*
X014215D02*
X014005D01*
Y012862D01*
X014215D01*
Y013072D01*
D02*
G37*
G36*
X014726Y013233D02*
X014630D01*
Y013138D01*
X014646Y013140D01*
X014673Y013151D01*
X014695Y013169D01*
X014713Y013191D01*
X014724Y013218D01*
X014726Y013233D01*
D02*
G37*
G36*
X017593Y013437D02*
X017513D01*
Y013357D01*
X017525Y013358D01*
X017548Y013368D01*
X017567Y013383D01*
X017582Y013402D01*
X017592Y013425D01*
X017593Y013437D01*
D02*
G37*
G36*
X013449Y013581D02*
X013422Y013577D01*
X013396Y013566D01*
X013374Y013550D01*
X013358Y013528D01*
X013347Y013502D01*
X013343Y013475D01*
X013347Y013447D01*
X013358Y013422D01*
X013374Y013400D01*
X013396Y013383D01*
X013422Y013372D01*
X013449Y013369D01*
X013477Y013372D01*
X013502Y013383D01*
X013524Y013400D01*
X013541Y013422D01*
X013552Y013447D01*
X013555Y013475D01*
X013552Y013502D01*
X013541Y013528D01*
X013524Y013550D01*
X013502Y013566D01*
X013477Y013577D01*
X013449Y013581D01*
D02*
G37*
G36*
X017488Y013437D02*
X017408D01*
X017410Y013425D01*
X017419Y013402D01*
X017434Y013383D01*
X017453Y013368D01*
X017476Y013358D01*
X017488Y013357D01*
Y013437D01*
D02*
G37*
G36*
X014605Y013354D02*
X014589Y013352D01*
X014563Y013341D01*
X014540Y013324D01*
X014523Y013301D01*
X014512Y013274D01*
X014510Y013259D01*
X014605D01*
Y013354D01*
D02*
G37*
G36*
X014630D02*
Y013259D01*
X014726D01*
X014724Y013274D01*
X014713Y013301D01*
X014695Y013324D01*
X014673Y013341D01*
X014646Y013352D01*
X014630Y013354D01*
D02*
G37*
G36*
X017513Y013542D02*
Y013462D01*
X017593D01*
X017592Y013474D01*
X017582Y013496D01*
X017567Y013516D01*
X017548Y013531D01*
X017525Y013540D01*
X017513Y013542D01*
D02*
G37*
G36*
X013119Y013581D02*
X013092Y013577D01*
X013076Y013571D01*
X012364D01*
Y013571D01*
X012294Y013567D01*
X012225Y013555D01*
X012157Y013535D01*
X012092Y013508D01*
X012030Y013474D01*
X011973Y013434D01*
X011920Y013387D01*
X011920Y013387D01*
X011878Y013344D01*
X011862Y013338D01*
X011840Y013321D01*
X011824Y013299D01*
X011813Y013274D01*
X011809Y013246D01*
X011813Y013219D01*
X011819Y013203D01*
Y012989D01*
X011813Y012973D01*
X011809Y012946D01*
X011813Y012918D01*
X011819Y012902D01*
Y012688D01*
X011813Y012672D01*
X011809Y012645D01*
X011813Y012618D01*
X011819Y012602D01*
Y012387D01*
X011813Y012372D01*
X011809Y012344D01*
X011813Y012317D01*
X011821Y012297D01*
X011824Y012244D01*
X011839Y012145D01*
X011863Y012048D01*
X011897Y011953D01*
X011940Y011862D01*
X011991Y011776D01*
X012051Y011696D01*
X012119Y011621D01*
X012119Y011622D01*
X012119Y011622D01*
X012134Y011606D01*
Y011524D01*
X012216D01*
X012490Y011251D01*
X012490Y011251D01*
X012490Y011250D01*
X012598Y011149D01*
X012713Y011054D01*
X012834Y010968D01*
X012960Y010889D01*
X013092Y010819D01*
X013227Y010758D01*
X013366Y010705D01*
X013509Y010662D01*
X013654Y010628D01*
X013687Y010623D01*
X013686Y010610D01*
X013672Y010608D01*
X013649Y010599D01*
X013629Y010583D01*
X013614Y010564D01*
X013604Y010540D01*
X013603Y010532D01*
X013591D01*
X013590Y010540D01*
X013580Y010564D01*
X013565Y010583D01*
X013545Y010599D01*
X013522Y010608D01*
X013497Y010611D01*
X013472Y010608D01*
X013449Y010599D01*
X013429Y010583D01*
X013414Y010564D01*
X013404Y010540D01*
X013401Y010516D01*
X013404Y010491D01*
X013414Y010468D01*
X013429Y010448D01*
X013449Y010433D01*
X013472Y010423D01*
X013497Y010420D01*
X013522Y010423D01*
X013545Y010433D01*
X013565Y010448D01*
X013580Y010468D01*
X013590Y010491D01*
X013591Y010499D01*
X013603D01*
X013604Y010491D01*
X013614Y010468D01*
X013629Y010448D01*
X013649Y010433D01*
X013672Y010423D01*
X013697Y010420D01*
X013722Y010423D01*
X013745Y010433D01*
X013765Y010448D01*
X013780Y010468D01*
X013790Y010491D01*
X013791Y010499D01*
X013803D01*
X013804Y010491D01*
X013814Y010468D01*
X013829Y010448D01*
X013849Y010433D01*
X013872Y010423D01*
X013884Y010421D01*
Y010516D01*
X013910D01*
Y010421D01*
X013922Y010423D01*
X013945Y010433D01*
X013965Y010448D01*
X013980Y010468D01*
X013989Y010489D01*
X014001Y010486D01*
Y010062D01*
X013989Y010060D01*
X013980Y010081D01*
X013965Y010101D01*
X013945Y010116D01*
X013922Y010126D01*
X013910Y010127D01*
Y010033D01*
Y009939D01*
X013922Y009940D01*
X013945Y009950D01*
X013965Y009965D01*
X013980Y009985D01*
X013989Y010006D01*
X014001Y010004D01*
Y009949D01*
X014001D01*
X014006Y009851D01*
X014020Y009753D01*
X014044Y009658D01*
X014077Y009565D01*
X014119Y009476D01*
X014170Y009392D01*
X014228Y009313D01*
X014295Y009240D01*
X014367Y009174D01*
X014447Y009115D01*
X014531Y009065D01*
X014620Y009023D01*
X014713Y008989D01*
X014808Y008965D01*
X014905Y008951D01*
X015004Y008946D01*
Y008947D01*
X016169D01*
Y008946D01*
X016172Y008946D01*
X016178Y008935D01*
X016164Y008918D01*
X016154Y008892D01*
X016150Y008865D01*
X016154Y008837D01*
X016164Y008812D01*
X016181Y008790D01*
X016203Y008773D01*
X016229Y008762D01*
X016256Y008759D01*
X016283Y008762D01*
X016309Y008773D01*
X016331Y008790D01*
X016348Y008812D01*
X016358Y008837D01*
X016362Y008865D01*
X016358Y008892D01*
X016348Y008918D01*
X016331Y008939D01*
X016321Y008947D01*
X016325Y008959D01*
X016373Y008966D01*
X016472Y008991D01*
X016568Y009025D01*
X016660Y009069D01*
X016748Y009122D01*
X016830Y009182D01*
X016906Y009251D01*
X016905Y009251D01*
X016928Y009274D01*
X016944Y009281D01*
X016966Y009298D01*
X016983Y009320D01*
X016993Y009345D01*
X016997Y009373D01*
X016993Y009400D01*
X016983Y009426D01*
X016966Y009447D01*
X016944Y009464D01*
X016918Y009475D01*
X016891Y009479D01*
X016864Y009475D01*
X016838Y009464D01*
X016816Y009447D01*
X016799Y009426D01*
X016793Y009410D01*
X016770Y009387D01*
X016770Y009387D01*
X016770Y009387D01*
X016768Y009384D01*
X016754Y009372D01*
X016742Y009376D01*
X016739Y009400D01*
X016729Y009426D01*
X016712Y009447D01*
X016690Y009464D01*
X016664Y009475D01*
X016637Y009479D01*
X016610Y009475D01*
X016584Y009464D01*
X016562Y009447D01*
X016545Y009426D01*
X016535Y009400D01*
X016531Y009373D01*
X016535Y009345D01*
X016545Y009320D01*
X016562Y009298D01*
X016584Y009281D01*
X016605Y009272D01*
X016606Y009260D01*
X016570Y009238D01*
X016495Y009202D01*
X016416Y009174D01*
X016335Y009154D01*
X016253Y009142D01*
X016173Y009138D01*
X016169Y009138D01*
X015004D01*
X015001Y009138D01*
X014924Y009142D01*
X014845Y009153D01*
X014768Y009173D01*
X014693Y009199D01*
X014627Y009231D01*
X014630Y009243D01*
X014839D01*
Y009553D01*
X014807D01*
X014799Y009563D01*
X014819Y009633D01*
X014850Y009707D01*
X014888Y009777D01*
X014935Y009842D01*
X014988Y009902D01*
X015047Y009955D01*
X015058Y009962D01*
X015158D01*
Y010026D01*
X015182Y010040D01*
X015256Y010070D01*
X015333Y010092D01*
X015412Y010106D01*
X015488Y010110D01*
X015491Y010109D01*
X018148D01*
X018152Y010110D01*
X018209Y010105D01*
X018268Y010091D01*
X018324Y010068D01*
X018376Y010036D01*
X018422Y009997D01*
X018462Y009950D01*
X018494Y009899D01*
X018517Y009842D01*
X018531Y009783D01*
X018532Y009770D01*
X018523Y009761D01*
X018522D01*
Y009543D01*
X018522D01*
X018523Y009542D01*
X018518Y009517D01*
X018496Y009452D01*
X018466Y009391D01*
X018428Y009334D01*
X018383Y009283D01*
X018331Y009238D01*
X018275Y009200D01*
X018213Y009170D01*
X018149Y009148D01*
X018082Y009134D01*
X018017Y009130D01*
X018013Y009130D01*
X017696D01*
X017696Y009130D01*
X017654Y009127D01*
X017614Y009117D01*
X017575Y009101D01*
X017540Y009080D01*
X017508Y009053D01*
X017481Y009021D01*
X017459Y008985D01*
X017443Y008947D01*
X017437Y008921D01*
X017434Y008918D01*
X017424Y008892D01*
X017420Y008865D01*
X017424Y008837D01*
X017434Y008812D01*
X017451Y008790D01*
X017473Y008773D01*
X017499Y008762D01*
X017526Y008759D01*
X017553Y008762D01*
X017579Y008773D01*
X017601Y008790D01*
X017618Y008812D01*
X017628Y008837D01*
X017632Y008865D01*
X017628Y008892D01*
X017628Y008893D01*
X017632Y008902D01*
X017643Y008917D01*
X017659Y008929D01*
X017677Y008936D01*
X017685Y008938D01*
X017694Y008929D01*
X017693Y008924D01*
X017688Y008918D01*
X017678Y008892D01*
X017674Y008865D01*
X017678Y008837D01*
X017688Y008812D01*
X017705Y008790D01*
X017727Y008773D01*
X017753Y008762D01*
X017780Y008759D01*
X017807Y008762D01*
X017833Y008773D01*
X017855Y008790D01*
X017872Y008812D01*
X017882Y008837D01*
X017886Y008865D01*
X017882Y008892D01*
X017872Y008918D01*
X017864Y008927D01*
X017870Y008939D01*
X018013D01*
Y008938D01*
X018093Y008943D01*
X018172Y008956D01*
X018249Y008979D01*
X018323Y009009D01*
X018393Y009048D01*
X018458Y009094D01*
X018518Y009147D01*
X018571Y009207D01*
X018618Y009272D01*
X018656Y009342D01*
X018687Y009416D01*
X018709Y009493D01*
X018718Y009543D01*
X018740D01*
Y009761D01*
X018725D01*
X018722Y009798D01*
X018707Y009873D01*
X018683Y009944D01*
X018650Y010012D01*
X018608Y010075D01*
X018558Y010132D01*
X018501Y010182D01*
X018438Y010224D01*
X018370Y010257D01*
X018298Y010282D01*
X018253Y010291D01*
Y010480D01*
X018043D01*
Y010301D01*
X017984D01*
X017978Y010313D01*
X017986Y010322D01*
X017997Y010348D01*
X017999Y010363D01*
X017790D01*
X017792Y010348D01*
X017803Y010322D01*
X017810Y010313D01*
X017805Y010301D01*
X017743D01*
X017737Y010313D01*
X017745Y010322D01*
X017755Y010348D01*
X017757Y010363D01*
X017549D01*
X017551Y010348D01*
X017561Y010322D01*
X017569Y010313D01*
X017563Y010301D01*
X017491D01*
Y010480D01*
X017281D01*
Y010301D01*
X016729D01*
Y010480D01*
X016519D01*
Y010301D01*
X016473D01*
X016467Y010313D01*
X016475Y010322D01*
X016485Y010348D01*
X016487Y010363D01*
X016279D01*
X016281Y010348D01*
X016291Y010322D01*
X016299Y010313D01*
X016293Y010301D01*
X016231D01*
X016226Y010313D01*
X016233Y010322D01*
X016244Y010348D01*
X016246Y010363D01*
X016037D01*
X016039Y010348D01*
X016050Y010322D01*
X016058Y010313D01*
X016052Y010301D01*
X016005D01*
Y010480D01*
X015795D01*
Y010301D01*
X015491D01*
Y010301D01*
X015403Y010297D01*
X015315Y010284D01*
X015229Y010262D01*
X015146Y010233D01*
X015065Y010195D01*
X015041Y010180D01*
X014941D01*
Y010113D01*
X014918Y010096D01*
X014853Y010037D01*
X014793Y009971D01*
X014740Y009900D01*
X014695Y009824D01*
X014657Y009744D01*
X014627Y009660D01*
X014605Y009574D01*
X014602Y009553D01*
X014529D01*
Y009306D01*
X014518Y009301D01*
X014489Y009322D01*
X014430Y009375D01*
X014376Y009434D01*
X014329Y009498D01*
X014288Y009567D01*
X014254Y009639D01*
X014227Y009714D01*
X014208Y009791D01*
X014196Y009870D01*
X014192Y009946D01*
X014193Y009949D01*
Y010033D01*
Y010516D01*
Y010588D01*
X014203Y010589D01*
X014309Y010601D01*
X014413Y010622D01*
X014515Y010651D01*
X014615Y010688D01*
X014711Y010732D01*
X014804Y010784D01*
X014892Y010843D01*
X014976Y010909D01*
X015054Y010981D01*
Y010981D01*
Y010981D01*
X015354Y011281D01*
X015369Y011287D01*
X015391Y011304D01*
X015408Y011326D01*
X015413Y011338D01*
X015434Y011357D01*
X015488Y011395D01*
X015547Y011428D01*
X015609Y011453D01*
X015674Y011472D01*
X015740Y011483D01*
X015804Y011487D01*
X015807Y011487D01*
X017765D01*
Y011462D01*
X018075D01*
Y011464D01*
X018084Y011472D01*
X018100Y011469D01*
X018188Y011447D01*
X018273Y011417D01*
X018355Y011378D01*
X018433Y011332D01*
X018489Y011290D01*
Y011125D01*
X018799D01*
Y011300D01*
X019029Y011531D01*
X019030Y011531D01*
X019091Y011598D01*
X019144Y011670D01*
X019191Y011748D01*
X019230Y011830D01*
X019260Y011915D01*
X019282Y012003D01*
X019296Y012093D01*
X019300Y012183D01*
X019300D01*
X019300Y012183D01*
Y012990D01*
X019300D01*
X019295Y013041D01*
X019280Y013091D01*
X019256Y013136D01*
X019223Y013176D01*
X019183Y013209D01*
X019137Y013233D01*
X019088Y013248D01*
X019037Y013253D01*
Y013253D01*
X018275D01*
X018275Y013253D01*
X016213D01*
Y013253D01*
X016079Y013249D01*
X015946Y013236D01*
X015814Y013214D01*
X015683Y013184D01*
X015555Y013145D01*
X015430Y013097D01*
X015308Y013042D01*
X015190Y012979D01*
X015076Y012908D01*
X014967Y012830D01*
X014863Y012745D01*
X014809Y012694D01*
X014725D01*
Y012477D01*
X014942D01*
Y012557D01*
X014998Y012609D01*
X015101Y012692D01*
X015210Y012767D01*
X015324Y012835D01*
X015442Y012894D01*
X015565Y012945D01*
X015690Y012987D01*
X015819Y013020D01*
X015949Y013043D01*
X016081Y013057D01*
X016209Y013062D01*
X016213Y013061D01*
X017770D01*
X017772Y013049D01*
X017771Y013048D01*
X017751Y013033D01*
X017736Y013014D01*
X017727Y012991D01*
X017725Y012979D01*
X017911D01*
X017909Y012991D01*
X017900Y013014D01*
X017885Y013033D01*
X017865Y013048D01*
X017864Y013049D01*
X017866Y013061D01*
X017974D01*
X017975Y013061D01*
X017994Y013046D01*
X018017Y013036D01*
X018041Y013033D01*
X018066Y013036D01*
X018089Y013046D01*
X018108Y013061D01*
X018109Y013061D01*
X019037D01*
X019037Y013061D01*
X019055Y013059D01*
X019072Y013052D01*
X019087Y013041D01*
X019097Y013028D01*
X019092Y013016D01*
X018159D01*
X018147Y013014D01*
X018137Y013007D01*
X018131Y012997D01*
X018128Y012986D01*
Y012186D01*
X018131Y012174D01*
X018137Y012164D01*
X018147Y012157D01*
X018159Y012155D01*
X019098D01*
X019107Y012146D01*
X019104Y012102D01*
X019091Y012021D01*
X019068Y011942D01*
X019036Y011866D01*
X018997Y011794D01*
X018949Y011727D01*
X018897Y011669D01*
X018894Y011666D01*
X018801Y011573D01*
X018790Y011580D01*
X018796Y011600D01*
X018798Y011618D01*
X018656D01*
Y011476D01*
X018674Y011478D01*
X018694Y011484D01*
X018701Y011473D01*
X018663Y011435D01*
X018613D01*
X018559Y011477D01*
X018477Y011529D01*
X018391Y011574D01*
X018301Y011611D01*
X018208Y011640D01*
X018113Y011662D01*
X018075Y011667D01*
Y011702D01*
X017765D01*
Y011678D01*
X015807D01*
X015807Y011678D01*
Y011679D01*
X015718Y011674D01*
X015631Y011659D01*
X015546Y011634D01*
X015464Y011600D01*
X015386Y011558D01*
X015314Y011506D01*
X015284Y011480D01*
X015263Y011471D01*
X015241Y011454D01*
X015224Y011432D01*
X015218Y011417D01*
X015180Y011378D01*
X015168Y011382D01*
X015164Y011407D01*
X015154Y011432D01*
X015137Y011454D01*
X015115Y011471D01*
X015090Y011481D01*
X015075Y011483D01*
Y011379D01*
X015062D01*
Y011367D01*
X014958D01*
X014960Y011352D01*
X014970Y011326D01*
X014987Y011304D01*
X015009Y011287D01*
X015035Y011277D01*
X015059Y011274D01*
X015063Y011262D01*
X014918Y011117D01*
X014918Y011117D01*
X014918Y011117D01*
X014916Y011114D01*
X014844Y011048D01*
X014763Y010986D01*
X014678Y010932D01*
X014588Y010885D01*
X014494Y010846D01*
X014398Y010815D01*
X014299Y010794D01*
X014198Y010780D01*
X014101Y010776D01*
X014097Y010777D01*
X014093Y010776D01*
X014050Y010777D01*
X014046Y010789D01*
X014049Y010792D01*
X014064Y010811D01*
X014074Y010834D01*
X014075Y010846D01*
X013890D01*
X013892Y010834D01*
X013901Y010811D01*
X013912Y010797D01*
X013906Y010786D01*
X013825Y010794D01*
X013691Y010816D01*
X013558Y010847D01*
X013428Y010886D01*
X013300Y010934D01*
X013176Y010991D01*
X013056Y011055D01*
X012940Y011127D01*
X012830Y011206D01*
X012724Y011292D01*
X012628Y011383D01*
X012625Y011386D01*
D01*
X012625D01*
Y011386D01*
X012352Y011660D01*
Y011742D01*
X012270D01*
X012254Y011757D01*
X012254Y011757D01*
X012254Y011757D01*
X012252Y011759D01*
X012199Y011817D01*
X012151Y011883D01*
X012109Y011953D01*
X012074Y012026D01*
X012046Y012103D01*
X012027Y012182D01*
X012015Y012263D01*
X012013Y012305D01*
X012018Y012317D01*
X012021Y012344D01*
X012018Y012372D01*
X012011Y012387D01*
Y012602D01*
X012018Y012618D01*
X012021Y012645D01*
X012018Y012672D01*
X012011Y012688D01*
Y012902D01*
X012018Y012918D01*
X012021Y012946D01*
X012018Y012973D01*
X012011Y012989D01*
Y013203D01*
X012013Y013209D01*
X012052Y013247D01*
X012064Y013243D01*
X012067Y013219D01*
X012078Y013193D01*
X012094Y013171D01*
X012116Y013154D01*
X012142Y013144D01*
X012157Y013142D01*
Y013246D01*
X012169D01*
Y013259D01*
X012274D01*
X012272Y013274D01*
X012261Y013299D01*
X012244Y013321D01*
X012222Y013338D01*
X012217Y013340D01*
X012217Y013353D01*
X012251Y013364D01*
X012307Y013376D01*
X012362Y013379D01*
X012364Y013379D01*
X013076D01*
X013092Y013372D01*
X013119Y013369D01*
X013147Y013372D01*
X013172Y013383D01*
X013194Y013400D01*
X013211Y013422D01*
X013221Y013447D01*
X013225Y013475D01*
X013221Y013502D01*
X013211Y013528D01*
X013194Y013550D01*
X013172Y013566D01*
X013147Y013577D01*
X013119Y013581D01*
D02*
G37*
G36*
X017488Y013542D02*
X017476Y013540D01*
X017453Y013531D01*
X017434Y013516D01*
X017419Y013496D01*
X017410Y013474D01*
X017408Y013462D01*
X017488D01*
Y013542D01*
D02*
G37*
G36*
X013779Y013581D02*
X013752Y013577D01*
X013727Y013566D01*
X013705Y013550D01*
X013688Y013528D01*
X013677Y013502D01*
X013674Y013475D01*
X013677Y013447D01*
X013688Y013422D01*
X013705Y013400D01*
X013727Y013383D01*
X013752Y013372D01*
X013779Y013369D01*
X013807Y013372D01*
X013832Y013383D01*
X013854Y013400D01*
X013871Y013422D01*
X013882Y013447D01*
X013885Y013475D01*
X013882Y013502D01*
X013871Y013528D01*
X013854Y013550D01*
X013832Y013566D01*
X013807Y013577D01*
X013779Y013581D01*
D02*
G37*
G36*
X014110D02*
X014082Y013577D01*
X014057Y013566D01*
X014035Y013550D01*
X014018Y013528D01*
X014007Y013502D01*
X014004Y013475D01*
X014007Y013447D01*
X014018Y013422D01*
X014035Y013400D01*
X014057Y013383D01*
X014082Y013372D01*
X014110Y013369D01*
X014137Y013372D01*
X014163Y013383D01*
X014185Y013400D01*
X014201Y013422D01*
X014212Y013447D01*
X014216Y013475D01*
X014212Y013502D01*
X014201Y013528D01*
X014185Y013550D01*
X014163Y013566D01*
X014137Y013577D01*
X014110Y013581D01*
D02*
G37*
G36*
X013132Y013325D02*
Y013233D01*
X013223D01*
X013221Y013248D01*
X013211Y013274D01*
X013194Y013296D01*
X013172Y013312D01*
X013147Y013323D01*
X013132Y013325D01*
D02*
G37*
G36*
X013437D02*
X013422Y013323D01*
X013396Y013312D01*
X013374Y013296D01*
X013358Y013274D01*
X013347Y013248D01*
X013345Y013233D01*
X013437D01*
Y013325D01*
D02*
G37*
G36*
X013106D02*
X013092Y013323D01*
X013066Y013312D01*
X013044Y013296D01*
X013027Y013274D01*
X013017Y013248D01*
X013015Y013233D01*
X013106D01*
Y013325D01*
D02*
G37*
G36*
X012528Y013351D02*
X012318D01*
Y013141D01*
X012528D01*
Y013351D01*
D02*
G37*
G36*
X012274Y013233D02*
X012182D01*
Y013142D01*
X012197Y013144D01*
X012222Y013154D01*
X012244Y013171D01*
X012261Y013193D01*
X012272Y013219D01*
X012274Y013233D01*
D02*
G37*
G36*
X014097Y013325D02*
X014082Y013323D01*
X014057Y013312D01*
X014035Y013296D01*
X014018Y013274D01*
X014007Y013248D01*
X014005Y013233D01*
X014097D01*
Y013325D01*
D02*
G37*
G36*
X014122D02*
Y013233D01*
X014214D01*
X014212Y013248D01*
X014201Y013274D01*
X014185Y013296D01*
X014163Y013312D01*
X014137Y013323D01*
X014122Y013325D01*
D02*
G37*
G36*
X013792D02*
Y013233D01*
X013884D01*
X013882Y013248D01*
X013871Y013274D01*
X013854Y013296D01*
X013832Y013312D01*
X013807Y013323D01*
X013792Y013325D01*
D02*
G37*
G36*
X013462D02*
Y013233D01*
X013554D01*
X013552Y013248D01*
X013541Y013274D01*
X013524Y013296D01*
X013502Y013312D01*
X013477Y013323D01*
X013462Y013325D01*
D02*
G37*
G36*
X013767D02*
X013752Y013323D01*
X013727Y013312D01*
X013705Y013296D01*
X013688Y013274D01*
X013677Y013248D01*
X013675Y013233D01*
X013767D01*
Y013325D01*
D02*
G37*
G36*
X018074Y011824D02*
X017932D01*
Y011715D01*
X017955D01*
X017986Y011719D01*
X018015Y011732D01*
X018040Y011751D01*
X018060Y011776D01*
X018072Y011805D01*
X018074Y011824D01*
D02*
G37*
G36*
X017955Y012211D02*
X017885D01*
X017853Y012207D01*
X017824Y012195D01*
X017799Y012176D01*
X017780Y012151D01*
X017768Y012122D01*
X017764Y012090D01*
X017768Y012059D01*
X017780Y012030D01*
X017799Y012005D01*
X017824Y011986D01*
X017853Y011973D01*
X017882Y011970D01*
Y011957D01*
X017853Y011953D01*
X017824Y011941D01*
X017799Y011922D01*
X017780Y011897D01*
X017768Y011868D01*
X017765Y011849D01*
X018074D01*
X018072Y011868D01*
X018060Y011897D01*
X018040Y011922D01*
X018015Y011941D01*
X017986Y011953D01*
X017958Y011957D01*
Y011970D01*
X017986Y011973D01*
X018015Y011986D01*
X018040Y012005D01*
X018060Y012030D01*
X018072Y012059D01*
X018076Y012090D01*
X018072Y012122D01*
X018060Y012151D01*
X018040Y012176D01*
X018015Y012195D01*
X017986Y012207D01*
X017955Y012211D01*
D02*
G37*
G36*
X017907Y011824D02*
X017765D01*
X017768Y011805D01*
X017780Y011776D01*
X017799Y011751D01*
X017824Y011732D01*
X017853Y011719D01*
X017885Y011715D01*
X017907D01*
Y011824D01*
D02*
G37*
G36*
X011722Y011741D02*
X011706Y011739D01*
X011680Y011728D01*
X011657Y011711D01*
X011640Y011688D01*
X011629Y011662D01*
X011627Y011646D01*
X011722D01*
Y011741D01*
D02*
G37*
G36*
X011747D02*
Y011646D01*
X011843D01*
X011841Y011662D01*
X011830Y011688D01*
X011812Y011711D01*
X011790Y011728D01*
X011763Y011739D01*
X011747Y011741D01*
D02*
G37*
G36*
X016205Y012438D02*
X016178Y012434D01*
X016152Y012423D01*
X016130Y012407D01*
X016113Y012385D01*
X016103Y012359D01*
X016099Y012332D01*
X016103Y012304D01*
X016113Y012279D01*
X016130Y012257D01*
X016152Y012240D01*
X016178Y012229D01*
X016205Y012226D01*
X016233Y012229D01*
X016258Y012240D01*
X016280Y012257D01*
X016297Y012279D01*
X016307Y012304D01*
X016311Y012332D01*
X016307Y012359D01*
X016297Y012385D01*
X016280Y012407D01*
X016258Y012423D01*
X016233Y012434D01*
X016205Y012438D01*
D02*
G37*
G36*
X016459D02*
X016432Y012434D01*
X016406Y012423D01*
X016384Y012407D01*
X016367Y012385D01*
X016357Y012359D01*
X016353Y012332D01*
X016357Y012304D01*
X016367Y012279D01*
X016384Y012257D01*
X016406Y012240D01*
X016432Y012229D01*
X016459Y012226D01*
X016487Y012229D01*
X016512Y012240D01*
X016534Y012257D01*
X016551Y012279D01*
X016561Y012304D01*
X016565Y012332D01*
X016561Y012359D01*
X016551Y012385D01*
X016534Y012407D01*
X016512Y012423D01*
X016487Y012434D01*
X016459Y012438D01*
D02*
G37*
G36*
X015075Y012093D02*
Y012001D01*
X015166D01*
X015164Y012016D01*
X015154Y012042D01*
X015137Y012064D01*
X015115Y012081D01*
X015090Y012091D01*
X015075Y012093D01*
D02*
G37*
G36*
X015316Y012095D02*
X015289Y012091D01*
X015263Y012081D01*
X015241Y012064D01*
X015224Y012042D01*
X015214Y012016D01*
X015210Y011989D01*
X015214Y011961D01*
X015224Y011936D01*
X015238Y011918D01*
X015232Y011907D01*
X015146D01*
X015141Y011918D01*
X015154Y011936D01*
X015164Y011961D01*
X015166Y011976D01*
X014958D01*
X014960Y011961D01*
X014970Y011936D01*
X014984Y011918D01*
X014978Y011907D01*
X014913D01*
Y012094D01*
X014703D01*
Y011907D01*
X014135D01*
X014133Y011907D01*
X014076Y011911D01*
X014018Y011922D01*
X013963Y011941D01*
X013910Y011967D01*
X013861Y012000D01*
X013860Y012001D01*
X013858Y012013D01*
X013848Y012036D01*
X013833Y012055D01*
X013814Y012070D01*
X013791Y012080D01*
X013767Y012083D01*
X013742Y012080D01*
X013720Y012070D01*
X013700Y012055D01*
X013685Y012036D01*
X013676Y012013D01*
X013672Y011989D01*
X013676Y011964D01*
X013685Y011942D01*
X013700Y011922D01*
X013720Y011907D01*
X013742Y011898D01*
X013766Y011895D01*
X013775Y011887D01*
X013839Y011844D01*
X013908Y011810D01*
X013982Y011785D01*
X014058Y011770D01*
X014135Y011765D01*
Y011766D01*
X014703D01*
Y011579D01*
X014913D01*
Y011766D01*
X014978D01*
X014984Y011754D01*
X014970Y011737D01*
X014960Y011711D01*
X014958Y011697D01*
X015166D01*
X015164Y011711D01*
X015154Y011737D01*
X015141Y011754D01*
X015146Y011766D01*
X015232D01*
X015238Y011754D01*
X015224Y011737D01*
X015214Y011711D01*
X015210Y011684D01*
X015214Y011657D01*
X015224Y011631D01*
X015241Y011609D01*
X015263Y011592D01*
X015289Y011582D01*
X015316Y011578D01*
X015344Y011582D01*
X015369Y011592D01*
X015391Y011609D01*
X015408Y011631D01*
X015418Y011657D01*
X015422Y011684D01*
X015418Y011711D01*
X015408Y011737D01*
X015391Y011759D01*
X015387Y011762D01*
Y011836D01*
Y011911D01*
X015391Y011914D01*
X015408Y011936D01*
X015418Y011961D01*
X015422Y011989D01*
X015418Y012016D01*
X015408Y012042D01*
X015391Y012064D01*
X015369Y012081D01*
X015344Y012091D01*
X015316Y012095D01*
D02*
G37*
G36*
X015049Y012093D02*
X015035Y012091D01*
X015009Y012081D01*
X014987Y012064D01*
X014970Y012042D01*
X014960Y012016D01*
X014958Y012001D01*
X015049D01*
Y012093D01*
D02*
G37*
G36*
X018631Y011618D02*
X018489D01*
X018491Y011600D01*
X018500Y011571D01*
X018514Y011544D01*
X018533Y011520D01*
X018557Y011501D01*
X018584Y011487D01*
X018613Y011478D01*
X018631Y011476D01*
Y011618D01*
D02*
G37*
G36*
X011722Y011621D02*
X011627D01*
X011629Y011605D01*
X011640Y011578D01*
X011657Y011556D01*
X011680Y011538D01*
X011706Y011527D01*
X011722Y011525D01*
Y011621D01*
D02*
G37*
G36*
X015049Y011483D02*
X015035Y011481D01*
X015009Y011471D01*
X014987Y011454D01*
X014970Y011432D01*
X014960Y011407D01*
X014958Y011392D01*
X015049D01*
Y011483D01*
D02*
G37*
G36*
X018669Y011027D02*
Y010947D01*
X018749D01*
X018747Y010959D01*
X018738Y010982D01*
X018723Y011001D01*
X018703Y011016D01*
X018681Y011026D01*
X018669Y011027D01*
D02*
G37*
G36*
X014913Y011484D02*
X014703D01*
Y011274D01*
X014913D01*
Y011484D01*
D02*
G37*
G36*
X018631Y011785D02*
X018613Y011783D01*
X018584Y011774D01*
X018557Y011760D01*
X018533Y011741D01*
X018514Y011717D01*
X018500Y011690D01*
X018491Y011661D01*
X018489Y011643D01*
X018631D01*
Y011785D01*
D02*
G37*
G36*
X018656D02*
Y011643D01*
X018798D01*
X018796Y011661D01*
X018787Y011690D01*
X018773Y011717D01*
X018754Y011741D01*
X018730Y011760D01*
X018703Y011774D01*
X018674Y011783D01*
X018656Y011785D01*
D02*
G37*
G36*
X015166Y011671D02*
X015075D01*
Y011580D01*
X015090Y011582D01*
X015115Y011592D01*
X015137Y011609D01*
X015154Y011631D01*
X015164Y011657D01*
X015166Y011671D01*
D02*
G37*
G36*
X011843Y011621D02*
X011747D01*
Y011525D01*
X011763Y011527D01*
X011790Y011538D01*
X011812Y011556D01*
X011830Y011578D01*
X011841Y011605D01*
X011843Y011621D01*
D02*
G37*
G36*
X015049Y011671D02*
X014958D01*
X014960Y011657D01*
X014970Y011631D01*
X014987Y011609D01*
X015009Y011592D01*
X015035Y011582D01*
X015049Y011580D01*
Y011671D01*
D02*
G37*
G36*
X016713Y012438D02*
X016686Y012434D01*
X016660Y012423D01*
X016638Y012407D01*
X016621Y012385D01*
X016611Y012359D01*
X016607Y012332D01*
X016611Y012304D01*
X016621Y012279D01*
X016638Y012257D01*
X016660Y012240D01*
X016686Y012229D01*
X016713Y012226D01*
X016741Y012229D01*
X016766Y012240D01*
X016788Y012257D01*
X016805Y012279D01*
X016815Y012304D01*
X016819Y012332D01*
X016815Y012359D01*
X016805Y012385D01*
X016788Y012407D01*
X016766Y012423D01*
X016741Y012434D01*
X016713Y012438D01*
D02*
G37*
G36*
X012528Y012750D02*
X012318D01*
Y012540D01*
X012528D01*
Y012750D01*
D02*
G37*
G36*
X012157Y012632D02*
X012065D01*
X012067Y012618D01*
X012078Y012592D01*
X012094Y012570D01*
X012116Y012553D01*
X012142Y012543D01*
X012157Y012541D01*
Y012632D01*
D02*
G37*
G36*
X014688Y012573D02*
X014592D01*
Y012478D01*
X014608Y012480D01*
X014634Y012491D01*
X014657Y012508D01*
X014675Y012531D01*
X014686Y012557D01*
X014688Y012573D01*
D02*
G37*
G36*
X012182Y012449D02*
Y012357D01*
X012274D01*
X012272Y012372D01*
X012261Y012397D01*
X012244Y012419D01*
X012222Y012436D01*
X012197Y012447D01*
X012182Y012449D01*
D02*
G37*
G36*
X014567Y012573D02*
X014472D01*
X014474Y012557D01*
X014485Y012531D01*
X014502Y012508D01*
X014525Y012491D01*
X014551Y012480D01*
X014567Y012478D01*
Y012573D01*
D02*
G37*
G36*
X012157Y012749D02*
X012142Y012747D01*
X012116Y012737D01*
X012094Y012720D01*
X012078Y012698D01*
X012067Y012672D01*
X012065Y012658D01*
X012157D01*
Y012749D01*
D02*
G37*
G36*
X012182D02*
Y012658D01*
X012274D01*
X012272Y012672D01*
X012261Y012698D01*
X012244Y012720D01*
X012222Y012737D01*
X012197Y012747D01*
X012182Y012749D01*
D02*
G37*
G36*
X014592Y012694D02*
Y012598D01*
X014688D01*
X014686Y012614D01*
X014675Y012641D01*
X014657Y012663D01*
X014634Y012681D01*
X014608Y012692D01*
X014592Y012694D01*
D02*
G37*
G36*
X012274Y012632D02*
X012182D01*
Y012541D01*
X012197Y012543D01*
X012222Y012553D01*
X012244Y012570D01*
X012261Y012592D01*
X012272Y012618D01*
X012274Y012632D01*
D02*
G37*
G36*
X014567Y012694D02*
X014551Y012692D01*
X014525Y012681D01*
X014502Y012663D01*
X014485Y012641D01*
X014474Y012614D01*
X014472Y012598D01*
X014567D01*
Y012694D01*
D02*
G37*
G36*
X017071Y012319D02*
X016980D01*
Y012227D01*
X016995Y012229D01*
X017020Y012240D01*
X017042Y012257D01*
X017059Y012279D01*
X017069Y012304D01*
X017071Y012319D01*
D02*
G37*
G36*
X012528Y012449D02*
X012318D01*
Y012239D01*
X012528D01*
Y012449D01*
D02*
G37*
G36*
X016954Y012319D02*
X016863D01*
X016865Y012304D01*
X016875Y012279D01*
X016892Y012257D01*
X016914Y012240D01*
X016940Y012229D01*
X016954Y012227D01*
Y012319D01*
D02*
G37*
G36*
X017221Y012438D02*
X017194Y012434D01*
X017168Y012423D01*
X017146Y012407D01*
X017129Y012385D01*
X017119Y012359D01*
X017115Y012332D01*
X017119Y012304D01*
X017129Y012279D01*
X017146Y012257D01*
X017168Y012240D01*
X017194Y012229D01*
X017221Y012226D01*
X017249Y012229D01*
X017274Y012240D01*
X017296Y012257D01*
X017313Y012279D01*
X017323Y012304D01*
X017327Y012332D01*
X017323Y012359D01*
X017313Y012385D01*
X017296Y012407D01*
X017274Y012423D01*
X017249Y012434D01*
X017221Y012438D01*
D02*
G37*
G36*
X017580Y012437D02*
X017370D01*
Y012227D01*
X017580D01*
Y012437D01*
D02*
G37*
G36*
X016980Y012436D02*
Y012344D01*
X017071D01*
X017069Y012359D01*
X017059Y012385D01*
X017042Y012407D01*
X017020Y012423D01*
X016995Y012434D01*
X016980Y012436D01*
D02*
G37*
G36*
X012157Y012449D02*
X012142Y012447D01*
X012116Y012436D01*
X012094Y012419D01*
X012078Y012397D01*
X012067Y012372D01*
X012065Y012357D01*
X012157D01*
Y012449D01*
D02*
G37*
G36*
X016954Y012436D02*
X016940Y012434D01*
X016914Y012423D01*
X016892Y012407D01*
X016875Y012385D01*
X016865Y012359D01*
X016863Y012344D01*
X016954D01*
Y012436D01*
D02*
G37*
G36*
X012157Y012332D02*
X012065D01*
X012067Y012317D01*
X012078Y012291D01*
X012094Y012270D01*
X012116Y012253D01*
X012142Y012242D01*
X012157Y012240D01*
Y012332D01*
D02*
G37*
G36*
X012274D02*
X012182D01*
Y012240D01*
X012197Y012242D01*
X012222Y012253D01*
X012244Y012270D01*
X012261Y012291D01*
X012272Y012317D01*
X012274Y012332D01*
D02*
G37*
%LPD*%
D10*
X018047Y013176D02*
G03*
X018041Y013163I000013J-000013D01*
G01*
Y013157D02*
Y013163D01*
Y013157D02*
Y013157D01*
Y013127D02*
Y013157D01*
X013767Y011989D02*
X013767Y011989D01*
D11*
X019204Y012990D02*
G03*
X019037Y013157I-000167J000000D01*
G01*
X016213Y013157D02*
G03*
X014834Y012586I000000J-001951D01*
G01*
X012558Y011318D02*
G03*
X014097Y010681I001539J001539D01*
G01*
X011915Y012344D02*
G03*
X012187Y011689I000926J000000D01*
G01*
X014097Y009949D02*
G03*
X015004Y009042I000907J000000D01*
G01*
X016169D02*
G03*
X016837Y009319I000000J000945D01*
G01*
X015491Y010205D02*
G03*
X014684Y009398I000000J-000807D01*
G01*
X018640Y011284D02*
G03*
X017920Y011582I-000720J-000720D01*
G01*
X018962Y011598D02*
G03*
X019204Y012183I-000585J000585D01*
G01*
X015807Y011582D02*
G03*
X015316Y011379I000000J-000694D01*
G01*
X014097Y010681D02*
G03*
X014986Y011049I000000J001257D01*
G01*
X018631Y009723D02*
G03*
X018148Y010205I-000483J000000D01*
G01*
X018013Y009035D02*
G03*
X018631Y009652I000000J000617D01*
G01*
X017696Y009035D02*
G03*
X017526Y008865I000000J-000170D01*
G01*
X012364Y013475D02*
G03*
X011988Y013319I000000J-000532D01*
G01*
X014834Y012586D02*
X014834Y012586D01*
X018041Y013157D02*
X019037D01*
X018041Y013157D02*
X018275D01*
X016213D02*
X018041D01*
X011915Y012344D02*
Y012645D01*
Y012344D02*
Y012344D01*
X012243Y011633D02*
X012558Y011318D01*
X012187Y011689D02*
X012243Y011633D01*
X016837Y009319D02*
X016891Y009373D01*
X015004Y009042D02*
X016169D01*
X014097Y009949D02*
Y010033D01*
X015491Y010205D02*
X015900D01*
X015807Y011582D02*
X017920D01*
X018644Y011280D02*
X018962Y011598D01*
X018640Y011284D02*
X018644Y011280D01*
X015316Y011379D02*
X015316Y011379D01*
X014986Y011049D02*
X015316Y011379D01*
X019204Y012183D02*
Y012990D01*
X018644Y011280D02*
X018644Y011280D01*
X017386Y010205D02*
X018148D01*
Y010375D01*
X017696Y009035D02*
X018013D01*
X018631Y009652D02*
Y009723D01*
X014097Y010516D02*
Y010681D01*
Y010681D01*
Y010033D02*
Y010516D01*
X011915Y012946D02*
Y013246D01*
Y012645D02*
Y012946D01*
Y013246D02*
X011988Y013319D01*
X012364Y013475D02*
X013119D01*
X015900Y010205D02*
Y010375D01*
X016624Y010205D02*
Y010375D01*
X015900Y010205D02*
X016624D01*
X017386D01*
Y010375D01*
D13*
X016142Y009665D02*
D03*
X016383D02*
D03*
X017653D02*
D03*
X017894D02*
D03*
X015900Y010375D02*
D03*
X016624D02*
D03*
X017386D02*
D03*
X018148D02*
D03*
X014110Y012967D02*
D03*
X013779D02*
D03*
X013449D02*
D03*
X013119D02*
D03*
D23*
X011735Y010706D02*
D03*
X014808Y011989D02*
D03*
X017475Y012332D02*
D03*
X012423Y013246D02*
D03*
Y012946D02*
D03*
Y012645D02*
D03*
Y012344D02*
D03*
X014808Y011379D02*
D03*
Y011684D02*
D03*
X017907Y009373D02*
D03*
D24*
X017920Y012090D02*
D03*
Y011836D02*
D03*
D25*
Y011582D02*
D03*
D26*
X016142Y010375D02*
D03*
X016383D02*
D03*
X017653D02*
D03*
X017894D02*
D03*
X015900Y009665D02*
D03*
X016624D02*
D03*
X017386D02*
D03*
X018148D02*
D03*
X012243Y010706D02*
D03*
X011989D02*
D03*
X015316Y011989D02*
D03*
X015062D02*
D03*
X017221Y012332D02*
D03*
X016967D02*
D03*
X016713D02*
D03*
X016459D02*
D03*
X016205D02*
D03*
X011915Y013246D02*
D03*
X012169D02*
D03*
X011915Y012946D02*
D03*
X012169D02*
D03*
X011915Y012645D02*
D03*
X012169D02*
D03*
X011915Y012344D02*
D03*
X012169D02*
D03*
X015316Y011379D02*
D03*
X015062D02*
D03*
X015316Y011684D02*
D03*
X015062D02*
D03*
X014110Y013475D02*
D03*
Y013221D02*
D03*
X013779Y013475D02*
D03*
Y013221D02*
D03*
X013449Y013475D02*
D03*
Y013221D02*
D03*
X013119Y013475D02*
D03*
Y013221D02*
D03*
X017018Y008865D02*
D03*
X016891Y009373D02*
D03*
X016764Y008865D02*
D03*
X016637Y009373D02*
D03*
X017780Y008865D02*
D03*
X017653Y009373D02*
D03*
X017526Y008865D02*
D03*
X017399Y009373D02*
D03*
X017272Y008865D02*
D03*
X017145Y009373D02*
D03*
X016510Y008865D02*
D03*
X016383Y009373D02*
D03*
X016256Y008865D02*
D03*
X016129Y009373D02*
D03*
D27*
X017894Y010655D02*
D03*
X017132D02*
D03*
X016116D02*
D03*
X016878D02*
D03*
D28*
X018644Y011280D02*
D03*
D29*
Y011630D02*
D03*
X015034Y009398D02*
D03*
X012126Y009411D02*
D03*
D30*
X014684Y009398D02*
D03*
X011776Y009411D02*
D03*
D31*
X013497Y010516D02*
D03*
X013697D02*
D03*
X013897D02*
D03*
X013497Y010033D02*
D03*
X013697D02*
D03*
X013897D02*
D03*
D32*
X014097Y010516D02*
D03*
Y010033D02*
D03*
D33*
X019139Y009652D02*
D03*
X014580Y012586D02*
D03*
X014618Y013246D02*
D03*
X012230Y010071D02*
D03*
X011735Y011633D02*
D03*
X015049Y010579D02*
D03*
D34*
X018631Y009652D02*
D03*
X014834Y012586D02*
D03*
X011722Y010071D02*
D03*
X012243Y011633D02*
D03*
D35*
X014618Y013500D02*
D03*
X015049Y010071D02*
D03*
D36*
X018885Y010452D02*
D03*
X012979Y009411D02*
D03*
D37*
X017818Y012967D02*
D03*
X018656Y010935D02*
D03*
X017501Y013449D02*
D03*
X013983Y010858D02*
D03*
X018041Y013127D02*
D03*
X013767Y011989D02*
D03*
D38*
X013767D02*
G03*
X014135Y011836I000368J000368D01*
G01*
X015316D01*
Y011989D01*
Y011684D02*
Y011836D01*
M02*
