%FSLAX42Y42*%
%MOMM*%
G71*
G01*
G75*
%ADD10R,1.55X0.90*%
%ADD11R,0.90X1.55*%
%ADD12R,1.50X1.50*%
%ADD13O,2.40X0.35*%
%ADD14R,1.70X1.00*%
%ADD15R,2.35X0.50*%
%ADD16R,2.50X2.35*%
%ADD17R,1.50X1.50*%
%ADD18R,2.10X1.40*%
%ADD19O,1.75X0.55*%
%ADD20O,0.55X1.75*%
%ADD21R,1.00X1.70*%
%ADD22C,0.30*%
%ADD23C,1.30*%
%ADD24C,1.50*%
%ADD25C,1.57*%
%ADD26R,1.57X1.57*%
%ADD27R,1.30X1.30*%
%ADD28C,1.30*%
%ADD29C,2.50*%
%ADD30R,2.50X2.50*%
%ADD31R,1.57X1.57*%
%ADD32C,6.90*%
%ADD33C,1.40*%
%ADD34R,2.50X1.80*%
%ADD35O,2.50X1.80*%
%ADD36C,1.27*%
%ADD37C,0.15*%
%ADD38C,0.25*%
%ADD39C,0.60*%
%ADD40C,0.25*%
%ADD41C,0.20*%
%ADD42C,0.30*%
%ADD43R,0.80X1.90*%
%ADD44R,1.75X1.10*%
%ADD45R,1.10X1.75*%
%ADD46R,1.70X1.70*%
%ADD47O,2.60X0.55*%
%ADD48R,1.90X1.20*%
%ADD49R,2.55X0.70*%
%ADD50R,2.70X2.55*%
%ADD51R,1.70X1.70*%
%ADD52R,2.30X1.60*%
%ADD53O,1.95X0.75*%
%ADD54O,0.75X1.95*%
%ADD55R,1.20X1.90*%
%ADD56C,1.70*%
%ADD57C,1.78*%
%ADD58R,1.78X1.78*%
%ADD59R,1.50X1.50*%
%ADD60C,1.50*%
%ADD61C,2.70*%
%ADD62R,2.70X2.70*%
%ADD63R,1.78X1.78*%
%ADD64C,7.10*%
%ADD65C,1.60*%
%ADD66R,2.70X2.00*%
%ADD67O,2.70X2.00*%
%ADD68C,1.47*%
%ADD69C,0.10*%
%ADD70R,9.50X8.00*%
%ADD71C,0.13*%
%ADD72C,0.17*%
D71*
X12226Y12840D02*
X12316D01*
X12271Y12795D02*
Y12885D01*
X11972Y12840D02*
X12062D01*
X12017Y12795D02*
Y12885D01*
X11718Y12840D02*
X11808D01*
X11763Y12795D02*
Y12885D01*
X17905Y11938D02*
X17985D01*
X17945Y11898D02*
Y11978D01*
X17905Y11684D02*
X17985D01*
X17945Y11644D02*
Y11724D01*
X13074Y12967D02*
X13164D01*
X13119Y12922D02*
Y13012D01*
X13074Y13221D02*
X13164D01*
X13119Y13176D02*
Y13266D01*
X13074Y13475D02*
X13164D01*
X13119Y13430D02*
Y13520D01*
X17232Y11938D02*
X17312D01*
X17272Y11898D02*
Y11978D01*
X17232Y11684D02*
X17312D01*
X17272Y11644D02*
Y11724D01*
X14763Y11379D02*
X14853D01*
X14808Y11334D02*
Y11424D01*
X15017Y11379D02*
X15107D01*
X15062Y11334D02*
Y11424D01*
X15271Y11379D02*
X15361D01*
X15316Y11334D02*
Y11424D01*
X16160Y12332D02*
X16250D01*
X16205Y12287D02*
Y12377D01*
X16414Y12332D02*
X16504D01*
X16459Y12287D02*
Y12377D01*
X16668Y12332D02*
X16758D01*
X16713Y12287D02*
Y12377D01*
X16922Y12332D02*
X17012D01*
X16967Y12287D02*
Y12377D01*
X17176Y12332D02*
X17266D01*
X17221Y12287D02*
Y12377D01*
X17430Y12332D02*
X17520D01*
X17475Y12287D02*
Y12377D01*
X12226Y12539D02*
X12316D01*
X12271Y12494D02*
Y12584D01*
X11972Y12539D02*
X12062D01*
X12017Y12494D02*
Y12584D01*
X11718Y12539D02*
X11808D01*
X11763Y12494D02*
Y12584D01*
X12226Y12239D02*
X12316D01*
X12271Y12194D02*
Y12284D01*
X11972Y12239D02*
X12062D01*
X12017Y12194D02*
Y12284D01*
X11718Y12239D02*
X11808D01*
X11763Y12194D02*
Y12284D01*
X14763Y11989D02*
X14853D01*
X14808Y11944D02*
Y12034D01*
X15017Y11989D02*
X15107D01*
X15062Y11944D02*
Y12034D01*
X15271Y11989D02*
X15361D01*
X15316Y11944D02*
Y12034D01*
X11715Y11290D02*
X11805D01*
X11760Y11245D02*
Y11335D01*
X11969Y11290D02*
X12059D01*
X12014Y11245D02*
Y11335D01*
X12223Y11290D02*
X12313D01*
X12268Y11245D02*
Y11335D01*
X12226Y11938D02*
X12316D01*
X12271Y11893D02*
Y11983D01*
X11972Y11938D02*
X12062D01*
X12017Y11893D02*
Y11983D01*
X11718Y11938D02*
X11808D01*
X11763Y11893D02*
Y11983D01*
X14024Y9830D02*
X14094D01*
X14059Y9795D02*
Y9865D01*
X13824Y9830D02*
X13894D01*
X13859Y9795D02*
Y9865D01*
X13624Y9830D02*
X13694D01*
X13659Y9795D02*
Y9865D01*
X13424Y9830D02*
X13494D01*
X13459Y9795D02*
Y9865D01*
X14024Y10427D02*
X14094D01*
X14059Y10392D02*
Y10462D01*
X13824Y10427D02*
X13894D01*
X13859Y10392D02*
Y10462D01*
X13624Y10427D02*
X13694D01*
X13659Y10392D02*
Y10462D01*
X13424Y10427D02*
X13494D01*
X13459Y10392D02*
Y10462D01*
X14763Y11684D02*
X14853D01*
X14808Y11639D02*
Y11729D01*
X15017Y11684D02*
X15107D01*
X15062Y11639D02*
Y11729D01*
X15271Y11684D02*
X15361D01*
X15316Y11639D02*
Y11729D01*
X13404Y12967D02*
X13494D01*
X13449Y12922D02*
Y13012D01*
X13404Y13221D02*
X13494D01*
X13449Y13176D02*
Y13266D01*
X13404Y13475D02*
X13494D01*
X13449Y13430D02*
Y13520D01*
X13735Y12967D02*
X13824D01*
X13779Y12922D02*
Y13012D01*
X13735Y13221D02*
X13824D01*
X13779Y13176D02*
Y13266D01*
X13735Y13475D02*
X13824D01*
X13779Y13430D02*
Y13520D01*
X14065Y12967D02*
X14155D01*
X14110Y12922D02*
Y13012D01*
X14065Y13221D02*
X14155D01*
X14110Y13176D02*
Y13266D01*
X14065Y13475D02*
X14155D01*
X14110Y13430D02*
Y13520D01*
X12224Y8283D02*
X12364D01*
X12294Y8213D02*
Y8353D01*
X12224Y8633D02*
X12364D01*
X12294Y8563D02*
Y8703D01*
X13293Y8636D02*
X13377D01*
X13335Y8593D02*
Y8679D01*
X13801Y8636D02*
X13885D01*
X13843Y8593D02*
Y8679D01*
X18574Y11224D02*
X18714D01*
X18644Y11154D02*
Y11294D01*
X18574Y10874D02*
X18714D01*
X18644Y10804D02*
Y10944D01*
X14768Y9550D02*
X14848D01*
X14808Y9510D02*
Y9590D01*
X14768Y9042D02*
X14848D01*
X14808Y9002D02*
Y9082D01*
X12224Y9325D02*
X12364D01*
X12294Y9255D02*
Y9395D01*
X12224Y9675D02*
X12364D01*
X12294Y9605D02*
Y9745D01*
X11707Y10566D02*
X11788D01*
X11747Y10526D02*
Y10606D01*
X12215Y10566D02*
X12296D01*
X12256Y10526D02*
Y10606D01*
X15742Y10452D02*
X15832D01*
X15787Y10407D02*
Y10497D01*
X16452Y10452D02*
X16542D01*
X16497Y10407D02*
Y10497D01*
X15742Y9690D02*
X15832D01*
X15787Y9645D02*
Y9735D01*
X16452Y9690D02*
X16542D01*
X16497Y9645D02*
Y9735D01*
X15742Y8928D02*
X15832D01*
X15787Y8883D02*
Y8973D01*
X16452Y8928D02*
X16542D01*
X16497Y8883D02*
Y8973D01*
X15742Y8204D02*
X15832D01*
X15787Y8159D02*
Y8249D01*
X16452Y8204D02*
X16542D01*
X16497Y8159D02*
Y8249D01*
X17181Y10630D02*
X17261D01*
X17221Y10590D02*
Y10670D01*
X17181Y11138D02*
X17261D01*
X17221Y11098D02*
Y11178D01*
X16745Y10211D02*
X16835D01*
X16790Y10166D02*
Y10256D01*
X16999Y10084D02*
X17089D01*
X17044Y10039D02*
Y10129D01*
X16745Y9957D02*
X16835D01*
X16790Y9912D02*
Y10002D01*
X16999Y9830D02*
X17089D01*
X17044Y9785D02*
Y9875D01*
X16745Y9703D02*
X16835D01*
X16790Y9658D02*
Y9748D01*
X16999Y9576D02*
X17089D01*
X17044Y9531D02*
Y9621D01*
X16745Y9449D02*
X16835D01*
X16790Y9404D02*
Y9494D01*
X16999Y9322D02*
X17089D01*
X17044Y9277D02*
Y9367D01*
X16745Y9195D02*
X16835D01*
X16790Y9150D02*
Y9240D01*
X16999Y9068D02*
X17089D01*
X17044Y9023D02*
Y9113D01*
X16745Y8941D02*
X16835D01*
X16790Y8896D02*
Y8986D01*
X16999Y8814D02*
X17089D01*
X17044Y8769D02*
Y8859D01*
X16745Y8687D02*
X16835D01*
X16790Y8642D02*
Y8732D01*
X16999Y8560D02*
X17089D01*
X17044Y8515D02*
Y8605D01*
X16745Y8433D02*
X16835D01*
X16790Y8388D02*
Y8478D01*
X18611Y9322D02*
X19031D01*
X18821Y9112D02*
Y9532D01*
X15464Y9182D02*
X15549D01*
X15507Y9140D02*
Y9225D01*
X15464Y8420D02*
X15549D01*
X15507Y8378D02*
Y8463D01*
X15464Y9436D02*
X15549D01*
X15507Y9394D02*
Y9479D01*
X15464Y10198D02*
X15549D01*
X15507Y10156D02*
Y10241D01*
X16452Y10198D02*
X16542D01*
X16497Y10153D02*
Y10243D01*
X15742Y10198D02*
X15832D01*
X15787Y10153D02*
Y10243D01*
X16452Y9957D02*
X16542D01*
X16497Y9912D02*
Y10002D01*
X15742Y9957D02*
X15832D01*
X15787Y9912D02*
Y10002D01*
X16452Y8687D02*
X16542D01*
X16497Y8642D02*
Y8732D01*
X15742Y8687D02*
X15832D01*
X15787Y8642D02*
Y8732D01*
X16452Y8446D02*
X16542D01*
X16497Y8400D02*
Y8490D01*
X15742Y8446D02*
X15832D01*
X15787Y8400D02*
Y8490D01*
X18060Y10693D02*
X18160D01*
X18110Y10643D02*
Y10743D01*
X18060Y10947D02*
X18160D01*
X18110Y10897D02*
Y10997D01*
X18060Y11201D02*
X18160D01*
X18110Y11151D02*
Y11251D01*
X12550Y11278D02*
X12621D01*
X12586Y11242D02*
Y11313D01*
X17998Y12878D02*
X18070D01*
X18034Y12842D02*
Y12913D01*
X15585Y12738D02*
X15657D01*
X15621Y12703D02*
Y12774D01*
M02*
