M48
;Layer_Color=9474304
;FILE_FORMAT=4:2
METRIC,LZ
;TYPE=PLATED
T1F00S00C0.70
T2F00S00C0.71
T3F00S00C0.80
T4F00S00C0.85
T5F00S00C0.90
T6F00S00C1.00
T7F00S00C1.40
T8F00S00C4.20
%
T01
X013497Y010033
X013697
X013897
X014097
Y010516
X013897
X013697
X013497
T02
X01176Y011608
X012586Y011278
X013691Y011671
X016116Y011798
X01778Y009944
X017818Y013043
X018034Y012878
X017513Y013462
X015951Y012332
X015596Y013068
X014808Y012535
X014415Y013221
X013386Y012014
T03
X011747Y010566
X012256
X012802Y009207
X01331
X018605Y009525
X019113
X019126Y010592
X018872
X017323Y011265
Y011519
T04
X015049Y010071
Y010579
X016116Y010655
X016878
X017132
X017894
T05
X01176Y01129
X012014
X012268
X014808Y011379
X015062
X015316
Y011684
X015062
X014808
X0159Y010375
X016142
X016383
X016624
Y009665
X016383
X016142
X0159
X016129Y009372
X016383
X016637
X016891
X017145
X017399
X017653
X017907Y009372
X017894Y009665
X017653
X017386
X017272Y009118
X017526Y009118
X01778
X017018
X016764
X01651
X016256
X017386Y010375
X017653
X017894
X018148
Y009665
X017475Y012332
X017221
X016967
X016713
X016459
X016205
X015316Y011989
X015062
X014808
X01411Y012967
Y013221
Y013475
X013779
Y013221
Y012967
X013449
Y013221
Y013475
X013119
Y013221
Y012967
X012423Y012946
X012169
X011915
Y012645
X012169
X012423
Y012344
X012169
X011915
Y013246
X012169
X012423
T06
X017958Y011392
Y011646
Y0119
T07
X012294Y009325
Y009675
X013935Y009398
X014285
X018644Y01128
Y01163
T08
X017018Y007341
M30
