%FSLAX42Y42*%
%MOMM*%
G71*
G01*
G75*
G04 Layer_Color=65535*
%ADD10C,0.30*%
%ADD11C,1.30*%
%ADD12R,1.00X1.70*%
%ADD13R,1.50X1.50*%
%ADD14R,2.35X0.50*%
%ADD15R,2.50X2.35*%
%ADD16R,1.70X1.00*%
%ADD17O,0.55X1.75*%
%ADD18O,1.75X0.55*%
%ADD19R,0.90X1.55*%
%ADD20R,2.10X1.40*%
%ADD21R,1.55X0.90*%
%ADD22O,2.40X0.35*%
%ADD23R,1.50X1.50*%
%ADD24O,2.50X1.80*%
%ADD25R,2.50X1.80*%
%ADD26C,1.50*%
%ADD27C,1.40*%
%ADD28R,2.50X2.50*%
%ADD29C,2.50*%
%ADD30R,2.50X2.50*%
%ADD31C,1.30*%
%ADD32R,1.30X1.30*%
%ADD33C,1.57*%
%ADD34R,1.57X1.57*%
%ADD35R,1.57X1.57*%
%ADD36C,6.50*%
%ADD37C,1.27*%
%ADD38C,0.80*%
%ADD39C,0.25*%
%ADD40C,0.25*%
%ADD41C,0.60*%
%ADD42C,0.15*%
%ADD43C,0.20*%
%ADD44C,0.30*%
%ADD45R,1.90X0.80*%
D39*
X18423Y10975D02*
G03*
X18423Y10975I-10J0D01*
G01*
X14389Y9629D02*
G03*
X14389Y9629I-10J0D01*
G01*
X19335Y9652D02*
G03*
X19335Y9652I-450J0D01*
G01*
X12426Y10071D02*
G03*
X12426Y10071I-450J0D01*
G01*
X11481Y9642D02*
G03*
X11481Y9642I-10J0D01*
G01*
X12439Y11633D02*
G03*
X12439Y11633I-450J0D01*
G01*
X15699Y10325D02*
G03*
X15699Y10325I-650J0D01*
G01*
X15901Y12032D02*
G03*
X15901Y12032I-5J0D01*
G01*
X17666Y11328D02*
X18174D01*
X17666Y12344D02*
X18174D01*
X17666Y11328D02*
Y12344D01*
X18174Y11328D02*
Y12344D01*
X17720Y11328D02*
Y12344D01*
X18491Y11862D02*
Y11913D01*
X19431D01*
Y10998D02*
Y11913D01*
X18491Y10998D02*
X19431D01*
X18491Y11430D02*
Y11557D01*
X15265Y9550D02*
X15316D01*
Y8611D02*
Y9550D01*
X14402Y8611D02*
X15316D01*
X14402D02*
Y9550D01*
X14834D02*
X14961D01*
X13997Y10346D02*
X14297D01*
Y10796D01*
X13297Y10346D02*
Y10796D01*
Y10346D02*
X13597D01*
X13297Y10796D02*
X14297D01*
X13997Y9863D02*
X14297D01*
Y10313D01*
X13297Y9863D02*
Y10313D01*
Y9863D02*
X13597D01*
X13297Y10313D02*
X14297D01*
X12357Y9563D02*
X12408D01*
Y8623D02*
Y9563D01*
X11493Y8623D02*
X12408D01*
X11493D02*
Y9563D01*
X11925D02*
X12052D01*
X15846Y11476D02*
Y12076D01*
Y11476D02*
X16446D01*
Y12076D01*
X15846D02*
X16446D01*
X11623Y10945D02*
Y11046D01*
X11674Y11097D01*
X11725Y11046D01*
Y10945D01*
Y11021D01*
X11623D01*
X11775Y11097D02*
X11877Y10945D01*
Y11097D02*
X11775Y10945D01*
X11928D02*
X11979D01*
X11953D01*
Y11097D01*
X11928Y11072D01*
X12156Y10945D02*
X12055D01*
X12156Y11046D01*
Y11072D01*
X12131Y11097D01*
X12080D01*
X12055Y11072D01*
X12207Y10919D02*
X12309D01*
X12359Y11097D02*
Y10945D01*
X12436D01*
X12461Y10970D01*
Y10996D01*
X12436Y11021D01*
X12359D01*
X12436D01*
X12461Y11046D01*
Y11072D01*
X12436Y11097D01*
X12359D01*
X15037Y9563D02*
X15011Y9588D01*
X14961D01*
X14935Y9563D01*
Y9461D01*
X14961Y9436D01*
X15011D01*
X15037Y9461D01*
X15088Y9436D02*
X15138D01*
X15113D01*
Y9588D01*
X15088Y9563D01*
X11963Y12319D02*
X11938Y12344D01*
X11887D01*
X11862Y12319D01*
Y12217D01*
X11887Y12192D01*
X11938D01*
X11963Y12217D01*
X12116Y12192D02*
X12014D01*
X12116Y12294D01*
Y12319D01*
X12090Y12344D01*
X12040D01*
X12014Y12319D01*
X12649Y10122D02*
X12624Y10147D01*
X12573D01*
X12548Y10122D01*
Y10020D01*
X12573Y9995D01*
X12624D01*
X12649Y10020D01*
X12700Y10122D02*
X12725Y10147D01*
X12776D01*
X12802Y10122D01*
Y10096D01*
X12776Y10071D01*
X12751D01*
X12776D01*
X12802Y10046D01*
Y10020D01*
X12776Y9995D01*
X12725D01*
X12700Y10020D01*
X17554Y13205D02*
X17529Y13231D01*
X17478D01*
X17452Y13205D01*
Y13104D01*
X17478Y13078D01*
X17529D01*
X17554Y13104D01*
X17681Y13078D02*
Y13231D01*
X17605Y13155D01*
X17706D01*
X18872Y9080D02*
X18847Y9106D01*
X18796D01*
X18771Y9080D01*
Y8979D01*
X18796Y8954D01*
X18847D01*
X18872Y8979D01*
X19025Y9106D02*
X18923D01*
Y9030D01*
X18974Y9055D01*
X18999D01*
X19025Y9030D01*
Y8979D01*
X18999Y8954D01*
X18948D01*
X18923Y8979D01*
X12725Y11303D02*
X12700Y11278D01*
Y11227D01*
X12725Y11201D01*
X12827D01*
X12852Y11227D01*
Y11278D01*
X12827Y11303D01*
X12700Y11455D02*
X12852D01*
Y11379D01*
X12827Y11354D01*
X12776D01*
X12751Y11379D01*
Y11455D01*
X12852Y11582D02*
Y11531D01*
X12827Y11506D01*
X12776D01*
X12751Y11531D01*
Y11582D01*
X12776Y11608D01*
X12802D01*
Y11506D01*
X12751Y11760D02*
Y11684D01*
X12776Y11658D01*
X12827D01*
X12852Y11684D01*
Y11760D01*
Y11836D02*
Y11887D01*
X12827Y11912D01*
X12776D01*
X12751Y11887D01*
Y11836D01*
X12776Y11811D01*
X12827D01*
X12852Y11836D01*
X12751Y11963D02*
X12827D01*
X12852Y11989D01*
Y12065D01*
X12751D01*
X12903Y12116D02*
X12751D01*
Y12192D01*
X12776Y12217D01*
X12827D01*
X12852Y12192D01*
Y12116D01*
Y12344D02*
X12700D01*
X12776Y12268D01*
Y12369D01*
X13830Y12675D02*
X13805Y12700D01*
X13754D01*
X13729Y12675D01*
Y12573D01*
X13754Y12548D01*
X13805D01*
X13830Y12573D01*
X13983Y12700D02*
Y12548D01*
X13906D01*
X13881Y12573D01*
Y12624D01*
X13906Y12649D01*
X13983D01*
X14110Y12548D02*
X14059D01*
X14033Y12573D01*
Y12624D01*
X14059Y12649D01*
X14110D01*
X14135Y12624D01*
Y12598D01*
X14033D01*
X16104Y13322D02*
X16256D01*
Y13398D01*
X16231Y13424D01*
X16129D01*
X16104Y13398D01*
Y13322D01*
X16129Y13475D02*
X16104Y13500D01*
Y13551D01*
X16129Y13576D01*
X16154D01*
X16180Y13551D01*
Y13525D01*
Y13551D01*
X16205Y13576D01*
X16231D01*
X16256Y13551D01*
Y13500D01*
X16231Y13475D01*
X16102Y13017D02*
X16254D01*
Y13093D01*
X16229Y13118D01*
X16127D01*
X16102Y13093D01*
Y13017D01*
X16254Y13245D02*
X16102D01*
X16178Y13169D01*
Y13271D01*
X18796Y13513D02*
Y13360D01*
X18872D01*
X18898Y13386D01*
Y13487D01*
X18872Y13513D01*
X18796D01*
X18948Y13360D02*
X18999D01*
X18974D01*
Y13513D01*
X18948Y13487D01*
X19075Y13360D02*
X19126D01*
X19101D01*
Y13513D01*
X19075Y13487D01*
X13411Y11036D02*
X13310D01*
Y10884D01*
X13411D01*
X13310Y10960D02*
X13360D01*
X13462Y10884D02*
Y10985D01*
X13538D01*
X13564Y10960D01*
Y10884D01*
X13716Y10985D02*
X13640D01*
X13614Y10960D01*
Y10909D01*
X13640Y10884D01*
X13716D01*
X13792D02*
X13843D01*
X13868Y10909D01*
Y10960D01*
X13843Y10985D01*
X13792D01*
X13767Y10960D01*
Y10909D01*
X13792Y10884D01*
X14021Y11036D02*
Y10884D01*
X13944D01*
X13919Y10909D01*
Y10960D01*
X13944Y10985D01*
X14021D01*
X14148Y10884D02*
X14097D01*
X14071Y10909D01*
Y10960D01*
X14097Y10985D01*
X14148D01*
X14173Y10960D01*
Y10935D01*
X14071D01*
X14224Y10985D02*
Y10909D01*
X14249Y10884D01*
X14325D01*
Y10985D01*
X14376D02*
Y10884D01*
Y10935D01*
X14401Y10960D01*
X14427Y10985D01*
X14452D01*
X14630Y10884D02*
X14528D01*
X14630Y10985D01*
Y11011D01*
X14605Y11036D01*
X14554D01*
X14528Y11011D01*
X14696Y12355D02*
Y12202D01*
X14798D01*
X14874Y12304D02*
X14925D01*
X14950Y12278D01*
Y12202D01*
X14874D01*
X14849Y12228D01*
X14874Y12253D01*
X14950D01*
X15001Y12202D02*
X15052D01*
X15027D01*
Y12304D01*
X15001D01*
X15128Y12202D02*
X15204D01*
X15230Y12228D01*
X15204Y12253D01*
X15153D01*
X15128Y12278D01*
X15153Y12304D01*
X15230D01*
X15280Y12202D02*
X15357D01*
X15382Y12228D01*
X15357Y12253D01*
X15306D01*
X15280Y12278D01*
X15306Y12304D01*
X15382D01*
X15509Y12202D02*
X15458D01*
X15433Y12228D01*
Y12278D01*
X15458Y12304D01*
X15509D01*
X15534Y12278D01*
Y12253D01*
X15433D01*
X15687Y12329D02*
X15661Y12355D01*
X15611D01*
X15585Y12329D01*
Y12228D01*
X15611Y12202D01*
X15661D01*
X15687Y12228D01*
X15763Y12202D02*
X15814D01*
X15839Y12228D01*
Y12278D01*
X15814Y12304D01*
X15763D01*
X15738Y12278D01*
Y12228D01*
X15763Y12202D01*
X15890D02*
Y12304D01*
X15966D01*
X15991Y12278D01*
Y12202D01*
X11557Y13183D02*
Y13335D01*
X11633D01*
X11659Y13310D01*
Y13259D01*
X11633Y13233D01*
X11557D01*
X11709Y13183D02*
X11760D01*
X11735D01*
Y13335D01*
X11709Y13310D01*
X14351Y11265D02*
Y11417D01*
X14427D01*
X14453Y11392D01*
Y11341D01*
X14427Y11316D01*
X14351D01*
X14580Y11265D02*
Y11417D01*
X14503Y11341D01*
X14605D01*
X11506Y12852D02*
Y13005D01*
X11582D01*
X11608Y12979D01*
Y12929D01*
X11582Y12903D01*
X11506D01*
X11760Y13005D02*
X11659D01*
Y12929D01*
X11709Y12954D01*
X11735D01*
X11760Y12929D01*
Y12878D01*
X11735Y12852D01*
X11684D01*
X11659Y12878D01*
X11506Y12573D02*
Y12725D01*
X11582D01*
X11608Y12700D01*
Y12649D01*
X11582Y12624D01*
X11506D01*
X11760Y12725D02*
X11709Y12700D01*
X11659Y12649D01*
Y12598D01*
X11684Y12573D01*
X11735D01*
X11760Y12598D01*
Y12624D01*
X11735Y12649D01*
X11659D01*
X11506Y12294D02*
Y12446D01*
X11582D01*
X11608Y12421D01*
Y12370D01*
X11582Y12344D01*
X11506D01*
X11659Y12446D02*
X11760D01*
Y12421D01*
X11659Y12319D01*
Y12294D01*
X14668Y12713D02*
Y12865D01*
X14745D01*
X14770Y12840D01*
Y12789D01*
X14745Y12763D01*
X14668D01*
X14821Y12840D02*
X14846Y12865D01*
X14897D01*
X14922Y12840D01*
Y12814D01*
X14897Y12789D01*
X14922Y12763D01*
Y12738D01*
X14897Y12713D01*
X14846D01*
X14821Y12738D01*
Y12763D01*
X14846Y12789D01*
X14821Y12814D01*
Y12840D01*
X14846Y12789D02*
X14897D01*
X14681Y12941D02*
Y13094D01*
X14757D01*
X14783Y13068D01*
Y13017D01*
X14757Y12992D01*
X14681D01*
X14834Y12967D02*
X14859Y12941D01*
X14910D01*
X14935Y12967D01*
Y13068D01*
X14910Y13094D01*
X14859D01*
X14834Y13068D01*
Y13043D01*
X14859Y13017D01*
X14935D01*
X14618Y13195D02*
Y13348D01*
X14694D01*
X14719Y13322D01*
Y13271D01*
X14694Y13246D01*
X14618D01*
X14770Y13195D02*
X14821D01*
X14795D01*
Y13348D01*
X14770Y13322D01*
X14897D02*
X14922Y13348D01*
X14973D01*
X14999Y13322D01*
Y13221D01*
X14973Y13195D01*
X14922D01*
X14897Y13221D01*
Y13322D01*
X12649Y8788D02*
X12497D01*
Y8865D01*
X12522Y8890D01*
X12573D01*
X12598Y8865D01*
Y8788D01*
X12649Y8941D02*
Y8992D01*
Y8966D01*
X12497D01*
X12522Y8941D01*
Y9068D02*
X12497Y9093D01*
Y9144D01*
X12522Y9169D01*
X12624D01*
X12649Y9144D01*
Y9093D01*
X12624Y9068D01*
X12522D01*
X12497Y9220D02*
X12598D01*
X12649Y9271D01*
X12598Y9322D01*
X12497D01*
X15469Y11697D02*
Y11849D01*
X15545D01*
X15570Y11824D01*
Y11773D01*
X15545Y11747D01*
X15469D01*
X15621Y11697D02*
X15672D01*
X15646D01*
Y11849D01*
X15621Y11824D01*
X15748Y11697D02*
X15799D01*
X15773D01*
Y11849D01*
X15748Y11824D01*
X14381Y9728D02*
Y9881D01*
X14458D01*
X14483Y9855D01*
Y9804D01*
X14458Y9779D01*
X14381D01*
X14534Y9728D02*
Y9830D01*
X14559D01*
X14585Y9804D01*
Y9728D01*
Y9804D01*
X14610Y9830D01*
X14635Y9804D01*
Y9728D01*
X14712D02*
X14762D01*
X14788Y9754D01*
Y9804D01*
X14762Y9830D01*
X14712D01*
X14686Y9804D01*
Y9754D01*
X14712Y9728D01*
X14864Y9855D02*
Y9830D01*
X14839D01*
X14889D01*
X14864D01*
Y9754D01*
X14889Y9728D01*
X17076Y10818D02*
Y10970D01*
X17153D01*
X17178Y10945D01*
Y10894D01*
X17153Y10869D01*
X17076D01*
X17127D02*
X17178Y10818D01*
X17229D02*
X17280D01*
X17254D01*
Y10970D01*
X17229Y10945D01*
X17399Y13335D02*
X17247D01*
Y13411D01*
X17272Y13437D01*
X17323D01*
X17348Y13411D01*
Y13335D01*
Y13386D02*
X17399Y13437D01*
Y13589D02*
Y13487D01*
X17297Y13589D01*
X17272D01*
X17247Y13564D01*
Y13513D01*
X17272Y13487D01*
X16060Y10818D02*
Y10970D01*
X16137D01*
X16162Y10945D01*
Y10894D01*
X16137Y10869D01*
X16060D01*
X16111D02*
X16162Y10818D01*
X16289D02*
Y10970D01*
X16213Y10894D01*
X16314D01*
X17602Y13360D02*
Y13513D01*
X17678D01*
X17704Y13487D01*
Y13437D01*
X17678Y13411D01*
X17602D01*
X17653D02*
X17704Y13360D01*
X17856Y13513D02*
X17755D01*
Y13437D01*
X17805Y13462D01*
X17831D01*
X17856Y13437D01*
Y13386D01*
X17831Y13360D01*
X17780D01*
X17755Y13386D01*
X16827Y11900D02*
Y11798D01*
Y11849D01*
X16853Y11874D01*
X16878Y11900D01*
X16904D01*
X17056Y11798D02*
X17005D01*
X16980Y11824D01*
Y11874D01*
X17005Y11900D01*
X17056D01*
X17081Y11874D01*
Y11849D01*
X16980D01*
X17132Y11798D02*
X17208D01*
X17234Y11824D01*
X17208Y11849D01*
X17158D01*
X17132Y11874D01*
X17158Y11900D01*
X17234D01*
X17361Y11798D02*
X17310D01*
X17285Y11824D01*
Y11874D01*
X17310Y11900D01*
X17361D01*
X17386Y11874D01*
Y11849D01*
X17285D01*
X17462Y11925D02*
Y11900D01*
X17437D01*
X17488D01*
X17462D01*
Y11824D01*
X17488Y11798D01*
X17628Y12192D02*
Y12344D01*
X17704D01*
X17729Y12319D01*
Y12268D01*
X17704Y12243D01*
X17628D01*
X17678D02*
X17729Y12192D01*
X17780Y12141D02*
Y12294D01*
X17856D01*
X17882Y12268D01*
Y12217D01*
X17856Y12192D01*
X17780D01*
X17932D02*
X17983D01*
X17958D01*
Y12344D01*
X17932Y12319D01*
X17411Y13021D02*
X17259D01*
Y13097D01*
X17284Y13123D01*
X17335D01*
X17360Y13097D01*
Y13021D01*
Y13072D02*
X17411Y13123D01*
X17284Y13174D02*
X17259Y13199D01*
Y13250D01*
X17284Y13275D01*
X17309D01*
X17335Y13250D01*
Y13224D01*
Y13250D01*
X17360Y13275D01*
X17386D01*
X17411Y13250D01*
Y13199D01*
X17386Y13174D01*
X12959Y12720D02*
Y12593D01*
X12984Y12568D01*
X13035D01*
X13061Y12593D01*
Y12720D01*
X13111Y12695D02*
X13137Y12720D01*
X13188D01*
X13213Y12695D01*
Y12669D01*
X13188Y12644D01*
X13162D01*
X13188D01*
X13213Y12619D01*
Y12593D01*
X13188Y12568D01*
X13137D01*
X13111Y12593D01*
X16002Y11341D02*
X16104D01*
Y11316D01*
X16002Y11214D01*
Y11189D01*
X16154D02*
Y11341D01*
X16231D01*
X16256Y11316D01*
Y11265D01*
X16231Y11239D01*
X16154D01*
X16205D02*
X16256Y11189D01*
X16332D02*
X16383D01*
X16408Y11214D01*
Y11265D01*
X16383Y11290D01*
X16332D01*
X16307Y11265D01*
Y11214D01*
X16332Y11189D01*
X16459Y11341D02*
Y11189D01*
X16535D01*
X16561Y11214D01*
Y11239D01*
Y11265D01*
X16535Y11290D01*
X16459D01*
X16611Y11189D02*
X16662D01*
X16637D01*
Y11290D01*
X16611D01*
X16738Y11189D02*
Y11290D01*
X16815D01*
X16840Y11265D01*
Y11189D01*
X16992Y11290D02*
X16916D01*
X16891Y11265D01*
Y11214D01*
X16916Y11189D01*
X16992D01*
X17043Y11341D02*
Y11189D01*
Y11265D01*
X17068Y11290D01*
X17119D01*
X17145Y11265D01*
Y11189D01*
X12851Y8941D02*
X12852Y8788D01*
X12852Y8839D01*
X12953Y8942D01*
X12877Y8865D01*
X12954Y8789D01*
X13105Y8943D02*
X13003Y8942D01*
X13005Y8790D01*
X13106Y8791D01*
X13004Y8866D02*
X13055Y8867D01*
X13157Y8791D02*
X13156Y8944D01*
X13259Y8792D01*
X13257Y8945D01*
X13461Y8870D02*
X13563Y8871D01*
X13766Y8797D02*
X13765Y8949D01*
X13868Y8798D01*
X13867Y8950D01*
X13917Y8951D02*
X13968Y8951D01*
X13943Y8951D01*
X13944Y8799D01*
X13919Y8799D01*
X13970Y8799D01*
X14046Y8800D02*
X14044Y8952D01*
X14096Y8902D01*
X14146Y8953D01*
X14147Y8801D01*
X13678Y9271D02*
X13576D01*
X13678Y9373D01*
Y9398D01*
X13652Y9423D01*
X13602D01*
X13576Y9398D01*
X13729D02*
X13754Y9423D01*
X13805D01*
X13830Y9398D01*
Y9296D01*
X13805Y9271D01*
X13754D01*
X13729Y9296D01*
Y9398D01*
X13881Y9271D02*
X13932D01*
X13906D01*
Y9423D01*
X13881Y9398D01*
X14008D02*
X14033Y9423D01*
X14084D01*
X14110Y9398D01*
Y9373D01*
X14084Y9347D01*
X14059D01*
X14084D01*
X14110Y9322D01*
Y9296D01*
X14084Y9271D01*
X14033D01*
X14008Y9296D01*
D40*
X18054Y12826D02*
G03*
X18054Y12826I-12J0D01*
G01*
X13144Y11246D02*
G03*
X13144Y11246I-12J0D01*
G01*
X15258Y13525D02*
G03*
X15258Y13525I-12J0D01*
G01*
D41*
X13309Y11476D02*
G03*
X13309Y11476I-30J0D01*
G01*
X15536Y13455D02*
G03*
X15536Y13455I-30J0D01*
G01*
D42*
X15007Y12586D02*
G03*
X15007Y12586I-300J0D01*
G01*
X14918Y13373D02*
G03*
X14918Y13373I-300J0D01*
G01*
X14834Y12713D02*
Y12814D01*
X14783Y12764D02*
X14884D01*
X14389Y13500D02*
X14491D01*
X14440Y13449D02*
Y13551D01*
X11960Y11049D02*
X11968D01*
X11960Y10897D02*
X11968D01*
X12751Y12824D02*
Y12832D01*
X12903Y12824D02*
Y12832D01*
X17091Y13043D02*
X17099D01*
X17091Y12890D02*
X17099D01*
X17091Y13310D02*
X17099D01*
X17091Y13157D02*
X17099D01*
X17894Y13339D02*
Y13347D01*
X18047Y13339D02*
Y13347D01*
X17293Y12014D02*
X17301D01*
X17293Y12167D02*
X17301D01*
X17930Y9635D02*
X17880D01*
X17905D01*
Y9485D01*
X17930Y9510D01*
X16224Y9635D02*
X16174D01*
X16199D01*
Y9485D01*
X16224Y9510D01*
X15999Y9485D02*
X16099D01*
Y9560D01*
X16049Y9535D01*
X16024D01*
X15999Y9560D01*
Y9610D01*
X16024Y9635D01*
X16074D01*
X16099Y9610D01*
D43*
X16047Y9825D02*
Y10215D01*
X16237Y9825D02*
Y10215D01*
X16047D02*
X16237D01*
X16288Y9825D02*
Y10215D01*
X16478Y9825D02*
Y10215D01*
X16288D02*
X16478D01*
X17558Y9825D02*
Y10215D01*
X17748Y9825D02*
Y10215D01*
X17558D02*
X17748D01*
X17799Y9825D02*
Y10215D01*
X17989Y9825D02*
Y10215D01*
X17799D02*
X17989D01*
X17236Y10655D02*
X17259D01*
X17767D02*
X17790D01*
X17259D02*
Y10732D01*
X17767D01*
Y10579D02*
Y10732D01*
X17259Y10579D02*
X17767D01*
X17259D02*
Y10655D01*
X16751D02*
X16774D01*
X16220D02*
X16243D01*
X16751Y10579D02*
Y10655D01*
X16243Y10579D02*
X16751D01*
X16243D02*
Y10732D01*
X16751D01*
Y10655D02*
Y10732D01*
X15995Y9825D02*
Y10215D01*
X15805Y9825D02*
Y10215D01*
Y9825D02*
X15995D01*
X16719D02*
Y10215D01*
X16529Y9825D02*
Y10215D01*
Y9825D02*
X16719D01*
X17481D02*
Y10215D01*
X17291Y9825D02*
Y10215D01*
Y9825D02*
X17481D01*
X18243D02*
Y10215D01*
X18053Y9825D02*
Y10215D01*
Y9825D02*
X18243D01*
X13720Y10833D02*
X13725D01*
X13720Y11011D02*
X13725D01*
X12942Y12994D02*
Y13184D01*
X12712Y12994D02*
Y13184D01*
Y12994D02*
X12942D01*
X12752Y13604D02*
X12902D01*
X12942Y13384D02*
Y13554D01*
X12712D02*
X12752Y13604D01*
X12902D02*
X12942Y13554D01*
X12712Y13384D02*
Y13554D01*
X11608Y10579D02*
Y10833D01*
X12370D01*
Y10579D02*
Y10833D01*
X11608Y10579D02*
X12370D01*
X14681Y11862D02*
Y12116D01*
X15443D01*
Y11862D02*
Y12116D01*
X14681Y11862D02*
X15443D01*
X17602Y12459D02*
Y12586D01*
X16078D02*
X17602D01*
X16078Y12459D02*
Y12586D01*
X17518D02*
Y12924D01*
X17475Y12967D02*
X17518Y12924D01*
X17433D02*
X17475Y12967D01*
X17433Y12586D02*
Y12924D01*
X17264Y12586D02*
Y12924D01*
X17221Y12967D02*
X17264Y12924D01*
X17179D02*
X17221Y12967D01*
X17179Y12586D02*
Y12924D01*
X17010Y12586D02*
Y12924D01*
X16967Y12967D02*
X17010Y12924D01*
X16925D02*
X16967Y12967D01*
X16925Y12586D02*
Y12924D01*
X16756Y12586D02*
Y12924D01*
X16713Y12967D02*
X16756Y12924D01*
X16671D02*
X16713Y12967D01*
X16671Y12586D02*
Y12924D01*
X16502Y12586D02*
Y12924D01*
X16459Y12967D02*
X16502Y12924D01*
X16417D02*
X16459Y12967D01*
X16417Y12586D02*
Y12924D01*
X16248Y12586D02*
Y12924D01*
X16205Y12967D02*
X16248Y12924D01*
X16163D02*
X16205Y12967D01*
X16163Y12586D02*
Y12924D01*
X17560Y12459D02*
X17602Y12501D01*
X16078Y12459D02*
X17602D01*
X17437Y12856D02*
Y12861D01*
X17615Y12856D02*
Y12861D01*
X13179Y11376D02*
X14049D01*
X13179Y12246D02*
X14049D01*
X13179Y11376D02*
Y12246D01*
X14049Y11376D02*
Y12246D01*
X12497Y11739D02*
Y11744D01*
X12675Y11739D02*
Y11744D01*
X12550Y13119D02*
Y13373D01*
X11788Y13119D02*
X12550D01*
X11788D02*
Y13373D01*
X12550D01*
Y12819D02*
Y13073D01*
X11788Y12819D02*
X12550D01*
X11788D02*
Y13073D01*
X12550D01*
Y12518D02*
Y12772D01*
X11788Y12518D02*
X12550D01*
X11788D02*
Y12772D01*
X12550D01*
Y12217D02*
Y12471D01*
X11788Y12217D02*
X12550D01*
X11788D02*
Y12471D01*
X12550D01*
X14541Y11637D02*
Y11642D01*
X14364Y11637D02*
Y11642D01*
X14681Y11252D02*
Y11506D01*
X15443D01*
Y11252D02*
Y11506D01*
X14681Y11252D02*
X15443D01*
X14681Y11557D02*
Y11811D01*
X15443D01*
Y11557D02*
Y11811D01*
X14681Y11557D02*
X15443D01*
X13491Y12535D02*
X13496D01*
X13491Y12713D02*
X13496D01*
X13983Y12840D02*
X14237D01*
X13983D02*
Y13602D01*
X14237D01*
Y12840D02*
Y13602D01*
X13652Y12840D02*
X13907D01*
X13652D02*
Y13602D01*
X13907D01*
Y12840D02*
Y13602D01*
X13322Y12840D02*
X13576D01*
X13322D02*
Y13602D01*
X13576D01*
Y12840D02*
Y13602D01*
X12992Y12840D02*
X13246D01*
X12992D02*
Y13602D01*
X13246D01*
Y12840D02*
Y13602D01*
X15406Y12505D02*
X15786D01*
X15406Y13555D02*
X15786D01*
Y12505D02*
Y13555D01*
X15406Y12505D02*
Y13555D01*
X16724Y13082D02*
X16914D01*
X16724Y12852D02*
X16914D01*
Y13082D01*
X16304Y12892D02*
Y13042D01*
X16354Y13082D02*
X16524D01*
X16304Y12892D02*
X16354Y12852D01*
X16304Y13042D02*
X16354Y13082D01*
X16354Y12852D02*
X16524D01*
X16724Y13348D02*
X16914D01*
X16724Y13118D02*
X16914D01*
Y13348D01*
X16304Y13158D02*
Y13308D01*
X16354Y13348D02*
X16524D01*
X16304Y13158D02*
X16354Y13118D01*
X16304Y13308D02*
X16354Y13348D01*
X16354Y13118D02*
X16524D01*
X18112Y13309D02*
X18302D01*
X18112Y13539D02*
X18302D01*
X18112Y13309D02*
Y13539D01*
X18722Y13349D02*
Y13499D01*
X18502Y13309D02*
X18672D01*
Y13539D02*
X18722Y13499D01*
X18672Y13309D02*
X18722Y13349D01*
X18502Y13539D02*
X18672D01*
X16018Y8460D02*
X18018D01*
Y8410D02*
Y8910D01*
X17932D02*
X18018D01*
X16018Y8410D02*
X18018D01*
X16018D02*
Y8910D01*
X16104D01*
D44*
X18628Y9307D02*
Y9525D01*
X18519Y9416D02*
X18740D01*
X11720Y9726D02*
Y9944D01*
X11610Y9835D02*
X11831D01*
X12245Y11760D02*
Y11979D01*
X12134Y11869D02*
X12355D01*
X15176Y10069D02*
X15430D01*
X15304Y9942D02*
Y10196D01*
D45*
X16142Y9855D02*
D03*
X16383D02*
D03*
X17653D02*
D03*
X17894D02*
D03*
X15900Y10185D02*
D03*
X16624D02*
D03*
X17386D02*
D03*
X18148D02*
D03*
M02*
