%FSLAX42Y42*%
%MOMM*%
G71*
G01*
G75*
G04 Layer_Color=65535*
%ADD10R,1.55X0.90*%
%ADD11R,0.90X1.55*%
%ADD12R,1.50X1.50*%
%ADD13O,2.40X0.35*%
%ADD14R,1.70X1.00*%
%ADD15R,2.35X0.50*%
%ADD16R,2.50X2.35*%
%ADD17R,1.50X1.50*%
%ADD18R,2.10X1.40*%
%ADD19O,1.75X0.55*%
%ADD20O,0.55X1.75*%
%ADD21R,1.00X1.70*%
%ADD22C,0.30*%
%ADD23C,1.30*%
%ADD24C,1.50*%
%ADD25C,1.57*%
%ADD26R,1.57X1.57*%
%ADD27R,1.30X1.30*%
%ADD28C,1.30*%
%ADD29C,2.50*%
%ADD30R,2.50X2.50*%
%ADD31R,1.57X1.57*%
%ADD32C,6.90*%
%ADD33C,1.40*%
%ADD34R,2.50X1.80*%
%ADD35O,2.50X1.80*%
%ADD36C,1.27*%
%ADD37C,0.15*%
%ADD38C,0.25*%
%ADD39C,0.60*%
%ADD40C,0.25*%
%ADD41C,0.20*%
%ADD42C,0.30*%
%ADD43R,0.80X1.90*%
D37*
X18245Y11811D02*
G03*
X18245Y11811I-300J0D01*
G01*
X17572D02*
G03*
X17572Y11811I-300J0D01*
G01*
X12662Y11427D02*
Y11435D01*
X12510Y11427D02*
Y11435D01*
X18488Y11621D02*
X18496D01*
X18488Y11773D02*
X18496D01*
X17091Y12890D02*
X17099D01*
X17091Y13043D02*
X17099D01*
X12903Y12824D02*
Y12832D01*
X12751Y12824D02*
Y12832D01*
X18123Y11633D02*
Y11735D01*
X18072Y11684D02*
X18174D01*
X17091Y13157D02*
X17099D01*
X17091Y13310D02*
X17099D01*
X17450Y11633D02*
Y11735D01*
X17399Y11684D02*
X17501D01*
X15570Y11286D02*
Y11293D01*
X15723Y11286D02*
Y11293D01*
X17368Y10034D02*
Y10134D01*
X17468Y10034D01*
X17493D01*
X17518Y10059D01*
Y10109D01*
X17493Y10134D01*
X17368Y8672D02*
Y8622D01*
Y8647D01*
X17518D01*
X17493Y8672D01*
X17368Y8472D02*
X17518D01*
X17443Y8547D01*
Y8447D01*
X16715Y8320D02*
Y8270D01*
Y8295D01*
X16865D01*
X16840Y8320D01*
X16865Y8095D02*
Y8195D01*
X16790D01*
X16815Y8145D01*
Y8120D01*
X16790Y8095D01*
X16740D01*
X16715Y8120D01*
Y8170D01*
X16740Y8195D01*
X16715Y10373D02*
Y10323D01*
Y10348D01*
X16865D01*
X16840Y10373D01*
D38*
X15258Y13525D02*
G03*
X15258Y13525I-12J0D01*
G01*
X18054Y12826D02*
G03*
X18054Y12826I-12J0D01*
G01*
X13144Y11246D02*
G03*
X13144Y11246I-12J0D01*
G01*
D39*
X15536Y13455D02*
G03*
X15536Y13455I-30J0D01*
G01*
X13309Y11476D02*
G03*
X13309Y11476I-30J0D01*
G01*
D40*
X15901Y12032D02*
G03*
X15901Y12032I-5J0D01*
G01*
X12534Y8938D02*
G03*
X12534Y8938I-10J0D01*
G01*
X14239Y8636D02*
G03*
X14239Y8636I-650J0D01*
G01*
X18423Y10569D02*
G03*
X18423Y10569I-10J0D01*
G01*
X15258Y9296D02*
G03*
X15258Y9296I-450J0D01*
G01*
X12534Y9980D02*
G03*
X12534Y9980I-10J0D01*
G01*
X12451Y10566D02*
G03*
X12451Y10566I-450J0D01*
G01*
X17671Y10884D02*
G03*
X17671Y10884I-450J0D01*
G01*
X15846Y12076D02*
X16446D01*
Y11476D02*
Y12076D01*
X15846Y11476D02*
X16446D01*
X15846D02*
Y12076D01*
X13259Y10110D02*
X14259D01*
X13259Y9660D02*
X13559D01*
X13259D02*
Y10110D01*
X14259Y9660D02*
Y10110D01*
X13959Y9660D02*
X14259D01*
X13259Y10707D02*
X14259D01*
X13259Y10257D02*
X13559D01*
X13259D02*
Y10707D01*
X14259Y10257D02*
Y10707D01*
X13959Y10257D02*
X14259D01*
X12446Y8357D02*
Y8484D01*
X11506Y8915D02*
X12446D01*
X11506Y8001D02*
Y8915D01*
Y8001D02*
X12446D01*
Y8052D01*
X18491Y11024D02*
Y11151D01*
Y10592D02*
X19431D01*
Y11506D01*
X18491D02*
X19431D01*
X18491Y11455D02*
Y11506D01*
X12446Y9398D02*
Y9525D01*
X11506Y9957D02*
X12446D01*
X11506Y9042D02*
Y9957D01*
Y9042D02*
X12446D01*
Y9093D01*
X17910Y10439D02*
Y11455D01*
X18364Y10439D02*
Y11455D01*
X17856Y10439D02*
Y11455D01*
X18364D01*
X17856Y10439D02*
X18364D01*
X16988Y13132D02*
Y13284D01*
X17064D01*
X17089Y13259D01*
Y13208D01*
X17064Y13183D01*
X16988D01*
X17038D02*
X17089Y13132D01*
X17140Y13259D02*
X17165Y13284D01*
X17216D01*
X17241Y13259D01*
Y13233D01*
X17216Y13208D01*
X17191D01*
X17216D01*
X17241Y13183D01*
Y13157D01*
X17216Y13132D01*
X17165D01*
X17140Y13157D01*
X12764Y13089D02*
Y13241D01*
X12840D01*
X12865Y13216D01*
Y13165D01*
X12840Y13139D01*
X12764D01*
X12814D02*
X12865Y13089D01*
X12916D02*
X12967D01*
X12941D01*
Y13241D01*
X12916D01*
X13119Y13089D02*
X13068D01*
X13043Y13114D01*
Y13165D01*
X13068Y13190D01*
X13119D01*
X13144Y13165D01*
Y13139D01*
X13043D01*
X13297Y13241D02*
Y13089D01*
X13221D01*
X13195Y13114D01*
Y13165D01*
X13221Y13190D01*
X13297D01*
X13449Y13241D02*
Y13089D01*
X13373D01*
X13348Y13114D01*
Y13165D01*
X13373Y13190D01*
X13449D01*
X13576Y13089D02*
X13525D01*
X13500Y13114D01*
Y13165D01*
X13525Y13190D01*
X13576D01*
X13601Y13165D01*
Y13139D01*
X13500D01*
X13652Y13241D02*
Y13089D01*
X13728D01*
X13754Y13114D01*
Y13139D01*
Y13165D01*
X13728Y13190D01*
X13652D01*
X13805D02*
Y13114D01*
X13830Y13089D01*
X13906D01*
Y13190D01*
X14008Y13038D02*
X14033D01*
X14058Y13063D01*
Y13190D01*
X13982D01*
X13957Y13165D01*
Y13114D01*
X13982Y13089D01*
X14058D01*
X12959Y12720D02*
Y12593D01*
X12984Y12568D01*
X13035D01*
X13061Y12593D01*
Y12720D01*
X13111Y12695D02*
X13137Y12720D01*
X13188D01*
X13213Y12695D01*
Y12669D01*
X13188Y12644D01*
X13162D01*
X13188D01*
X13213Y12619D01*
Y12593D01*
X13188Y12568D01*
X13137D01*
X13111Y12593D01*
X15096Y13839D02*
Y13712D01*
X15122Y13687D01*
X15173D01*
X15198Y13712D01*
Y13839D01*
X15350Y13687D02*
X15249D01*
X15350Y13788D01*
Y13814D01*
X15325Y13839D01*
X15274D01*
X15249Y13814D01*
X16726Y10617D02*
Y10490D01*
X16751Y10465D01*
X16802D01*
X16827Y10490D01*
Y10617D01*
X16878Y10465D02*
X16929D01*
X16904D01*
Y10617D01*
X16878Y10592D01*
X12522Y11692D02*
Y11844D01*
X12598D01*
X12624Y11819D01*
Y11768D01*
X12598Y11742D01*
X12522D01*
X12573D02*
X12624Y11692D01*
X12675Y11641D02*
Y11793D01*
X12751D01*
X12776Y11768D01*
Y11717D01*
X12751Y11692D01*
X12675D01*
X12827Y11793D02*
Y11717D01*
X12852Y11692D01*
X12928D01*
Y11793D01*
X12979Y11692D02*
X13030D01*
X13005D01*
Y11844D01*
X12979D01*
X13106Y11692D02*
X13157D01*
X13132D01*
Y11844D01*
X13106D01*
X13233Y11793D02*
Y11717D01*
X13259Y11692D01*
X13335D01*
Y11793D01*
X13386Y11641D02*
Y11793D01*
X13462D01*
X13487Y11768D01*
Y11717D01*
X13462Y11692D01*
X13386D01*
X15583Y11549D02*
Y11702D01*
X15659D01*
X15684Y11676D01*
Y11626D01*
X15659Y11600D01*
X15583D01*
X15634D02*
X15684Y11549D01*
X15735Y11499D02*
Y11651D01*
X15811D01*
X15837Y11626D01*
Y11575D01*
X15811Y11549D01*
X15735D01*
X15888D02*
X15938D01*
X15913D01*
Y11702D01*
X15888Y11676D01*
X15557Y12268D02*
Y12167D01*
Y12217D01*
X15583Y12243D01*
X15608Y12268D01*
X15634D01*
X15786Y12167D02*
X15735D01*
X15710Y12192D01*
Y12243D01*
X15735Y12268D01*
X15786D01*
X15811Y12243D01*
Y12217D01*
X15710D01*
X15862Y12167D02*
X15938D01*
X15964Y12192D01*
X15938Y12217D01*
X15888D01*
X15862Y12243D01*
X15888Y12268D01*
X15964D01*
X16091Y12167D02*
X16040D01*
X16015Y12192D01*
Y12243D01*
X16040Y12268D01*
X16091D01*
X16116Y12243D01*
Y12217D01*
X16015D01*
X16192Y12294D02*
Y12268D01*
X16167D01*
X16218D01*
X16192D01*
Y12192D01*
X16218Y12167D01*
X18385Y11862D02*
Y12014D01*
X18461D01*
X18486Y11989D01*
Y11938D01*
X18461Y11913D01*
X18385D01*
X18435D02*
X18486Y11862D01*
X18638Y12014D02*
X18537D01*
Y11938D01*
X18588Y11963D01*
X18613D01*
X18638Y11938D01*
Y11887D01*
X18613Y11862D01*
X18562D01*
X18537Y11887D01*
X15447Y9338D02*
Y9491D01*
X15523D01*
X15549Y9465D01*
Y9414D01*
X15523Y9389D01*
X15447D01*
X15498D02*
X15549Y9338D01*
X15676D02*
Y9491D01*
X15599Y9414D01*
X15701D01*
X16988Y13399D02*
Y13551D01*
X17064D01*
X17089Y13525D01*
Y13475D01*
X17064Y13449D01*
X16988D01*
X17038D02*
X17089Y13399D01*
X17241D02*
X17140D01*
X17241Y13500D01*
Y13525D01*
X17216Y13551D01*
X17165D01*
X17140Y13525D01*
X15446Y10356D02*
Y10508D01*
X15522D01*
X15547Y10483D01*
Y10432D01*
X15522Y10406D01*
X15446D01*
X15497D02*
X15547Y10356D01*
X15598D02*
X15649D01*
X15623D01*
Y10508D01*
X15598Y10483D01*
X11519Y9037D02*
Y9190D01*
X11595D01*
X11620Y9164D01*
Y9113D01*
X11595Y9088D01*
X11519D01*
X11671Y9037D02*
Y9139D01*
X11697D01*
X11722Y9113D01*
Y9037D01*
Y9113D01*
X11747Y9139D01*
X11773Y9113D01*
Y9037D01*
X11849D02*
X11900D01*
X11925Y9063D01*
Y9113D01*
X11900Y9139D01*
X11849D01*
X11824Y9113D01*
Y9063D01*
X11849Y9037D01*
X12001Y9164D02*
Y9139D01*
X11976D01*
X12027D01*
X12001D01*
Y9063D01*
X12027Y9037D01*
X16093Y13053D02*
Y13205D01*
X16170D01*
X16195Y13180D01*
Y13129D01*
X16170Y13104D01*
X16093D01*
X16246Y13053D02*
X16297D01*
X16271D01*
Y13155D01*
X16246D01*
X16474D02*
X16398D01*
X16373Y13129D01*
Y13078D01*
X16398Y13053D01*
X16474D01*
X16525D02*
Y13205D01*
Y13104D02*
X16601Y13155D01*
X16525Y13104D02*
X16601Y13053D01*
X16677D02*
X16728D01*
X16703D01*
Y13155D01*
X16677D01*
X16830Y13180D02*
Y13155D01*
X16804D01*
X16855D01*
X16830D01*
Y13078D01*
X16855Y13053D01*
X17033Y13180D02*
X17008Y13205D01*
X16957D01*
X16931Y13180D01*
Y13078D01*
X16957Y13053D01*
X17008D01*
X17033Y13078D01*
X17109Y13053D02*
X17160D01*
X17185Y13078D01*
Y13129D01*
X17160Y13155D01*
X17109D01*
X17084Y13129D01*
Y13078D01*
X17109Y13053D01*
X17236D02*
Y13155D01*
X17312D01*
X17338Y13129D01*
Y13053D01*
X14696Y11897D02*
Y12050D01*
X14773D01*
X14798Y12024D01*
Y11974D01*
X14773Y11948D01*
X14696D01*
X14849Y11897D02*
X14900D01*
X14874D01*
Y12050D01*
X14849Y12024D01*
X14976Y11897D02*
X15027D01*
X15001D01*
Y12050D01*
X14976Y12024D01*
X11519Y10079D02*
Y10231D01*
X11595D01*
X11620Y10206D01*
Y10155D01*
X11595Y10130D01*
X11519D01*
X11671Y10079D02*
X11722D01*
X11697D01*
Y10231D01*
X11671Y10206D01*
X11798D02*
X11824Y10231D01*
X11874D01*
X11900Y10206D01*
Y10104D01*
X11874Y10079D01*
X11824D01*
X11798Y10104D01*
Y10206D01*
X11951Y10231D02*
Y10130D01*
X12001Y10079D01*
X12052Y10130D01*
Y10231D01*
X13339Y13687D02*
Y13839D01*
X13415D01*
X13440Y13814D01*
Y13763D01*
X13415Y13738D01*
X13339D01*
X13491Y13687D02*
X13542D01*
X13517D01*
Y13839D01*
X13491Y13814D01*
X13618D02*
X13644Y13839D01*
X13694D01*
X13720Y13814D01*
Y13712D01*
X13694Y13687D01*
X13644D01*
X13618Y13712D01*
Y13814D01*
X13669Y13687D02*
Y13839D01*
X13745D01*
X13771Y13814D01*
Y13763D01*
X13745Y13738D01*
X13669D01*
X13821Y13712D02*
X13847Y13687D01*
X13898D01*
X13923Y13712D01*
Y13814D01*
X13898Y13839D01*
X13847D01*
X13821Y13814D01*
Y13788D01*
X13847Y13763D01*
X13923D01*
X13999Y13687D02*
Y13839D01*
X14075D01*
X14101Y13814D01*
Y13763D01*
X14075Y13738D01*
X13999D01*
X14152Y13814D02*
X14177Y13839D01*
X14228D01*
X14253Y13814D01*
Y13788D01*
X14228Y13763D01*
X14253Y13738D01*
Y13712D01*
X14228Y13687D01*
X14177D01*
X14152Y13712D01*
Y13738D01*
X14177Y13763D01*
X14152Y13788D01*
Y13814D01*
X14177Y13763D02*
X14228D01*
X11651Y12151D02*
Y12304D01*
X11727D01*
X11753Y12278D01*
Y12228D01*
X11727Y12202D01*
X11651D01*
X11803Y12304D02*
X11905D01*
Y12278D01*
X11803Y12177D01*
Y12151D01*
X11651Y12452D02*
Y12604D01*
X11727D01*
X11753Y12579D01*
Y12528D01*
X11727Y12503D01*
X11651D01*
X11905Y12604D02*
X11854Y12579D01*
X11803Y12528D01*
Y12477D01*
X11829Y12452D01*
X11880D01*
X11905Y12477D01*
Y12503D01*
X11880Y12528D01*
X11803D01*
X18415Y11595D02*
Y11747D01*
X18491D01*
X18517Y11722D01*
Y11671D01*
X18491Y11646D01*
X18415D01*
X18669Y11747D02*
X18567D01*
Y11671D01*
X18618Y11697D01*
X18644D01*
X18669Y11671D01*
Y11620D01*
X18644Y11595D01*
X18593D01*
X18567Y11620D01*
X18720Y11747D02*
Y11646D01*
X18770Y11595D01*
X18821Y11646D01*
Y11747D01*
X11651Y12752D02*
Y12905D01*
X11727D01*
X11753Y12879D01*
Y12829D01*
X11727Y12803D01*
X11651D01*
X11905Y12905D02*
X11803D01*
Y12829D01*
X11854Y12854D01*
X11880D01*
X11905Y12829D01*
Y12778D01*
X11880Y12752D01*
X11829D01*
X11803Y12778D01*
X14696Y11593D02*
Y11745D01*
X14773D01*
X14798Y11720D01*
Y11669D01*
X14773Y11643D01*
X14696D01*
X14925Y11593D02*
Y11745D01*
X14849Y11669D01*
X14950D01*
X17940Y13307D02*
Y13459D01*
X18016D01*
X18042Y13434D01*
Y13383D01*
X18016Y13358D01*
X17940D01*
X18092Y13434D02*
X18118Y13459D01*
X18169D01*
X18194Y13434D01*
Y13409D01*
X18169Y13383D01*
X18143D01*
X18169D01*
X18194Y13358D01*
Y13332D01*
X18169Y13307D01*
X18118D01*
X18092Y13332D01*
X13009Y13687D02*
Y13839D01*
X13085D01*
X13110Y13814D01*
Y13763D01*
X13085Y13738D01*
X13009D01*
X13263Y13687D02*
X13161D01*
X13263Y13788D01*
Y13814D01*
X13237Y13839D01*
X13186D01*
X13161Y13814D01*
X11651Y13053D02*
Y13205D01*
X11727D01*
X11753Y13180D01*
Y13129D01*
X11727Y13104D01*
X11651D01*
X11803Y13053D02*
X11854D01*
X11829D01*
Y13205D01*
X11803Y13180D01*
X14696Y12355D02*
Y12202D01*
X14798D01*
X14874Y12304D02*
X14925D01*
X14950Y12278D01*
Y12202D01*
X14874D01*
X14849Y12228D01*
X14874Y12253D01*
X14950D01*
X15001Y12202D02*
X15052D01*
X15027D01*
Y12304D01*
X15001D01*
X15128Y12202D02*
X15204D01*
X15230Y12228D01*
X15204Y12253D01*
X15153D01*
X15128Y12278D01*
X15153Y12304D01*
X15230D01*
X15280Y12202D02*
X15357D01*
X15382Y12228D01*
X15357Y12253D01*
X15306D01*
X15280Y12278D01*
X15306Y12304D01*
X15382D01*
X15509Y12202D02*
X15458D01*
X15433Y12228D01*
Y12278D01*
X15458Y12304D01*
X15509D01*
X15534Y12278D01*
Y12253D01*
X15433D01*
X15687Y12329D02*
X15661Y12355D01*
X15611D01*
X15585Y12329D01*
Y12228D01*
X15611Y12202D01*
X15661D01*
X15687Y12228D01*
X15763Y12202D02*
X15814D01*
X15839Y12228D01*
Y12278D01*
X15814Y12304D01*
X15763D01*
X15738Y12278D01*
Y12228D01*
X15763Y12202D01*
X15890D02*
Y12304D01*
X15966D01*
X15991Y12278D01*
Y12202D01*
X13373Y10947D02*
X13271D01*
Y10795D01*
X13373D01*
X13271Y10871D02*
X13322D01*
X13424Y10795D02*
Y10897D01*
X13500D01*
X13525Y10871D01*
Y10795D01*
X13678Y10897D02*
X13602D01*
X13576Y10871D01*
Y10820D01*
X13602Y10795D01*
X13678D01*
X13754D02*
X13805D01*
X13830Y10820D01*
Y10871D01*
X13805Y10897D01*
X13754D01*
X13729Y10871D01*
Y10820D01*
X13754Y10795D01*
X13982Y10947D02*
Y10795D01*
X13906D01*
X13881Y10820D01*
Y10871D01*
X13906Y10897D01*
X13982D01*
X14109Y10795D02*
X14059D01*
X14033Y10820D01*
Y10871D01*
X14059Y10897D01*
X14109D01*
X14135Y10871D01*
Y10846D01*
X14033D01*
X14186Y10897D02*
Y10820D01*
X14211Y10795D01*
X14287D01*
Y10897D01*
X14338D02*
Y10795D01*
Y10846D01*
X14363Y10871D01*
X14389Y10897D01*
X14414D01*
X14592Y10795D02*
X14490D01*
X14592Y10897D01*
Y10922D01*
X14566Y10947D01*
X14516D01*
X14490Y10922D01*
X13373Y10350D02*
X13271D01*
Y10198D01*
X13373D01*
X13271Y10274D02*
X13322D01*
X13424Y10198D02*
Y10300D01*
X13500D01*
X13525Y10274D01*
Y10198D01*
X13678Y10300D02*
X13602D01*
X13576Y10274D01*
Y10223D01*
X13602Y10198D01*
X13678D01*
X13754D02*
X13805D01*
X13830Y10223D01*
Y10274D01*
X13805Y10300D01*
X13754D01*
X13729Y10274D01*
Y10223D01*
X13754Y10198D01*
X13982Y10350D02*
Y10198D01*
X13906D01*
X13881Y10223D01*
Y10274D01*
X13906Y10300D01*
X13982D01*
X14109Y10198D02*
X14059D01*
X14033Y10223D01*
Y10274D01*
X14059Y10300D01*
X14109D01*
X14135Y10274D01*
Y10249D01*
X14033D01*
X14186Y10300D02*
Y10223D01*
X14211Y10198D01*
X14287D01*
Y10300D01*
X14338D02*
Y10198D01*
Y10249D01*
X14363Y10274D01*
X14389Y10300D01*
X14414D01*
X14490Y10198D02*
X14541D01*
X14516D01*
Y10350D01*
X14490Y10325D01*
X12727Y13842D02*
Y13689D01*
X12803D01*
X12828Y13715D01*
Y13816D01*
X12803Y13842D01*
X12727D01*
X12879Y13689D02*
X12930D01*
X12904D01*
Y13842D01*
X12879Y13816D01*
X13108Y13689D02*
X13006D01*
X13108Y13791D01*
Y13816D01*
X13082Y13842D01*
X13031D01*
X13006Y13816D01*
X18738Y12062D02*
Y11910D01*
X18814D01*
X18839Y11935D01*
Y12037D01*
X18814Y12062D01*
X18738D01*
X18890Y11910D02*
X18941D01*
X18915D01*
Y12062D01*
X18890Y12037D01*
X19017Y11910D02*
X19068D01*
X19042D01*
Y12062D01*
X19017Y12037D01*
X15728Y10531D02*
Y10378D01*
X15804D01*
X15829Y10404D01*
Y10505D01*
X15804Y10531D01*
X15728D01*
X15880Y10378D02*
X15931D01*
X15905D01*
Y10531D01*
X15880Y10505D01*
X16007D02*
X16032Y10531D01*
X16083D01*
X16109Y10505D01*
Y10404D01*
X16083Y10378D01*
X16032D01*
X16007Y10404D01*
Y10505D01*
X15728Y10289D02*
Y10137D01*
X15804D01*
X15829Y10163D01*
Y10264D01*
X15804Y10289D01*
X15728D01*
X15880Y10163D02*
X15905Y10137D01*
X15956D01*
X15982Y10163D01*
Y10264D01*
X15956Y10289D01*
X15905D01*
X15880Y10264D01*
Y10239D01*
X15905Y10213D01*
X15982D01*
X15728Y9019D02*
Y8867D01*
X15804D01*
X15829Y8893D01*
Y8994D01*
X15804Y9019D01*
X15728D01*
X15880Y8994D02*
X15905Y9019D01*
X15956D01*
X15982Y8994D01*
Y8969D01*
X15956Y8943D01*
X15982Y8918D01*
Y8893D01*
X15956Y8867D01*
X15905D01*
X15880Y8893D01*
Y8918D01*
X15905Y8943D01*
X15880Y8969D01*
Y8994D01*
X15905Y8943D02*
X15956D01*
X15728Y8778D02*
Y8626D01*
X15804D01*
X15829Y8651D01*
Y8753D01*
X15804Y8778D01*
X15728D01*
X15880D02*
X15982D01*
Y8753D01*
X15880Y8651D01*
Y8626D01*
X15728Y10785D02*
Y10632D01*
X15804D01*
X15829Y10658D01*
Y10759D01*
X15804Y10785D01*
X15728D01*
X15982D02*
X15931Y10759D01*
X15880Y10709D01*
Y10658D01*
X15905Y10632D01*
X15956D01*
X15982Y10658D01*
Y10683D01*
X15956Y10709D01*
X15880D01*
X15728Y10023D02*
Y9870D01*
X15804D01*
X15829Y9896D01*
Y9997D01*
X15804Y10023D01*
X15728D01*
X15982D02*
X15880D01*
Y9947D01*
X15931Y9972D01*
X15956D01*
X15982Y9947D01*
Y9896D01*
X15956Y9870D01*
X15905D01*
X15880Y9896D01*
X16320Y13320D02*
Y13167D01*
X16396D01*
X16421Y13193D01*
Y13294D01*
X16396Y13320D01*
X16320D01*
X16548Y13167D02*
Y13320D01*
X16472Y13244D01*
X16573D01*
X16320Y13586D02*
Y13434D01*
X16396D01*
X16421Y13459D01*
Y13561D01*
X16396Y13586D01*
X16320D01*
X16472Y13561D02*
X16497Y13586D01*
X16548D01*
X16573Y13561D01*
Y13536D01*
X16548Y13510D01*
X16523D01*
X16548D01*
X16573Y13485D01*
Y13459D01*
X16548Y13434D01*
X16497D01*
X16472Y13459D01*
X15728Y9261D02*
Y9108D01*
X15804D01*
X15829Y9134D01*
Y9235D01*
X15804Y9261D01*
X15728D01*
X15982Y9108D02*
X15880D01*
X15982Y9210D01*
Y9235D01*
X15956Y9261D01*
X15905D01*
X15880Y9235D01*
X15728Y8537D02*
Y8385D01*
X15804D01*
X15829Y8410D01*
Y8511D01*
X15804Y8537D01*
X15728D01*
X15880Y8385D02*
X15931D01*
X15905D01*
Y8537D01*
X15880Y8511D01*
X13477Y12926D02*
X13452Y12951D01*
X13401D01*
X13376Y12926D01*
Y12824D01*
X13401Y12799D01*
X13452D01*
X13477Y12824D01*
X13630Y12951D02*
Y12799D01*
X13553D01*
X13528Y12824D01*
Y12875D01*
X13553Y12901D01*
X13630D01*
X13757Y12799D02*
X13706D01*
X13680Y12824D01*
Y12875D01*
X13706Y12901D01*
X13757D01*
X13782Y12875D01*
Y12850D01*
X13680D01*
X17765Y12372D02*
X17739Y12398D01*
X17689D01*
X17663Y12372D01*
Y12271D01*
X17689Y12245D01*
X17739D01*
X17765Y12271D01*
X17917Y12398D02*
Y12245D01*
X17841D01*
X17816Y12271D01*
Y12322D01*
X17841Y12347D01*
X17917D01*
X18044Y12245D02*
X17993D01*
X17968Y12271D01*
Y12322D01*
X17993Y12347D01*
X18044D01*
X18069Y12322D01*
Y12296D01*
X17968D01*
X18222Y12347D02*
X18146D01*
X18120Y12322D01*
Y12271D01*
X18146Y12245D01*
X18222D01*
X18298D02*
X18349D01*
X18374Y12271D01*
Y12322D01*
X18349Y12347D01*
X18298D01*
X18273Y12322D01*
Y12271D01*
X18298Y12245D01*
X18425Y12347D02*
Y12271D01*
X18450Y12245D01*
X18526D01*
Y12347D01*
X18577Y12195D02*
Y12347D01*
X18653D01*
X18679Y12322D01*
Y12271D01*
X18653Y12245D01*
X18577D01*
X18831Y12398D02*
X18730D01*
Y12322D01*
X18780Y12347D01*
X18806D01*
X18831Y12322D01*
Y12271D01*
X18806Y12245D01*
X18755D01*
X18730Y12271D01*
X12614Y12139D02*
X12588Y12164D01*
X12537D01*
X12512Y12139D01*
Y12037D01*
X12537Y12012D01*
X12588D01*
X12614Y12037D01*
X12766Y12164D02*
Y12012D01*
X12690D01*
X12664Y12037D01*
Y12088D01*
X12690Y12113D01*
X12766D01*
X12893Y12012D02*
X12842D01*
X12817Y12037D01*
Y12088D01*
X12842Y12113D01*
X12893D01*
X12918Y12088D01*
Y12062D01*
X12817D01*
X13071Y12113D02*
X12994D01*
X12969Y12088D01*
Y12037D01*
X12994Y12012D01*
X13071D01*
X13147D02*
X13198D01*
X13223Y12037D01*
Y12088D01*
X13198Y12113D01*
X13147D01*
X13121Y12088D01*
Y12037D01*
X13147Y12012D01*
X13274Y12113D02*
Y12037D01*
X13299Y12012D01*
X13375D01*
Y12113D01*
X13426Y11961D02*
Y12113D01*
X13502D01*
X13528Y12088D01*
Y12037D01*
X13502Y12012D01*
X13426D01*
X13655D02*
Y12164D01*
X13578Y12088D01*
X13680D01*
X17092Y12372D02*
X17066Y12398D01*
X17015D01*
X16990Y12372D01*
Y12271D01*
X17015Y12245D01*
X17066D01*
X17092Y12271D01*
X17244Y12398D02*
Y12245D01*
X17168D01*
X17142Y12271D01*
Y12322D01*
X17168Y12347D01*
X17244D01*
X17371Y12245D02*
X17320D01*
X17295Y12271D01*
Y12322D01*
X17320Y12347D01*
X17371D01*
X17396Y12322D01*
Y12296D01*
X17295D01*
X17549Y12347D02*
X17473D01*
X17447Y12322D01*
Y12271D01*
X17473Y12245D01*
X17549D01*
X17625D02*
X17676D01*
X17701Y12271D01*
Y12322D01*
X17676Y12347D01*
X17625D01*
X17599Y12322D01*
Y12271D01*
X17625Y12245D01*
X17752Y12347D02*
Y12271D01*
X17777Y12245D01*
X17853D01*
Y12347D01*
X17904Y12195D02*
Y12347D01*
X17980D01*
X18006Y12322D01*
Y12271D01*
X17980Y12245D01*
X17904D01*
X18057Y12372D02*
X18082Y12398D01*
X18133D01*
X18158Y12372D01*
Y12347D01*
X18133Y12322D01*
X18107D01*
X18133D01*
X18158Y12296D01*
Y12271D01*
X18133Y12245D01*
X18082D01*
X18057Y12271D01*
X14481Y12037D02*
X14455Y12062D01*
X14404D01*
X14379Y12037D01*
Y11935D01*
X14404Y11910D01*
X14455D01*
X14481Y11935D01*
X14633Y12062D02*
Y11910D01*
X14557D01*
X14531Y11935D01*
Y11986D01*
X14557Y12012D01*
X14633D01*
X14760Y11910D02*
X14709D01*
X14684Y11935D01*
Y11986D01*
X14709Y12012D01*
X14760D01*
X14785Y11986D01*
Y11961D01*
X14684D01*
X14938Y12012D02*
X14861D01*
X14836Y11986D01*
Y11935D01*
X14861Y11910D01*
X14938D01*
X15014D02*
X15065D01*
X15090Y11935D01*
Y11986D01*
X15065Y12012D01*
X15014D01*
X14988Y11986D01*
Y11935D01*
X15014Y11910D01*
X15141Y12012D02*
Y11935D01*
X15166Y11910D01*
X15242D01*
Y12012D01*
X15293Y11859D02*
Y12012D01*
X15369D01*
X15395Y11986D01*
Y11935D01*
X15369Y11910D01*
X15293D01*
X15547D02*
X15445D01*
X15547Y12012D01*
Y12037D01*
X15522Y12062D01*
X15471D01*
X15445Y12037D01*
X13769Y11212D02*
X13744Y11237D01*
X13693D01*
X13668Y11212D01*
Y11110D01*
X13693Y11085D01*
X13744D01*
X13769Y11110D01*
X13922Y11237D02*
Y11085D01*
X13845D01*
X13820Y11110D01*
Y11161D01*
X13845Y11186D01*
X13922D01*
X14049Y11085D02*
X13998D01*
X13972Y11110D01*
Y11161D01*
X13998Y11186D01*
X14049D01*
X14074Y11161D01*
Y11135D01*
X13972D01*
X14226Y11186D02*
X14150D01*
X14125Y11161D01*
Y11110D01*
X14150Y11085D01*
X14226D01*
X14303D02*
X14353D01*
X14379Y11110D01*
Y11161D01*
X14353Y11186D01*
X14303D01*
X14277Y11161D01*
Y11110D01*
X14303Y11085D01*
X14429Y11186D02*
Y11110D01*
X14455Y11085D01*
X14531D01*
Y11186D01*
X14582Y11034D02*
Y11186D01*
X14658D01*
X14683Y11161D01*
Y11110D01*
X14658Y11085D01*
X14582D01*
X14734D02*
X14785D01*
X14760D01*
Y11237D01*
X14734Y11212D01*
X16855Y11590D02*
X16830Y11615D01*
X16779D01*
X16754Y11590D01*
Y11488D01*
X16779Y11463D01*
X16830D01*
X16855Y11488D01*
X17008Y11615D02*
X16906D01*
Y11539D01*
X16957Y11565D01*
X16982D01*
X17008Y11539D01*
Y11488D01*
X16982Y11463D01*
X16932D01*
X16906Y11488D01*
X17554Y13205D02*
X17529Y13231D01*
X17478D01*
X17452Y13205D01*
Y13104D01*
X17478Y13078D01*
X17529D01*
X17554Y13104D01*
X17681Y13078D02*
Y13231D01*
X17605Y13155D01*
X17706D01*
X11633Y11262D02*
X11608Y11288D01*
X11557D01*
X11532Y11262D01*
Y11161D01*
X11557Y11135D01*
X11608D01*
X11633Y11161D01*
X11684Y11262D02*
X11709Y11288D01*
X11760D01*
X11786Y11262D01*
Y11237D01*
X11760Y11212D01*
X11735D01*
X11760D01*
X11786Y11186D01*
Y11161D01*
X11760Y11135D01*
X11709D01*
X11684Y11161D01*
X14427Y9995D02*
X14402Y10020D01*
X14351D01*
X14326Y9995D01*
Y9893D01*
X14351Y9868D01*
X14402D01*
X14427Y9893D01*
X14580Y9868D02*
X14478D01*
X14580Y9969D01*
Y9995D01*
X14554Y10020D01*
X14503D01*
X14478Y9995D01*
X13053Y9502D02*
X13028Y9527D01*
X12977D01*
X12951Y9502D01*
Y9401D01*
X12977Y9375D01*
X13028D01*
X13053Y9401D01*
X13104Y9375D02*
X13155D01*
X13129D01*
Y9527D01*
X13104Y9502D01*
X11648Y11529D02*
Y11631D01*
X11699Y11681D01*
X11750Y11631D01*
Y11529D01*
Y11605D01*
X11648D01*
X11801Y11681D02*
X11902Y11529D01*
Y11681D02*
X11801Y11529D01*
X11953D02*
X12004D01*
X11979D01*
Y11681D01*
X11953Y11656D01*
X12182Y11529D02*
X12080D01*
X12182Y11631D01*
Y11656D01*
X12156Y11681D01*
X12105D01*
X12080Y11656D01*
X12232Y11504D02*
X12334D01*
X12385Y11681D02*
Y11529D01*
X12461D01*
X12486Y11554D01*
Y11580D01*
X12461Y11605D01*
X12385D01*
X12461D01*
X12486Y11631D01*
Y11656D01*
X12461Y11681D01*
X12385D01*
X17869Y11697D02*
Y11544D01*
X17970D01*
X18021D02*
Y11697D01*
X18072Y11646D01*
X18123Y11697D01*
Y11544D01*
X18275D02*
X18174D01*
X18275Y11646D01*
Y11671D01*
X18250Y11697D01*
X18199D01*
X18174Y11671D01*
X18326Y11570D02*
X18351Y11544D01*
X18402D01*
X18428Y11570D01*
Y11671D01*
X18402Y11697D01*
X18351D01*
X18326Y11671D01*
Y11646D01*
X18351Y11620D01*
X18428D01*
X18478Y11671D02*
X18504Y11697D01*
X18554D01*
X18580Y11671D01*
Y11646D01*
X18554Y11620D01*
X18529D01*
X18554D01*
X18580Y11595D01*
Y11570D01*
X18554Y11544D01*
X18504D01*
X18478Y11570D01*
X18631Y11697D02*
X18732D01*
Y11671D01*
X18631Y11570D01*
Y11544D01*
X18885Y11697D02*
X18783D01*
Y11544D01*
X18885D01*
X18783Y11620D02*
X18834D01*
X18935Y11697D02*
X19037D01*
X18986D01*
Y11544D01*
X19088Y11620D02*
X19189D01*
X19240Y11671D02*
X19265Y11697D01*
X19316D01*
X19342Y11671D01*
Y11646D01*
X19316Y11620D01*
X19291D01*
X19316D01*
X19342Y11595D01*
Y11570D01*
X19316Y11544D01*
X19265D01*
X19240Y11570D01*
X19392Y11544D02*
Y11570D01*
X19418D01*
Y11544D01*
X19392D01*
X19519Y11671D02*
X19545Y11697D01*
X19596D01*
X19621Y11671D01*
Y11646D01*
X19596Y11620D01*
X19570D01*
X19596D01*
X19621Y11595D01*
Y11570D01*
X19596Y11544D01*
X19545D01*
X19519Y11570D01*
D41*
X19112Y11824D02*
X19282D01*
X19282Y11594D02*
X19332Y11634D01*
X19282Y11824D02*
X19332Y11784D01*
X19112Y11594D02*
X19282D01*
X19332Y11634D02*
Y11784D01*
X18722Y11594D02*
Y11824D01*
X18912D01*
X18722Y11594D02*
X18912D01*
X11636Y12967D02*
X12398D01*
X11636Y12713D02*
Y12967D01*
Y12713D02*
X12398D01*
Y12967D01*
X15406Y12505D02*
Y13555D01*
X15786Y12505D02*
Y13555D01*
X15406D02*
X15786D01*
X15406Y12505D02*
X15786D01*
X17615Y12856D02*
Y12861D01*
X17437Y12856D02*
Y12861D01*
X13246Y12840D02*
Y13602D01*
X12992D02*
X13246D01*
X12992Y12840D02*
Y13602D01*
Y12840D02*
X13246D01*
X16354Y13118D02*
X16524D01*
X16304Y13308D02*
X16354Y13348D01*
X16304Y13158D02*
X16354Y13118D01*
Y13348D02*
X16524D01*
X16304Y13158D02*
Y13308D01*
X16914Y13118D02*
Y13348D01*
X16724Y13118D02*
X16914D01*
X16724Y13348D02*
X16914D01*
X14681Y11252D02*
X15443D01*
Y11506D01*
X14681D02*
X15443D01*
X14681Y11252D02*
Y11506D01*
X16354Y12852D02*
X16524D01*
X16304Y13042D02*
X16354Y13082D01*
X16304Y12892D02*
X16354Y12852D01*
Y13082D02*
X16524D01*
X16304Y12892D02*
Y13042D01*
X16914Y12852D02*
Y13082D01*
X16724Y12852D02*
X16914D01*
X16724Y13082D02*
X16914D01*
X16078Y12459D02*
X17602D01*
X17560D02*
X17602Y12501D01*
X16163Y12586D02*
Y12924D01*
X16205Y12967D01*
X16248Y12924D01*
Y12586D02*
Y12924D01*
X16417Y12586D02*
Y12924D01*
X16459Y12967D01*
X16502Y12924D01*
Y12586D02*
Y12924D01*
X16671Y12586D02*
Y12924D01*
X16713Y12967D01*
X16756Y12924D01*
Y12586D02*
Y12924D01*
X16925Y12586D02*
Y12924D01*
X16967Y12967D01*
X17010Y12924D01*
Y12586D02*
Y12924D01*
X17179Y12586D02*
Y12924D01*
X17221Y12967D01*
X17264Y12924D01*
Y12586D02*
Y12924D01*
X17433Y12586D02*
Y12924D01*
X17475Y12967D01*
X17518Y12924D01*
Y12586D02*
Y12924D01*
X16078Y12459D02*
Y12586D01*
X17602D01*
Y12459D02*
Y12586D01*
X11636Y12666D02*
X12398D01*
X11636Y12412D02*
Y12666D01*
Y12412D02*
X12398D01*
Y12666D01*
X11636Y12366D02*
X12398D01*
X11636Y12112D02*
Y12366D01*
Y12112D02*
X12398D01*
Y12366D01*
X14681Y11862D02*
X15443D01*
Y12116D01*
X14681D02*
X15443D01*
X14681Y11862D02*
Y12116D01*
X11633Y11163D02*
X12395D01*
Y11417D01*
X11633D02*
X12395D01*
X11633Y11163D02*
Y11417D01*
X12712Y13384D02*
Y13554D01*
X12902Y13604D02*
X12942Y13554D01*
X12712D02*
X12752Y13604D01*
X12942Y13384D02*
Y13554D01*
X12752Y13604D02*
X12902D01*
X12712Y12994D02*
X12942D01*
X12712D02*
Y13184D01*
X12942Y12994D02*
Y13184D01*
X11636Y12065D02*
X12398D01*
X11636Y11811D02*
Y12065D01*
Y11811D02*
X12398D01*
Y12065D01*
X14049Y11376D02*
Y12246D01*
X13179Y11376D02*
Y12246D01*
X14049D01*
X13179Y11376D02*
X14049D01*
X13783Y10947D02*
X13788D01*
X13783Y10770D02*
X13788D01*
X12675Y11739D02*
Y11744D01*
X12497Y11739D02*
Y11744D01*
X13491Y12713D02*
X13496D01*
X13491Y12535D02*
X13496D01*
X14364Y11637D02*
Y11642D01*
X14541Y11637D02*
Y11642D01*
X14681Y11557D02*
X15443D01*
Y11811D01*
X14681D02*
X15443D01*
X14681Y11557D02*
Y11811D01*
X13576Y12840D02*
Y13602D01*
X13322D02*
X13576D01*
X13322Y12840D02*
Y13602D01*
Y12840D02*
X13576D01*
X13907D02*
Y13602D01*
X13652D02*
X13907D01*
X13652Y12840D02*
Y13602D01*
Y12840D02*
X13907D01*
X14237D02*
Y13602D01*
X13983D02*
X14237D01*
X13983Y12840D02*
Y13602D01*
Y12840D02*
X14237D01*
X16337Y10357D02*
Y10547D01*
X15947Y10357D02*
X16337D01*
X15947Y10547D02*
X16337D01*
Y9595D02*
Y9785D01*
X15947Y9595D02*
X16337D01*
X15947Y9785D02*
X16337D01*
Y8833D02*
Y9023D01*
X15947Y8833D02*
X16337D01*
X15947Y9023D02*
X16337D01*
Y8109D02*
Y8299D01*
X15947Y8109D02*
X16337D01*
X15947Y8299D02*
X16337D01*
X18381Y8312D02*
Y10332D01*
X17321Y8312D02*
Y10332D01*
Y8312D02*
X19101D01*
X17321Y10332D02*
X19101D01*
Y9622D02*
Y10332D01*
Y8312D02*
Y9022D01*
X15430Y9055D02*
X15507D01*
X15430Y8547D02*
Y9055D01*
Y8547D02*
X15583D01*
Y9055D01*
X15507D02*
X15583D01*
X15507Y8524D02*
Y8547D01*
Y9055D02*
Y9078D01*
Y9563D02*
X15583D01*
Y10071D01*
X15430D02*
X15583D01*
X15430Y9563D02*
Y10071D01*
Y9563D02*
X15507D01*
Y10071D02*
Y10094D01*
Y9540D02*
Y9563D01*
X15947Y10103D02*
Y10293D01*
X16337D01*
X15947Y10103D02*
X16337D01*
X15947Y9862D02*
Y10052D01*
X16337D01*
X15947Y9862D02*
X16337D01*
X15947Y8592D02*
Y8782D01*
X16337D01*
X15947Y8592D02*
X16337D01*
X15947Y8350D02*
Y8540D01*
X16337D01*
X15947Y8350D02*
X16337D01*
D42*
X13205Y8382D02*
X13459D01*
X13332Y8255D02*
Y8509D01*
X14572Y9441D02*
Y9662D01*
X14463Y9553D02*
X14681D01*
X11636Y10330D02*
X11857D01*
X11745Y10221D02*
Y10439D01*
X17457Y10518D02*
Y10739D01*
X17348Y10627D02*
X17567D01*
D43*
X15977Y10452D02*
D03*
Y9690D02*
D03*
Y8928D02*
D03*
Y8204D02*
D03*
X16307Y10198D02*
D03*
Y9957D02*
D03*
Y8687D02*
D03*
Y8446D02*
D03*
M02*
