%FSLAX42Y42*%
%MOMM*%
G71*
G01*
G75*
%ADD10C,0.30*%
%ADD11C,1.30*%
%ADD12R,1.00X1.70*%
%ADD13R,1.50X1.50*%
%ADD14R,2.35X0.50*%
%ADD15R,2.50X2.35*%
%ADD16R,1.70X1.00*%
%ADD17O,0.55X1.75*%
%ADD18O,1.75X0.55*%
%ADD19R,0.90X1.55*%
%ADD20R,2.10X1.40*%
%ADD21R,1.55X0.90*%
%ADD22O,2.40X0.35*%
%ADD23R,1.50X1.50*%
%ADD24O,2.50X1.80*%
%ADD25R,2.50X1.80*%
%ADD26C,1.50*%
%ADD27C,1.40*%
%ADD28R,2.50X2.50*%
%ADD29C,2.50*%
%ADD30R,2.50X2.50*%
%ADD31C,1.30*%
%ADD32R,1.30X1.30*%
%ADD33C,1.57*%
%ADD34R,1.57X1.57*%
%ADD35R,1.57X1.57*%
%ADD36C,6.50*%
%ADD37C,1.27*%
%ADD38C,0.80*%
%ADD39C,0.25*%
%ADD40C,0.25*%
%ADD41C,0.60*%
%ADD42C,0.15*%
%ADD43C,0.20*%
%ADD44C,0.30*%
%ADD45R,1.90X0.80*%
%ADD46R,1.20X1.90*%
%ADD47R,1.70X1.70*%
%ADD48R,2.55X0.70*%
%ADD49R,2.70X2.55*%
%ADD50R,1.90X1.20*%
%ADD51O,0.75X1.95*%
%ADD52O,1.95X0.75*%
%ADD53R,1.10X1.75*%
%ADD54R,2.30X1.60*%
%ADD55R,1.75X1.10*%
%ADD56O,2.60X0.55*%
%ADD57R,1.70X1.70*%
%ADD58O,2.70X2.00*%
%ADD59R,2.70X2.00*%
%ADD60C,1.70*%
%ADD61C,1.60*%
%ADD62R,2.70X2.70*%
%ADD63C,2.70*%
%ADD64R,2.70X2.70*%
%ADD65C,1.50*%
%ADD66R,1.50X1.50*%
%ADD67C,1.78*%
%ADD68R,1.78X1.78*%
%ADD69R,1.78X1.78*%
%ADD70C,6.70*%
%ADD71C,1.47*%
%ADD72C,0.10*%
%ADD73C,0.15*%
%ADD74R,9.50X8.00*%
%ADD75C,0.13*%
%ADD76C,0.17*%
D75*
X17870Y12090D02*
X17970D01*
X17920Y12040D02*
Y12140D01*
X17870Y11836D02*
X17970D01*
X17920Y11786D02*
Y11886D01*
X17870Y11582D02*
X17970D01*
X17920Y11532D02*
Y11632D01*
X16097Y10375D02*
X16187D01*
X16142Y10330D02*
Y10420D01*
X16097Y9665D02*
X16187D01*
X16142Y9620D02*
Y9710D01*
X16338Y10375D02*
X16428D01*
X16383Y10330D02*
Y10420D01*
X16338Y9665D02*
X16428D01*
X16383Y9620D02*
Y9710D01*
X17608Y10375D02*
X17698D01*
X17653Y10330D02*
Y10420D01*
X17608Y9665D02*
X17698D01*
X17653Y9620D02*
Y9710D01*
X17849Y10375D02*
X17939D01*
X17894Y10330D02*
Y10420D01*
X17849Y9665D02*
X17939D01*
X17894Y9620D02*
Y9710D01*
X17852Y10655D02*
X17937D01*
X17894Y10613D02*
Y10698D01*
X17090Y10655D02*
X17175D01*
X17132Y10613D02*
Y10698D01*
X16074Y10655D02*
X16159D01*
X16116Y10613D02*
Y10698D01*
X16836Y10655D02*
X16921D01*
X16878Y10613D02*
Y10698D01*
X15855Y9665D02*
X15945D01*
X15900Y9620D02*
Y9710D01*
X15855Y10375D02*
X15945D01*
X15900Y10330D02*
Y10420D01*
X16579Y9665D02*
X16669D01*
X16624Y9620D02*
Y9710D01*
X16579Y10375D02*
X16669D01*
X16624Y10330D02*
Y10420D01*
X17341Y9665D02*
X17431D01*
X17386Y9620D02*
Y9710D01*
X17341Y10375D02*
X17431D01*
X17386Y10330D02*
Y10420D01*
X18103Y9665D02*
X18193D01*
X18148Y9620D02*
Y9710D01*
X18103Y10375D02*
X18193D01*
X18148Y10330D02*
Y10420D01*
X18574Y11280D02*
X18714D01*
X18644Y11210D02*
Y11350D01*
X18574Y11630D02*
X18714D01*
X18644Y11560D02*
Y11700D01*
X14614Y9398D02*
X14754D01*
X14684Y9328D02*
Y9468D01*
X14964Y9398D02*
X15104D01*
X15034Y9328D02*
Y9468D01*
X13462Y10516D02*
X13532D01*
X13497Y10481D02*
Y10551D01*
X13662Y10516D02*
X13732D01*
X13697Y10481D02*
Y10551D01*
X13862Y10516D02*
X13932D01*
X13897Y10481D02*
Y10551D01*
X14062Y10516D02*
X14132D01*
X14097Y10481D02*
Y10551D01*
X13462Y10033D02*
X13532D01*
X13497Y9998D02*
Y10068D01*
X13662Y10033D02*
X13732D01*
X13697Y9998D02*
Y10068D01*
X13862Y10033D02*
X13932D01*
X13897Y9998D02*
Y10068D01*
X14062Y10033D02*
X14132D01*
X14097Y9998D02*
Y10068D01*
X12198Y10706D02*
X12288D01*
X12243Y10661D02*
Y10751D01*
X11944Y10706D02*
X12034D01*
X11989Y10661D02*
Y10751D01*
X11690Y10706D02*
X11780D01*
X11735Y10661D02*
Y10751D01*
X15271Y11989D02*
X15361D01*
X15316Y11944D02*
Y12034D01*
X15017Y11989D02*
X15107D01*
X15062Y11944D02*
Y12034D01*
X14763Y11989D02*
X14853D01*
X14808Y11944D02*
Y12034D01*
X17430Y12332D02*
X17520D01*
X17475Y12287D02*
Y12377D01*
X17176Y12332D02*
X17266D01*
X17221Y12287D02*
Y12377D01*
X16922Y12332D02*
X17012D01*
X16967Y12287D02*
Y12377D01*
X16668Y12332D02*
X16758D01*
X16713Y12287D02*
Y12377D01*
X16414Y12332D02*
X16504D01*
X16459Y12287D02*
Y12377D01*
X16160Y12332D02*
X16250D01*
X16205Y12287D02*
Y12377D01*
X19099Y9652D02*
X19179D01*
X19139Y9612D02*
Y9692D01*
X18591Y9652D02*
X18671D01*
X18631Y9612D02*
Y9692D01*
X14794Y12586D02*
X14874D01*
X14834Y12546D02*
Y12626D01*
X14540Y12586D02*
X14620D01*
X14580Y12546D02*
Y12626D01*
X14578Y13500D02*
X14658D01*
X14618Y13460D02*
Y13540D01*
X14578Y13246D02*
X14658D01*
X14618Y13206D02*
Y13286D01*
X12190Y10071D02*
X12270D01*
X12230Y10031D02*
Y10111D01*
X11682Y10071D02*
X11762D01*
X11722Y10031D02*
Y10111D01*
X11706Y9411D02*
X11846D01*
X11776Y9341D02*
Y9481D01*
X12056Y9411D02*
X12196D01*
X12126Y9341D02*
Y9481D01*
X11695Y11633D02*
X11775D01*
X11735Y11593D02*
Y11673D01*
X12203Y11633D02*
X12283D01*
X12243Y11593D02*
Y11673D01*
X11870Y13246D02*
X11960D01*
X11915Y13201D02*
Y13291D01*
X12124Y13246D02*
X12214D01*
X12169Y13201D02*
Y13291D01*
X12378Y13246D02*
X12468D01*
X12423Y13201D02*
Y13291D01*
X11870Y12946D02*
X11960D01*
X11915Y12901D02*
Y12991D01*
X12124Y12946D02*
X12214D01*
X12169Y12901D02*
Y12991D01*
X12378Y12946D02*
X12468D01*
X12423Y12901D02*
Y12991D01*
X11870Y12645D02*
X11960D01*
X11915Y12600D02*
Y12690D01*
X12124Y12645D02*
X12214D01*
X12169Y12600D02*
Y12690D01*
X12378Y12645D02*
X12468D01*
X12423Y12600D02*
Y12690D01*
X11870Y12344D02*
X11960D01*
X11915Y12299D02*
Y12389D01*
X12124Y12344D02*
X12214D01*
X12169Y12299D02*
Y12389D01*
X12378Y12344D02*
X12468D01*
X12423Y12299D02*
Y12389D01*
X15007Y10579D02*
X15092D01*
X15049Y10537D02*
Y10622D01*
X15007Y10071D02*
X15092D01*
X15049Y10029D02*
Y10114D01*
X15271Y11379D02*
X15361D01*
X15316Y11334D02*
Y11424D01*
X15017Y11379D02*
X15107D01*
X15062Y11334D02*
Y11424D01*
X14763Y11379D02*
X14853D01*
X14808Y11334D02*
Y11424D01*
X15271Y11684D02*
X15361D01*
X15316Y11639D02*
Y11729D01*
X15017Y11684D02*
X15107D01*
X15062Y11639D02*
Y11729D01*
X14763Y11684D02*
X14853D01*
X14808Y11639D02*
Y11729D01*
X14065Y13475D02*
X14155D01*
X14110Y13430D02*
Y13520D01*
X14065Y13221D02*
X14155D01*
X14110Y13176D02*
Y13266D01*
X14065Y12967D02*
X14155D01*
X14110Y12922D02*
Y13012D01*
X13735Y13475D02*
X13824D01*
X13779Y13430D02*
Y13520D01*
X13735Y13221D02*
X13824D01*
X13779Y13176D02*
Y13266D01*
X13735Y12967D02*
X13824D01*
X13779Y12922D02*
Y13012D01*
X13404Y13475D02*
X13494D01*
X13449Y13430D02*
Y13520D01*
X13404Y13221D02*
X13494D01*
X13449Y13176D02*
Y13266D01*
X13404Y12967D02*
X13494D01*
X13449Y12922D02*
Y13012D01*
X13074Y13475D02*
X13164D01*
X13119Y13430D02*
Y13520D01*
X13074Y13221D02*
X13164D01*
X13119Y13176D02*
Y13266D01*
X13074Y12967D02*
X13164D01*
X13119Y12922D02*
Y13012D01*
X17862Y9373D02*
X17952D01*
X17907Y9328D02*
Y9418D01*
X16973Y8865D02*
X17063D01*
X17018Y8820D02*
Y8910D01*
X16846Y9373D02*
X16936D01*
X16891Y9328D02*
Y9418D01*
X16719Y8865D02*
X16809D01*
X16764Y8820D02*
Y8910D01*
X16592Y9373D02*
X16682D01*
X16637Y9328D02*
Y9418D01*
X17735Y8865D02*
X17825D01*
X17780Y8820D02*
Y8910D01*
X17608Y9373D02*
X17698D01*
X17653Y9328D02*
Y9418D01*
X17481Y8865D02*
X17571D01*
X17526Y8820D02*
Y8910D01*
X17354Y9373D02*
X17444D01*
X17399Y9328D02*
Y9418D01*
X17227Y8865D02*
X17317D01*
X17272Y8820D02*
Y8910D01*
X17100Y9373D02*
X17190D01*
X17145Y9328D02*
Y9418D01*
X16465Y8865D02*
X16555D01*
X16510Y8820D02*
Y8910D01*
X16338Y9373D02*
X16428D01*
X16383Y9328D02*
Y9418D01*
X16211Y8865D02*
X16301D01*
X16256Y8820D02*
Y8910D01*
X16084Y9373D02*
X16174D01*
X16129Y9328D02*
Y9418D01*
X18715Y10452D02*
X19055D01*
X18885Y10282D02*
Y10622D01*
X12809Y9411D02*
X13149D01*
X12979Y9241D02*
Y9581D01*
X17783Y12967D02*
X17854D01*
X17818Y12931D02*
Y13002D01*
X18621Y10935D02*
X18692D01*
X18656Y10899D02*
Y10970D01*
X17465Y13449D02*
X17536D01*
X17501Y13414D02*
Y13485D01*
X13947Y10858D02*
X14018D01*
X13983Y10823D02*
Y10894D01*
X18006Y13127D02*
X18077D01*
X18041Y13092D02*
Y13163D01*
X13731Y11989D02*
X13802D01*
X13767Y11953D02*
Y12024D01*
M02*
