%FSAX42Y42*%
%MOMM*%
G71*
G01*
G75*
G04 Layer_Color=16711935*
%ADD10C,0.30*%
%ADD11C,1.30*%
%ADD12R,1.00X1.70*%
%ADD13R,1.50X1.50*%
%ADD14R,2.35X0.50*%
%ADD15R,2.50X2.35*%
%ADD16R,1.70X1.00*%
%ADD17O,0.55X1.75*%
%ADD18O,1.75X0.55*%
%ADD19R,0.90X1.55*%
%ADD20R,2.10X1.40*%
%ADD21R,1.55X0.90*%
%ADD22O,2.40X0.35*%
%ADD23R,1.50X1.50*%
%ADD24O,2.50X1.80*%
%ADD25R,2.50X1.80*%
%ADD26C,1.50*%
%ADD27C,1.40*%
%ADD28R,2.50X2.50*%
%ADD29C,2.50*%
%ADD30R,2.50X2.50*%
%ADD31C,1.30*%
%ADD32R,1.30X1.30*%
%ADD33C,1.57*%
%ADD34R,1.57X1.57*%
%ADD35R,1.57X1.57*%
%ADD36C,6.50*%
%ADD37C,1.27*%
%ADD38C,0.80*%
%ADD39C,0.25*%
%ADD40C,0.25*%
%ADD41C,0.60*%
%ADD42C,0.15*%
%ADD43C,0.20*%
%ADD44C,0.30*%
%ADD45R,1.90X0.80*%
%ADD46R,1.20X1.90*%
%ADD47R,1.70X1.70*%
%ADD48R,2.55X0.70*%
%ADD49R,2.70X2.55*%
%ADD50R,1.90X1.20*%
%ADD51O,0.75X1.95*%
%ADD52O,1.95X0.75*%
%ADD53R,1.10X1.75*%
%ADD54R,2.30X1.60*%
%ADD55R,1.75X1.10*%
%ADD56O,2.60X0.55*%
%ADD57R,1.70X1.70*%
%ADD58O,2.70X2.00*%
%ADD59R,2.70X2.00*%
%ADD60C,1.70*%
%ADD61C,1.60*%
%ADD62R,2.70X2.70*%
%ADD63C,2.70*%
%ADD64R,2.70X2.70*%
%ADD65C,1.50*%
%ADD66R,1.50X1.50*%
%ADD67C,1.78*%
%ADD68R,1.78X1.78*%
%ADD69R,1.78X1.78*%
%ADD70C,6.70*%
%ADD71C,1.47*%
%ADD72C,0.10*%
%ADD73C,0.15*%
D39*
X011766Y013602D02*
G03*
X011493Y013329I000000J-000273D01*
G01*
X019431Y013343D02*
G03*
X019172Y013602I-000259J000000D01*
G01*
X019193Y008623D02*
G03*
X019431Y008861I000000J000238D01*
G01*
X019385Y010452D02*
G03*
X019385Y010452I-000500J000000D01*
G01*
X013479Y009411D02*
G03*
X013479Y009411I-000500J000000D01*
G01*
X019210Y013602D02*
X020384D01*
X019231Y008623D02*
X020384D01*
X020358Y011468D02*
Y013602D01*
Y008623D02*
Y010676D01*
X020307Y013449D02*
X020358Y013602D01*
X020409Y013449D01*
X020358Y008623D02*
X020409Y008776D01*
X020307D02*
X020358Y008623D01*
X019431Y006680D02*
Y008823D01*
X011493Y006680D02*
Y008585D01*
X015818Y006706D02*
X019431D01*
X011493D02*
X015025D01*
X019279Y006756D02*
X019431Y006706D01*
X019279Y006655D02*
X019431Y006706D01*
X011493D02*
X011646Y006655D01*
X011493Y006706D02*
X011646Y006756D01*
X011493Y008623D02*
Y013329D01*
X011766Y013602D02*
X019172D01*
X019431Y008861D02*
Y013343D01*
X011493Y008623D02*
X019193D01*
D72*
X012827Y013264D02*
Y013304D01*
X012807Y013284D02*
X012847D01*
X016604Y012967D02*
X016644D01*
X016624Y012947D02*
Y012987D01*
X016604Y013233D02*
X016644D01*
X016624Y013213D02*
Y013253D01*
X018382Y013424D02*
X018422D01*
X018402Y013404D02*
Y013444D01*
D73*
X020475Y010793D02*
X020323D01*
X020399Y010716D01*
Y010818D01*
X020450Y010869D02*
X020475Y010894D01*
Y010945D01*
X020450Y010970D01*
X020348D01*
X020323Y010945D01*
Y010894D01*
X020348Y010869D01*
X020373D01*
X020399Y010894D01*
Y010970D01*
X020500Y011046D02*
X020475Y011072D01*
X020450D01*
Y011046D01*
X020475D01*
Y011072D01*
X020500Y011046D01*
X020526Y011021D01*
X020323Y011173D02*
Y011275D01*
X020348D01*
X020450Y011173D01*
X020475D01*
X020348Y011326D02*
X020323Y011351D01*
Y011402D01*
X020348Y011427D01*
X020373D01*
X020399Y011402D01*
X020424Y011427D01*
X020450D01*
X020475Y011402D01*
Y011351D01*
X020450Y011326D01*
X020424D01*
X020399Y011351D01*
X020373Y011326D01*
X020348D01*
X020399Y011351D02*
Y011402D01*
X015066Y006741D02*
X015168D01*
Y006716D01*
X015066Y006614D01*
Y006589D01*
X015218Y006614D02*
X015244Y006589D01*
X015295D01*
X015320Y006614D01*
Y006716D01*
X015295Y006741D01*
X015244D01*
X015218Y006716D01*
Y006690D01*
X015244Y006665D01*
X015320D01*
X015396Y006563D02*
X015422Y006589D01*
Y006614D01*
X015396D01*
Y006589D01*
X015422D01*
X015396Y006563D01*
X015371Y006538D01*
X015523Y006716D02*
X015549Y006741D01*
X015599D01*
X015625Y006716D01*
Y006690D01*
X015599Y006665D01*
X015574D01*
X015599D01*
X015625Y006640D01*
Y006614D01*
X015599Y006589D01*
X015549D01*
X015523Y006614D01*
X015676Y006716D02*
X015701Y006741D01*
X015752D01*
X015777Y006716D01*
Y006690D01*
X015752Y006665D01*
X015777Y006640D01*
Y006614D01*
X015752Y006589D01*
X015701D01*
X015676Y006614D01*
Y006640D01*
X015701Y006665D01*
X015676Y006690D01*
Y006716D01*
X015701Y006665D02*
X015752D01*
M02*
