%FSLAX42Y42*%
%MOMM*%
G71*
G01*
G75*
G04 Layer_Color=16711935*
%ADD10C,0.30*%
%ADD11C,1.30*%
%ADD12R,0.90X1.55*%
%ADD13R,1.55X0.90*%
%ADD14R,1.50X1.50*%
%ADD15O,2.40X0.35*%
%ADD16R,1.00X1.70*%
%ADD17R,1.70X1.00*%
%ADD18R,2.10X1.40*%
%ADD19O,1.75X0.55*%
%ADD20O,0.55X1.75*%
%ADD21R,2.35X0.50*%
%ADD22R,2.50X2.35*%
%ADD23R,1.50X1.50*%
%ADD24C,1.50*%
%ADD25R,1.57X1.57*%
%ADD26C,1.57*%
%ADD27R,1.57X1.57*%
%ADD28C,2.50*%
%ADD29R,2.50X2.50*%
%ADD30R,1.30X1.30*%
%ADD31C,1.30*%
%ADD32R,2.50X2.50*%
%ADD33C,6.90*%
%ADD34C,1.40*%
%ADD35R,2.50X1.80*%
%ADD36O,2.50X1.80*%
%ADD37C,1.27*%
%ADD38C,0.25*%
%ADD39C,0.60*%
%ADD40C,0.25*%
%ADD41C,0.15*%
%ADD42C,0.20*%
%ADD43C,0.30*%
%ADD44R,1.90X0.80*%
%ADD45R,1.10X1.75*%
%ADD46R,1.75X1.10*%
%ADD47R,1.70X1.70*%
%ADD48O,2.60X0.55*%
%ADD49R,1.20X1.90*%
%ADD50R,1.90X1.20*%
%ADD51R,2.30X1.60*%
%ADD52O,1.95X0.75*%
%ADD53O,0.75X1.95*%
%ADD54R,2.55X0.70*%
%ADD55R,2.70X2.55*%
%ADD56R,1.70X1.70*%
%ADD57C,1.70*%
%ADD58R,1.78X1.78*%
%ADD59C,1.78*%
%ADD60R,1.78X1.78*%
%ADD61C,2.70*%
%ADD62R,2.70X2.70*%
%ADD63R,1.50X1.50*%
%ADD64C,1.50*%
%ADD65R,2.70X2.70*%
%ADD66C,7.10*%
%ADD67C,1.60*%
%ADD68R,2.70X2.00*%
%ADD69O,2.70X2.00*%
%ADD70C,1.47*%
D47*
X14808Y11684D02*
D03*
Y11379D02*
D03*
X12423Y12344D02*
D03*
Y12645D02*
D03*
Y12946D02*
D03*
Y13246D02*
D03*
X17475Y12332D02*
D03*
X14808Y11989D02*
D03*
X11760Y11290D02*
D03*
X17907Y9372D02*
D03*
D56*
X13119Y12967D02*
D03*
X13449D02*
D03*
X13779D02*
D03*
X14110D02*
D03*
X18148Y10375D02*
D03*
X17386D02*
D03*
X16624D02*
D03*
X15900D02*
D03*
X17894Y9665D02*
D03*
X17653D02*
D03*
X16383D02*
D03*
X16142D02*
D03*
D57*
X13119Y13221D02*
D03*
Y13475D02*
D03*
X13449Y13221D02*
D03*
Y13475D02*
D03*
X13779Y13221D02*
D03*
Y13475D02*
D03*
X14110Y13221D02*
D03*
Y13475D02*
D03*
X15062Y11684D02*
D03*
X15316D02*
D03*
X15062Y11379D02*
D03*
X15316D02*
D03*
X12169Y12344D02*
D03*
X11915D02*
D03*
X12169Y12645D02*
D03*
X11915D02*
D03*
X12169Y12946D02*
D03*
X11915D02*
D03*
X12169Y13246D02*
D03*
X11915D02*
D03*
X16205Y12332D02*
D03*
X16459D02*
D03*
X16713D02*
D03*
X16967D02*
D03*
X17221D02*
D03*
X15062Y11989D02*
D03*
X15316D02*
D03*
X12014Y11290D02*
D03*
X12268D02*
D03*
X18148Y9665D02*
D03*
X17386D02*
D03*
X16624D02*
D03*
X15900D02*
D03*
X17780Y9118D02*
D03*
X17653Y9372D02*
D03*
X17526Y9118D02*
D03*
X17399Y9372D02*
D03*
X17272Y9118D02*
D03*
X17145Y9372D02*
D03*
X17018Y9118D02*
D03*
X16891Y9372D02*
D03*
X16764Y9118D02*
D03*
X16637Y9372D02*
D03*
X16510Y9118D02*
D03*
X16383Y9372D02*
D03*
X16256Y9118D02*
D03*
X16129Y9372D02*
D03*
X17894Y10375D02*
D03*
X17653D02*
D03*
X16383D02*
D03*
X16142D02*
D03*
D58*
X15049Y10071D02*
D03*
X17323Y11519D02*
D03*
D59*
X15049Y10579D02*
D03*
X12802Y9207D02*
D03*
X12256Y10566D02*
D03*
X17323Y11265D02*
D03*
X19126Y10592D02*
D03*
X19113Y9525D02*
D03*
D60*
X13310Y9207D02*
D03*
X11747Y10566D02*
D03*
X18872Y10592D02*
D03*
X18605Y9525D02*
D03*
D61*
X12294Y9325D02*
D03*
X14285Y9398D02*
D03*
X18644Y11630D02*
D03*
D62*
X12294Y9675D02*
D03*
X18644Y11280D02*
D03*
D63*
X14097Y10033D02*
D03*
Y10516D02*
D03*
D64*
X13897Y10033D02*
D03*
X13697D02*
D03*
X13497D02*
D03*
X13897Y10516D02*
D03*
X13697D02*
D03*
X13497D02*
D03*
D65*
X13935Y9398D02*
D03*
D66*
X17018Y7341D02*
D03*
D67*
X16878Y10655D02*
D03*
X16116D02*
D03*
X17132D02*
D03*
X17894D02*
D03*
D68*
X17958Y11392D02*
D03*
D69*
Y11646D02*
D03*
Y11900D02*
D03*
D70*
X16116Y11798D02*
D03*
X17780Y9944D02*
D03*
X13386Y12014D02*
D03*
X13691Y11671D02*
D03*
X11760Y11608D02*
D03*
X14415Y13221D02*
D03*
X14808Y12535D02*
D03*
X15596Y13068D02*
D03*
X17513Y13462D02*
D03*
X17818Y13043D02*
D03*
X15951Y12332D02*
D03*
X12586Y11278D02*
D03*
X18034Y12878D02*
D03*
M02*
