%FSAX42Y42*%
%MOMM*%
G71*
G01*
G75*
G04 Layer_Color=2752767*
%ADD10C,0.30*%
%ADD11C,1.30*%
%ADD12R,1.00X1.70*%
%ADD13R,1.50X1.50*%
%ADD14R,2.35X0.50*%
%ADD15R,2.50X2.35*%
%ADD16R,1.70X1.00*%
%ADD17O,0.55X1.75*%
%ADD18O,1.75X0.55*%
%ADD19R,0.90X1.55*%
%ADD20R,2.10X1.40*%
%ADD21R,1.55X0.90*%
%ADD22O,2.40X0.35*%
%ADD23R,1.50X1.50*%
%ADD24O,2.50X1.80*%
%ADD25R,2.50X1.80*%
%ADD26C,1.50*%
%ADD27C,1.40*%
%ADD28R,2.50X2.50*%
%ADD29C,2.50*%
%ADD30R,2.50X2.50*%
%ADD31C,1.30*%
%ADD32R,1.30X1.30*%
%ADD33C,1.57*%
%ADD34R,1.57X1.57*%
%ADD35R,1.57X1.57*%
%ADD36C,6.50*%
%ADD37C,1.27*%
%ADD38C,0.80*%
%ADD39C,0.25*%
%ADD40C,0.25*%
%ADD41C,0.60*%
%ADD42C,0.15*%
%ADD43C,0.20*%
%ADD44C,0.30*%
%ADD45R,1.90X0.80*%
%ADD46R,1.20X1.90*%
%ADD47R,1.70X1.70*%
%ADD48R,2.55X0.70*%
%ADD49R,2.70X2.55*%
%ADD50R,1.90X1.20*%
%ADD51O,0.75X1.95*%
%ADD52O,1.95X0.75*%
%ADD53R,1.10X1.75*%
%ADD54R,2.30X1.60*%
%ADD55R,1.75X1.10*%
%ADD56O,2.60X0.55*%
%ADD57R,1.70X1.70*%
%ADD58O,2.70X2.00*%
%ADD59R,2.70X2.00*%
%ADD60C,1.70*%
%ADD61C,1.60*%
%ADD62R,2.70X2.70*%
%ADD63C,2.70*%
%ADD64R,2.70X2.70*%
%ADD65C,1.50*%
%ADD66R,1.50X1.50*%
%ADD67C,1.78*%
%ADD68R,1.78X1.78*%
%ADD69R,1.78X1.78*%
%ADD70C,6.70*%
%ADD71C,1.47*%
%ADD72C,0.10*%
%ADD73C,0.15*%
%ADD74R,9.50X8.00*%
%ADD75C,0.13*%
%ADD76C,0.17*%
D75*
X017869Y012040D02*
Y012141D01*
X017971D01*
Y012040D01*
X017869D01*
Y011786D02*
Y011887D01*
X017971D01*
Y011786D01*
X017869D01*
Y011532D02*
Y011633D01*
X017971D01*
Y011532D01*
X017869D01*
X017894Y010604D02*
X017843Y010706D01*
X017945D01*
X017894Y010604D01*
X017132D02*
X017082Y010706D01*
X017183D01*
X017132Y010604D01*
X016116D02*
X016065Y010706D01*
X016167D01*
X016116Y010604D01*
X016878D02*
X016827Y010706D01*
X016929D01*
X016878Y010604D01*
X018644Y011230D02*
X018669Y011255D01*
X018694D01*
X018669Y011280D01*
X018694Y011306D01*
X018669D01*
X018644Y011331D01*
X018618Y011306D01*
X018593D01*
X018618Y011280D01*
X018593Y011255D01*
X018618D01*
X018644Y011230D01*
Y011580D02*
X018669Y011605D01*
X018694D01*
X018669Y011630D01*
X018694Y011656D01*
X018669D01*
X018644Y011681D01*
X018618Y011656D01*
X018593D01*
X018618Y011630D01*
X018593Y011605D01*
X018618D01*
X018644Y011580D01*
X014684Y009347D02*
X014709Y009373D01*
X014735D01*
X014709Y009398D01*
X014735Y009423D01*
X014709D01*
X014684Y009449D01*
X014659Y009423D01*
X014633D01*
X014659Y009398D01*
X014633Y009373D01*
X014659D01*
X014684Y009347D01*
X015034D02*
X015059Y009373D01*
X015085D01*
X015059Y009398D01*
X015085Y009423D01*
X015059D01*
X015034Y009449D01*
X015009Y009423D01*
X014983D01*
X015009Y009398D01*
X014983Y009373D01*
X015009D01*
X015034Y009347D01*
X013446Y010465D02*
X013472Y010516D01*
X013446Y010566D01*
X013497Y010541D01*
X013548Y010566D01*
X013522Y010516D01*
X013548Y010465D01*
X013497Y010490D01*
X013446Y010465D01*
X013646D02*
X013672Y010516D01*
X013646Y010566D01*
X013697Y010541D01*
X013748Y010566D01*
X013722Y010516D01*
X013748Y010465D01*
X013697Y010490D01*
X013646Y010465D01*
X013846D02*
X013872Y010516D01*
X013846Y010566D01*
X013897Y010541D01*
X013948Y010566D01*
X013922Y010516D01*
X013948Y010465D01*
X013897Y010490D01*
X013846Y010465D01*
X014046D02*
X014072Y010516D01*
X014046Y010566D01*
X014097Y010541D01*
X014148Y010566D01*
X014122Y010516D01*
X014148Y010465D01*
X014097Y010490D01*
X014046Y010465D01*
X013446Y009982D02*
X013472Y010033D01*
X013446Y010084D01*
X013497Y010058D01*
X013548Y010084D01*
X013522Y010033D01*
X013548Y009982D01*
X013497Y010008D01*
X013446Y009982D01*
X013646D02*
X013672Y010033D01*
X013646Y010084D01*
X013697Y010058D01*
X013748Y010084D01*
X013722Y010033D01*
X013748Y009982D01*
X013697Y010008D01*
X013646Y009982D01*
X013846D02*
X013872Y010033D01*
X013846Y010084D01*
X013897Y010058D01*
X013948Y010084D01*
X013922Y010033D01*
X013948Y009982D01*
X013897Y010008D01*
X013846Y009982D01*
X014046D02*
X014072Y010033D01*
X014046Y010084D01*
X014097Y010058D01*
X014148Y010084D01*
X014122Y010033D01*
X014148Y009982D01*
X014097Y010008D01*
X014046Y009982D01*
X019113Y009627D02*
Y009601D01*
X019164D01*
Y009627D01*
X019190D01*
Y009677D01*
X019164D01*
Y009703D01*
X019113D01*
Y009677D01*
X019088D01*
Y009627D01*
X019113D01*
X018605D02*
Y009601D01*
X018656D01*
Y009627D01*
X018682D01*
Y009677D01*
X018656D01*
Y009703D01*
X018605D01*
Y009677D01*
X018580D01*
Y009627D01*
X018605D01*
X014808Y012560D02*
Y012535D01*
X014859D01*
Y012560D01*
X014884D01*
Y012611D01*
X014859D01*
Y012636D01*
X014808D01*
Y012611D01*
X014783D01*
Y012560D01*
X014808D01*
X014554D02*
Y012535D01*
X014605D01*
Y012560D01*
X014630D01*
Y012611D01*
X014605D01*
Y012636D01*
X014554D01*
Y012611D01*
X014529D01*
Y012560D01*
X014554D01*
X014592Y013475D02*
Y013449D01*
X014643D01*
Y013475D01*
X014668D01*
Y013526D01*
X014643D01*
Y013551D01*
X014592D01*
Y013526D01*
X014567D01*
Y013475D01*
X014592D01*
Y013221D02*
Y013195D01*
X014643D01*
Y013221D01*
X014668D01*
Y013271D01*
X014643D01*
Y013297D01*
X014592D01*
Y013271D01*
X014567D01*
Y013221D01*
X014592D01*
X012205Y010046D02*
Y010020D01*
X012256D01*
Y010046D01*
X012281D01*
Y010096D01*
X012256D01*
Y010122D01*
X012205D01*
Y010096D01*
X012179D01*
Y010046D01*
X012205D01*
X011697D02*
Y010020D01*
X011747D01*
Y010046D01*
X011773D01*
Y010096D01*
X011747D01*
Y010122D01*
X011697D01*
Y010096D01*
X011671D01*
Y010046D01*
X011697D01*
X011776Y009360D02*
X011801Y009385D01*
X011826D01*
X011801Y009411D01*
X011826Y009436D01*
X011801D01*
X011776Y009461D01*
X011750Y009436D01*
X011725D01*
X011750Y009411D01*
X011725Y009385D01*
X011750D01*
X011776Y009360D01*
X012126D02*
X012151Y009385D01*
X012176D01*
X012151Y009411D01*
X012176Y009436D01*
X012151D01*
X012126Y009461D01*
X012100Y009436D01*
X012075D01*
X012100Y009411D01*
X012075Y009385D01*
X012100D01*
X012126Y009360D01*
X011709Y011608D02*
Y011582D01*
X011760D01*
Y011608D01*
X011786D01*
Y011659D01*
X011760D01*
Y011684D01*
X011709D01*
Y011659D01*
X011684D01*
Y011608D01*
X011709D01*
X012217D02*
Y011582D01*
X012268D01*
Y011608D01*
X012294D01*
Y011659D01*
X012268D01*
Y011684D01*
X012217D01*
Y011659D01*
X012192D01*
Y011608D01*
X012217D01*
X015049Y010528D02*
X014999Y010630D01*
X015100D01*
X015049Y010528D01*
Y010020D02*
X014999Y010122D01*
X015100D01*
X015049Y010020D01*
X018834Y010401D02*
X018860D01*
X018885Y010427D01*
X018910Y010401D01*
X018936D01*
Y010427D01*
X018910Y010452D01*
X018936Y010478D01*
Y010503D01*
X018910D01*
X018885Y010478D01*
X018860Y010503D01*
X018834D01*
Y010478D01*
X018860Y010452D01*
X018834Y010427D01*
Y010401D01*
X012929Y009360D02*
X012954D01*
X012979Y009385D01*
X013005Y009360D01*
X013030D01*
Y009385D01*
X013005Y009411D01*
X013030Y009436D01*
Y009461D01*
X013005D01*
X012979Y009436D01*
X012954Y009461D01*
X012929D01*
Y009436D01*
X012954Y009411D01*
X012929Y009385D01*
Y009360D01*
X017767Y012967D02*
X017818Y013018D01*
X017869Y012967D01*
X017818Y012916D01*
X017767Y012967D01*
X018605Y010935D02*
X018656Y010986D01*
X018707Y010935D01*
X018656Y010884D01*
X018605Y010935D01*
X017450Y013449D02*
X017501Y013500D01*
X017551Y013449D01*
X017501Y013399D01*
X017450Y013449D01*
X013932Y010858D02*
X013983Y010909D01*
X014034Y010858D01*
X013983Y010808D01*
X013932Y010858D01*
X017991Y013127D02*
X018041Y013178D01*
X018092Y013127D01*
X018041Y013076D01*
X017991Y013127D01*
X013716Y011989D02*
X013767Y012040D01*
X013818Y011989D01*
X013767Y011938D01*
X013716Y011989D01*
D76*
X016193Y010375D02*
G03*
X016193Y010375I-000051J000000D01*
G01*
Y009665D02*
G03*
X016193Y009665I-000051J000000D01*
G01*
X016434Y010375D02*
G03*
X016434Y010375I-000051J000000D01*
G01*
Y009665D02*
G03*
X016434Y009665I-000051J000000D01*
G01*
X017704Y010375D02*
G03*
X017704Y010375I-000051J000000D01*
G01*
Y009665D02*
G03*
X017704Y009665I-000051J000000D01*
G01*
X017945Y010375D02*
G03*
X017945Y010375I-000051J000000D01*
G01*
Y009665D02*
G03*
X017945Y009665I-000051J000000D01*
G01*
X015951D02*
G03*
X015951Y009665I-000051J000000D01*
G01*
Y010375D02*
G03*
X015951Y010375I-000051J000000D01*
G01*
X016675Y009665D02*
G03*
X016675Y009665I-000051J000000D01*
G01*
Y010375D02*
G03*
X016675Y010375I-000051J000000D01*
G01*
X017437Y009665D02*
G03*
X017437Y009665I-000051J000000D01*
G01*
Y010375D02*
G03*
X017437Y010375I-000051J000000D01*
G01*
X018199Y009665D02*
G03*
X018199Y009665I-000051J000000D01*
G01*
Y010375D02*
G03*
X018199Y010375I-000051J000000D01*
G01*
X012294Y010706D02*
G03*
X012294Y010706I-000051J000000D01*
G01*
X012040D02*
G03*
X012040Y010706I-000051J000000D01*
G01*
X011786D02*
G03*
X011786Y010706I-000051J000000D01*
G01*
X015367Y011989D02*
G03*
X015367Y011989I-000051J000000D01*
G01*
X015113D02*
G03*
X015113Y011989I-000051J000000D01*
G01*
X014859D02*
G03*
X014859Y011989I-000051J000000D01*
G01*
X017526Y012332D02*
G03*
X017526Y012332I-000051J000000D01*
G01*
X017272D02*
G03*
X017272Y012332I-000051J000000D01*
G01*
X017018D02*
G03*
X017018Y012332I-000051J000000D01*
G01*
X016764D02*
G03*
X016764Y012332I-000051J000000D01*
G01*
X016510D02*
G03*
X016510Y012332I-000051J000000D01*
G01*
X016256D02*
G03*
X016256Y012332I-000051J000000D01*
G01*
X011966Y013246D02*
G03*
X011966Y013246I-000051J000000D01*
G01*
X012220D02*
G03*
X012220Y013246I-000051J000000D01*
G01*
X012474D02*
G03*
X012474Y013246I-000051J000000D01*
G01*
X011966Y012946D02*
G03*
X011966Y012946I-000051J000000D01*
G01*
X012220D02*
G03*
X012220Y012946I-000051J000000D01*
G01*
X012474D02*
G03*
X012474Y012946I-000051J000000D01*
G01*
X011966Y012645D02*
G03*
X011966Y012645I-000051J000000D01*
G01*
X012220D02*
G03*
X012220Y012645I-000051J000000D01*
G01*
X012474D02*
G03*
X012474Y012645I-000051J000000D01*
G01*
X011966Y012344D02*
G03*
X011966Y012344I-000051J000000D01*
G01*
X012220D02*
G03*
X012220Y012344I-000051J000000D01*
G01*
X012474D02*
G03*
X012474Y012344I-000051J000000D01*
G01*
X015367Y011379D02*
G03*
X015367Y011379I-000051J000000D01*
G01*
X015113D02*
G03*
X015113Y011379I-000051J000000D01*
G01*
X014859D02*
G03*
X014859Y011379I-000051J000000D01*
G01*
X015367Y011684D02*
G03*
X015367Y011684I-000051J000000D01*
G01*
X015113D02*
G03*
X015113Y011684I-000051J000000D01*
G01*
X014859D02*
G03*
X014859Y011684I-000051J000000D01*
G01*
X014160Y013475D02*
G03*
X014160Y013475I-000051J000000D01*
G01*
Y013221D02*
G03*
X014160Y013221I-000051J000000D01*
G01*
Y012967D02*
G03*
X014160Y012967I-000051J000000D01*
G01*
X013830Y013475D02*
G03*
X013830Y013475I-000051J000000D01*
G01*
Y013221D02*
G03*
X013830Y013221I-000051J000000D01*
G01*
Y012967D02*
G03*
X013830Y012967I-000051J000000D01*
G01*
X013500Y013475D02*
G03*
X013500Y013475I-000051J000000D01*
G01*
Y013221D02*
G03*
X013500Y013221I-000051J000000D01*
G01*
Y012967D02*
G03*
X013500Y012967I-000051J000000D01*
G01*
X013170Y013475D02*
G03*
X013170Y013475I-000051J000000D01*
G01*
Y013221D02*
G03*
X013170Y013221I-000051J000000D01*
G01*
Y012967D02*
G03*
X013170Y012967I-000051J000000D01*
G01*
X017958Y009373D02*
G03*
X017958Y009373I-000051J000000D01*
G01*
X017069Y008865D02*
G03*
X017069Y008865I-000051J000000D01*
G01*
X016942Y009373D02*
G03*
X016942Y009373I-000051J000000D01*
G01*
X016815Y008865D02*
G03*
X016815Y008865I-000051J000000D01*
G01*
X016688Y009373D02*
G03*
X016688Y009373I-000051J000000D01*
G01*
X017831Y008865D02*
G03*
X017831Y008865I-000051J000000D01*
G01*
X017704Y009373D02*
G03*
X017704Y009373I-000051J000000D01*
G01*
X017577Y008865D02*
G03*
X017577Y008865I-000051J000000D01*
G01*
X017450Y009373D02*
G03*
X017450Y009373I-000051J000000D01*
G01*
X017323Y008865D02*
G03*
X017323Y008865I-000051J000000D01*
G01*
X017196Y009373D02*
G03*
X017196Y009373I-000051J000000D01*
G01*
X016561Y008865D02*
G03*
X016561Y008865I-000051J000000D01*
G01*
X016434Y009373D02*
G03*
X016434Y009373I-000051J000000D01*
G01*
X016307Y008865D02*
G03*
X016307Y008865I-000051J000000D01*
G01*
X016180Y009373D02*
G03*
X016180Y009373I-000051J000000D01*
G01*
M02*
