%FSLAX42Y42*%
%MOMM*%
G71*
G01*
G75*
G04 Layer_Physical_Order=2*
G04 Layer_Color=16711680*
%ADD10C,0.30*%
%ADD11C,1.30*%
%ADD12R,0.90X1.55*%
%ADD13R,1.55X0.90*%
%ADD14R,1.50X1.50*%
%ADD15O,2.40X0.35*%
%ADD16R,1.00X1.70*%
%ADD17R,1.70X1.00*%
%ADD18R,2.10X1.40*%
%ADD19O,1.75X0.55*%
%ADD20O,0.55X1.75*%
%ADD21R,2.35X0.50*%
%ADD22R,2.50X2.35*%
%ADD23R,1.50X1.50*%
%ADD24C,6.50*%
%ADD25C,1.50*%
%ADD26R,1.57X1.57*%
%ADD27C,1.57*%
%ADD28R,1.57X1.57*%
%ADD29C,2.50*%
%ADD30R,2.50X2.50*%
%ADD31R,1.30X1.30*%
%ADD32C,1.30*%
%ADD33R,2.50X2.50*%
%ADD34C,1.40*%
%ADD35R,2.50X1.80*%
%ADD36O,2.50X1.80*%
%ADD37C,1.27*%
%ADD38C,0.80*%
G36*
X14509Y13602D02*
Y13602D01*
D01*
Y13391D01*
X14726D01*
Y13593D01*
Y13593D01*
X14735Y13602D01*
X18885Y13602D01*
X19177D01*
Y13602D01*
X19178Y13603D01*
X19227Y13598D01*
X19275Y13584D01*
X19319Y13560D01*
X19357Y13528D01*
X19389Y13489D01*
X19413Y13445D01*
X19427Y13397D01*
X19432Y13348D01*
X19431Y9703D01*
Y8877D01*
X19431D01*
X19432Y8876D01*
X19427Y8828D01*
X19413Y8780D01*
X19389Y8736D01*
X19357Y8697D01*
X19319Y8665D01*
X19275Y8641D01*
X19227Y8627D01*
X19177Y8622D01*
X11493Y8623D01*
Y12421D01*
Y13348D01*
X11493D01*
X11492Y13349D01*
X11497Y13397D01*
X11512Y13445D01*
X11535Y13489D01*
X11567Y13528D01*
X11606Y13560D01*
X11650Y13584D01*
X11698Y13598D01*
X11747Y13603D01*
X14509Y13602D01*
D02*
G37*
%LPC*%
G36*
X17882Y10480D02*
X17867Y10478D01*
X17841Y10467D01*
X17819Y10450D01*
X17803Y10428D01*
X17792Y10403D01*
X17790Y10388D01*
X17882D01*
Y10480D01*
D02*
G37*
G36*
X17907D02*
Y10388D01*
X17999D01*
X17997Y10403D01*
X17986Y10428D01*
X17969Y10450D01*
X17947Y10467D01*
X17922Y10478D01*
X17907Y10480D01*
D02*
G37*
G36*
X17666D02*
Y10388D01*
X17757D01*
X17755Y10403D01*
X17745Y10428D01*
X17728Y10450D01*
X17706Y10467D01*
X17680Y10478D01*
X17666Y10480D01*
D02*
G37*
G36*
X16396D02*
Y10388D01*
X16487D01*
X16485Y10403D01*
X16475Y10428D01*
X16458Y10450D01*
X16436Y10467D01*
X16410Y10478D01*
X16396Y10480D01*
D02*
G37*
G36*
X17640D02*
X17626Y10478D01*
X17600Y10467D01*
X17578Y10450D01*
X17561Y10428D01*
X17551Y10403D01*
X17549Y10388D01*
X17640D01*
Y10480D01*
D02*
G37*
G36*
X17132Y10756D02*
X17106Y10753D01*
X17082Y10743D01*
X17061Y10727D01*
X17045Y10706D01*
X17035Y10681D01*
X17031Y10655D01*
X17035Y10629D01*
X17045Y10605D01*
X17061Y10584D01*
X17082Y10568D01*
X17106Y10558D01*
X17132Y10554D01*
X17158Y10558D01*
X17183Y10568D01*
X17204Y10584D01*
X17220Y10605D01*
X17230Y10629D01*
X17233Y10655D01*
X17230Y10681D01*
X17220Y10706D01*
X17204Y10727D01*
X17183Y10743D01*
X17158Y10753D01*
X17132Y10756D01*
D02*
G37*
G36*
X16104Y10643D02*
X16017D01*
X16019Y10629D01*
X16029Y10605D01*
X16045Y10584D01*
X16066Y10568D01*
X16090Y10558D01*
X16104Y10556D01*
Y10643D01*
D02*
G37*
G36*
X16878Y10756D02*
X16852Y10753D01*
X16828Y10743D01*
X16807Y10727D01*
X16791Y10706D01*
X16781Y10681D01*
X16777Y10655D01*
X16781Y10629D01*
X16791Y10605D01*
X16807Y10584D01*
X16828Y10568D01*
X16852Y10558D01*
X16878Y10554D01*
X16904Y10558D01*
X16929Y10568D01*
X16950Y10584D01*
X16966Y10605D01*
X16976Y10629D01*
X16979Y10655D01*
X16976Y10681D01*
X16966Y10706D01*
X16950Y10727D01*
X16929Y10743D01*
X16904Y10753D01*
X16878Y10756D01*
D02*
G37*
G36*
X15037Y10566D02*
X14941D01*
X14944Y10551D01*
X14955Y10524D01*
X14972Y10502D01*
X14995Y10484D01*
X15021Y10473D01*
X15037Y10471D01*
Y10566D01*
D02*
G37*
G36*
X15158D02*
X15062D01*
Y10471D01*
X15078Y10473D01*
X15104Y10484D01*
X15127Y10502D01*
X15144Y10524D01*
X15155Y10551D01*
X15158Y10566D01*
D02*
G37*
G36*
X13697Y10129D02*
X13672Y10126D01*
X13649Y10116D01*
X13629Y10101D01*
X13614Y10081D01*
X13604Y10058D01*
X13603Y10049D01*
X13591D01*
X13590Y10058D01*
X13580Y10081D01*
X13565Y10101D01*
X13545Y10116D01*
X13522Y10126D01*
X13497Y10129D01*
X13472Y10126D01*
X13449Y10116D01*
X13429Y10101D01*
X13414Y10081D01*
X13404Y10058D01*
X13401Y10033D01*
X13404Y10008D01*
X13414Y9985D01*
X13429Y9965D01*
X13449Y9950D01*
X13472Y9940D01*
X13497Y9937D01*
X13522Y9940D01*
X13545Y9950D01*
X13565Y9965D01*
X13580Y9985D01*
X13590Y10008D01*
X13591Y10017D01*
X13603D01*
X13604Y10008D01*
X13614Y9985D01*
X13629Y9965D01*
X13649Y9950D01*
X13672Y9940D01*
X13697Y9937D01*
X13722Y9940D01*
X13745Y9950D01*
X13765Y9965D01*
X13780Y9985D01*
X13790Y10008D01*
X13791Y10017D01*
X13803D01*
X13804Y10008D01*
X13814Y9985D01*
X13829Y9965D01*
X13849Y9950D01*
X13872Y9940D01*
X13884Y9939D01*
Y10033D01*
Y10127D01*
X13872Y10126D01*
X13849Y10116D01*
X13829Y10101D01*
X13814Y10081D01*
X13804Y10058D01*
X13803Y10049D01*
X13791D01*
X13790Y10058D01*
X13780Y10081D01*
X13765Y10101D01*
X13745Y10116D01*
X13722Y10126D01*
X13697Y10129D01*
D02*
G37*
G36*
X12217Y10179D02*
X12202Y10177D01*
X12175Y10166D01*
X12153Y10149D01*
X12135Y10126D01*
X12124Y10099D01*
X12122Y10084D01*
X12217D01*
Y10179D01*
D02*
G37*
G36*
X12338Y10058D02*
X12243D01*
Y9963D01*
X12258Y9965D01*
X12285Y9976D01*
X12308Y9994D01*
X12325Y10016D01*
X12336Y10043D01*
X12338Y10058D01*
D02*
G37*
G36*
X11831Y10180D02*
X11613D01*
Y9962D01*
X11831D01*
Y10180D01*
D02*
G37*
G36*
X12217Y10058D02*
X12122D01*
X12124Y10043D01*
X12135Y10016D01*
X12153Y9994D01*
X12175Y9976D01*
X12202Y9965D01*
X12217Y9963D01*
Y10058D01*
D02*
G37*
G36*
X16154Y10480D02*
Y10388D01*
X16246D01*
X16244Y10403D01*
X16233Y10428D01*
X16217Y10450D01*
X16195Y10467D01*
X16169Y10478D01*
X16154Y10480D01*
D02*
G37*
G36*
X16370D02*
X16356Y10478D01*
X16330Y10467D01*
X16308Y10450D01*
X16291Y10428D01*
X16281Y10403D01*
X16279Y10388D01*
X16370D01*
Y10480D01*
D02*
G37*
G36*
X16129D02*
X16114Y10478D01*
X16089Y10467D01*
X16067Y10450D01*
X16050Y10428D01*
X16039Y10403D01*
X16037Y10388D01*
X16129D01*
Y10480D01*
D02*
G37*
G36*
X12243Y10179D02*
Y10084D01*
X12338D01*
X12336Y10099D01*
X12325Y10126D01*
X12308Y10149D01*
X12285Y10166D01*
X12258Y10177D01*
X12243Y10179D01*
D02*
G37*
G36*
X18885Y10808D02*
X18829Y10804D01*
X18775Y10791D01*
X18723Y10769D01*
X18676Y10740D01*
X18633Y10704D01*
X18597Y10661D01*
X18568Y10614D01*
X18546Y10562D01*
X18533Y10508D01*
X18529Y10452D01*
X18533Y10396D01*
X18546Y10342D01*
X18568Y10290D01*
X18597Y10243D01*
X18633Y10200D01*
X18676Y10164D01*
X18723Y10135D01*
X18775Y10113D01*
X18829Y10100D01*
X18885Y10096D01*
X18941Y10100D01*
X18995Y10113D01*
X19047Y10135D01*
X19094Y10164D01*
X19137Y10200D01*
X19173Y10243D01*
X19202Y10290D01*
X19224Y10342D01*
X19237Y10396D01*
X19241Y10452D01*
X19237Y10508D01*
X19224Y10562D01*
X19202Y10614D01*
X19173Y10661D01*
X19137Y10704D01*
X19094Y10740D01*
X19047Y10769D01*
X18995Y10791D01*
X18941Y10804D01*
X18885Y10808D01*
D02*
G37*
G36*
X12230Y10810D02*
X12215Y10808D01*
X12190Y10798D01*
X12168Y10781D01*
X12151Y10759D01*
X12141Y10734D01*
X12139Y10719D01*
X12230D01*
Y10810D01*
D02*
G37*
G36*
X12256D02*
Y10719D01*
X12347D01*
X12345Y10734D01*
X12335Y10759D01*
X12318Y10781D01*
X12296Y10798D01*
X12270Y10808D01*
X12256Y10810D01*
D02*
G37*
G36*
X17907Y10754D02*
Y10668D01*
X17993D01*
X17992Y10681D01*
X17982Y10706D01*
X17966Y10727D01*
X17945Y10743D01*
X17920Y10753D01*
X17907Y10754D01*
D02*
G37*
G36*
X16129D02*
Y10668D01*
X16215D01*
X16214Y10681D01*
X16204Y10706D01*
X16188Y10727D01*
X16167Y10743D01*
X16142Y10753D01*
X16129Y10754D01*
D02*
G37*
G36*
X17882D02*
X17868Y10753D01*
X17844Y10743D01*
X17823Y10727D01*
X17807Y10706D01*
X17797Y10681D01*
X17795Y10668D01*
X17882D01*
Y10754D01*
D02*
G37*
G36*
X13995Y10951D02*
Y10871D01*
X14075D01*
X14074Y10883D01*
X14064Y10906D01*
X14049Y10925D01*
X14030Y10940D01*
X14007Y10950D01*
X13995Y10951D01*
D02*
G37*
G36*
X18644Y11027D02*
X18632Y11026D01*
X18609Y11016D01*
X18590Y11001D01*
X18575Y10982D01*
X18565Y10959D01*
X18564Y10947D01*
X18644D01*
Y11027D01*
D02*
G37*
G36*
X13970Y10951D02*
X13958Y10950D01*
X13936Y10940D01*
X13916Y10925D01*
X13901Y10906D01*
X13892Y10883D01*
X13890Y10871D01*
X13970D01*
Y10951D01*
D02*
G37*
G36*
X18644Y10922D02*
X18564D01*
X18565Y10910D01*
X18575Y10888D01*
X18590Y10868D01*
X18609Y10853D01*
X18632Y10844D01*
X18644Y10842D01*
Y10922D01*
D02*
G37*
G36*
X18749D02*
X18669D01*
Y10842D01*
X18681Y10844D01*
X18703Y10853D01*
X18723Y10868D01*
X18738Y10888D01*
X18747Y10910D01*
X18749Y10922D01*
D02*
G37*
G36*
X15037Y10687D02*
X15021Y10685D01*
X14995Y10674D01*
X14972Y10657D01*
X14955Y10634D01*
X14944Y10607D01*
X14941Y10592D01*
X15037D01*
Y10687D01*
D02*
G37*
G36*
X15062D02*
Y10592D01*
X15158D01*
X15155Y10607D01*
X15144Y10634D01*
X15127Y10657D01*
X15104Y10674D01*
X15078Y10685D01*
X15062Y10687D01*
D02*
G37*
G36*
X17993Y10643D02*
X17907D01*
Y10556D01*
X17920Y10558D01*
X17945Y10568D01*
X17966Y10584D01*
X17982Y10605D01*
X17992Y10629D01*
X17993Y10643D01*
D02*
G37*
G36*
X16215D02*
X16129D01*
Y10556D01*
X16142Y10558D01*
X16167Y10568D01*
X16188Y10584D01*
X16204Y10605D01*
X16214Y10629D01*
X16215Y10643D01*
D02*
G37*
G36*
X17882D02*
X17795D01*
X17797Y10629D01*
X17807Y10605D01*
X17823Y10584D01*
X17844Y10568D01*
X17868Y10558D01*
X17882Y10556D01*
Y10643D01*
D02*
G37*
G36*
X12347Y10693D02*
X12256D01*
Y10602D01*
X12270Y10604D01*
X12296Y10614D01*
X12318Y10631D01*
X12335Y10653D01*
X12345Y10679D01*
X12347Y10693D01*
D02*
G37*
G36*
X16104Y10754D02*
X16090Y10753D01*
X16066Y10743D01*
X16045Y10727D01*
X16029Y10706D01*
X16019Y10681D01*
X16017Y10668D01*
X16104D01*
Y10754D01*
D02*
G37*
G36*
X12230Y10693D02*
X12139D01*
X12141Y10679D01*
X12151Y10653D01*
X12168Y10631D01*
X12190Y10614D01*
X12215Y10604D01*
X12230Y10602D01*
Y10693D01*
D02*
G37*
G36*
X11989Y10812D02*
X11961Y10808D01*
X11936Y10798D01*
X11914Y10781D01*
X11897Y10759D01*
X11887Y10734D01*
X11883Y10706D01*
X11887Y10679D01*
X11897Y10653D01*
X11914Y10631D01*
X11936Y10614D01*
X11961Y10604D01*
X11989Y10600D01*
X12016Y10604D01*
X12042Y10614D01*
X12064Y10631D01*
X12081Y10653D01*
X12091Y10679D01*
X12095Y10706D01*
X12091Y10734D01*
X12081Y10759D01*
X12064Y10781D01*
X12042Y10798D01*
X12016Y10808D01*
X11989Y10812D01*
D02*
G37*
G36*
X11840Y10811D02*
X11630D01*
Y10601D01*
X11840D01*
Y10811D01*
D02*
G37*
G36*
X19152Y9760D02*
Y9665D01*
X19247D01*
X19245Y9680D01*
X19234Y9707D01*
X19216Y9730D01*
X19194Y9747D01*
X19167Y9758D01*
X19152Y9760D01*
D02*
G37*
G36*
X16383Y9479D02*
X16356Y9475D01*
X16330Y9464D01*
X16308Y9447D01*
X16291Y9426D01*
X16281Y9400D01*
X16277Y9373D01*
X16281Y9345D01*
X16291Y9320D01*
X16308Y9298D01*
X16330Y9281D01*
X16356Y9270D01*
X16383Y9267D01*
X16410Y9270D01*
X16436Y9281D01*
X16458Y9298D01*
X16475Y9320D01*
X16485Y9345D01*
X16489Y9373D01*
X16485Y9400D01*
X16475Y9426D01*
X16458Y9447D01*
X16436Y9464D01*
X16410Y9475D01*
X16383Y9479D01*
D02*
G37*
G36*
X17145D02*
X17118Y9475D01*
X17092Y9464D01*
X17070Y9447D01*
X17053Y9426D01*
X17043Y9400D01*
X17039Y9373D01*
X17043Y9345D01*
X17053Y9320D01*
X17070Y9298D01*
X17092Y9281D01*
X17118Y9270D01*
X17145Y9267D01*
X17172Y9270D01*
X17198Y9281D01*
X17220Y9298D01*
X17237Y9320D01*
X17247Y9345D01*
X17251Y9373D01*
X17247Y9400D01*
X17237Y9426D01*
X17220Y9447D01*
X17198Y9464D01*
X17172Y9475D01*
X17145Y9479D01*
D02*
G37*
G36*
X12280Y9398D02*
X12138D01*
Y9256D01*
X12156Y9258D01*
X12185Y9267D01*
X12212Y9281D01*
X12236Y9301D01*
X12255Y9324D01*
X12270Y9351D01*
X12278Y9380D01*
X12280Y9398D01*
D02*
G37*
G36*
X11931Y9566D02*
X11621D01*
Y9256D01*
X11931D01*
Y9566D01*
D02*
G37*
G36*
X12113Y9398D02*
X11971D01*
X11973Y9380D01*
X11982Y9351D01*
X11996Y9324D01*
X12016Y9301D01*
X12039Y9281D01*
X12066Y9267D01*
X12095Y9258D01*
X12113Y9256D01*
Y9398D01*
D02*
G37*
G36*
X18012Y9360D02*
X17920D01*
Y9268D01*
X18012D01*
Y9360D01*
D02*
G37*
G36*
X16116D02*
X16025D01*
X16027Y9345D01*
X16037Y9320D01*
X16054Y9298D01*
X16076Y9281D01*
X16102Y9270D01*
X16116Y9268D01*
Y9360D01*
D02*
G37*
G36*
X17894D02*
X17802D01*
Y9268D01*
X17894D01*
Y9360D01*
D02*
G37*
G36*
X17399Y9479D02*
X17372Y9475D01*
X17346Y9464D01*
X17324Y9447D01*
X17307Y9426D01*
X17297Y9400D01*
X17293Y9373D01*
X17297Y9345D01*
X17307Y9320D01*
X17324Y9298D01*
X17346Y9281D01*
X17372Y9270D01*
X17399Y9267D01*
X17426Y9270D01*
X17452Y9281D01*
X17474Y9298D01*
X17491Y9320D01*
X17501Y9345D01*
X17505Y9373D01*
X17501Y9400D01*
X17491Y9426D01*
X17474Y9447D01*
X17452Y9464D01*
X17426Y9475D01*
X17399Y9479D01*
D02*
G37*
G36*
X17653D02*
X17626Y9475D01*
X17600Y9464D01*
X17578Y9447D01*
X17561Y9426D01*
X17551Y9400D01*
X17547Y9373D01*
X17551Y9345D01*
X17561Y9320D01*
X17578Y9298D01*
X17600Y9281D01*
X17626Y9270D01*
X17653Y9267D01*
X17680Y9270D01*
X17706Y9281D01*
X17728Y9298D01*
X17745Y9320D01*
X17755Y9345D01*
X17759Y9373D01*
X17755Y9400D01*
X17745Y9426D01*
X17728Y9447D01*
X17706Y9464D01*
X17680Y9475D01*
X17653Y9479D01*
D02*
G37*
G36*
X17005Y8852D02*
X16914D01*
X16916Y8837D01*
X16926Y8812D01*
X16943Y8790D01*
X16965Y8773D01*
X16991Y8762D01*
X17005Y8760D01*
Y8852D01*
D02*
G37*
G36*
X17122D02*
X17031D01*
Y8760D01*
X17045Y8762D01*
X17071Y8773D01*
X17093Y8790D01*
X17110Y8812D01*
X17120Y8837D01*
X17122Y8852D01*
D02*
G37*
G36*
X17272Y8971D02*
X17245Y8967D01*
X17219Y8956D01*
X17197Y8939D01*
X17180Y8918D01*
X17170Y8892D01*
X17166Y8865D01*
X17170Y8837D01*
X17180Y8812D01*
X17197Y8790D01*
X17219Y8773D01*
X17245Y8762D01*
X17272Y8759D01*
X17299Y8762D01*
X17325Y8773D01*
X17347Y8790D01*
X17364Y8812D01*
X17374Y8837D01*
X17378Y8865D01*
X17374Y8892D01*
X17364Y8918D01*
X17347Y8939D01*
X17325Y8956D01*
X17299Y8967D01*
X17272Y8971D01*
D02*
G37*
G36*
X16510D02*
X16483Y8967D01*
X16457Y8956D01*
X16435Y8939D01*
X16418Y8918D01*
X16408Y8892D01*
X16404Y8865D01*
X16408Y8837D01*
X16418Y8812D01*
X16435Y8790D01*
X16457Y8773D01*
X16483Y8762D01*
X16510Y8759D01*
X16537Y8762D01*
X16563Y8773D01*
X16585Y8790D01*
X16602Y8812D01*
X16612Y8837D01*
X16616Y8865D01*
X16612Y8892D01*
X16602Y8918D01*
X16585Y8939D01*
X16563Y8956D01*
X16537Y8967D01*
X16510Y8971D01*
D02*
G37*
G36*
X16764D02*
X16737Y8967D01*
X16711Y8956D01*
X16689Y8939D01*
X16672Y8918D01*
X16662Y8892D01*
X16658Y8865D01*
X16662Y8837D01*
X16672Y8812D01*
X16689Y8790D01*
X16711Y8773D01*
X16737Y8762D01*
X16764Y8759D01*
X16791Y8762D01*
X16817Y8773D01*
X16839Y8790D01*
X16856Y8812D01*
X16866Y8837D01*
X16870Y8865D01*
X16866Y8892D01*
X16856Y8918D01*
X16839Y8939D01*
X16817Y8956D01*
X16791Y8967D01*
X16764Y8971D01*
D02*
G37*
G36*
X15021Y9385D02*
X14880D01*
X14881Y9368D01*
X14890Y9338D01*
X14904Y9311D01*
X14924Y9288D01*
X14947Y9268D01*
X14974Y9254D01*
X15004Y9245D01*
X15021Y9244D01*
Y9385D01*
D02*
G37*
G36*
X15188D02*
X15047D01*
Y9244D01*
X15064Y9245D01*
X15094Y9254D01*
X15121Y9268D01*
X15144Y9288D01*
X15164Y9311D01*
X15178Y9338D01*
X15187Y9368D01*
X15188Y9385D01*
D02*
G37*
G36*
X12979Y9767D02*
X12924Y9762D01*
X12869Y9749D01*
X12818Y9728D01*
X12770Y9699D01*
X12728Y9662D01*
X12691Y9620D01*
X12662Y9572D01*
X12641Y9521D01*
X12628Y9466D01*
X12623Y9411D01*
X12628Y9355D01*
X12641Y9301D01*
X12662Y9249D01*
X12691Y9201D01*
X12728Y9159D01*
X12770Y9123D01*
X12818Y9093D01*
X12869Y9072D01*
X12924Y9059D01*
X12979Y9055D01*
X13035Y9059D01*
X13089Y9072D01*
X13141Y9093D01*
X13189Y9123D01*
X13231Y9159D01*
X13267Y9201D01*
X13297Y9249D01*
X13318Y9301D01*
X13331Y9355D01*
X13335Y9411D01*
X13331Y9466D01*
X13318Y9521D01*
X13297Y9572D01*
X13267Y9620D01*
X13231Y9662D01*
X13189Y9699D01*
X13141Y9728D01*
X13089Y9749D01*
X13035Y9762D01*
X12979Y9767D01*
D02*
G37*
G36*
X17005Y8969D02*
X16991Y8967D01*
X16965Y8956D01*
X16943Y8939D01*
X16926Y8918D01*
X16916Y8892D01*
X16914Y8877D01*
X17005D01*
Y8969D01*
D02*
G37*
G36*
X17031D02*
Y8877D01*
X17122D01*
X17120Y8892D01*
X17110Y8918D01*
X17093Y8939D01*
X17071Y8956D01*
X17045Y8967D01*
X17031Y8969D01*
D02*
G37*
G36*
X17386Y9771D02*
X17359Y9768D01*
X17333Y9757D01*
X17311Y9740D01*
X17295Y9718D01*
X17284Y9693D01*
X17280Y9665D01*
X17284Y9638D01*
X17295Y9612D01*
X17311Y9590D01*
X17333Y9574D01*
X17359Y9563D01*
X17386Y9559D01*
X17414Y9563D01*
X17439Y9574D01*
X17461Y9590D01*
X17478Y9612D01*
X17489Y9638D01*
X17492Y9665D01*
X17489Y9693D01*
X17478Y9718D01*
X17461Y9740D01*
X17439Y9757D01*
X17414Y9768D01*
X17386Y9771D01*
D02*
G37*
G36*
X18148D02*
X18121Y9768D01*
X18095Y9757D01*
X18073Y9740D01*
X18057Y9718D01*
X18046Y9693D01*
X18042Y9665D01*
X18046Y9638D01*
X18057Y9612D01*
X18073Y9590D01*
X18095Y9574D01*
X18121Y9563D01*
X18148Y9559D01*
X18176Y9563D01*
X18201Y9574D01*
X18223Y9590D01*
X18240Y9612D01*
X18251Y9638D01*
X18254Y9665D01*
X18251Y9693D01*
X18240Y9718D01*
X18223Y9740D01*
X18201Y9757D01*
X18176Y9768D01*
X18148Y9771D01*
D02*
G37*
G36*
X16624D02*
X16597Y9768D01*
X16571Y9757D01*
X16549Y9740D01*
X16533Y9718D01*
X16522Y9693D01*
X16518Y9665D01*
X16522Y9638D01*
X16533Y9612D01*
X16549Y9590D01*
X16571Y9574D01*
X16597Y9563D01*
X16624Y9559D01*
X16652Y9563D01*
X16677Y9574D01*
X16699Y9590D01*
X16716Y9612D01*
X16727Y9638D01*
X16730Y9665D01*
X16727Y9693D01*
X16716Y9718D01*
X16699Y9740D01*
X16677Y9757D01*
X16652Y9768D01*
X16624Y9771D01*
D02*
G37*
G36*
X19247Y9639D02*
X19152D01*
Y9544D01*
X19167Y9546D01*
X19194Y9557D01*
X19216Y9574D01*
X19234Y9597D01*
X19245Y9624D01*
X19247Y9639D01*
D02*
G37*
G36*
X15900Y9771D02*
X15873Y9768D01*
X15847Y9757D01*
X15826Y9740D01*
X15809Y9718D01*
X15798Y9693D01*
X15794Y9665D01*
X15798Y9638D01*
X15809Y9612D01*
X15826Y9590D01*
X15847Y9574D01*
X15873Y9563D01*
X15900Y9559D01*
X15928Y9563D01*
X15953Y9574D01*
X15975Y9590D01*
X15992Y9612D01*
X16003Y9638D01*
X16006Y9665D01*
X16003Y9693D01*
X15992Y9718D01*
X15975Y9740D01*
X15953Y9757D01*
X15928Y9768D01*
X15900Y9771D01*
D02*
G37*
G36*
X17999Y9770D02*
X17789D01*
Y9560D01*
X17999D01*
Y9770D01*
D02*
G37*
G36*
X19126Y9760D02*
X19111Y9758D01*
X19084Y9747D01*
X19061Y9730D01*
X19044Y9707D01*
X19033Y9680D01*
X19031Y9665D01*
X19126D01*
Y9760D01*
D02*
G37*
G36*
X17758Y9770D02*
X17548D01*
Y9560D01*
X17758D01*
Y9770D01*
D02*
G37*
G36*
X16247D02*
X16037D01*
Y9560D01*
X16247D01*
Y9770D01*
D02*
G37*
G36*
X16488D02*
X16278D01*
Y9560D01*
X16488D01*
Y9770D01*
D02*
G37*
G36*
X17894Y9478D02*
X17802D01*
Y9385D01*
X17894D01*
Y9478D01*
D02*
G37*
G36*
X18012D02*
X17920D01*
Y9385D01*
X18012D01*
Y9478D01*
D02*
G37*
G36*
X16142Y9477D02*
Y9385D01*
X16233D01*
X16231Y9400D01*
X16221Y9426D01*
X16204Y9447D01*
X16182Y9464D01*
X16156Y9475D01*
X16142Y9477D01*
D02*
G37*
G36*
X16233Y9360D02*
X16142D01*
Y9268D01*
X16156Y9270D01*
X16182Y9281D01*
X16204Y9298D01*
X16221Y9320D01*
X16231Y9345D01*
X16233Y9360D01*
D02*
G37*
G36*
X16116Y9477D02*
X16102Y9475D01*
X16076Y9464D01*
X16054Y9447D01*
X16037Y9426D01*
X16027Y9400D01*
X16025Y9385D01*
X16116D01*
Y9477D01*
D02*
G37*
G36*
X12138Y9565D02*
Y9423D01*
X12280D01*
X12278Y9441D01*
X12270Y9470D01*
X12255Y9497D01*
X12236Y9521D01*
X12212Y9540D01*
X12185Y9555D01*
X12156Y9563D01*
X12138Y9565D01*
D02*
G37*
G36*
X19126Y9639D02*
X19031D01*
X19033Y9624D01*
X19044Y9597D01*
X19061Y9574D01*
X19084Y9557D01*
X19111Y9546D01*
X19126Y9544D01*
Y9639D01*
D02*
G37*
G36*
X12113Y9565D02*
X12095Y9563D01*
X12066Y9555D01*
X12039Y9540D01*
X12016Y9521D01*
X11996Y9497D01*
X11982Y9470D01*
X11973Y9441D01*
X11971Y9423D01*
X12113D01*
Y9565D01*
D02*
G37*
G36*
X15021Y9552D02*
X15004Y9551D01*
X14974Y9542D01*
X14947Y9528D01*
X14924Y9508D01*
X14904Y9485D01*
X14890Y9458D01*
X14881Y9428D01*
X14880Y9411D01*
X15021D01*
Y9552D01*
D02*
G37*
G36*
X15047D02*
Y9411D01*
X15188D01*
X15187Y9428D01*
X15178Y9458D01*
X15164Y9485D01*
X15144Y9508D01*
X15121Y9528D01*
X15094Y9542D01*
X15064Y9551D01*
X15047Y9552D01*
D02*
G37*
G36*
X13437Y13208D02*
X13345D01*
X13347Y13193D01*
X13358Y13168D01*
X13374Y13146D01*
X13396Y13129D01*
X13422Y13118D01*
X13437Y13116D01*
Y13208D01*
D02*
G37*
G36*
X13554D02*
X13462D01*
Y13116D01*
X13477Y13118D01*
X13502Y13129D01*
X13524Y13146D01*
X13541Y13168D01*
X13552Y13193D01*
X13554Y13208D01*
D02*
G37*
G36*
X13223D02*
X13132D01*
Y13116D01*
X13147Y13118D01*
X13172Y13129D01*
X13194Y13146D01*
X13211Y13168D01*
X13221Y13193D01*
X13223Y13208D01*
D02*
G37*
G36*
X12182Y13050D02*
Y12958D01*
X12274D01*
X12272Y12973D01*
X12261Y12998D01*
X12244Y13020D01*
X12222Y13037D01*
X12197Y13048D01*
X12182Y13050D01*
D02*
G37*
G36*
X13106Y13208D02*
X13015D01*
X13017Y13193D01*
X13027Y13168D01*
X13044Y13146D01*
X13066Y13129D01*
X13092Y13118D01*
X13106Y13116D01*
Y13208D01*
D02*
G37*
G36*
X14214D02*
X14122D01*
Y13116D01*
X14137Y13118D01*
X14163Y13129D01*
X14185Y13146D01*
X14201Y13168D01*
X14212Y13193D01*
X14214Y13208D01*
D02*
G37*
G36*
X14605Y13233D02*
X14510D01*
X14512Y13218D01*
X14523Y13191D01*
X14540Y13169D01*
X14563Y13151D01*
X14589Y13140D01*
X14605Y13138D01*
Y13233D01*
D02*
G37*
G36*
X14097Y13208D02*
X14005D01*
X14007Y13193D01*
X14018Y13168D01*
X14035Y13146D01*
X14057Y13129D01*
X14082Y13118D01*
X14097Y13116D01*
Y13208D01*
D02*
G37*
G36*
X13767D02*
X13675D01*
X13677Y13193D01*
X13688Y13168D01*
X13705Y13146D01*
X13727Y13129D01*
X13752Y13118D01*
X13767Y13116D01*
Y13208D01*
D02*
G37*
G36*
X13884D02*
X13792D01*
Y13116D01*
X13807Y13118D01*
X13832Y13129D01*
X13854Y13146D01*
X13871Y13168D01*
X13882Y13193D01*
X13884Y13208D01*
D02*
G37*
G36*
X13224Y13072D02*
X13014D01*
Y12862D01*
X13224D01*
Y13072D01*
D02*
G37*
G36*
X13554D02*
X13344D01*
Y12862D01*
X13554D01*
Y13072D01*
D02*
G37*
G36*
X12274Y12933D02*
X12182D01*
Y12841D01*
X12197Y12843D01*
X12222Y12854D01*
X12244Y12871D01*
X12261Y12893D01*
X12272Y12918D01*
X12274Y12933D01*
D02*
G37*
G36*
X12528Y13051D02*
X12318D01*
Y12841D01*
X12528D01*
Y13051D01*
D02*
G37*
G36*
X12157Y12933D02*
X12065D01*
X12067Y12918D01*
X12078Y12893D01*
X12094Y12871D01*
X12116Y12854D01*
X12142Y12843D01*
X12157Y12841D01*
Y12933D01*
D02*
G37*
G36*
X17911Y12954D02*
X17831D01*
Y12874D01*
X17843Y12876D01*
X17865Y12885D01*
X17885Y12900D01*
X17900Y12920D01*
X17909Y12942D01*
X17911Y12954D01*
D02*
G37*
G36*
X12157Y13050D02*
X12142Y13048D01*
X12116Y13037D01*
X12094Y13020D01*
X12078Y12998D01*
X12067Y12973D01*
X12065Y12958D01*
X12157D01*
Y13050D01*
D02*
G37*
G36*
X17805Y12954D02*
X17725D01*
X17727Y12942D01*
X17736Y12920D01*
X17751Y12900D01*
X17771Y12885D01*
X17794Y12876D01*
X17805Y12874D01*
Y12954D01*
D02*
G37*
G36*
X13885Y13072D02*
X13674D01*
Y12862D01*
X13885D01*
Y13072D01*
D02*
G37*
G36*
X14215D02*
X14005D01*
Y12862D01*
X14215D01*
Y13072D01*
D02*
G37*
G36*
X14726Y13233D02*
X14630D01*
Y13138D01*
X14646Y13140D01*
X14673Y13151D01*
X14695Y13169D01*
X14713Y13191D01*
X14724Y13218D01*
X14726Y13233D01*
D02*
G37*
G36*
X17593Y13437D02*
X17513D01*
Y13357D01*
X17525Y13358D01*
X17548Y13368D01*
X17567Y13383D01*
X17582Y13402D01*
X17592Y13425D01*
X17593Y13437D01*
D02*
G37*
G36*
X13449Y13581D02*
X13422Y13577D01*
X13396Y13566D01*
X13374Y13550D01*
X13358Y13528D01*
X13347Y13502D01*
X13343Y13475D01*
X13347Y13447D01*
X13358Y13422D01*
X13374Y13400D01*
X13396Y13383D01*
X13422Y13372D01*
X13449Y13369D01*
X13477Y13372D01*
X13502Y13383D01*
X13524Y13400D01*
X13541Y13422D01*
X13552Y13447D01*
X13555Y13475D01*
X13552Y13502D01*
X13541Y13528D01*
X13524Y13550D01*
X13502Y13566D01*
X13477Y13577D01*
X13449Y13581D01*
D02*
G37*
G36*
X17488Y13437D02*
X17408D01*
X17410Y13425D01*
X17419Y13402D01*
X17434Y13383D01*
X17453Y13368D01*
X17476Y13358D01*
X17488Y13357D01*
Y13437D01*
D02*
G37*
G36*
X14605Y13354D02*
X14589Y13352D01*
X14563Y13341D01*
X14540Y13324D01*
X14523Y13301D01*
X14512Y13274D01*
X14510Y13259D01*
X14605D01*
Y13354D01*
D02*
G37*
G36*
X14630D02*
Y13259D01*
X14726D01*
X14724Y13274D01*
X14713Y13301D01*
X14695Y13324D01*
X14673Y13341D01*
X14646Y13352D01*
X14630Y13354D01*
D02*
G37*
G36*
X17513Y13542D02*
Y13462D01*
X17593D01*
X17592Y13474D01*
X17582Y13496D01*
X17567Y13516D01*
X17548Y13531D01*
X17525Y13540D01*
X17513Y13542D01*
D02*
G37*
G36*
X13119Y13581D02*
X13092Y13577D01*
X13076Y13571D01*
X12364D01*
Y13571D01*
X12294Y13567D01*
X12225Y13555D01*
X12157Y13535D01*
X12092Y13508D01*
X12030Y13474D01*
X11973Y13434D01*
X11920Y13387D01*
X11920Y13387D01*
X11878Y13344D01*
X11862Y13338D01*
X11840Y13321D01*
X11824Y13299D01*
X11813Y13274D01*
X11809Y13246D01*
X11813Y13219D01*
X11819Y13203D01*
Y12989D01*
X11813Y12973D01*
X11809Y12946D01*
X11813Y12918D01*
X11819Y12902D01*
Y12688D01*
X11813Y12672D01*
X11809Y12645D01*
X11813Y12618D01*
X11819Y12602D01*
Y12387D01*
X11813Y12372D01*
X11809Y12344D01*
X11813Y12317D01*
X11821Y12297D01*
X11824Y12244D01*
X11839Y12145D01*
X11863Y12048D01*
X11897Y11953D01*
X11940Y11862D01*
X11991Y11776D01*
X12051Y11696D01*
X12119Y11621D01*
X12119Y11622D01*
X12119Y11622D01*
X12134Y11606D01*
Y11524D01*
X12216D01*
X12490Y11251D01*
X12490Y11251D01*
X12490Y11250D01*
X12598Y11149D01*
X12713Y11054D01*
X12834Y10968D01*
X12960Y10889D01*
X13092Y10819D01*
X13227Y10758D01*
X13366Y10705D01*
X13509Y10662D01*
X13654Y10628D01*
X13687Y10623D01*
X13686Y10610D01*
X13672Y10608D01*
X13649Y10599D01*
X13629Y10583D01*
X13614Y10564D01*
X13604Y10540D01*
X13603Y10532D01*
X13591D01*
X13590Y10540D01*
X13580Y10564D01*
X13565Y10583D01*
X13545Y10599D01*
X13522Y10608D01*
X13497Y10611D01*
X13472Y10608D01*
X13449Y10599D01*
X13429Y10583D01*
X13414Y10564D01*
X13404Y10540D01*
X13401Y10516D01*
X13404Y10491D01*
X13414Y10468D01*
X13429Y10448D01*
X13449Y10433D01*
X13472Y10423D01*
X13497Y10420D01*
X13522Y10423D01*
X13545Y10433D01*
X13565Y10448D01*
X13580Y10468D01*
X13590Y10491D01*
X13591Y10499D01*
X13603D01*
X13604Y10491D01*
X13614Y10468D01*
X13629Y10448D01*
X13649Y10433D01*
X13672Y10423D01*
X13697Y10420D01*
X13722Y10423D01*
X13745Y10433D01*
X13765Y10448D01*
X13780Y10468D01*
X13790Y10491D01*
X13791Y10499D01*
X13803D01*
X13804Y10491D01*
X13814Y10468D01*
X13829Y10448D01*
X13849Y10433D01*
X13872Y10423D01*
X13884Y10421D01*
Y10516D01*
X13910D01*
Y10421D01*
X13922Y10423D01*
X13945Y10433D01*
X13965Y10448D01*
X13980Y10468D01*
X13989Y10489D01*
X14001Y10486D01*
Y10062D01*
X13989Y10060D01*
X13980Y10081D01*
X13965Y10101D01*
X13945Y10116D01*
X13922Y10126D01*
X13910Y10127D01*
Y10033D01*
Y9939D01*
X13922Y9940D01*
X13945Y9950D01*
X13965Y9965D01*
X13980Y9985D01*
X13989Y10006D01*
X14001Y10004D01*
Y9949D01*
X14001D01*
X14006Y9851D01*
X14020Y9753D01*
X14044Y9658D01*
X14077Y9565D01*
X14119Y9476D01*
X14170Y9392D01*
X14228Y9313D01*
X14295Y9240D01*
X14367Y9174D01*
X14447Y9115D01*
X14531Y9065D01*
X14620Y9023D01*
X14713Y8989D01*
X14808Y8965D01*
X14905Y8951D01*
X15004Y8946D01*
Y8947D01*
X16169D01*
Y8946D01*
X16172Y8946D01*
X16178Y8935D01*
X16164Y8918D01*
X16154Y8892D01*
X16150Y8865D01*
X16154Y8837D01*
X16164Y8812D01*
X16181Y8790D01*
X16203Y8773D01*
X16229Y8762D01*
X16256Y8759D01*
X16283Y8762D01*
X16309Y8773D01*
X16331Y8790D01*
X16348Y8812D01*
X16358Y8837D01*
X16362Y8865D01*
X16358Y8892D01*
X16348Y8918D01*
X16331Y8939D01*
X16321Y8947D01*
X16325Y8959D01*
X16373Y8966D01*
X16472Y8991D01*
X16568Y9025D01*
X16660Y9069D01*
X16748Y9122D01*
X16830Y9182D01*
X16906Y9251D01*
X16905Y9251D01*
X16928Y9274D01*
X16944Y9281D01*
X16966Y9298D01*
X16983Y9320D01*
X16993Y9345D01*
X16997Y9373D01*
X16993Y9400D01*
X16983Y9426D01*
X16966Y9447D01*
X16944Y9464D01*
X16918Y9475D01*
X16891Y9479D01*
X16864Y9475D01*
X16838Y9464D01*
X16816Y9447D01*
X16799Y9426D01*
X16793Y9410D01*
X16770Y9387D01*
X16770Y9387D01*
X16770Y9387D01*
X16768Y9384D01*
X16754Y9372D01*
X16742Y9376D01*
X16739Y9400D01*
X16729Y9426D01*
X16712Y9447D01*
X16690Y9464D01*
X16664Y9475D01*
X16637Y9479D01*
X16610Y9475D01*
X16584Y9464D01*
X16562Y9447D01*
X16545Y9426D01*
X16535Y9400D01*
X16531Y9373D01*
X16535Y9345D01*
X16545Y9320D01*
X16562Y9298D01*
X16584Y9281D01*
X16605Y9272D01*
X16606Y9260D01*
X16570Y9238D01*
X16495Y9202D01*
X16416Y9174D01*
X16335Y9154D01*
X16253Y9142D01*
X16173Y9138D01*
X16169Y9138D01*
X15004D01*
X15001Y9138D01*
X14924Y9142D01*
X14845Y9153D01*
X14768Y9173D01*
X14693Y9199D01*
X14627Y9231D01*
X14630Y9243D01*
X14839D01*
Y9553D01*
X14807D01*
X14799Y9563D01*
X14819Y9633D01*
X14850Y9707D01*
X14888Y9777D01*
X14935Y9842D01*
X14988Y9902D01*
X15047Y9955D01*
X15058Y9962D01*
X15158D01*
Y10026D01*
X15182Y10040D01*
X15256Y10070D01*
X15333Y10092D01*
X15412Y10106D01*
X15488Y10110D01*
X15491Y10109D01*
X18148D01*
X18152Y10110D01*
X18209Y10105D01*
X18268Y10091D01*
X18324Y10068D01*
X18376Y10036D01*
X18422Y9997D01*
X18462Y9950D01*
X18494Y9899D01*
X18517Y9842D01*
X18531Y9783D01*
X18532Y9770D01*
X18523Y9761D01*
X18522D01*
Y9543D01*
X18522D01*
X18523Y9542D01*
X18518Y9517D01*
X18496Y9452D01*
X18466Y9391D01*
X18428Y9334D01*
X18383Y9283D01*
X18331Y9238D01*
X18275Y9200D01*
X18213Y9170D01*
X18149Y9148D01*
X18082Y9134D01*
X18017Y9130D01*
X18013Y9130D01*
X17696D01*
X17696Y9130D01*
X17654Y9127D01*
X17614Y9117D01*
X17575Y9101D01*
X17540Y9080D01*
X17508Y9053D01*
X17481Y9021D01*
X17459Y8985D01*
X17443Y8947D01*
X17437Y8921D01*
X17434Y8918D01*
X17424Y8892D01*
X17420Y8865D01*
X17424Y8837D01*
X17434Y8812D01*
X17451Y8790D01*
X17473Y8773D01*
X17499Y8762D01*
X17526Y8759D01*
X17553Y8762D01*
X17579Y8773D01*
X17601Y8790D01*
X17618Y8812D01*
X17628Y8837D01*
X17632Y8865D01*
X17628Y8892D01*
X17628Y8893D01*
X17632Y8902D01*
X17643Y8917D01*
X17659Y8929D01*
X17677Y8936D01*
X17685Y8938D01*
X17694Y8929D01*
X17693Y8924D01*
X17688Y8918D01*
X17678Y8892D01*
X17674Y8865D01*
X17678Y8837D01*
X17688Y8812D01*
X17705Y8790D01*
X17727Y8773D01*
X17753Y8762D01*
X17780Y8759D01*
X17807Y8762D01*
X17833Y8773D01*
X17855Y8790D01*
X17872Y8812D01*
X17882Y8837D01*
X17886Y8865D01*
X17882Y8892D01*
X17872Y8918D01*
X17864Y8927D01*
X17870Y8939D01*
X18013D01*
Y8938D01*
X18093Y8943D01*
X18172Y8956D01*
X18249Y8979D01*
X18323Y9009D01*
X18393Y9048D01*
X18458Y9094D01*
X18518Y9147D01*
X18571Y9207D01*
X18618Y9272D01*
X18656Y9342D01*
X18687Y9416D01*
X18709Y9493D01*
X18718Y9543D01*
X18740D01*
Y9761D01*
X18725D01*
X18722Y9798D01*
X18707Y9873D01*
X18683Y9944D01*
X18650Y10012D01*
X18608Y10075D01*
X18558Y10132D01*
X18501Y10182D01*
X18438Y10224D01*
X18370Y10257D01*
X18298Y10282D01*
X18253Y10291D01*
Y10480D01*
X18043D01*
Y10301D01*
X17984D01*
X17978Y10313D01*
X17986Y10322D01*
X17997Y10348D01*
X17999Y10363D01*
X17790D01*
X17792Y10348D01*
X17803Y10322D01*
X17810Y10313D01*
X17805Y10301D01*
X17743D01*
X17737Y10313D01*
X17745Y10322D01*
X17755Y10348D01*
X17757Y10363D01*
X17549D01*
X17551Y10348D01*
X17561Y10322D01*
X17569Y10313D01*
X17563Y10301D01*
X17491D01*
Y10480D01*
X17281D01*
Y10301D01*
X16729D01*
Y10480D01*
X16519D01*
Y10301D01*
X16473D01*
X16467Y10313D01*
X16475Y10322D01*
X16485Y10348D01*
X16487Y10363D01*
X16279D01*
X16281Y10348D01*
X16291Y10322D01*
X16299Y10313D01*
X16293Y10301D01*
X16231D01*
X16226Y10313D01*
X16233Y10322D01*
X16244Y10348D01*
X16246Y10363D01*
X16037D01*
X16039Y10348D01*
X16050Y10322D01*
X16058Y10313D01*
X16052Y10301D01*
X16005D01*
Y10480D01*
X15795D01*
Y10301D01*
X15491D01*
Y10301D01*
X15403Y10297D01*
X15315Y10284D01*
X15229Y10262D01*
X15146Y10233D01*
X15065Y10195D01*
X15041Y10180D01*
X14941D01*
Y10113D01*
X14918Y10096D01*
X14853Y10037D01*
X14793Y9971D01*
X14740Y9900D01*
X14695Y9824D01*
X14657Y9744D01*
X14627Y9660D01*
X14605Y9574D01*
X14602Y9553D01*
X14529D01*
Y9306D01*
X14518Y9301D01*
X14489Y9322D01*
X14430Y9375D01*
X14376Y9434D01*
X14329Y9498D01*
X14288Y9567D01*
X14254Y9639D01*
X14227Y9714D01*
X14208Y9791D01*
X14196Y9870D01*
X14192Y9946D01*
X14193Y9949D01*
Y10033D01*
Y10516D01*
Y10588D01*
X14203Y10589D01*
X14309Y10601D01*
X14413Y10622D01*
X14515Y10651D01*
X14615Y10688D01*
X14711Y10732D01*
X14804Y10784D01*
X14892Y10843D01*
X14976Y10909D01*
X15054Y10981D01*
Y10981D01*
Y10981D01*
X15354Y11281D01*
X15369Y11287D01*
X15391Y11304D01*
X15408Y11326D01*
X15413Y11338D01*
X15434Y11357D01*
X15488Y11395D01*
X15547Y11428D01*
X15609Y11453D01*
X15674Y11472D01*
X15740Y11483D01*
X15804Y11487D01*
X15807Y11487D01*
X17765D01*
Y11462D01*
X18075D01*
Y11464D01*
X18084Y11472D01*
X18100Y11469D01*
X18188Y11447D01*
X18273Y11417D01*
X18355Y11378D01*
X18433Y11332D01*
X18489Y11290D01*
Y11125D01*
X18799D01*
Y11300D01*
X19029Y11531D01*
X19030Y11531D01*
X19091Y11598D01*
X19144Y11670D01*
X19191Y11748D01*
X19230Y11830D01*
X19260Y11915D01*
X19282Y12003D01*
X19296Y12093D01*
X19300Y12183D01*
X19300D01*
X19300Y12183D01*
Y12990D01*
X19300D01*
X19295Y13041D01*
X19280Y13091D01*
X19256Y13136D01*
X19223Y13176D01*
X19183Y13209D01*
X19137Y13233D01*
X19088Y13248D01*
X19037Y13253D01*
Y13253D01*
X18275D01*
X18275Y13253D01*
X16213D01*
Y13253D01*
X16079Y13249D01*
X15946Y13236D01*
X15814Y13214D01*
X15683Y13184D01*
X15555Y13145D01*
X15430Y13097D01*
X15308Y13042D01*
X15190Y12979D01*
X15076Y12908D01*
X14967Y12830D01*
X14863Y12745D01*
X14809Y12694D01*
X14725D01*
Y12477D01*
X14942D01*
Y12557D01*
X14998Y12609D01*
X15101Y12692D01*
X15210Y12767D01*
X15324Y12835D01*
X15442Y12894D01*
X15565Y12945D01*
X15690Y12987D01*
X15819Y13020D01*
X15949Y13043D01*
X16081Y13057D01*
X16209Y13062D01*
X16213Y13061D01*
X17770D01*
X17772Y13049D01*
X17771Y13048D01*
X17751Y13033D01*
X17736Y13014D01*
X17727Y12991D01*
X17725Y12979D01*
X17911D01*
X17909Y12991D01*
X17900Y13014D01*
X17885Y13033D01*
X17865Y13048D01*
X17864Y13049D01*
X17866Y13061D01*
X17974D01*
X17975Y13061D01*
X17994Y13046D01*
X18017Y13036D01*
X18041Y13033D01*
X18066Y13036D01*
X18089Y13046D01*
X18108Y13061D01*
X18109Y13061D01*
X19037D01*
X19037Y13061D01*
X19055Y13059D01*
X19072Y13052D01*
X19087Y13041D01*
X19097Y13028D01*
X19092Y13016D01*
X18159D01*
X18147Y13014D01*
X18137Y13007D01*
X18131Y12997D01*
X18128Y12986D01*
Y12186D01*
X18131Y12174D01*
X18137Y12164D01*
X18147Y12157D01*
X18159Y12155D01*
X19098D01*
X19107Y12146D01*
X19104Y12102D01*
X19091Y12021D01*
X19068Y11942D01*
X19036Y11866D01*
X18997Y11794D01*
X18949Y11727D01*
X18897Y11669D01*
X18894Y11666D01*
X18801Y11573D01*
X18790Y11580D01*
X18796Y11600D01*
X18798Y11618D01*
X18656D01*
Y11476D01*
X18674Y11478D01*
X18694Y11484D01*
X18701Y11473D01*
X18663Y11435D01*
X18613D01*
X18559Y11477D01*
X18477Y11529D01*
X18391Y11574D01*
X18301Y11611D01*
X18208Y11640D01*
X18113Y11662D01*
X18075Y11667D01*
Y11702D01*
X17765D01*
Y11678D01*
X15807D01*
X15807Y11678D01*
Y11679D01*
X15718Y11674D01*
X15631Y11659D01*
X15546Y11634D01*
X15464Y11600D01*
X15386Y11558D01*
X15314Y11506D01*
X15284Y11480D01*
X15263Y11471D01*
X15241Y11454D01*
X15224Y11432D01*
X15218Y11417D01*
X15180Y11378D01*
X15168Y11382D01*
X15164Y11407D01*
X15154Y11432D01*
X15137Y11454D01*
X15115Y11471D01*
X15090Y11481D01*
X15075Y11483D01*
Y11379D01*
X15062D01*
Y11367D01*
X14958D01*
X14960Y11352D01*
X14970Y11326D01*
X14987Y11304D01*
X15009Y11287D01*
X15035Y11277D01*
X15059Y11274D01*
X15063Y11262D01*
X14918Y11117D01*
X14918Y11117D01*
X14918Y11117D01*
X14916Y11114D01*
X14844Y11048D01*
X14763Y10986D01*
X14678Y10932D01*
X14588Y10885D01*
X14494Y10846D01*
X14398Y10815D01*
X14299Y10794D01*
X14198Y10780D01*
X14101Y10776D01*
X14097Y10777D01*
X14093Y10776D01*
X14050Y10777D01*
X14046Y10789D01*
X14049Y10792D01*
X14064Y10811D01*
X14074Y10834D01*
X14075Y10846D01*
X13890D01*
X13892Y10834D01*
X13901Y10811D01*
X13912Y10797D01*
X13906Y10786D01*
X13825Y10794D01*
X13691Y10816D01*
X13558Y10847D01*
X13428Y10886D01*
X13300Y10934D01*
X13176Y10991D01*
X13056Y11055D01*
X12940Y11127D01*
X12830Y11206D01*
X12724Y11292D01*
X12628Y11383D01*
X12625Y11386D01*
D01*
X12625D01*
Y11386D01*
X12352Y11660D01*
Y11742D01*
X12270D01*
X12254Y11757D01*
X12254Y11757D01*
X12254Y11757D01*
X12252Y11759D01*
X12199Y11817D01*
X12151Y11883D01*
X12109Y11953D01*
X12074Y12026D01*
X12046Y12103D01*
X12027Y12182D01*
X12015Y12263D01*
X12013Y12305D01*
X12018Y12317D01*
X12021Y12344D01*
X12018Y12372D01*
X12011Y12387D01*
Y12602D01*
X12018Y12618D01*
X12021Y12645D01*
X12018Y12672D01*
X12011Y12688D01*
Y12902D01*
X12018Y12918D01*
X12021Y12946D01*
X12018Y12973D01*
X12011Y12989D01*
Y13203D01*
X12013Y13209D01*
X12052Y13247D01*
X12064Y13243D01*
X12067Y13219D01*
X12078Y13193D01*
X12094Y13171D01*
X12116Y13154D01*
X12142Y13144D01*
X12157Y13142D01*
Y13246D01*
X12169D01*
Y13259D01*
X12274D01*
X12272Y13274D01*
X12261Y13299D01*
X12244Y13321D01*
X12222Y13338D01*
X12217Y13340D01*
X12217Y13353D01*
X12251Y13364D01*
X12307Y13376D01*
X12362Y13379D01*
X12364Y13379D01*
X13076D01*
X13092Y13372D01*
X13119Y13369D01*
X13147Y13372D01*
X13172Y13383D01*
X13194Y13400D01*
X13211Y13422D01*
X13221Y13447D01*
X13225Y13475D01*
X13221Y13502D01*
X13211Y13528D01*
X13194Y13550D01*
X13172Y13566D01*
X13147Y13577D01*
X13119Y13581D01*
D02*
G37*
G36*
X17488Y13542D02*
X17476Y13540D01*
X17453Y13531D01*
X17434Y13516D01*
X17419Y13496D01*
X17410Y13474D01*
X17408Y13462D01*
X17488D01*
Y13542D01*
D02*
G37*
G36*
X13779Y13581D02*
X13752Y13577D01*
X13727Y13566D01*
X13705Y13550D01*
X13688Y13528D01*
X13677Y13502D01*
X13674Y13475D01*
X13677Y13447D01*
X13688Y13422D01*
X13705Y13400D01*
X13727Y13383D01*
X13752Y13372D01*
X13779Y13369D01*
X13807Y13372D01*
X13832Y13383D01*
X13854Y13400D01*
X13871Y13422D01*
X13882Y13447D01*
X13885Y13475D01*
X13882Y13502D01*
X13871Y13528D01*
X13854Y13550D01*
X13832Y13566D01*
X13807Y13577D01*
X13779Y13581D01*
D02*
G37*
G36*
X14110D02*
X14082Y13577D01*
X14057Y13566D01*
X14035Y13550D01*
X14018Y13528D01*
X14007Y13502D01*
X14004Y13475D01*
X14007Y13447D01*
X14018Y13422D01*
X14035Y13400D01*
X14057Y13383D01*
X14082Y13372D01*
X14110Y13369D01*
X14137Y13372D01*
X14163Y13383D01*
X14185Y13400D01*
X14201Y13422D01*
X14212Y13447D01*
X14216Y13475D01*
X14212Y13502D01*
X14201Y13528D01*
X14185Y13550D01*
X14163Y13566D01*
X14137Y13577D01*
X14110Y13581D01*
D02*
G37*
G36*
X13132Y13325D02*
Y13233D01*
X13223D01*
X13221Y13248D01*
X13211Y13274D01*
X13194Y13296D01*
X13172Y13312D01*
X13147Y13323D01*
X13132Y13325D01*
D02*
G37*
G36*
X13437D02*
X13422Y13323D01*
X13396Y13312D01*
X13374Y13296D01*
X13358Y13274D01*
X13347Y13248D01*
X13345Y13233D01*
X13437D01*
Y13325D01*
D02*
G37*
G36*
X13106D02*
X13092Y13323D01*
X13066Y13312D01*
X13044Y13296D01*
X13027Y13274D01*
X13017Y13248D01*
X13015Y13233D01*
X13106D01*
Y13325D01*
D02*
G37*
G36*
X12528Y13351D02*
X12318D01*
Y13141D01*
X12528D01*
Y13351D01*
D02*
G37*
G36*
X12274Y13233D02*
X12182D01*
Y13142D01*
X12197Y13144D01*
X12222Y13154D01*
X12244Y13171D01*
X12261Y13193D01*
X12272Y13219D01*
X12274Y13233D01*
D02*
G37*
G36*
X14097Y13325D02*
X14082Y13323D01*
X14057Y13312D01*
X14035Y13296D01*
X14018Y13274D01*
X14007Y13248D01*
X14005Y13233D01*
X14097D01*
Y13325D01*
D02*
G37*
G36*
X14122D02*
Y13233D01*
X14214D01*
X14212Y13248D01*
X14201Y13274D01*
X14185Y13296D01*
X14163Y13312D01*
X14137Y13323D01*
X14122Y13325D01*
D02*
G37*
G36*
X13792D02*
Y13233D01*
X13884D01*
X13882Y13248D01*
X13871Y13274D01*
X13854Y13296D01*
X13832Y13312D01*
X13807Y13323D01*
X13792Y13325D01*
D02*
G37*
G36*
X13462D02*
Y13233D01*
X13554D01*
X13552Y13248D01*
X13541Y13274D01*
X13524Y13296D01*
X13502Y13312D01*
X13477Y13323D01*
X13462Y13325D01*
D02*
G37*
G36*
X13767D02*
X13752Y13323D01*
X13727Y13312D01*
X13705Y13296D01*
X13688Y13274D01*
X13677Y13248D01*
X13675Y13233D01*
X13767D01*
Y13325D01*
D02*
G37*
G36*
X18074Y11824D02*
X17932D01*
Y11715D01*
X17955D01*
X17986Y11719D01*
X18015Y11732D01*
X18040Y11751D01*
X18060Y11776D01*
X18072Y11805D01*
X18074Y11824D01*
D02*
G37*
G36*
X17955Y12211D02*
X17885D01*
X17853Y12207D01*
X17824Y12195D01*
X17799Y12176D01*
X17780Y12151D01*
X17768Y12122D01*
X17764Y12090D01*
X17768Y12059D01*
X17780Y12030D01*
X17799Y12005D01*
X17824Y11986D01*
X17853Y11973D01*
X17882Y11970D01*
Y11957D01*
X17853Y11953D01*
X17824Y11941D01*
X17799Y11922D01*
X17780Y11897D01*
X17768Y11868D01*
X17765Y11849D01*
X18074D01*
X18072Y11868D01*
X18060Y11897D01*
X18040Y11922D01*
X18015Y11941D01*
X17986Y11953D01*
X17958Y11957D01*
Y11970D01*
X17986Y11973D01*
X18015Y11986D01*
X18040Y12005D01*
X18060Y12030D01*
X18072Y12059D01*
X18076Y12090D01*
X18072Y12122D01*
X18060Y12151D01*
X18040Y12176D01*
X18015Y12195D01*
X17986Y12207D01*
X17955Y12211D01*
D02*
G37*
G36*
X17907Y11824D02*
X17765D01*
X17768Y11805D01*
X17780Y11776D01*
X17799Y11751D01*
X17824Y11732D01*
X17853Y11719D01*
X17885Y11715D01*
X17907D01*
Y11824D01*
D02*
G37*
G36*
X11722Y11741D02*
X11706Y11739D01*
X11680Y11728D01*
X11657Y11711D01*
X11640Y11688D01*
X11629Y11662D01*
X11627Y11646D01*
X11722D01*
Y11741D01*
D02*
G37*
G36*
X11747D02*
Y11646D01*
X11843D01*
X11841Y11662D01*
X11830Y11688D01*
X11812Y11711D01*
X11790Y11728D01*
X11763Y11739D01*
X11747Y11741D01*
D02*
G37*
G36*
X16205Y12438D02*
X16178Y12434D01*
X16152Y12423D01*
X16130Y12407D01*
X16113Y12385D01*
X16103Y12359D01*
X16099Y12332D01*
X16103Y12304D01*
X16113Y12279D01*
X16130Y12257D01*
X16152Y12240D01*
X16178Y12229D01*
X16205Y12226D01*
X16233Y12229D01*
X16258Y12240D01*
X16280Y12257D01*
X16297Y12279D01*
X16307Y12304D01*
X16311Y12332D01*
X16307Y12359D01*
X16297Y12385D01*
X16280Y12407D01*
X16258Y12423D01*
X16233Y12434D01*
X16205Y12438D01*
D02*
G37*
G36*
X16459D02*
X16432Y12434D01*
X16406Y12423D01*
X16384Y12407D01*
X16367Y12385D01*
X16357Y12359D01*
X16353Y12332D01*
X16357Y12304D01*
X16367Y12279D01*
X16384Y12257D01*
X16406Y12240D01*
X16432Y12229D01*
X16459Y12226D01*
X16487Y12229D01*
X16512Y12240D01*
X16534Y12257D01*
X16551Y12279D01*
X16561Y12304D01*
X16565Y12332D01*
X16561Y12359D01*
X16551Y12385D01*
X16534Y12407D01*
X16512Y12423D01*
X16487Y12434D01*
X16459Y12438D01*
D02*
G37*
G36*
X15075Y12093D02*
Y12001D01*
X15166D01*
X15164Y12016D01*
X15154Y12042D01*
X15137Y12064D01*
X15115Y12081D01*
X15090Y12091D01*
X15075Y12093D01*
D02*
G37*
G36*
X15316Y12095D02*
X15289Y12091D01*
X15263Y12081D01*
X15241Y12064D01*
X15224Y12042D01*
X15214Y12016D01*
X15210Y11989D01*
X15214Y11961D01*
X15224Y11936D01*
X15238Y11918D01*
X15232Y11907D01*
X15146D01*
X15141Y11918D01*
X15154Y11936D01*
X15164Y11961D01*
X15166Y11976D01*
X14958D01*
X14960Y11961D01*
X14970Y11936D01*
X14984Y11918D01*
X14978Y11907D01*
X14913D01*
Y12094D01*
X14703D01*
Y11907D01*
X14135D01*
X14133Y11907D01*
X14076Y11911D01*
X14018Y11922D01*
X13963Y11941D01*
X13910Y11967D01*
X13861Y12000D01*
X13860Y12001D01*
X13858Y12013D01*
X13848Y12036D01*
X13833Y12055D01*
X13814Y12070D01*
X13791Y12080D01*
X13767Y12083D01*
X13742Y12080D01*
X13720Y12070D01*
X13700Y12055D01*
X13685Y12036D01*
X13676Y12013D01*
X13672Y11989D01*
X13676Y11964D01*
X13685Y11942D01*
X13700Y11922D01*
X13720Y11907D01*
X13742Y11898D01*
X13766Y11895D01*
X13775Y11887D01*
X13839Y11844D01*
X13908Y11810D01*
X13982Y11785D01*
X14058Y11770D01*
X14135Y11765D01*
Y11766D01*
X14703D01*
Y11579D01*
X14913D01*
Y11766D01*
X14978D01*
X14984Y11754D01*
X14970Y11737D01*
X14960Y11711D01*
X14958Y11697D01*
X15166D01*
X15164Y11711D01*
X15154Y11737D01*
X15141Y11754D01*
X15146Y11766D01*
X15232D01*
X15238Y11754D01*
X15224Y11737D01*
X15214Y11711D01*
X15210Y11684D01*
X15214Y11657D01*
X15224Y11631D01*
X15241Y11609D01*
X15263Y11592D01*
X15289Y11582D01*
X15316Y11578D01*
X15344Y11582D01*
X15369Y11592D01*
X15391Y11609D01*
X15408Y11631D01*
X15418Y11657D01*
X15422Y11684D01*
X15418Y11711D01*
X15408Y11737D01*
X15391Y11759D01*
X15387Y11762D01*
Y11836D01*
Y11911D01*
X15391Y11914D01*
X15408Y11936D01*
X15418Y11961D01*
X15422Y11989D01*
X15418Y12016D01*
X15408Y12042D01*
X15391Y12064D01*
X15369Y12081D01*
X15344Y12091D01*
X15316Y12095D01*
D02*
G37*
G36*
X15049Y12093D02*
X15035Y12091D01*
X15009Y12081D01*
X14987Y12064D01*
X14970Y12042D01*
X14960Y12016D01*
X14958Y12001D01*
X15049D01*
Y12093D01*
D02*
G37*
G36*
X18631Y11618D02*
X18489D01*
X18491Y11600D01*
X18500Y11571D01*
X18514Y11544D01*
X18533Y11520D01*
X18557Y11501D01*
X18584Y11487D01*
X18613Y11478D01*
X18631Y11476D01*
Y11618D01*
D02*
G37*
G36*
X11722Y11621D02*
X11627D01*
X11629Y11605D01*
X11640Y11578D01*
X11657Y11556D01*
X11680Y11538D01*
X11706Y11527D01*
X11722Y11525D01*
Y11621D01*
D02*
G37*
G36*
X15049Y11483D02*
X15035Y11481D01*
X15009Y11471D01*
X14987Y11454D01*
X14970Y11432D01*
X14960Y11407D01*
X14958Y11392D01*
X15049D01*
Y11483D01*
D02*
G37*
G36*
X18669Y11027D02*
Y10947D01*
X18749D01*
X18747Y10959D01*
X18738Y10982D01*
X18723Y11001D01*
X18703Y11016D01*
X18681Y11026D01*
X18669Y11027D01*
D02*
G37*
G36*
X14913Y11484D02*
X14703D01*
Y11274D01*
X14913D01*
Y11484D01*
D02*
G37*
G36*
X18631Y11785D02*
X18613Y11783D01*
X18584Y11774D01*
X18557Y11760D01*
X18533Y11741D01*
X18514Y11717D01*
X18500Y11690D01*
X18491Y11661D01*
X18489Y11643D01*
X18631D01*
Y11785D01*
D02*
G37*
G36*
X18656D02*
Y11643D01*
X18798D01*
X18796Y11661D01*
X18787Y11690D01*
X18773Y11717D01*
X18754Y11741D01*
X18730Y11760D01*
X18703Y11774D01*
X18674Y11783D01*
X18656Y11785D01*
D02*
G37*
G36*
X15166Y11671D02*
X15075D01*
Y11580D01*
X15090Y11582D01*
X15115Y11592D01*
X15137Y11609D01*
X15154Y11631D01*
X15164Y11657D01*
X15166Y11671D01*
D02*
G37*
G36*
X11843Y11621D02*
X11747D01*
Y11525D01*
X11763Y11527D01*
X11790Y11538D01*
X11812Y11556D01*
X11830Y11578D01*
X11841Y11605D01*
X11843Y11621D01*
D02*
G37*
G36*
X15049Y11671D02*
X14958D01*
X14960Y11657D01*
X14970Y11631D01*
X14987Y11609D01*
X15009Y11592D01*
X15035Y11582D01*
X15049Y11580D01*
Y11671D01*
D02*
G37*
G36*
X16713Y12438D02*
X16686Y12434D01*
X16660Y12423D01*
X16638Y12407D01*
X16621Y12385D01*
X16611Y12359D01*
X16607Y12332D01*
X16611Y12304D01*
X16621Y12279D01*
X16638Y12257D01*
X16660Y12240D01*
X16686Y12229D01*
X16713Y12226D01*
X16741Y12229D01*
X16766Y12240D01*
X16788Y12257D01*
X16805Y12279D01*
X16815Y12304D01*
X16819Y12332D01*
X16815Y12359D01*
X16805Y12385D01*
X16788Y12407D01*
X16766Y12423D01*
X16741Y12434D01*
X16713Y12438D01*
D02*
G37*
G36*
X12528Y12750D02*
X12318D01*
Y12540D01*
X12528D01*
Y12750D01*
D02*
G37*
G36*
X12157Y12632D02*
X12065D01*
X12067Y12618D01*
X12078Y12592D01*
X12094Y12570D01*
X12116Y12553D01*
X12142Y12543D01*
X12157Y12541D01*
Y12632D01*
D02*
G37*
G36*
X14688Y12573D02*
X14592D01*
Y12478D01*
X14608Y12480D01*
X14634Y12491D01*
X14657Y12508D01*
X14675Y12531D01*
X14686Y12557D01*
X14688Y12573D01*
D02*
G37*
G36*
X12182Y12449D02*
Y12357D01*
X12274D01*
X12272Y12372D01*
X12261Y12397D01*
X12244Y12419D01*
X12222Y12436D01*
X12197Y12447D01*
X12182Y12449D01*
D02*
G37*
G36*
X14567Y12573D02*
X14472D01*
X14474Y12557D01*
X14485Y12531D01*
X14502Y12508D01*
X14525Y12491D01*
X14551Y12480D01*
X14567Y12478D01*
Y12573D01*
D02*
G37*
G36*
X12157Y12749D02*
X12142Y12747D01*
X12116Y12737D01*
X12094Y12720D01*
X12078Y12698D01*
X12067Y12672D01*
X12065Y12658D01*
X12157D01*
Y12749D01*
D02*
G37*
G36*
X12182D02*
Y12658D01*
X12274D01*
X12272Y12672D01*
X12261Y12698D01*
X12244Y12720D01*
X12222Y12737D01*
X12197Y12747D01*
X12182Y12749D01*
D02*
G37*
G36*
X14592Y12694D02*
Y12598D01*
X14688D01*
X14686Y12614D01*
X14675Y12641D01*
X14657Y12663D01*
X14634Y12681D01*
X14608Y12692D01*
X14592Y12694D01*
D02*
G37*
G36*
X12274Y12632D02*
X12182D01*
Y12541D01*
X12197Y12543D01*
X12222Y12553D01*
X12244Y12570D01*
X12261Y12592D01*
X12272Y12618D01*
X12274Y12632D01*
D02*
G37*
G36*
X14567Y12694D02*
X14551Y12692D01*
X14525Y12681D01*
X14502Y12663D01*
X14485Y12641D01*
X14474Y12614D01*
X14472Y12598D01*
X14567D01*
Y12694D01*
D02*
G37*
G36*
X17071Y12319D02*
X16980D01*
Y12227D01*
X16995Y12229D01*
X17020Y12240D01*
X17042Y12257D01*
X17059Y12279D01*
X17069Y12304D01*
X17071Y12319D01*
D02*
G37*
G36*
X12528Y12449D02*
X12318D01*
Y12239D01*
X12528D01*
Y12449D01*
D02*
G37*
G36*
X16954Y12319D02*
X16863D01*
X16865Y12304D01*
X16875Y12279D01*
X16892Y12257D01*
X16914Y12240D01*
X16940Y12229D01*
X16954Y12227D01*
Y12319D01*
D02*
G37*
G36*
X17221Y12438D02*
X17194Y12434D01*
X17168Y12423D01*
X17146Y12407D01*
X17129Y12385D01*
X17119Y12359D01*
X17115Y12332D01*
X17119Y12304D01*
X17129Y12279D01*
X17146Y12257D01*
X17168Y12240D01*
X17194Y12229D01*
X17221Y12226D01*
X17249Y12229D01*
X17274Y12240D01*
X17296Y12257D01*
X17313Y12279D01*
X17323Y12304D01*
X17327Y12332D01*
X17323Y12359D01*
X17313Y12385D01*
X17296Y12407D01*
X17274Y12423D01*
X17249Y12434D01*
X17221Y12438D01*
D02*
G37*
G36*
X17580Y12437D02*
X17370D01*
Y12227D01*
X17580D01*
Y12437D01*
D02*
G37*
G36*
X16980Y12436D02*
Y12344D01*
X17071D01*
X17069Y12359D01*
X17059Y12385D01*
X17042Y12407D01*
X17020Y12423D01*
X16995Y12434D01*
X16980Y12436D01*
D02*
G37*
G36*
X12157Y12449D02*
X12142Y12447D01*
X12116Y12436D01*
X12094Y12419D01*
X12078Y12397D01*
X12067Y12372D01*
X12065Y12357D01*
X12157D01*
Y12449D01*
D02*
G37*
G36*
X16954Y12436D02*
X16940Y12434D01*
X16914Y12423D01*
X16892Y12407D01*
X16875Y12385D01*
X16865Y12359D01*
X16863Y12344D01*
X16954D01*
Y12436D01*
D02*
G37*
G36*
X12157Y12332D02*
X12065D01*
X12067Y12317D01*
X12078Y12291D01*
X12094Y12270D01*
X12116Y12253D01*
X12142Y12242D01*
X12157Y12240D01*
Y12332D01*
D02*
G37*
G36*
X12274D02*
X12182D01*
Y12240D01*
X12197Y12242D01*
X12222Y12253D01*
X12244Y12270D01*
X12261Y12291D01*
X12272Y12317D01*
X12274Y12332D01*
D02*
G37*
%LPD*%
D10*
X18047Y13176D02*
G03*
X18041Y13163I13J-13D01*
G01*
X13767Y11989D02*
X13767Y11989D01*
X18041Y13127D02*
Y13157D01*
Y13157D01*
Y13163D01*
D11*
X12364Y13475D02*
G03*
X11988Y13319I0J-532D01*
G01*
X17696Y9035D02*
G03*
X17526Y8865I0J-170D01*
G01*
X18013Y9035D02*
G03*
X18631Y9652I0J617D01*
G01*
Y9723D02*
G03*
X18148Y10205I-483J0D01*
G01*
X14097Y10681D02*
G03*
X14986Y11049I0J1257D01*
G01*
X15807Y11582D02*
G03*
X15316Y11379I0J-694D01*
G01*
X18962Y11598D02*
G03*
X19204Y12183I-585J585D01*
G01*
X18640Y11284D02*
G03*
X17920Y11582I-720J-720D01*
G01*
X15491Y10205D02*
G03*
X14684Y9398I0J-807D01*
G01*
X16169Y9042D02*
G03*
X16837Y9319I0J945D01*
G01*
X14097Y9949D02*
G03*
X15004Y9042I907J0D01*
G01*
X11915Y12344D02*
G03*
X12187Y11689I926J0D01*
G01*
X12558Y11318D02*
G03*
X14097Y10681I1539J1539D01*
G01*
X16213Y13157D02*
G03*
X14834Y12586I0J-1951D01*
G01*
X19204Y12990D02*
G03*
X19037Y13157I-167J0D01*
G01*
X17386Y10205D02*
Y10375D01*
X16624Y10205D02*
X17386D01*
X15900D02*
X16624D01*
Y10375D01*
X15900Y10205D02*
Y10375D01*
X12364Y13475D02*
X13119D01*
X11915Y13246D02*
X11988Y13319D01*
X11915Y12645D02*
Y12946D01*
Y13246D01*
X14097Y10033D02*
Y10516D01*
Y10681D02*
Y10681D01*
Y10516D02*
Y10681D01*
X18631Y9652D02*
Y9723D01*
X17696Y9035D02*
X18013D01*
X18148Y10205D02*
Y10375D01*
X17386Y10205D02*
X18148D01*
X18644Y11280D02*
X18644Y11280D01*
X19204Y12183D02*
Y12990D01*
X14986Y11049D02*
X15316Y11379D01*
X15316Y11379D01*
X18640Y11284D02*
X18644Y11280D01*
X18644Y11280D02*
X18962Y11598D01*
X15807Y11582D02*
X17920D01*
X15491Y10205D02*
X15900D01*
X14097Y9949D02*
Y10033D01*
X15004Y9042D02*
X16169D01*
X16837Y9319D02*
X16891Y9373D01*
X12187Y11689D02*
X12243Y11633D01*
X12558Y11318D01*
X11915Y12344D02*
Y12344D01*
Y12645D01*
X16213Y13157D02*
X18041D01*
X18275D01*
X18041Y13157D02*
X19037D01*
X14834Y12586D02*
X14834Y12586D01*
D14*
X17907Y9373D02*
D03*
X14808Y11684D02*
D03*
Y11379D02*
D03*
X12423Y12344D02*
D03*
Y12645D02*
D03*
Y12946D02*
D03*
Y13246D02*
D03*
X17475Y12332D02*
D03*
X14808Y11989D02*
D03*
X11735Y10706D02*
D03*
D23*
X13119Y12967D02*
D03*
X13449D02*
D03*
X13779D02*
D03*
X14110D02*
D03*
X18148Y10375D02*
D03*
X17386D02*
D03*
X16624D02*
D03*
X15900D02*
D03*
X17894Y9665D02*
D03*
X17653D02*
D03*
X16383D02*
D03*
X16142D02*
D03*
D24*
X12979Y9411D02*
D03*
X18885Y10452D02*
D03*
D25*
X16129Y9373D02*
D03*
X16256Y8865D02*
D03*
X16383Y9373D02*
D03*
X16510Y8865D02*
D03*
X17145Y9373D02*
D03*
X17272Y8865D02*
D03*
X17399Y9373D02*
D03*
X17526Y8865D02*
D03*
X17653Y9373D02*
D03*
X17780Y8865D02*
D03*
X16637Y9373D02*
D03*
X16764Y8865D02*
D03*
X16891Y9373D02*
D03*
X17018Y8865D02*
D03*
X13119Y13221D02*
D03*
Y13475D02*
D03*
X13449Y13221D02*
D03*
Y13475D02*
D03*
X13779Y13221D02*
D03*
Y13475D02*
D03*
X14110Y13221D02*
D03*
Y13475D02*
D03*
X15062Y11684D02*
D03*
X15316D02*
D03*
X15062Y11379D02*
D03*
X15316D02*
D03*
X12169Y12344D02*
D03*
X11915D02*
D03*
X12169Y12645D02*
D03*
X11915D02*
D03*
X12169Y12946D02*
D03*
X11915D02*
D03*
X12169Y13246D02*
D03*
X11915D02*
D03*
X16205Y12332D02*
D03*
X16459D02*
D03*
X16713D02*
D03*
X16967D02*
D03*
X17221D02*
D03*
X15062Y11989D02*
D03*
X15316D02*
D03*
X11989Y10706D02*
D03*
X12243D02*
D03*
X18148Y9665D02*
D03*
X17386D02*
D03*
X16624D02*
D03*
X15900D02*
D03*
X17894Y10375D02*
D03*
X17653D02*
D03*
X16383D02*
D03*
X16142D02*
D03*
D26*
X15049Y10071D02*
D03*
X14618Y13500D02*
D03*
D27*
X15049Y10579D02*
D03*
X11735Y11633D02*
D03*
X12230Y10071D02*
D03*
X14618Y13246D02*
D03*
X14580Y12586D02*
D03*
X19139Y9652D02*
D03*
D28*
X12243Y11633D02*
D03*
X11722Y10071D02*
D03*
X14834Y12586D02*
D03*
X18631Y9652D02*
D03*
D29*
X12126Y9411D02*
D03*
X15034Y9398D02*
D03*
X18644Y11630D02*
D03*
D30*
X11776Y9411D02*
D03*
X14684Y9398D02*
D03*
D31*
X14097Y10033D02*
D03*
Y10516D02*
D03*
D32*
X13897Y10033D02*
D03*
X13697D02*
D03*
X13497D02*
D03*
X13897Y10516D02*
D03*
X13697D02*
D03*
X13497D02*
D03*
D33*
X18644Y11280D02*
D03*
D34*
X16878Y10655D02*
D03*
X16116D02*
D03*
X17132D02*
D03*
X17894D02*
D03*
D35*
X17920Y11582D02*
D03*
D36*
Y11836D02*
D03*
Y12090D02*
D03*
D37*
X13767Y11989D02*
D03*
X18041Y13127D02*
D03*
X13983Y10858D02*
D03*
X17501Y13449D02*
D03*
X18656Y10935D02*
D03*
X17818Y12967D02*
D03*
D38*
X13767Y11989D02*
G03*
X14135Y11836I368J368D01*
G01*
X15316Y11684D02*
Y11836D01*
Y11989D01*
X14135Y11836D02*
X15316D01*
M02*
