%FSLAX42Y42*%
%MOMM*%
G71*
G01*
G75*
G04 Layer_Color=65535*
%ADD10C,0.30*%
%ADD11C,1.30*%
%ADD12R,0.90X1.55*%
%ADD13R,1.55X0.90*%
%ADD14R,1.50X1.50*%
%ADD15O,2.40X0.35*%
%ADD16R,1.00X1.70*%
%ADD17R,1.70X1.00*%
%ADD18R,2.10X1.40*%
%ADD19O,1.75X0.55*%
%ADD20O,0.55X1.75*%
%ADD21R,2.35X0.50*%
%ADD22R,2.50X2.35*%
%ADD23R,1.50X1.50*%
%ADD24C,1.50*%
%ADD25R,1.57X1.57*%
%ADD26C,1.57*%
%ADD27R,1.57X1.57*%
%ADD28C,2.50*%
%ADD29R,2.50X2.50*%
%ADD30R,1.30X1.30*%
%ADD31C,1.30*%
%ADD32R,2.50X2.50*%
%ADD33C,6.90*%
%ADD34C,1.40*%
%ADD35R,2.50X1.80*%
%ADD36O,2.50X1.80*%
%ADD37C,1.27*%
%ADD38C,0.25*%
%ADD39C,0.60*%
%ADD40C,0.25*%
%ADD41C,0.15*%
%ADD42C,0.20*%
%ADD43C,0.30*%
%ADD44R,1.90X0.80*%
D38*
X15258Y13525D02*
G03*
X15258Y13525I-12J0D01*
G01*
X13144Y11246D02*
G03*
X13144Y11246I-12J0D01*
G01*
X18054Y12826D02*
G03*
X18054Y12826I-12J0D01*
G01*
D39*
X15536Y13455D02*
G03*
X15536Y13455I-30J0D01*
G01*
X13309Y11476D02*
G03*
X13309Y11476I-30J0D01*
G01*
D40*
X15901Y12032D02*
G03*
X15901Y12032I-5J0D01*
G01*
X15699Y10325D02*
G03*
X15699Y10325I-650J0D01*
G01*
X13506Y9207D02*
G03*
X13506Y9207I-450J0D01*
G01*
X12534Y9980D02*
G03*
X12534Y9980I-10J0D01*
G01*
X12451Y10566D02*
G03*
X12451Y10566I-450J0D01*
G01*
X19310Y9525D02*
G03*
X19310Y9525I-450J0D01*
G01*
X13640Y9629D02*
G03*
X13640Y9629I-10J0D01*
G01*
X18423Y10975D02*
G03*
X18423Y10975I-10J0D01*
G01*
X15846Y12076D02*
X16446D01*
Y11476D02*
Y12076D01*
X15846Y11476D02*
X16446D01*
X15846D02*
Y12076D01*
X12446Y9398D02*
Y9525D01*
X11506Y9957D02*
X12446D01*
X11506Y9042D02*
Y9957D01*
Y9042D02*
X12446D01*
Y9093D01*
X13297Y10313D02*
X14297D01*
X13297Y9863D02*
X13597D01*
X13297D02*
Y10313D01*
X14297Y9863D02*
Y10313D01*
X13997Y9863D02*
X14297D01*
X13297Y10796D02*
X14297D01*
X13297Y10346D02*
X13597D01*
X13297D02*
Y10796D01*
X14297Y10346D02*
Y10796D01*
X13997Y10346D02*
X14297D01*
X14084Y9550D02*
X14211D01*
X13652Y8611D02*
Y9550D01*
Y8611D02*
X14567D01*
Y9550D01*
X14516D02*
X14567D01*
X18491Y11430D02*
Y11557D01*
Y10998D02*
X19431D01*
Y11913D01*
X18491D02*
X19431D01*
X18491Y11862D02*
Y11913D01*
X17758Y11138D02*
Y12154D01*
X18212Y11138D02*
Y12154D01*
X17704Y11138D02*
Y12154D01*
X18212D01*
X17704Y11138D02*
X18212D01*
X12959Y12720D02*
Y12593D01*
X12984Y12568D01*
X13035D01*
X13061Y12593D01*
Y12720D01*
X13111Y12695D02*
X13137Y12720D01*
X13188D01*
X13213Y12695D01*
Y12669D01*
X13188Y12644D01*
X13162D01*
X13188D01*
X13213Y12619D01*
Y12593D01*
X13188Y12568D01*
X13137D01*
X13111Y12593D01*
X17411Y13021D02*
X17259D01*
Y13097D01*
X17284Y13123D01*
X17335D01*
X17360Y13097D01*
Y13021D01*
Y13072D02*
X17411Y13123D01*
X17284Y13174D02*
X17259Y13199D01*
Y13250D01*
X17284Y13275D01*
X17309D01*
X17335Y13250D01*
Y13224D01*
Y13250D01*
X17360Y13275D01*
X17386D01*
X17411Y13250D01*
Y13199D01*
X17386Y13174D01*
X11354Y13449D02*
Y13602D01*
X11430D01*
X11455Y13576D01*
Y13525D01*
X11430Y13500D01*
X11354D01*
X11405D02*
X11455Y13449D01*
X11506D02*
X11557D01*
X11532D01*
Y13602D01*
X11506D01*
X11709Y13449D02*
X11659D01*
X11633Y13475D01*
Y13525D01*
X11659Y13551D01*
X11709D01*
X11735Y13525D01*
Y13500D01*
X11633D01*
X11887Y13602D02*
Y13449D01*
X11811D01*
X11785Y13475D01*
Y13525D01*
X11811Y13551D01*
X11887D01*
X12039Y13602D02*
Y13449D01*
X11963D01*
X11938Y13475D01*
Y13525D01*
X11963Y13551D01*
X12039D01*
X12166Y13449D02*
X12116D01*
X12090Y13475D01*
Y13525D01*
X12116Y13551D01*
X12166D01*
X12192Y13525D01*
Y13500D01*
X12090D01*
X12243Y13602D02*
Y13449D01*
X12319D01*
X12344Y13475D01*
Y13500D01*
Y13525D01*
X12319Y13551D01*
X12243D01*
X12395D02*
Y13475D01*
X12420Y13449D01*
X12496D01*
Y13551D01*
X12598Y13399D02*
X12623D01*
X12649Y13424D01*
Y13551D01*
X12573D01*
X12547Y13525D01*
Y13475D01*
X12573Y13449D01*
X12649D01*
X15801Y9690D02*
Y9563D01*
X15827Y9538D01*
X15878D01*
X15903Y9563D01*
Y9690D01*
X15954Y9538D02*
X16004D01*
X15979D01*
Y9690D01*
X15954Y9665D01*
X13068Y11112D02*
Y10960D01*
X12992D01*
X12967Y10986D01*
Y11036D01*
X12992Y11062D01*
X13068D01*
X13018D02*
X12967Y11112D01*
X12916Y11163D02*
Y11011D01*
X12840D01*
X12814Y11036D01*
Y11087D01*
X12840Y11112D01*
X12916D01*
X12764Y11011D02*
Y11087D01*
X12738Y11112D01*
X12662D01*
Y11011D01*
X12611Y11112D02*
X12560D01*
X12586D01*
Y10960D01*
X12611D01*
X12484Y11112D02*
X12434D01*
X12459D01*
Y10960D01*
X12484D01*
X12357Y11011D02*
Y11087D01*
X12332Y11112D01*
X12256D01*
Y11011D01*
X12205Y11163D02*
Y11011D01*
X12129D01*
X12103Y11036D01*
Y11087D01*
X12129Y11112D01*
X12205D01*
X17628Y12192D02*
Y12344D01*
X17704D01*
X17729Y12319D01*
Y12268D01*
X17704Y12243D01*
X17628D01*
X17678D02*
X17729Y12192D01*
X17780Y12141D02*
Y12294D01*
X17856D01*
X17882Y12268D01*
Y12217D01*
X17856Y12192D01*
X17780D01*
X17932D02*
X17983D01*
X17958D01*
Y12344D01*
X17932Y12319D01*
X16827Y11900D02*
Y11798D01*
Y11849D01*
X16853Y11874D01*
X16878Y11900D01*
X16904D01*
X17056Y11798D02*
X17005D01*
X16980Y11824D01*
Y11874D01*
X17005Y11900D01*
X17056D01*
X17081Y11874D01*
Y11849D01*
X16980D01*
X17132Y11798D02*
X17208D01*
X17234Y11824D01*
X17208Y11849D01*
X17158D01*
X17132Y11874D01*
X17158Y11900D01*
X17234D01*
X17361Y11798D02*
X17310D01*
X17285Y11824D01*
Y11874D01*
X17310Y11900D01*
X17361D01*
X17386Y11874D01*
Y11849D01*
X17285D01*
X17462Y11925D02*
Y11900D01*
X17437D01*
X17488D01*
X17462D01*
Y11824D01*
X17488Y11798D01*
X17602Y13360D02*
Y13513D01*
X17678D01*
X17704Y13487D01*
Y13437D01*
X17678Y13411D01*
X17602D01*
X17653D02*
X17704Y13360D01*
X17856Y13513D02*
X17755D01*
Y13437D01*
X17805Y13462D01*
X17831D01*
X17856Y13437D01*
Y13386D01*
X17831Y13360D01*
X17780D01*
X17755Y13386D01*
X16060Y10818D02*
Y10970D01*
X16137D01*
X16162Y10945D01*
Y10894D01*
X16137Y10869D01*
X16060D01*
X16111D02*
X16162Y10818D01*
X16289D02*
Y10970D01*
X16213Y10894D01*
X16314D01*
X17399Y13335D02*
X17247D01*
Y13411D01*
X17272Y13437D01*
X17323D01*
X17348Y13411D01*
Y13335D01*
Y13386D02*
X17399Y13437D01*
Y13589D02*
Y13487D01*
X17297Y13589D01*
X17272D01*
X17247Y13564D01*
Y13513D01*
X17272Y13487D01*
X17076Y10818D02*
Y10970D01*
X17153D01*
X17178Y10945D01*
Y10894D01*
X17153Y10869D01*
X17076D01*
X17127D02*
X17178Y10818D01*
X17229D02*
X17280D01*
X17254D01*
Y10970D01*
X17229Y10945D01*
X13632Y9728D02*
Y9881D01*
X13708D01*
X13734Y9855D01*
Y9804D01*
X13708Y9779D01*
X13632D01*
X13785Y9728D02*
Y9830D01*
X13810D01*
X13835Y9804D01*
Y9728D01*
Y9804D01*
X13861Y9830D01*
X13886Y9804D01*
Y9728D01*
X13962D02*
X14013D01*
X14038Y9754D01*
Y9804D01*
X14013Y9830D01*
X13962D01*
X13937Y9804D01*
Y9754D01*
X13962Y9728D01*
X14115Y9855D02*
Y9830D01*
X14089D01*
X14140D01*
X14115D01*
Y9754D01*
X14140Y9728D01*
X15469Y11697D02*
Y11849D01*
X15545D01*
X15570Y11824D01*
Y11773D01*
X15545Y11747D01*
X15469D01*
X15621Y11697D02*
X15672D01*
X15646D01*
Y11849D01*
X15621Y11824D01*
X15748Y11697D02*
X15799D01*
X15773D01*
Y11849D01*
X15748Y11824D01*
X11671Y8801D02*
Y8953D01*
X11747D01*
X11773Y8928D01*
Y8877D01*
X11747Y8852D01*
X11671D01*
X11824Y8801D02*
X11874D01*
X11849D01*
Y8953D01*
X11824Y8928D01*
X11951D02*
X11976Y8953D01*
X12027D01*
X12052Y8928D01*
Y8826D01*
X12027Y8801D01*
X11976D01*
X11951Y8826D01*
Y8928D01*
X12103Y8953D02*
Y8852D01*
X12154Y8801D01*
X12205Y8852D01*
Y8953D01*
X14618Y13195D02*
Y13348D01*
X14694D01*
X14719Y13322D01*
Y13271D01*
X14694Y13246D01*
X14618D01*
X14770Y13195D02*
X14821D01*
X14795D01*
Y13348D01*
X14770Y13322D01*
X14897D02*
X14922Y13348D01*
X14973D01*
X14999Y13322D01*
Y13221D01*
X14973Y13195D01*
X14922D01*
X14897Y13221D01*
Y13322D01*
X14681Y12941D02*
Y13094D01*
X14757D01*
X14783Y13068D01*
Y13017D01*
X14757Y12992D01*
X14681D01*
X14834Y12967D02*
X14859Y12941D01*
X14910D01*
X14935Y12967D01*
Y13068D01*
X14910Y13094D01*
X14859D01*
X14834Y13068D01*
Y13043D01*
X14859Y13017D01*
X14935D01*
X14668Y12713D02*
Y12865D01*
X14745D01*
X14770Y12840D01*
Y12789D01*
X14745Y12763D01*
X14668D01*
X14821Y12840D02*
X14846Y12865D01*
X14897D01*
X14922Y12840D01*
Y12814D01*
X14897Y12789D01*
X14922Y12763D01*
Y12738D01*
X14897Y12713D01*
X14846D01*
X14821Y12738D01*
Y12763D01*
X14846Y12789D01*
X14821Y12814D01*
Y12840D01*
X14846Y12789D02*
X14897D01*
X11493Y12291D02*
Y12444D01*
X11570D01*
X11595Y12418D01*
Y12368D01*
X11570Y12342D01*
X11493D01*
X11646Y12444D02*
X11747D01*
Y12418D01*
X11646Y12317D01*
Y12291D01*
X11493Y12570D02*
Y12722D01*
X11570D01*
X11595Y12697D01*
Y12646D01*
X11570Y12621D01*
X11493D01*
X11747Y12722D02*
X11697Y12697D01*
X11646Y12646D01*
Y12595D01*
X11671Y12570D01*
X11722D01*
X11747Y12595D01*
Y12621D01*
X11722Y12646D01*
X11646D01*
X11493Y12871D02*
Y13023D01*
X11570D01*
X11595Y12998D01*
Y12947D01*
X11570Y12921D01*
X11493D01*
X11747Y13023D02*
X11646D01*
Y12947D01*
X11697Y12972D01*
X11722D01*
X11747Y12947D01*
Y12896D01*
X11722Y12871D01*
X11671D01*
X11646Y12896D01*
X14351Y11265D02*
Y11417D01*
X14427D01*
X14453Y11392D01*
Y11341D01*
X14427Y11316D01*
X14351D01*
X14580Y11265D02*
Y11417D01*
X14503Y11341D01*
X14605D01*
X14668Y13424D02*
Y13576D01*
X14745D01*
X14770Y13551D01*
Y13500D01*
X14745Y13475D01*
X14668D01*
X14922Y13424D02*
X14821D01*
X14922Y13525D01*
Y13551D01*
X14897Y13576D01*
X14846D01*
X14821Y13551D01*
X11557Y13183D02*
Y13335D01*
X11633D01*
X11659Y13310D01*
Y13259D01*
X11633Y13233D01*
X11557D01*
X11709Y13183D02*
X11760D01*
X11735D01*
Y13335D01*
X11709Y13310D01*
X14696Y12355D02*
Y12202D01*
X14798D01*
X14874Y12304D02*
X14925D01*
X14950Y12278D01*
Y12202D01*
X14874D01*
X14849Y12228D01*
X14874Y12253D01*
X14950D01*
X15001Y12202D02*
X15052D01*
X15027D01*
Y12304D01*
X15001D01*
X15128Y12202D02*
X15204D01*
X15230Y12228D01*
X15204Y12253D01*
X15153D01*
X15128Y12278D01*
X15153Y12304D01*
X15230D01*
X15280Y12202D02*
X15357D01*
X15382Y12228D01*
X15357Y12253D01*
X15306D01*
X15280Y12278D01*
X15306Y12304D01*
X15382D01*
X15509Y12202D02*
X15458D01*
X15433Y12228D01*
Y12278D01*
X15458Y12304D01*
X15509D01*
X15534Y12278D01*
Y12253D01*
X15433D01*
X15687Y12329D02*
X15661Y12355D01*
X15611D01*
X15585Y12329D01*
Y12228D01*
X15611Y12202D01*
X15661D01*
X15687Y12228D01*
X15763Y12202D02*
X15814D01*
X15839Y12228D01*
Y12278D01*
X15814Y12304D01*
X15763D01*
X15738Y12278D01*
Y12228D01*
X15763Y12202D01*
X15890D02*
Y12304D01*
X15966D01*
X15991Y12278D01*
Y12202D01*
X13411Y11036D02*
X13310D01*
Y10884D01*
X13411D01*
X13310Y10960D02*
X13360D01*
X13462Y10884D02*
Y10985D01*
X13538D01*
X13564Y10960D01*
Y10884D01*
X13716Y10985D02*
X13640D01*
X13614Y10960D01*
Y10909D01*
X13640Y10884D01*
X13716D01*
X13792D02*
X13843D01*
X13868Y10909D01*
Y10960D01*
X13843Y10985D01*
X13792D01*
X13767Y10960D01*
Y10909D01*
X13792Y10884D01*
X14021Y11036D02*
Y10884D01*
X13944D01*
X13919Y10909D01*
Y10960D01*
X13944Y10985D01*
X14021D01*
X14148Y10884D02*
X14097D01*
X14071Y10909D01*
Y10960D01*
X14097Y10985D01*
X14148D01*
X14173Y10960D01*
Y10935D01*
X14071D01*
X14224Y10985D02*
Y10909D01*
X14249Y10884D01*
X14325D01*
Y10985D01*
X14376D02*
Y10884D01*
Y10935D01*
X14401Y10960D01*
X14427Y10985D01*
X14452D01*
X14630Y10884D02*
X14528D01*
X14630Y10985D01*
Y11011D01*
X14605Y11036D01*
X14554D01*
X14528Y11011D01*
X18796Y13513D02*
Y13360D01*
X18872D01*
X18898Y13386D01*
Y13487D01*
X18872Y13513D01*
X18796D01*
X18948Y13360D02*
X18999D01*
X18974D01*
Y13513D01*
X18948Y13487D01*
X19075Y13360D02*
X19126D01*
X19101D01*
Y13513D01*
X19075Y13487D01*
X16102Y13017D02*
X16254D01*
Y13093D01*
X16229Y13118D01*
X16127D01*
X16102Y13093D01*
Y13017D01*
X16254Y13245D02*
X16102D01*
X16178Y13169D01*
Y13271D01*
X16104Y13322D02*
X16256D01*
Y13398D01*
X16231Y13424D01*
X16129D01*
X16104Y13398D01*
Y13322D01*
X16129Y13475D02*
X16104Y13500D01*
Y13551D01*
X16129Y13576D01*
X16154D01*
X16180Y13551D01*
Y13525D01*
Y13551D01*
X16205Y13576D01*
X16231D01*
X16256Y13551D01*
Y13500D01*
X16231Y13475D01*
X13830Y12675D02*
X13805Y12700D01*
X13754D01*
X13729Y12675D01*
Y12573D01*
X13754Y12548D01*
X13805D01*
X13830Y12573D01*
X13983Y12700D02*
Y12548D01*
X13906D01*
X13881Y12573D01*
Y12624D01*
X13906Y12649D01*
X13983D01*
X14110Y12548D02*
X14059D01*
X14033Y12573D01*
Y12624D01*
X14059Y12649D01*
X14110D01*
X14135Y12624D01*
Y12598D01*
X14033D01*
X15913Y11366D02*
X15888Y11392D01*
X15837D01*
X15812Y11366D01*
Y11265D01*
X15837Y11239D01*
X15888D01*
X15913Y11265D01*
X16065Y11392D02*
Y11239D01*
X15989D01*
X15964Y11265D01*
Y11316D01*
X15989Y11341D01*
X16065D01*
X16192Y11239D02*
X16142D01*
X16116Y11265D01*
Y11316D01*
X16142Y11341D01*
X16192D01*
X16218Y11316D01*
Y11290D01*
X16116D01*
X16370Y11341D02*
X16294D01*
X16269Y11316D01*
Y11265D01*
X16294Y11239D01*
X16370D01*
X16446D02*
X16497D01*
X16522Y11265D01*
Y11316D01*
X16497Y11341D01*
X16446D01*
X16421Y11316D01*
Y11265D01*
X16446Y11239D01*
X16573Y11341D02*
Y11265D01*
X16599Y11239D01*
X16675D01*
Y11341D01*
X16726Y11189D02*
Y11341D01*
X16802D01*
X16827Y11316D01*
Y11265D01*
X16802Y11239D01*
X16726D01*
X16980Y11392D02*
X16878D01*
Y11316D01*
X16929Y11341D01*
X16954D01*
X16980Y11316D01*
Y11265D01*
X16954Y11239D01*
X16903D01*
X16878Y11265D01*
X12725Y11303D02*
X12700Y11278D01*
Y11227D01*
X12725Y11201D01*
X12827D01*
X12852Y11227D01*
Y11278D01*
X12827Y11303D01*
X12700Y11455D02*
X12852D01*
Y11379D01*
X12827Y11354D01*
X12776D01*
X12751Y11379D01*
Y11455D01*
X12852Y11582D02*
Y11531D01*
X12827Y11506D01*
X12776D01*
X12751Y11531D01*
Y11582D01*
X12776Y11608D01*
X12802D01*
Y11506D01*
X12751Y11760D02*
Y11684D01*
X12776Y11658D01*
X12827D01*
X12852Y11684D01*
Y11760D01*
Y11836D02*
Y11887D01*
X12827Y11912D01*
X12776D01*
X12751Y11887D01*
Y11836D01*
X12776Y11811D01*
X12827D01*
X12852Y11836D01*
X12751Y11963D02*
X12827D01*
X12852Y11989D01*
Y12065D01*
X12751D01*
X12903Y12116D02*
X12751D01*
Y12192D01*
X12776Y12217D01*
X12827D01*
X12852Y12192D01*
Y12116D01*
Y12344D02*
X12700D01*
X12776Y12268D01*
Y12369D01*
X18517Y9944D02*
X18491Y9919D01*
Y9868D01*
X18517Y9843D01*
X18618D01*
X18644Y9868D01*
Y9919D01*
X18618Y9944D01*
X18491Y10096D02*
X18644D01*
Y10020D01*
X18618Y9995D01*
X18567D01*
X18542Y10020D01*
Y10096D01*
X18644Y10223D02*
Y10173D01*
X18618Y10147D01*
X18567D01*
X18542Y10173D01*
Y10223D01*
X18567Y10249D01*
X18593D01*
Y10147D01*
X18542Y10401D02*
Y10325D01*
X18567Y10300D01*
X18618D01*
X18644Y10325D01*
Y10401D01*
Y10477D02*
Y10528D01*
X18618Y10553D01*
X18567D01*
X18542Y10528D01*
Y10477D01*
X18567Y10452D01*
X18618D01*
X18644Y10477D01*
X18542Y10604D02*
X18618D01*
X18644Y10630D01*
Y10706D01*
X18542D01*
X18694Y10757D02*
X18542D01*
Y10833D01*
X18567Y10858D01*
X18618D01*
X18644Y10833D01*
Y10757D01*
X18517Y10909D02*
X18491Y10934D01*
Y10985D01*
X18517Y11011D01*
X18542D01*
X18567Y10985D01*
Y10960D01*
Y10985D01*
X18593Y11011D01*
X18618D01*
X18644Y10985D01*
Y10934D01*
X18618Y10909D01*
X14402Y11938D02*
X14376Y11913D01*
Y11862D01*
X14402Y11836D01*
X14503D01*
X14529Y11862D01*
Y11913D01*
X14503Y11938D01*
X14376Y12090D02*
X14529D01*
Y12014D01*
X14503Y11989D01*
X14453D01*
X14427Y12014D01*
Y12090D01*
X14529Y12217D02*
Y12166D01*
X14503Y12141D01*
X14453D01*
X14427Y12166D01*
Y12217D01*
X14453Y12243D01*
X14478D01*
Y12141D01*
X14427Y12395D02*
Y12319D01*
X14453Y12293D01*
X14503D01*
X14529Y12319D01*
Y12395D01*
Y12471D02*
Y12522D01*
X14503Y12547D01*
X14453D01*
X14427Y12522D01*
Y12471D01*
X14453Y12446D01*
X14503D01*
X14529Y12471D01*
X14427Y12598D02*
X14503D01*
X14529Y12624D01*
Y12700D01*
X14427D01*
X14580Y12751D02*
X14427D01*
Y12827D01*
X14453Y12852D01*
X14503D01*
X14529Y12827D01*
Y12751D01*
Y13004D02*
Y12903D01*
X14427Y13004D01*
X14402D01*
X14376Y12979D01*
Y12928D01*
X14402Y12903D01*
X18847Y8953D02*
X18821Y8979D01*
X18771D01*
X18745Y8953D01*
Y8852D01*
X18771Y8826D01*
X18821D01*
X18847Y8852D01*
X18999Y8979D02*
X18898D01*
Y8903D01*
X18948Y8928D01*
X18974D01*
X18999Y8903D01*
Y8852D01*
X18974Y8826D01*
X18923D01*
X18898Y8852D01*
X17554Y13205D02*
X17529Y13231D01*
X17478D01*
X17452Y13205D01*
Y13104D01*
X17478Y13078D01*
X17529D01*
X17554Y13104D01*
X17681Y13078D02*
Y13231D01*
X17605Y13155D01*
X17706D01*
X12675Y10617D02*
X12649Y10643D01*
X12598D01*
X12573Y10617D01*
Y10516D01*
X12598Y10490D01*
X12649D01*
X12675Y10516D01*
X12725Y10617D02*
X12751Y10643D01*
X12802D01*
X12827Y10617D01*
Y10592D01*
X12802Y10566D01*
X12776D01*
X12802D01*
X12827Y10541D01*
Y10516D01*
X12802Y10490D01*
X12751D01*
X12725Y10516D01*
X13030Y9893D02*
X13005Y9919D01*
X12954D01*
X12929Y9893D01*
Y9792D01*
X12954Y9766D01*
X13005D01*
X13030Y9792D01*
X13183Y9766D02*
X13081D01*
X13183Y9868D01*
Y9893D01*
X13157Y9919D01*
X13106D01*
X13081Y9893D01*
X15037Y9563D02*
X15011Y9588D01*
X14961D01*
X14935Y9563D01*
Y9461D01*
X14961Y9436D01*
X15011D01*
X15037Y9461D01*
X15088Y9436D02*
X15138D01*
X15113D01*
Y9588D01*
X15088Y9563D01*
X11648Y11529D02*
Y11631D01*
X11699Y11681D01*
X11750Y11631D01*
Y11529D01*
Y11605D01*
X11648D01*
X11801Y11681D02*
X11902Y11529D01*
Y11681D02*
X11801Y11529D01*
X11953D02*
X12004D01*
X11979D01*
Y11681D01*
X11953Y11656D01*
X12182Y11529D02*
X12080D01*
X12182Y11631D01*
Y11656D01*
X12156Y11681D01*
X12105D01*
X12080Y11656D01*
X12232Y11504D02*
X12334D01*
X12385Y11681D02*
Y11529D01*
X12461D01*
X12486Y11554D01*
Y11580D01*
X12461Y11605D01*
X12385D01*
X12461D01*
X12486Y11631D01*
Y11656D01*
X12461Y11681D01*
X12385D01*
X15151Y8674D02*
X15049D01*
X15151Y8776D01*
Y8801D01*
X15126Y8826D01*
X15075D01*
X15049Y8801D01*
X15202D02*
X15227Y8826D01*
X15278D01*
X15303Y8801D01*
Y8699D01*
X15278Y8674D01*
X15227D01*
X15202Y8699D01*
Y8801D01*
X15354Y8674D02*
X15405D01*
X15380D01*
Y8826D01*
X15354Y8801D01*
X15481D02*
X15507Y8826D01*
X15557D01*
X15583Y8801D01*
Y8776D01*
X15557Y8750D01*
X15532D01*
X15557D01*
X15583Y8725D01*
Y8699D01*
X15557Y8674D01*
X15507D01*
X15481Y8699D01*
X14656Y9017D02*
Y8865D01*
Y8915D01*
X14757Y9017D01*
X14681Y8941D01*
X14757Y8865D01*
X14910Y9017D02*
X14808D01*
Y8865D01*
X14910D01*
X14808Y8941D02*
X14859D01*
X14961Y8865D02*
Y9017D01*
X15062Y8865D01*
Y9017D01*
X15265Y8941D02*
X15367D01*
X15570Y8865D02*
Y9017D01*
X15671Y8865D01*
Y9017D01*
X15722D02*
X15773D01*
X15748D01*
Y8865D01*
X15722D01*
X15773D01*
X15849D02*
Y9017D01*
X15900Y8966D01*
X15951Y9017D01*
Y8865D01*
X14719Y9220D02*
X14821D01*
Y9195D01*
X14719Y9093D01*
Y9068D01*
X14872D02*
Y9220D01*
X14948D01*
X14973Y9195D01*
Y9144D01*
X14948Y9119D01*
X14872D01*
X14922D02*
X14973Y9068D01*
X15049D02*
X15100D01*
X15126Y9093D01*
Y9144D01*
X15100Y9169D01*
X15049D01*
X15024Y9144D01*
Y9093D01*
X15049Y9068D01*
X15176Y9220D02*
Y9068D01*
X15253D01*
X15278Y9093D01*
Y9119D01*
Y9144D01*
X15253Y9169D01*
X15176D01*
X15329Y9068D02*
X15379D01*
X15354D01*
Y9169D01*
X15329D01*
X15456Y9068D02*
Y9169D01*
X15532D01*
X15557Y9144D01*
Y9068D01*
X15710Y9169D02*
X15633D01*
X15608Y9144D01*
Y9093D01*
X15633Y9068D01*
X15710D01*
X15760Y9220D02*
Y9068D01*
Y9144D01*
X15786Y9169D01*
X15837D01*
X15862Y9144D01*
Y9068D01*
D41*
X17623Y11392D02*
G03*
X17623Y11392I-300J0D01*
G01*
X19299Y10592D02*
G03*
X19299Y10592I-300J0D01*
G01*
X17293Y12167D02*
X17301D01*
X17293Y12014D02*
X17301D01*
X18047Y13339D02*
Y13347D01*
X17894Y13339D02*
Y13347D01*
X17091Y13157D02*
X17099D01*
X17091Y13310D02*
X17099D01*
X17091Y12890D02*
X17099D01*
X17091Y13043D02*
X17099D01*
X12903Y12824D02*
Y12832D01*
X12751Y12824D02*
Y12832D01*
X12662Y11427D02*
Y11435D01*
X12510Y11427D02*
Y11435D01*
X17145Y11468D02*
Y11570D01*
X17094Y11519D02*
X17196D01*
X18821Y10414D02*
X18923D01*
X18872Y10363D02*
Y10465D01*
X17730Y8794D02*
X17830D01*
X17730Y8694D01*
Y8669D01*
X17755Y8644D01*
X17805D01*
X17830Y8669D01*
X16368Y8794D02*
X16319D01*
X16344D01*
Y8644D01*
X16368Y8669D01*
X16169Y8794D02*
Y8644D01*
X16244Y8719D01*
X16144D01*
X16016Y9447D02*
X15967D01*
X15992D01*
Y9297D01*
X16016Y9322D01*
X15792Y9297D02*
X15892D01*
Y9372D01*
X15842Y9347D01*
X15817D01*
X15792Y9372D01*
Y9422D01*
X15817Y9447D01*
X15867D01*
X15892Y9422D01*
X18070Y9447D02*
X18020D01*
X18045D01*
Y9297D01*
X18070Y9322D01*
D42*
X18502Y13539D02*
X18672D01*
X18672Y13309D02*
X18722Y13349D01*
X18672Y13539D02*
X18722Y13499D01*
X18502Y13309D02*
X18672D01*
X18722Y13349D02*
Y13499D01*
X18112Y13309D02*
Y13539D01*
X18302D01*
X18112Y13309D02*
X18302D01*
X16354Y13118D02*
X16524D01*
X16304Y13308D02*
X16354Y13348D01*
X16304Y13158D02*
X16354Y13118D01*
Y13348D02*
X16524D01*
X16304Y13158D02*
Y13308D01*
X16914Y13118D02*
Y13348D01*
X16724Y13118D02*
X16914D01*
X16724Y13348D02*
X16914D01*
X16354Y12852D02*
X16524D01*
X16304Y13042D02*
X16354Y13082D01*
X16304Y12892D02*
X16354Y12852D01*
Y13082D02*
X16524D01*
X16304Y12892D02*
Y13042D01*
X16914Y12852D02*
Y13082D01*
X16724Y12852D02*
X16914D01*
X16724Y13082D02*
X16914D01*
X15406Y12505D02*
Y13555D01*
X15786Y12505D02*
Y13555D01*
X15406D02*
X15786D01*
X15406Y12505D02*
X15786D01*
X13246Y12840D02*
Y13602D01*
X12992D02*
X13246D01*
X12992Y12840D02*
Y13602D01*
Y12840D02*
X13246D01*
X13576D02*
Y13602D01*
X13322D02*
X13576D01*
X13322Y12840D02*
Y13602D01*
Y12840D02*
X13576D01*
X13907D02*
Y13602D01*
X13652D02*
X13907D01*
X13652Y12840D02*
Y13602D01*
Y12840D02*
X13907D01*
X14237D02*
Y13602D01*
X13983D02*
X14237D01*
X13983Y12840D02*
Y13602D01*
Y12840D02*
X14237D01*
X13491Y12713D02*
X13496D01*
X13491Y12535D02*
X13496D01*
X14681Y11557D02*
X15443D01*
Y11811D01*
X14681D02*
X15443D01*
X14681Y11557D02*
Y11811D01*
Y11252D02*
X15443D01*
Y11506D01*
X14681D02*
X15443D01*
X14681Y11252D02*
Y11506D01*
X14364Y11637D02*
Y11642D01*
X14541Y11637D02*
Y11642D01*
X11788Y12471D02*
X12550D01*
X11788Y12217D02*
Y12471D01*
Y12217D02*
X12550D01*
Y12471D01*
X11788Y12772D02*
X12550D01*
X11788Y12518D02*
Y12772D01*
Y12518D02*
X12550D01*
Y12772D01*
X11788Y13073D02*
X12550D01*
X11788Y12819D02*
Y13073D01*
Y12819D02*
X12550D01*
Y13073D01*
X11788Y13373D02*
X12550D01*
X11788Y13119D02*
Y13373D01*
Y13119D02*
X12550D01*
Y13373D01*
X12675Y11739D02*
Y11744D01*
X12497Y11739D02*
Y11744D01*
X14049Y11376D02*
Y12246D01*
X13179Y11376D02*
Y12246D01*
X14049D01*
X13179Y11376D02*
X14049D01*
X17615Y12856D02*
Y12861D01*
X17437Y12856D02*
Y12861D01*
X16078Y12459D02*
X17602D01*
X17560D02*
X17602Y12501D01*
X16163Y12586D02*
Y12924D01*
X16205Y12967D01*
X16248Y12924D01*
Y12586D02*
Y12924D01*
X16417Y12586D02*
Y12924D01*
X16459Y12967D01*
X16502Y12924D01*
Y12586D02*
Y12924D01*
X16671Y12586D02*
Y12924D01*
X16713Y12967D01*
X16756Y12924D01*
Y12586D02*
Y12924D01*
X16925Y12586D02*
Y12924D01*
X16967Y12967D01*
X17010Y12924D01*
Y12586D02*
Y12924D01*
X17179Y12586D02*
Y12924D01*
X17221Y12967D01*
X17264Y12924D01*
Y12586D02*
Y12924D01*
X17433Y12586D02*
Y12924D01*
X17475Y12967D01*
X17518Y12924D01*
Y12586D02*
Y12924D01*
X16078Y12459D02*
Y12586D01*
X17602D01*
Y12459D02*
Y12586D01*
X14681Y11862D02*
X15443D01*
Y12116D01*
X14681D02*
X15443D01*
X14681Y11862D02*
Y12116D01*
X11633Y11163D02*
X12395D01*
Y11417D01*
X11633D02*
X12395D01*
X11633Y11163D02*
Y11417D01*
X12712Y13384D02*
Y13554D01*
X12902Y13604D02*
X12942Y13554D01*
X12712D02*
X12752Y13604D01*
X12942Y13384D02*
Y13554D01*
X12752Y13604D02*
X12902D01*
X12712Y12994D02*
X12942D01*
X12712D02*
Y13184D01*
X12942Y12994D02*
Y13184D01*
X13720Y11011D02*
X13725D01*
X13720Y10833D02*
X13725D01*
X18053Y9825D02*
X18243D01*
X18053D02*
Y10215D01*
X18243Y9825D02*
Y10215D01*
X17291Y9825D02*
X17481D01*
X17291D02*
Y10215D01*
X17481Y9825D02*
Y10215D01*
X16529Y9825D02*
X16719D01*
X16529D02*
Y10215D01*
X16719Y9825D02*
Y10215D01*
X15805Y9825D02*
X15995D01*
X15805D02*
Y10215D01*
X15995Y9825D02*
Y10215D01*
X16008Y7781D02*
X18028D01*
X16008Y8841D02*
X18028D01*
X16008Y7061D02*
Y8841D01*
X18028Y7061D02*
Y8841D01*
X17318Y7061D02*
X18028D01*
X16008D02*
X16718D01*
X16751Y10655D02*
Y10732D01*
X16243D02*
X16751D01*
X16243Y10579D02*
Y10732D01*
Y10579D02*
X16751D01*
Y10655D01*
X16220D02*
X16243D01*
X16751D02*
X16774D01*
X17259Y10579D02*
Y10655D01*
Y10579D02*
X17767D01*
Y10732D01*
X17259D02*
X17767D01*
X17259Y10655D02*
Y10732D01*
X17767Y10655D02*
X17790D01*
X17236D02*
X17259D01*
X17799Y10215D02*
X17989D01*
Y9825D02*
Y10215D01*
X17799Y9825D02*
Y10215D01*
X17558D02*
X17748D01*
Y9825D02*
Y10215D01*
X17558Y9825D02*
Y10215D01*
X16288D02*
X16478D01*
Y9825D02*
Y10215D01*
X16288Y9825D02*
Y10215D01*
X16047D02*
X16237D01*
Y9825D02*
Y10215D01*
X16047Y9825D02*
Y10215D01*
D43*
X15304Y9942D02*
Y10196D01*
X15176Y10069D02*
X15430D01*
X13200Y9444D02*
X13421D01*
X13312Y9335D02*
Y9553D01*
X11636Y10330D02*
X11857D01*
X11745Y10221D02*
Y10439D01*
X18494Y9289D02*
X18715D01*
X18603Y9180D02*
Y9398D01*
D44*
X18148Y10185D02*
D03*
X17386D02*
D03*
X16624D02*
D03*
X15900D02*
D03*
X17894Y9855D02*
D03*
X17653D02*
D03*
X16383D02*
D03*
X16142D02*
D03*
M02*
