%FSLAX42Y42*%
%MOMM*%
G71*
G01*
G75*
G04 Layer_Physical_Order=1*
G04 Layer_Color=255*
%ADD10R,1.55X0.90*%
%ADD11R,0.90X1.55*%
%ADD12R,1.50X1.50*%
%ADD13O,2.40X0.35*%
%ADD14R,1.70X1.00*%
%ADD15R,2.35X0.50*%
%ADD16R,2.50X2.35*%
%ADD17R,1.50X1.50*%
%ADD18R,2.10X1.40*%
%ADD19O,1.75X0.55*%
%ADD20O,0.55X1.75*%
%ADD21R,1.00X1.70*%
%ADD22C,0.30*%
%ADD23C,1.30*%
%ADD24C,1.50*%
%ADD25C,1.57*%
%ADD26R,1.57X1.57*%
%ADD27R,1.30X1.30*%
%ADD28C,1.30*%
%ADD29C,2.50*%
%ADD30R,2.50X2.50*%
%ADD31R,1.57X1.57*%
%ADD32C,6.90*%
%ADD33C,1.40*%
%ADD34R,2.50X1.80*%
%ADD35O,2.50X1.80*%
%ADD36C,1.27*%
G36*
X18618Y13589D02*
X18745D01*
X18771Y13564D01*
X18783Y13551D01*
X18860D01*
X18872Y13538D01*
X18898Y13513D01*
X18936D01*
X18974Y13475D01*
X19012D01*
X19215Y13271D01*
X19279Y13208D01*
Y13195D01*
Y13183D01*
X19304Y13157D01*
X19329Y13132D01*
Y13119D01*
Y13094D01*
X19342Y13081D01*
X19368Y13056D01*
Y13018D01*
Y12979D01*
X19393Y12954D01*
X19406Y12941D01*
Y12890D01*
Y12840D01*
X19418Y12827D01*
X19431Y12814D01*
Y12764D01*
Y12700D01*
Y7938D01*
X11493D01*
Y12776D01*
X12319Y13602D01*
X18605D01*
X18618Y13589D01*
D02*
G37*
%LPC*%
G36*
X18098Y10935D02*
X17956D01*
X17958Y10916D01*
X17970Y10887D01*
X17990Y10862D01*
X18015Y10843D01*
X18044Y10830D01*
X18075Y10826D01*
X18098D01*
Y10935D01*
D02*
G37*
G36*
X18265D02*
X18123D01*
Y10826D01*
X18145D01*
X18177Y10830D01*
X18206Y10843D01*
X18231Y10862D01*
X18250Y10887D01*
X18262Y10916D01*
X18265Y10935D01*
D02*
G37*
G36*
X12268Y10674D02*
Y10579D01*
X12364D01*
X12361Y10595D01*
X12350Y10621D01*
X12333Y10644D01*
X12310Y10661D01*
X12284Y10672D01*
X12268Y10674D01*
D02*
G37*
G36*
X18799Y11029D02*
X18489D01*
Y10719D01*
X18799D01*
Y11029D01*
D02*
G37*
G36*
X18631Y11211D02*
X18489D01*
X18491Y11194D01*
X18500Y11164D01*
X18514Y11137D01*
X18533Y11114D01*
X18557Y11094D01*
X18584Y11080D01*
X18613Y11071D01*
X18631Y11070D01*
Y11211D01*
D02*
G37*
G36*
X18798D02*
X18656D01*
Y11070D01*
X18674Y11071D01*
X18703Y11080D01*
X18730Y11094D01*
X18754Y11114D01*
X18773Y11137D01*
X18787Y11164D01*
X18796Y11194D01*
X18798Y11211D01*
D02*
G37*
G36*
X17209Y11125D02*
X17113D01*
X17115Y11110D01*
X17126Y11083D01*
X17144Y11060D01*
X17166Y11043D01*
X17193Y11032D01*
X17209Y11030D01*
Y11125D01*
D02*
G37*
G36*
X17329D02*
X17234D01*
Y11030D01*
X17250Y11032D01*
X17276Y11043D01*
X17299Y11060D01*
X17316Y11083D01*
X17327Y11110D01*
X17329Y11125D01*
D02*
G37*
G36*
X12243Y10674D02*
X12227Y10672D01*
X12201Y10661D01*
X12178Y10644D01*
X12161Y10621D01*
X12150Y10595D01*
X12147Y10579D01*
X12243D01*
Y10674D01*
D02*
G37*
G36*
X12306Y9479D02*
Y9337D01*
X12448D01*
X12446Y9355D01*
X12437Y9384D01*
X12423Y9411D01*
X12404Y9435D01*
X12380Y9454D01*
X12353Y9468D01*
X12324Y9477D01*
X12306Y9479D01*
D02*
G37*
G36*
X11865Y11395D02*
X11655D01*
Y11185D01*
X11664D01*
Y10675D01*
X11639D01*
Y10458D01*
X11664D01*
Y10208D01*
X11668Y10183D01*
X11668Y10183D01*
X11668Y10183D01*
X11677Y10160D01*
X11692Y10140D01*
X12139Y9694D01*
Y9520D01*
X12449D01*
Y9830D01*
X12274D01*
X11856Y10248D01*
Y10458D01*
X11856D01*
Y10675D01*
X11856D01*
Y11185D01*
X11865D01*
Y11395D01*
D02*
G37*
G36*
X17031Y9426D02*
X17016Y9424D01*
X16991Y9414D01*
X16969Y9397D01*
X16952Y9375D01*
X16942Y9349D01*
X16940Y9335D01*
X17031D01*
Y9426D01*
D02*
G37*
G36*
X12281Y9479D02*
X12263Y9477D01*
X12234Y9468D01*
X12207Y9454D01*
X12183Y9435D01*
X12164Y9411D01*
X12150Y9384D01*
X12141Y9355D01*
X12139Y9337D01*
X12281D01*
Y9479D01*
D02*
G37*
G36*
X17330Y10739D02*
X17112D01*
Y10521D01*
X17330D01*
Y10739D01*
D02*
G37*
G36*
X18265Y10813D02*
X17955D01*
Y10573D01*
X18265D01*
Y10813D01*
D02*
G37*
G36*
X12243Y10554D02*
X12147D01*
X12150Y10538D01*
X12161Y10512D01*
X12178Y10489D01*
X12201Y10471D01*
X12227Y10460D01*
X12243Y10458D01*
Y10554D01*
D02*
G37*
G36*
X12364D02*
X12268D01*
Y10458D01*
X12284Y10460D01*
X12310Y10471D01*
X12333Y10489D01*
X12350Y10512D01*
X12361Y10538D01*
X12364Y10554D01*
D02*
G37*
G36*
X17209Y11246D02*
X17193Y11244D01*
X17166Y11233D01*
X17144Y11215D01*
X17126Y11193D01*
X17115Y11166D01*
X17113Y11151D01*
X17209D01*
Y11246D01*
D02*
G37*
G36*
X15075Y11483D02*
Y11392D01*
X15166D01*
X15164Y11407D01*
X15154Y11432D01*
X15137Y11454D01*
X15115Y11471D01*
X15090Y11481D01*
X15075Y11483D01*
D02*
G37*
G36*
X14440Y11544D02*
X14338D01*
Y11477D01*
X14440D01*
Y11544D01*
D02*
G37*
G36*
X12281Y11395D02*
Y11303D01*
X12372D01*
X12370Y11318D01*
X12360Y11343D01*
X12343Y11365D01*
X12321Y11382D01*
X12296Y11393D01*
X12281Y11395D01*
D02*
G37*
G36*
X15049Y11483D02*
X15035Y11481D01*
X15009Y11471D01*
X14987Y11454D01*
X14970Y11432D01*
X14960Y11407D01*
X14958Y11392D01*
X15049D01*
Y11483D01*
D02*
G37*
G36*
X19292Y11697D02*
X19200D01*
Y11604D01*
X19292D01*
Y11697D01*
D02*
G37*
G36*
X19174Y11814D02*
X19082D01*
Y11722D01*
X19174D01*
Y11814D01*
D02*
G37*
G36*
X14568Y11544D02*
X14465D01*
Y11477D01*
X14568D01*
Y11544D01*
D02*
G37*
G36*
X19174Y11697D02*
X19082D01*
Y11604D01*
X19174D01*
Y11697D01*
D02*
G37*
G36*
X12256Y11395D02*
X12241Y11393D01*
X12215Y11382D01*
X12193Y11365D01*
X12176Y11343D01*
X12166Y11318D01*
X12164Y11303D01*
X12256D01*
Y11395D01*
D02*
G37*
G36*
X12372Y11278D02*
X12281D01*
Y11186D01*
X12296Y11188D01*
X12321Y11199D01*
X12343Y11215D01*
X12360Y11237D01*
X12370Y11263D01*
X12372Y11278D01*
D02*
G37*
G36*
X18631Y11378D02*
X18613Y11377D01*
X18584Y11368D01*
X18557Y11354D01*
X18533Y11334D01*
X18514Y11311D01*
X18500Y11284D01*
X18491Y11254D01*
X18489Y11237D01*
X18631D01*
Y11378D01*
D02*
G37*
G36*
X17234Y11246D02*
Y11151D01*
X17329D01*
X17327Y11166D01*
X17316Y11193D01*
X17299Y11215D01*
X17276Y11233D01*
X17250Y11244D01*
X17234Y11246D01*
D02*
G37*
G36*
X12256Y11278D02*
X12164D01*
X12166Y11263D01*
X12176Y11237D01*
X12193Y11215D01*
X12215Y11199D01*
X12241Y11188D01*
X12256Y11186D01*
Y11278D01*
D02*
G37*
G36*
X15049Y11367D02*
X14958D01*
X14960Y11352D01*
X14970Y11326D01*
X14987Y11304D01*
X15009Y11287D01*
X15035Y11277D01*
X15049Y11275D01*
Y11367D01*
D02*
G37*
G36*
X15166D02*
X15075D01*
Y11275D01*
X15090Y11277D01*
X15115Y11287D01*
X15137Y11304D01*
X15154Y11326D01*
X15164Y11352D01*
X15166Y11367D01*
D02*
G37*
G36*
X18656Y11378D02*
Y11237D01*
X18798D01*
X18796Y11254D01*
X18787Y11284D01*
X18773Y11311D01*
X18754Y11334D01*
X18730Y11354D01*
X18703Y11368D01*
X18674Y11377D01*
X18656Y11378D01*
D02*
G37*
G36*
X15316Y11485D02*
X15289Y11481D01*
X15263Y11471D01*
X15241Y11454D01*
X15224Y11432D01*
X15214Y11407D01*
X15210Y11379D01*
X15214Y11352D01*
X15224Y11326D01*
X15241Y11304D01*
X15263Y11287D01*
X15289Y11277D01*
X15316Y11273D01*
X15344Y11277D01*
X15369Y11287D01*
X15391Y11304D01*
X15408Y11326D01*
X15418Y11352D01*
X15422Y11379D01*
X15418Y11407D01*
X15408Y11432D01*
X15391Y11454D01*
X15369Y11471D01*
X15344Y11481D01*
X15316Y11485D01*
D02*
G37*
G36*
X17031Y9309D02*
X16940D01*
X16942Y9294D01*
X16952Y9269D01*
X16969Y9247D01*
X16991Y9230D01*
X17016Y9220D01*
X17031Y9218D01*
Y9309D01*
D02*
G37*
G36*
X15494Y8519D02*
X15481Y8518D01*
X15456Y8507D01*
X15435Y8491D01*
X15419Y8471D01*
X15409Y8446D01*
X15408Y8433D01*
X15494D01*
Y8519D01*
D02*
G37*
G36*
X15519D02*
Y8433D01*
X15606D01*
X15604Y8446D01*
X15594Y8471D01*
X15578Y8491D01*
X15557Y8507D01*
X15533Y8518D01*
X15519Y8519D01*
D02*
G37*
G36*
X15774Y8433D02*
X15682D01*
X15684Y8418D01*
X15695Y8393D01*
X15712Y8371D01*
X15734Y8354D01*
X15759Y8343D01*
X15774Y8341D01*
Y8433D01*
D02*
G37*
G36*
X15891D02*
X15799D01*
Y8341D01*
X15814Y8343D01*
X15840Y8354D01*
X15862Y8371D01*
X15878Y8393D01*
X15889Y8418D01*
X15891Y8433D01*
D02*
G37*
G36*
X15799Y8550D02*
Y8458D01*
X15891D01*
X15889Y8473D01*
X15878Y8498D01*
X15862Y8520D01*
X15840Y8537D01*
X15814Y8548D01*
X15799Y8550D01*
D02*
G37*
G36*
X12449Y8788D02*
X12139D01*
Y8478D01*
X12449D01*
Y8788D01*
D02*
G37*
G36*
X16497Y9034D02*
X16469Y9030D01*
X16444Y9020D01*
X16422Y9003D01*
X16405Y8981D01*
X16394Y8956D01*
X16391Y8928D01*
X16394Y8901D01*
X16405Y8875D01*
X16422Y8853D01*
X16444Y8836D01*
X16451Y8833D01*
Y8792D01*
X16392D01*
Y8582D01*
X16552D01*
X16556Y8570D01*
X16537Y8550D01*
X16392D01*
Y8340D01*
X16451D01*
Y8299D01*
X16444Y8296D01*
X16422Y8279D01*
X16405Y8257D01*
X16394Y8232D01*
X16391Y8204D01*
X16394Y8177D01*
X16405Y8151D01*
X16422Y8129D01*
X16444Y8112D01*
X16469Y8102D01*
X16497Y8098D01*
X16524Y8102D01*
X16550Y8112D01*
X16572Y8129D01*
X16588Y8151D01*
X16599Y8177D01*
X16603Y8204D01*
X16599Y8232D01*
X16588Y8257D01*
X16572Y8279D01*
X16550Y8296D01*
X16543Y8299D01*
Y8340D01*
X16602D01*
Y8486D01*
X16630Y8514D01*
X16705D01*
X16711Y8503D01*
X16698Y8486D01*
X16688Y8460D01*
X16686Y8446D01*
X16894D01*
X16892Y8460D01*
X16882Y8486D01*
X16869Y8503D01*
X16874Y8514D01*
X16949D01*
X16952Y8507D01*
X16969Y8485D01*
X16991Y8468D01*
X17016Y8458D01*
X17044Y8454D01*
X17071Y8458D01*
X17097Y8468D01*
X17119Y8485D01*
X17136Y8507D01*
X17146Y8532D01*
X17150Y8560D01*
X17146Y8587D01*
X17136Y8613D01*
X17119Y8635D01*
X17097Y8652D01*
X17071Y8662D01*
X17044Y8666D01*
X17016Y8662D01*
X16991Y8652D01*
X16969Y8635D01*
X16952Y8613D01*
X16949Y8606D01*
X16874D01*
X16869Y8617D01*
X16882Y8634D01*
X16892Y8659D01*
X16896Y8687D01*
X16892Y8714D01*
X16882Y8740D01*
X16865Y8762D01*
X16843Y8779D01*
X16817Y8789D01*
X16790Y8793D01*
X16762Y8789D01*
X16737Y8779D01*
X16715Y8762D01*
X16698Y8740D01*
X16695Y8733D01*
X16602D01*
Y8792D01*
X16543D01*
Y8833D01*
X16550Y8836D01*
X16572Y8853D01*
X16588Y8875D01*
X16599Y8901D01*
X16603Y8928D01*
X16599Y8956D01*
X16588Y8981D01*
X16572Y9003D01*
X16550Y9020D01*
X16524Y9030D01*
X16497Y9034D01*
D02*
G37*
G36*
X15774Y8550D02*
X15759Y8548D01*
X15734Y8537D01*
X15712Y8520D01*
X15695Y8498D01*
X15684Y8473D01*
X15682Y8458D01*
X15774D01*
Y8550D01*
D02*
G37*
G36*
X16894Y8420D02*
X16803D01*
Y8329D01*
X16817Y8331D01*
X16843Y8341D01*
X16865Y8358D01*
X16882Y8380D01*
X16892Y8405D01*
X16894Y8420D01*
D02*
G37*
G36*
X12448Y8271D02*
X12306D01*
Y8129D01*
X12324Y8130D01*
X12353Y8139D01*
X12380Y8154D01*
X12404Y8173D01*
X12423Y8197D01*
X12437Y8224D01*
X12446Y8253D01*
X12448Y8271D01*
D02*
G37*
G36*
X12281Y8438D02*
X12263Y8436D01*
X12234Y8427D01*
X12207Y8413D01*
X12183Y8393D01*
X12164Y8370D01*
X12150Y8343D01*
X12141Y8314D01*
X12139Y8296D01*
X12281D01*
Y8438D01*
D02*
G37*
G36*
X15892Y8309D02*
X15682D01*
Y8099D01*
X15892D01*
Y8309D01*
D02*
G37*
G36*
X12281Y8271D02*
X12139D01*
X12141Y8253D01*
X12150Y8224D01*
X12164Y8197D01*
X12183Y8173D01*
X12207Y8154D01*
X12234Y8139D01*
X12263Y8130D01*
X12281Y8129D01*
Y8271D01*
D02*
G37*
G36*
X15606Y8407D02*
X15519D01*
Y8321D01*
X15533Y8323D01*
X15557Y8333D01*
X15578Y8349D01*
X15594Y8370D01*
X15604Y8394D01*
X15606Y8407D01*
D02*
G37*
G36*
X16777Y8420D02*
X16686D01*
X16688Y8405D01*
X16698Y8380D01*
X16715Y8358D01*
X16737Y8341D01*
X16762Y8331D01*
X16777Y8329D01*
Y8420D01*
D02*
G37*
G36*
X12306Y8438D02*
Y8296D01*
X12448D01*
X12446Y8314D01*
X12437Y8343D01*
X12423Y8370D01*
X12404Y8393D01*
X12380Y8413D01*
X12353Y8427D01*
X12324Y8436D01*
X12306Y8438D01*
D02*
G37*
G36*
X15494Y8407D02*
X15408D01*
X15409Y8394D01*
X15419Y8370D01*
X15435Y8349D01*
X15456Y8333D01*
X15481Y8323D01*
X15494Y8321D01*
Y8407D01*
D02*
G37*
G36*
X13444Y8745D02*
X13226D01*
Y8527D01*
X13444D01*
Y8745D01*
D02*
G37*
G36*
X18821Y9698D02*
X18762Y9693D01*
X18705Y9680D01*
X18650Y9657D01*
X18600Y9626D01*
X18555Y9588D01*
X18517Y9543D01*
X18486Y9493D01*
X18463Y9438D01*
X18449Y9381D01*
X18445Y9322D01*
X18449Y9263D01*
X18463Y9206D01*
X18486Y9151D01*
X18517Y9101D01*
X18555Y9056D01*
X18600Y9017D01*
X18650Y8987D01*
X18705Y8964D01*
X18762Y8950D01*
X18821Y8946D01*
X18880Y8950D01*
X18937Y8964D01*
X18992Y8987D01*
X19042Y9017D01*
X19087Y9056D01*
X19125Y9101D01*
X19156Y9151D01*
X19179Y9206D01*
X19192Y9263D01*
X19197Y9322D01*
X19192Y9381D01*
X19179Y9438D01*
X19156Y9493D01*
X19125Y9543D01*
X19087Y9588D01*
X19042Y9626D01*
X18992Y9657D01*
X18937Y9680D01*
X18880Y9693D01*
X18821Y9698D01*
D02*
G37*
G36*
X14796Y9150D02*
X14780Y9148D01*
X14753Y9137D01*
X14731Y9120D01*
X14713Y9097D01*
X14702Y9071D01*
X14700Y9055D01*
X14796D01*
Y9150D01*
D02*
G37*
G36*
Y9030D02*
X14700D01*
X14702Y9014D01*
X14713Y8988D01*
X14731Y8965D01*
X14753Y8947D01*
X14780Y8936D01*
X14796Y8934D01*
Y9030D01*
D02*
G37*
G36*
X14916D02*
X14821D01*
Y8934D01*
X14837Y8936D01*
X14863Y8947D01*
X14886Y8965D01*
X14903Y8988D01*
X14914Y9014D01*
X14916Y9030D01*
D02*
G37*
G36*
X12281Y9312D02*
X12139D01*
X12141Y9294D01*
X12150Y9265D01*
X12164Y9238D01*
X12183Y9214D01*
X12207Y9195D01*
X12234Y9181D01*
X12263Y9172D01*
X12281Y9170D01*
Y9312D01*
D02*
G37*
G36*
X12448D02*
X12306D01*
Y9170D01*
X12324Y9172D01*
X12353Y9181D01*
X12380Y9195D01*
X12404Y9214D01*
X12423Y9238D01*
X12437Y9265D01*
X12446Y9294D01*
X12448Y9312D01*
D02*
G37*
G36*
X14821Y9150D02*
Y9055D01*
X14916D01*
X14914Y9071D01*
X14903Y9097D01*
X14886Y9120D01*
X14863Y9137D01*
X14837Y9148D01*
X14821Y9150D01*
D02*
G37*
G36*
X16790Y9301D02*
X16762Y9297D01*
X16737Y9287D01*
X16715Y9270D01*
X16698Y9248D01*
X16688Y9222D01*
X16684Y9195D01*
X16688Y9167D01*
X16698Y9142D01*
X16715Y9120D01*
X16737Y9103D01*
X16762Y9093D01*
X16790Y9089D01*
X16817Y9093D01*
X16843Y9103D01*
X16865Y9120D01*
X16882Y9142D01*
X16892Y9167D01*
X16896Y9195D01*
X16892Y9222D01*
X16882Y9248D01*
X16865Y9270D01*
X16843Y9287D01*
X16817Y9297D01*
X16790Y9301D01*
D02*
G37*
G36*
X15892Y9033D02*
X15682D01*
Y8823D01*
X15892D01*
Y9033D01*
D02*
G37*
G36*
X15774Y8674D02*
X15682D01*
X15684Y8659D01*
X15695Y8634D01*
X15712Y8612D01*
X15734Y8595D01*
X15759Y8585D01*
X15774Y8583D01*
Y8674D01*
D02*
G37*
G36*
X15891D02*
X15799D01*
Y8583D01*
X15814Y8585D01*
X15840Y8595D01*
X15862Y8612D01*
X15878Y8634D01*
X15889Y8659D01*
X15891Y8674D01*
D02*
G37*
G36*
X13830Y8623D02*
X13735D01*
X13737Y8608D01*
X13748Y8581D01*
X13765Y8558D01*
X13788Y8541D01*
X13815Y8530D01*
X13830Y8528D01*
Y8623D01*
D02*
G37*
G36*
X13951D02*
X13856D01*
Y8528D01*
X13871Y8530D01*
X13898Y8541D01*
X13921Y8558D01*
X13938Y8581D01*
X13949Y8608D01*
X13951Y8623D01*
D02*
G37*
G36*
X15774Y8791D02*
X15759Y8789D01*
X15734Y8779D01*
X15712Y8762D01*
X15695Y8740D01*
X15684Y8714D01*
X15682Y8700D01*
X15774D01*
Y8791D01*
D02*
G37*
G36*
X15799D02*
Y8700D01*
X15891D01*
X15889Y8714D01*
X15878Y8740D01*
X15862Y8762D01*
X15840Y8779D01*
X15814Y8789D01*
X15799Y8791D01*
D02*
G37*
G36*
X13830Y8744D02*
X13815Y8742D01*
X13788Y8731D01*
X13765Y8714D01*
X13748Y8691D01*
X13737Y8664D01*
X13735Y8649D01*
X13830D01*
Y8744D01*
D02*
G37*
G36*
X13856D02*
Y8649D01*
X13951D01*
X13949Y8664D01*
X13938Y8691D01*
X13921Y8714D01*
X13898Y8731D01*
X13871Y8742D01*
X13856Y8744D01*
D02*
G37*
G36*
X12030Y12343D02*
Y12251D01*
X12121D01*
X12119Y12266D01*
X12109Y12292D01*
X12092Y12313D01*
X12070Y12330D01*
X12044Y12341D01*
X12030Y12343D01*
D02*
G37*
G36*
X12004D02*
X11989Y12341D01*
X11964Y12330D01*
X11942Y12313D01*
X11925Y12292D01*
X11915Y12266D01*
X11913Y12251D01*
X12004D01*
Y12343D01*
D02*
G37*
G36*
X13106Y13208D02*
X13015D01*
X13017Y13193D01*
X13027Y13168D01*
X13044Y13146D01*
X13066Y13129D01*
X13092Y13118D01*
X13106Y13116D01*
Y13208D01*
D02*
G37*
G36*
X13223D02*
X13132D01*
Y13116D01*
X13147Y13118D01*
X13172Y13129D01*
X13194Y13146D01*
X13211Y13168D01*
X13221Y13193D01*
X13223Y13208D01*
D02*
G37*
G36*
X13106Y13325D02*
X13092Y13323D01*
X13066Y13312D01*
X13044Y13296D01*
X13027Y13274D01*
X13017Y13248D01*
X13015Y13233D01*
X13106D01*
Y13325D01*
D02*
G37*
G36*
X12004Y12226D02*
X11913D01*
X11915Y12211D01*
X11925Y12186D01*
X11942Y12164D01*
X11964Y12147D01*
X11989Y12136D01*
X12004Y12134D01*
Y12226D01*
D02*
G37*
G36*
X11763Y12344D02*
X11735Y12341D01*
X11710Y12330D01*
X11688Y12313D01*
X11671Y12292D01*
X11661Y12266D01*
X11657Y12239D01*
X11661Y12211D01*
X11671Y12186D01*
X11688Y12164D01*
X11710Y12147D01*
X11735Y12136D01*
X11763Y12133D01*
X11790Y12136D01*
X11816Y12147D01*
X11838Y12164D01*
X11855Y12186D01*
X11865Y12211D01*
X11869Y12239D01*
X11865Y12266D01*
X11855Y12292D01*
X11838Y12313D01*
X11816Y12330D01*
X11790Y12341D01*
X11763Y12344D01*
D02*
G37*
G36*
X13132Y13325D02*
Y13233D01*
X13223D01*
X13221Y13248D01*
X13211Y13274D01*
X13194Y13296D01*
X13172Y13312D01*
X13147Y13323D01*
X13132Y13325D01*
D02*
G37*
G36*
X12121Y12226D02*
X12030D01*
Y12134D01*
X12044Y12136D01*
X12070Y12147D01*
X12092Y12164D01*
X12109Y12186D01*
X12119Y12211D01*
X12121Y12226D01*
D02*
G37*
G36*
X12030Y12944D02*
Y12852D01*
X12121D01*
X12119Y12867D01*
X12109Y12893D01*
X12092Y12915D01*
X12070Y12931D01*
X12044Y12942D01*
X12030Y12944D01*
D02*
G37*
G36*
X12121Y12526D02*
X12030D01*
Y12435D01*
X12044Y12437D01*
X12070Y12447D01*
X12092Y12464D01*
X12109Y12486D01*
X12119Y12512D01*
X12121Y12526D01*
D02*
G37*
G36*
X12004D02*
X11913D01*
X11915Y12512D01*
X11925Y12486D01*
X11942Y12464D01*
X11964Y12447D01*
X11989Y12437D01*
X12004Y12435D01*
Y12526D01*
D02*
G37*
G36*
X12030Y12643D02*
Y12552D01*
X12121D01*
X12119Y12567D01*
X12109Y12592D01*
X12092Y12614D01*
X12070Y12631D01*
X12044Y12641D01*
X12030Y12643D01*
D02*
G37*
G36*
X12004D02*
X11989Y12641D01*
X11964Y12631D01*
X11942Y12614D01*
X11925Y12592D01*
X11915Y12567D01*
X11913Y12552D01*
X12004D01*
Y12643D01*
D02*
G37*
G36*
X11763Y12645D02*
X11735Y12641D01*
X11710Y12631D01*
X11688Y12614D01*
X11671Y12592D01*
X11661Y12567D01*
X11657Y12539D01*
X11661Y12512D01*
X11671Y12486D01*
X11688Y12464D01*
X11710Y12447D01*
X11735Y12437D01*
X11763Y12433D01*
X11790Y12437D01*
X11816Y12447D01*
X11838Y12464D01*
X11855Y12486D01*
X11865Y12512D01*
X11869Y12539D01*
X11865Y12567D01*
X11855Y12592D01*
X11838Y12614D01*
X11816Y12631D01*
X11790Y12641D01*
X11763Y12645D01*
D02*
G37*
G36*
X12121Y12827D02*
X12030D01*
Y12735D01*
X12044Y12737D01*
X12070Y12748D01*
X12092Y12765D01*
X12109Y12787D01*
X12119Y12812D01*
X12121Y12827D01*
D02*
G37*
G36*
X12004Y12944D02*
X11989Y12942D01*
X11964Y12931D01*
X11942Y12915D01*
X11925Y12893D01*
X11915Y12867D01*
X11913Y12852D01*
X12004D01*
Y12944D01*
D02*
G37*
G36*
X11763Y12946D02*
X11735Y12942D01*
X11710Y12931D01*
X11688Y12915D01*
X11671Y12893D01*
X11661Y12867D01*
X11657Y12840D01*
X11661Y12812D01*
X11671Y12787D01*
X11688Y12765D01*
X11710Y12748D01*
X11735Y12737D01*
X11763Y12734D01*
X11790Y12737D01*
X11816Y12748D01*
X11838Y12765D01*
X11855Y12787D01*
X11865Y12812D01*
X11869Y12840D01*
X11865Y12867D01*
X11855Y12893D01*
X11838Y12915D01*
X11816Y12931D01*
X11790Y12942D01*
X11763Y12946D01*
D02*
G37*
G36*
X12004Y12827D02*
X11913D01*
X11915Y12812D01*
X11925Y12787D01*
X11942Y12765D01*
X11964Y12748D01*
X11989Y12737D01*
X12004Y12735D01*
Y12827D01*
D02*
G37*
G36*
X12814Y13564D02*
X12722D01*
Y13472D01*
X12814D01*
Y13564D01*
D02*
G37*
G36*
X11763Y12044D02*
X11735Y12040D01*
X11710Y12030D01*
X11688Y12013D01*
X11671Y11991D01*
X11661Y11965D01*
X11657Y11938D01*
X11661Y11911D01*
X11671Y11885D01*
X11688Y11863D01*
X11710Y11846D01*
X11735Y11836D01*
X11763Y11832D01*
X11790Y11836D01*
X11816Y11846D01*
X11838Y11863D01*
X11855Y11885D01*
X11865Y11911D01*
X11869Y11938D01*
X11865Y11965D01*
X11855Y11991D01*
X11838Y12013D01*
X11816Y12030D01*
X11790Y12040D01*
X11763Y12044D01*
D02*
G37*
G36*
X12004Y11925D02*
X11913D01*
X11915Y11911D01*
X11925Y11885D01*
X11942Y11863D01*
X11964Y11846D01*
X11989Y11836D01*
X12004Y11834D01*
Y11925D01*
D02*
G37*
G36*
X12121D02*
X12030D01*
Y11834D01*
X12044Y11836D01*
X12070Y11846D01*
X12092Y11863D01*
X12109Y11885D01*
X12119Y11911D01*
X12121Y11925D01*
D02*
G37*
G36*
X13119Y13581D02*
X13092Y13577D01*
X13066Y13566D01*
X13044Y13550D01*
X13027Y13528D01*
X13017Y13502D01*
X13013Y13475D01*
X13017Y13447D01*
X13027Y13422D01*
X13044Y13400D01*
X13066Y13383D01*
X13092Y13372D01*
X13119Y13369D01*
X13147Y13372D01*
X13172Y13383D01*
X13194Y13400D01*
X13211Y13422D01*
X13221Y13447D01*
X13225Y13475D01*
X13221Y13502D01*
X13211Y13528D01*
X13194Y13550D01*
X13172Y13566D01*
X13147Y13577D01*
X13119Y13581D01*
D02*
G37*
G36*
X12932Y13446D02*
X12840D01*
Y13354D01*
X12932D01*
Y13446D01*
D02*
G37*
G36*
X12814D02*
X12722D01*
Y13354D01*
X12814D01*
Y13446D01*
D02*
G37*
G36*
X19292Y11814D02*
X19200D01*
Y11722D01*
X19292D01*
Y11814D01*
D02*
G37*
G36*
X12932Y13564D02*
X12840D01*
Y13472D01*
X12932D01*
Y13564D01*
D02*
G37*
G36*
X14110Y13581D02*
X14082Y13577D01*
X14057Y13566D01*
X14035Y13550D01*
X14018Y13528D01*
X14015Y13521D01*
X13874D01*
X13871Y13528D01*
X13854Y13550D01*
X13832Y13566D01*
X13807Y13577D01*
X13779Y13581D01*
X13752Y13577D01*
X13727Y13566D01*
X13705Y13550D01*
X13688Y13528D01*
X13685Y13521D01*
X13544D01*
X13541Y13528D01*
X13524Y13550D01*
X13502Y13566D01*
X13477Y13577D01*
X13449Y13581D01*
X13422Y13577D01*
X13396Y13566D01*
X13374Y13550D01*
X13358Y13528D01*
X13347Y13502D01*
X13343Y13475D01*
X13347Y13447D01*
X13350Y13440D01*
X13297Y13387D01*
X13287Y13372D01*
X13283Y13355D01*
Y12884D01*
X13272Y12879D01*
X13224Y12927D01*
Y13072D01*
X13014D01*
Y12862D01*
X13159D01*
X13249Y12772D01*
Y12496D01*
X13237Y12490D01*
X13237Y12490D01*
X13214Y12495D01*
X13192Y12490D01*
X13173Y12477D01*
X13160Y12458D01*
X13156Y12436D01*
Y12354D01*
X13144Y12349D01*
X12873Y12620D01*
Y12676D01*
X12935D01*
Y12822D01*
X12935Y12822D01*
D01*
D01*
X12935Y12826D01*
Y12826D01*
Y12828D01*
X12935Y12831D01*
D01*
X12935Y12835D01*
X12935Y12835D01*
X12935D01*
Y12981D01*
X12873D01*
Y13004D01*
X12932D01*
Y13214D01*
X12722D01*
Y13004D01*
X12781D01*
Y12981D01*
X12719D01*
Y12835D01*
X12719Y12835D01*
X12719D01*
X12719Y12831D01*
Y12828D01*
Y12826D01*
X12719Y12822D01*
X12719Y12822D01*
X12719D01*
Y12676D01*
X12781D01*
Y12601D01*
X12781Y12601D01*
X12781D01*
X12785Y12583D01*
X12795Y12568D01*
X13082Y12281D01*
X13077Y12270D01*
X12989D01*
X12967Y12265D01*
X12948Y12252D01*
X12938Y12238D01*
X12926Y12237D01*
X12376Y12787D01*
Y12945D01*
X12166D01*
Y12735D01*
X12298D01*
X12377Y12656D01*
X12376Y12653D01*
D01*
X12372Y12644D01*
X12166D01*
Y12434D01*
X12311D01*
X12709Y12036D01*
X12704Y12025D01*
X12550D01*
X12376Y12198D01*
Y12344D01*
X12166D01*
Y12134D01*
X12311D01*
X12468Y11976D01*
X12463Y11965D01*
X12376D01*
Y12043D01*
X12166D01*
Y11833D01*
X12376D01*
Y11873D01*
X12471D01*
Y11836D01*
X12586D01*
Y11811D01*
X12471D01*
Y11744D01*
X12471Y11744D01*
X12471Y11739D01*
X12471D01*
Y11603D01*
X12281D01*
X12263Y11599D01*
X12248Y11589D01*
X12049Y11390D01*
X12042Y11393D01*
X12014Y11396D01*
X11987Y11393D01*
X11961Y11382D01*
X11939Y11365D01*
X11922Y11343D01*
X11912Y11318D01*
X11908Y11290D01*
X11912Y11263D01*
X11922Y11237D01*
X11939Y11215D01*
X11961Y11199D01*
X11987Y11188D01*
X12014Y11184D01*
X12042Y11188D01*
X12067Y11199D01*
X12089Y11215D01*
X12106Y11237D01*
X12116Y11263D01*
X12120Y11290D01*
X12116Y11318D01*
X12114Y11325D01*
X12300Y11511D01*
X12478D01*
Y11438D01*
X12478Y11438D01*
X12478D01*
X12478Y11434D01*
Y11431D01*
Y11429D01*
X12478Y11425D01*
X12478Y11425D01*
X12478D01*
Y11279D01*
X12490D01*
X12491Y11278D01*
X12495Y11253D01*
X12504Y11230D01*
X12519Y11211D01*
X12539Y11196D01*
X12561Y11187D01*
X12586Y11183D01*
X12610Y11187D01*
X12633Y11196D01*
X12652Y11211D01*
X12667Y11230D01*
X12677Y11253D01*
X12680Y11278D01*
X12681Y11279D01*
X12693D01*
Y11425D01*
X12693Y11425D01*
D01*
D01*
X12693Y11429D01*
Y11429D01*
Y11431D01*
X12693Y11434D01*
D01*
X12693Y11438D01*
X12693Y11438D01*
X12693D01*
Y11511D01*
X12776D01*
X12794Y11515D01*
X12809Y11525D01*
X12889Y11605D01*
X12930D01*
X12936Y11594D01*
X12935Y11593D01*
X12931Y11571D01*
X12935Y11549D01*
X12947Y11531D01*
X12935Y11513D01*
X12931Y11491D01*
X12935Y11469D01*
X12947Y11451D01*
X12935Y11433D01*
X12931Y11411D01*
X12935Y11389D01*
X12948Y11370D01*
X12967Y11357D01*
X12989Y11352D01*
X13089D01*
X13097Y11343D01*
X13096Y11336D01*
Y11153D01*
X13100Y11136D01*
X13109Y11121D01*
X13116Y11114D01*
Y9876D01*
X13116Y9876D01*
X13116D01*
X13120Y9858D01*
X13129Y9843D01*
X13744Y9229D01*
X13759Y9219D01*
X13777Y9215D01*
X15392D01*
X15405Y9210D01*
X15409Y9206D01*
X15406Y9182D01*
X15409Y9156D01*
X15419Y9132D01*
X15435Y9111D01*
X15456Y9095D01*
X15481Y9085D01*
X15507Y9081D01*
X15533Y9085D01*
X15557Y9095D01*
X15578Y9111D01*
X15594Y9132D01*
X15596Y9136D01*
X16530D01*
X16691Y8975D01*
X16688Y8968D01*
X16684Y8941D01*
X16688Y8913D01*
X16698Y8888D01*
X16715Y8866D01*
X16737Y8849D01*
X16762Y8839D01*
X16790Y8835D01*
X16817Y8839D01*
X16843Y8849D01*
X16865Y8866D01*
X16882Y8888D01*
X16892Y8913D01*
X16896Y8941D01*
X16892Y8968D01*
X16882Y8994D01*
X16865Y9016D01*
X16843Y9033D01*
X16817Y9043D01*
X16790Y9047D01*
X16762Y9043D01*
X16755Y9040D01*
X16581Y9215D01*
X16566Y9224D01*
X16549Y9228D01*
X15596D01*
X15594Y9233D01*
X15578Y9253D01*
X15565Y9263D01*
X15569Y9275D01*
X16569D01*
X16586Y9279D01*
X16601Y9289D01*
X16696Y9383D01*
X16708Y9382D01*
X16715Y9374D01*
X16737Y9357D01*
X16762Y9347D01*
X16790Y9343D01*
X16817Y9347D01*
X16843Y9357D01*
X16865Y9374D01*
X16882Y9396D01*
X16892Y9421D01*
X16896Y9449D01*
X16892Y9476D01*
X16882Y9502D01*
X16874Y9512D01*
X16880Y9523D01*
X16952D01*
X16952Y9523D01*
X16969Y9501D01*
X16991Y9484D01*
X17016Y9474D01*
X17044Y9470D01*
X17071Y9474D01*
X17097Y9484D01*
X17107Y9492D01*
X17118Y9486D01*
Y9412D01*
X17107Y9406D01*
X17097Y9414D01*
X17071Y9424D01*
X17057Y9426D01*
Y9322D01*
Y9218D01*
X17071Y9220D01*
X17097Y9230D01*
X17107Y9238D01*
X17118Y9232D01*
Y9195D01*
X17087Y9164D01*
X17071Y9170D01*
X17044Y9174D01*
X17016Y9170D01*
X16991Y9160D01*
X16969Y9143D01*
X16952Y9121D01*
X16942Y9095D01*
X16938Y9068D01*
X16942Y9040D01*
X16952Y9015D01*
X16969Y8993D01*
X16991Y8976D01*
X17016Y8966D01*
X17044Y8962D01*
X17071Y8966D01*
X17097Y8976D01*
X17119Y8993D01*
X17136Y9015D01*
X17146Y9040D01*
X17150Y9068D01*
X17146Y9093D01*
X17166Y9113D01*
X17178Y9108D01*
Y9001D01*
X17087Y8910D01*
X17071Y8916D01*
X17044Y8920D01*
X17016Y8916D01*
X16991Y8906D01*
X16969Y8889D01*
X16952Y8867D01*
X16942Y8841D01*
X16938Y8814D01*
X16942Y8786D01*
X16952Y8761D01*
X16969Y8739D01*
X16991Y8722D01*
X17016Y8712D01*
X17044Y8708D01*
X17071Y8712D01*
X17097Y8722D01*
X17119Y8739D01*
X17136Y8761D01*
X17146Y8786D01*
X17150Y8814D01*
X17146Y8839D01*
X17256Y8949D01*
X17266Y8964D01*
X17270Y8982D01*
Y10170D01*
X17266Y10188D01*
X17256Y10202D01*
X17244Y10211D01*
X16783Y10672D01*
X16768Y10681D01*
X16751Y10685D01*
X14808D01*
X14152Y11341D01*
X14157Y11352D01*
X14239D01*
X14262Y11357D01*
X14274Y11365D01*
X14703D01*
Y11274D01*
X14913D01*
Y11484D01*
X14703D01*
Y11457D01*
X14299D01*
X14293Y11468D01*
X14294Y11469D01*
X14298Y11491D01*
X14294Y11513D01*
X14282Y11531D01*
X14294Y11549D01*
X14298Y11571D01*
X14295Y11588D01*
X14305Y11595D01*
X14323Y11583D01*
X14337Y11570D01*
X14568D01*
Y11637D01*
D01*
Y11637D01*
X14568Y11637D01*
Y11642D01*
X14568D01*
Y11742D01*
X14579Y11746D01*
X14642Y11683D01*
Y11590D01*
X14642Y11590D01*
X14642D01*
X14646Y11573D01*
X14656Y11558D01*
X14682Y11532D01*
X14697Y11522D01*
X14715Y11518D01*
X15511D01*
Y11451D01*
X15539D01*
Y11442D01*
X15539D01*
Y11292D01*
X15539Y11292D01*
X15539Y11286D01*
X15539D01*
Y11136D01*
X15754D01*
Y11166D01*
X17041D01*
X17058Y11169D01*
X17073Y11179D01*
X17729Y11835D01*
X17836Y11728D01*
Y11575D01*
X17899D01*
Y11367D01*
X17899Y11367D01*
X17899D01*
X17903Y11349D01*
X17913Y11334D01*
X17977Y11270D01*
X17970Y11262D01*
X17958Y11233D01*
X17954Y11201D01*
X17958Y11170D01*
X17970Y11141D01*
X17990Y11116D01*
X18015Y11097D01*
X18044Y11084D01*
X18072Y11081D01*
Y11068D01*
X18044Y11064D01*
X18015Y11052D01*
X17990Y11033D01*
X17970Y11008D01*
X17958Y10979D01*
X17956Y10960D01*
X18265D01*
X18262Y10979D01*
X18250Y11008D01*
X18231Y11033D01*
X18206Y11052D01*
X18177Y11064D01*
X18148Y11068D01*
Y11081D01*
X18177Y11084D01*
X18206Y11097D01*
X18231Y11116D01*
X18250Y11141D01*
X18262Y11170D01*
X18266Y11201D01*
X18262Y11233D01*
X18250Y11262D01*
X18231Y11287D01*
X18206Y11306D01*
X18177Y11318D01*
X18145Y11322D01*
X18075D01*
X18057Y11320D01*
X17991Y11386D01*
Y11575D01*
X18054D01*
Y11728D01*
X18186Y11860D01*
X18369D01*
Y11804D01*
X18340D01*
Y11589D01*
X18486D01*
X18486Y11589D01*
Y11589D01*
X18490Y11589D01*
X18493D01*
X18495D01*
X18499Y11589D01*
X18499Y11589D01*
Y11589D01*
X18645D01*
Y11651D01*
X18732D01*
Y11604D01*
X18942D01*
Y11814D01*
X18732D01*
Y11743D01*
X18645D01*
Y11804D01*
X18499D01*
X18499Y11804D01*
Y11804D01*
X18495Y11804D01*
X18493D01*
X18490D01*
X18486Y11804D01*
X18486Y11804D01*
Y11804D01*
X18461D01*
Y11860D01*
X18958D01*
X18975Y11863D01*
X18990Y11873D01*
X19186Y12070D01*
X19196Y12085D01*
X19200Y12102D01*
X19200Y12102D01*
X19200Y12102D01*
Y12102D01*
Y13069D01*
X19196Y13087D01*
X19186Y13102D01*
X18990Y13298D01*
X18975Y13308D01*
X18958Y13312D01*
X17248D01*
Y13341D01*
X17195D01*
X16988Y13548D01*
X16973Y13558D01*
X16956Y13561D01*
X15069D01*
X15051Y13558D01*
X15036Y13548D01*
X15009Y13521D01*
X14204D01*
X14201Y13528D01*
X14185Y13550D01*
X14163Y13566D01*
X14137Y13577D01*
X14110Y13581D01*
D02*
G37*
G36*
X12004Y12042D02*
X11989Y12040D01*
X11964Y12030D01*
X11942Y12013D01*
X11925Y11991D01*
X11915Y11965D01*
X11913Y11951D01*
X12004D01*
Y12042D01*
D02*
G37*
G36*
X12030D02*
Y11951D01*
X12121D01*
X12119Y11965D01*
X12109Y11991D01*
X12092Y12013D01*
X12070Y12030D01*
X12044Y12040D01*
X12030Y12042D01*
D02*
G37*
%LPD*%
G36*
X13992Y11132D02*
X14014Y11127D01*
X14037Y11132D01*
X14053Y11143D01*
X14649Y10547D01*
X14649Y10547D01*
X14649D01*
X14649Y10547D01*
X14649D01*
X14649Y10547D01*
Y10547D01*
Y10547D01*
D01*
D01*
X14649D01*
Y10547D01*
X14664Y10537D01*
X14681Y10533D01*
X15682D01*
Y10347D01*
X15892D01*
Y10533D01*
X16412D01*
X16418Y10522D01*
X16405Y10505D01*
X16394Y10480D01*
X16391Y10452D01*
X16394Y10425D01*
X16405Y10399D01*
X16422Y10377D01*
X16444Y10360D01*
X16451Y10357D01*
Y10303D01*
X16392D01*
Y10093D01*
X16537D01*
X16556Y10074D01*
X16552Y10062D01*
X16392D01*
Y9852D01*
X16451D01*
Y9785D01*
X16444Y9782D01*
X16422Y9765D01*
X16405Y9743D01*
X16394Y9718D01*
X16391Y9690D01*
X16394Y9663D01*
X16405Y9637D01*
X16422Y9615D01*
X16430Y9609D01*
X16426Y9597D01*
X15892D01*
Y9795D01*
X15682D01*
Y9597D01*
X15486D01*
X13960Y11122D01*
X13962Y11135D01*
X13974Y11144D01*
X13992Y11132D01*
D02*
G37*
G36*
X16591Y9493D02*
X16580Y9482D01*
X15596D01*
X15594Y9487D01*
X15588Y9494D01*
X15594Y9505D01*
X16587D01*
X16591Y9493D01*
D02*
G37*
G36*
X14991Y13417D02*
X14053Y12479D01*
X14037Y12490D01*
X14014Y12495D01*
X13992Y12490D01*
X13974Y12478D01*
X13957Y12490D01*
X13934Y12495D01*
X13912Y12490D01*
X13911Y12490D01*
X13900Y12496D01*
Y12692D01*
X14070Y12862D01*
X14215D01*
Y13072D01*
X14005D01*
Y12927D01*
X13832Y12754D01*
X13820Y12759D01*
Y12862D01*
X13885D01*
Y13072D01*
X13674D01*
Y12862D01*
X13729D01*
Y12769D01*
X13717Y12764D01*
X13554Y12927D01*
Y13072D01*
X13375D01*
Y13131D01*
X13387Y13136D01*
X13396Y13129D01*
X13422Y13118D01*
X13437Y13116D01*
Y13221D01*
Y13325D01*
X13422Y13323D01*
X13396Y13312D01*
X13387Y13305D01*
X13375Y13311D01*
Y13336D01*
X13415Y13375D01*
X13422Y13372D01*
X13449Y13369D01*
X13477Y13372D01*
X13502Y13383D01*
X13524Y13400D01*
X13541Y13422D01*
X13544Y13429D01*
X13685D01*
X13688Y13422D01*
X13705Y13400D01*
X13727Y13383D01*
X13752Y13372D01*
X13779Y13369D01*
X13807Y13372D01*
X13832Y13383D01*
X13854Y13400D01*
X13871Y13422D01*
X13874Y13429D01*
X14015D01*
X14018Y13422D01*
X14035Y13400D01*
X14057Y13383D01*
X14082Y13372D01*
X14110Y13369D01*
X14137Y13372D01*
X14163Y13383D01*
X14185Y13400D01*
X14201Y13422D01*
X14204Y13429D01*
X14986D01*
X14991Y13417D01*
D02*
G37*
G36*
X18659Y13016D02*
X18544D01*
Y13220D01*
X18659D01*
Y13016D01*
D02*
G37*
G36*
X16952Y10031D02*
X16969Y10009D01*
X16991Y9992D01*
X17016Y9982D01*
X17044Y9978D01*
X17071Y9982D01*
X17097Y9992D01*
X17107Y10000D01*
X17118Y9994D01*
Y9920D01*
X17107Y9914D01*
X17097Y9922D01*
X17071Y9932D01*
X17044Y9936D01*
X17016Y9932D01*
X16991Y9922D01*
X16969Y9905D01*
X16952Y9883D01*
X16942Y9857D01*
X16938Y9830D01*
X16942Y9802D01*
X16952Y9777D01*
X16969Y9755D01*
X16991Y9738D01*
X17016Y9728D01*
X17044Y9724D01*
X17071Y9728D01*
X17097Y9738D01*
X17107Y9746D01*
X17118Y9740D01*
Y9666D01*
X17107Y9660D01*
X17097Y9668D01*
X17071Y9678D01*
X17044Y9682D01*
X17016Y9678D01*
X16991Y9668D01*
X16969Y9651D01*
X16952Y9629D01*
X16946Y9615D01*
X16867D01*
X16863Y9627D01*
X16865Y9628D01*
X16882Y9650D01*
X16892Y9675D01*
X16896Y9703D01*
X16892Y9730D01*
X16882Y9756D01*
X16865Y9778D01*
X16843Y9795D01*
X16817Y9805D01*
X16790Y9809D01*
X16762Y9805D01*
X16737Y9795D01*
X16715Y9778D01*
X16698Y9756D01*
X16688Y9730D01*
X16684Y9703D01*
X16687Y9678D01*
X16606Y9597D01*
X16568D01*
X16563Y9609D01*
X16572Y9615D01*
X16588Y9637D01*
X16599Y9663D01*
X16603Y9690D01*
X16599Y9718D01*
X16588Y9743D01*
X16572Y9765D01*
X16550Y9782D01*
X16543Y9785D01*
Y9852D01*
X16602D01*
Y9911D01*
X16695D01*
X16698Y9904D01*
X16715Y9882D01*
X16737Y9865D01*
X16762Y9855D01*
X16790Y9851D01*
X16817Y9855D01*
X16843Y9865D01*
X16865Y9882D01*
X16882Y9904D01*
X16892Y9929D01*
X16896Y9957D01*
X16892Y9984D01*
X16882Y10010D01*
X16869Y10027D01*
X16874Y10038D01*
X16949D01*
X16952Y10031D01*
D02*
G37*
G36*
X14066Y11754D02*
X14065Y11753D01*
X14063Y11744D01*
X14179D01*
Y11718D01*
X14063D01*
X14065Y11709D01*
X14077Y11691D01*
X14065Y11673D01*
X14061Y11651D01*
X14065Y11629D01*
X14068Y11624D01*
X14072Y11606D01*
X14057Y11596D01*
X14014Y11553D01*
X14005Y11539D01*
X14001Y11521D01*
X14001Y11521D01*
X14001D01*
X14001Y11521D01*
X14001D01*
Y11381D01*
X14005Y11363D01*
X14004Y11363D01*
X13992Y11360D01*
X13988Y11357D01*
X13969Y11354D01*
X13959Y11368D01*
X13916Y11412D01*
X13901Y11422D01*
X13884Y11425D01*
X13185D01*
X13168Y11422D01*
X13166Y11422D01*
X13164Y11433D01*
X13152Y11451D01*
X13164Y11469D01*
X13168Y11491D01*
X13164Y11513D01*
X13152Y11531D01*
X13164Y11549D01*
X13168Y11571D01*
X13164Y11593D01*
X13152Y11611D01*
X13164Y11629D01*
X13168Y11651D01*
X13164Y11673D01*
X13163Y11674D01*
X13169Y11685D01*
X13534D01*
X13552Y11689D01*
X13567Y11699D01*
X13633Y11765D01*
X14060D01*
X14066Y11754D01*
D02*
G37*
G36*
X17039Y10201D02*
X17035Y10189D01*
X17016Y10186D01*
X16991Y10176D01*
X16969Y10159D01*
X16952Y10137D01*
X16949Y10130D01*
X16895D01*
Y10198D01*
X16685D01*
Y10130D01*
X16630D01*
X16602Y10158D01*
Y10303D01*
X16543D01*
Y10357D01*
X16550Y10360D01*
X16572Y10377D01*
X16588Y10399D01*
X16599Y10425D01*
X16603Y10452D01*
X16599Y10480D01*
X16588Y10505D01*
X16576Y10522D01*
X16581Y10533D01*
X16707D01*
X17039Y10201D01*
D02*
G37*
G36*
X15409Y9457D02*
X15406Y9436D01*
X15409Y9410D01*
X15419Y9386D01*
X15425Y9378D01*
X15419Y9367D01*
X13821D01*
X13464Y9723D01*
X13468Y9735D01*
X13484Y9737D01*
X13507Y9747D01*
X13527Y9762D01*
X13542Y9782D01*
X13551Y9805D01*
X13553Y9813D01*
X13565D01*
X13566Y9805D01*
X13576Y9782D01*
X13591Y9762D01*
X13611Y9747D01*
X13634Y9737D01*
X13659Y9734D01*
X13684Y9737D01*
X13707Y9747D01*
X13727Y9762D01*
X13742Y9782D01*
X13751Y9805D01*
X13753Y9813D01*
X13765D01*
X13766Y9805D01*
X13776Y9782D01*
X13791Y9762D01*
X13811Y9747D01*
X13834Y9737D01*
X13846Y9736D01*
Y9830D01*
Y9924D01*
X13834Y9922D01*
X13828Y9920D01*
X13821Y9931D01*
X14201Y10311D01*
X14211Y10326D01*
X14215Y10343D01*
X14215Y10343D01*
X14215Y10343D01*
Y10343D01*
Y10510D01*
X14211Y10528D01*
X14201Y10543D01*
X14175Y10569D01*
X14160Y10579D01*
X14143Y10583D01*
X13828D01*
X13679Y10732D01*
X13684Y10743D01*
X13691D01*
Y10858D01*
X13716D01*
Y10743D01*
X13783D01*
Y10743D01*
X13783D01*
X13783Y10743D01*
X13788D01*
Y10743D01*
X13948D01*
Y10900D01*
X13960Y10905D01*
X15409Y9457D01*
D02*
G37*
G36*
X14726Y10637D02*
X14721Y10625D01*
X14700D01*
X14073Y11252D01*
Y11273D01*
X14085Y11278D01*
X14726Y10637D01*
D02*
G37*
G36*
X15097Y13378D02*
X15098Y13369D01*
X15108Y13355D01*
X15098Y13341D01*
X15095Y13323D01*
X15098Y13304D01*
X15108Y13290D01*
X15098Y13276D01*
X15095Y13258D01*
X15097Y13246D01*
X15089Y13236D01*
X14991D01*
X14974Y13233D01*
X14959Y13223D01*
X14085Y12349D01*
X14073Y12354D01*
Y12370D01*
X15085Y13381D01*
X15097Y13378D01*
D02*
G37*
G36*
X18659Y11952D02*
X18544D01*
Y12155D01*
X18659D01*
Y11952D01*
D02*
G37*
G36*
X12924Y12109D02*
X12920Y12097D01*
X12778D01*
X12376Y12499D01*
Y12640D01*
X12385Y12644D01*
D01*
X12388Y12645D01*
X12924Y12109D01*
D02*
G37*
G36*
X17556Y12027D02*
X17556Y12027D01*
X17556D01*
X17560Y12009D01*
X17570Y11994D01*
X17658Y11906D01*
Y11894D01*
X17392Y11628D01*
X17381Y11633D01*
Y11793D01*
X17163D01*
Y11575D01*
X17323D01*
X17328Y11564D01*
X17022Y11257D01*
X15754D01*
Y11286D01*
D01*
Y11286D01*
X15754Y11286D01*
Y11292D01*
X15754D01*
Y11442D01*
X15754D01*
Y11443D01*
X15763Y11451D01*
X15781D01*
Y11518D01*
X16511D01*
Y11451D01*
X16781D01*
Y11573D01*
X17150Y11942D01*
X17162Y11938D01*
X17166Y11910D01*
X17177Y11883D01*
X17194Y11860D01*
X17217Y11843D01*
X17244Y11832D01*
X17259Y11830D01*
Y11938D01*
X17272D01*
Y11951D01*
X17380D01*
X17378Y11966D01*
X17367Y11993D01*
X17350Y12016D01*
X17327Y12033D01*
X17300Y12044D01*
X17272Y12048D01*
X17268Y12060D01*
X17435Y12227D01*
X17556D01*
Y12027D01*
D02*
G37*
G36*
X17053Y13353D02*
X17049Y13341D01*
X16943D01*
Y13279D01*
X16904D01*
Y13338D01*
X16694D01*
Y13128D01*
X16904D01*
Y13188D01*
X16943D01*
Y13126D01*
X17093D01*
Y13126D01*
X17093D01*
X17093Y13126D01*
X17098D01*
Y13126D01*
X17127D01*
Y13074D01*
X17102D01*
X17102Y13074D01*
Y13074D01*
X17098Y13074D01*
X17096D01*
X17093D01*
X17089Y13074D01*
X17089Y13074D01*
Y13074D01*
X16943D01*
Y13013D01*
X16904D01*
Y13072D01*
X16694D01*
Y12862D01*
X16904D01*
Y12921D01*
X16943D01*
Y12859D01*
X17089D01*
X17089Y12859D01*
Y12859D01*
X17093Y12859D01*
X17096D01*
X17098D01*
X17102Y12859D01*
X17102Y12859D01*
Y12859D01*
X17248D01*
Y13074D01*
X17219D01*
Y13126D01*
X17248D01*
Y13220D01*
X18234D01*
Y13016D01*
X18159D01*
X18147Y13014D01*
X18137Y13007D01*
X18131Y12997D01*
X18128Y12986D01*
Y12927D01*
X18116Y12924D01*
X18116Y12925D01*
X18101Y12944D01*
X18081Y12959D01*
X18058Y12969D01*
X18034Y12972D01*
X18010Y12969D01*
X17987Y12959D01*
X17967Y12944D01*
X17952Y12925D01*
X17943Y12902D01*
X17940Y12878D01*
X17943Y12853D01*
X17952Y12831D01*
X17967Y12812D01*
X17961Y12801D01*
X17894D01*
Y12721D01*
X17894D01*
Y12719D01*
X17641D01*
Y12852D01*
X17641Y12852D01*
D01*
D01*
X17641Y12856D01*
Y12857D01*
Y12859D01*
X17641Y12861D01*
D01*
X17641Y12865D01*
X17641Y12865D01*
X17641D01*
Y12929D01*
X17411D01*
Y12865D01*
X17411Y12865D01*
X17411D01*
X17411Y12861D01*
Y12859D01*
Y12856D01*
X17411Y12852D01*
X17411Y12852D01*
X17411D01*
Y12784D01*
X16103D01*
X16097Y12790D01*
X15797D01*
X15798Y12784D01*
X15808Y12770D01*
X15798Y12756D01*
X15795Y12738D01*
X15798Y12719D01*
X15808Y12705D01*
X15798Y12691D01*
X15795Y12673D01*
X15798Y12654D01*
X15808Y12640D01*
X15798Y12626D01*
X15795Y12608D01*
X15798Y12589D01*
X15809Y12573D01*
X15825Y12563D01*
X15843Y12559D01*
X15931D01*
X15940Y12553D01*
X15958Y12550D01*
X17894D01*
Y12531D01*
Y12518D01*
X18041D01*
Y12493D01*
X17894D01*
Y12451D01*
Y12371D01*
X18128D01*
Y12186D01*
X18131Y12174D01*
X18137Y12164D01*
X18147Y12157D01*
X18159Y12155D01*
X18234D01*
Y11952D01*
X18167D01*
X18149Y11948D01*
X18134Y11938D01*
X17989Y11793D01*
X17901D01*
X17762Y11932D01*
X17648Y12046D01*
Y12421D01*
X17645Y12438D01*
X17635Y12453D01*
X17604Y12484D01*
X17589Y12494D01*
X17571Y12498D01*
X17341D01*
X17324Y12494D01*
X17309Y12484D01*
X17256Y12431D01*
X17249Y12434D01*
X17221Y12438D01*
X17194Y12434D01*
X17168Y12423D01*
X17146Y12407D01*
X17129Y12385D01*
X17119Y12359D01*
X17115Y12332D01*
X17119Y12304D01*
X17129Y12279D01*
X17146Y12257D01*
X17168Y12240D01*
X17194Y12229D01*
X17221Y12226D01*
X17249Y12229D01*
X17274Y12240D01*
X17296Y12257D01*
X17313Y12279D01*
X17323Y12304D01*
X17327Y12332D01*
X17323Y12359D01*
X17321Y12366D01*
X17358Y12404D01*
X17370Y12399D01*
Y12292D01*
X16730Y11651D01*
X16511D01*
Y11610D01*
X15781D01*
Y11651D01*
X15511D01*
Y11610D01*
X15406D01*
X15400Y11621D01*
X15408Y11631D01*
X15418Y11657D01*
X15422Y11684D01*
X15418Y11711D01*
X15408Y11737D01*
X15391Y11759D01*
X15369Y11776D01*
X15344Y11786D01*
X15316Y11790D01*
X15289Y11786D01*
X15263Y11776D01*
X15241Y11759D01*
X15224Y11737D01*
X15214Y11711D01*
X15210Y11684D01*
X15214Y11657D01*
X15224Y11631D01*
X15232Y11621D01*
X15226Y11610D01*
X15152D01*
X15146Y11621D01*
X15154Y11631D01*
X15164Y11657D01*
X15166Y11671D01*
X14958D01*
X14960Y11657D01*
X14970Y11631D01*
X14978Y11621D01*
X14972Y11610D01*
X14913D01*
Y11789D01*
X14768D01*
X14564Y11993D01*
X14569Y12005D01*
X14703D01*
Y11884D01*
X14913D01*
Y12085D01*
X14995D01*
X15000Y12073D01*
X14987Y12064D01*
X14970Y12042D01*
X14960Y12016D01*
X14958Y12001D01*
X15166D01*
X15164Y12016D01*
X15154Y12042D01*
X15137Y12064D01*
X15125Y12073D01*
X15129Y12085D01*
X15249D01*
X15254Y12073D01*
X15241Y12064D01*
X15224Y12042D01*
X15214Y12016D01*
X15210Y11989D01*
X15214Y11961D01*
X15224Y11936D01*
X15241Y11914D01*
X15263Y11897D01*
X15289Y11887D01*
X15316Y11883D01*
X15344Y11887D01*
X15369Y11897D01*
X15391Y11914D01*
X15408Y11936D01*
X15418Y11961D01*
X15422Y11989D01*
X15418Y12016D01*
X15408Y12042D01*
X15391Y12064D01*
X15379Y12073D01*
X15383Y12085D01*
X15511D01*
Y12014D01*
X15781D01*
Y12085D01*
X16511D01*
Y12014D01*
X16634D01*
Y12101D01*
X16564D01*
X16560Y12113D01*
X16679Y12232D01*
X16686Y12229D01*
X16713Y12226D01*
X16741Y12229D01*
X16766Y12240D01*
X16788Y12257D01*
X16805Y12279D01*
X16815Y12304D01*
X16819Y12332D01*
X16815Y12359D01*
X16805Y12385D01*
X16788Y12407D01*
X16766Y12423D01*
X16741Y12434D01*
X16713Y12438D01*
X16686Y12434D01*
X16660Y12423D01*
X16638Y12407D01*
X16621Y12385D01*
X16611Y12359D01*
X16607Y12332D01*
X16611Y12304D01*
X16614Y12297D01*
X16493Y12177D01*
X16386D01*
X16381Y12189D01*
X16425Y12232D01*
X16432Y12229D01*
X16459Y12226D01*
X16487Y12229D01*
X16512Y12240D01*
X16534Y12257D01*
X16551Y12279D01*
X16561Y12304D01*
X16565Y12332D01*
X16561Y12359D01*
X16551Y12385D01*
X16534Y12407D01*
X16512Y12423D01*
X16487Y12434D01*
X16459Y12438D01*
X16432Y12434D01*
X16406Y12423D01*
X16384Y12407D01*
X16367Y12385D01*
X16357Y12359D01*
X16353Y12332D01*
X16357Y12304D01*
X16360Y12297D01*
X16319Y12257D01*
X16294D01*
X16289Y12268D01*
X16297Y12279D01*
X16307Y12304D01*
X16311Y12332D01*
X16307Y12359D01*
X16297Y12385D01*
X16280Y12407D01*
X16258Y12423D01*
X16233Y12434D01*
X16205Y12438D01*
X16178Y12434D01*
X16152Y12423D01*
X16130Y12407D01*
X16113Y12385D01*
X16103Y12359D01*
X16099Y12332D01*
X16103Y12304D01*
X16113Y12279D01*
X16122Y12268D01*
X16116Y12257D01*
X14274D01*
X14262Y12265D01*
X14239Y12270D01*
X14152D01*
X14147Y12281D01*
X15010Y13144D01*
X15088D01*
X15096Y13135D01*
X15095Y13128D01*
X15098Y13109D01*
X15108Y13095D01*
X15098Y13081D01*
X15097Y13075D01*
X15394D01*
X15393Y13081D01*
X15384Y13095D01*
X15393Y13109D01*
X15397Y13128D01*
X15393Y13146D01*
X15384Y13160D01*
X15393Y13174D01*
X15397Y13193D01*
X15393Y13211D01*
X15393Y13211D01*
X15393Y13211D01*
X15392Y13218D01*
D01*
D01*
X15406Y13228D01*
X15526Y13348D01*
X15536Y13363D01*
X15540Y13380D01*
X15540Y13380D01*
X15540Y13380D01*
Y13380D01*
Y13469D01*
X15788D01*
X15796Y13460D01*
X15795Y13453D01*
X15798Y13434D01*
X15808Y13420D01*
X15798Y13406D01*
X15795Y13388D01*
X15798Y13369D01*
X15808Y13355D01*
X15798Y13341D01*
X15797Y13335D01*
X16094D01*
X16093Y13341D01*
X16084Y13355D01*
X16093Y13369D01*
X16097Y13388D01*
X16093Y13406D01*
X16084Y13420D01*
X16093Y13434D01*
X16097Y13453D01*
X16095Y13460D01*
X16103Y13469D01*
X16937D01*
X17053Y13353D01*
D02*
G37*
G36*
X13777Y10504D02*
X13784Y10500D01*
X13786Y10487D01*
X13776Y10475D01*
X13766Y10451D01*
X13765Y10443D01*
X13753D01*
X13751Y10451D01*
X13742Y10475D01*
X13727Y10494D01*
X13707Y10510D01*
X13684Y10519D01*
X13659Y10523D01*
X13634Y10519D01*
X13611Y10510D01*
X13591Y10494D01*
X13576Y10475D01*
X13566Y10451D01*
X13565Y10443D01*
X13553D01*
X13551Y10451D01*
X13542Y10475D01*
X13527Y10494D01*
X13507Y10510D01*
X13500Y10512D01*
Y10764D01*
X13512Y10769D01*
X13777Y10504D01*
D02*
G37*
G36*
X13872Y10333D02*
X13884Y10334D01*
X13907Y10344D01*
X13927Y10359D01*
X13942Y10379D01*
X13951Y10402D01*
X13964Y10399D01*
Y10332D01*
X14076D01*
X14081Y10320D01*
X13683Y9922D01*
X13659Y9926D01*
X13634Y9922D01*
X13611Y9913D01*
X13591Y9898D01*
X13576Y9878D01*
X13566Y9855D01*
X13565Y9846D01*
X13553D01*
X13551Y9855D01*
X13542Y9878D01*
X13527Y9898D01*
X13507Y9913D01*
X13484Y9922D01*
X13459Y9926D01*
X13434Y9922D01*
X13432Y9922D01*
X13335Y10019D01*
Y10314D01*
X13347Y10319D01*
X13381Y10284D01*
X13396Y10274D01*
X13413Y10271D01*
X13549D01*
X13566Y10274D01*
X13581Y10284D01*
X13632Y10335D01*
X13634Y10334D01*
X13659Y10331D01*
X13684Y10334D01*
X13707Y10344D01*
X13727Y10359D01*
X13742Y10379D01*
X13751Y10402D01*
X13753Y10410D01*
X13765D01*
X13766Y10402D01*
X13776Y10379D01*
X13791Y10359D01*
X13811Y10344D01*
X13834Y10334D01*
X13846Y10333D01*
Y10427D01*
X13872D01*
Y10333D01*
D02*
G37*
G36*
X16561Y9378D02*
X16550Y9367D01*
X15594D01*
X15588Y9378D01*
X15594Y9386D01*
X15596Y9390D01*
X16556D01*
X16561Y9378D01*
D02*
G37*
G36*
X13752Y12262D02*
X13774Y12257D01*
X13797Y12262D01*
X13814Y12274D01*
X13832Y12262D01*
X13854Y12257D01*
X13877Y12262D01*
X13881Y12265D01*
X13900Y12268D01*
X13909Y12254D01*
X13952Y12211D01*
X13967Y12201D01*
X13984Y12198D01*
X14044D01*
X14062Y12201D01*
X14063Y12201D01*
X14065Y12189D01*
X14077Y12171D01*
X14065Y12153D01*
X14061Y12131D01*
X14065Y12109D01*
X14077Y12091D01*
X14065Y12073D01*
X14061Y12051D01*
X14065Y12029D01*
X14077Y12011D01*
X14065Y11993D01*
X14061Y11971D01*
X14065Y11949D01*
X14077Y11931D01*
X14065Y11913D01*
X14061Y11891D01*
X14065Y11869D01*
X14066Y11868D01*
X14060Y11857D01*
X13660D01*
Y12256D01*
X13671Y12262D01*
X13672Y12262D01*
X13694Y12257D01*
X13717Y12262D01*
X13734Y12274D01*
X13752Y12262D01*
D02*
G37*
G36*
X13547Y12260D02*
X13557Y12262D01*
X13557Y12262D01*
X13569Y12256D01*
Y11830D01*
X13515Y11777D01*
X13169D01*
X13163Y11788D01*
X13164Y11789D01*
X13165Y11798D01*
X13049D01*
Y11824D01*
X13165D01*
X13164Y11833D01*
X13152Y11851D01*
X13164Y11869D01*
X13168Y11891D01*
X13164Y11913D01*
X13152Y11931D01*
X13164Y11949D01*
X13168Y11971D01*
X13164Y11993D01*
X13152Y12011D01*
X13164Y12029D01*
X13168Y12051D01*
X13164Y12073D01*
X13152Y12091D01*
X13164Y12109D01*
X13168Y12131D01*
X13164Y12153D01*
X13152Y12171D01*
X13164Y12189D01*
X13166Y12201D01*
X13167Y12201D01*
X13184Y12198D01*
X13404D01*
X13422Y12201D01*
X13437Y12211D01*
X13479Y12254D01*
X13489Y12268D01*
X13508Y12265D01*
X13512Y12262D01*
X13522Y12260D01*
Y12376D01*
X13547D01*
Y12260D01*
D02*
G37*
%LPC*%
G36*
X15394Y13050D02*
X15097D01*
X15098Y13044D01*
X15108Y13030D01*
X15098Y13016D01*
X15095Y12998D01*
X15098Y12979D01*
X15108Y12965D01*
X15098Y12951D01*
X15095Y12933D01*
X15098Y12914D01*
X15108Y12900D01*
X15098Y12886D01*
X15095Y12868D01*
X15098Y12849D01*
X15108Y12835D01*
X15098Y12821D01*
X15095Y12803D01*
X15098Y12784D01*
X15108Y12770D01*
X15098Y12756D01*
X15095Y12738D01*
X15098Y12719D01*
X15108Y12705D01*
X15098Y12691D01*
X15095Y12673D01*
X15098Y12654D01*
X15108Y12640D01*
X15098Y12626D01*
X15095Y12608D01*
X15098Y12589D01*
X15109Y12573D01*
X15125Y12563D01*
X15143Y12559D01*
X15348D01*
X15367Y12563D01*
X15382Y12573D01*
X15393Y12589D01*
X15397Y12608D01*
X15393Y12626D01*
X15384Y12640D01*
X15393Y12654D01*
X15397Y12673D01*
X15393Y12691D01*
X15384Y12705D01*
X15393Y12719D01*
X15397Y12738D01*
X15393Y12756D01*
X15384Y12770D01*
X15393Y12784D01*
X15397Y12803D01*
X15393Y12821D01*
X15384Y12835D01*
X15393Y12849D01*
X15397Y12868D01*
X15393Y12886D01*
X15384Y12900D01*
X15393Y12914D01*
X15397Y12933D01*
X15393Y12951D01*
X15384Y12965D01*
X15393Y12979D01*
X15397Y12998D01*
X15393Y13016D01*
X15384Y13030D01*
X15393Y13044D01*
X15394Y13050D01*
D02*
G37*
G36*
X14122Y13325D02*
Y13233D01*
X14214D01*
X14212Y13248D01*
X14201Y13274D01*
X14185Y13296D01*
X14163Y13312D01*
X14137Y13323D01*
X14122Y13325D01*
D02*
G37*
G36*
X16094Y13310D02*
X15797D01*
X15798Y13304D01*
X15808Y13290D01*
X15798Y13276D01*
X15797Y13270D01*
X16094D01*
X16093Y13276D01*
X16084Y13290D01*
X16093Y13304D01*
X16094Y13310D01*
D02*
G37*
G36*
X16554Y13338D02*
X16344D01*
Y13193D01*
X16325Y13174D01*
X16103D01*
X16095Y13183D01*
X16097Y13193D01*
X16093Y13211D01*
X16084Y13225D01*
X16093Y13239D01*
X16094Y13245D01*
X15797D01*
X15798Y13239D01*
X15808Y13225D01*
X15798Y13211D01*
X15795Y13193D01*
X15798Y13174D01*
X15808Y13160D01*
X15798Y13146D01*
X15795Y13128D01*
X15798Y13109D01*
X15808Y13095D01*
X15798Y13081D01*
X15795Y13063D01*
X15798Y13044D01*
X15808Y13030D01*
X15798Y13016D01*
X15797Y13010D01*
X16097D01*
X16103Y13017D01*
X16334D01*
X16344Y13007D01*
Y12862D01*
X16554D01*
Y13072D01*
X16409D01*
X16386Y13095D01*
X16385Y13104D01*
X16409Y13128D01*
X16554D01*
Y13338D01*
D02*
G37*
G36*
X14097Y13325D02*
X14082Y13323D01*
X14057Y13312D01*
X14035Y13296D01*
X14018Y13274D01*
X14007Y13248D01*
X14005Y13233D01*
X14097D01*
Y13325D01*
D02*
G37*
G36*
X13792D02*
Y13233D01*
X13884D01*
X13882Y13248D01*
X13871Y13274D01*
X13854Y13296D01*
X13832Y13312D01*
X13807Y13323D01*
X13792Y13325D01*
D02*
G37*
G36*
X13767D02*
X13752Y13323D01*
X13727Y13312D01*
X13705Y13296D01*
X13688Y13274D01*
X13677Y13248D01*
X13675Y13233D01*
X13767D01*
Y13325D01*
D02*
G37*
G36*
X13462D02*
Y13233D01*
X13554D01*
X13552Y13248D01*
X13541Y13274D01*
X13524Y13296D01*
X13502Y13312D01*
X13477Y13323D01*
X13462Y13325D01*
D02*
G37*
G36*
X14214Y13208D02*
X14122D01*
Y13116D01*
X14137Y13118D01*
X14163Y13129D01*
X14185Y13146D01*
X14201Y13168D01*
X14212Y13193D01*
X14214Y13208D01*
D02*
G37*
G36*
X16094Y12985D02*
X15797D01*
X15798Y12979D01*
D01*
X15798Y12975D01*
X15798Y12975D01*
D01*
X15783Y12965D01*
X15647Y12829D01*
X15645Y12829D01*
X15621Y12832D01*
X15597Y12829D01*
X15574Y12820D01*
X15554Y12805D01*
X15539Y12785D01*
X15530Y12763D01*
X15527Y12738D01*
X15530Y12714D01*
X15539Y12691D01*
X15554Y12671D01*
X15574Y12656D01*
X15597Y12647D01*
X15621Y12644D01*
X15645Y12647D01*
X15668Y12656D01*
X15688Y12671D01*
X15703Y12691D01*
X15712Y12714D01*
X15715Y12738D01*
X15712Y12763D01*
X15712Y12764D01*
X15791Y12843D01*
X15799Y12842D01*
X15805Y12831D01*
X15798Y12821D01*
X15797Y12815D01*
X16094D01*
X16093Y12821D01*
X16084Y12835D01*
X16093Y12849D01*
X16097Y12868D01*
X16093Y12886D01*
X16084Y12900D01*
X16093Y12914D01*
X16097Y12933D01*
X16093Y12951D01*
X16084Y12965D01*
X16093Y12979D01*
X16094Y12985D01*
D02*
G37*
G36*
X17641Y13021D02*
X17539D01*
Y12954D01*
X17641D01*
Y13021D01*
D02*
G37*
G36*
X17513D02*
X17411D01*
Y12954D01*
X17513D01*
Y13021D01*
D02*
G37*
G36*
X13554Y13208D02*
X13462D01*
Y13116D01*
X13477Y13118D01*
X13502Y13129D01*
X13524Y13146D01*
X13541Y13168D01*
X13552Y13193D01*
X13554Y13208D01*
D02*
G37*
G36*
X14097D02*
X14005D01*
X14007Y13193D01*
X14018Y13168D01*
X14035Y13146D01*
X14057Y13129D01*
X14082Y13118D01*
X14097Y13116D01*
Y13208D01*
D02*
G37*
G36*
X13884D02*
X13792D01*
Y13116D01*
X13807Y13118D01*
X13832Y13129D01*
X13854Y13146D01*
X13871Y13168D01*
X13882Y13193D01*
X13884Y13208D01*
D02*
G37*
G36*
X13767D02*
X13675D01*
X13677Y13193D01*
X13688Y13168D01*
X13705Y13146D01*
X13727Y13129D01*
X13752Y13118D01*
X13767Y13116D01*
Y13208D01*
D02*
G37*
G36*
X17932Y12046D02*
X17917Y12044D01*
X17890Y12033D01*
X17868Y12016D01*
X17850Y11993D01*
X17839Y11966D01*
X17837Y11951D01*
X17932D01*
Y12046D01*
D02*
G37*
G36*
X17958D02*
Y11951D01*
X18053D01*
X18051Y11966D01*
X18040Y11993D01*
X18023Y12016D01*
X18000Y12033D01*
X17973Y12044D01*
X17958Y12046D01*
D02*
G37*
G36*
X16634Y11989D02*
X16511D01*
Y11901D01*
X16634D01*
Y11989D01*
D02*
G37*
G36*
X16781D02*
X16659D01*
Y11901D01*
X16781D01*
Y11989D01*
D02*
G37*
G36*
X17071Y12319D02*
X16980D01*
Y12227D01*
X16995Y12229D01*
X17020Y12240D01*
X17042Y12257D01*
X17059Y12279D01*
X17069Y12304D01*
X17071Y12319D01*
D02*
G37*
G36*
X16954Y12436D02*
X16940Y12434D01*
X16914Y12423D01*
X16892Y12407D01*
X16875Y12385D01*
X16865Y12359D01*
X16863Y12344D01*
X16954D01*
Y12436D01*
D02*
G37*
G36*
X16781Y12101D02*
X16659D01*
Y12014D01*
X16781D01*
Y12101D01*
D02*
G37*
G36*
X16954Y12319D02*
X16863D01*
X16865Y12304D01*
X16875Y12279D01*
X16892Y12257D01*
X16914Y12240D01*
X16940Y12229D01*
X16954Y12227D01*
Y12319D01*
D02*
G37*
G36*
X15781Y11989D02*
X15659D01*
Y11901D01*
X15781D01*
Y11989D01*
D02*
G37*
G36*
X17380Y11925D02*
X17285D01*
Y11830D01*
X17300Y11832D01*
X17327Y11843D01*
X17350Y11860D01*
X17367Y11883D01*
X17378Y11910D01*
X17380Y11925D01*
D02*
G37*
G36*
X17932D02*
X17837D01*
X17839Y11910D01*
X17850Y11883D01*
X17868Y11860D01*
X17890Y11843D01*
X17917Y11832D01*
X17932Y11830D01*
Y11925D01*
D02*
G37*
G36*
X15075Y11788D02*
Y11697D01*
X15166D01*
X15164Y11711D01*
X15154Y11737D01*
X15137Y11759D01*
X15115Y11776D01*
X15090Y11786D01*
X15075Y11788D01*
D02*
G37*
G36*
X15049D02*
X15035Y11786D01*
X15009Y11776D01*
X14987Y11759D01*
X14970Y11737D01*
X14960Y11711D01*
X14958Y11697D01*
X15049D01*
Y11788D01*
D02*
G37*
G36*
X15166Y11976D02*
X15075D01*
Y11885D01*
X15090Y11887D01*
X15115Y11897D01*
X15137Y11914D01*
X15154Y11936D01*
X15164Y11961D01*
X15166Y11976D01*
D02*
G37*
G36*
X15634Y11989D02*
X15511D01*
Y11901D01*
X15634D01*
Y11989D01*
D02*
G37*
G36*
X18053Y11925D02*
X17958D01*
Y11830D01*
X17973Y11832D01*
X18000Y11843D01*
X18023Y11860D01*
X18040Y11883D01*
X18051Y11910D01*
X18053Y11925D01*
D02*
G37*
G36*
X15049Y11976D02*
X14958D01*
X14960Y11961D01*
X14970Y11936D01*
X14987Y11914D01*
X15009Y11897D01*
X15035Y11887D01*
X15049Y11885D01*
Y11976D01*
D02*
G37*
G36*
X15774Y10061D02*
X15759Y10059D01*
X15734Y10049D01*
X15712Y10032D01*
X15695Y10010D01*
X15684Y9984D01*
X15682Y9969D01*
X15774D01*
Y10061D01*
D02*
G37*
G36*
X14154Y9925D02*
X13964D01*
Y9857D01*
X13951Y9855D01*
X13942Y9878D01*
X13927Y9898D01*
X13907Y9913D01*
X13884Y9922D01*
X13872Y9924D01*
Y9830D01*
Y9736D01*
X13884Y9737D01*
X13907Y9747D01*
X13927Y9762D01*
X13942Y9782D01*
X13951Y9805D01*
X13964Y9802D01*
Y9735D01*
X14154D01*
Y9925D01*
D02*
G37*
G36*
X15774Y10185D02*
X15682D01*
X15684Y10171D01*
X15695Y10145D01*
X15712Y10123D01*
X15734Y10106D01*
X15759Y10096D01*
X15774Y10094D01*
Y10185D01*
D02*
G37*
G36*
X15799Y10061D02*
Y9969D01*
X15891D01*
X15889Y9984D01*
X15878Y10010D01*
X15862Y10032D01*
X15840Y10049D01*
X15814Y10059D01*
X15799Y10061D01*
D02*
G37*
G36*
X16980Y12436D02*
Y12344D01*
X17071D01*
X17069Y12359D01*
X17059Y12385D01*
X17042Y12407D01*
X17020Y12423D01*
X16995Y12434D01*
X16980Y12436D01*
D02*
G37*
G36*
X14917Y9659D02*
X14699D01*
Y9442D01*
X14917D01*
Y9659D01*
D02*
G37*
G36*
X15891Y9944D02*
X15799D01*
Y9853D01*
X15814Y9855D01*
X15840Y9865D01*
X15862Y9882D01*
X15878Y9904D01*
X15889Y9929D01*
X15891Y9944D01*
D02*
G37*
G36*
X15774D02*
X15682D01*
X15684Y9929D01*
X15695Y9904D01*
X15712Y9882D01*
X15734Y9865D01*
X15759Y9855D01*
X15774Y9853D01*
Y9944D01*
D02*
G37*
G36*
X15891Y10185D02*
X15799D01*
Y10094D01*
X15814Y10096D01*
X15840Y10106D01*
X15862Y10123D01*
X15878Y10145D01*
X15889Y10171D01*
X15891Y10185D01*
D02*
G37*
G36*
X15799Y10302D02*
Y10211D01*
X15891D01*
X15889Y10226D01*
X15878Y10251D01*
X15862Y10273D01*
X15840Y10290D01*
X15814Y10300D01*
X15799Y10302D01*
D02*
G37*
G36*
X15774D02*
X15759Y10300D01*
X15734Y10290D01*
X15712Y10273D01*
X15695Y10251D01*
X15684Y10226D01*
X15682Y10211D01*
X15774D01*
Y10302D01*
D02*
G37*
G36*
X16895Y10316D02*
X16803D01*
Y10224D01*
X16895D01*
Y10316D01*
D02*
G37*
G36*
X16777D02*
X16685D01*
Y10224D01*
X16777D01*
Y10316D01*
D02*
G37*
G36*
X15606Y10185D02*
X15519D01*
Y10099D01*
X15533Y10101D01*
X15557Y10111D01*
X15578Y10127D01*
X15594Y10148D01*
X15604Y10172D01*
X15606Y10185D01*
D02*
G37*
G36*
X15494D02*
X15408D01*
X15409Y10172D01*
X15419Y10148D01*
X15435Y10127D01*
X15456Y10111D01*
X15481Y10101D01*
X15494Y10099D01*
Y10185D01*
D02*
G37*
G36*
X15519Y10297D02*
Y10211D01*
X15606D01*
X15604Y10224D01*
X15594Y10249D01*
X15578Y10269D01*
X15557Y10285D01*
X15533Y10296D01*
X15519Y10297D01*
D02*
G37*
G36*
X15494D02*
X15481Y10296D01*
X15456Y10285D01*
X15435Y10269D01*
X15419Y10249D01*
X15409Y10224D01*
X15408Y10211D01*
X15494D01*
Y10297D01*
D02*
G37*
%LPD*%
D10*
X12586Y11354D02*
D03*
Y11509D02*
D03*
X12827Y12751D02*
D03*
Y12906D02*
D03*
X15646Y11367D02*
D03*
Y11211D02*
D03*
D11*
X18415Y11697D02*
D03*
X18570D02*
D03*
X17018Y12967D02*
D03*
X17173D02*
D03*
X17018Y13233D02*
D03*
X17173D02*
D03*
D12*
X18837Y11709D02*
D03*
X19187D02*
D03*
X16799Y13233D02*
D03*
X16449D02*
D03*
X16799Y12967D02*
D03*
X16449D02*
D03*
X12271Y12840D02*
D03*
X14808Y11379D02*
D03*
X17475Y12332D02*
D03*
X12271Y12539D02*
D03*
Y12239D02*
D03*
X14808Y11989D02*
D03*
X11760Y11290D02*
D03*
X12271Y11938D02*
D03*
X14808Y11684D02*
D03*
X15787Y10452D02*
D03*
Y9690D02*
D03*
Y8928D02*
D03*
Y8204D02*
D03*
X16497Y10198D02*
D03*
Y9957D02*
D03*
Y8687D02*
D03*
Y8446D02*
D03*
D13*
X15246Y13453D02*
D03*
Y13388D02*
D03*
Y13323D02*
D03*
Y13258D02*
D03*
Y13193D02*
D03*
Y13128D02*
D03*
Y13063D02*
D03*
Y12998D02*
D03*
Y12933D02*
D03*
Y12868D02*
D03*
Y12803D02*
D03*
Y12738D02*
D03*
Y12673D02*
D03*
Y12608D02*
D03*
X15946Y13453D02*
D03*
Y13388D02*
D03*
Y13323D02*
D03*
Y13258D02*
D03*
Y13193D02*
D03*
Y13128D02*
D03*
Y13063D02*
D03*
Y12998D02*
D03*
Y12933D02*
D03*
Y12868D02*
D03*
Y12803D02*
D03*
Y12738D02*
D03*
Y12673D02*
D03*
Y12608D02*
D03*
D14*
X17526Y12941D02*
D03*
Y12776D02*
D03*
X12586Y11824D02*
D03*
Y11659D02*
D03*
X14453Y11557D02*
D03*
Y11722D02*
D03*
D15*
X18041Y12746D02*
D03*
X18041Y12666D02*
D03*
Y12586D02*
D03*
Y12426D02*
D03*
Y12506D02*
D03*
D16*
X18814Y13103D02*
D03*
Y12068D02*
D03*
X18389Y13103D02*
D03*
Y12068D02*
D03*
D17*
X12827Y13109D02*
D03*
Y13459D02*
D03*
X13119Y12967D02*
D03*
X13449D02*
D03*
X13779D02*
D03*
X14110D02*
D03*
X16790Y10211D02*
D03*
D18*
X15646Y12001D02*
D03*
Y11551D02*
D03*
X16646D02*
D03*
Y12001D02*
D03*
D19*
X13049Y11411D02*
D03*
Y11491D02*
D03*
Y11571D02*
D03*
Y11651D02*
D03*
Y11731D02*
D03*
Y11811D02*
D03*
Y11891D02*
D03*
Y11971D02*
D03*
Y12051D02*
D03*
Y12131D02*
D03*
Y12211D02*
D03*
X14179D02*
D03*
Y12131D02*
D03*
Y12051D02*
D03*
Y11971D02*
D03*
Y11891D02*
D03*
Y11811D02*
D03*
Y11731D02*
D03*
Y11651D02*
D03*
Y11571D02*
D03*
Y11491D02*
D03*
Y11411D02*
D03*
D20*
X13214Y12376D02*
D03*
X13294D02*
D03*
X13374D02*
D03*
X13454D02*
D03*
X13534D02*
D03*
X13614D02*
D03*
X13694D02*
D03*
X13774D02*
D03*
X13854D02*
D03*
X13934D02*
D03*
X14014D02*
D03*
Y11246D02*
D03*
X13934D02*
D03*
X13854D02*
D03*
X13774D02*
D03*
X13694D02*
D03*
X13614D02*
D03*
X13534D02*
D03*
X13454D02*
D03*
X13374D02*
D03*
X13294D02*
D03*
X13214D02*
D03*
D21*
X13703Y10858D02*
D03*
X13868D02*
D03*
X13411Y12624D02*
D03*
X13576D02*
D03*
D22*
Y12657D01*
X13356Y12847D02*
X13387D01*
X13576Y12657D01*
X17041Y11211D02*
X17729Y11900D01*
X15646Y11211D02*
X17041D01*
X17729Y11900D02*
X17945Y11684D01*
X17602Y12027D02*
X17729Y11900D01*
X17602Y12027D02*
Y12421D01*
X17571Y12452D02*
X17602Y12421D01*
X17341Y12452D02*
X17571D01*
X17221Y12332D02*
X17341Y12452D01*
X16512Y12131D02*
X16713Y12332D01*
X16338Y12211D02*
X16459Y12332D01*
X13614Y11811D02*
Y12376D01*
X13534Y11731D02*
X13614Y11811D01*
X13049Y11731D02*
X13534D01*
X13614Y11811D02*
X14179D01*
X18570Y11697D02*
X18824D01*
X18415D02*
Y11906D01*
X18958D01*
X18167D02*
X18415D01*
X17945Y11684D02*
X18167Y11906D01*
X12586Y11278D02*
Y11354D01*
X13329Y12873D02*
X13356Y12847D01*
X13329Y12873D02*
Y13355D01*
X13449Y13475D01*
X16956Y13515D02*
X17205Y13266D01*
X15494Y13380D02*
Y13515D01*
X15374Y13260D02*
X15494Y13380D01*
X15248Y13260D02*
X15374D01*
X15246Y13258D02*
X15248Y13260D01*
X15494Y13515D02*
X16956D01*
X15069D02*
X15494D01*
X14110Y13475D02*
X15028D01*
X13779D02*
X14110D01*
X13449D02*
X13779D01*
X15028D02*
X15069Y13515D01*
X17173Y12967D02*
Y13233D01*
X17205Y13266D01*
X18958D01*
X19154Y13069D01*
Y12102D02*
Y13069D01*
X18958Y11906D02*
X19154Y12102D01*
X17945Y11367D02*
Y11684D01*
Y11367D02*
X18110Y11201D01*
X18041Y12746D02*
Y12870D01*
X18034Y12878D02*
X18041Y12870D01*
X15621Y12738D02*
X15816Y12933D01*
X15946D01*
X13222Y9901D02*
Y11239D01*
X13802Y9321D02*
X16569D01*
X13222Y9901D02*
X13802Y9321D01*
X13777Y9261D02*
X15428D01*
X13162Y9876D02*
X13777Y9261D01*
X13162Y9876D02*
Y11133D01*
X16625Y9551D02*
X16783Y9709D01*
X16739Y9703D02*
X16790D01*
X16732Y9569D02*
X17037D01*
X16599Y9436D02*
X16732Y9569D01*
X16696Y9449D02*
X16790D01*
X16569Y9321D02*
X16696Y9449D01*
X13703Y10858D02*
Y10897D01*
X13614Y10986D02*
X13703Y10897D01*
X13614Y10986D02*
Y11246D01*
X13694Y11066D02*
X13847Y10913D01*
X13694Y11066D02*
Y11246D01*
X12271Y12827D02*
X12959Y12139D01*
X13042D01*
X13049Y12131D01*
X12271Y12539D02*
X12759Y12051D01*
X13049D01*
X12271Y12239D02*
X12531Y11979D01*
X12714D01*
X12722Y11971D01*
X13049D01*
X12290Y11919D02*
X12689D01*
X12717Y11891D01*
X13049D01*
X12694Y11729D02*
X13047D01*
X12624Y11659D02*
X12694Y11729D01*
X12586Y11659D02*
X12624D01*
X13047Y11729D02*
X13049Y11731D01*
X12598Y11811D02*
X13049D01*
X12776Y11557D02*
X12870Y11651D01*
X13049D01*
X12281Y11557D02*
X12776D01*
X12014Y11290D02*
X12281Y11557D01*
X13044Y11646D02*
X13049Y11651D01*
X13614Y12376D02*
Y12586D01*
X13411Y12586D02*
X13534Y12462D01*
Y12376D02*
Y12462D01*
X12827Y12906D02*
Y13109D01*
Y12601D02*
X13184Y12244D01*
X12827Y12601D02*
Y12751D01*
X14323Y11649D02*
Y11670D01*
X14415Y11557D02*
X14453D01*
X14323Y11649D02*
X14415Y11557D01*
X14262Y11731D02*
X14323Y11670D01*
X14179Y11731D02*
X14262D01*
X14364Y11811D02*
X14453Y11722D01*
X14179Y11811D02*
X14364D01*
X14688Y11590D02*
Y11702D01*
X14500Y11891D02*
X14688Y11702D01*
X14179Y11891D02*
X14500D01*
X14521Y11971D02*
X14808Y11684D01*
X14179Y11971D02*
X14521D01*
X16646Y11551D02*
X16695D01*
X15646Y11367D02*
Y11551D01*
X14746Y12051D02*
X14808Y11989D01*
X14776Y11411D02*
X14808Y11379D01*
X14169Y10343D02*
Y10510D01*
X14143Y10537D02*
X14169Y10510D01*
X13809Y10537D02*
X14143D01*
X13542Y10804D02*
X13809Y10537D01*
X13374Y10523D02*
Y11246D01*
X13349Y10498D02*
X13374Y10523D01*
X13349Y10381D02*
Y10498D01*
Y10381D02*
X13413Y10317D01*
X13549D01*
X13659Y10427D01*
X13454Y10431D02*
Y11246D01*
X13542Y10804D02*
Y11239D01*
X15958Y12596D02*
X18031D01*
X15946Y12673D02*
X18034D01*
X13142Y11153D02*
X13162Y11133D01*
X13142Y11153D02*
Y11336D01*
X15428Y9261D02*
X15507Y9182D01*
X14789Y10639D02*
X16751D01*
X14681Y10579D02*
X16726D01*
X15467Y9551D02*
X16625D01*
X17224Y8982D02*
Y10170D01*
X16751Y10639D02*
X17220Y10170D01*
X14047Y11381D02*
X14789Y10639D01*
X14047Y11381D02*
Y11521D01*
X14089Y11564D01*
X14172D01*
X14179Y11571D01*
Y11411D02*
X14776D01*
X14179Y12051D02*
X14746D01*
X16726Y10579D02*
X17164Y10141D01*
X14014Y11246D02*
X14681Y10579D01*
X14991Y13190D02*
X15243D01*
X14044Y12244D02*
X14991Y13190D01*
X13184Y12244D02*
X13404D01*
X13447Y12286D01*
Y12368D01*
X13454Y12376D01*
X13119Y12967D02*
X13294Y12791D01*
Y12376D02*
Y12791D01*
X13694Y12376D02*
Y12722D01*
X13449Y12967D02*
X13694Y12722D01*
X13854Y12376D02*
Y12711D01*
X14110Y12967D01*
X13774Y12376D02*
Y12967D01*
X15243Y13190D02*
X15246Y13193D01*
X13984Y12244D02*
X14044D01*
X13942Y12286D02*
X13984Y12244D01*
X13942Y12286D02*
Y12368D01*
X13934Y12376D02*
X13942Y12368D01*
X14014Y12376D02*
X15091Y13453D01*
X15246D01*
X16353Y13063D02*
X16449Y12967D01*
X15946Y13063D02*
X16353D01*
X16344Y13128D02*
X16449Y13233D01*
X15946Y13128D02*
X16344D01*
X15946Y12738D02*
X17487D01*
X14179Y12131D02*
X16512D01*
X14179Y12211D02*
X16338D01*
X16799Y13233D02*
X17018D01*
X16799Y12967D02*
X17018D01*
X15946Y12608D02*
X15958Y12596D01*
X13659Y9833D02*
X14169Y10343D01*
X13289Y10000D02*
X13459Y9830D01*
X13289Y10000D02*
Y11240D01*
X13294Y11246D01*
X13884Y11379D02*
X13927Y11336D01*
X13185Y11379D02*
X13884D01*
X13142Y11336D02*
X13185Y11379D01*
X13782Y11148D02*
X15494Y9436D01*
X13782Y11148D02*
Y11239D01*
X13862Y11156D02*
X15467Y9551D01*
X13862Y11156D02*
Y11239D01*
X13854Y11246D02*
X13862Y11239D01*
X17164Y9176D02*
Y10141D01*
X13774Y11246D02*
X13782Y11239D01*
X13214Y11246D02*
X13222Y11239D01*
X13927Y11254D02*
X13934Y11246D01*
X13927Y11254D02*
Y11336D01*
X17056Y9068D02*
X17164Y9176D01*
X17044Y9068D02*
X17056D01*
Y8814D02*
X17224Y8982D01*
X17044Y8814D02*
X17056D01*
X15507Y9436D02*
X16599D01*
X17037Y9569D02*
X17044Y9576D01*
X15507Y9182D02*
X16549D01*
X16790Y8941D01*
X16497Y10198D02*
Y10452D01*
Y10198D02*
X16611Y10084D01*
X17044D01*
X16497Y9639D02*
Y9957D01*
X16790D01*
X16497Y8687D02*
Y8928D01*
Y8687D02*
X16790D01*
X16497Y8446D02*
X16611Y8560D01*
X17044D01*
X16497Y8204D02*
Y8446D01*
X14688Y11590D02*
X14715Y11564D01*
X16695Y11551D02*
X17475Y12332D01*
X14715Y11564D02*
X16646D01*
D23*
X11760Y10208D02*
Y11290D01*
Y10208D02*
X12294Y9675D01*
D24*
X12017Y12840D02*
D03*
X11763D02*
D03*
X13119Y13221D02*
D03*
Y13475D02*
D03*
X15062Y11379D02*
D03*
X15316D02*
D03*
X16205Y12332D02*
D03*
X16459D02*
D03*
X16713D02*
D03*
X16967D02*
D03*
X17221D02*
D03*
X12017Y12539D02*
D03*
X11763D02*
D03*
X12017Y12239D02*
D03*
X11763D02*
D03*
X15062Y11989D02*
D03*
X15316D02*
D03*
X12014Y11290D02*
D03*
X12268D02*
D03*
X12017Y11938D02*
D03*
X11763D02*
D03*
X15062Y11684D02*
D03*
X15316D02*
D03*
X13449Y13221D02*
D03*
Y13475D02*
D03*
X13779Y13221D02*
D03*
Y13475D02*
D03*
X14110Y13221D02*
D03*
Y13475D02*
D03*
X16497Y10452D02*
D03*
Y9690D02*
D03*
Y8928D02*
D03*
Y8204D02*
D03*
X17044Y10084D02*
D03*
X16790Y9957D02*
D03*
X17044Y9830D02*
D03*
X16790Y9703D02*
D03*
X17044Y9576D02*
D03*
X16790Y9449D02*
D03*
X17044Y9322D02*
D03*
X16790Y9195D02*
D03*
X17044Y9068D02*
D03*
X16790Y8941D02*
D03*
X17044Y8814D02*
D03*
X16790Y8687D02*
D03*
X17044Y8560D02*
D03*
X16790Y8433D02*
D03*
X15787Y10198D02*
D03*
Y9957D02*
D03*
Y8687D02*
D03*
Y8446D02*
D03*
D25*
X17945Y11938D02*
D03*
X17272D02*
D03*
X13843Y8636D02*
D03*
X14808Y9042D02*
D03*
X12256Y10566D02*
D03*
X17221Y11138D02*
D03*
D26*
X17945Y11684D02*
D03*
X17272D02*
D03*
X14808Y9550D02*
D03*
X17221Y10630D02*
D03*
D27*
X14059Y9830D02*
D03*
Y10427D02*
D03*
D28*
X13859Y9830D02*
D03*
X13659D02*
D03*
X13459D02*
D03*
X13859Y10427D02*
D03*
X13659D02*
D03*
X13459D02*
D03*
D29*
X12294Y8283D02*
D03*
X18644Y11224D02*
D03*
X12294Y9325D02*
D03*
D30*
Y8633D02*
D03*
X18644Y10874D02*
D03*
X12294Y9675D02*
D03*
D31*
X13335Y8636D02*
D03*
X11747Y10566D02*
D03*
D32*
X18821Y9322D02*
D03*
D33*
X15507Y9182D02*
D03*
Y8420D02*
D03*
Y9436D02*
D03*
Y10198D02*
D03*
D34*
X18110Y10693D02*
D03*
D35*
Y10947D02*
D03*
Y11201D02*
D03*
D36*
X12586Y11278D02*
D03*
X18034Y12878D02*
D03*
X15621Y12738D02*
D03*
M02*
