%FSLAX42Y42*%
%MOMM*%
G71*
G01*
G75*
G04 Layer_Color=2752767*
%ADD10C,0.30*%
%ADD11C,1.30*%
%ADD12R,0.90X1.55*%
%ADD13R,1.55X0.90*%
%ADD14R,1.50X1.50*%
%ADD15O,2.40X0.35*%
%ADD16R,1.00X1.70*%
%ADD17R,1.70X1.00*%
%ADD18R,2.10X1.40*%
%ADD19O,1.75X0.55*%
%ADD20O,0.55X1.75*%
%ADD21R,2.35X0.50*%
%ADD22R,2.50X2.35*%
%ADD23R,1.50X1.50*%
%ADD24C,1.50*%
%ADD25R,1.57X1.57*%
%ADD26C,1.57*%
%ADD27R,1.57X1.57*%
%ADD28C,2.50*%
%ADD29R,2.50X2.50*%
%ADD30R,1.30X1.30*%
%ADD31C,1.30*%
%ADD32R,2.50X2.50*%
%ADD33C,6.90*%
%ADD34C,1.40*%
%ADD35R,2.50X1.80*%
%ADD36O,2.50X1.80*%
%ADD37C,1.27*%
%ADD38C,0.25*%
%ADD39C,0.60*%
%ADD40C,0.25*%
%ADD41C,0.15*%
%ADD42C,0.20*%
%ADD43C,0.30*%
%ADD44R,1.90X0.80*%
%ADD45R,1.10X1.75*%
%ADD46R,1.75X1.10*%
%ADD47R,1.70X1.70*%
%ADD48O,2.60X0.55*%
%ADD49R,1.20X1.90*%
%ADD50R,1.90X1.20*%
%ADD51R,2.30X1.60*%
%ADD52O,1.95X0.75*%
%ADD53O,0.75X1.95*%
%ADD54R,2.55X0.70*%
%ADD55R,2.70X2.55*%
%ADD56R,1.70X1.70*%
%ADD57C,1.70*%
%ADD58R,1.78X1.78*%
%ADD59C,1.78*%
%ADD60R,1.78X1.78*%
%ADD61C,2.70*%
%ADD62R,2.70X2.70*%
%ADD63R,1.50X1.50*%
%ADD64C,1.50*%
%ADD65R,2.70X2.70*%
%ADD66C,7.10*%
%ADD67C,1.60*%
%ADD68R,2.70X2.00*%
%ADD69O,2.70X2.00*%
%ADD70C,1.47*%
%ADD71C,0.10*%
%ADD72C,0.15*%
%ADD73R,9.50X8.00*%
%ADD74C,0.13*%
%ADD75C,0.17*%
D74*
X13068Y12916D02*
Y13018D01*
X13170D01*
Y12916D01*
X13068D01*
Y13170D02*
Y13271D01*
X13170D01*
Y13170D01*
X13068D01*
Y13424D02*
Y13526D01*
X13170D01*
Y13424D01*
X13068D01*
X13399Y12916D02*
Y13018D01*
X13500D01*
Y12916D01*
X13399D01*
Y13170D02*
Y13271D01*
X13500D01*
Y13170D01*
X13399D01*
Y13424D02*
Y13526D01*
X13500D01*
Y13424D01*
X13399D01*
X13729Y12916D02*
Y13018D01*
X13830D01*
Y12916D01*
X13729D01*
Y13170D02*
Y13271D01*
X13830D01*
Y13170D01*
X13729D01*
Y13424D02*
Y13526D01*
X13830D01*
Y13424D01*
X13729D01*
X14059Y12916D02*
Y13018D01*
X14160D01*
Y12916D01*
X14059D01*
Y13170D02*
Y13271D01*
X14160D01*
Y13170D01*
X14059D01*
Y13424D02*
Y13526D01*
X14160D01*
Y13424D01*
X14059D01*
X14757Y11633D02*
Y11735D01*
X14859D01*
Y11633D01*
X14757D01*
X15011D02*
Y11735D01*
X15113D01*
Y11633D01*
X15011D01*
X15265D02*
Y11735D01*
X15367D01*
Y11633D01*
X15265D01*
X14757Y11328D02*
Y11430D01*
X14859D01*
Y11328D01*
X14757D01*
X15011D02*
Y11430D01*
X15113D01*
Y11328D01*
X15011D01*
X15265D02*
Y11430D01*
X15367D01*
Y11328D01*
X15265D01*
X12372Y12294D02*
Y12395D01*
X12474D01*
Y12294D01*
X12372D01*
X12118D02*
Y12395D01*
X12220D01*
Y12294D01*
X12118D01*
X11864D02*
Y12395D01*
X11966D01*
Y12294D01*
X11864D01*
X12372Y12594D02*
Y12696D01*
X12474D01*
Y12594D01*
X12372D01*
X12118D02*
Y12696D01*
X12220D01*
Y12594D01*
X12118D01*
X11864D02*
Y12696D01*
X11966D01*
Y12594D01*
X11864D01*
X12372Y12895D02*
Y12996D01*
X12474D01*
Y12895D01*
X12372D01*
X12118D02*
Y12996D01*
X12220D01*
Y12895D01*
X12118D01*
X11864D02*
Y12996D01*
X11966D01*
Y12895D01*
X11864D01*
X12372Y13195D02*
Y13297D01*
X12474D01*
Y13195D01*
X12372D01*
X12118D02*
Y13297D01*
X12220D01*
Y13195D01*
X12118D01*
X11864D02*
Y13297D01*
X11966D01*
Y13195D01*
X11864D01*
X13310Y9157D02*
X13259Y9258D01*
X13360D01*
X13310Y9157D01*
X12802D02*
X12751Y9258D01*
X12852D01*
X12802Y9157D01*
X12294Y9274D02*
X12319Y9299D01*
X12344D01*
X12319Y9325D01*
X12344Y9350D01*
X12319D01*
X12294Y9375D01*
X12268Y9350D01*
X12243D01*
X12268Y9325D01*
X12243Y9299D01*
X12268D01*
X12294Y9274D01*
Y9624D02*
X12319Y9649D01*
X12344D01*
X12319Y9675D01*
X12344Y9700D01*
X12319D01*
X12294Y9725D01*
X12268Y9700D01*
X12243D01*
X12268Y9675D01*
X12243Y9649D01*
X12268D01*
X12294Y9624D01*
X11747Y10516D02*
X11697Y10617D01*
X11798D01*
X11747Y10516D01*
X12256D02*
X12205Y10617D01*
X12306D01*
X12256Y10516D01*
X17323Y11214D02*
X17272Y11316D01*
X17374D01*
X17323Y11214D01*
Y11468D02*
X17272Y11570D01*
X17374D01*
X17323Y11468D01*
X19126Y10541D02*
X19075Y10643D01*
X19177D01*
X19126Y10541D01*
X18872D02*
X18821Y10643D01*
X18923D01*
X18872Y10541D01*
X18605Y9474D02*
X18555Y9576D01*
X18656D01*
X18605Y9474D01*
X19113D02*
X19063Y9576D01*
X19164D01*
X19113Y9474D01*
X16154Y12281D02*
Y12382D01*
X16256D01*
Y12281D01*
X16154D01*
X16408D02*
Y12382D01*
X16510D01*
Y12281D01*
X16408D01*
X16662D02*
Y12382D01*
X16764D01*
Y12281D01*
X16662D01*
X16916D02*
Y12382D01*
X17018D01*
Y12281D01*
X16916D01*
X17170D02*
Y12382D01*
X17272D01*
Y12281D01*
X17170D01*
X17424D02*
Y12382D01*
X17526D01*
Y12281D01*
X17424D01*
X14757Y11938D02*
Y12040D01*
X14859D01*
Y11938D01*
X14757D01*
X15011D02*
Y12040D01*
X15113D01*
Y11938D01*
X15011D01*
X15265D02*
Y12040D01*
X15367D01*
Y11938D01*
X15265D01*
X11709Y11239D02*
Y11341D01*
X11811D01*
Y11239D01*
X11709D01*
X11963D02*
Y11341D01*
X12065D01*
Y11239D01*
X11963D01*
X12217D02*
Y11341D01*
X12319D01*
Y11239D01*
X12217D01*
X14046Y9982D02*
X14072Y10033D01*
X14046Y10084D01*
X14097Y10058D01*
X14148Y10084D01*
X14122Y10033D01*
X14148Y9982D01*
X14097Y10008D01*
X14046Y9982D01*
X13846D02*
X13872Y10033D01*
X13846Y10084D01*
X13897Y10058D01*
X13948Y10084D01*
X13922Y10033D01*
X13948Y9982D01*
X13897Y10008D01*
X13846Y9982D01*
X13646D02*
X13672Y10033D01*
X13646Y10084D01*
X13697Y10058D01*
X13748Y10084D01*
X13722Y10033D01*
X13748Y9982D01*
X13697Y10008D01*
X13646Y9982D01*
X13446D02*
X13472Y10033D01*
X13446Y10084D01*
X13497Y10058D01*
X13548Y10084D01*
X13522Y10033D01*
X13548Y9982D01*
X13497Y10008D01*
X13446Y9982D01*
X14046Y10465D02*
X14072Y10516D01*
X14046Y10566D01*
X14097Y10541D01*
X14148Y10566D01*
X14122Y10516D01*
X14148Y10465D01*
X14097Y10490D01*
X14046Y10465D01*
X13846D02*
X13872Y10516D01*
X13846Y10566D01*
X13897Y10541D01*
X13948Y10566D01*
X13922Y10516D01*
X13948Y10465D01*
X13897Y10490D01*
X13846Y10465D01*
X13646D02*
X13672Y10516D01*
X13646Y10566D01*
X13697Y10541D01*
X13748Y10566D01*
X13722Y10516D01*
X13748Y10465D01*
X13697Y10490D01*
X13646Y10465D01*
X13446D02*
X13472Y10516D01*
X13446Y10566D01*
X13497Y10541D01*
X13548Y10566D01*
X13522Y10516D01*
X13548Y10465D01*
X13497Y10490D01*
X13446Y10465D01*
X14285Y9347D02*
X14310Y9373D01*
X14335D01*
X14310Y9398D01*
X14335Y9423D01*
X14310D01*
X14285Y9449D01*
X14259Y9423D01*
X14234D01*
X14259Y9398D01*
X14234Y9373D01*
X14259D01*
X14285Y9347D01*
X13935D02*
X13960Y9373D01*
X13985D01*
X13960Y9398D01*
X13985Y9423D01*
X13960D01*
X13935Y9449D01*
X13909Y9423D01*
X13884D01*
X13909Y9398D01*
X13884Y9373D01*
X13909D01*
X13935Y9347D01*
X18644Y11580D02*
X18669Y11605D01*
X18694D01*
X18669Y11630D01*
X18694Y11656D01*
X18669D01*
X18644Y11681D01*
X18618Y11656D01*
X18593D01*
X18618Y11630D01*
X18593Y11605D01*
X18618D01*
X18644Y11580D01*
Y11230D02*
X18669Y11255D01*
X18694D01*
X18669Y11280D01*
X18694Y11306D01*
X18669D01*
X18644Y11331D01*
X18618Y11306D01*
X18593D01*
X18618Y11280D01*
X18593Y11255D01*
X18618D01*
X18644Y11230D01*
X18098Y10325D02*
Y10426D01*
X18199D01*
Y10325D01*
X18098D01*
Y9614D02*
Y9716D01*
X18199D01*
Y9614D01*
X18098D01*
X17335Y10325D02*
Y10426D01*
X17437D01*
Y10325D01*
X17335D01*
Y9614D02*
Y9716D01*
X17437D01*
Y9614D01*
X17335D01*
X16574Y10325D02*
Y10426D01*
X16675D01*
Y10325D01*
X16574D01*
Y9614D02*
Y9716D01*
X16675D01*
Y9614D01*
X16574D01*
X15850Y10325D02*
Y10426D01*
X15951D01*
Y10325D01*
X15850D01*
Y9614D02*
Y9716D01*
X15951D01*
Y9614D01*
X15850D01*
X17856Y9321D02*
Y9423D01*
X17958D01*
Y9321D01*
X17856D01*
X17729Y9067D02*
Y9169D01*
X17831D01*
Y9067D01*
X17729D01*
X17602Y9321D02*
Y9423D01*
X17704D01*
Y9321D01*
X17602D01*
X17475Y9067D02*
Y9169D01*
X17577D01*
Y9067D01*
X17475D01*
X17348Y9321D02*
Y9423D01*
X17450D01*
Y9321D01*
X17348D01*
X17221Y9067D02*
Y9169D01*
X17323D01*
Y9067D01*
X17221D01*
X17094Y9321D02*
Y9423D01*
X17196D01*
Y9321D01*
X17094D01*
X16967Y9067D02*
Y9169D01*
X17069D01*
Y9067D01*
X16967D01*
X16840Y9321D02*
Y9423D01*
X16942D01*
Y9321D01*
X16840D01*
X16713Y9067D02*
Y9169D01*
X16815D01*
Y9067D01*
X16713D01*
X16586Y9321D02*
Y9423D01*
X16688D01*
Y9321D01*
X16586D01*
X16459Y9067D02*
Y9169D01*
X16561D01*
Y9067D01*
X16459D01*
X16332Y9321D02*
Y9423D01*
X16434D01*
Y9321D01*
X16332D01*
X16205Y9067D02*
Y9169D01*
X16307D01*
Y9067D01*
X16205D01*
X16078Y9321D02*
Y9423D01*
X16180D01*
Y9321D01*
X16078D01*
X16993Y7316D02*
Y7290D01*
X17043D01*
Y7316D01*
X17069D01*
Y7367D01*
X17043D01*
Y7392D01*
X16993D01*
Y7367D01*
X16967D01*
Y7316D01*
X16993D01*
X17843Y9614D02*
Y9716D01*
X17945D01*
Y9614D01*
X17843D01*
Y10325D02*
Y10426D01*
X17945D01*
Y10325D01*
X17843D01*
X17602Y9614D02*
Y9716D01*
X17704D01*
Y9614D01*
X17602D01*
Y10325D02*
Y10426D01*
X17704D01*
Y10325D01*
X17602D01*
X16332Y9614D02*
Y9716D01*
X16434D01*
Y9614D01*
X16332D01*
Y10325D02*
Y10426D01*
X16434D01*
Y10325D01*
X16332D01*
X16091Y9614D02*
Y9716D01*
X16193D01*
Y9614D01*
X16091D01*
Y10325D02*
Y10426D01*
X16193D01*
Y10325D01*
X16091D01*
X17907Y11341D02*
X17932D01*
X17958Y11367D01*
X17983Y11341D01*
X18009D01*
Y11367D01*
X17983Y11392D01*
X18009Y11417D01*
Y11443D01*
X17983D01*
X17958Y11417D01*
X17932Y11443D01*
X17907D01*
Y11417D01*
X17932Y11392D01*
X17907Y11367D01*
Y11341D01*
Y11595D02*
X17932D01*
X17958Y11621D01*
X17983Y11595D01*
X18009D01*
Y11621D01*
X17983Y11646D01*
X18009Y11671D01*
Y11697D01*
X17983D01*
X17958Y11671D01*
X17932Y11697D01*
X17907D01*
Y11671D01*
X17932Y11646D01*
X17907Y11621D01*
Y11595D01*
Y11849D02*
X17932D01*
X17958Y11875D01*
X17983Y11849D01*
X18009D01*
Y11875D01*
X17983Y11900D01*
X18009Y11925D01*
Y11951D01*
X17983D01*
X17958Y11925D01*
X17932Y11951D01*
X17907D01*
Y11925D01*
X17932Y11900D01*
X17907Y11875D01*
Y11849D01*
X16065Y11798D02*
X16116Y11849D01*
X16167Y11798D01*
X16116Y11747D01*
X16065Y11798D01*
X17729Y9944D02*
X17780Y9995D01*
X17831Y9944D01*
X17780Y9893D01*
X17729Y9944D01*
X13335Y12014D02*
X13386Y12065D01*
X13437Y12014D01*
X13386Y11963D01*
X13335Y12014D01*
X13640Y11671D02*
X13691Y11722D01*
X13741Y11671D01*
X13691Y11621D01*
X13640Y11671D01*
X11709Y11608D02*
X11760Y11659D01*
X11811Y11608D01*
X11760Y11557D01*
X11709Y11608D01*
X14364Y13221D02*
X14415Y13271D01*
X14465Y13221D01*
X14415Y13170D01*
X14364Y13221D01*
X14757Y12535D02*
X14808Y12586D01*
X14859Y12535D01*
X14808Y12484D01*
X14757Y12535D01*
X15545Y13068D02*
X15596Y13119D01*
X15646Y13068D01*
X15596Y13018D01*
X15545Y13068D01*
X17462Y13462D02*
X17513Y13513D01*
X17564Y13462D01*
X17513Y13411D01*
X17462Y13462D01*
X17767Y13043D02*
X17818Y13094D01*
X17869Y13043D01*
X17818Y12992D01*
X17767Y13043D01*
X15900Y12332D02*
X15951Y12382D01*
X16002Y12332D01*
X15951Y12281D01*
X15900Y12332D01*
X12535Y11278D02*
X12586Y11328D01*
X12636Y11278D01*
X12586Y11227D01*
X12535Y11278D01*
X17983Y12878D02*
X18034Y12929D01*
X18085Y12878D01*
X18034Y12827D01*
X17983Y12878D01*
D75*
X15100Y10071D02*
G03*
X15100Y10071I-51J0D01*
G01*
Y10579D02*
G03*
X15100Y10579I-51J0D01*
G01*
X16929Y10655D02*
G03*
X16929Y10655I-51J0D01*
G01*
X16167D02*
G03*
X16167Y10655I-51J0D01*
G01*
X17183D02*
G03*
X17183Y10655I-51J0D01*
G01*
X17945D02*
G03*
X17945Y10655I-51J0D01*
G01*
M02*
