%FSAX42Y42*%
%MOMM*%
G71*
G01*
G75*
G04 Layer_Physical_Order=1*
G04 Layer_Color=255*
%ADD10C,3.70*%
%ADD11C,0.30*%
%ADD12C,1.30*%
%ADD13C,1.00*%
%ADD14C,2.50*%
%ADD15R,2.50X2.50*%
%ADD16C,3.00*%
%ADD17C,1.57*%
%ADD18R,1.57X1.57*%
%ADD19C,6.50*%
%ADD20C,1.20*%
%ADD21R,2.50X2.50*%
%ADD22R,1.57X1.57*%
%ADD23C,1.52*%
%ADD24C,2.00*%
%ADD25R,2.00X2.00*%
G36*
X005245Y017488D02*
X012751D01*
X012783Y017456D01*
X012779Y017444D01*
X012770Y017443D01*
X012714Y017430D01*
X012661Y017408D01*
X012612Y017378D01*
X012568Y017340D01*
X012531Y017297D01*
X012501Y017248D01*
X012479Y017195D01*
X012465Y017139D01*
X012461Y017082D01*
X012465Y017024D01*
X012479Y016968D01*
X012501Y016915D01*
X012531Y016866D01*
X012568Y016823D01*
X012612Y016785D01*
X012661Y016755D01*
X012714Y016733D01*
X012770Y016720D01*
X012827Y016715D01*
X012884Y016720D01*
X012940Y016733D01*
X012993Y016755D01*
X013042Y016785D01*
X013086Y016823D01*
X013123Y016866D01*
X013153Y016915D01*
X013175Y016968D01*
X013189Y017024D01*
X013189Y017033D01*
X013201Y017037D01*
X013500Y016739D01*
Y013297D01*
X013449D01*
X012713Y012560D01*
X005232D01*
Y012865D01*
X005244Y012869D01*
X005258Y012853D01*
X005292Y012825D01*
X005331Y012804D01*
X005374Y012791D01*
X005418Y012786D01*
X005462Y012791D01*
X005504Y012804D01*
X005544Y012825D01*
X005578Y012853D01*
X005748Y013023D01*
X005776Y013057D01*
X005797Y013096D01*
X005810Y013138D01*
X005814Y013183D01*
X005814Y013183D01*
X005814Y013183D01*
Y013183D01*
Y013546D01*
X006637Y014369D01*
X006665Y014403D01*
X006686Y014442D01*
X006699Y014485D01*
X006699Y014485D01*
X006699Y014485D01*
Y014485D01*
X006703Y014529D01*
Y015184D01*
X006774Y015255D01*
X006797D01*
X006830Y015258D01*
X006838Y015248D01*
X006831Y015233D01*
X006827Y015202D01*
X006831Y015171D01*
X006843Y015142D01*
X006862Y015117D01*
X006887Y015098D01*
X006891Y015097D01*
Y013076D01*
X006891Y013076D01*
X006867Y013057D01*
X006848Y013033D01*
X006836Y013005D01*
X006832Y012974D01*
X006836Y012944D01*
X006848Y012916D01*
X006867Y012892D01*
X006891Y012873D01*
X006919Y012861D01*
X006949Y012857D01*
X006980Y012861D01*
X007008Y012873D01*
X007032Y012892D01*
X007051Y012916D01*
X007063Y012944D01*
X007067Y012974D01*
X007063Y013005D01*
X007051Y013033D01*
X007032Y013057D01*
X007008Y013076D01*
X007003Y013078D01*
Y015097D01*
X007007Y015098D01*
X007032Y015117D01*
X007051Y015142D01*
X007063Y015171D01*
X007067Y015202D01*
X007063Y015233D01*
X007051Y015262D01*
X007032Y015287D01*
X007007Y015306D01*
X006978Y015318D01*
X006970Y015319D01*
X006966Y015331D01*
X007335Y015700D01*
X008034D01*
X008583Y015151D01*
X008617Y015123D01*
X008656Y015102D01*
X008698Y015089D01*
X008743Y015085D01*
X008787Y015089D01*
X008829Y015102D01*
X008868Y015123D01*
X008902Y015151D01*
X008931Y015186D01*
X008951Y015225D01*
X008964Y015267D01*
X008969Y015311D01*
X008964Y015355D01*
X008951Y015398D01*
X008931Y015437D01*
X008902Y015471D01*
X008288Y016086D01*
X008254Y016114D01*
X008215Y016135D01*
X008172Y016148D01*
X008128Y016152D01*
X007241D01*
X007197Y016148D01*
X007155Y016135D01*
X007116Y016114D01*
X007107Y016107D01*
X007087Y016113D01*
X007050Y016117D01*
X007013Y016113D01*
X006977Y016102D01*
X006944Y016085D01*
X006915Y016061D01*
X006891Y016032D01*
X006874Y015999D01*
X006871Y015990D01*
X006858Y015992D01*
Y016063D01*
X006807D01*
X006789Y016086D01*
X006755Y016114D01*
X006716Y016135D01*
X006674Y016148D01*
X006629Y016152D01*
X005550D01*
X005506Y016148D01*
X005463Y016135D01*
X005424Y016114D01*
X005390Y016086D01*
X005362Y016051D01*
X005341Y016012D01*
X005328Y015970D01*
X005324Y015926D01*
X005328Y015882D01*
X005341Y015839D01*
X005362Y015800D01*
X005390Y015766D01*
X005424Y015738D01*
X005463Y015717D01*
X005506Y015704D01*
X005550Y015700D01*
X006585D01*
X006588Y015687D01*
X006555Y015669D01*
X006520Y015641D01*
X006317Y015438D01*
X006289Y015404D01*
X006268Y015365D01*
X006255Y015322D01*
X006251Y015278D01*
Y014622D01*
X005428Y013800D01*
X005400Y013765D01*
X005379Y013726D01*
X005366Y013684D01*
X005362Y013640D01*
Y013276D01*
X005258Y013172D01*
X005244Y013156D01*
X005232Y013160D01*
Y014862D01*
X005245Y014863D01*
X005246Y014854D01*
X005258Y014826D01*
X005277Y014802D01*
X005301Y014783D01*
X005324Y014773D01*
Y014884D01*
Y014996D01*
X005301Y014986D01*
X005277Y014967D01*
X005258Y014943D01*
X005246Y014915D01*
X005245Y014906D01*
X005232Y014907D01*
Y017484D01*
X005244Y017489D01*
X005245Y017488D01*
D02*
G37*
%LPC*%
G36*
X012786Y014548D02*
Y014421D01*
X012913D01*
X012904Y014449D01*
X012889Y014478D01*
X012868Y014503D01*
X012843Y014524D01*
X012814Y014539D01*
X012786Y014548D01*
D02*
G37*
G36*
X012208Y014541D02*
X012183Y014531D01*
X012158Y014512D01*
X012139Y014487D01*
X012129Y014462D01*
X012208D01*
Y014541D01*
D02*
G37*
G36*
X005471Y014849D02*
X005394D01*
Y014773D01*
X005418Y014783D01*
X005442Y014802D01*
X005461Y014826D01*
X005471Y014849D01*
D02*
G37*
G36*
X012208Y014392D02*
X012129D01*
X012139Y014367D01*
X012158Y014343D01*
X012183Y014323D01*
X012208Y014313D01*
Y014392D01*
D02*
G37*
G36*
X009506Y014136D02*
X009423D01*
Y014052D01*
X009506D01*
Y014136D01*
D02*
G37*
G36*
X009353Y014290D02*
X009269D01*
Y014206D01*
X009353D01*
Y014290D01*
D02*
G37*
G36*
X009506D02*
X009423D01*
Y014206D01*
X009506D01*
Y014290D01*
D02*
G37*
G36*
X008824Y014849D02*
X008748D01*
X008758Y014826D01*
X008777Y014802D01*
X008801Y014783D01*
X008824Y014773D01*
Y014849D01*
D02*
G37*
G36*
X005394Y014996D02*
Y014919D01*
X005471D01*
X005461Y014943D01*
X005442Y014967D01*
X005418Y014986D01*
X005394Y014996D01*
D02*
G37*
G36*
X008824D02*
X008801Y014986D01*
X008777Y014967D01*
X008758Y014943D01*
X008748Y014919D01*
X008824D01*
Y014996D01*
D02*
G37*
G36*
X008894D02*
Y014919D01*
X008971D01*
X008961Y014943D01*
X008942Y014967D01*
X008918Y014986D01*
X008894Y014996D01*
D02*
G37*
G36*
X009449Y014951D02*
X009369D01*
Y014872D01*
X009394Y014882D01*
X009419Y014901D01*
X009438Y014926D01*
X009449Y014951D01*
D02*
G37*
G36*
X008971Y014849D02*
X008894D01*
Y014773D01*
X008918Y014783D01*
X008942Y014802D01*
X008961Y014826D01*
X008971Y014849D01*
D02*
G37*
G36*
X010340Y015428D02*
X010310Y015424D01*
X010282Y015413D01*
X010257Y015394D01*
X010239Y015370D01*
X010227Y015342D01*
X010223Y015311D01*
X010227Y015281D01*
X010239Y015253D01*
X010257Y015228D01*
X010282Y015210D01*
X010284Y015209D01*
Y015085D01*
X010266Y015071D01*
X010247Y015046D01*
X010235Y015017D01*
X010231Y014986D01*
X010235Y014955D01*
X010247Y014926D01*
X010266Y014901D01*
X010291Y014882D01*
X010320Y014870D01*
X010350Y014866D01*
X010381Y014870D01*
X010410Y014882D01*
X010435Y014901D01*
X010454Y014926D01*
X010466Y014955D01*
X010470Y014986D01*
X010466Y015017D01*
X010454Y015046D01*
X010435Y015071D01*
X010410Y015090D01*
X010396Y015096D01*
Y015209D01*
X010399Y015210D01*
X010423Y015228D01*
X010442Y015253D01*
X010454Y015281D01*
X010458Y015311D01*
X010454Y015342D01*
X010442Y015370D01*
X010423Y015394D01*
X010399Y015413D01*
X010371Y015424D01*
X010340Y015428D01*
D02*
G37*
G36*
X009300Y014951D02*
X009220D01*
X009231Y014926D01*
X009250Y014901D01*
X009275Y014882D01*
X009300Y014872D01*
Y014951D01*
D02*
G37*
G36*
X009353Y014136D02*
X009269D01*
Y014052D01*
X009353D01*
Y014136D01*
D02*
G37*
G36*
X009388Y013335D02*
X009364Y013324D01*
X009339Y013305D01*
X009320Y013281D01*
X009309Y013256D01*
X009388D01*
Y013335D01*
D02*
G37*
G36*
X009537Y013186D02*
X009458D01*
Y013107D01*
X009483Y013117D01*
X009508Y013136D01*
X009527Y013161D01*
X009537Y013186D01*
D02*
G37*
G36*
X010656Y013579D02*
X010529D01*
X010537Y013551D01*
X010553Y013522D01*
X010573Y013497D01*
X010598Y013477D01*
X010627Y013461D01*
X010656Y013453D01*
Y013579D01*
D02*
G37*
G36*
X009458Y013335D02*
Y013256D01*
X009537D01*
X009527Y013281D01*
X009508Y013305D01*
X009483Y013324D01*
X009458Y013335D01*
D02*
G37*
G36*
X012814Y013600D02*
X012757Y013595D01*
X012701Y013582D01*
X012648Y013560D01*
X012599Y013530D01*
X012555Y013492D01*
X012518Y013449D01*
X012488Y013400D01*
X012466Y013347D01*
X012453Y013291D01*
X012448Y013233D01*
X012453Y013176D01*
X012466Y013120D01*
X012488Y013067D01*
X012518Y013018D01*
X012555Y012975D01*
X012599Y012937D01*
X012648Y012907D01*
X012701Y012885D01*
X012757Y012872D01*
X012814Y012867D01*
X012872Y012872D01*
X012927Y012885D01*
X012981Y012907D01*
X013030Y012937D01*
X013073Y012975D01*
X013111Y013018D01*
X013141Y013067D01*
X013163Y013120D01*
X013176Y013176D01*
X013180Y013233D01*
X013176Y013291D01*
X013163Y013347D01*
X013141Y013400D01*
X013111Y013449D01*
X013073Y013492D01*
X013030Y013530D01*
X012981Y013560D01*
X012927Y013582D01*
X012872Y013595D01*
X012814Y013600D01*
D02*
G37*
G36*
X006629Y013092D02*
X006599Y013088D01*
X006571Y013076D01*
X006547Y013057D01*
X006528Y013033D01*
X006516Y013005D01*
X006512Y012974D01*
X006516Y012944D01*
X006528Y012916D01*
X006547Y012892D01*
X006571Y012873D01*
X006599Y012861D01*
X006629Y012857D01*
X006660Y012861D01*
X006688Y012873D01*
X006712Y012892D01*
X006731Y012916D01*
X006743Y012944D01*
X006747Y012974D01*
X006743Y013005D01*
X006731Y013033D01*
X006712Y013057D01*
X006688Y013076D01*
X006660Y013088D01*
X006629Y013092D01*
D02*
G37*
G36*
X009388Y013186D02*
X009309D01*
X009320Y013161D01*
X009339Y013136D01*
X009364Y013117D01*
X009388Y013107D01*
Y013186D01*
D02*
G37*
G36*
X011699Y013779D02*
X011369D01*
Y013599D01*
X010851Y013080D01*
X010431D01*
Y013449D01*
X010506D01*
Y013779D01*
X010176D01*
Y013449D01*
X010250D01*
Y013080D01*
X009542D01*
Y013085D01*
X009305D01*
Y013080D01*
X008907D01*
X008890Y013088D01*
X008859Y013092D01*
X008829Y013088D01*
X008811Y013080D01*
X007317D01*
X007300Y013088D01*
X007269Y013092D01*
X007239Y013088D01*
X007211Y013076D01*
X007187Y013057D01*
X007168Y013033D01*
X007156Y013005D01*
X007152Y012974D01*
X007156Y012944D01*
X007168Y012916D01*
X007187Y012892D01*
X007211Y012873D01*
X007239Y012861D01*
X007269Y012857D01*
X007300Y012861D01*
X007317Y012868D01*
X008811D01*
X008829Y012861D01*
X008859Y012857D01*
X008890Y012861D01*
X008907Y012868D01*
X009305D01*
Y012848D01*
X009542D01*
Y012868D01*
X010894D01*
X010894Y012868D01*
X010922Y012872D01*
X010947Y012883D01*
X010969Y012900D01*
X011519Y013449D01*
X011699D01*
Y013779D01*
D02*
G37*
G36*
X011849Y013776D02*
X011821Y013768D01*
X011792Y013752D01*
X011767Y013732D01*
X011747Y013707D01*
X011731Y013678D01*
X011723Y013649D01*
X011849D01*
Y013776D01*
D02*
G37*
G36*
X010726D02*
Y013649D01*
X010852D01*
X010844Y013678D01*
X010828Y013707D01*
X010808Y013732D01*
X010783Y013752D01*
X010754Y013768D01*
X010726Y013776D01*
D02*
G37*
G36*
X009639Y014801D02*
X009608Y014797D01*
X009579Y014785D01*
X009555Y014766D01*
X009536Y014741D01*
X009524Y014712D01*
X009520Y014681D01*
X009524Y014650D01*
X009536Y014621D01*
X009555Y014597D01*
X009579Y014577D01*
X009583Y014576D01*
Y014275D01*
X009582Y014275D01*
X009557Y014256D01*
X009538Y014231D01*
X009526Y014202D01*
X009522Y014171D01*
X009526Y014140D01*
X009538Y014111D01*
X009557Y014086D01*
X009582Y014067D01*
X009611Y014055D01*
X009642Y014051D01*
X009673Y014055D01*
X009702Y014067D01*
X009726Y014086D01*
X009745Y014111D01*
X009757Y014140D01*
X009761Y014171D01*
X009757Y014202D01*
X009745Y014231D01*
X009726Y014256D01*
X009702Y014275D01*
X009695Y014277D01*
Y014576D01*
X009699Y014577D01*
X009724Y014597D01*
X009743Y014621D01*
X009755Y014650D01*
X009759Y014681D01*
X009755Y014712D01*
X009743Y014741D01*
X009724Y014766D01*
X009699Y014785D01*
X009670Y014797D01*
X009639Y014801D01*
D02*
G37*
G36*
X011919Y013776D02*
Y013649D01*
X012046D01*
X012038Y013678D01*
X012022Y013707D01*
X012002Y013732D01*
X011977Y013752D01*
X011948Y013768D01*
X011919Y013776D01*
D02*
G37*
G36*
X011849Y013579D02*
X011723D01*
X011731Y013551D01*
X011747Y013522D01*
X011767Y013497D01*
X011792Y013477D01*
X011821Y013461D01*
X011849Y013453D01*
Y013579D01*
D02*
G37*
G36*
X010852D02*
X010726D01*
Y013453D01*
X010754Y013461D01*
X010783Y013477D01*
X010808Y013497D01*
X010828Y013522D01*
X010844Y013551D01*
X010852Y013579D01*
D02*
G37*
G36*
X010656Y013776D02*
X010627Y013768D01*
X010598Y013752D01*
X010573Y013732D01*
X010553Y013707D01*
X010537Y013678D01*
X010529Y013649D01*
X010656D01*
Y013776D01*
D02*
G37*
G36*
X012046Y013579D02*
X011919D01*
Y013453D01*
X011948Y013461D01*
X011977Y013477D01*
X012002Y013497D01*
X012022Y013522D01*
X012038Y013551D01*
X012046Y013579D01*
D02*
G37*
G36*
X009300Y015100D02*
X009275Y015090D01*
X009250Y015071D01*
X009231Y015046D01*
X009220Y015021D01*
X009300D01*
Y015100D01*
D02*
G37*
G36*
X008093Y016782D02*
X008078Y016775D01*
X008057Y016759D01*
X008041Y016738D01*
X008034Y016723D01*
X008093D01*
Y016782D01*
D02*
G37*
G36*
X006159Y017255D02*
X005829D01*
Y017118D01*
X005806Y017090D01*
X005786Y017051D01*
X005773Y017009D01*
X005768Y016964D01*
X005773Y016920D01*
X005786Y016878D01*
X005806Y016839D01*
X005835Y016805D01*
X005869Y016776D01*
X005908Y016756D01*
X005921Y016751D01*
X005922Y016739D01*
X005902Y016728D01*
X005877Y016707D01*
X005857Y016682D01*
X005841Y016654D01*
X005833Y016625D01*
X006156D01*
X006148Y016654D01*
X006132Y016682D01*
X006112Y016707D01*
X006089Y016726D01*
X006093Y016738D01*
X006713D01*
X006757Y016743D01*
X006800Y016756D01*
X006839Y016776D01*
X006873Y016805D01*
X006901Y016839D01*
X006922Y016878D01*
X006935Y016920D01*
X006939Y016964D01*
X006935Y017009D01*
X006922Y017051D01*
X006901Y017090D01*
X006873Y017124D01*
X006839Y017152D01*
X006800Y017173D01*
X006757Y017186D01*
X006713Y017190D01*
X006159D01*
Y017255D01*
D02*
G37*
G36*
X007366Y017460D02*
X007309Y017456D01*
X007253Y017442D01*
X007200Y017420D01*
X007151Y017390D01*
X007107Y017353D01*
X007070Y017309D01*
X007040Y017260D01*
X007018Y017207D01*
X007004Y017151D01*
X007000Y017094D01*
X007004Y017037D01*
X007018Y016981D01*
X007040Y016928D01*
X007070Y016879D01*
X007107Y016835D01*
X007151Y016798D01*
X007200Y016768D01*
X007253Y016746D01*
X007309Y016733D01*
X007366Y016728D01*
X007423Y016733D01*
X007479Y016746D01*
X007532Y016768D01*
X007581Y016798D01*
X007625Y016835D01*
X007662Y016879D01*
X007692Y016928D01*
X007714Y016981D01*
X007728Y017037D01*
X007732Y017094D01*
X007728Y017151D01*
X007714Y017207D01*
X007692Y017260D01*
X007662Y017309D01*
X007625Y017353D01*
X007581Y017390D01*
X007532Y017420D01*
X007479Y017442D01*
X007423Y017456D01*
X007366Y017460D01*
D02*
G37*
G36*
X008163Y016782D02*
Y016723D01*
X008222D01*
X008215Y016738D01*
X008199Y016759D01*
X008178Y016775D01*
X008163Y016782D01*
D02*
G37*
G36*
X006156Y016555D02*
X006029D01*
Y016428D01*
X006058Y016437D01*
X006087Y016452D01*
X006112Y016473D01*
X006132Y016498D01*
X006148Y016527D01*
X006156Y016555D01*
D02*
G37*
G36*
X005959D02*
X005833D01*
X005841Y016527D01*
X005857Y016498D01*
X005877Y016473D01*
X005902Y016452D01*
X005931Y016437D01*
X005959Y016428D01*
Y016555D01*
D02*
G37*
G36*
X008222Y016653D02*
X008163D01*
Y016594D01*
X008178Y016600D01*
X008199Y016616D01*
X008215Y016637D01*
X008222Y016653D01*
D02*
G37*
G36*
X008093D02*
X008034D01*
X008041Y016637D01*
X008057Y016616D01*
X008078Y016600D01*
X008093Y016594D01*
Y016653D01*
D02*
G37*
G36*
X008785Y017332D02*
Y017256D01*
X008862D01*
X008852Y017280D01*
X008833Y017304D01*
X008809Y017323D01*
X008785Y017332D01*
D02*
G37*
G36*
X008715D02*
X008692Y017323D01*
X008667Y017304D01*
X008649Y017280D01*
X008639Y017256D01*
X008715D01*
Y017332D01*
D02*
G37*
G36*
X012285D02*
Y017256D01*
X012362D01*
X012352Y017280D01*
X012333Y017304D01*
X012309Y017323D01*
X012285Y017332D01*
D02*
G37*
G36*
X012215D02*
X012192Y017323D01*
X012167Y017304D01*
X012149Y017280D01*
X012139Y017256D01*
X012215D01*
Y017332D01*
D02*
G37*
G36*
X008862Y017186D02*
X008785D01*
Y017110D01*
X008809Y017120D01*
X008833Y017138D01*
X008852Y017163D01*
X008862Y017186D01*
D02*
G37*
G36*
X008715D02*
X008639D01*
X008649Y017163D01*
X008667Y017138D01*
X008692Y017120D01*
X008715Y017110D01*
Y017186D01*
D02*
G37*
G36*
X012362D02*
X012285D01*
Y017110D01*
X012309Y017120D01*
X012333Y017138D01*
X012352Y017163D01*
X012362Y017186D01*
D02*
G37*
G36*
X012215D02*
X012139D01*
X012149Y017163D01*
X012167Y017138D01*
X012192Y017120D01*
X012215Y017110D01*
Y017186D01*
D02*
G37*
G36*
X005745Y015256D02*
X005687D01*
Y015197D01*
X005702Y015203D01*
X005723Y015219D01*
X005739Y015240D01*
X005745Y015256D01*
D02*
G37*
G36*
X005617D02*
X005558D01*
X005564Y015240D01*
X005580Y015219D01*
X005601Y015203D01*
X005617Y015197D01*
Y015256D01*
D02*
G37*
G36*
X007998Y015316D02*
Y015237D01*
X008077D01*
X008067Y015262D01*
X008048Y015287D01*
X008023Y015306D01*
X007998Y015316D01*
D02*
G37*
G36*
X007928D02*
X007903Y015306D01*
X007878Y015287D01*
X007859Y015262D01*
X007849Y015237D01*
X007928D01*
Y015316D01*
D02*
G37*
G36*
Y015167D02*
X007849D01*
X007859Y015142D01*
X007878Y015117D01*
X007903Y015098D01*
X007928Y015088D01*
Y015167D01*
D02*
G37*
G36*
X009369Y015100D02*
Y015021D01*
X009449D01*
X009438Y015046D01*
X009419Y015071D01*
X009394Y015090D01*
X009369Y015100D01*
D02*
G37*
G36*
X010020Y015428D02*
X009990Y015424D01*
X009962Y015413D01*
X009937Y015394D01*
X009919Y015370D01*
X009907Y015342D01*
X009903Y015311D01*
X009907Y015281D01*
X009919Y015253D01*
X009937Y015228D01*
X009962Y015210D01*
X009990Y015198D01*
X010020Y015194D01*
X010051Y015198D01*
X010079Y015210D01*
X010103Y015228D01*
X010122Y015253D01*
X010134Y015281D01*
X010138Y015311D01*
X010134Y015342D01*
X010122Y015370D01*
X010103Y015394D01*
X010079Y015413D01*
X010051Y015424D01*
X010020Y015428D01*
D02*
G37*
G36*
X008077Y015167D02*
X007998D01*
Y015088D01*
X008023Y015098D01*
X008048Y015117D01*
X008067Y015142D01*
X008077Y015167D01*
D02*
G37*
G36*
X012913Y016351D02*
X012786D01*
Y016224D01*
X012814Y016233D01*
X012843Y016248D01*
X012868Y016269D01*
X012889Y016294D01*
X012904Y016323D01*
X012913Y016351D01*
D02*
G37*
G36*
X012716D02*
X012589D01*
X012598Y016323D01*
X012613Y016294D01*
X012634Y016269D01*
X012659Y016248D01*
X012687Y016233D01*
X012716Y016224D01*
Y016351D01*
D02*
G37*
G36*
X012786Y016548D02*
Y016421D01*
X012913D01*
X012904Y016449D01*
X012889Y016478D01*
X012868Y016503D01*
X012843Y016524D01*
X012814Y016539D01*
X012786Y016548D01*
D02*
G37*
G36*
X012716D02*
X012687Y016539D01*
X012659Y016524D01*
X012634Y016503D01*
X012613Y016478D01*
X012598Y016449D01*
X012589Y016421D01*
X012716D01*
Y016548D01*
D02*
G37*
G36*
X005687Y015385D02*
Y015326D01*
X005745D01*
X005739Y015341D01*
X005723Y015362D01*
X005702Y015378D01*
X005687Y015385D01*
D02*
G37*
G36*
X005617D02*
X005601Y015378D01*
X005580Y015362D01*
X005564Y015341D01*
X005558Y015326D01*
X005617D01*
Y015385D01*
D02*
G37*
G36*
X012716Y015548D02*
X012687Y015539D01*
X012659Y015524D01*
X012634Y015503D01*
X012613Y015478D01*
X012598Y015449D01*
X012589Y015421D01*
X012716D01*
Y015548D01*
D02*
G37*
G36*
X012916Y016201D02*
X012586D01*
Y015871D01*
X012766D01*
X012950Y015687D01*
Y015385D01*
X012926Y015361D01*
X012915Y015366D01*
X012917Y015386D01*
X012913Y015418D01*
X012904Y015449D01*
X012889Y015478D01*
X012868Y015503D01*
X012843Y015524D01*
X012814Y015539D01*
X012786Y015548D01*
Y015386D01*
X012751D01*
Y015351D01*
X012589D01*
X012598Y015322D01*
X012613Y015294D01*
X012634Y015269D01*
X012659Y015248D01*
X012687Y015233D01*
X012718Y015223D01*
X012751Y015220D01*
X012770Y015222D01*
X012776Y015211D01*
X012766Y015201D01*
X012586D01*
Y015021D01*
X012364Y014799D01*
X012362Y014800D01*
Y014800D01*
X012362Y014800D01*
X012124D01*
Y014787D01*
X010766D01*
Y015205D01*
X012202D01*
X012220Y015198D01*
X012250Y015194D01*
X012281Y015198D01*
X012309Y015210D01*
X012333Y015228D01*
X012352Y015253D01*
X012364Y015281D01*
X012368Y015311D01*
X012364Y015342D01*
X012352Y015370D01*
X012333Y015394D01*
X012309Y015413D01*
X012281Y015424D01*
X012250Y015428D01*
X012220Y015424D01*
X012202Y015417D01*
X010708D01*
X010691Y015424D01*
X010660Y015428D01*
X010630Y015424D01*
X010602Y015413D01*
X010577Y015394D01*
X010559Y015370D01*
X010547Y015342D01*
X010543Y015311D01*
X010547Y015281D01*
X010554Y015263D01*
Y014745D01*
X010552Y014741D01*
X010540Y014712D01*
X010536Y014681D01*
X010540Y014650D01*
X010552Y014621D01*
X010571Y014597D01*
X010595Y014577D01*
X010624Y014566D01*
X010655Y014561D01*
X010686Y014566D01*
X010710Y014575D01*
X012124D01*
Y014562D01*
X012327D01*
Y014526D01*
X012316Y014521D01*
X012303Y014531D01*
X012278Y014541D01*
Y014427D01*
Y014313D01*
X012303Y014323D01*
X012319Y014336D01*
X012330Y014331D01*
X012331Y014326D01*
X012342Y014300D01*
X012358Y014278D01*
X012586Y014051D01*
Y013871D01*
X012916D01*
Y014201D01*
X012736D01*
X012726Y014210D01*
X012731Y014222D01*
X012751Y014220D01*
X012783Y014223D01*
X012814Y014233D01*
X012843Y014248D01*
X012868Y014269D01*
X012889Y014294D01*
X012904Y014322D01*
X012913Y014351D01*
X012751D01*
Y014386D01*
X012716D01*
Y014548D01*
X012687Y014539D01*
X012659Y014524D01*
X012634Y014503D01*
X012613Y014478D01*
X012598Y014449D01*
X012588Y014418D01*
X012585Y014386D01*
X012587Y014366D01*
X012575Y014361D01*
X012539Y014397D01*
Y014675D01*
X012736Y014871D01*
X012916D01*
Y015051D01*
X013130Y015266D01*
X013130Y015266D01*
X013147Y015288D01*
X013158Y015313D01*
X013162Y015341D01*
Y015731D01*
X013158Y015759D01*
X013147Y015784D01*
X013130Y015806D01*
X013130Y015806D01*
X012916Y016021D01*
Y016201D01*
D02*
G37*
%LPD*%
D10*
X005588Y013183D02*
Y013640D01*
X005418Y013012D02*
X005588Y013183D01*
Y013640D02*
X006477Y014529D01*
X005994Y016964D02*
X006713D01*
X005550Y015926D02*
X006050D01*
X006629D01*
X007550D02*
X008128D01*
X008743Y015311D01*
X006477Y014529D02*
Y015278D01*
X006680Y015481D01*
X006797D01*
X007241Y015926D01*
X007550D01*
D11*
X005397Y013012D02*
X005418D01*
X005359Y012974D02*
X005397Y013012D01*
X010340Y014996D02*
Y015311D01*
X006947Y012977D02*
Y015202D01*
X012243Y014681D02*
X012250Y014689D01*
X010660Y014686D02*
X010665Y014681D01*
X009639Y014173D02*
Y014681D01*
D12*
X012751Y016036D02*
X013056Y015731D01*
Y015341D02*
Y015731D01*
X012751Y015036D02*
X013056Y015341D01*
X012433Y014353D02*
Y014718D01*
Y014353D02*
X012751Y014036D01*
X012433Y014718D02*
X012751Y015036D01*
X010894Y012974D02*
X011534Y013614D01*
X007269Y012974D02*
X008859D01*
X010894D01*
X010660Y014686D02*
Y015311D01*
X010665Y014681D02*
X012243D01*
X010660Y015311D02*
X012250D01*
X012243Y014681D02*
X012396D01*
D13*
X010341Y012984D02*
Y013614D01*
D14*
X005994Y016590D02*
D03*
X012751Y015386D02*
D03*
Y014386D02*
D03*
X010691Y013614D02*
D03*
X011884D02*
D03*
X012751Y016386D02*
D03*
D15*
X005994Y017090D02*
D03*
X012751Y015036D02*
D03*
Y014036D02*
D03*
Y016036D02*
D03*
D16*
X007050Y015926D02*
D03*
X007550D02*
D03*
X005550D02*
D03*
X006050D02*
D03*
D17*
X009423Y013221D02*
D03*
X009642Y014171D02*
D03*
X009639Y014681D02*
D03*
X010655D02*
D03*
X012243Y014427D02*
D03*
X010350Y014986D02*
D03*
X009335D02*
D03*
X006947Y015202D02*
D03*
X007963D02*
D03*
D18*
X009423Y012967D02*
D03*
X012243Y014681D02*
D03*
D19*
X012814Y013233D02*
D03*
X007366Y017094D02*
D03*
X012827Y017082D02*
D03*
D20*
X006414Y015291D02*
D03*
X005651D02*
D03*
X008128Y015926D02*
D03*
Y016688D02*
D03*
D21*
X010341Y013614D02*
D03*
X011534D02*
D03*
D22*
X009388Y014171D02*
D03*
D23*
X008750Y017221D02*
D03*
X010020Y015311D02*
D03*
X008750D02*
D03*
X010340D02*
D03*
X010660D02*
D03*
X012250D02*
D03*
Y017221D02*
D03*
X005359Y014884D02*
D03*
X006629Y012974D02*
D03*
X005359D02*
D03*
X006949D02*
D03*
X007269D02*
D03*
X008859D02*
D03*
Y014884D02*
D03*
D24*
X006363Y016970D02*
D03*
X006718D02*
D03*
D25*
X006363Y015924D02*
D03*
X006718D02*
D03*
M02*
