%FSAX42Y42*%
%MOMM*%
G71*
G01*
G75*
G04 Layer_Color=8388736*
%ADD10C,3.70*%
%ADD11C,0.30*%
%ADD12C,1.30*%
%ADD13C,1.00*%
%ADD14C,2.50*%
%ADD15R,2.50X2.50*%
%ADD16C,3.00*%
%ADD17C,1.57*%
%ADD18R,1.57X1.57*%
%ADD19C,6.50*%
%ADD20C,1.20*%
%ADD21R,2.50X2.50*%
%ADD22R,1.57X1.57*%
%ADD23C,1.52*%
%ADD24C,2.00*%
%ADD25R,2.00X2.00*%
%ADD26C,0.15*%
%ADD27C,0.25*%
%ADD28C,0.20*%
%ADD29C,0.30*%
%ADD30R,2.80X0.80*%
%ADD31C,2.70*%
%ADD32R,2.70X2.70*%
%ADD33C,3.20*%
%ADD34C,1.78*%
%ADD35R,1.78X1.78*%
%ADD36C,6.70*%
%ADD37C,1.40*%
%ADD38R,2.70X2.70*%
%ADD39R,1.78X1.78*%
%ADD40C,1.73*%
%ADD41C,2.20*%
%ADD42R,2.20X2.20*%
D31*
X005994Y016590D02*
D03*
X012751Y015386D02*
D03*
Y014386D02*
D03*
X010691Y013614D02*
D03*
X011884D02*
D03*
X012751Y016386D02*
D03*
D32*
X005994Y017090D02*
D03*
X012751Y015036D02*
D03*
Y014036D02*
D03*
Y016036D02*
D03*
D33*
X007050Y015926D02*
D03*
X007550D02*
D03*
X005550D02*
D03*
X006050D02*
D03*
D34*
X009423Y013221D02*
D03*
X009642Y014171D02*
D03*
X009639Y014681D02*
D03*
X010655D02*
D03*
X012243Y014427D02*
D03*
X010350Y014986D02*
D03*
X009335D02*
D03*
X006947Y015202D02*
D03*
X007963D02*
D03*
D35*
X009423Y012967D02*
D03*
X012243Y014681D02*
D03*
D36*
X012814Y013233D02*
D03*
X007366Y017094D02*
D03*
X012827Y017082D02*
D03*
D37*
X006414Y015291D02*
D03*
X005651D02*
D03*
X008128Y015926D02*
D03*
Y016688D02*
D03*
D38*
X010341Y013614D02*
D03*
X011534D02*
D03*
D39*
X009388Y014171D02*
D03*
D40*
X008750Y017221D02*
D03*
X010020Y015311D02*
D03*
X008750D02*
D03*
X010340D02*
D03*
X010660D02*
D03*
X012250D02*
D03*
Y017221D02*
D03*
X005359Y014884D02*
D03*
X006629Y012974D02*
D03*
X005359D02*
D03*
X006949D02*
D03*
X007269D02*
D03*
X008859D02*
D03*
Y014884D02*
D03*
D41*
X006363Y016970D02*
D03*
X006718D02*
D03*
D42*
X006363Y015924D02*
D03*
X006718D02*
D03*
M02*
