%FSAX42Y42*%
%MOMM*%
G71*
G01*
G75*
G04 Layer_Color=65535*
%ADD10C,3.70*%
%ADD11C,0.30*%
%ADD12C,1.30*%
%ADD13C,1.00*%
%ADD14C,2.50*%
%ADD15R,2.50X2.50*%
%ADD16C,3.00*%
%ADD17C,1.57*%
%ADD18R,1.57X1.57*%
%ADD19C,6.50*%
%ADD20C,1.20*%
%ADD21R,2.50X2.50*%
%ADD22R,1.57X1.57*%
%ADD23C,1.52*%
%ADD24C,2.00*%
%ADD25R,2.00X2.00*%
%ADD26C,0.15*%
%ADD27C,0.25*%
%ADD28C,0.20*%
%ADD29C,0.30*%
%ADD30R,2.80X0.80*%
D26*
X009723Y013094D02*
G03*
X009723Y013094I-000300J000000D01*
G01*
X012543Y014554D02*
G03*
X012543Y014554I-000300J000000D01*
G01*
X009601Y012916D02*
Y013018D01*
X009550Y012967D02*
X009652D01*
X012065Y014630D02*
Y014732D01*
X012014Y014681D02*
X012116D01*
D27*
X012530Y014731D02*
G03*
X012530Y014731I-000010J000000D01*
G01*
Y013731D02*
G03*
X012530Y013731I-000010J000000D01*
G01*
X010045Y013845D02*
G03*
X010045Y013845I-000010J000000D01*
G01*
X011239D02*
G03*
X011239Y013845I-000010J000000D01*
G01*
X009832Y014171D02*
G03*
X009832Y014171I-000317J000000D01*
G01*
X012530Y015731D02*
G03*
X012530Y015731I-000010J000000D01*
G01*
X006147Y016283D02*
Y017390D01*
X004794Y017397D02*
X006147D01*
X004794Y016283D02*
Y017397D01*
Y016283D02*
X006147D01*
X005600Y016101D02*
Y016201D01*
X007550Y015651D02*
Y015751D01*
X006125Y016151D02*
X006975D01*
X006125Y015701D02*
X006975D01*
X007625Y015651D02*
Y015751D01*
X006975Y015651D02*
Y015751D01*
X007625Y016101D02*
Y016201D01*
X006975D02*
X007625D01*
X006975Y016101D02*
Y016201D01*
Y015651D02*
X007625D01*
X005475Y016201D02*
X006125D01*
X005475Y016101D02*
Y016201D01*
X006125Y015651D02*
Y015751D01*
X005475Y015651D02*
X006125D01*
X005475D02*
Y015751D01*
X006125Y016101D02*
Y016201D01*
X012598Y015185D02*
Y015312D01*
Y014754D02*
X013538D01*
Y015668D01*
X012598D02*
X013538D01*
X012598Y015617D02*
Y015668D01*
Y014185D02*
Y014312D01*
Y013754D02*
X013538D01*
Y014668D01*
X012598D02*
X013538D01*
X012598Y014617D02*
Y014668D01*
X010490Y013767D02*
X010617D01*
X010058Y012827D02*
Y013767D01*
Y012827D02*
X010973D01*
Y013767D01*
X010922D02*
X010973D01*
X011684D02*
X011811D01*
X011252Y012827D02*
Y013767D01*
Y012827D02*
X012167D01*
Y013767D01*
X012116D02*
X012167D01*
X009261Y013980D02*
Y014361D01*
X012598Y016186D02*
Y016313D01*
Y015754D02*
X013538D01*
Y016668D01*
X012598D02*
X013538D01*
X012598Y016617D02*
Y016668D01*
X008600Y015161D02*
Y017231D01*
Y015161D02*
X012410D01*
Y017341D01*
X012400Y017351D02*
X012410Y017341D01*
X008600Y017351D02*
X012400D01*
X008600Y017231D02*
Y017351D01*
X005209Y012824D02*
Y014894D01*
Y012824D02*
X009019D01*
Y015004D01*
X009009Y015014D02*
X009019Y015004D01*
X005209Y015014D02*
X009009D01*
X005209Y014894D02*
Y015014D01*
X007341Y015392D02*
Y015545D01*
X007417D01*
X007442Y015519D01*
Y015469D01*
X007417Y015443D01*
X007341D01*
X007391D02*
X007442Y015392D01*
X007493D02*
X007569D01*
X007595Y015418D01*
X007569Y015443D01*
X007518D01*
X007493Y015469D01*
X007518Y015494D01*
X007595D01*
X007721Y015392D02*
X007671D01*
X007645Y015418D01*
Y015469D01*
X007671Y015494D01*
X007721D01*
X007747Y015469D01*
Y015443D01*
X007645D01*
X007823Y015519D02*
Y015494D01*
X007798D01*
X007848D01*
X007823D01*
Y015418D01*
X007848Y015392D01*
X008026D02*
X007925D01*
X008026Y015494D01*
Y015519D01*
X008001Y015545D01*
X007950D01*
X007925Y015519D01*
X009144Y015253D02*
Y015405D01*
X009220D01*
X009246Y015380D01*
Y015329D01*
X009220Y015303D01*
X009144D01*
X009195D02*
X009246Y015253D01*
X009296D02*
X009373D01*
X009398Y015278D01*
X009373Y015303D01*
X009322D01*
X009296Y015329D01*
X009322Y015354D01*
X009398D01*
X009525Y015253D02*
X009474D01*
X009449Y015278D01*
Y015329D01*
X009474Y015354D01*
X009525D01*
X009550Y015329D01*
Y015303D01*
X009449D01*
X009626Y015380D02*
Y015354D01*
X009601D01*
X009652D01*
X009626D01*
Y015278D01*
X009652Y015253D01*
X009728D02*
X009779D01*
X009753D01*
Y015405D01*
X009728Y015380D01*
X006325Y012598D02*
Y012751D01*
X006401D01*
X006426Y012725D01*
Y012675D01*
X006401Y012649D01*
X006325D01*
X006375D02*
X006426Y012598D01*
X006553D02*
X006502D01*
X006477Y012624D01*
Y012675D01*
X006502Y012700D01*
X006553D01*
X006579Y012675D01*
Y012649D01*
X006477D01*
X006680Y012548D02*
X006705D01*
X006731Y012573D01*
Y012700D01*
X006655D01*
X006629Y012675D01*
Y012624D01*
X006655Y012598D01*
X006731D01*
X006782Y012700D02*
Y012624D01*
X006807Y012598D01*
X006883D01*
Y012700D01*
X006934Y012598D02*
X006985D01*
X006959D01*
Y012751D01*
X006934D01*
X007086Y012700D02*
X007137D01*
X007163Y012675D01*
Y012598D01*
X007086D01*
X007061Y012624D01*
X007086Y012649D01*
X007163D01*
X007239Y012725D02*
Y012700D01*
X007213D01*
X007264D01*
X007239D01*
Y012624D01*
X007264Y012598D01*
X007366D02*
X007416D01*
X007442Y012624D01*
Y012675D01*
X007416Y012700D01*
X007366D01*
X007340Y012675D01*
Y012624D01*
X007366Y012598D01*
X007493Y012700D02*
Y012598D01*
Y012649D01*
X007518Y012675D01*
X007543Y012700D01*
X007569D01*
X007797Y012598D02*
X007848D01*
X007823D01*
Y012751D01*
X007797Y012725D01*
X007924D02*
X007950Y012751D01*
X008000D01*
X008026Y012725D01*
Y012624D01*
X008000Y012598D01*
X007950D01*
X007924Y012624D01*
Y012725D01*
X008077Y012751D02*
Y012649D01*
X008127Y012598D01*
X008178Y012649D01*
Y012751D01*
X008229Y012725D02*
X008254Y012751D01*
X008305D01*
X008331Y012725D01*
Y012624D01*
X008305Y012598D01*
X008254D01*
X008229Y012624D01*
Y012725D01*
X009563Y015557D02*
Y015710D01*
X009639D01*
X009665Y015684D01*
Y015634D01*
X009639Y015608D01*
X009563D01*
X009614D02*
X009665Y015557D01*
X009792D02*
X009741D01*
X009715Y015583D01*
Y015634D01*
X009741Y015659D01*
X009792D01*
X009817Y015634D01*
Y015608D01*
X009715D01*
X009919Y015507D02*
X009944D01*
X009969Y015532D01*
Y015659D01*
X009893D01*
X009868Y015634D01*
Y015583D01*
X009893Y015557D01*
X009969D01*
X010020Y015659D02*
Y015583D01*
X010046Y015557D01*
X010122D01*
Y015659D01*
X010173Y015557D02*
X010223D01*
X010198D01*
Y015710D01*
X010173D01*
X010325Y015659D02*
X010376D01*
X010401Y015634D01*
Y015557D01*
X010325D01*
X010299Y015583D01*
X010325Y015608D01*
X010401D01*
X010477Y015684D02*
Y015659D01*
X010452D01*
X010503D01*
X010477D01*
Y015583D01*
X010503Y015557D01*
X010604D02*
X010655D01*
X010680Y015583D01*
Y015634D01*
X010655Y015659D01*
X010604D01*
X010579Y015634D01*
Y015583D01*
X010604Y015557D01*
X010731Y015659D02*
Y015557D01*
Y015608D01*
X010757Y015634D01*
X010782Y015659D01*
X010807D01*
X011137Y015710D02*
X011036D01*
Y015634D01*
X011087Y015659D01*
X011112D01*
X011137Y015634D01*
Y015583D01*
X011112Y015557D01*
X011061D01*
X011036Y015583D01*
X011188Y015710D02*
Y015608D01*
X011239Y015557D01*
X011290Y015608D01*
Y015710D01*
X011341Y015684D02*
X011366Y015710D01*
X011417D01*
X011442Y015684D01*
Y015583D01*
X011417Y015557D01*
X011366D01*
X011341Y015583D01*
Y015684D01*
X010465Y014336D02*
Y014488D01*
X010541D01*
X010566Y014463D01*
Y014412D01*
X010541Y014387D01*
X010465D01*
X010516D02*
X010566Y014336D01*
X010719D02*
X010617D01*
X010719Y014437D01*
Y014463D01*
X010693Y014488D01*
X010643D01*
X010617Y014463D01*
X010157Y012586D02*
Y012738D01*
X010234D01*
X010259Y012713D01*
Y012662D01*
X010234Y012636D01*
X010157D01*
X010386Y012586D02*
Y012738D01*
X010310Y012662D01*
X010411D01*
X010462Y012586D02*
X010513D01*
X010488D01*
Y012738D01*
X010462Y012713D01*
X010589D02*
X010615Y012738D01*
X010665D01*
X010691Y012713D01*
Y012611D01*
X010665Y012586D01*
X010615D01*
X010589Y012611D01*
Y012713D01*
X010741Y012738D02*
Y012636D01*
X010792Y012586D01*
X010843Y012636D01*
Y012738D01*
X011351Y012586D02*
Y012738D01*
X011427D01*
X011453Y012713D01*
Y012662D01*
X011427Y012636D01*
X011351D01*
X011504Y012713D02*
X011529Y012738D01*
X011580D01*
X011605Y012713D01*
Y012687D01*
X011580Y012662D01*
X011554D01*
X011580D01*
X011605Y012636D01*
Y012611D01*
X011580Y012586D01*
X011529D01*
X011504Y012611D01*
X011656Y012586D02*
X011707D01*
X011681D01*
Y012738D01*
X011656Y012713D01*
X011783D02*
X011808Y012738D01*
X011859D01*
X011884Y012713D01*
Y012611D01*
X011859Y012586D01*
X011808D01*
X011783Y012611D01*
Y012713D01*
X011935Y012738D02*
Y012636D01*
X011986Y012586D01*
X012037Y012636D01*
Y012738D01*
X006921Y016688D02*
Y016535D01*
X006998D01*
X007023Y016561D01*
Y016662D01*
X006998Y016688D01*
X006921D01*
X007074Y016637D02*
Y016535D01*
Y016586D01*
X007099Y016612D01*
X007125Y016637D01*
X007150D01*
X007302Y016535D02*
X007252D01*
X007226Y016561D01*
Y016612D01*
X007252Y016637D01*
X007302D01*
X007328Y016612D01*
Y016586D01*
X007226D01*
X007480Y016688D02*
Y016535D01*
X007404D01*
X007379Y016561D01*
Y016612D01*
X007404Y016637D01*
X007480D01*
X007632Y016535D02*
X007531D01*
X007632Y016637D01*
Y016662D01*
X007607Y016688D01*
X007556D01*
X007531Y016662D01*
X006934Y016459D02*
Y016307D01*
X007010D01*
X007036Y016332D01*
Y016434D01*
X007010Y016459D01*
X006934D01*
X007087Y016408D02*
Y016307D01*
Y016358D01*
X007112Y016383D01*
X007137Y016408D01*
X007163D01*
X007315Y016307D02*
X007264D01*
X007239Y016332D01*
Y016383D01*
X007264Y016408D01*
X007315D01*
X007340Y016383D01*
Y016358D01*
X007239D01*
X007493Y016459D02*
Y016307D01*
X007417D01*
X007391Y016332D01*
Y016383D01*
X007417Y016408D01*
X007493D01*
X007544Y016307D02*
X007594D01*
X007569D01*
Y016459D01*
X007544Y016434D01*
X009921Y014247D02*
Y014094D01*
X009997D01*
X010023Y014120D01*
Y014221D01*
X009997Y014247D01*
X009921D01*
X010074Y014094D02*
X010124D01*
X010099D01*
Y014247D01*
X010074Y014221D01*
X009243Y013655D02*
X009218Y013680D01*
X009167D01*
X009141Y013655D01*
Y013553D01*
X009167Y013528D01*
X009218D01*
X009243Y013553D01*
X009294Y013630D02*
Y013528D01*
Y013579D01*
X009319Y013604D01*
X009345Y013630D01*
X009370D01*
X009522Y013528D02*
X009472D01*
X009446Y013553D01*
Y013604D01*
X009472Y013630D01*
X009522D01*
X009548Y013604D01*
Y013579D01*
X009446D01*
X009649Y013477D02*
X009675D01*
X009700Y013503D01*
Y013630D01*
X009624D01*
X009599Y013604D01*
Y013553D01*
X009624Y013528D01*
X009700D01*
X009852D02*
X009751D01*
X009852Y013630D01*
Y013655D01*
X009827Y013680D01*
X009776D01*
X009751Y013655D01*
X010005Y013528D02*
X009903D01*
X010005Y013630D01*
Y013655D01*
X009979Y013680D01*
X009929D01*
X009903Y013655D01*
X011138Y014465D02*
X011112Y014491D01*
X011062D01*
X011036Y014465D01*
Y014364D01*
X011062Y014338D01*
X011112D01*
X011138Y014364D01*
X011189Y014440D02*
Y014338D01*
Y014389D01*
X011214Y014414D01*
X011239Y014440D01*
X011265D01*
X011417Y014338D02*
X011366D01*
X011341Y014364D01*
Y014414D01*
X011366Y014440D01*
X011417D01*
X011443Y014414D01*
Y014389D01*
X011341D01*
X011544Y014288D02*
X011570D01*
X011595Y014313D01*
Y014440D01*
X011519D01*
X011493Y014414D01*
Y014364D01*
X011519Y014338D01*
X011595D01*
X011747D02*
X011646D01*
X011747Y014440D01*
Y014465D01*
X011722Y014491D01*
X011671D01*
X011646Y014465D01*
X011798Y014338D02*
X011849D01*
X011823D01*
Y014491D01*
X011798Y014465D01*
X007937Y017145D02*
X007912Y017170D01*
X007861D01*
X007836Y017145D01*
Y017043D01*
X007861Y017018D01*
X007912D01*
X007937Y017043D01*
X007988Y017120D02*
Y017018D01*
Y017069D01*
X008014Y017094D01*
X008039Y017120D01*
X008064D01*
X008217Y017018D02*
X008166D01*
X008141Y017043D01*
Y017094D01*
X008166Y017120D01*
X008217D01*
X008242Y017094D01*
Y017069D01*
X008141D01*
X008344Y016967D02*
X008369D01*
X008395Y016993D01*
Y017120D01*
X008318D01*
X008293Y017094D01*
Y017043D01*
X008318Y017018D01*
X008395D01*
X008445D02*
X008496D01*
X008471D01*
Y017170D01*
X008445Y017145D01*
X005258Y017513D02*
Y017361D01*
X005334D01*
X005359Y017386D01*
Y017412D01*
X005334Y017437D01*
X005258D01*
X005334D01*
X005359Y017462D01*
Y017488D01*
X005334Y017513D01*
X005258D01*
X005436Y017462D02*
X005486D01*
X005512Y017437D01*
Y017361D01*
X005436D01*
X005410Y017386D01*
X005436Y017412D01*
X005512D01*
X005588Y017488D02*
Y017462D01*
X005563D01*
X005613D01*
X005588D01*
Y017386D01*
X005613Y017361D01*
X005715Y017488D02*
Y017462D01*
X005689D01*
X005740D01*
X005715D01*
Y017386D01*
X005740Y017361D01*
X005893D02*
X005842D01*
X005816Y017386D01*
Y017437D01*
X005842Y017462D01*
X005893D01*
X005918Y017437D01*
Y017412D01*
X005816D01*
X005969Y017462D02*
Y017361D01*
Y017412D01*
X005994Y017437D01*
X006020Y017462D01*
X006045D01*
X006121Y017361D02*
X006172D01*
X006147D01*
Y017462D01*
X006121D01*
X006324Y017361D02*
X006273D01*
X006248Y017386D01*
Y017437D01*
X006273Y017462D01*
X006324D01*
X006350Y017437D01*
Y017412D01*
X006248D01*
D28*
X006604Y015100D02*
Y015481D01*
X005461Y015100D02*
X006604D01*
X005461D02*
Y015481D01*
X006604D01*
X007938Y015735D02*
X008318D01*
X007938D02*
Y016878D01*
X008318D01*
Y015735D02*
Y016878D01*
X006223Y016712D02*
X006503D01*
Y016182D02*
Y016712D01*
X006223Y016182D02*
Y016712D01*
X006578D02*
X006858D01*
Y016182D02*
Y016712D01*
X006578Y016182D02*
Y016712D01*
D29*
X009766Y014681D02*
X009843D01*
X010452D02*
X010528D01*
X009843Y014783D02*
X010452D01*
X009843Y014580D02*
Y014783D01*
Y014580D02*
X010452D01*
Y014783D01*
X010147Y014986D02*
X010224D01*
X009461D02*
X009538D01*
Y014884D02*
X010147D01*
Y015088D01*
X009538D02*
X010147D01*
X009538Y014884D02*
Y015088D01*
X007074Y015202D02*
X007150D01*
X007760D02*
X007836D01*
X007150Y015304D02*
X007760D01*
X007150Y015100D02*
Y015304D01*
Y015100D02*
X007760D01*
Y015304D01*
D30*
X006362Y016212D02*
D03*
X006718Y016212D02*
D03*
M02*
