%FSLAX44Y44*%
%MOMM*%
G71*
G01*
G75*
G04 Layer_Color=65535*
%ADD10C,3.7000*%
%ADD11C,0.3000*%
%ADD12C,1.3000*%
%ADD13C,1.0000*%
%ADD14R,2.0000X2.0000*%
%ADD15C,2.0000*%
%ADD16C,1.5748*%
%ADD17C,1.5240*%
%ADD18C,1.2000*%
%ADD19R,1.5748X1.5748*%
%ADD20R,2.5000X2.5000*%
%ADD21C,2.5000*%
%ADD22R,1.5748X1.5748*%
%ADD23R,2.5000X2.5000*%
%ADD24C,6.5000*%
%ADD25C,3.0000*%
%ADD26C,0.1500*%
%ADD27C,0.2540*%
%ADD28C,0.2000*%
%ADD29C,0.3048*%
%ADD30R,2.8000X0.8000*%
D26*
X1254280Y1455420D02*
G03*
X1254280Y1455420I-30000J0D01*
G01*
X972340Y1309370D02*
G03*
X972340Y1309370I-30000J0D01*
G01*
X1201420Y1468120D02*
X1211580D01*
X1206500Y1463040D02*
Y1473200D01*
X955040Y1296670D02*
X965200D01*
X960120Y1291590D02*
Y1301750D01*
D27*
X1253000Y1573082D02*
G03*
X1253000Y1573082I-1000J0D01*
G01*
X983220Y1417090D02*
G03*
X983220Y1417090I-31750J0D01*
G01*
X1123920Y1384520D02*
G03*
X1123920Y1384520I-1000J0D01*
G01*
X1004540D02*
G03*
X1004540Y1384520I-1000J0D01*
G01*
X1253000Y1373056D02*
G03*
X1253000Y1373056I-1000J0D01*
G01*
Y1473069D02*
G03*
X1253000Y1473069I-1000J0D01*
G01*
X520940Y1489440D02*
Y1501440D01*
X900940D01*
X901940Y1500440D01*
Y1282440D02*
Y1500440D01*
X520940Y1282440D02*
X901940D01*
X520940D02*
Y1489440D01*
X860030Y1723120D02*
Y1735120D01*
X1240030D01*
X1241030Y1734120D01*
Y1516120D02*
Y1734120D01*
X860030Y1516120D02*
X1241030D01*
X860030D02*
Y1723120D01*
X1259840Y1661741D02*
Y1666821D01*
X1353820D01*
Y1575381D02*
Y1666821D01*
X1259840Y1575381D02*
X1353820D01*
X1259840Y1618562D02*
Y1631261D01*
X926070Y1398040D02*
Y1436140D01*
X1211580Y1376680D02*
X1216660D01*
Y1282700D02*
Y1376680D01*
X1125220Y1282700D02*
X1216660D01*
X1125220D02*
Y1376680D01*
X1168400D02*
X1181100D01*
X1092200D02*
X1097280D01*
Y1282700D02*
Y1376680D01*
X1005840Y1282700D02*
X1097280D01*
X1005840D02*
Y1376680D01*
X1049020D02*
X1061720D01*
X1259840Y1461716D02*
Y1466797D01*
X1353820D01*
Y1375356D02*
Y1466797D01*
X1259840Y1375356D02*
X1353820D01*
X1259840Y1418537D02*
Y1431237D01*
Y1561729D02*
Y1566809D01*
X1353820D01*
Y1475369D02*
Y1566809D01*
X1259840Y1475369D02*
X1353820D01*
X1259840Y1518549D02*
Y1531249D01*
X612490Y1610080D02*
Y1620080D01*
X547490Y1565080D02*
Y1575080D01*
Y1565080D02*
X612490D01*
Y1575080D01*
X547490Y1610080D02*
Y1620080D01*
X612490D01*
X697490Y1565080D02*
X762490D01*
X697490Y1610080D02*
Y1620080D01*
X762490D01*
Y1610080D02*
Y1620080D01*
X697490Y1565080D02*
Y1575080D01*
X762490Y1565080D02*
Y1575080D01*
X612490Y1570080D02*
X697490D01*
X612490Y1615080D02*
X697490D01*
X754990Y1565080D02*
Y1575080D01*
X559990Y1610080D02*
Y1620080D01*
X479440Y1628300D02*
X614680D01*
X479440D02*
Y1739740D01*
X614680D01*
Y1628300D02*
Y1739020D01*
X525780Y1751325D02*
Y1736090D01*
X533397D01*
X535937Y1738629D01*
Y1741168D01*
X533397Y1743707D01*
X525780D01*
X533397D01*
X535937Y1746247D01*
Y1748786D01*
X533397Y1751325D01*
X525780D01*
X543554Y1746247D02*
X548633D01*
X551172Y1743707D01*
Y1736090D01*
X543554D01*
X541015Y1738629D01*
X543554Y1741168D01*
X551172D01*
X558789Y1748786D02*
Y1746247D01*
X556250D01*
X561329D01*
X558789D01*
Y1738629D01*
X561329Y1736090D01*
X571485Y1748786D02*
Y1746247D01*
X568946D01*
X574024D01*
X571485D01*
Y1738629D01*
X574024Y1736090D01*
X589259D02*
X584181D01*
X581642Y1738629D01*
Y1743707D01*
X584181Y1746247D01*
X589259D01*
X591799Y1743707D01*
Y1741168D01*
X581642D01*
X596877Y1746247D02*
Y1736090D01*
Y1741168D01*
X599416Y1743707D01*
X601955Y1746247D01*
X604495D01*
X612112Y1736090D02*
X617190D01*
X614651D01*
Y1746247D01*
X612112D01*
X632425Y1736090D02*
X627347D01*
X624808Y1738629D01*
Y1743707D01*
X627347Y1746247D01*
X632425D01*
X634965Y1743707D01*
Y1741168D01*
X624808D01*
X793747Y1714496D02*
X791208Y1717035D01*
X786129D01*
X783590Y1714496D01*
Y1704339D01*
X786129Y1701800D01*
X791208D01*
X793747Y1704339D01*
X798825Y1711957D02*
Y1701800D01*
Y1706878D01*
X801364Y1709418D01*
X803903Y1711957D01*
X806443D01*
X821678Y1701800D02*
X816599D01*
X814060Y1704339D01*
Y1709418D01*
X816599Y1711957D01*
X821678D01*
X824217Y1709418D01*
Y1706878D01*
X814060D01*
X834374Y1696722D02*
X836913D01*
X839452Y1699261D01*
Y1711957D01*
X831834D01*
X829295Y1709418D01*
Y1704339D01*
X831834Y1701800D01*
X839452D01*
X844530D02*
X849609D01*
X847069D01*
Y1717035D01*
X844530Y1714496D01*
X1113787Y1446526D02*
X1111247Y1449065D01*
X1106169D01*
X1103630Y1446526D01*
Y1436369D01*
X1106169Y1433830D01*
X1111247D01*
X1113787Y1436369D01*
X1118865Y1443987D02*
Y1433830D01*
Y1438908D01*
X1121404Y1441447D01*
X1123943Y1443987D01*
X1126483D01*
X1141718Y1433830D02*
X1136639D01*
X1134100Y1436369D01*
Y1441447D01*
X1136639Y1443987D01*
X1141718D01*
X1144257Y1441447D01*
Y1438908D01*
X1134100D01*
X1154414Y1428752D02*
X1156953D01*
X1159492Y1431291D01*
Y1443987D01*
X1151874D01*
X1149335Y1441447D01*
Y1436369D01*
X1151874Y1433830D01*
X1159492D01*
X1174727D02*
X1164570D01*
X1174727Y1443987D01*
Y1446526D01*
X1172188Y1449065D01*
X1167110D01*
X1164570Y1446526D01*
X1179805Y1433830D02*
X1184884D01*
X1182345D01*
Y1449065D01*
X1179805Y1446526D01*
X924303Y1365500D02*
X921764Y1368039D01*
X916685D01*
X914146Y1365500D01*
Y1355343D01*
X916685Y1352804D01*
X921764D01*
X924303Y1355343D01*
X929381Y1362961D02*
Y1352804D01*
Y1357882D01*
X931920Y1360421D01*
X934459Y1362961D01*
X936999D01*
X952234Y1352804D02*
X947155D01*
X944616Y1355343D01*
Y1360421D01*
X947155Y1362961D01*
X952234D01*
X954773Y1360421D01*
Y1357882D01*
X944616D01*
X964930Y1347726D02*
X967469D01*
X970008Y1350265D01*
Y1362961D01*
X962390D01*
X959851Y1360421D01*
Y1355343D01*
X962390Y1352804D01*
X970008D01*
X985243D02*
X975086D01*
X985243Y1362961D01*
Y1365500D01*
X982704Y1368039D01*
X977626D01*
X975086Y1365500D01*
X1000478Y1352804D02*
X990321D01*
X1000478Y1362961D01*
Y1365500D01*
X997939Y1368039D01*
X992860D01*
X990321Y1365500D01*
X992124Y1424681D02*
Y1409446D01*
X999742D01*
X1002281Y1411985D01*
Y1422142D01*
X999742Y1424681D01*
X992124D01*
X1007359Y1409446D02*
X1012437D01*
X1009898D01*
Y1424681D01*
X1007359Y1422142D01*
X693420Y1645915D02*
Y1630680D01*
X701038D01*
X703577Y1633219D01*
Y1643376D01*
X701038Y1645915D01*
X693420D01*
X708655Y1640837D02*
Y1630680D01*
Y1635758D01*
X711194Y1638297D01*
X713733Y1640837D01*
X716273D01*
X731508Y1630680D02*
X726429D01*
X723890Y1633219D01*
Y1638297D01*
X726429Y1640837D01*
X731508D01*
X734047Y1638297D01*
Y1635758D01*
X723890D01*
X749282Y1645915D02*
Y1630680D01*
X741664D01*
X739125Y1633219D01*
Y1638297D01*
X741664Y1640837D01*
X749282D01*
X754360Y1630680D02*
X759439D01*
X756899D01*
Y1645915D01*
X754360Y1643376D01*
X692150Y1668775D02*
Y1653540D01*
X699768D01*
X702307Y1656079D01*
Y1666236D01*
X699768Y1668775D01*
X692150D01*
X707385Y1663697D02*
Y1653540D01*
Y1658618D01*
X709924Y1661158D01*
X712463Y1663697D01*
X715003D01*
X730238Y1653540D02*
X725159D01*
X722620Y1656079D01*
Y1661158D01*
X725159Y1663697D01*
X730238D01*
X732777Y1661158D01*
Y1658618D01*
X722620D01*
X748012Y1668775D02*
Y1653540D01*
X740394D01*
X737855Y1656079D01*
Y1661158D01*
X740394Y1663697D01*
X748012D01*
X763247Y1653540D02*
X753090D01*
X763247Y1663697D01*
Y1666236D01*
X760708Y1668775D01*
X755630D01*
X753090Y1666236D01*
X1135126Y1258570D02*
Y1273805D01*
X1142744D01*
X1145283Y1271266D01*
Y1266188D01*
X1142744Y1263648D01*
X1135126D01*
X1150361Y1271266D02*
X1152900Y1273805D01*
X1157979D01*
X1160518Y1271266D01*
Y1268727D01*
X1157979Y1266188D01*
X1155439D01*
X1157979D01*
X1160518Y1263648D01*
Y1261109D01*
X1157979Y1258570D01*
X1152900D01*
X1150361Y1261109D01*
X1165596Y1258570D02*
X1170675D01*
X1168135D01*
Y1273805D01*
X1165596Y1271266D01*
X1178292D02*
X1180831Y1273805D01*
X1185910D01*
X1188449Y1271266D01*
Y1261109D01*
X1185910Y1258570D01*
X1180831D01*
X1178292Y1261109D01*
Y1271266D01*
X1193527Y1273805D02*
Y1263648D01*
X1198605Y1258570D01*
X1203684Y1263648D01*
Y1273805D01*
X1015746Y1258570D02*
Y1273805D01*
X1023363D01*
X1025903Y1271266D01*
Y1266188D01*
X1023363Y1263648D01*
X1015746D01*
X1038599Y1258570D02*
Y1273805D01*
X1030981Y1266188D01*
X1041138D01*
X1046216Y1258570D02*
X1051294D01*
X1048755D01*
Y1273805D01*
X1046216Y1271266D01*
X1058912D02*
X1061451Y1273805D01*
X1066530D01*
X1069069Y1271266D01*
Y1261109D01*
X1066530Y1258570D01*
X1061451D01*
X1058912Y1261109D01*
Y1271266D01*
X1074147Y1273805D02*
Y1263648D01*
X1079225Y1258570D01*
X1084304Y1263648D01*
Y1273805D01*
X1046480Y1433576D02*
Y1448811D01*
X1054098D01*
X1056637Y1446272D01*
Y1441194D01*
X1054098Y1438654D01*
X1046480D01*
X1051558D02*
X1056637Y1433576D01*
X1071872D02*
X1061715D01*
X1071872Y1443733D01*
Y1446272D01*
X1069333Y1448811D01*
X1064254D01*
X1061715Y1446272D01*
X956310Y1555750D02*
Y1570985D01*
X963928D01*
X966467Y1568446D01*
Y1563367D01*
X963928Y1560828D01*
X956310D01*
X961388D02*
X966467Y1555750D01*
X979163D02*
X974084D01*
X971545Y1558289D01*
Y1563367D01*
X974084Y1565907D01*
X979163D01*
X981702Y1563367D01*
Y1560828D01*
X971545D01*
X991859Y1550672D02*
X994398D01*
X996937Y1553211D01*
Y1565907D01*
X989319D01*
X986780Y1563367D01*
Y1558289D01*
X989319Y1555750D01*
X996937D01*
X1002015Y1565907D02*
Y1558289D01*
X1004554Y1555750D01*
X1012172D01*
Y1565907D01*
X1017250Y1555750D02*
X1022329D01*
X1019790D01*
Y1570985D01*
X1017250D01*
X1032485Y1565907D02*
X1037564D01*
X1040103Y1563367D01*
Y1555750D01*
X1032485D01*
X1029946Y1558289D01*
X1032485Y1560828D01*
X1040103D01*
X1047720Y1568446D02*
Y1565907D01*
X1045181D01*
X1050260D01*
X1047720D01*
Y1558289D01*
X1050260Y1555750D01*
X1060416D02*
X1065495D01*
X1068034Y1558289D01*
Y1563367D01*
X1065495Y1565907D01*
X1060416D01*
X1057877Y1563367D01*
Y1558289D01*
X1060416Y1555750D01*
X1073112Y1565907D02*
Y1555750D01*
Y1560828D01*
X1075651Y1563367D01*
X1078191Y1565907D01*
X1080730D01*
X1113739Y1570985D02*
X1103582D01*
Y1563367D01*
X1108661Y1565907D01*
X1111200D01*
X1113739Y1563367D01*
Y1558289D01*
X1111200Y1555750D01*
X1106122D01*
X1103582Y1558289D01*
X1118817Y1570985D02*
Y1560828D01*
X1123896Y1555750D01*
X1128974Y1560828D01*
Y1570985D01*
X1134053Y1568446D02*
X1136592Y1570985D01*
X1141670D01*
X1144209Y1568446D01*
Y1558289D01*
X1141670Y1555750D01*
X1136592D01*
X1134053Y1558289D01*
Y1568446D01*
X632460Y1259840D02*
Y1275075D01*
X640078D01*
X642617Y1272536D01*
Y1267458D01*
X640078Y1264918D01*
X632460D01*
X637538D02*
X642617Y1259840D01*
X655313D02*
X650234D01*
X647695Y1262379D01*
Y1267458D01*
X650234Y1269997D01*
X655313D01*
X657852Y1267458D01*
Y1264918D01*
X647695D01*
X668008Y1254762D02*
X670548D01*
X673087Y1257301D01*
Y1269997D01*
X665469D01*
X662930Y1267458D01*
Y1262379D01*
X665469Y1259840D01*
X673087D01*
X678165Y1269997D02*
Y1262379D01*
X680704Y1259840D01*
X688322D01*
Y1269997D01*
X693400Y1259840D02*
X698479D01*
X695939D01*
Y1275075D01*
X693400D01*
X708635Y1269997D02*
X713714D01*
X716253Y1267458D01*
Y1259840D01*
X708635D01*
X706096Y1262379D01*
X708635Y1264918D01*
X716253D01*
X723870Y1272536D02*
Y1269997D01*
X721331D01*
X726410D01*
X723870D01*
Y1262379D01*
X726410Y1259840D01*
X736566D02*
X741645D01*
X744184Y1262379D01*
Y1267458D01*
X741645Y1269997D01*
X736566D01*
X734027Y1267458D01*
Y1262379D01*
X736566Y1259840D01*
X749262Y1269997D02*
Y1259840D01*
Y1264918D01*
X751801Y1267458D01*
X754341Y1269997D01*
X756880D01*
X779732Y1259840D02*
X784811D01*
X782271D01*
Y1275075D01*
X779732Y1272536D01*
X792428D02*
X794967Y1275075D01*
X800046D01*
X802585Y1272536D01*
Y1262379D01*
X800046Y1259840D01*
X794967D01*
X792428Y1262379D01*
Y1272536D01*
X807663Y1275075D02*
Y1264918D01*
X812742Y1259840D01*
X817820Y1264918D01*
Y1275075D01*
X822898Y1272536D02*
X825438Y1275075D01*
X830516D01*
X833055Y1272536D01*
Y1262379D01*
X830516Y1259840D01*
X825438D01*
X822898Y1262379D01*
Y1272536D01*
X914400Y1525270D02*
Y1540505D01*
X922018D01*
X924557Y1537966D01*
Y1532888D01*
X922018Y1530348D01*
X914400D01*
X919478D02*
X924557Y1525270D01*
X929635D02*
X937253D01*
X939792Y1527809D01*
X937253Y1530348D01*
X932174D01*
X929635Y1532888D01*
X932174Y1535427D01*
X939792D01*
X952488Y1525270D02*
X947409D01*
X944870Y1527809D01*
Y1532888D01*
X947409Y1535427D01*
X952488D01*
X955027Y1532888D01*
Y1530348D01*
X944870D01*
X962644Y1537966D02*
Y1535427D01*
X960105D01*
X965184D01*
X962644D01*
Y1527809D01*
X965184Y1525270D01*
X972801D02*
X977879D01*
X975340D01*
Y1540505D01*
X972801Y1537966D01*
X734060Y1539240D02*
Y1554475D01*
X741677D01*
X744217Y1551936D01*
Y1546857D01*
X741677Y1544318D01*
X734060D01*
X739138D02*
X744217Y1539240D01*
X749295D02*
X756913D01*
X759452Y1541779D01*
X756913Y1544318D01*
X751834D01*
X749295Y1546857D01*
X751834Y1549397D01*
X759452D01*
X772148Y1539240D02*
X767069D01*
X764530Y1541779D01*
Y1546857D01*
X767069Y1549397D01*
X772148D01*
X774687Y1546857D01*
Y1544318D01*
X764530D01*
X782304Y1551936D02*
Y1549397D01*
X779765D01*
X784844D01*
X782304D01*
Y1541779D01*
X784844Y1539240D01*
X802618D02*
X792461D01*
X802618Y1549397D01*
Y1551936D01*
X800079Y1554475D01*
X795000D01*
X792461Y1551936D01*
D28*
X657830Y1618150D02*
Y1671150D01*
X685830Y1618150D02*
Y1671150D01*
X657830D02*
X685830D01*
X622270Y1618150D02*
Y1671150D01*
X650270Y1618150D02*
Y1671150D01*
X622270D02*
X650270D01*
X831850Y1573530D02*
Y1687830D01*
X793750D02*
X831850D01*
X793750Y1573530D02*
Y1687830D01*
Y1573530D02*
X831850D01*
X546100Y1548130D02*
X660400D01*
X546100Y1510030D02*
Y1548130D01*
Y1510030D02*
X660400D01*
Y1548130D01*
D29*
X775970Y1510030D02*
Y1530350D01*
X715010Y1510030D02*
X775970D01*
X715010D02*
Y1530350D01*
X775970D01*
Y1520190D02*
X783590D01*
X707390D02*
X715010D01*
X953770Y1488440D02*
Y1508760D01*
X1014730D01*
Y1488440D02*
Y1508760D01*
X953770Y1488440D02*
X1014730D01*
X946150Y1498600D02*
X953770D01*
X1014730D02*
X1022350D01*
X1045210Y1457960D02*
Y1478280D01*
X984250Y1457960D02*
X1045210D01*
X984250D02*
Y1478280D01*
X1045210D01*
Y1468120D02*
X1052830D01*
X976630D02*
X984250D01*
D30*
X671786Y1621219D02*
D03*
X636213Y1621209D02*
D03*
M02*
