%FSAX42Y42*%
%MOMM*%
G71*
G01*
G75*
%ADD10C,3.70*%
%ADD11C,0.30*%
%ADD12C,1.30*%
%ADD13C,1.00*%
%ADD14C,2.50*%
%ADD15R,2.50X2.50*%
%ADD16C,3.00*%
%ADD17C,1.57*%
%ADD18R,1.57X1.57*%
%ADD19C,6.50*%
%ADD20C,1.20*%
%ADD21R,2.50X2.50*%
%ADD22R,1.57X1.57*%
%ADD23C,1.52*%
%ADD24C,2.00*%
%ADD25R,2.00X2.00*%
%ADD26C,0.15*%
%ADD27C,0.25*%
%ADD28C,0.20*%
%ADD29C,0.30*%
%ADD30R,2.80X0.80*%
%ADD31C,2.70*%
%ADD32R,2.70X2.70*%
%ADD33C,3.20*%
%ADD34C,1.78*%
%ADD35R,1.78X1.78*%
%ADD36C,6.70*%
%ADD37C,1.40*%
%ADD38R,2.70X2.70*%
%ADD39R,1.78X1.78*%
%ADD40C,1.73*%
%ADD41C,2.20*%
%ADD42R,2.20X2.20*%
%ADD43C,0.15*%
%ADD44R,38.10X21.90*%
%ADD45C,0.13*%
%ADD46C,0.17*%
D45*
X005924Y016590D02*
X006064D01*
X005994Y016520D02*
Y016660D01*
X005924Y017090D02*
X006064D01*
X005994Y017020D02*
Y017160D01*
X006985Y015926D02*
X007115D01*
X007050Y015861D02*
Y015991D01*
X007485Y015926D02*
X007615D01*
X007550Y015861D02*
Y015991D01*
X005485Y015926D02*
X005615D01*
X005550Y015861D02*
Y015991D01*
X005985Y015926D02*
X006115D01*
X006050Y015861D02*
Y015991D01*
X009383Y013221D02*
X009463D01*
X009423Y013181D02*
Y013261D01*
X009383Y012967D02*
X009463D01*
X009423Y012927D02*
Y013007D01*
X012644Y013233D02*
X012984D01*
X012814Y013063D02*
Y013403D01*
X007196Y017094D02*
X007536D01*
X007366Y016924D02*
Y017264D01*
X006378Y015291D02*
X006449D01*
X006414Y015256D02*
Y015326D01*
X005617Y015291D02*
X005687D01*
X005651Y015256D02*
Y015326D01*
X012681Y015386D02*
X012821D01*
X012751Y015316D02*
Y015456D01*
X012681Y015036D02*
X012821D01*
X012751Y014966D02*
Y015106D01*
X012681Y014386D02*
X012821D01*
X012751Y014316D02*
Y014456D01*
X012681Y014036D02*
X012821D01*
X012751Y013966D02*
Y014106D01*
X012657Y017082D02*
X012997D01*
X012827Y016912D02*
Y017251D01*
X010621Y013614D02*
X010761D01*
X010691Y013544D02*
Y013684D01*
X010271Y013614D02*
X010411D01*
X010341Y013544D02*
Y013684D01*
X011814Y013614D02*
X011954D01*
X011884Y013544D02*
Y013684D01*
X011464Y013614D02*
X011604D01*
X011534Y013544D02*
Y013684D01*
X009347Y014171D02*
X009428D01*
X009388Y014130D02*
Y014212D01*
X009601Y014171D02*
X009682D01*
X009642Y014130D02*
Y014212D01*
X009597Y014681D02*
X009682D01*
X009639Y014639D02*
Y014724D01*
X010613Y014681D02*
X010698D01*
X010655Y014639D02*
Y014724D01*
X012681Y016386D02*
X012821D01*
X012751Y016316D02*
Y016456D01*
X012681Y016036D02*
X012821D01*
X012751Y015966D02*
Y016106D01*
X012203Y014427D02*
X012283D01*
X012243Y014387D02*
Y014467D01*
X012203Y014681D02*
X012283D01*
X012243Y014641D02*
Y014721D01*
X008093Y015926D02*
X008163D01*
X008128Y015891D02*
Y015961D01*
X008093Y016688D02*
X008163D01*
X008128Y016653D02*
Y016723D01*
X008712Y017221D02*
X008788D01*
X008750Y017183D02*
Y017259D01*
X009982Y015311D02*
X010058D01*
X010020Y015273D02*
Y015349D01*
X008712Y015311D02*
X008788D01*
X008750Y015273D02*
Y015349D01*
X010302Y015311D02*
X010378D01*
X010340Y015273D02*
Y015349D01*
X010622Y015311D02*
X010698D01*
X010660Y015273D02*
Y015349D01*
X012212Y015311D02*
X012288D01*
X012250Y015273D02*
Y015349D01*
X012212Y017221D02*
X012288D01*
X012250Y017183D02*
Y017259D01*
X005321Y014884D02*
X005397D01*
X005359Y014846D02*
Y014923D01*
X006591Y012974D02*
X006668D01*
X006629Y012936D02*
Y013012D01*
X005321Y012974D02*
X005397D01*
X005359Y012936D02*
Y013012D01*
X006911Y012974D02*
X006988D01*
X006949Y012936D02*
Y013012D01*
X007231Y012974D02*
X007307D01*
X007269Y012936D02*
Y013012D01*
X008821Y012974D02*
X008897D01*
X008859Y012936D02*
Y013012D01*
X008821Y014884D02*
X008897D01*
X008859Y014846D02*
Y014923D01*
X010308Y014986D02*
X010393D01*
X010350Y014943D02*
Y015029D01*
X009292Y014986D02*
X009377D01*
X009335Y014943D02*
Y015029D01*
X006904Y015202D02*
X006989D01*
X006947Y015159D02*
Y015244D01*
X007920Y015202D02*
X008005D01*
X007963Y015159D02*
Y015244D01*
X006303Y016970D02*
X006423D01*
X006363Y016910D02*
Y017029D01*
X006303Y015924D02*
X006423D01*
X006363Y015863D02*
Y015984D01*
X006658Y016970D02*
X006778D01*
X006718Y016910D02*
Y017029D01*
X006658Y015924D02*
X006778D01*
X006718Y015863D02*
Y015984D01*
M02*
