M48
;Layer_Color=9474304
;FILE_FORMAT=4:2
METRIC
;TYPE=PLATED
T1F00S00C0.70
T2F00S00C0.76
T3F00S00C0.80
T4F00S00C0.81
T5F00S00C0.85
T6F00S00C1.20
T7F00S00C1.30
T8F00S00C1.40
T9F00S00C3.40
%
T01
X005651Y015291
X006414
X008128Y015926
Y016688
T02
X012250Y015311
X010660
X010340
X010020
X008750
X008859Y014884
Y012974
X007269
X006949
X006629
X005359
Y014884
X008750Y017221
X012250
T03
X012243Y014427
Y014681
X009423Y013221
Y012967
T04
X009388Y014171
X009642
T05
X007963Y015202
X009335Y014986
X009639Y014681
X010655
X010350Y014986
X006947Y015202
T06
X006363Y015924
X006718
Y016970
X006363
T07
X005550Y015926
X006050
X007050
X007550
T08
X012751Y014036
Y014386
Y015036
Y015386
X011884Y013614
X011534
X010691
X010341
X005994Y016590
Y017090
X012751Y016386
Y016036
T09
X012814Y013233
X007366Y017094
X012827Y017082
M30
