%FSLAX44Y44*%
%MOMM*%
G71*
G01*
G75*
G04 Layer_Color=2752767*
%ADD10C,3.7000*%
%ADD11C,0.3000*%
%ADD12C,1.3000*%
%ADD13C,1.0000*%
%ADD14R,2.0000X2.0000*%
%ADD15C,2.0000*%
%ADD16C,1.5748*%
%ADD17C,1.5240*%
%ADD18C,1.2000*%
%ADD19R,1.5748X1.5748*%
%ADD20R,2.5000X2.5000*%
%ADD21C,2.5000*%
%ADD22R,1.5748X1.5748*%
%ADD23R,2.5000X2.5000*%
%ADD24C,6.5000*%
%ADD25C,3.0000*%
%ADD26C,0.1500*%
%ADD27C,0.2540*%
%ADD28C,0.2000*%
%ADD29C,0.3048*%
%ADD30R,2.8000X0.8000*%
%ADD31R,2.2032X2.2032*%
%ADD32C,2.2032*%
%ADD33C,1.7780*%
%ADD34C,1.7272*%
%ADD35C,1.4032*%
%ADD36R,1.7780X1.7780*%
%ADD37R,2.7032X2.7032*%
%ADD38C,2.7032*%
%ADD39R,1.7780X1.7780*%
%ADD40R,2.7032X2.7032*%
%ADD41C,6.7032*%
%ADD42C,3.2032*%
%ADD43C,0.1524*%
%ADD44R,38.1000X21.9000*%
%ADD45C,0.1270*%
%ADD46C,0.1693*%
D45*
X666750Y1587270D02*
Y1597430D01*
X676910D01*
Y1587270D01*
X666750D01*
Y1691870D02*
Y1702030D01*
X676910D01*
Y1691870D01*
X666750D01*
X631190Y1587270D02*
Y1597430D01*
X641350D01*
Y1587270D01*
X631190D01*
Y1691870D02*
Y1702030D01*
X641350D01*
Y1691870D01*
X631190D01*
X885940Y1483360D02*
X880860Y1493520D01*
X891020D01*
X885940Y1483360D01*
Y1292360D02*
X880860Y1302520D01*
X891020D01*
X885940Y1292360D01*
X726940D02*
X721860Y1302520D01*
X732020D01*
X726940Y1292360D01*
X694940D02*
X689860Y1302520D01*
X700020D01*
X694940Y1292360D01*
X535940D02*
X530860Y1302520D01*
X541020D01*
X535940Y1292360D01*
X662940D02*
X657860Y1302520D01*
X668020D01*
X662940Y1292360D01*
X535940Y1483360D02*
X530860Y1493520D01*
X541020D01*
X535940Y1483360D01*
X1225030Y1717040D02*
X1219950Y1727200D01*
X1230110D01*
X1225030Y1717040D01*
Y1526040D02*
X1219950Y1536200D01*
X1230110D01*
X1225030Y1526040D01*
X1066030D02*
X1060950Y1536200D01*
X1071110D01*
X1066030Y1526040D01*
X1034030D02*
X1028950Y1536200D01*
X1039110D01*
X1034030Y1526040D01*
X875030D02*
X869950Y1536200D01*
X880110D01*
X875030Y1526040D01*
X1002030D02*
X996950Y1536200D01*
X1007110D01*
X1002030Y1526040D01*
X875030Y1717040D02*
X869950Y1727200D01*
X880110D01*
X875030Y1717040D01*
X812800Y1663700D02*
X815340Y1666240D01*
X817880D01*
X815340Y1668780D01*
X817880Y1671320D01*
X815340D01*
X812800Y1673860D01*
X810260Y1671320D01*
X807720D01*
X810260Y1668780D01*
X807720Y1666240D01*
X810260D01*
X812800Y1663700D01*
Y1587500D02*
X815340Y1590040D01*
X817880D01*
X815340Y1592580D01*
X817880Y1595120D01*
X815340D01*
X812800Y1597660D01*
X810260Y1595120D01*
X807720D01*
X810260Y1592580D01*
X807720Y1590040D01*
X810260D01*
X812800Y1587500D01*
X1219200Y1463040D02*
X1221740Y1468120D01*
X1219200Y1473200D01*
X1224280Y1470660D01*
X1229360Y1473200D01*
X1226820Y1468120D01*
X1229360Y1463040D01*
X1224280Y1465580D01*
X1219200Y1463040D01*
Y1437640D02*
X1221740Y1442720D01*
X1219200Y1447800D01*
X1224280Y1445260D01*
X1229360Y1447800D01*
X1226820Y1442720D01*
X1229360Y1437640D01*
X1224280Y1440180D01*
X1219200Y1437640D01*
X1272540Y1601062D02*
Y1598522D01*
X1277620D01*
Y1601062D01*
X1280160D01*
Y1606142D01*
X1277620D01*
Y1608681D01*
X1272540D01*
Y1606142D01*
X1270000D01*
Y1601062D01*
X1272540D01*
Y1636062D02*
Y1633522D01*
X1277620D01*
Y1636062D01*
X1280160D01*
Y1641142D01*
X1277620D01*
Y1643681D01*
X1272540D01*
Y1641142D01*
X1270000D01*
Y1636062D01*
X1272540D01*
X959090Y1412010D02*
X961630D01*
X964170Y1414550D01*
X966710Y1412010D01*
X969250D01*
Y1414550D01*
X966710Y1417090D01*
X969250Y1419630D01*
Y1422170D01*
X966710D01*
X964170Y1419630D01*
X961630Y1422170D01*
X959090D01*
Y1419630D01*
X961630Y1417090D01*
X959090Y1414550D01*
Y1412010D01*
X933690D02*
X936230D01*
X938770Y1414550D01*
X941310Y1412010D01*
X943850D01*
Y1414550D01*
X941310Y1417090D01*
X943850Y1419630D01*
Y1422170D01*
X941310D01*
X938770Y1419630D01*
X936230Y1422170D01*
X933690D01*
Y1419630D01*
X936230Y1417090D01*
X933690Y1414550D01*
Y1412010D01*
X1150900Y1358900D02*
Y1356360D01*
X1155980D01*
Y1358900D01*
X1158520D01*
Y1363980D01*
X1155980D01*
Y1366520D01*
X1150900D01*
Y1363980D01*
X1148360D01*
Y1358900D01*
X1150900D01*
X1185900D02*
Y1356360D01*
X1190980D01*
Y1358900D01*
X1193520D01*
Y1363980D01*
X1190980D01*
Y1366520D01*
X1185900D01*
Y1363980D01*
X1183360D01*
Y1358900D01*
X1185900D01*
X1031520D02*
Y1356360D01*
X1036600D01*
Y1358900D01*
X1039140D01*
Y1363980D01*
X1036600D01*
Y1366520D01*
X1031520D01*
Y1363980D01*
X1028980D01*
Y1358900D01*
X1031520D01*
X1066520D02*
Y1356360D01*
X1071600D01*
Y1358900D01*
X1074140D01*
Y1363980D01*
X1071600D01*
Y1366520D01*
X1066520D01*
Y1363980D01*
X1063980D01*
Y1358900D01*
X1066520D01*
X1277620Y1708150D02*
X1282700Y1713230D01*
X1287780Y1708150D01*
X1282700Y1703070D01*
X1277620Y1708150D01*
X1272540Y1401037D02*
Y1398497D01*
X1277620D01*
Y1401037D01*
X1280160D01*
Y1406116D01*
X1277620D01*
Y1408656D01*
X1272540D01*
Y1406116D01*
X1270000D01*
Y1401037D01*
X1272540D01*
Y1436037D02*
Y1433497D01*
X1277620D01*
Y1436037D01*
X1280160D01*
Y1441116D01*
X1277620D01*
Y1443656D01*
X1272540D01*
Y1441116D01*
X1270000D01*
Y1436037D01*
X1272540D01*
Y1501049D02*
Y1498509D01*
X1277620D01*
Y1501049D01*
X1280160D01*
Y1506129D01*
X1277620D01*
Y1508669D01*
X1272540D01*
Y1506129D01*
X1270000D01*
Y1501049D01*
X1272540D01*
Y1536049D02*
Y1533509D01*
X1277620D01*
Y1536049D01*
X1280160D01*
Y1541129D01*
X1277620D01*
Y1543669D01*
X1272540D01*
Y1541129D01*
X1270000D01*
Y1536049D01*
X1272540D01*
X565150Y1524000D02*
X567690Y1526540D01*
X570230D01*
X567690Y1529080D01*
X570230Y1531620D01*
X567690D01*
X565150Y1534160D01*
X562610Y1531620D01*
X560070D01*
X562610Y1529080D01*
X560070Y1526540D01*
X562610D01*
X565150Y1524000D01*
X641350D02*
X643890Y1526540D01*
X646430D01*
X643890Y1529080D01*
X646430Y1531620D01*
X643890D01*
X641350Y1534160D01*
X638810Y1531620D01*
X636270D01*
X638810Y1529080D01*
X636270Y1526540D01*
X638810D01*
X641350Y1524000D01*
X731520Y1709420D02*
X736600Y1714500D01*
X741680Y1709420D01*
X736600Y1704340D01*
X731520Y1709420D01*
X1276350Y1323340D02*
X1281430Y1328420D01*
X1286510Y1323340D01*
X1281430Y1318260D01*
X1276350Y1323340D01*
X937260Y1291590D02*
X939800Y1296670D01*
X937260Y1301750D01*
X942340Y1299210D01*
X947420Y1301750D01*
X944880Y1296670D01*
X947420Y1291590D01*
X942340Y1294130D01*
X937260Y1291590D01*
Y1316990D02*
X939800Y1322070D01*
X937260Y1327150D01*
X942340Y1324610D01*
X947420Y1327150D01*
X944880Y1322070D01*
X947420Y1316990D01*
X942340Y1319530D01*
X937260Y1316990D01*
X599910Y1587500D02*
Y1597660D01*
X610070D01*
Y1587500D01*
X599910D01*
X601942Y1589532D02*
Y1595628D01*
X608038D01*
Y1589532D01*
X601942D01*
X549910Y1587500D02*
Y1597660D01*
X560070D01*
Y1587500D01*
X549910D01*
X551942Y1589532D02*
Y1595628D01*
X558038D01*
Y1589532D01*
X551942D01*
X749910Y1587500D02*
Y1597660D01*
X760070D01*
Y1587500D01*
X749910D01*
X751942Y1589532D02*
Y1595628D01*
X758038D01*
Y1589532D01*
X751942D01*
X699910Y1587500D02*
Y1597660D01*
X710070D01*
Y1587500D01*
X699910D01*
X701942Y1589532D02*
Y1595628D01*
X708038D01*
Y1589532D01*
X701942D01*
X596900Y1706480D02*
Y1703940D01*
X601980D01*
Y1706480D01*
X604520D01*
Y1711560D01*
X601980D01*
Y1714100D01*
X596900D01*
Y1711560D01*
X594360D01*
Y1706480D01*
X596900D01*
Y1656480D02*
Y1653940D01*
X601980D01*
Y1656480D01*
X604520D01*
Y1661560D01*
X601980D01*
Y1664100D01*
X596900D01*
Y1661560D01*
X594360D01*
Y1656480D01*
X596900D01*
D46*
X801370Y1520190D02*
G03*
X801370Y1520190I-5080J0D01*
G01*
X699770D02*
G03*
X699770Y1520190I-5080J0D01*
G01*
X938530Y1498600D02*
G03*
X938530Y1498600I-5080J0D01*
G01*
X1040130D02*
G03*
X1040130Y1498600I-5080J0D01*
G01*
X1070610Y1468120D02*
G03*
X1070610Y1468120I-5080J0D01*
G01*
X969010D02*
G03*
X969010Y1468120I-5080J0D01*
G01*
M02*
