%FSLAX44Y44*%
%MOMM*%
G71*
G01*
G75*
G04 Layer_Color=16711935*
%ADD10C,3.7000*%
%ADD11C,0.3000*%
%ADD12C,1.3000*%
%ADD13C,1.0000*%
%ADD14R,2.0000X2.0000*%
%ADD15C,2.0000*%
%ADD16C,1.5748*%
%ADD17C,1.5240*%
%ADD18C,1.2000*%
%ADD19R,1.5748X1.5748*%
%ADD20R,2.5000X2.5000*%
%ADD21C,2.5000*%
%ADD22R,1.5748X1.5748*%
%ADD23R,2.5000X2.5000*%
%ADD24C,6.5000*%
%ADD25C,3.0000*%
%ADD26C,0.1500*%
%ADD27C,0.2540*%
%ADD28C,0.2000*%
%ADD29C,0.3048*%
%ADD30R,2.8000X0.8000*%
%ADD31R,2.2032X2.2032*%
%ADD32C,2.2032*%
%ADD33C,1.7780*%
%ADD34C,1.7272*%
%ADD35C,1.4032*%
%ADD36R,1.7780X1.7780*%
%ADD37R,2.7032X2.7032*%
%ADD38C,2.7032*%
%ADD39R,1.7780X1.7780*%
%ADD40R,2.7032X2.7032*%
%ADD41C,6.7032*%
%ADD42C,3.2032*%
D31*
X671830Y1592350D02*
D03*
X636270D02*
D03*
D32*
X671830Y1696950D02*
D03*
X636270D02*
D03*
D33*
X796290Y1520190D02*
D03*
X694690D02*
D03*
X933450Y1498600D02*
D03*
X1035050D02*
D03*
X1224280Y1442720D02*
D03*
X1065530Y1468120D02*
D03*
X963930D02*
D03*
X964170Y1417090D02*
D03*
X942340Y1322070D02*
D03*
D34*
X885940Y1488440D02*
D03*
Y1297440D02*
D03*
X726940D02*
D03*
X694940D02*
D03*
X535940D02*
D03*
X662940D02*
D03*
X535940Y1488440D02*
D03*
X1225030Y1722120D02*
D03*
Y1531120D02*
D03*
X1066030D02*
D03*
X1034030D02*
D03*
X875030D02*
D03*
X1002030D02*
D03*
X875030Y1722120D02*
D03*
D35*
X812800Y1668780D02*
D03*
Y1592580D02*
D03*
X565150Y1529080D02*
D03*
X641350D02*
D03*
D36*
X1224280Y1468120D02*
D03*
X942340Y1296670D02*
D03*
D37*
X1275080Y1603602D02*
D03*
Y1403577D02*
D03*
Y1503589D02*
D03*
X599440Y1709020D02*
D03*
D38*
X1275080Y1638602D02*
D03*
X1188440Y1361440D02*
D03*
X1069060D02*
D03*
X1275080Y1438577D02*
D03*
Y1538589D02*
D03*
X599440Y1659020D02*
D03*
D39*
X938770Y1417090D02*
D03*
D40*
X1153440Y1361440D02*
D03*
X1034060D02*
D03*
D41*
X1282700Y1708150D02*
D03*
X736600Y1709420D02*
D03*
X1281430Y1323340D02*
D03*
D42*
X604990Y1592580D02*
D03*
X554990D02*
D03*
X754990D02*
D03*
X704990D02*
D03*
M02*
