%FSAX42Y42*%
%MOMM*%
G71*
G01*
G75*
G04 Layer_Color=2752767*
%ADD10C,3.70*%
%ADD11C,0.30*%
%ADD12C,1.30*%
%ADD13C,1.00*%
%ADD14C,2.50*%
%ADD15R,2.50X2.50*%
%ADD16C,3.00*%
%ADD17C,1.57*%
%ADD18R,1.57X1.57*%
%ADD19C,6.50*%
%ADD20C,1.20*%
%ADD21R,2.50X2.50*%
%ADD22R,1.57X1.57*%
%ADD23C,1.52*%
%ADD24C,2.00*%
%ADD25R,2.00X2.00*%
%ADD26C,0.15*%
%ADD27C,0.25*%
%ADD28C,0.20*%
%ADD29C,0.30*%
%ADD30R,2.80X0.80*%
%ADD31C,2.70*%
%ADD32R,2.70X2.70*%
%ADD33C,3.20*%
%ADD34C,1.78*%
%ADD35R,1.78X1.78*%
%ADD36C,6.70*%
%ADD37C,1.40*%
%ADD38R,2.70X2.70*%
%ADD39R,1.78X1.78*%
%ADD40C,1.73*%
%ADD41C,2.20*%
%ADD42R,2.20X2.20*%
%ADD43C,0.15*%
%ADD44R,38.10X21.90*%
%ADD45C,0.13*%
%ADD46C,0.17*%
D45*
X005944Y016539D02*
Y016641D01*
X006045D01*
Y016539D01*
X005944D01*
Y017039D02*
Y017141D01*
X006045D01*
Y017039D01*
X005944D01*
X009423Y013170D02*
X009373Y013271D01*
X009474D01*
X009423Y013170D01*
Y012916D02*
X009373Y013018D01*
X009474D01*
X009423Y012916D01*
X012814Y013183D02*
X012840Y013208D01*
X012865D01*
X012840Y013233D01*
X012865Y013259D01*
X012840D01*
X012814Y013284D01*
X012789Y013259D01*
X012764D01*
X012789Y013233D01*
X012764Y013208D01*
X012789D01*
X012814Y013183D01*
X007366Y017043D02*
X007391Y017069D01*
X007417D01*
X007391Y017094D01*
X007417Y017120D01*
X007391D01*
X007366Y017145D01*
X007341Y017120D01*
X007315D01*
X007341Y017094D01*
X007315Y017069D01*
X007341D01*
X007366Y017043D01*
X006363Y015240D02*
X006388Y015291D01*
X006363Y015342D01*
X006414Y015316D01*
X006464Y015342D01*
X006439Y015291D01*
X006464Y015240D01*
X006414Y015265D01*
X006363Y015240D01*
X005601D02*
X005626Y015291D01*
X005601Y015342D01*
X005651Y015316D01*
X005702Y015342D01*
X005677Y015291D01*
X005702Y015240D01*
X005651Y015265D01*
X005601Y015240D01*
X012700Y015335D02*
Y015437D01*
X012802D01*
Y015335D01*
X012700D01*
Y014985D02*
Y015087D01*
X012802D01*
Y014985D01*
X012700D01*
Y014335D02*
Y014437D01*
X012802D01*
Y014335D01*
X012700D01*
Y013985D02*
Y014087D01*
X012802D01*
Y013985D01*
X012700D01*
X012827Y017031D02*
X012852Y017056D01*
X012878D01*
X012852Y017082D01*
X012878Y017107D01*
X012852D01*
X012827Y017132D01*
X012802Y017107D01*
X012776D01*
X012802Y017082D01*
X012776Y017056D01*
X012802D01*
X012827Y017031D01*
X010640Y013564D02*
Y013665D01*
X010741D01*
Y013564D01*
X010640D01*
X010290D02*
Y013665D01*
X010391D01*
Y013564D01*
X010290D01*
X011834D02*
Y013665D01*
X011935D01*
Y013564D01*
X011834D01*
X011484D02*
Y013665D01*
X011585D01*
Y013564D01*
X011484D01*
X009362Y014146D02*
Y014120D01*
X009413D01*
Y014146D01*
X009439D01*
Y014196D01*
X009413D01*
Y014222D01*
X009362D01*
Y014196D01*
X009337D01*
Y014146D01*
X009362D01*
X009616D02*
Y014120D01*
X009667D01*
Y014146D01*
X009693D01*
Y014196D01*
X009667D01*
Y014222D01*
X009616D01*
Y014196D01*
X009591D01*
Y014146D01*
X009616D01*
X009589Y014630D02*
X009614D01*
X009639Y014656D01*
X009665Y014630D01*
X009690D01*
Y014656D01*
X009665Y014681D01*
X009690Y014707D01*
Y014732D01*
X009665D01*
X009639Y014707D01*
X009614Y014732D01*
X009589D01*
Y014707D01*
X009614Y014681D01*
X009589Y014656D01*
Y014630D01*
X010604D02*
X010630D01*
X010655Y014656D01*
X010681Y014630D01*
X010706D01*
Y014656D01*
X010681Y014681D01*
X010706Y014707D01*
Y014732D01*
X010681D01*
X010655Y014707D01*
X010630Y014732D01*
X010604D01*
Y014707D01*
X010630Y014681D01*
X010604Y014656D01*
Y014630D01*
X012700Y016335D02*
Y016437D01*
X012802D01*
Y016335D01*
X012700D01*
Y015985D02*
Y016087D01*
X012802D01*
Y015985D01*
X012700D01*
X012243Y014376D02*
X012192Y014478D01*
X012294D01*
X012243Y014376D01*
Y014630D02*
X012192Y014732D01*
X012294D01*
X012243Y014630D01*
X008077Y015875D02*
X008103Y015926D01*
X008077Y015977D01*
X008128Y015951D01*
X008179Y015977D01*
X008153Y015926D01*
X008179Y015875D01*
X008128Y015900D01*
X008077Y015875D01*
Y016637D02*
X008103Y016688D01*
X008077Y016739D01*
X008128Y016713D01*
X008179Y016739D01*
X008153Y016688D01*
X008179Y016637D01*
X008128Y016662D01*
X008077Y016637D01*
X008700Y017221D02*
X008750Y017272D01*
X008801Y017221D01*
X008750Y017170D01*
X008700Y017221D01*
X009969Y015311D02*
X010020Y015362D01*
X010071Y015311D01*
X010020Y015260D01*
X009969Y015311D01*
X008700D02*
X008750Y015362D01*
X008801Y015311D01*
X008750Y015260D01*
X008700Y015311D01*
X010289D02*
X010340Y015362D01*
X010391Y015311D01*
X010340Y015260D01*
X010289Y015311D01*
X010610D02*
X010660Y015362D01*
X010711Y015311D01*
X010660Y015260D01*
X010610Y015311D01*
X012200D02*
X012250Y015362D01*
X012301Y015311D01*
X012250Y015260D01*
X012200Y015311D01*
Y017221D02*
X012250Y017272D01*
X012301Y017221D01*
X012250Y017170D01*
X012200Y017221D01*
X005309Y014884D02*
X005359Y014935D01*
X005410Y014884D01*
X005359Y014834D01*
X005309Y014884D01*
X006579Y012974D02*
X006629Y013025D01*
X006680Y012974D01*
X006629Y012924D01*
X006579Y012974D01*
X005309D02*
X005359Y013025D01*
X005410Y012974D01*
X005359Y012924D01*
X005309Y012974D01*
X006899D02*
X006949Y013025D01*
X007000Y012974D01*
X006949Y012924D01*
X006899Y012974D01*
X007219D02*
X007269Y013025D01*
X007320Y012974D01*
X007269Y012924D01*
X007219Y012974D01*
X008809D02*
X008859Y013025D01*
X008910Y012974D01*
X008859Y012924D01*
X008809Y012974D01*
Y014884D02*
X008859Y014935D01*
X008910Y014884D01*
X008859Y014834D01*
X008809Y014884D01*
X010300Y014935D02*
X010325D01*
X010350Y014961D01*
X010376Y014935D01*
X010401D01*
Y014961D01*
X010376Y014986D01*
X010401Y015011D01*
Y015037D01*
X010376D01*
X010350Y015011D01*
X010325Y015037D01*
X010300D01*
Y015011D01*
X010325Y014986D01*
X010300Y014961D01*
Y014935D01*
X009284D02*
X009309D01*
X009335Y014961D01*
X009360Y014935D01*
X009385D01*
Y014961D01*
X009360Y014986D01*
X009385Y015011D01*
Y015037D01*
X009360D01*
X009335Y015011D01*
X009309Y015037D01*
X009284D01*
Y015011D01*
X009309Y014986D01*
X009284Y014961D01*
Y014935D01*
X006896Y015151D02*
X006921D01*
X006947Y015176D01*
X006972Y015151D01*
X006998D01*
Y015176D01*
X006972Y015202D01*
X006998Y015227D01*
Y015253D01*
X006972D01*
X006947Y015227D01*
X006921Y015253D01*
X006896D01*
Y015227D01*
X006921Y015202D01*
X006896Y015176D01*
Y015151D01*
X007912D02*
X007938D01*
X007963Y015176D01*
X007988Y015151D01*
X008014D01*
Y015176D01*
X007988Y015202D01*
X008014Y015227D01*
Y015253D01*
X007988D01*
X007963Y015227D01*
X007938Y015253D01*
X007912D01*
Y015227D01*
X007938Y015202D01*
X007912Y015176D01*
Y015151D01*
X006312Y016919D02*
Y017020D01*
X006414D01*
Y016919D01*
X006312D01*
X006332Y016939D02*
Y017000D01*
X006393D01*
Y016939D01*
X006332D01*
X006312Y015873D02*
Y015974D01*
X006414D01*
Y015873D01*
X006312D01*
X006332Y015893D02*
Y015954D01*
X006393D01*
Y015893D01*
X006332D01*
X006668Y016919D02*
Y017020D01*
X006769D01*
Y016919D01*
X006668D01*
X006688Y016939D02*
Y017000D01*
X006749D01*
Y016939D01*
X006688D01*
X006668Y015873D02*
Y015974D01*
X006769D01*
Y015873D01*
X006668D01*
X006688Y015893D02*
Y015954D01*
X006749D01*
Y015893D01*
X006688D01*
D46*
X007101Y015926D02*
G03*
X007101Y015926I-000051J000000D01*
G01*
X007601D02*
G03*
X007601Y015926I-000051J000000D01*
G01*
X005601D02*
G03*
X005601Y015926I-000051J000000D01*
G01*
X006101D02*
G03*
X006101Y015926I-000051J000000D01*
G01*
M02*
