%FSLAX44Y44*%
%MOMM*%
G71*
G01*
G75*
G04 Layer_Color=16711935*
%ADD10C,3.7000*%
%ADD11C,0.3000*%
%ADD12C,1.3000*%
%ADD13C,1.0000*%
%ADD14R,2.0000X2.0000*%
%ADD15C,2.0000*%
%ADD16C,1.5748*%
%ADD17C,1.5240*%
%ADD18C,1.2000*%
%ADD19R,1.5748X1.5748*%
%ADD20R,2.5000X2.5000*%
%ADD21C,2.5000*%
%ADD22R,1.5748X1.5748*%
%ADD23R,2.5000X2.5000*%
%ADD24C,6.5000*%
%ADD25C,3.0000*%
%ADD26C,0.1500*%
%ADD27C,0.2540*%
%ADD28C,0.2000*%
%ADD29C,0.3048*%
%ADD30R,2.8000X0.8000*%
%ADD31R,2.2032X2.2032*%
%ADD32C,2.2032*%
%ADD33C,1.7780*%
%ADD34C,1.7272*%
%ADD35C,1.4032*%
%ADD36R,1.7780X1.7780*%
%ADD37R,2.7032X2.7032*%
%ADD38C,2.7032*%
%ADD39R,1.7780X1.7780*%
%ADD40R,2.7032X2.7032*%
%ADD41C,6.7032*%
%ADD42C,3.2032*%
%ADD43C,0.1524*%
%ADD44R,38.1000X21.9000*%
D27*
X1332700Y1708150D02*
G03*
X1332700Y1708150I-50000J0D01*
G01*
X786600Y1709420D02*
G03*
X786600Y1709420I-50000J0D01*
G01*
X1331430Y1323340D02*
G03*
X1331430Y1323340I-50000J0D01*
G01*
X1353820Y1672590D02*
G03*
X1273820Y1752590I-80000J0D01*
G01*
X1273810Y1253490D02*
G03*
X1353810Y1333490I0J80000D01*
G01*
X520700Y1184910D02*
Y1752600D01*
X1353820Y1184910D02*
Y1253490D01*
X520700Y1187450D02*
X896123D01*
X970269D02*
X1353820D01*
X520700D02*
X535940Y1182370D01*
X520700Y1187450D02*
X535940Y1192530D01*
X1338580D02*
X1353820Y1187450D01*
X1338580Y1182370D02*
X1353820Y1187450D01*
Y1253490D02*
X1457960D01*
X1353820Y1752600D02*
X1457960D01*
X1455420Y1253490D02*
Y1461908D01*
Y1536054D02*
Y1752600D01*
Y1253490D02*
X1460500Y1268730D01*
X1450340D02*
X1455420Y1253490D01*
X1450340Y1737360D02*
X1455420Y1752600D01*
X1460500Y1737360D01*
X520700Y1752600D02*
X1273820D01*
X1353820Y1333490D02*
Y1672590D01*
X521970Y1253490D02*
X1273810D01*
X520700D02*
Y1752600D01*
D43*
X900187Y1188465D02*
X902726Y1191004D01*
X907804D01*
X910343Y1188465D01*
Y1185926D01*
X907804Y1183387D01*
X910343Y1180848D01*
Y1178308D01*
X907804Y1175769D01*
X902726D01*
X900187Y1178308D01*
Y1180848D01*
X902726Y1183387D01*
X900187Y1185926D01*
Y1188465D01*
X902726Y1183387D02*
X907804D01*
X915422Y1188465D02*
X917961Y1191004D01*
X923039D01*
X925579Y1188465D01*
Y1185926D01*
X923039Y1183387D01*
X920500D01*
X923039D01*
X925579Y1180848D01*
Y1178308D01*
X923039Y1175769D01*
X917961D01*
X915422Y1178308D01*
X933196Y1173230D02*
X935735Y1175769D01*
Y1178308D01*
X933196D01*
Y1175769D01*
X935735D01*
X933196Y1173230D01*
X930657Y1170691D01*
X945892Y1188465D02*
X948431Y1191004D01*
X953509D01*
X956049Y1188465D01*
Y1185926D01*
X953509Y1183387D01*
X950970D01*
X953509D01*
X956049Y1180848D01*
Y1178308D01*
X953509Y1175769D01*
X948431D01*
X945892Y1178308D01*
X961127Y1175769D02*
X966205D01*
X963666D01*
Y1191004D01*
X961127Y1188465D01*
X1467101Y1473589D02*
X1451866D01*
X1459483Y1465972D01*
Y1476128D01*
X1464561Y1481207D02*
X1467101Y1483746D01*
Y1488824D01*
X1464561Y1491364D01*
X1454405D01*
X1451866Y1488824D01*
Y1483746D01*
X1454405Y1481207D01*
X1456944D01*
X1459483Y1483746D01*
Y1491364D01*
X1469640Y1498981D02*
X1467101Y1501520D01*
X1464561D01*
Y1498981D01*
X1467101D01*
Y1501520D01*
X1469640Y1498981D01*
X1472179Y1496442D01*
X1464561Y1511677D02*
X1467101Y1514216D01*
Y1519294D01*
X1464561Y1521834D01*
X1454405D01*
X1451866Y1519294D01*
Y1514216D01*
X1454405Y1511677D01*
X1456944D01*
X1459483Y1514216D01*
Y1521834D01*
X1467101Y1526912D02*
Y1531990D01*
Y1529451D01*
X1451866D01*
X1454405Y1526912D01*
D44*
X711440Y1391940D02*
D03*
X1050530Y1625620D02*
D03*
M02*
