M48
;Layer_Color=9474304
;FILE_FORMAT=4:4
METRIC,LZ
;TYPE=PLATED
T1F00S00C0.7000
T2F00S00C0.7620
T3F00S00C0.8000
T4F00S00C0.8128
T5F00S00C0.8500
T6F00S00C1.2000
T7F00S00C1.3000
T8F00S00C1.4000
T9F00S00C3.4000
%
T01
X0056515Y0152908
X0064135
X008128Y0159258
Y0166878
T02
X0122503Y0153112
X0106603
X0103403
X0100203
X0087503
X0088594Y0148844
Y0129744
X0072694
X0069494
X0066294
X0053594
Y0148844
X0087503Y0172212
X0122503
T03
X0122428Y0144272
Y0146812
X0094234Y0132207
Y0129667
T04
X0093877Y0141709
X0096417
T05
X0079629Y0152019
X0093345Y014986
X0096393Y0146812
X0103505Y014986
X0106553Y0146812
X0069469Y0152019
T06
X0063627Y0159235
X0067183
Y0169695
X0063627
T07
X0055499Y0159258
X0060499
X0070499
X0075499
T08
X0127508Y01403577
Y01438577
Y01503589
Y01538589
X0118844Y0136144
X0115344
X0106906
X0103406
X0059944Y0165902
Y0170902
X0127508Y01638602
Y01603602
T09
X0128143Y0132334
X007366Y0170942
X012827Y0170815
M30
