%FSLAX44Y44*%
%MOMM*%
G71*
G01*
G75*
%ADD10C,2.0000*%
%ADD11C,1.5000*%
%ADD12C,2.5400*%
%ADD13C,1.2700*%
%ADD14C,1.0000*%
%ADD15C,0.7000*%
%ADD16R,3.5000X3.5000*%
%ADD17C,3.5000*%
%ADD18R,1.5748X1.5748*%
%ADD19C,1.5748*%
%ADD20C,2.4000*%
%ADD21C,1.4000*%
%ADD22O,1.0000X2.0000*%
%ADD23O,1.0000X2.0000*%
%ADD24C,2.0000*%
%ADD25R,2.0000X2.0000*%
%ADD26R,3.5000X3.5000*%
%ADD27R,1.9050X1.9050*%
%ADD28C,1.9050*%
%ADD29C,6.5000*%
%ADD30C,1.5240*%
%ADD31C,3.0000*%
%ADD32R,3.7032X3.7032*%
%ADD33C,3.7032*%
%ADD34R,1.7780X1.7780*%
%ADD35C,1.7780*%
%ADD36C,2.6032*%
%ADD37C,1.6032*%
%ADD38O,1.2032X2.2032*%
%ADD39O,1.2032X2.2032*%
%ADD40C,2.2032*%
%ADD41R,2.2032X2.2032*%
%ADD42R,3.7032X3.7032*%
%ADD43R,2.1082X2.1082*%
%ADD44C,2.1082*%
%ADD45C,6.7032*%
%ADD46C,1.7272*%
%ADD47C,3.2032*%
%ADD48C,0.1270*%
D48*
X1555970Y1661160D02*
X1569970D01*
X1562970Y1654160D02*
Y1668160D01*
X1505970Y1661160D02*
X1519970D01*
X1512970Y1654160D02*
Y1668160D01*
X1431510Y1662430D02*
X1445510D01*
X1438510Y1655430D02*
Y1669430D01*
X1381510Y1662430D02*
X1395510D01*
X1388510Y1655430D02*
Y1669430D01*
X1672106Y1020840D02*
X1680234D01*
X1676170Y1016776D02*
Y1024904D01*
X1672106Y995440D02*
X1680234D01*
X1676170Y991376D02*
Y999504D01*
X1103980Y975360D02*
X1115980D01*
X1109980Y969360D02*
Y981360D01*
X1307180Y975360D02*
X1319180D01*
X1313180Y969360D02*
Y981360D01*
X1090010Y1649730D02*
X1102010D01*
X1096010Y1643730D02*
Y1655730D01*
X1293210Y1649730D02*
X1305210D01*
X1299210Y1643730D02*
Y1655730D01*
X1542130Y1103630D02*
X1554130D01*
X1548130Y1097630D02*
Y1109630D01*
X1542130Y900430D02*
X1554130D01*
X1548130Y894430D02*
Y906430D01*
X760290Y882650D02*
X768790D01*
X764540Y878400D02*
Y886900D01*
X861890Y882650D02*
X870390D01*
X866140Y878400D02*
Y886900D01*
X815920Y941070D02*
X824920D01*
X820420Y936570D02*
Y945570D01*
X803220Y941070D02*
X812220D01*
X807720Y936570D02*
Y945570D01*
X790520Y941070D02*
X799520D01*
X795020Y936570D02*
Y945570D01*
X594480Y1324610D02*
X606480D01*
X600480Y1318610D02*
Y1330610D01*
X699080Y1324610D02*
X711080D01*
X705080Y1318610D02*
Y1330610D01*
X594480Y1254760D02*
X606480D01*
X600480Y1248760D02*
Y1260760D01*
X699080Y1254760D02*
X711080D01*
X705080Y1248760D02*
Y1260760D01*
X1512380Y1253490D02*
X1520380D01*
X1516380Y1249490D02*
Y1257490D01*
X1512380Y1228090D02*
X1520380D01*
X1516380Y1224090D02*
Y1232090D01*
X1517460Y1553210D02*
X1525460D01*
X1521460Y1549210D02*
Y1557210D01*
X1517460Y1527810D02*
X1525460D01*
X1521460Y1523810D02*
Y1531810D01*
X868490Y1459230D02*
X876490D01*
X872490Y1455230D02*
Y1463230D01*
X868490Y1484630D02*
X876490D01*
X872490Y1480630D02*
Y1488630D01*
X874840Y1162050D02*
X882840D01*
X878840Y1158050D02*
Y1166050D01*
X874840Y1187450D02*
X882840D01*
X878840Y1183450D02*
Y1191450D01*
X631810Y1615040D02*
X645810D01*
X638810Y1608040D02*
Y1622040D01*
X631810Y1565040D02*
X645810D01*
X638810Y1558040D02*
Y1572040D01*
X1646540Y1245000D02*
X1660540D01*
X1653540Y1238000D02*
Y1252000D01*
X1646540Y1295000D02*
X1660540D01*
X1653540Y1288000D02*
Y1302000D01*
X1649080Y1110380D02*
X1663080D01*
X1656080Y1103380D02*
Y1117380D01*
X1649080Y1160380D02*
X1663080D01*
X1656080Y1153380D02*
Y1167380D01*
X1641460Y1459630D02*
X1655460D01*
X1648460Y1452630D02*
Y1466630D01*
X1641460Y1509630D02*
X1655460D01*
X1648460Y1502630D02*
Y1516630D01*
X1641460Y1584090D02*
X1655460D01*
X1648460Y1577090D02*
Y1591090D01*
X1641460Y1634090D02*
X1655460D01*
X1648460Y1627090D02*
Y1641090D01*
X620780Y890270D02*
X634780D01*
X627780Y883270D02*
Y897270D01*
X670780Y890270D02*
X684780D01*
X677780Y883270D02*
Y897270D01*
X1641460Y841140D02*
X1655460D01*
X1648460Y834140D02*
Y848140D01*
X1641460Y891140D02*
X1655460D01*
X1648460Y884140D02*
Y898140D01*
X950810Y1250950D02*
X961810D01*
X956310Y1245450D02*
Y1256450D01*
X950810Y1187450D02*
X961810D01*
X956310Y1181950D02*
Y1192950D01*
X950810Y1123950D02*
X961810D01*
X956310Y1118450D02*
Y1129450D01*
X950810Y1060450D02*
X961810D01*
X956310Y1054950D02*
Y1065950D01*
X1439760Y1060450D02*
X1450760D01*
X1445260Y1054950D02*
Y1065950D01*
X1439760Y1092200D02*
X1450760D01*
X1445260Y1086700D02*
Y1097700D01*
X1439760Y1123950D02*
X1450760D01*
X1445260Y1118450D02*
Y1129450D01*
X1439760Y1155700D02*
X1450760D01*
X1445260Y1150200D02*
Y1161200D01*
X1439760Y1187450D02*
X1450760D01*
X1445260Y1181950D02*
Y1192950D01*
X1439760Y1219200D02*
X1450760D01*
X1445260Y1213700D02*
Y1224700D01*
X1439760Y1250950D02*
X1450760D01*
X1445260Y1245450D02*
Y1256450D01*
X950810Y1563370D02*
X961810D01*
X956310Y1557870D02*
Y1568870D01*
X950810Y1499870D02*
X961810D01*
X956310Y1494370D02*
Y1505370D01*
X950810Y1436370D02*
X961810D01*
X956310Y1430870D02*
Y1441870D01*
X950810Y1372870D02*
X961810D01*
X956310Y1367370D02*
Y1378370D01*
X1439760Y1372870D02*
X1450760D01*
X1445260Y1367370D02*
Y1378370D01*
X1439760Y1404620D02*
X1450760D01*
X1445260Y1399120D02*
Y1410120D01*
X1439760Y1436370D02*
X1450760D01*
X1445260Y1430870D02*
Y1441870D01*
X1439760Y1468120D02*
X1450760D01*
X1445260Y1462620D02*
Y1473620D01*
X1439760Y1499870D02*
X1450760D01*
X1445260Y1494370D02*
Y1505370D01*
X1439760Y1531620D02*
X1450760D01*
X1445260Y1526120D02*
Y1537120D01*
X1439760Y1563370D02*
X1450760D01*
X1445260Y1557870D02*
Y1568870D01*
X609110Y1040130D02*
X643110D01*
X626110Y1023130D02*
Y1057130D01*
X607840Y1433830D02*
X641840D01*
X624840Y1416830D02*
Y1450830D01*
X1532400Y1395730D02*
X1566400D01*
X1549400Y1378730D02*
Y1412730D01*
X1075020Y844750D02*
X1082640D01*
X1078830Y840940D02*
Y848560D01*
X922020Y844750D02*
X929640D01*
X925830Y840940D02*
Y848560D01*
X1101020Y920750D02*
X1108640D01*
X1104830Y916940D02*
Y924560D01*
X1024020Y920750D02*
X1031640D01*
X1027830Y916940D02*
Y924560D01*
X922020Y920750D02*
X929640D01*
X925830Y916940D02*
Y924560D01*
X777090Y1255230D02*
X790090D01*
X783590Y1248730D02*
Y1261730D01*
X777090Y1205230D02*
X790090D01*
X783590Y1198730D02*
Y1211730D01*
X777090Y1405230D02*
X790090D01*
X783590Y1398730D02*
Y1411730D01*
X777090Y1355230D02*
X790090D01*
X783590Y1348730D02*
Y1361730D01*
M02*
