%FSLAX44Y44*%
%MOMM*%
G71*
G01*
G75*
G04 Layer_Color=16711935*
%ADD10C,1.5000*%
%ADD11C,1.2700*%
%ADD12C,1.0000*%
%ADD13C,0.7000*%
%ADD14R,1.5748X1.5748*%
%ADD15C,1.5748*%
%ADD16C,2.4000*%
%ADD17C,1.4000*%
%ADD18O,1.0000X2.0000*%
%ADD19O,1.0000X2.0000*%
%ADD20C,2.0000*%
%ADD21R,2.0000X2.0000*%
%ADD22R,3.5000X3.5000*%
%ADD23C,3.5000*%
%ADD24R,3.5000X3.5000*%
%ADD25R,1.9050X1.9050*%
%ADD26C,1.9050*%
%ADD27C,6.5000*%
%ADD28C,1.5240*%
%ADD29R,1.7780X1.7780*%
%ADD30C,1.7780*%
%ADD31C,2.6032*%
%ADD32C,1.6032*%
%ADD33O,1.2032X2.2032*%
%ADD34O,1.2032X2.2032*%
%ADD35C,2.2032*%
%ADD36R,2.2032X2.2032*%
%ADD37R,3.7032X3.7032*%
%ADD38C,3.7032*%
%ADD39R,3.7032X3.7032*%
%ADD40R,2.1082X2.1082*%
%ADD41C,2.1082*%
%ADD42C,6.7032*%
%ADD43C,1.7272*%
D29*
X1676170Y1020840D02*
D03*
X1516380Y1228090D02*
D03*
X1521460Y1527810D02*
D03*
X872490Y1484630D02*
D03*
X878840Y1187450D02*
D03*
D30*
X1676170Y995440D02*
D03*
X1516380Y1253490D02*
D03*
X1521460Y1553210D02*
D03*
X872490Y1459230D02*
D03*
X878840Y1162050D02*
D03*
D31*
X1109980Y975360D02*
D03*
X1313180D02*
D03*
X1096010Y1649730D02*
D03*
X1299210D02*
D03*
X1548130Y1103630D02*
D03*
Y900430D02*
D03*
D32*
X764540Y882650D02*
D03*
X866140D02*
D03*
D33*
X820420Y941070D02*
D03*
X795020D02*
D03*
D34*
X807720D02*
D03*
D35*
X719860Y1614170D02*
D03*
X730020Y1691640D02*
D03*
D36*
X824460Y1614170D02*
D03*
X834620Y1691640D02*
D03*
D37*
X638810Y1615040D02*
D03*
X1653540Y1245000D02*
D03*
X1656080Y1110380D02*
D03*
X1648460Y1459630D02*
D03*
Y1584090D02*
D03*
Y841140D02*
D03*
D38*
X638810Y1565040D02*
D03*
X1653540Y1295000D02*
D03*
X1656080Y1160380D02*
D03*
X1648460Y1509630D02*
D03*
Y1634090D02*
D03*
X677780Y890270D02*
D03*
X1648460Y891140D02*
D03*
D39*
X627780Y890270D02*
D03*
D40*
X956310Y1250950D02*
D03*
Y1563370D02*
D03*
D41*
Y1187450D02*
D03*
Y1123950D02*
D03*
Y1060450D02*
D03*
X1445260D02*
D03*
Y1092200D02*
D03*
Y1123950D02*
D03*
Y1155700D02*
D03*
Y1187450D02*
D03*
Y1219200D02*
D03*
Y1250950D02*
D03*
X956310Y1499870D02*
D03*
Y1436370D02*
D03*
Y1372870D02*
D03*
X1445260D02*
D03*
Y1404620D02*
D03*
Y1436370D02*
D03*
Y1468120D02*
D03*
Y1499870D02*
D03*
Y1531620D02*
D03*
Y1563370D02*
D03*
D42*
X626110Y1040130D02*
D03*
X624840Y1433830D02*
D03*
X1549400Y1395730D02*
D03*
D43*
X1078830Y844750D02*
D03*
X925830D02*
D03*
X1104830Y920750D02*
D03*
X1027830D02*
D03*
X925830D02*
D03*
M02*
