%FSLAX44Y44*%
%MOMM*%
G71*
G01*
G75*
G04 Layer_Color=2752767*
%ADD10C,2.0000*%
%ADD11C,1.5000*%
%ADD12C,2.5400*%
%ADD13C,1.2700*%
%ADD14C,1.0000*%
%ADD15C,0.7000*%
%ADD16R,3.5000X3.5000*%
%ADD17C,3.5000*%
%ADD18R,1.5748X1.5748*%
%ADD19C,1.5748*%
%ADD20C,2.4000*%
%ADD21C,1.4000*%
%ADD22O,1.0000X2.0000*%
%ADD23O,1.0000X2.0000*%
%ADD24C,2.0000*%
%ADD25R,2.0000X2.0000*%
%ADD26R,3.5000X3.5000*%
%ADD27R,1.9050X1.9050*%
%ADD28C,1.9050*%
%ADD29C,6.5000*%
%ADD30C,1.5240*%
%ADD31C,3.0000*%
%ADD32R,3.7032X3.7032*%
%ADD33C,3.7032*%
%ADD34R,1.7780X1.7780*%
%ADD35C,1.7780*%
%ADD36C,2.6032*%
%ADD37C,1.6032*%
%ADD38O,1.2032X2.2032*%
%ADD39O,1.2032X2.2032*%
%ADD40C,2.2032*%
%ADD41R,2.2032X2.2032*%
%ADD42R,3.7032X3.7032*%
%ADD43R,2.1082X2.1082*%
%ADD44C,2.1082*%
%ADD45C,6.7032*%
%ADD46C,1.7272*%
%ADD47C,3.2032*%
%ADD48C,0.1270*%
D48*
X1562970Y1661160D02*
X1567202D01*
X1565086D01*
Y1673856D01*
X1562970Y1671740D01*
X1573550Y1661160D02*
Y1663276D01*
X1575666D01*
Y1661160D01*
X1573550D01*
X1590478D02*
Y1673856D01*
X1584130Y1667508D01*
X1592594D01*
X1512970Y1661160D02*
X1517202D01*
X1515086D01*
Y1673856D01*
X1512970Y1671740D01*
X1523550Y1661160D02*
Y1663276D01*
X1525666D01*
Y1661160D01*
X1523550D01*
X1540478D02*
Y1673856D01*
X1534130Y1667508D01*
X1542594D01*
X1438510Y1662430D02*
X1442742D01*
X1440626D01*
Y1675126D01*
X1438510Y1673010D01*
X1449090Y1662430D02*
Y1664546D01*
X1451206D01*
Y1662430D01*
X1449090D01*
X1466018D02*
Y1675126D01*
X1459670Y1668778D01*
X1468134D01*
X1388510Y1662430D02*
X1392742D01*
X1390626D01*
Y1675126D01*
X1388510Y1673010D01*
X1399090Y1662430D02*
Y1664546D01*
X1401206D01*
Y1662430D01*
X1399090D01*
X1416018D02*
Y1675126D01*
X1409670Y1668778D01*
X1418134D01*
X1676170Y1031420D02*
X1678286Y1033536D01*
X1682518D01*
X1684634Y1031420D01*
Y1022956D01*
X1682518Y1020840D01*
X1678286D01*
X1676170Y1022956D01*
Y1031420D01*
X1688866Y1020840D02*
Y1022956D01*
X1690982D01*
Y1020840D01*
X1688866D01*
X1699446Y1031420D02*
X1701562Y1033536D01*
X1705794D01*
X1707910Y1031420D01*
Y1029304D01*
X1705794Y1027188D01*
X1707910Y1025072D01*
Y1022956D01*
X1705794Y1020840D01*
X1701562D01*
X1699446Y1022956D01*
Y1025072D01*
X1701562Y1027188D01*
X1699446Y1029304D01*
Y1031420D01*
X1701562Y1027188D02*
X1705794D01*
X1712142Y1020840D02*
X1716373D01*
X1714258D01*
Y1033536D01*
X1712142Y1031420D01*
X1731185Y1020840D02*
X1722722D01*
X1731185Y1029304D01*
Y1031420D01*
X1729069Y1033536D01*
X1724837D01*
X1722722Y1031420D01*
X1735417D02*
X1737533Y1033536D01*
X1741765D01*
X1743881Y1031420D01*
Y1029304D01*
X1741765Y1027188D01*
X1743881Y1025072D01*
Y1022956D01*
X1741765Y1020840D01*
X1737533D01*
X1735417Y1022956D01*
Y1025072D01*
X1737533Y1027188D01*
X1735417Y1029304D01*
Y1031420D01*
X1737533Y1027188D02*
X1741765D01*
X1676170Y1006020D02*
X1678286Y1008136D01*
X1682518D01*
X1684634Y1006020D01*
Y997556D01*
X1682518Y995440D01*
X1678286D01*
X1676170Y997556D01*
Y1006020D01*
X1688866Y995440D02*
Y997556D01*
X1690982D01*
Y995440D01*
X1688866D01*
X1699446Y1006020D02*
X1701562Y1008136D01*
X1705794D01*
X1707910Y1006020D01*
Y1003904D01*
X1705794Y1001788D01*
X1707910Y999672D01*
Y997556D01*
X1705794Y995440D01*
X1701562D01*
X1699446Y997556D01*
Y999672D01*
X1701562Y1001788D01*
X1699446Y1003904D01*
Y1006020D01*
X1701562Y1001788D02*
X1705794D01*
X1712142Y995440D02*
X1716373D01*
X1714258D01*
Y1008136D01*
X1712142Y1006020D01*
X1731185Y995440D02*
X1722722D01*
X1731185Y1003904D01*
Y1006020D01*
X1729069Y1008136D01*
X1724837D01*
X1722722Y1006020D01*
X1735417D02*
X1737533Y1008136D01*
X1741765D01*
X1743881Y1006020D01*
Y1003904D01*
X1741765Y1001788D01*
X1743881Y999672D01*
Y997556D01*
X1741765Y995440D01*
X1737533D01*
X1735417Y997556D01*
Y999672D01*
X1737533Y1001788D01*
X1735417Y1003904D01*
Y1006020D01*
X1737533Y1001788D02*
X1741765D01*
X1109980Y975360D02*
X1114212D01*
X1112096D01*
Y988056D01*
X1109980Y985940D01*
X1120560Y975360D02*
Y977476D01*
X1122676D01*
Y975360D01*
X1120560D01*
X1139604D02*
X1131140D01*
X1139604Y983824D01*
Y985940D01*
X1137488Y988056D01*
X1133256D01*
X1131140Y985940D01*
X1313180Y975360D02*
X1317412D01*
X1315296D01*
Y988056D01*
X1313180Y985940D01*
X1323760Y975360D02*
Y977476D01*
X1325876D01*
Y975360D01*
X1323760D01*
X1342804D02*
X1334340D01*
X1342804Y983824D01*
Y985940D01*
X1340688Y988056D01*
X1336456D01*
X1334340Y985940D01*
X1096010Y1649730D02*
X1100242D01*
X1098126D01*
Y1662426D01*
X1096010Y1660310D01*
X1106590Y1649730D02*
Y1651846D01*
X1108706D01*
Y1649730D01*
X1106590D01*
X1125634D02*
X1117170D01*
X1125634Y1658194D01*
Y1660310D01*
X1123518Y1662426D01*
X1119286D01*
X1117170Y1660310D01*
X1299210Y1649730D02*
X1303442D01*
X1301326D01*
Y1662426D01*
X1299210Y1660310D01*
X1309790Y1649730D02*
Y1651846D01*
X1311906D01*
Y1649730D01*
X1309790D01*
X1328834D02*
X1320370D01*
X1328834Y1658194D01*
Y1660310D01*
X1326718Y1662426D01*
X1322486D01*
X1320370Y1660310D01*
X1548130Y1103630D02*
X1552362D01*
X1550246D01*
Y1116326D01*
X1548130Y1114210D01*
X1558710Y1103630D02*
Y1105746D01*
X1560826D01*
Y1103630D01*
X1558710D01*
X1577754D02*
X1569290D01*
X1577754Y1112094D01*
Y1114210D01*
X1575638Y1116326D01*
X1571406D01*
X1569290Y1114210D01*
X1548130Y900430D02*
X1552362D01*
X1550246D01*
Y913126D01*
X1548130Y911010D01*
X1558710Y900430D02*
Y902546D01*
X1560826D01*
Y900430D01*
X1558710D01*
X1577754D02*
X1569290D01*
X1577754Y908894D01*
Y911010D01*
X1575638Y913126D01*
X1571406D01*
X1569290Y911010D01*
X764540Y893230D02*
X766656Y895346D01*
X770888D01*
X773004Y893230D01*
Y884766D01*
X770888Y882650D01*
X766656D01*
X764540Y884766D01*
Y893230D01*
X777236Y882650D02*
Y884766D01*
X779352D01*
Y882650D01*
X777236D01*
X787816Y893230D02*
X789932Y895346D01*
X794164D01*
X796280Y893230D01*
Y891114D01*
X794164Y888998D01*
X796280Y886882D01*
Y884766D01*
X794164Y882650D01*
X789932D01*
X787816Y884766D01*
Y886882D01*
X789932Y888998D01*
X787816Y891114D01*
Y893230D01*
X789932Y888998D02*
X794164D01*
X808976Y895346D02*
X800512D01*
Y888998D01*
X804744Y891114D01*
X806860D01*
X808976Y888998D01*
Y884766D01*
X806860Y882650D01*
X802628D01*
X800512Y884766D01*
X866140Y893230D02*
X868256Y895346D01*
X872488D01*
X874604Y893230D01*
Y884766D01*
X872488Y882650D01*
X868256D01*
X866140Y884766D01*
Y893230D01*
X878836Y882650D02*
Y884766D01*
X880952D01*
Y882650D01*
X878836D01*
X889416Y893230D02*
X891532Y895346D01*
X895764D01*
X897880Y893230D01*
Y891114D01*
X895764Y888998D01*
X897880Y886882D01*
Y884766D01*
X895764Y882650D01*
X891532D01*
X889416Y884766D01*
Y886882D01*
X891532Y888998D01*
X889416Y891114D01*
Y893230D01*
X891532Y888998D02*
X895764D01*
X910576Y895346D02*
X902112D01*
Y888998D01*
X906344Y891114D01*
X908460D01*
X910576Y888998D01*
Y884766D01*
X908460Y882650D01*
X904228D01*
X902112Y884766D01*
X820420Y951650D02*
X822536Y953766D01*
X826768D01*
X828884Y951650D01*
Y943186D01*
X826768Y941070D01*
X822536D01*
X820420Y943186D01*
Y951650D01*
X833116Y941070D02*
Y943186D01*
X835232D01*
Y941070D01*
X833116D01*
X843696Y943186D02*
X845812Y941070D01*
X850044D01*
X852160Y943186D01*
Y951650D01*
X850044Y953766D01*
X845812D01*
X843696Y951650D01*
Y949534D01*
X845812Y947418D01*
X852160D01*
X807720Y951650D02*
X809836Y953766D01*
X814068D01*
X816184Y951650D01*
Y943186D01*
X814068Y941070D01*
X809836D01*
X807720Y943186D01*
Y951650D01*
X820416Y941070D02*
Y943186D01*
X822532D01*
Y941070D01*
X820416D01*
X830996Y943186D02*
X833112Y941070D01*
X837344D01*
X839460Y943186D01*
Y951650D01*
X837344Y953766D01*
X833112D01*
X830996Y951650D01*
Y949534D01*
X833112Y947418D01*
X839460D01*
X795020Y951650D02*
X797136Y953766D01*
X801368D01*
X803484Y951650D01*
Y943186D01*
X801368Y941070D01*
X797136D01*
X795020Y943186D01*
Y951650D01*
X807716Y941070D02*
Y943186D01*
X809832D01*
Y941070D01*
X807716D01*
X818296Y943186D02*
X820412Y941070D01*
X824644D01*
X826760Y943186D01*
Y951650D01*
X824644Y953766D01*
X820412D01*
X818296Y951650D01*
Y949534D01*
X820412Y947418D01*
X826760D01*
X600480Y1324610D02*
X604712D01*
X602596D01*
Y1337306D01*
X600480Y1335190D01*
X611060Y1324610D02*
Y1326726D01*
X613176D01*
Y1324610D01*
X611060D01*
X630104D02*
X621640D01*
X630104Y1333074D01*
Y1335190D01*
X627988Y1337306D01*
X623756D01*
X621640Y1335190D01*
X705080Y1324610D02*
X709312D01*
X707196D01*
Y1337306D01*
X705080Y1335190D01*
X715660Y1324610D02*
Y1326726D01*
X717776D01*
Y1324610D01*
X715660D01*
X734704D02*
X726240D01*
X734704Y1333074D01*
Y1335190D01*
X732588Y1337306D01*
X728356D01*
X726240Y1335190D01*
X600480Y1254760D02*
X604712D01*
X602596D01*
Y1267456D01*
X600480Y1265340D01*
X611060Y1254760D02*
Y1256876D01*
X613176D01*
Y1254760D01*
X611060D01*
X630104D02*
X621640D01*
X630104Y1263224D01*
Y1265340D01*
X627988Y1267456D01*
X623756D01*
X621640Y1265340D01*
X705080Y1254760D02*
X709312D01*
X707196D01*
Y1267456D01*
X705080Y1265340D01*
X715660Y1254760D02*
Y1256876D01*
X717776D01*
Y1254760D01*
X715660D01*
X734704D02*
X726240D01*
X734704Y1263224D01*
Y1265340D01*
X732588Y1267456D01*
X728356D01*
X726240Y1265340D01*
X1516380Y1264070D02*
X1518496Y1266186D01*
X1522728D01*
X1524844Y1264070D01*
Y1255606D01*
X1522728Y1253490D01*
X1518496D01*
X1516380Y1255606D01*
Y1264070D01*
X1529076Y1253490D02*
Y1255606D01*
X1531192D01*
Y1253490D01*
X1529076D01*
X1539656Y1264070D02*
X1541772Y1266186D01*
X1546004D01*
X1548120Y1264070D01*
Y1261954D01*
X1546004Y1259838D01*
X1548120Y1257722D01*
Y1255606D01*
X1546004Y1253490D01*
X1541772D01*
X1539656Y1255606D01*
Y1257722D01*
X1541772Y1259838D01*
X1539656Y1261954D01*
Y1264070D01*
X1541772Y1259838D02*
X1546004D01*
X1516380Y1238670D02*
X1518496Y1240786D01*
X1522728D01*
X1524844Y1238670D01*
Y1230206D01*
X1522728Y1228090D01*
X1518496D01*
X1516380Y1230206D01*
Y1238670D01*
X1529076Y1228090D02*
Y1230206D01*
X1531192D01*
Y1228090D01*
X1529076D01*
X1539656Y1238670D02*
X1541772Y1240786D01*
X1546004D01*
X1548120Y1238670D01*
Y1236554D01*
X1546004Y1234438D01*
X1548120Y1232322D01*
Y1230206D01*
X1546004Y1228090D01*
X1541772D01*
X1539656Y1230206D01*
Y1232322D01*
X1541772Y1234438D01*
X1539656Y1236554D01*
Y1238670D01*
X1541772Y1234438D02*
X1546004D01*
X1521460Y1563790D02*
X1523576Y1565906D01*
X1527808D01*
X1529924Y1563790D01*
Y1555326D01*
X1527808Y1553210D01*
X1523576D01*
X1521460Y1555326D01*
Y1563790D01*
X1534156Y1553210D02*
Y1555326D01*
X1536272D01*
Y1553210D01*
X1534156D01*
X1544736Y1563790D02*
X1546852Y1565906D01*
X1551084D01*
X1553200Y1563790D01*
Y1561674D01*
X1551084Y1559558D01*
X1553200Y1557442D01*
Y1555326D01*
X1551084Y1553210D01*
X1546852D01*
X1544736Y1555326D01*
Y1557442D01*
X1546852Y1559558D01*
X1544736Y1561674D01*
Y1563790D01*
X1546852Y1559558D02*
X1551084D01*
X1521460Y1538390D02*
X1523576Y1540506D01*
X1527808D01*
X1529924Y1538390D01*
Y1529926D01*
X1527808Y1527810D01*
X1523576D01*
X1521460Y1529926D01*
Y1538390D01*
X1534156Y1527810D02*
Y1529926D01*
X1536272D01*
Y1527810D01*
X1534156D01*
X1544736Y1538390D02*
X1546852Y1540506D01*
X1551084D01*
X1553200Y1538390D01*
Y1536274D01*
X1551084Y1534158D01*
X1553200Y1532042D01*
Y1529926D01*
X1551084Y1527810D01*
X1546852D01*
X1544736Y1529926D01*
Y1532042D01*
X1546852Y1534158D01*
X1544736Y1536274D01*
Y1538390D01*
X1546852Y1534158D02*
X1551084D01*
X872490Y1469810D02*
X874606Y1471926D01*
X878838D01*
X880954Y1469810D01*
Y1461346D01*
X878838Y1459230D01*
X874606D01*
X872490Y1461346D01*
Y1469810D01*
X885186Y1459230D02*
Y1461346D01*
X887302D01*
Y1459230D01*
X885186D01*
X895766Y1469810D02*
X897882Y1471926D01*
X902114D01*
X904230Y1469810D01*
Y1467694D01*
X902114Y1465578D01*
X904230Y1463462D01*
Y1461346D01*
X902114Y1459230D01*
X897882D01*
X895766Y1461346D01*
Y1463462D01*
X897882Y1465578D01*
X895766Y1467694D01*
Y1469810D01*
X897882Y1465578D02*
X902114D01*
X872490Y1495210D02*
X874606Y1497326D01*
X878838D01*
X880954Y1495210D01*
Y1486746D01*
X878838Y1484630D01*
X874606D01*
X872490Y1486746D01*
Y1495210D01*
X885186Y1484630D02*
Y1486746D01*
X887302D01*
Y1484630D01*
X885186D01*
X895766Y1495210D02*
X897882Y1497326D01*
X902114D01*
X904230Y1495210D01*
Y1493094D01*
X902114Y1490978D01*
X904230Y1488862D01*
Y1486746D01*
X902114Y1484630D01*
X897882D01*
X895766Y1486746D01*
Y1488862D01*
X897882Y1490978D01*
X895766Y1493094D01*
Y1495210D01*
X897882Y1490978D02*
X902114D01*
X878840Y1172630D02*
X880956Y1174746D01*
X885188D01*
X887304Y1172630D01*
Y1164166D01*
X885188Y1162050D01*
X880956D01*
X878840Y1164166D01*
Y1172630D01*
X891536Y1162050D02*
Y1164166D01*
X893652D01*
Y1162050D01*
X891536D01*
X902116Y1172630D02*
X904232Y1174746D01*
X908464D01*
X910580Y1172630D01*
Y1170514D01*
X908464Y1168398D01*
X910580Y1166282D01*
Y1164166D01*
X908464Y1162050D01*
X904232D01*
X902116Y1164166D01*
Y1166282D01*
X904232Y1168398D01*
X902116Y1170514D01*
Y1172630D01*
X904232Y1168398D02*
X908464D01*
X878840Y1198030D02*
X880956Y1200146D01*
X885188D01*
X887304Y1198030D01*
Y1189566D01*
X885188Y1187450D01*
X880956D01*
X878840Y1189566D01*
Y1198030D01*
X891536Y1187450D02*
Y1189566D01*
X893652D01*
Y1187450D01*
X891536D01*
X902116Y1198030D02*
X904232Y1200146D01*
X908464D01*
X910580Y1198030D01*
Y1195914D01*
X908464Y1193798D01*
X910580Y1191682D01*
Y1189566D01*
X908464Y1187450D01*
X904232D01*
X902116Y1189566D01*
Y1191682D01*
X904232Y1193798D01*
X902116Y1195914D01*
Y1198030D01*
X904232Y1193798D02*
X908464D01*
X638810Y1615040D02*
X643042D01*
X640926D01*
Y1627736D01*
X638810Y1625620D01*
X649390Y1615040D02*
Y1617156D01*
X651506D01*
Y1615040D01*
X649390D01*
X666318D02*
Y1627736D01*
X659970Y1621388D01*
X668434D01*
X638810Y1565040D02*
X643042D01*
X640926D01*
Y1577736D01*
X638810Y1575620D01*
X649390Y1565040D02*
Y1567156D01*
X651506D01*
Y1565040D01*
X649390D01*
X666318D02*
Y1577736D01*
X659970Y1571388D01*
X668434D01*
X1653540Y1245000D02*
X1657772D01*
X1655656D01*
Y1257696D01*
X1653540Y1255580D01*
X1664120Y1245000D02*
Y1247116D01*
X1666236D01*
Y1245000D01*
X1664120D01*
X1681048D02*
Y1257696D01*
X1674700Y1251348D01*
X1683164D01*
X1653540Y1295000D02*
X1657772D01*
X1655656D01*
Y1307696D01*
X1653540Y1305580D01*
X1664120Y1295000D02*
Y1297116D01*
X1666236D01*
Y1295000D01*
X1664120D01*
X1681048D02*
Y1307696D01*
X1674700Y1301348D01*
X1683164D01*
X1656080Y1110380D02*
X1660312D01*
X1658196D01*
Y1123076D01*
X1656080Y1120960D01*
X1666660Y1110380D02*
Y1112496D01*
X1668776D01*
Y1110380D01*
X1666660D01*
X1683588D02*
Y1123076D01*
X1677240Y1116728D01*
X1685704D01*
X1656080Y1160380D02*
X1660312D01*
X1658196D01*
Y1173076D01*
X1656080Y1170960D01*
X1666660Y1160380D02*
Y1162496D01*
X1668776D01*
Y1160380D01*
X1666660D01*
X1683588D02*
Y1173076D01*
X1677240Y1166728D01*
X1685704D01*
X1648460Y1459630D02*
X1652692D01*
X1650576D01*
Y1472326D01*
X1648460Y1470210D01*
X1659040Y1459630D02*
Y1461746D01*
X1661156D01*
Y1459630D01*
X1659040D01*
X1675968D02*
Y1472326D01*
X1669620Y1465978D01*
X1678084D01*
X1648460Y1509630D02*
X1652692D01*
X1650576D01*
Y1522326D01*
X1648460Y1520210D01*
X1659040Y1509630D02*
Y1511746D01*
X1661156D01*
Y1509630D01*
X1659040D01*
X1675968D02*
Y1522326D01*
X1669620Y1515978D01*
X1678084D01*
X1648460Y1584090D02*
X1652692D01*
X1650576D01*
Y1596786D01*
X1648460Y1594670D01*
X1659040Y1584090D02*
Y1586206D01*
X1661156D01*
Y1584090D01*
X1659040D01*
X1675968D02*
Y1596786D01*
X1669620Y1590438D01*
X1678084D01*
X1648460Y1634090D02*
X1652692D01*
X1650576D01*
Y1646786D01*
X1648460Y1644670D01*
X1659040Y1634090D02*
Y1636206D01*
X1661156D01*
Y1634090D01*
X1659040D01*
X1675968D02*
Y1646786D01*
X1669620Y1640438D01*
X1678084D01*
X627780Y890270D02*
X632012D01*
X629896D01*
Y902966D01*
X627780Y900850D01*
X638360Y890270D02*
Y892386D01*
X640476D01*
Y890270D01*
X638360D01*
X655288D02*
Y902966D01*
X648940Y896618D01*
X657404D01*
X677780Y890270D02*
X682012D01*
X679896D01*
Y902966D01*
X677780Y900850D01*
X688360Y890270D02*
Y892386D01*
X690476D01*
Y890270D01*
X688360D01*
X705288D02*
Y902966D01*
X698940Y896618D01*
X707404D01*
X1648460Y841140D02*
X1652692D01*
X1650576D01*
Y853836D01*
X1648460Y851720D01*
X1659040Y841140D02*
Y843256D01*
X1661156D01*
Y841140D01*
X1659040D01*
X1675968D02*
Y853836D01*
X1669620Y847488D01*
X1678084D01*
X1648460Y891140D02*
X1652692D01*
X1650576D01*
Y903836D01*
X1648460Y901720D01*
X1659040Y891140D02*
Y893256D01*
X1661156D01*
Y891140D01*
X1659040D01*
X1675968D02*
Y903836D01*
X1669620Y897488D01*
X1678084D01*
X956310Y1250950D02*
X960542D01*
X958426D01*
Y1263646D01*
X956310Y1261530D01*
X966890Y1250950D02*
Y1253066D01*
X969006D01*
Y1250950D01*
X966890D01*
X977470D02*
X981702D01*
X979586D01*
Y1263646D01*
X977470Y1261530D01*
X956310Y1187450D02*
X960542D01*
X958426D01*
Y1200146D01*
X956310Y1198030D01*
X966890Y1187450D02*
Y1189566D01*
X969006D01*
Y1187450D01*
X966890D01*
X977470D02*
X981702D01*
X979586D01*
Y1200146D01*
X977470Y1198030D01*
X956310Y1123950D02*
X960542D01*
X958426D01*
Y1136646D01*
X956310Y1134530D01*
X966890Y1123950D02*
Y1126066D01*
X969006D01*
Y1123950D01*
X966890D01*
X977470D02*
X981702D01*
X979586D01*
Y1136646D01*
X977470Y1134530D01*
X956310Y1060450D02*
X960542D01*
X958426D01*
Y1073146D01*
X956310Y1071030D01*
X966890Y1060450D02*
Y1062566D01*
X969006D01*
Y1060450D01*
X966890D01*
X977470D02*
X981702D01*
X979586D01*
Y1073146D01*
X977470Y1071030D01*
X1445260Y1060450D02*
X1449492D01*
X1447376D01*
Y1073146D01*
X1445260Y1071030D01*
X1455840Y1060450D02*
Y1062566D01*
X1457956D01*
Y1060450D01*
X1455840D01*
X1466420D02*
X1470652D01*
X1468536D01*
Y1073146D01*
X1466420Y1071030D01*
X1445260Y1092200D02*
X1449492D01*
X1447376D01*
Y1104896D01*
X1445260Y1102780D01*
X1455840Y1092200D02*
Y1094316D01*
X1457956D01*
Y1092200D01*
X1455840D01*
X1466420D02*
X1470652D01*
X1468536D01*
Y1104896D01*
X1466420Y1102780D01*
X1445260Y1123950D02*
X1449492D01*
X1447376D01*
Y1136646D01*
X1445260Y1134530D01*
X1455840Y1123950D02*
Y1126066D01*
X1457956D01*
Y1123950D01*
X1455840D01*
X1466420D02*
X1470652D01*
X1468536D01*
Y1136646D01*
X1466420Y1134530D01*
X1445260Y1155700D02*
X1449492D01*
X1447376D01*
Y1168396D01*
X1445260Y1166280D01*
X1455840Y1155700D02*
Y1157816D01*
X1457956D01*
Y1155700D01*
X1455840D01*
X1466420D02*
X1470652D01*
X1468536D01*
Y1168396D01*
X1466420Y1166280D01*
X1445260Y1187450D02*
X1449492D01*
X1447376D01*
Y1200146D01*
X1445260Y1198030D01*
X1455840Y1187450D02*
Y1189566D01*
X1457956D01*
Y1187450D01*
X1455840D01*
X1466420D02*
X1470652D01*
X1468536D01*
Y1200146D01*
X1466420Y1198030D01*
X1445260Y1219200D02*
X1449492D01*
X1447376D01*
Y1231896D01*
X1445260Y1229780D01*
X1455840Y1219200D02*
Y1221316D01*
X1457956D01*
Y1219200D01*
X1455840D01*
X1466420D02*
X1470652D01*
X1468536D01*
Y1231896D01*
X1466420Y1229780D01*
X1445260Y1250950D02*
X1449492D01*
X1447376D01*
Y1263646D01*
X1445260Y1261530D01*
X1455840Y1250950D02*
Y1253066D01*
X1457956D01*
Y1250950D01*
X1455840D01*
X1466420D02*
X1470652D01*
X1468536D01*
Y1263646D01*
X1466420Y1261530D01*
X956310Y1563370D02*
X960542D01*
X958426D01*
Y1576066D01*
X956310Y1573950D01*
X966890Y1563370D02*
Y1565486D01*
X969006D01*
Y1563370D01*
X966890D01*
X977470D02*
X981702D01*
X979586D01*
Y1576066D01*
X977470Y1573950D01*
X956310Y1499870D02*
X960542D01*
X958426D01*
Y1512566D01*
X956310Y1510450D01*
X966890Y1499870D02*
Y1501986D01*
X969006D01*
Y1499870D01*
X966890D01*
X977470D02*
X981702D01*
X979586D01*
Y1512566D01*
X977470Y1510450D01*
X956310Y1436370D02*
X960542D01*
X958426D01*
Y1449066D01*
X956310Y1446950D01*
X966890Y1436370D02*
Y1438486D01*
X969006D01*
Y1436370D01*
X966890D01*
X977470D02*
X981702D01*
X979586D01*
Y1449066D01*
X977470Y1446950D01*
X956310Y1372870D02*
X960542D01*
X958426D01*
Y1385566D01*
X956310Y1383450D01*
X966890Y1372870D02*
Y1374986D01*
X969006D01*
Y1372870D01*
X966890D01*
X977470D02*
X981702D01*
X979586D01*
Y1385566D01*
X977470Y1383450D01*
X1445260Y1372870D02*
X1449492D01*
X1447376D01*
Y1385566D01*
X1445260Y1383450D01*
X1455840Y1372870D02*
Y1374986D01*
X1457956D01*
Y1372870D01*
X1455840D01*
X1466420D02*
X1470652D01*
X1468536D01*
Y1385566D01*
X1466420Y1383450D01*
X1445260Y1404620D02*
X1449492D01*
X1447376D01*
Y1417316D01*
X1445260Y1415200D01*
X1455840Y1404620D02*
Y1406736D01*
X1457956D01*
Y1404620D01*
X1455840D01*
X1466420D02*
X1470652D01*
X1468536D01*
Y1417316D01*
X1466420Y1415200D01*
X1445260Y1436370D02*
X1449492D01*
X1447376D01*
Y1449066D01*
X1445260Y1446950D01*
X1455840Y1436370D02*
Y1438486D01*
X1457956D01*
Y1436370D01*
X1455840D01*
X1466420D02*
X1470652D01*
X1468536D01*
Y1449066D01*
X1466420Y1446950D01*
X1445260Y1468120D02*
X1449492D01*
X1447376D01*
Y1480816D01*
X1445260Y1478700D01*
X1455840Y1468120D02*
Y1470236D01*
X1457956D01*
Y1468120D01*
X1455840D01*
X1466420D02*
X1470652D01*
X1468536D01*
Y1480816D01*
X1466420Y1478700D01*
X1445260Y1499870D02*
X1449492D01*
X1447376D01*
Y1512566D01*
X1445260Y1510450D01*
X1455840Y1499870D02*
Y1501986D01*
X1457956D01*
Y1499870D01*
X1455840D01*
X1466420D02*
X1470652D01*
X1468536D01*
Y1512566D01*
X1466420Y1510450D01*
X1445260Y1531620D02*
X1449492D01*
X1447376D01*
Y1544316D01*
X1445260Y1542200D01*
X1455840Y1531620D02*
Y1533736D01*
X1457956D01*
Y1531620D01*
X1455840D01*
X1466420D02*
X1470652D01*
X1468536D01*
Y1544316D01*
X1466420Y1542200D01*
X1445260Y1563370D02*
X1449492D01*
X1447376D01*
Y1576066D01*
X1445260Y1573950D01*
X1455840Y1563370D02*
Y1565486D01*
X1457956D01*
Y1563370D01*
X1455840D01*
X1466420D02*
X1470652D01*
X1468536D01*
Y1576066D01*
X1466420Y1573950D01*
X626110Y1050710D02*
X628226Y1052826D01*
X632458D01*
X634574Y1050710D01*
Y1048594D01*
X632458Y1046478D01*
X630342D01*
X632458D01*
X634574Y1044362D01*
Y1042246D01*
X632458Y1040130D01*
X628226D01*
X626110Y1042246D01*
X638806Y1040130D02*
Y1042246D01*
X640922D01*
Y1040130D01*
X638806D01*
X655734D02*
Y1052826D01*
X649386Y1046478D01*
X657850D01*
X624840Y1444410D02*
X626956Y1446526D01*
X631188D01*
X633304Y1444410D01*
Y1442294D01*
X631188Y1440178D01*
X629072D01*
X631188D01*
X633304Y1438062D01*
Y1435946D01*
X631188Y1433830D01*
X626956D01*
X624840Y1435946D01*
X637536Y1433830D02*
Y1435946D01*
X639652D01*
Y1433830D01*
X637536D01*
X654464D02*
Y1446526D01*
X648116Y1440178D01*
X656580D01*
X1549400Y1406310D02*
X1551516Y1408426D01*
X1555748D01*
X1557864Y1406310D01*
Y1404194D01*
X1555748Y1402078D01*
X1553632D01*
X1555748D01*
X1557864Y1399962D01*
Y1397846D01*
X1555748Y1395730D01*
X1551516D01*
X1549400Y1397846D01*
X1562096Y1395730D02*
Y1397846D01*
X1564212D01*
Y1395730D01*
X1562096D01*
X1579024D02*
Y1408426D01*
X1572676Y1402078D01*
X1581140D01*
X1078830Y855330D02*
X1080946Y857446D01*
X1085178D01*
X1087294Y855330D01*
Y846866D01*
X1085178Y844750D01*
X1080946D01*
X1078830Y846866D01*
Y855330D01*
X1091526Y844750D02*
Y846866D01*
X1093642D01*
Y844750D01*
X1091526D01*
X1102106Y857446D02*
X1110570D01*
Y855330D01*
X1102106Y846866D01*
Y844750D01*
X1123266Y857446D02*
X1119034Y855330D01*
X1114802Y851098D01*
Y846866D01*
X1116918Y844750D01*
X1121150D01*
X1123266Y846866D01*
Y848982D01*
X1121150Y851098D01*
X1114802D01*
X1135962Y844750D02*
X1127498D01*
X1135962Y853214D01*
Y855330D01*
X1133846Y857446D01*
X1129613D01*
X1127498Y855330D01*
X925830D02*
X927946Y857446D01*
X932178D01*
X934294Y855330D01*
Y846866D01*
X932178Y844750D01*
X927946D01*
X925830Y846866D01*
Y855330D01*
X938526Y844750D02*
Y846866D01*
X940642D01*
Y844750D01*
X938526D01*
X949106Y857446D02*
X957570D01*
Y855330D01*
X949106Y846866D01*
Y844750D01*
X970266Y857446D02*
X966034Y855330D01*
X961802Y851098D01*
Y846866D01*
X963918Y844750D01*
X968150D01*
X970266Y846866D01*
Y848982D01*
X968150Y851098D01*
X961802D01*
X982962Y844750D02*
X974498D01*
X982962Y853214D01*
Y855330D01*
X980845Y857446D01*
X976613D01*
X974498Y855330D01*
X1104830Y931330D02*
X1106946Y933446D01*
X1111178D01*
X1113294Y931330D01*
Y922866D01*
X1111178Y920750D01*
X1106946D01*
X1104830Y922866D01*
Y931330D01*
X1117526Y920750D02*
Y922866D01*
X1119642D01*
Y920750D01*
X1117526D01*
X1128106Y933446D02*
X1136570D01*
Y931330D01*
X1128106Y922866D01*
Y920750D01*
X1149266Y933446D02*
X1145034Y931330D01*
X1140802Y927098D01*
Y922866D01*
X1142918Y920750D01*
X1147150D01*
X1149266Y922866D01*
Y924982D01*
X1147150Y927098D01*
X1140802D01*
X1161962Y920750D02*
X1153498D01*
X1161962Y929214D01*
Y931330D01*
X1159846Y933446D01*
X1155613D01*
X1153498Y931330D01*
X1027830D02*
X1029946Y933446D01*
X1034178D01*
X1036294Y931330D01*
Y922866D01*
X1034178Y920750D01*
X1029946D01*
X1027830Y922866D01*
Y931330D01*
X1040526Y920750D02*
Y922866D01*
X1042642D01*
Y920750D01*
X1040526D01*
X1051106Y933446D02*
X1059570D01*
Y931330D01*
X1051106Y922866D01*
Y920750D01*
X1072266Y933446D02*
X1068034Y931330D01*
X1063802Y927098D01*
Y922866D01*
X1065918Y920750D01*
X1070150D01*
X1072266Y922866D01*
Y924982D01*
X1070150Y927098D01*
X1063802D01*
X1084961Y920750D02*
X1076498D01*
X1084961Y929214D01*
Y931330D01*
X1082846Y933446D01*
X1078614D01*
X1076498Y931330D01*
X925830D02*
X927946Y933446D01*
X932178D01*
X934294Y931330D01*
Y922866D01*
X932178Y920750D01*
X927946D01*
X925830Y922866D01*
Y931330D01*
X938526Y920750D02*
Y922866D01*
X940642D01*
Y920750D01*
X938526D01*
X949106Y933446D02*
X957570D01*
Y931330D01*
X949106Y922866D01*
Y920750D01*
X970266Y933446D02*
X966034Y931330D01*
X961802Y927098D01*
Y922866D01*
X963918Y920750D01*
X968150D01*
X970266Y922866D01*
Y924982D01*
X968150Y927098D01*
X961802D01*
X982962Y920750D02*
X974498D01*
X982962Y929214D01*
Y931330D01*
X980845Y933446D01*
X976613D01*
X974498Y931330D01*
X783590Y1255230D02*
X787822D01*
X785706D01*
Y1267926D01*
X783590Y1265810D01*
X794170Y1255230D02*
Y1257346D01*
X796286D01*
Y1255230D01*
X794170D01*
X804750Y1265810D02*
X806866Y1267926D01*
X811098D01*
X813214Y1265810D01*
Y1263694D01*
X811098Y1261578D01*
X808982D01*
X811098D01*
X813214Y1259462D01*
Y1257346D01*
X811098Y1255230D01*
X806866D01*
X804750Y1257346D01*
X783590Y1205230D02*
X787822D01*
X785706D01*
Y1217926D01*
X783590Y1215810D01*
X794170Y1205230D02*
Y1207346D01*
X796286D01*
Y1205230D01*
X794170D01*
X804750Y1215810D02*
X806866Y1217926D01*
X811098D01*
X813214Y1215810D01*
Y1213694D01*
X811098Y1211578D01*
X808982D01*
X811098D01*
X813214Y1209462D01*
Y1207346D01*
X811098Y1205230D01*
X806866D01*
X804750Y1207346D01*
X783590Y1405230D02*
X787822D01*
X785706D01*
Y1417926D01*
X783590Y1415810D01*
X794170Y1405230D02*
Y1407346D01*
X796286D01*
Y1405230D01*
X794170D01*
X804750Y1415810D02*
X806866Y1417926D01*
X811098D01*
X813214Y1415810D01*
Y1413694D01*
X811098Y1411578D01*
X808982D01*
X811098D01*
X813214Y1409462D01*
Y1407346D01*
X811098Y1405230D01*
X806866D01*
X804750Y1407346D01*
X783590Y1355230D02*
X787822D01*
X785706D01*
Y1367926D01*
X783590Y1365810D01*
X794170Y1355230D02*
Y1357346D01*
X796286D01*
Y1355230D01*
X794170D01*
X804750Y1365810D02*
X806866Y1367926D01*
X811098D01*
X813214Y1365810D01*
Y1363694D01*
X811098Y1361578D01*
X808982D01*
X811098D01*
X813214Y1359462D01*
Y1357346D01*
X811098Y1355230D01*
X806866D01*
X804750Y1357346D01*
M02*
